<svg width="762" height="317" viewBox="0 0 762 317" fill="none" xmlns="http://www.w3.org/2000/svg">
<rect width="762" height="317" rx="5" fill="#FAFAFA"/>
<g clip-path="url(#clip0_1181_10098)">
<path d="M95 82.0432C95 79.8341 96.7909 78.0432 99 78.0432H266C268.209 78.0432 270 79.8341 270 82.0432V283.043C270 285.252 268.209 287.043 266 287.043H99C96.7909 287.043 95 285.252 95 283.043V82.0432Z" fill="white"/>
<path d="M95 82.0432C95 79.8341 96.7909 78.0432 99 78.0432H266C268.209 78.0432 270 79.8341 270 82.0432V85.0432C270 87.2524 268.209 89.0432 266 89.0432H99C96.7909 89.0432 95 87.2524 95 85.0432V82.0432Z" fill="white"/>
<path fill-rule="evenodd" clip-rule="evenodd" d="M106 97.0432C106 94.8341 107.791 93.0432 110 93.0432H255C257.209 93.0432 259 94.8341 259 97.0432V227.043C259 229.252 257.209 231.043 255 231.043H110C107.791 231.043 106 229.252 106 227.043V97.0432Z" fill="#BAA795"/>
<path fill-rule="evenodd" clip-rule="evenodd" d="M197.087 127.043C196.309 127.043 195.684 127.673 195.684 128.446V132.653H212.514V128.446C212.514 127.673 211.89 127.043 211.112 127.043H197.087ZM195.684 135.458C195.684 140.099 199.459 143.873 204.099 143.873C208.74 143.873 212.514 140.099 212.514 135.458H195.684ZM148 142.47V139.665H166.32C169.405 139.665 172.105 141.632 173.026 144.574L176.576 155.926C176.603 156.013 176.636 156.128 176.664 156.232L179.819 166.313C180.115 167.261 180.258 168.252 180.258 169.249V192.96C180.258 195.278 178.367 197.168 176.05 197.168H170.44C168.123 197.168 166.233 195.278 166.233 192.96V190.155H148V162.105H169.388C171.448 162.105 172.845 161.612 173.552 160.659C174.406 159.514 174.187 157.876 173.99 157.065L170.352 145.407C169.799 143.643 168.172 142.47 166.32 142.47H148ZM196.386 145.275C192.135 145.275 188.672 148.738 188.672 152.989V173.325C188.672 174.876 189.927 176.13 191.477 176.13C193.028 176.13 194.282 174.876 194.282 173.325V156.495C194.282 156.117 194.606 155.794 194.984 155.794C195.362 155.794 195.685 156.117 195.685 156.495V193.399C195.685 195.59 196.863 197.168 199.06 197.168C201.136 197.168 202.697 195.557 202.697 193.399V174.29C202.697 173.901 203.015 173.588 203.399 173.588C203.782 173.588 204.1 173.901 204.1 174.29V193.793C204.103 193.799 204.112 193.796 204.122 193.793C204.131 193.79 204.141 193.788 204.144 193.793C204.335 195.733 205.798 197.168 207.738 197.168C209.929 197.168 211.112 195.59 211.112 193.399V156.495C211.112 156.117 211.436 155.794 211.814 155.794C212.192 155.794 212.515 156.117 212.515 156.495V173.325C212.515 174.876 213.769 176.13 215.32 176.13C216.87 176.13 218.125 174.876 218.125 173.325V152.989C218.125 148.738 214.662 145.275 210.411 145.275H209.622L204.1 160.703L198.578 145.275H196.386ZM173.245 176.131C173.245 173.808 171.36 171.923 169.037 171.923C166.983 171.923 166.193 172.379 164.403 173.412C164.145 173.561 163.865 173.722 163.559 173.895C161.931 174.816 160.622 175.698 160.622 177.533C160.622 179.084 161.877 180.338 163.427 180.338H169.037C171.36 180.338 173.245 178.453 173.245 176.131Z" fill="white"/>
<path d="M95 239.043C95 236.834 96.7909 235.043 99 235.043H266C268.209 235.043 270 236.834 270 239.043V271.043C270 273.252 268.209 275.043 266 275.043H99C96.7909 275.043 95 273.252 95 271.043V239.043Z" fill="white"/>
<path d="M113.2 265.043L109.936 254.579H111.904L113.376 259.843C113.547 260.43 113.701 260.995 113.84 261.539C113.979 262.083 114.133 262.654 114.304 263.251H114.368C114.549 262.654 114.704 262.083 114.832 261.539C114.971 260.995 115.12 260.43 115.28 259.843L116.736 254.579H118.64L115.392 265.043H113.2ZM120.541 265.235C119.859 265.235 119.299 265.022 118.861 264.595C118.435 264.169 118.221 263.614 118.221 262.931C118.221 262.089 118.589 261.438 119.325 260.979C120.061 260.51 121.235 260.19 122.845 260.019C122.835 259.603 122.723 259.246 122.509 258.947C122.307 258.638 121.939 258.483 121.405 258.483C121.021 258.483 120.643 258.558 120.269 258.707C119.907 258.857 119.549 259.038 119.197 259.251L118.525 258.019C118.963 257.742 119.453 257.502 119.997 257.299C120.552 257.097 121.139 256.995 121.757 256.995C122.739 256.995 123.469 257.289 123.949 257.875C124.44 258.451 124.685 259.289 124.685 260.387V265.043H123.165L123.037 264.179H122.973C122.621 264.478 122.243 264.729 121.837 264.931C121.443 265.134 121.011 265.235 120.541 265.235ZM121.133 263.795C121.453 263.795 121.741 263.721 121.997 263.571C122.264 263.411 122.547 263.198 122.845 262.931V261.171C121.779 261.31 121.037 261.518 120.621 261.795C120.205 262.062 119.997 262.393 119.997 262.787C119.997 263.139 120.104 263.395 120.317 263.555C120.531 263.715 120.803 263.795 121.133 263.795ZM128.039 265.235C127.389 265.235 126.925 265.038 126.647 264.643C126.381 264.249 126.247 263.71 126.247 263.027V253.747H128.087V263.123C128.087 263.347 128.13 263.507 128.215 263.603C128.301 263.689 128.391 263.731 128.487 263.731C128.53 263.731 128.567 263.731 128.599 263.731C128.642 263.721 128.701 263.71 128.775 263.699L129.015 265.075C128.909 265.118 128.77 265.155 128.599 265.187C128.439 265.219 128.253 265.235 128.039 265.235ZM133.311 265.235C132.586 265.235 131.93 265.075 131.343 264.755C130.756 264.425 130.292 263.955 129.951 263.347C129.61 262.729 129.439 261.987 129.439 261.123C129.439 260.27 129.61 259.534 129.951 258.915C130.303 258.297 130.756 257.822 131.311 257.491C131.866 257.161 132.447 256.995 133.055 256.995C133.77 256.995 134.367 257.155 134.847 257.475C135.327 257.785 135.69 258.222 135.935 258.787C136.18 259.342 136.303 259.987 136.303 260.723C136.303 261.107 136.276 261.406 136.223 261.619H131.231C131.316 262.313 131.567 262.851 131.983 263.235C132.399 263.619 132.922 263.811 133.551 263.811C133.892 263.811 134.207 263.763 134.495 263.667C134.794 263.561 135.087 263.417 135.375 263.235L135.999 264.387C135.626 264.633 135.21 264.835 134.751 264.995C134.292 265.155 133.812 265.235 133.311 265.235ZM131.215 260.371H134.703C134.703 259.763 134.57 259.289 134.303 258.947C134.036 258.595 133.636 258.419 133.103 258.419C132.644 258.419 132.234 258.59 131.871 258.931C131.519 259.262 131.3 259.742 131.215 260.371ZM140.032 265.235C139.126 265.235 138.48 264.974 138.096 264.451C137.723 263.918 137.536 263.23 137.536 262.387V258.643H136.416V257.267L137.632 257.187L137.856 255.043H139.392V257.187H141.392V258.643H139.392V262.387C139.392 263.305 139.76 263.763 140.496 263.763C140.635 263.763 140.779 263.747 140.928 263.715C141.078 263.673 141.206 263.63 141.312 263.587L141.632 264.947C141.419 265.022 141.174 265.086 140.896 265.139C140.63 265.203 140.342 265.235 140.032 265.235Z" fill="#354052"/>
</g>
<path d="M99 78.5432H266C267.933 78.5432 269.5 80.1102 269.5 82.0432V283.043C269.5 284.976 267.933 286.543 266 286.543H99C97.067 286.543 95.5 284.976 95.5 283.043V82.0432C95.5 80.1102 97.067 78.5432 99 78.5432Z" stroke="#B9BDC5"/>
<g clip-path="url(#clip1_1181_10098)">
<rect x="462" y="78.0432" width="175" height="209" fill="white"/>
<path d="M462 82.0432C462 79.8341 463.791 78.0432 466 78.0432H633C635.209 78.0432 637 79.8341 637 82.0432V85.0432C637 87.2524 635.209 89.0432 633 89.0432H466C463.791 89.0432 462 87.2524 462 85.0432V82.0432Z" fill="white"/>
<path fill-rule="evenodd" clip-rule="evenodd" d="M473 97.0432C473 94.8341 474.791 93.0432 477 93.0432H622C624.209 93.0432 626 94.8341 626 97.0432V227.043C626 229.252 624.209 231.043 622 231.043H477C474.791 231.043 473 229.252 473 227.043V97.0432Z" fill="#761DB1"/>
<path fill-rule="evenodd" clip-rule="evenodd" d="M515 128.587C515 127.737 515.655 127.043 516.457 127.043H562.63C563.438 127.043 564.087 127.737 564.087 128.587V183.664C564.087 193.153 570.661 196.462 575.198 197.071C574.551 197.172 574.071 197.169 573.945 197.168L573.923 197.168H527.613C527.101 197.168 521.961 197.071 518.37 193.309C516.11 190.946 515 187.697 515 183.664V128.587ZM567.002 183.664V137.412H575.016C572.318 140.517 572.46 144.821 572.466 144.936V182.361C572.466 183.218 573.115 183.905 573.923 183.905C574.731 183.905 575.38 183.218 575.38 182.361V144.888L575.38 144.885C575.379 144.772 575.343 141.544 577.247 139.438C577.993 138.612 578.978 138.051 580.162 137.75C583.941 138.823 585.074 142.748 585.125 144.984V145.032V183.76C585.125 184.514 585.102 185.213 585.034 185.882C584.032 193.761 577.532 194.075 576.746 194.081C576.348 194.081 567.002 193.918 567.002 183.664ZM524.153 139.727H552.886C553.694 139.727 554.343 140.421 554.343 141.271C554.343 142.121 553.694 142.814 552.886 142.814H524.153C523.35 142.814 522.696 142.121 522.696 141.271C522.696 140.421 523.35 139.727 524.153 139.727ZM552.886 145.9H524.153C523.35 145.9 522.696 146.594 522.696 147.444C522.696 148.294 523.35 148.987 524.153 148.987H552.886C553.694 148.987 554.343 148.294 554.343 147.444C554.343 146.594 553.694 145.9 552.886 145.9ZM524.836 158.247H534.717C535.52 158.247 536.174 158.94 536.174 159.79C536.174 160.64 535.52 161.334 534.717 161.334H524.836C524.033 161.334 523.379 160.64 523.379 159.79C523.379 158.94 524.033 158.247 524.836 158.247ZM552.886 158.247H541.638C540.836 158.247 540.181 158.94 540.181 159.79C540.181 160.64 540.836 161.334 541.638 161.334H552.886C553.694 161.334 554.343 160.64 554.343 159.79C554.343 158.94 553.694 158.247 552.886 158.247ZM524.836 164.421H534.717C535.52 164.421 536.174 165.108 536.174 165.964C536.174 166.82 535.52 167.507 534.717 167.507H524.836C524.033 167.507 523.379 166.82 523.379 165.964C523.379 165.108 524.033 164.421 524.836 164.421ZM552.886 164.421H541.638C540.836 164.421 540.181 165.108 540.181 165.964C540.181 166.82 540.836 167.507 541.638 167.507H552.886C553.694 167.507 554.343 166.82 554.343 165.964C554.343 165.108 553.694 164.421 552.886 164.421ZM541.638 170.256H552.886C553.694 170.256 554.343 170.943 554.343 171.799C554.343 172.655 553.694 173.342 552.886 173.342H541.638C540.836 173.342 540.181 172.655 540.181 171.799C540.181 170.943 540.836 170.256 541.638 170.256ZM534.717 170.593H524.836C524.033 170.593 523.379 171.281 523.379 172.137C523.379 172.993 524.033 173.68 524.836 173.68H534.717C535.52 173.68 536.174 172.993 536.174 172.137C536.174 171.281 535.52 170.593 534.717 170.593ZM541.638 176.429H552.886C553.694 176.429 554.343 177.117 554.343 177.973C554.343 178.829 553.694 179.516 552.886 179.516H541.638C540.836 179.516 540.181 178.829 540.181 177.973C540.181 177.117 540.836 176.429 541.638 176.429ZM534.717 176.767H524.836C524.033 176.767 523.379 177.454 523.379 178.31C523.379 179.166 524.033 179.854 524.836 179.854H534.717C535.52 179.854 536.174 179.166 536.174 178.31C536.174 177.454 535.52 176.767 534.717 176.767ZM541.638 182.217H552.886C553.694 182.217 554.343 182.904 554.343 183.76C554.343 184.616 553.694 185.304 552.886 185.304H541.638C540.836 185.304 540.181 184.616 540.181 183.76C540.181 182.904 540.836 182.217 541.638 182.217ZM534.717 182.94H524.836C524.033 182.94 523.379 183.627 523.379 184.483C523.379 185.339 524.033 186.027 524.836 186.027H534.717C535.52 186.027 536.174 185.339 536.174 184.483C536.174 183.627 535.52 182.94 534.717 182.94Z" fill="#C9C9C9"/>
<path d="M462 239.043C462 236.834 463.791 235.043 466 235.043H633C635.209 235.043 637 236.834 637 239.043V271.043C637 273.252 635.209 275.043 633 275.043H466C463.791 275.043 462 273.252 462 271.043V239.043Z" fill="white"/>
<path d="M480.6 265.043L476.928 253.271H479.142L480.798 259.193C480.99 259.853 481.164 260.489 481.32 261.101C481.476 261.713 481.65 262.355 481.842 263.027H481.914C482.118 262.355 482.292 261.713 482.436 261.101C482.592 260.489 482.76 259.853 482.94 259.193L484.578 253.271H486.72L483.066 265.043H480.6ZM489.555 258.779L489.141 260.219H492.147L491.733 258.779C491.541 258.155 491.355 257.513 491.175 256.853C491.007 256.193 490.839 255.539 490.671 254.891H490.599C490.443 255.551 490.275 256.211 490.095 256.871C489.927 257.519 489.747 258.155 489.555 258.779ZM485.613 265.043L489.447 253.271H491.895L495.729 265.043H493.533L492.615 261.857H488.655L487.737 265.043H485.613ZM496.46 265.043V253.271H498.548V263.279H503.444V265.043H496.46ZM504.775 265.043V253.271H511.867V255.035H506.863V258.041H511.093V259.805H506.863V263.279H512.047V265.043H504.775ZM516.2 265.259C515.18 265.259 514.454 264.965 514.022 264.377C513.602 263.777 513.392 263.003 513.392 262.055V257.843H512.132V256.295L513.5 256.205L513.752 253.793H515.48V256.205H517.73V257.843H515.48V262.055C515.48 263.087 515.894 263.603 516.722 263.603C516.878 263.603 517.04 263.585 517.208 263.549C517.376 263.501 517.52 263.453 517.64 263.405L518 264.935C517.76 265.019 517.484 265.091 517.172 265.151C516.872 265.223 516.548 265.259 516.2 265.259Z" fill="#354052"/>
</g>
<rect x="462.5" y="78.5432" width="174" height="208" stroke="#BD362F"/>
<circle cx="114" cy="39" r="19" fill="#59BD36"/>
<line x1="105.707" y1="36.9596" x2="113.04" y2="44.2929" stroke="white" stroke-width="2"/>
<line x1="111.626" y1="44.2928" x2="122.626" y2="33.2929" stroke="white" stroke-width="2"/>
<circle cx="481" cy="41" r="19" fill="#BD3636"/>
<line x1="474.531" y1="47.2929" x2="487.413" y2="34.4108" stroke="white" stroke-width="2"/>
<line x1="474.707" y1="34.2929" x2="487.589" y2="47.175" stroke="white" stroke-width="2"/>
<defs>
<clipPath id="clip0_1181_10098">
<path d="M95 82.0432C95 79.8341 96.7909 78.0432 99 78.0432H266C268.209 78.0432 270 79.8341 270 82.0432V283.043C270 285.252 268.209 287.043 266 287.043H99C96.7909 287.043 95 285.252 95 283.043V82.0432Z" fill="white"/>
</clipPath>
<clipPath id="clip1_1181_10098">
<rect x="462" y="78.0432" width="175" height="209" fill="white"/>
</clipPath>
</defs>
</svg>
