<svg width="762" height="190" viewBox="0 0 762 190" fill="none" xmlns="http://www.w3.org/2000/svg">
<rect width="762" height="190" rx="5" fill="#FAFAFA"/>
<circle cx="59" cy="65" r="19" fill="#59BD36"/>
<line x1="50.7071" y1="62.9599" x2="58.0404" y2="70.2932" stroke="white" stroke-width="2"/>
<line x1="56.6261" y1="70.2929" x2="67.6261" y2="59.293" stroke="white" stroke-width="2"/>
<circle cx="458" cy="67" r="19" fill="#BD3636"/>
<line x1="451.531" y1="73.2929" x2="464.413" y2="60.4108" stroke="white" stroke-width="2"/>
<line x1="451.707" y1="60.2929" x2="464.589" y2="73.175" stroke="white" stroke-width="2"/>
<rect x="40" y="117" width="97" height="36" rx="4" fill="#1990EA"/>
<path d="M65.4491 139.5V130.344H68.3331C69.0144 130.344 69.6211 130.433 70.1531 130.61C70.6851 130.787 71.1051 131.081 71.4131 131.492C71.7211 131.903 71.8751 132.463 71.8751 133.172C71.8751 133.844 71.7211 134.399 71.4131 134.838C71.1051 135.277 70.6898 135.603 70.1671 135.818C69.6444 136.033 69.0518 136.14 68.3891 136.14H67.0731V139.5H65.4491ZM67.0731 134.838H68.2631C69.6071 134.838 70.2791 134.283 70.2791 133.172C70.2791 132.593 70.1018 132.197 69.7471 131.982C69.4018 131.758 68.8884 131.646 68.2071 131.646H67.0731V134.838ZM73.4575 139.5V132.626H74.7875L74.8995 133.844H74.9555C75.1982 133.396 75.4922 133.055 75.8375 132.822C76.1829 132.579 76.5375 132.458 76.9015 132.458C77.2282 132.458 77.4895 132.505 77.6855 132.598L77.4055 133.998C77.2842 133.961 77.1722 133.933 77.0695 133.914C76.9669 133.895 76.8409 133.886 76.6915 133.886C76.4209 133.886 76.1362 133.993 75.8375 134.208C75.5389 134.413 75.2822 134.777 75.0675 135.3V139.5H73.4575ZM78.6802 139.5V132.626H80.2902V139.5H78.6802ZM79.4922 131.422C79.2029 131.422 78.9695 131.338 78.7922 131.17C78.6149 131.002 78.5262 130.778 78.5262 130.498C78.5262 130.227 78.6149 130.008 78.7922 129.84C78.9695 129.672 79.2029 129.588 79.4922 129.588C79.7815 129.588 80.0149 129.672 80.1922 129.84C80.3695 130.008 80.4582 130.227 80.4582 130.498C80.4582 130.778 80.3695 131.002 80.1922 131.17C80.0149 131.338 79.7815 131.422 79.4922 131.422ZM82.3443 139.5V132.626H83.6743L83.7863 133.564H83.8423C84.1316 133.256 84.4443 132.995 84.7803 132.78C85.1256 132.565 85.5129 132.458 85.9423 132.458C86.4463 132.458 86.8476 132.57 87.1463 132.794C87.4543 133.009 87.6876 133.307 87.8463 133.69C88.1729 133.335 88.5136 133.041 88.8683 132.808C89.2323 132.575 89.6289 132.458 90.0583 132.458C90.7863 132.458 91.3229 132.696 91.6683 133.172C92.0136 133.648 92.1863 134.32 92.1863 135.188V139.5H90.5623V135.398C90.5623 134.829 90.4736 134.427 90.2963 134.194C90.1283 133.961 89.8669 133.844 89.5123 133.844C89.0829 133.844 88.6023 134.129 88.0703 134.698V139.5H86.4603V135.398C86.4603 134.829 86.3716 134.427 86.1943 134.194C86.0263 133.961 85.7603 133.844 85.3963 133.844C84.9669 133.844 84.4863 134.129 83.9543 134.698V139.5H82.3443ZM95.8091 139.668C95.2118 139.668 94.7218 139.481 94.3391 139.108C93.9658 138.735 93.7791 138.249 93.7791 137.652C93.7791 136.915 94.1011 136.345 94.7451 135.944C95.3891 135.533 96.4158 135.253 97.8251 135.104C97.8158 134.74 97.7178 134.427 97.5311 134.166C97.3538 133.895 97.0318 133.76 96.5651 133.76C96.2291 133.76 95.8978 133.825 95.5711 133.956C95.2538 134.087 94.9411 134.245 94.6331 134.432L94.0451 133.354C94.4278 133.111 94.8571 132.901 95.3331 132.724C95.8184 132.547 96.3318 132.458 96.8731 132.458C97.7318 132.458 98.3711 132.715 98.7911 133.228C99.2204 133.732 99.4351 134.465 99.4351 135.426V139.5H98.1051L97.9931 138.744H97.9371C97.6291 139.005 97.2978 139.225 96.9431 139.402C96.5978 139.579 96.2198 139.668 95.8091 139.668ZM96.3271 138.408C96.6071 138.408 96.8591 138.343 97.0831 138.212C97.3164 138.072 97.5638 137.885 97.8251 137.652V136.112C96.8918 136.233 96.2431 136.415 95.8791 136.658C95.5151 136.891 95.3331 137.181 95.3331 137.526C95.3331 137.834 95.4264 138.058 95.6131 138.198C95.7998 138.338 96.0378 138.408 96.3271 138.408ZM101.362 139.5V132.626H102.692L102.804 133.844H102.86C103.103 133.396 103.397 133.055 103.742 132.822C104.087 132.579 104.442 132.458 104.806 132.458C105.133 132.458 105.394 132.505 105.59 132.598L105.31 133.998C105.189 133.961 105.077 133.933 104.974 133.914C104.871 133.895 104.745 133.886 104.596 133.886C104.325 133.886 104.041 133.993 103.742 134.208C103.443 134.413 103.187 134.777 102.972 135.3V139.5H101.362ZM107.265 142.328C107.079 142.328 106.915 142.314 106.775 142.286C106.635 142.258 106.5 142.225 106.369 142.188L106.663 140.928C106.729 140.947 106.803 140.965 106.887 140.984C106.981 141.012 107.069 141.026 107.153 141.026C107.517 141.026 107.807 140.914 108.021 140.69C108.245 140.475 108.413 140.195 108.525 139.85L108.651 139.416L105.949 132.626H107.587L108.777 136C108.88 136.299 108.978 136.616 109.071 136.952C109.174 137.279 109.277 137.605 109.379 137.932H109.435C109.519 137.615 109.603 137.293 109.687 136.966C109.781 136.63 109.869 136.308 109.953 136L110.989 132.626H112.543L110.051 139.808C109.762 140.583 109.412 141.194 109.001 141.642C108.591 142.099 108.012 142.328 107.265 142.328Z" fill="white"/>
<rect x="165.5" y="117.5" width="111" height="35" rx="3.5" fill="white"/>
<rect x="165.5" y="117.5" width="111" height="35" rx="3.5" stroke="#1990EA"/>
<path d="M192.905 139.668C192.289 139.668 191.692 139.551 191.113 139.318C190.544 139.085 190.04 138.753 189.601 138.324L190.553 137.218C190.88 137.526 191.253 137.778 191.673 137.974C192.093 138.161 192.513 138.254 192.933 138.254C193.456 138.254 193.853 138.147 194.123 137.932C194.394 137.717 194.529 137.433 194.529 137.078C194.529 136.695 194.394 136.42 194.123 136.252C193.862 136.084 193.526 135.911 193.115 135.734L191.855 135.188C191.557 135.057 191.263 134.889 190.973 134.684C190.693 134.479 190.46 134.217 190.273 133.9C190.096 133.583 190.007 133.2 190.007 132.752C190.007 132.267 190.138 131.833 190.399 131.45C190.67 131.058 191.034 130.75 191.491 130.526C191.958 130.293 192.49 130.176 193.087 130.176C193.619 130.176 194.133 130.283 194.627 130.498C195.122 130.703 195.547 130.983 195.901 131.338L195.075 132.374C194.786 132.131 194.478 131.94 194.151 131.8C193.834 131.66 193.479 131.59 193.087 131.59C192.658 131.59 192.308 131.688 192.037 131.884C191.776 132.071 191.645 132.332 191.645 132.668C191.645 132.901 191.711 133.097 191.841 133.256C191.981 133.405 192.163 133.536 192.387 133.648C192.611 133.751 192.849 133.853 193.101 133.956L194.347 134.474C194.889 134.707 195.332 135.015 195.677 135.398C196.023 135.771 196.195 136.289 196.195 136.952C196.195 137.447 196.065 137.899 195.803 138.31C195.542 138.721 195.164 139.052 194.669 139.304C194.184 139.547 193.596 139.668 192.905 139.668ZM200.66 139.668C200.026 139.668 199.452 139.528 198.938 139.248C198.425 138.959 198.019 138.548 197.72 138.016C197.422 137.475 197.272 136.826 197.272 136.07C197.272 135.323 197.422 134.679 197.72 134.138C198.028 133.597 198.425 133.181 198.91 132.892C199.396 132.603 199.904 132.458 200.436 132.458C201.062 132.458 201.584 132.598 202.004 132.878C202.424 133.149 202.742 133.531 202.956 134.026C203.171 134.511 203.278 135.076 203.278 135.72C203.278 136.056 203.255 136.317 203.208 136.504H198.84C198.915 137.111 199.134 137.582 199.498 137.918C199.862 138.254 200.32 138.422 200.87 138.422C201.169 138.422 201.444 138.38 201.696 138.296C201.958 138.203 202.214 138.077 202.466 137.918L203.012 138.926C202.686 139.141 202.322 139.318 201.92 139.458C201.519 139.598 201.099 139.668 200.66 139.668ZM198.826 135.412H201.878C201.878 134.88 201.762 134.465 201.528 134.166C201.295 133.858 200.945 133.704 200.478 133.704C200.077 133.704 199.718 133.853 199.4 134.152C199.092 134.441 198.901 134.861 198.826 135.412ZM207.686 139.668C207.061 139.668 206.496 139.528 205.992 139.248C205.497 138.959 205.101 138.548 204.802 138.016C204.513 137.475 204.368 136.826 204.368 136.07C204.368 135.305 204.527 134.656 204.844 134.124C205.161 133.583 205.581 133.172 206.104 132.892C206.636 132.603 207.205 132.458 207.812 132.458C208.251 132.458 208.633 132.533 208.96 132.682C209.287 132.831 209.576 133.013 209.828 133.228L209.044 134.278C208.867 134.119 208.685 133.998 208.498 133.914C208.311 133.821 208.111 133.774 207.896 133.774C207.345 133.774 206.893 133.984 206.538 134.404C206.193 134.824 206.02 135.379 206.02 136.07C206.02 136.751 206.188 137.302 206.524 137.722C206.869 138.142 207.313 138.352 207.854 138.352C208.125 138.352 208.377 138.296 208.61 138.184C208.853 138.063 209.072 137.923 209.268 137.764L209.926 138.828C209.609 139.108 209.254 139.318 208.862 139.458C208.47 139.598 208.078 139.668 207.686 139.668ZM213.755 139.668C213.186 139.668 212.654 139.528 212.159 139.248C211.664 138.959 211.263 138.548 210.955 138.016C210.647 137.475 210.493 136.826 210.493 136.07C210.493 135.305 210.647 134.656 210.955 134.124C211.263 133.583 211.664 133.172 212.159 132.892C212.654 132.603 213.186 132.458 213.755 132.458C214.334 132.458 214.87 132.603 215.365 132.892C215.86 133.172 216.261 133.583 216.569 134.124C216.877 134.656 217.031 135.305 217.031 136.07C217.031 136.826 216.877 137.475 216.569 138.016C216.261 138.548 215.86 138.959 215.365 139.248C214.87 139.528 214.334 139.668 213.755 139.668ZM213.755 138.352C214.259 138.352 214.656 138.142 214.945 137.722C215.234 137.302 215.379 136.751 215.379 136.07C215.379 135.379 215.234 134.824 214.945 134.404C214.656 133.984 214.259 133.774 213.755 133.774C213.251 133.774 212.854 133.984 212.565 134.404C212.285 134.824 212.145 135.379 212.145 136.07C212.145 136.751 212.285 137.302 212.565 137.722C212.854 138.142 213.251 138.352 213.755 138.352ZM218.625 139.5V132.626H219.955L220.067 133.55H220.123C220.431 133.251 220.767 132.995 221.131 132.78C221.495 132.565 221.91 132.458 222.377 132.458C223.114 132.458 223.651 132.696 223.987 133.172C224.323 133.648 224.491 134.32 224.491 135.188V139.5H222.881V135.398C222.881 134.829 222.797 134.427 222.629 134.194C222.461 133.961 222.185 133.844 221.803 133.844C221.504 133.844 221.238 133.919 221.005 134.068C220.781 134.208 220.524 134.418 220.235 134.698V139.5H218.625ZM228.867 139.668C228.008 139.668 227.322 139.351 226.809 138.716C226.295 138.081 226.039 137.199 226.039 136.07C226.039 135.323 226.174 134.679 226.445 134.138C226.725 133.597 227.089 133.181 227.537 132.892C227.985 132.603 228.456 132.458 228.951 132.458C229.343 132.458 229.674 132.528 229.945 132.668C230.225 132.799 230.495 132.981 230.757 133.214L230.701 132.108V129.616H232.311V139.5H230.981L230.869 138.758H230.813C230.561 139.01 230.267 139.225 229.931 139.402C229.595 139.579 229.24 139.668 228.867 139.668ZM229.259 138.338C229.772 138.338 230.253 138.081 230.701 137.568V134.362C230.467 134.147 230.234 133.998 230.001 133.914C229.767 133.83 229.534 133.788 229.301 133.788C228.862 133.788 228.484 133.989 228.167 134.39C227.859 134.782 227.705 135.337 227.705 136.056C227.705 136.793 227.84 137.358 228.111 137.75C228.381 138.142 228.764 138.338 229.259 138.338ZM236.027 139.668C235.43 139.668 234.94 139.481 234.557 139.108C234.184 138.735 233.997 138.249 233.997 137.652C233.997 136.915 234.319 136.345 234.963 135.944C235.607 135.533 236.634 135.253 238.043 135.104C238.034 134.74 237.936 134.427 237.749 134.166C237.572 133.895 237.25 133.76 236.783 133.76C236.447 133.76 236.116 133.825 235.789 133.956C235.472 134.087 235.159 134.245 234.851 134.432L234.263 133.354C234.646 133.111 235.075 132.901 235.551 132.724C236.036 132.547 236.55 132.458 237.091 132.458C237.95 132.458 238.589 132.715 239.009 133.228C239.438 133.732 239.653 134.465 239.653 135.426V139.5H238.323L238.211 138.744H238.155C237.847 139.005 237.516 139.225 237.161 139.402C236.816 139.579 236.438 139.668 236.027 139.668ZM236.545 138.408C236.825 138.408 237.077 138.343 237.301 138.212C237.534 138.072 237.782 137.885 238.043 137.652V136.112C237.11 136.233 236.461 136.415 236.097 136.658C235.733 136.891 235.551 137.181 235.551 137.526C235.551 137.834 235.644 138.058 235.831 138.198C236.018 138.338 236.256 138.408 236.545 138.408ZM241.58 139.5V132.626H242.91L243.022 133.844H243.078C243.32 133.396 243.614 133.055 243.96 132.822C244.305 132.579 244.66 132.458 245.024 132.458C245.35 132.458 245.612 132.505 245.808 132.598L245.528 133.998C245.406 133.961 245.294 133.933 245.192 133.914C245.089 133.895 244.963 133.886 244.814 133.886C244.543 133.886 244.258 133.993 243.96 134.208C243.661 134.413 243.404 134.777 243.19 135.3V139.5H241.58ZM247.483 142.328C247.296 142.328 247.133 142.314 246.993 142.286C246.853 142.258 246.718 142.225 246.587 142.188L246.881 140.928C246.946 140.947 247.021 140.965 247.105 140.984C247.198 141.012 247.287 141.026 247.371 141.026C247.735 141.026 248.024 140.914 248.239 140.69C248.463 140.475 248.631 140.195 248.743 139.85L248.869 139.416L246.167 132.626H247.805L248.995 136C249.098 136.299 249.196 136.616 249.289 136.952C249.392 137.279 249.494 137.605 249.597 137.932H249.653C249.737 137.615 249.821 137.293 249.905 136.966C249.998 136.63 250.087 136.308 250.171 136L251.207 132.626H252.761L250.269 139.808C249.98 140.583 249.63 141.194 249.219 141.642C248.808 142.099 248.23 142.328 247.483 142.328Z" fill="#1990EA"/>
<rect x="439" y="117" width="97" height="36" rx="4" fill="#1990EA"/>
<path d="M464.449 139.5V130.344H467.333C468.014 130.344 468.621 130.433 469.153 130.61C469.685 130.787 470.105 131.081 470.413 131.492C470.721 131.903 470.875 132.463 470.875 133.172C470.875 133.844 470.721 134.399 470.413 134.838C470.105 135.277 469.69 135.603 469.167 135.818C468.644 136.033 468.052 136.14 467.389 136.14H466.073V139.5H464.449ZM466.073 134.838H467.263C468.607 134.838 469.279 134.283 469.279 133.172C469.279 132.593 469.102 132.197 468.747 131.982C468.402 131.758 467.888 131.646 467.207 131.646H466.073V134.838ZM472.458 139.5V132.626H473.788L473.9 133.844H473.956C474.198 133.396 474.492 133.055 474.838 132.822C475.183 132.579 475.538 132.458 475.902 132.458C476.228 132.458 476.49 132.505 476.686 132.598L476.406 133.998C476.284 133.961 476.172 133.933 476.07 133.914C475.967 133.895 475.841 133.886 475.692 133.886C475.421 133.886 475.136 133.993 474.838 134.208C474.539 134.413 474.282 134.777 474.068 135.3V139.5H472.458ZM477.68 139.5V132.626H479.29V139.5H477.68ZM478.492 131.422C478.203 131.422 477.97 131.338 477.792 131.17C477.615 131.002 477.526 130.778 477.526 130.498C477.526 130.227 477.615 130.008 477.792 129.84C477.97 129.672 478.203 129.588 478.492 129.588C478.782 129.588 479.015 129.672 479.192 129.84C479.37 130.008 479.458 130.227 479.458 130.498C479.458 130.778 479.37 131.002 479.192 131.17C479.015 131.338 478.782 131.422 478.492 131.422ZM481.344 139.5V132.626H482.674L482.786 133.564H482.842C483.132 133.256 483.444 132.995 483.78 132.78C484.126 132.565 484.513 132.458 484.942 132.458C485.446 132.458 485.848 132.57 486.146 132.794C486.454 133.009 486.688 133.307 486.846 133.69C487.173 133.335 487.514 133.041 487.868 132.808C488.232 132.575 488.629 132.458 489.058 132.458C489.786 132.458 490.323 132.696 490.668 133.172C491.014 133.648 491.186 134.32 491.186 135.188V139.5H489.562V135.398C489.562 134.829 489.474 134.427 489.296 134.194C489.128 133.961 488.867 133.844 488.512 133.844C488.083 133.844 487.602 134.129 487.07 134.698V139.5H485.46V135.398C485.46 134.829 485.372 134.427 485.194 134.194C485.026 133.961 484.76 133.844 484.396 133.844C483.967 133.844 483.486 134.129 482.954 134.698V139.5H481.344ZM494.809 139.668C494.212 139.668 493.722 139.481 493.339 139.108C492.966 138.735 492.779 138.249 492.779 137.652C492.779 136.915 493.101 136.345 493.745 135.944C494.389 135.533 495.416 135.253 496.825 135.104C496.816 134.74 496.718 134.427 496.531 134.166C496.354 133.895 496.032 133.76 495.565 133.76C495.229 133.76 494.898 133.825 494.571 133.956C494.254 134.087 493.941 134.245 493.633 134.432L493.045 133.354C493.428 133.111 493.857 132.901 494.333 132.724C494.818 132.547 495.332 132.458 495.873 132.458C496.732 132.458 497.371 132.715 497.791 133.228C498.22 133.732 498.435 134.465 498.435 135.426V139.5H497.105L496.993 138.744H496.937C496.629 139.005 496.298 139.225 495.943 139.402C495.598 139.579 495.22 139.668 494.809 139.668ZM495.327 138.408C495.607 138.408 495.859 138.343 496.083 138.212C496.316 138.072 496.564 137.885 496.825 137.652V136.112C495.892 136.233 495.243 136.415 494.879 136.658C494.515 136.891 494.333 137.181 494.333 137.526C494.333 137.834 494.426 138.058 494.613 138.198C494.8 138.338 495.038 138.408 495.327 138.408ZM500.362 139.5V132.626H501.692L501.804 133.844H501.86C502.103 133.396 502.397 133.055 502.742 132.822C503.087 132.579 503.442 132.458 503.806 132.458C504.133 132.458 504.394 132.505 504.59 132.598L504.31 133.998C504.189 133.961 504.077 133.933 503.974 133.914C503.871 133.895 503.745 133.886 503.596 133.886C503.325 133.886 503.041 133.993 502.742 134.208C502.443 134.413 502.187 134.777 501.972 135.3V139.5H500.362ZM506.265 142.328C506.079 142.328 505.915 142.314 505.775 142.286C505.635 142.258 505.5 142.225 505.369 142.188L505.663 140.928C505.729 140.947 505.803 140.965 505.887 140.984C505.981 141.012 506.069 141.026 506.153 141.026C506.517 141.026 506.807 140.914 507.021 140.69C507.245 140.475 507.413 140.195 507.525 139.85L507.651 139.416L504.949 132.626H506.587L507.777 136C507.88 136.299 507.978 136.616 508.071 136.952C508.174 137.279 508.277 137.605 508.379 137.932H508.435C508.519 137.615 508.603 137.293 508.687 136.966C508.781 136.63 508.869 136.308 508.953 136L509.989 132.626H511.543L509.051 139.808C508.762 140.583 508.412 141.194 508.001 141.642C507.591 142.099 507.012 142.328 506.265 142.328Z" fill="white"/>
<rect x="564.5" y="117.5" width="111" height="35" rx="3.5" fill="#1990EA"/>
<rect x="564.5" y="117.5" width="111" height="35" rx="3.5" stroke="#1990EA"/>
<path d="M591.905 139.668C591.289 139.668 590.692 139.551 590.113 139.318C589.544 139.085 589.04 138.753 588.601 138.324L589.553 137.218C589.88 137.526 590.253 137.778 590.673 137.974C591.093 138.161 591.513 138.254 591.933 138.254C592.456 138.254 592.853 138.147 593.123 137.932C593.394 137.717 593.529 137.433 593.529 137.078C593.529 136.695 593.394 136.42 593.123 136.252C592.862 136.084 592.526 135.911 592.115 135.734L590.855 135.188C590.557 135.057 590.263 134.889 589.973 134.684C589.693 134.479 589.46 134.217 589.273 133.9C589.096 133.583 589.007 133.2 589.007 132.752C589.007 132.267 589.138 131.833 589.399 131.45C589.67 131.058 590.034 130.75 590.491 130.526C590.958 130.293 591.49 130.176 592.087 130.176C592.619 130.176 593.133 130.283 593.627 130.498C594.122 130.703 594.547 130.983 594.901 131.338L594.075 132.374C593.786 132.131 593.478 131.94 593.151 131.8C592.834 131.66 592.479 131.59 592.087 131.59C591.658 131.59 591.308 131.688 591.037 131.884C590.776 132.071 590.645 132.332 590.645 132.668C590.645 132.901 590.711 133.097 590.841 133.256C590.981 133.405 591.163 133.536 591.387 133.648C591.611 133.751 591.849 133.853 592.101 133.956L593.347 134.474C593.889 134.707 594.332 135.015 594.677 135.398C595.023 135.771 595.195 136.289 595.195 136.952C595.195 137.447 595.065 137.899 594.803 138.31C594.542 138.721 594.164 139.052 593.669 139.304C593.184 139.547 592.596 139.668 591.905 139.668ZM599.66 139.668C599.026 139.668 598.452 139.528 597.938 139.248C597.425 138.959 597.019 138.548 596.72 138.016C596.422 137.475 596.272 136.826 596.272 136.07C596.272 135.323 596.422 134.679 596.72 134.138C597.028 133.597 597.425 133.181 597.91 132.892C598.396 132.603 598.904 132.458 599.436 132.458C600.062 132.458 600.584 132.598 601.004 132.878C601.424 133.149 601.742 133.531 601.956 134.026C602.171 134.511 602.278 135.076 602.278 135.72C602.278 136.056 602.255 136.317 602.208 136.504H597.84C597.915 137.111 598.134 137.582 598.498 137.918C598.862 138.254 599.32 138.422 599.87 138.422C600.169 138.422 600.444 138.38 600.696 138.296C600.958 138.203 601.214 138.077 601.466 137.918L602.012 138.926C601.686 139.141 601.322 139.318 600.92 139.458C600.519 139.598 600.099 139.668 599.66 139.668ZM597.826 135.412H600.878C600.878 134.88 600.762 134.465 600.528 134.166C600.295 133.858 599.945 133.704 599.478 133.704C599.077 133.704 598.718 133.853 598.4 134.152C598.092 134.441 597.901 134.861 597.826 135.412ZM606.686 139.668C606.061 139.668 605.496 139.528 604.992 139.248C604.497 138.959 604.101 138.548 603.802 138.016C603.513 137.475 603.368 136.826 603.368 136.07C603.368 135.305 603.527 134.656 603.844 134.124C604.161 133.583 604.581 133.172 605.104 132.892C605.636 132.603 606.205 132.458 606.812 132.458C607.251 132.458 607.633 132.533 607.96 132.682C608.287 132.831 608.576 133.013 608.828 133.228L608.044 134.278C607.867 134.119 607.685 133.998 607.498 133.914C607.311 133.821 607.111 133.774 606.896 133.774C606.345 133.774 605.893 133.984 605.538 134.404C605.193 134.824 605.02 135.379 605.02 136.07C605.02 136.751 605.188 137.302 605.524 137.722C605.869 138.142 606.313 138.352 606.854 138.352C607.125 138.352 607.377 138.296 607.61 138.184C607.853 138.063 608.072 137.923 608.268 137.764L608.926 138.828C608.609 139.108 608.254 139.318 607.862 139.458C607.47 139.598 607.078 139.668 606.686 139.668ZM612.755 139.668C612.186 139.668 611.654 139.528 611.159 139.248C610.664 138.959 610.263 138.548 609.955 138.016C609.647 137.475 609.493 136.826 609.493 136.07C609.493 135.305 609.647 134.656 609.955 134.124C610.263 133.583 610.664 133.172 611.159 132.892C611.654 132.603 612.186 132.458 612.755 132.458C613.334 132.458 613.87 132.603 614.365 132.892C614.86 133.172 615.261 133.583 615.569 134.124C615.877 134.656 616.031 135.305 616.031 136.07C616.031 136.826 615.877 137.475 615.569 138.016C615.261 138.548 614.86 138.959 614.365 139.248C613.87 139.528 613.334 139.668 612.755 139.668ZM612.755 138.352C613.259 138.352 613.656 138.142 613.945 137.722C614.234 137.302 614.379 136.751 614.379 136.07C614.379 135.379 614.234 134.824 613.945 134.404C613.656 133.984 613.259 133.774 612.755 133.774C612.251 133.774 611.854 133.984 611.565 134.404C611.285 134.824 611.145 135.379 611.145 136.07C611.145 136.751 611.285 137.302 611.565 137.722C611.854 138.142 612.251 138.352 612.755 138.352ZM617.625 139.5V132.626H618.955L619.067 133.55H619.123C619.431 133.251 619.767 132.995 620.131 132.78C620.495 132.565 620.91 132.458 621.377 132.458C622.114 132.458 622.651 132.696 622.987 133.172C623.323 133.648 623.491 134.32 623.491 135.188V139.5H621.881V135.398C621.881 134.829 621.797 134.427 621.629 134.194C621.461 133.961 621.185 133.844 620.803 133.844C620.504 133.844 620.238 133.919 620.005 134.068C619.781 134.208 619.524 134.418 619.235 134.698V139.5H617.625ZM627.867 139.668C627.008 139.668 626.322 139.351 625.809 138.716C625.295 138.081 625.039 137.199 625.039 136.07C625.039 135.323 625.174 134.679 625.445 134.138C625.725 133.597 626.089 133.181 626.537 132.892C626.985 132.603 627.456 132.458 627.951 132.458C628.343 132.458 628.674 132.528 628.945 132.668C629.225 132.799 629.495 132.981 629.757 133.214L629.701 132.108V129.616H631.311V139.5H629.981L629.869 138.758H629.813C629.561 139.01 629.267 139.225 628.931 139.402C628.595 139.579 628.24 139.668 627.867 139.668ZM628.259 138.338C628.772 138.338 629.253 138.081 629.701 137.568V134.362C629.467 134.147 629.234 133.998 629.001 133.914C628.767 133.83 628.534 133.788 628.301 133.788C627.862 133.788 627.484 133.989 627.167 134.39C626.859 134.782 626.705 135.337 626.705 136.056C626.705 136.793 626.84 137.358 627.111 137.75C627.381 138.142 627.764 138.338 628.259 138.338ZM635.027 139.668C634.43 139.668 633.94 139.481 633.557 139.108C633.184 138.735 632.997 138.249 632.997 137.652C632.997 136.915 633.319 136.345 633.963 135.944C634.607 135.533 635.634 135.253 637.043 135.104C637.034 134.74 636.936 134.427 636.749 134.166C636.572 133.895 636.25 133.76 635.783 133.76C635.447 133.76 635.116 133.825 634.789 133.956C634.472 134.087 634.159 134.245 633.851 134.432L633.263 133.354C633.646 133.111 634.075 132.901 634.551 132.724C635.036 132.547 635.55 132.458 636.091 132.458C636.95 132.458 637.589 132.715 638.009 133.228C638.438 133.732 638.653 134.465 638.653 135.426V139.5H637.323L637.211 138.744H637.155C636.847 139.005 636.516 139.225 636.161 139.402C635.816 139.579 635.438 139.668 635.027 139.668ZM635.545 138.408C635.825 138.408 636.077 138.343 636.301 138.212C636.534 138.072 636.782 137.885 637.043 137.652V136.112C636.11 136.233 635.461 136.415 635.097 136.658C634.733 136.891 634.551 137.181 634.551 137.526C634.551 137.834 634.644 138.058 634.831 138.198C635.018 138.338 635.256 138.408 635.545 138.408ZM640.58 139.5V132.626H641.91L642.022 133.844H642.078C642.32 133.396 642.614 133.055 642.96 132.822C643.305 132.579 643.66 132.458 644.024 132.458C644.35 132.458 644.612 132.505 644.808 132.598L644.528 133.998C644.406 133.961 644.294 133.933 644.192 133.914C644.089 133.895 643.963 133.886 643.814 133.886C643.543 133.886 643.258 133.993 642.96 134.208C642.661 134.413 642.404 134.777 642.19 135.3V139.5H640.58ZM646.483 142.328C646.296 142.328 646.133 142.314 645.993 142.286C645.853 142.258 645.718 142.225 645.587 142.188L645.881 140.928C645.946 140.947 646.021 140.965 646.105 140.984C646.198 141.012 646.287 141.026 646.371 141.026C646.735 141.026 647.024 140.914 647.239 140.69C647.463 140.475 647.631 140.195 647.743 139.85L647.869 139.416L645.167 132.626H646.805L647.995 136C648.098 136.299 648.196 136.616 648.289 136.952C648.392 137.279 648.494 137.605 648.597 137.932H648.653C648.737 137.615 648.821 137.293 648.905 136.966C648.998 136.63 649.087 136.308 649.171 136L650.207 132.626H651.761L649.269 139.808C648.98 140.583 648.63 141.194 648.219 141.642C647.808 142.099 647.23 142.328 646.483 142.328Z" fill="white"/>
</svg>
