<svg width="649" height="263" viewBox="0 0 649 263" fill="none" xmlns="http://www.w3.org/2000/svg">
<g clip-path="url(#clip0_315_2695)">
<rect y="0.956787" width="649" height="262" rx="5" fill="#FAFAFA"/>
<rect width="597" height="230" transform="translate(32 32.9568)" fill="#FAFAFA"/>
<path d="M33.26 78V68.816H35.556C36.9747 68.816 38.0527 69.2127 38.79 70.006C39.5273 70.79 39.896 71.91 39.896 73.366C39.896 74.8313 39.5273 75.97 38.79 76.782C38.062 77.594 37.0027 78 35.612 78H33.26ZM34.422 77.048H35.472C36.5453 77.048 37.348 76.726 37.88 76.082C38.4213 75.4287 38.692 74.5233 38.692 73.366C38.692 72.2087 38.4213 71.322 37.88 70.706C37.348 70.0807 36.5453 69.768 35.472 69.768H34.422V77.048ZM44.5193 78.168C43.9126 78.168 43.3619 78.028 42.8673 77.748C42.3726 77.4587 41.9806 77.048 41.6913 76.516C41.4019 75.984 41.2573 75.3493 41.2573 74.612C41.2573 73.8653 41.4019 73.226 41.6913 72.694C41.9899 72.162 42.3726 71.7513 42.8393 71.462C43.3059 71.1727 43.7959 71.028 44.3093 71.028C45.1773 71.028 45.8446 71.3173 46.3113 71.896C46.7873 72.4747 47.0253 73.2493 47.0253 74.22C47.0253 74.3413 47.0206 74.4627 47.0113 74.584C47.0113 74.696 47.0019 74.794 46.9833 74.878H42.3913C42.4379 75.5967 42.6619 76.1707 43.0633 76.6C43.4739 77.0293 44.0059 77.244 44.6593 77.244C44.9859 77.244 45.2846 77.1973 45.5553 77.104C45.8353 77.0013 46.1013 76.8707 46.3533 76.712L46.7593 77.468C46.4699 77.6547 46.1386 77.818 45.7653 77.958C45.4013 78.098 44.9859 78.168 44.5193 78.168ZM42.3773 74.052H46.0173C46.0173 73.3613 45.8679 72.8387 45.5693 72.484C45.2799 72.12 44.8693 71.938 44.3373 71.938C43.8613 71.938 43.4319 72.1247 43.0493 72.498C42.6759 72.862 42.4519 73.38 42.3773 74.052ZM48.9026 78V72.134H47.9786V71.266L48.9026 71.196V70.118C48.9026 69.4273 49.0613 68.8813 49.3786 68.48C49.7053 68.0693 50.2093 67.864 50.8906 67.864C51.1053 67.864 51.3106 67.8873 51.5066 67.934C51.7026 67.9713 51.8753 68.0227 52.0246 68.088L51.7726 68.97C51.5206 68.858 51.2639 68.802 51.0026 68.802C50.3679 68.802 50.0506 69.2407 50.0506 70.118V71.196H51.4926V72.134H50.0506V78H48.9026ZM54.089 78.168C53.5197 78.168 53.0437 78 52.661 77.664C52.2877 77.3187 52.101 76.8427 52.101 76.236C52.101 75.4893 52.4324 74.92 53.095 74.528C53.767 74.1267 54.8264 73.8467 56.273 73.688C56.273 73.3987 56.231 73.1233 56.147 72.862C56.0724 72.6007 55.9324 72.3907 55.727 72.232C55.531 72.064 55.2464 71.98 54.873 71.98C54.481 71.98 54.1124 72.0547 53.767 72.204C53.4217 72.3533 53.1137 72.5213 52.843 72.708L52.395 71.91C52.7124 71.7047 53.0997 71.5087 53.557 71.322C54.0237 71.126 54.5277 71.028 55.069 71.028C55.8997 71.028 56.5017 71.2847 56.875 71.798C57.2484 72.302 57.435 72.9787 57.435 73.828V78H56.483L56.385 77.188H56.343C56.0257 77.4493 55.6757 77.678 55.293 77.874C54.9197 78.07 54.5184 78.168 54.089 78.168ZM54.425 77.244C54.7517 77.244 55.0597 77.1647 55.349 77.006C55.6384 76.8473 55.9464 76.6233 56.273 76.334V74.444C55.1437 74.584 54.3504 74.794 53.893 75.074C53.445 75.354 53.221 75.7133 53.221 76.152C53.221 76.5347 53.3377 76.8147 53.571 76.992C53.8044 77.16 54.089 77.244 54.425 77.244ZM61.5637 78.168C60.8451 78.168 60.3177 77.944 59.9817 77.496C59.6457 77.0387 59.4777 76.376 59.4777 75.508V71.196H60.6397V75.354C60.6397 75.9887 60.7377 76.4507 60.9337 76.74C61.1391 77.0293 61.4657 77.174 61.9137 77.174C62.2684 77.174 62.5811 77.0853 62.8517 76.908C63.1317 76.7213 63.4304 76.4273 63.7477 76.026V71.196H64.8957V78H63.9437L63.8457 76.936H63.8037C63.4864 77.3093 63.1504 77.608 62.7957 77.832C62.4411 78.056 62.0304 78.168 61.5637 78.168ZM68.409 78.168C67.9796 78.168 67.667 78.0373 67.471 77.776C67.2843 77.5053 67.191 77.1227 67.191 76.628V68.032H68.339V76.712C68.339 76.8893 68.3716 77.02 68.437 77.104C68.5023 77.1787 68.577 77.216 68.661 77.216C68.6983 77.216 68.731 77.216 68.759 77.216C68.7963 77.2067 68.8476 77.1973 68.913 77.188L69.067 78.056C68.9923 78.0933 68.9036 78.1213 68.801 78.14C68.6983 78.1587 68.5676 78.168 68.409 78.168ZM72.9013 78.168C72.1733 78.168 71.6647 77.958 71.3753 77.538C71.0953 77.118 70.9553 76.572 70.9553 75.9V72.134H69.9473V71.266L71.0113 71.196L71.1513 69.292H72.1173V71.196H73.9513V72.134H72.1173V75.914C72.1173 76.334 72.192 76.6607 72.3413 76.894C72.5 77.118 72.7753 77.23 73.1673 77.23C73.2887 77.23 73.4193 77.2113 73.5593 77.174C73.6993 77.1273 73.8253 77.0853 73.9373 77.048L74.1613 77.916C73.9747 77.9813 73.7693 78.0373 73.5453 78.084C73.3307 78.14 73.116 78.168 72.9013 78.168Z" fill="black"/>
<path d="M34.842 190.862L34.408 192.262H37.166L36.732 190.862C36.564 190.349 36.4053 189.84 36.256 189.336C36.1067 188.823 35.9573 188.3 35.808 187.768H35.752C35.612 188.3 35.4673 188.823 35.318 189.336C35.1687 189.84 35.01 190.349 34.842 190.862ZM32.042 196L35.15 186.816H36.466L39.574 196H38.328L37.46 193.2H34.114L33.232 196H32.042ZM43.4512 196.168C42.8539 196.168 42.3126 196.028 41.8272 195.748C41.3419 195.468 40.9592 195.062 40.6792 194.53C40.3992 193.998 40.2592 193.359 40.2592 192.612C40.2592 191.847 40.4086 191.198 40.7072 190.666C41.0152 190.134 41.4166 189.728 41.9112 189.448C42.4152 189.168 42.9566 189.028 43.5352 189.028C43.9832 189.028 44.3659 189.107 44.6832 189.266C45.0099 189.425 45.2899 189.611 45.5232 189.826L44.9352 190.582C44.7392 190.405 44.5292 190.26 44.3052 190.148C44.0906 190.036 43.8479 189.98 43.5772 189.98C43.1666 189.98 42.7979 190.092 42.4712 190.316C42.1539 190.531 41.9019 190.839 41.7152 191.24C41.5379 191.632 41.4492 192.089 41.4492 192.612C41.4492 193.387 41.6406 194.017 42.0232 194.502C42.4152 194.978 42.9239 195.216 43.5492 195.216C43.8666 195.216 44.1606 195.151 44.4312 195.02C44.7019 194.88 44.9399 194.717 45.1452 194.53L45.6492 195.3C45.3412 195.571 45.0006 195.785 44.6272 195.944C44.2539 196.093 43.8619 196.168 43.4512 196.168ZM49.1533 196.168C48.4253 196.168 47.9166 195.958 47.6273 195.538C47.3473 195.118 47.2073 194.572 47.2073 193.9V190.134H46.1993V189.266L47.2633 189.196L47.4033 187.292H48.3693V189.196H50.2033V190.134H48.3693V193.914C48.3693 194.334 48.4439 194.661 48.5933 194.894C48.7519 195.118 49.0273 195.23 49.4193 195.23C49.5406 195.23 49.6713 195.211 49.8113 195.174C49.9513 195.127 50.0773 195.085 50.1893 195.048L50.4133 195.916C50.2266 195.981 50.0213 196.037 49.7973 196.084C49.5826 196.14 49.3679 196.168 49.1533 196.168ZM51.7418 196V189.196H52.8898V196H51.7418ZM52.3298 187.796C52.1058 187.796 51.9191 187.731 51.7698 187.6C51.6298 187.46 51.5598 187.273 51.5598 187.04C51.5598 186.816 51.6298 186.634 51.7698 186.494C51.9191 186.354 52.1058 186.284 52.3298 186.284C52.5538 186.284 52.7358 186.354 52.8758 186.494C53.0251 186.634 53.0998 186.816 53.0998 187.04C53.0998 187.273 53.0251 187.46 52.8758 187.6C52.7358 187.731 52.5538 187.796 52.3298 187.796ZM56.6571 196L54.2071 189.196H55.3971L56.6851 193.06C56.7877 193.396 56.8904 193.732 56.9931 194.068C57.1051 194.404 57.2124 194.735 57.3151 195.062H57.3711C57.4737 194.735 57.5764 194.404 57.6791 194.068C57.7911 193.732 57.8937 193.396 57.9871 193.06L59.2751 189.196H60.4091L58.0011 196H56.6571ZM64.4255 196.168C63.8189 196.168 63.2682 196.028 62.7735 195.748C62.2789 195.459 61.8869 195.048 61.5975 194.516C61.3082 193.984 61.1635 193.349 61.1635 192.612C61.1635 191.865 61.3082 191.226 61.5975 190.694C61.8962 190.162 62.2789 189.751 62.7455 189.462C63.2122 189.173 63.7022 189.028 64.2155 189.028C65.0835 189.028 65.7509 189.317 66.2175 189.896C66.6935 190.475 66.9315 191.249 66.9315 192.22C66.9315 192.341 66.9269 192.463 66.9175 192.584C66.9175 192.696 66.9082 192.794 66.8895 192.878H62.2975C62.3442 193.597 62.5682 194.171 62.9695 194.6C63.3802 195.029 63.9122 195.244 64.5655 195.244C64.8922 195.244 65.1909 195.197 65.4615 195.104C65.7415 195.001 66.0075 194.871 66.2595 194.712L66.6655 195.468C66.3762 195.655 66.0449 195.818 65.6715 195.958C65.3075 196.098 64.8922 196.168 64.4255 196.168ZM62.2835 192.052H65.9235C65.9235 191.361 65.7742 190.839 65.4755 190.484C65.1862 190.12 64.7755 189.938 64.2435 189.938C63.7675 189.938 63.3382 190.125 62.9555 190.498C62.5822 190.862 62.3582 191.38 62.2835 192.052Z" fill="black"/>
<path d="M167.268 78L165.322 68.816H166.526L167.492 73.814C167.576 74.3087 167.665 74.8033 167.758 75.298C167.851 75.7927 167.94 76.2873 168.024 76.782H168.08C168.183 76.2873 168.29 75.7927 168.402 75.298C168.514 74.794 168.621 74.2993 168.724 73.814L169.998 68.816H171.062L172.336 73.814C172.448 74.2993 172.56 74.794 172.672 75.298C172.784 75.7927 172.896 76.2873 173.008 76.782H173.064C173.148 76.2873 173.232 75.7927 173.316 75.298C173.4 74.794 173.489 74.2993 173.582 73.814L174.548 68.816H175.668L173.764 78H172.364L170.978 72.47C170.894 72.1153 170.815 71.77 170.74 71.434C170.675 71.0887 170.605 70.7387 170.53 70.384H170.474C170.409 70.7387 170.334 71.0887 170.25 71.434C170.166 71.77 170.087 72.1153 170.012 72.47L168.654 78H167.268ZM177.154 78V68.032H178.302V70.748L178.26 72.148C178.587 71.84 178.927 71.5787 179.282 71.364C179.646 71.14 180.061 71.028 180.528 71.028C181.247 71.028 181.769 71.2567 182.096 71.714C182.432 72.162 182.6 72.82 182.6 73.688V78H181.452V73.842C181.452 73.2073 181.349 72.7453 181.144 72.456C180.939 72.1667 180.612 72.022 180.164 72.022C179.819 72.022 179.506 72.1107 179.226 72.288C178.955 72.4653 178.647 72.7267 178.302 73.072V78H177.154ZM187.527 78.168C186.92 78.168 186.37 78.028 185.875 77.748C185.38 77.4587 184.988 77.048 184.699 76.516C184.41 75.984 184.265 75.3493 184.265 74.612C184.265 73.8653 184.41 73.226 184.699 72.694C184.998 72.162 185.38 71.7513 185.847 71.462C186.314 71.1727 186.804 71.028 187.317 71.028C188.185 71.028 188.852 71.3173 189.319 71.896C189.795 72.4747 190.033 73.2493 190.033 74.22C190.033 74.3413 190.028 74.4627 190.019 74.584C190.019 74.696 190.01 74.794 189.991 74.878H185.399C185.446 75.5967 185.67 76.1707 186.071 76.6C186.482 77.0293 187.014 77.244 187.667 77.244C187.994 77.244 188.292 77.1973 188.563 77.104C188.843 77.0013 189.109 76.8707 189.361 76.712L189.767 77.468C189.478 77.6547 189.146 77.818 188.773 77.958C188.409 78.098 187.994 78.168 187.527 78.168ZM185.385 74.052H189.025C189.025 73.3613 188.876 72.8387 188.577 72.484C188.288 72.12 187.877 71.938 187.345 71.938C186.869 71.938 186.44 72.1247 186.057 72.498C185.684 72.862 185.46 73.38 185.385 74.052ZM191.714 78V71.196H192.666L192.764 72.428H192.806C193.04 71.9987 193.324 71.658 193.66 71.406C193.996 71.154 194.356 71.028 194.738 71.028C195.009 71.028 195.252 71.0747 195.466 71.168L195.242 72.176C195.13 72.1387 195.028 72.1107 194.934 72.092C194.841 72.0733 194.724 72.064 194.584 72.064C194.295 72.064 193.992 72.1807 193.674 72.414C193.366 72.6473 193.096 73.0533 192.862 73.632V78H191.714ZM199.189 78.168C198.583 78.168 198.032 78.028 197.537 77.748C197.043 77.4587 196.651 77.048 196.361 76.516C196.072 75.984 195.927 75.3493 195.927 74.612C195.927 73.8653 196.072 73.226 196.361 72.694C196.66 72.162 197.043 71.7513 197.509 71.462C197.976 71.1727 198.466 71.028 198.979 71.028C199.847 71.028 200.515 71.3173 200.981 71.896C201.457 72.4747 201.695 73.2493 201.695 74.22C201.695 74.3413 201.691 74.4627 201.681 74.584C201.681 74.696 201.672 74.794 201.653 74.878H197.061C197.108 75.5967 197.332 76.1707 197.733 76.6C198.144 77.0293 198.676 77.244 199.329 77.244C199.656 77.244 199.955 77.1973 200.225 77.104C200.505 77.0013 200.771 76.8707 201.023 76.712L201.429 77.468C201.14 77.6547 200.809 77.818 200.435 77.958C200.071 78.098 199.656 78.168 199.189 78.168ZM197.047 74.052H200.687C200.687 73.3613 200.538 72.8387 200.239 72.484C199.95 72.12 199.539 71.938 199.007 71.938C198.531 71.938 198.102 72.1247 197.719 72.498C197.346 72.862 197.122 73.38 197.047 74.052Z" fill="#354052"/>
<rect x="123" y="59" width="28" height="28" rx="14" fill="#E6EAEE"/>
<path d="M134.606 78V77.048H136.65V70.468H135.026V69.726C135.437 69.6513 135.791 69.5627 136.09 69.46C136.398 69.348 136.673 69.2173 136.916 69.068H137.798V77.048H139.646V78H134.606Z" fill="#354052"/>
<path d="M541.732 78.168C540.967 78.168 540.281 77.9813 539.674 77.608C539.077 77.2253 538.601 76.6793 538.246 75.97C537.901 75.2607 537.728 74.4067 537.728 73.408C537.728 72.4187 537.905 71.5693 538.26 70.86C538.615 70.1507 539.1 69.6047 539.716 69.222C540.332 68.8393 541.027 68.648 541.802 68.648C542.362 68.648 542.857 68.7647 543.286 68.998C543.715 69.222 544.061 69.4833 544.322 69.782L543.692 70.538C543.449 70.2767 543.174 70.0667 542.866 69.908C542.558 69.7493 542.208 69.67 541.816 69.67C541.237 69.67 540.729 69.824 540.29 70.132C539.861 70.4307 539.525 70.8553 539.282 71.406C539.049 71.9567 538.932 72.6147 538.932 73.38C538.932 74.1453 539.049 74.8127 539.282 75.382C539.515 75.942 539.842 76.376 540.262 76.684C540.691 76.992 541.195 77.146 541.774 77.146C542.213 77.146 542.605 77.0527 542.95 76.866C543.295 76.6793 543.613 76.4273 543.902 76.11L544.546 76.838C544.182 77.258 543.771 77.5847 543.314 77.818C542.857 78.0513 542.329 78.168 541.732 78.168ZM548.792 78.168C548.241 78.168 547.723 78.028 547.238 77.748C546.762 77.468 546.375 77.062 546.076 76.53C545.787 75.998 545.642 75.3587 545.642 74.612C545.642 73.8467 545.787 73.198 546.076 72.666C546.375 72.134 546.762 71.728 547.238 71.448C547.723 71.168 548.241 71.028 548.792 71.028C549.352 71.028 549.87 71.168 550.346 71.448C550.822 71.728 551.205 72.134 551.494 72.666C551.793 73.198 551.942 73.8467 551.942 74.612C551.942 75.3587 551.793 75.998 551.494 76.53C551.205 77.062 550.822 77.468 550.346 77.748C549.87 78.028 549.352 78.168 548.792 78.168ZM548.792 77.216C549.38 77.216 549.851 76.978 550.206 76.502C550.57 76.0167 550.752 75.3867 550.752 74.612C550.752 73.828 550.57 73.1933 550.206 72.708C549.851 72.2227 549.38 71.98 548.792 71.98C548.213 71.98 547.742 72.2227 547.378 72.708C547.014 73.1933 546.832 73.828 546.832 74.612C546.832 75.3867 547.014 76.0167 547.378 76.502C547.742 76.978 548.213 77.216 548.792 77.216ZM553.734 78V71.196H554.686L554.784 72.176H554.826C555.153 71.8493 555.498 71.5787 555.862 71.364C556.226 71.14 556.641 71.028 557.108 71.028C557.827 71.028 558.349 71.2567 558.676 71.714C559.012 72.162 559.18 72.82 559.18 73.688V78H558.032V73.842C558.032 73.2073 557.929 72.7453 557.724 72.456C557.519 72.1667 557.192 72.022 556.744 72.022C556.399 72.022 556.086 72.1107 555.806 72.288C555.535 72.4653 555.227 72.7267 554.882 73.072V78H553.734ZM561.586 78V72.134H560.662V71.266L561.586 71.196V70.118C561.586 69.4273 561.745 68.8813 562.062 68.48C562.389 68.0693 562.893 67.864 563.574 67.864C563.789 67.864 563.994 67.8873 564.19 67.934C564.386 67.9713 564.559 68.0227 564.708 68.088L564.456 68.97C564.204 68.858 563.948 68.802 563.686 68.802C563.052 68.802 562.734 69.2407 562.734 70.118V71.196H564.176V72.134H562.734V78H561.586ZM565.478 78V71.196H566.626V78H565.478ZM566.066 69.796C565.842 69.796 565.655 69.7307 565.506 69.6C565.366 69.46 565.296 69.2733 565.296 69.04C565.296 68.816 565.366 68.634 565.506 68.494C565.655 68.354 565.842 68.284 566.066 68.284C566.29 68.284 566.472 68.354 566.612 68.494C566.761 68.634 566.836 68.816 566.836 69.04C566.836 69.2733 566.761 69.46 566.612 69.6C566.472 69.7307 566.29 69.796 566.066 69.796ZM568.923 78V71.196H569.875L569.973 72.428H570.015C570.249 71.9987 570.533 71.658 570.869 71.406C571.205 71.154 571.565 71.028 571.947 71.028C572.218 71.028 572.461 71.0747 572.675 71.168L572.451 72.176C572.339 72.1387 572.237 72.1107 572.143 72.092C572.05 72.0733 571.933 72.064 571.793 72.064C571.504 72.064 571.201 72.1807 570.883 72.414C570.575 72.6473 570.305 73.0533 570.071 73.632V78H568.923ZM573.777 78V71.196H574.729L574.827 72.176H574.869C575.168 71.8493 575.494 71.5787 575.849 71.364C576.204 71.14 576.582 71.028 576.983 71.028C577.506 71.028 577.912 71.1447 578.201 71.378C578.5 71.602 578.719 71.9193 578.859 72.33C579.214 71.9473 579.573 71.6347 579.937 71.392C580.301 71.1493 580.688 71.028 581.099 71.028C581.799 71.028 582.317 71.2567 582.653 71.714C582.998 72.162 583.171 72.82 583.171 73.688V78H582.023V73.842C582.023 73.2073 581.92 72.7453 581.715 72.456C581.51 72.1667 581.192 72.022 580.763 72.022C580.259 72.022 579.69 72.372 579.055 73.072V78H577.907V73.842C577.907 73.2073 577.804 72.7453 577.599 72.456C577.394 72.1667 577.072 72.022 576.633 72.022C576.129 72.022 575.56 72.372 574.925 73.072V78H573.777Z" fill="#354052"/>
<rect x="495" y="59" width="28" height="28" rx="14" fill="#E6EAEE"/>
<path d="M506.956 74.612H509.756V72.022C509.756 71.7793 509.765 71.49 509.784 71.154C509.803 70.818 509.817 70.5333 509.826 70.3H509.77C509.658 70.5147 509.541 70.7247 509.42 70.93C509.299 71.1353 509.173 71.3453 509.042 71.56L506.956 74.612ZM509.756 78V75.536H505.738V74.78L509.56 69.068H510.848V74.612H512.066V75.536H510.848V78H509.756Z" fill="#354052"/>
<path d="M415.268 78L413.322 68.816H414.526L415.492 73.814C415.576 74.3087 415.665 74.8033 415.758 75.298C415.851 75.7927 415.94 76.2873 416.024 76.782H416.08C416.183 76.2873 416.29 75.7927 416.402 75.298C416.514 74.794 416.621 74.2993 416.724 73.814L417.998 68.816H419.062L420.336 73.814C420.448 74.2993 420.56 74.794 420.672 75.298C420.784 75.7927 420.896 76.2873 421.008 76.782H421.064C421.148 76.2873 421.232 75.7927 421.316 75.298C421.4 74.794 421.489 74.2993 421.582 73.814L422.548 68.816H423.668L421.764 78H420.364L418.978 72.47C418.894 72.1153 418.815 71.77 418.74 71.434C418.675 71.0887 418.605 70.7387 418.53 70.384H418.474C418.409 70.7387 418.334 71.0887 418.25 71.434C418.166 71.77 418.087 72.1153 418.012 72.47L416.654 78H415.268ZM425.154 78V68.032H426.302V70.748L426.26 72.148C426.587 71.84 426.927 71.5787 427.282 71.364C427.646 71.14 428.061 71.028 428.528 71.028C429.247 71.028 429.769 71.2567 430.096 71.714C430.432 72.162 430.6 72.82 430.6 73.688V78H429.452V73.842C429.452 73.2073 429.349 72.7453 429.144 72.456C428.939 72.1667 428.612 72.022 428.164 72.022C427.819 72.022 427.506 72.1107 427.226 72.288C426.955 72.4653 426.647 72.7267 426.302 73.072V78H425.154ZM434.337 78.168C433.768 78.168 433.292 78 432.909 77.664C432.536 77.3187 432.349 76.8427 432.349 76.236C432.349 75.4893 432.68 74.92 433.343 74.528C434.015 74.1267 435.074 73.8467 436.521 73.688C436.521 73.3987 436.479 73.1233 436.395 72.862C436.32 72.6007 436.18 72.3907 435.975 72.232C435.779 72.064 435.494 71.98 435.121 71.98C434.729 71.98 434.36 72.0547 434.015 72.204C433.67 72.3533 433.362 72.5213 433.091 72.708L432.643 71.91C432.96 71.7047 433.348 71.5087 433.805 71.322C434.272 71.126 434.776 71.028 435.317 71.028C436.148 71.028 436.75 71.2847 437.123 71.798C437.496 72.302 437.683 72.9787 437.683 73.828V78H436.731L436.633 77.188H436.591C436.274 77.4493 435.924 77.678 435.541 77.874C435.168 78.07 434.766 78.168 434.337 78.168ZM434.673 77.244C435 77.244 435.308 77.1647 435.597 77.006C435.886 76.8473 436.194 76.6233 436.521 76.334V74.444C435.392 74.584 434.598 74.794 434.141 75.074C433.693 75.354 433.469 75.7133 433.469 76.152C433.469 76.5347 433.586 76.8147 433.819 76.992C434.052 77.16 434.337 77.244 434.673 77.244ZM441.774 78.168C441.046 78.168 440.538 77.958 440.248 77.538C439.968 77.118 439.828 76.572 439.828 75.9V72.134H438.82V71.266L439.884 71.196L440.024 69.292H440.99V71.196H442.824V72.134H440.99V75.914C440.99 76.334 441.065 76.6607 441.214 76.894C441.373 77.118 441.648 77.23 442.04 77.23C442.162 77.23 442.292 77.2113 442.432 77.174C442.572 77.1273 442.698 77.0853 442.81 77.048L443.034 77.916C442.848 77.9813 442.642 78.0373 442.418 78.084C442.204 78.14 441.989 78.168 441.774 78.168Z" fill="#354052"/>
<rect x="371" y="59" width="28" height="28" rx="14" fill="#E6EAEE"/>
<path d="M384.804 78.168C384.095 78.168 383.502 78.042 383.026 77.79C382.55 77.5287 382.163 77.2347 381.864 76.908L382.452 76.152C382.723 76.432 383.04 76.6793 383.404 76.894C383.768 77.1087 384.211 77.216 384.734 77.216C385.275 77.216 385.719 77.0667 386.064 76.768C386.409 76.4693 386.582 76.0727 386.582 75.578C386.582 75.2233 386.489 74.9153 386.302 74.654C386.125 74.3833 385.826 74.1733 385.406 74.024C384.995 73.8747 384.435 73.8 383.726 73.8V72.918C384.361 72.918 384.86 72.8433 385.224 72.694C385.597 72.5447 385.863 72.344 386.022 72.092C386.181 71.84 386.26 71.56 386.26 71.252C386.26 70.8133 386.12 70.468 385.84 70.216C385.569 69.964 385.196 69.838 384.72 69.838C384.347 69.838 384.001 69.922 383.684 70.09C383.376 70.258 383.087 70.4773 382.816 70.748L382.2 70.02C382.545 69.6933 382.928 69.4273 383.348 69.222C383.768 69.0073 384.239 68.9 384.762 68.9C385.537 68.9 386.176 69.1007 386.68 69.502C387.184 69.894 387.436 70.4493 387.436 71.168C387.436 71.7093 387.287 72.1527 386.988 72.498C386.689 72.8433 386.297 73.1093 385.812 73.296V73.352C386.353 73.4733 386.811 73.73 387.184 74.122C387.557 74.5047 387.744 75.004 387.744 75.62C387.744 76.1427 387.613 76.5953 387.352 76.978C387.091 77.3607 386.736 77.6547 386.288 77.86C385.849 78.0653 385.355 78.168 384.804 78.168Z" fill="#354052"/>
<path d="M291.268 78L289.322 68.816H290.526L291.492 73.814C291.576 74.3087 291.665 74.8033 291.758 75.298C291.851 75.7927 291.94 76.2873 292.024 76.782H292.08C292.183 76.2873 292.29 75.7927 292.402 75.298C292.514 74.794 292.621 74.2993 292.724 73.814L293.998 68.816H295.062L296.336 73.814C296.448 74.2993 296.56 74.794 296.672 75.298C296.784 75.7927 296.896 76.2873 297.008 76.782H297.064C297.148 76.2873 297.232 75.7927 297.316 75.298C297.4 74.794 297.489 74.2993 297.582 73.814L298.548 68.816H299.668L297.764 78H296.364L294.978 72.47C294.894 72.1153 294.815 71.77 294.74 71.434C294.675 71.0887 294.605 70.7387 294.53 70.384H294.474C294.409 70.7387 294.334 71.0887 294.25 71.434C294.166 71.77 294.087 72.1153 294.012 72.47L292.654 78H291.268ZM301.154 78V68.032H302.302V70.748L302.26 72.148C302.587 71.84 302.927 71.5787 303.282 71.364C303.646 71.14 304.061 71.028 304.528 71.028C305.247 71.028 305.769 71.2567 306.096 71.714C306.432 72.162 306.6 72.82 306.6 73.688V78H305.452V73.842C305.452 73.2073 305.349 72.7453 305.144 72.456C304.939 72.1667 304.612 72.022 304.164 72.022C303.819 72.022 303.506 72.1107 303.226 72.288C302.955 72.4653 302.647 72.7267 302.302 73.072V78H301.154ZM311.527 78.168C310.92 78.168 310.37 78.028 309.875 77.748C309.38 77.4587 308.988 77.048 308.699 76.516C308.41 75.984 308.265 75.3493 308.265 74.612C308.265 73.8653 308.41 73.226 308.699 72.694C308.998 72.162 309.38 71.7513 309.847 71.462C310.314 71.1727 310.804 71.028 311.317 71.028C312.185 71.028 312.852 71.3173 313.319 71.896C313.795 72.4747 314.033 73.2493 314.033 74.22C314.033 74.3413 314.028 74.4627 314.019 74.584C314.019 74.696 314.01 74.794 313.991 74.878H309.399C309.446 75.5967 309.67 76.1707 310.071 76.6C310.482 77.0293 311.014 77.244 311.667 77.244C311.994 77.244 312.292 77.1973 312.563 77.104C312.843 77.0013 313.109 76.8707 313.361 76.712L313.767 77.468C313.478 77.6547 313.146 77.818 312.773 77.958C312.409 78.098 311.994 78.168 311.527 78.168ZM309.385 74.052H313.025C313.025 73.3613 312.876 72.8387 312.577 72.484C312.288 72.12 311.877 71.938 311.345 71.938C310.869 71.938 310.44 72.1247 310.057 72.498C309.684 72.862 309.46 73.38 309.385 74.052ZM315.714 78V71.196H316.666L316.764 72.176H316.806C317.133 71.8493 317.478 71.5787 317.842 71.364C318.206 71.14 318.622 71.028 319.088 71.028C319.807 71.028 320.33 71.2567 320.656 71.714C320.992 72.162 321.16 72.82 321.16 73.688V78H320.012V73.842C320.012 73.2073 319.91 72.7453 319.704 72.456C319.499 72.1667 319.172 72.022 318.724 72.022C318.379 72.022 318.066 72.1107 317.786 72.288C317.516 72.4653 317.208 72.7267 316.862 73.072V78H315.714Z" fill="#354052"/>
<rect x="247" y="59" width="28" height="28" rx="14" fill="#E6EAEE"/>
<path d="M258.06 78V77.314C258.956 76.418 259.717 75.634 260.342 74.962C260.967 74.2807 261.443 73.6693 261.77 73.128C262.097 72.5773 262.26 72.064 262.26 71.588C262.26 71.0747 262.12 70.6547 261.84 70.328C261.56 70.0013 261.135 69.838 260.566 69.838C260.193 69.838 259.847 69.9453 259.53 70.16C259.213 70.3653 258.923 70.6173 258.662 70.916L258.004 70.258C258.377 69.8473 258.774 69.5207 259.194 69.278C259.623 69.026 260.127 68.9 260.706 68.9C261.537 68.9 262.19 69.1427 262.666 69.628C263.142 70.104 263.38 70.7387 263.38 71.532C263.38 72.092 263.221 72.6613 262.904 73.24C262.596 73.8093 262.167 74.4113 261.616 75.046C261.075 75.6713 260.449 76.3527 259.74 77.09C259.983 77.0713 260.235 77.0527 260.496 77.034C260.757 77.0153 261.005 77.006 261.238 77.006H263.828V78H258.06Z" fill="#354052"/>
<path d="M167.268 196L165.322 186.816H166.526L167.492 191.814C167.576 192.309 167.665 192.803 167.758 193.298C167.851 193.793 167.94 194.287 168.024 194.782H168.08C168.183 194.287 168.29 193.793 168.402 193.298C168.514 192.794 168.621 192.299 168.724 191.814L169.998 186.816H171.062L172.336 191.814C172.448 192.299 172.56 192.794 172.672 193.298C172.784 193.793 172.896 194.287 173.008 194.782H173.064C173.148 194.287 173.232 193.793 173.316 193.298C173.4 192.794 173.489 192.299 173.582 191.814L174.548 186.816H175.668L173.764 196H172.364L170.978 190.47C170.894 190.115 170.815 189.77 170.74 189.434C170.675 189.089 170.605 188.739 170.53 188.384H170.474C170.409 188.739 170.334 189.089 170.25 189.434C170.166 189.77 170.087 190.115 170.012 190.47L168.654 196H167.268ZM177.154 196V186.032H178.302V188.748L178.26 190.148C178.587 189.84 178.927 189.579 179.282 189.364C179.646 189.14 180.061 189.028 180.528 189.028C181.247 189.028 181.769 189.257 182.096 189.714C182.432 190.162 182.6 190.82 182.6 191.688V196H181.452V191.842C181.452 191.207 181.349 190.745 181.144 190.456C180.939 190.167 180.612 190.022 180.164 190.022C179.819 190.022 179.506 190.111 179.226 190.288C178.955 190.465 178.647 190.727 178.302 191.072V196H177.154ZM187.527 196.168C186.92 196.168 186.37 196.028 185.875 195.748C185.38 195.459 184.988 195.048 184.699 194.516C184.41 193.984 184.265 193.349 184.265 192.612C184.265 191.865 184.41 191.226 184.699 190.694C184.998 190.162 185.38 189.751 185.847 189.462C186.314 189.173 186.804 189.028 187.317 189.028C188.185 189.028 188.852 189.317 189.319 189.896C189.795 190.475 190.033 191.249 190.033 192.22C190.033 192.341 190.028 192.463 190.019 192.584C190.019 192.696 190.01 192.794 189.991 192.878H185.399C185.446 193.597 185.67 194.171 186.071 194.6C186.482 195.029 187.014 195.244 187.667 195.244C187.994 195.244 188.292 195.197 188.563 195.104C188.843 195.001 189.109 194.871 189.361 194.712L189.767 195.468C189.478 195.655 189.146 195.818 188.773 195.958C188.409 196.098 187.994 196.168 187.527 196.168ZM185.385 192.052H189.025C189.025 191.361 188.876 190.839 188.577 190.484C188.288 190.12 187.877 189.938 187.345 189.938C186.869 189.938 186.44 190.125 186.057 190.498C185.684 190.862 185.46 191.38 185.385 192.052ZM191.714 196V189.196H192.666L192.764 190.428H192.806C193.04 189.999 193.324 189.658 193.66 189.406C193.996 189.154 194.356 189.028 194.738 189.028C195.009 189.028 195.252 189.075 195.466 189.168L195.242 190.176C195.13 190.139 195.028 190.111 194.934 190.092C194.841 190.073 194.724 190.064 194.584 190.064C194.295 190.064 193.992 190.181 193.674 190.414C193.366 190.647 193.096 191.053 192.862 191.632V196H191.714ZM199.189 196.168C198.583 196.168 198.032 196.028 197.537 195.748C197.043 195.459 196.651 195.048 196.361 194.516C196.072 193.984 195.927 193.349 195.927 192.612C195.927 191.865 196.072 191.226 196.361 190.694C196.66 190.162 197.043 189.751 197.509 189.462C197.976 189.173 198.466 189.028 198.979 189.028C199.847 189.028 200.515 189.317 200.981 189.896C201.457 190.475 201.695 191.249 201.695 192.22C201.695 192.341 201.691 192.463 201.681 192.584C201.681 192.696 201.672 192.794 201.653 192.878H197.061C197.108 193.597 197.332 194.171 197.733 194.6C198.144 195.029 198.676 195.244 199.329 195.244C199.656 195.244 199.955 195.197 200.225 195.104C200.505 195.001 200.771 194.871 201.023 194.712L201.429 195.468C201.14 195.655 200.809 195.818 200.435 195.958C200.071 196.098 199.656 196.168 199.189 196.168ZM197.047 192.052H200.687C200.687 191.361 200.538 190.839 200.239 190.484C199.95 190.12 199.539 189.938 199.007 189.938C198.531 189.938 198.102 190.125 197.719 190.498C197.346 190.862 197.122 191.38 197.047 192.052Z" fill="#354052"/>
<rect x="123" y="177" width="28" height="28" rx="14" fill="#2DA1F8"/>
<path d="M134.606 196V195.048H136.65V188.468H135.026V187.726C135.437 187.651 135.791 187.563 136.09 187.46C136.398 187.348 136.673 187.217 136.916 187.068H137.798V195.048H139.646V196H134.606Z" fill="white"/>
<path d="M541.732 196.168C540.967 196.168 540.281 195.981 539.674 195.608C539.077 195.225 538.601 194.679 538.246 193.97C537.901 193.261 537.728 192.407 537.728 191.408C537.728 190.419 537.905 189.569 538.26 188.86C538.615 188.151 539.1 187.605 539.716 187.222C540.332 186.839 541.027 186.648 541.802 186.648C542.362 186.648 542.857 186.765 543.286 186.998C543.715 187.222 544.061 187.483 544.322 187.782L543.692 188.538C543.449 188.277 543.174 188.067 542.866 187.908C542.558 187.749 542.208 187.67 541.816 187.67C541.237 187.67 540.729 187.824 540.29 188.132C539.861 188.431 539.525 188.855 539.282 189.406C539.049 189.957 538.932 190.615 538.932 191.38C538.932 192.145 539.049 192.813 539.282 193.382C539.515 193.942 539.842 194.376 540.262 194.684C540.691 194.992 541.195 195.146 541.774 195.146C542.213 195.146 542.605 195.053 542.95 194.866C543.295 194.679 543.613 194.427 543.902 194.11L544.546 194.838C544.182 195.258 543.771 195.585 543.314 195.818C542.857 196.051 542.329 196.168 541.732 196.168ZM548.792 196.168C548.241 196.168 547.723 196.028 547.238 195.748C546.762 195.468 546.375 195.062 546.076 194.53C545.787 193.998 545.642 193.359 545.642 192.612C545.642 191.847 545.787 191.198 546.076 190.666C546.375 190.134 546.762 189.728 547.238 189.448C547.723 189.168 548.241 189.028 548.792 189.028C549.352 189.028 549.87 189.168 550.346 189.448C550.822 189.728 551.205 190.134 551.494 190.666C551.793 191.198 551.942 191.847 551.942 192.612C551.942 193.359 551.793 193.998 551.494 194.53C551.205 195.062 550.822 195.468 550.346 195.748C549.87 196.028 549.352 196.168 548.792 196.168ZM548.792 195.216C549.38 195.216 549.851 194.978 550.206 194.502C550.57 194.017 550.752 193.387 550.752 192.612C550.752 191.828 550.57 191.193 550.206 190.708C549.851 190.223 549.38 189.98 548.792 189.98C548.213 189.98 547.742 190.223 547.378 190.708C547.014 191.193 546.832 191.828 546.832 192.612C546.832 193.387 547.014 194.017 547.378 194.502C547.742 194.978 548.213 195.216 548.792 195.216ZM553.734 196V189.196H554.686L554.784 190.176H554.826C555.153 189.849 555.498 189.579 555.862 189.364C556.226 189.14 556.641 189.028 557.108 189.028C557.827 189.028 558.349 189.257 558.676 189.714C559.012 190.162 559.18 190.82 559.18 191.688V196H558.032V191.842C558.032 191.207 557.929 190.745 557.724 190.456C557.519 190.167 557.192 190.022 556.744 190.022C556.399 190.022 556.086 190.111 555.806 190.288C555.535 190.465 555.227 190.727 554.882 191.072V196H553.734ZM561.586 196V190.134H560.662V189.266L561.586 189.196V188.118C561.586 187.427 561.745 186.881 562.062 186.48C562.389 186.069 562.893 185.864 563.574 185.864C563.789 185.864 563.994 185.887 564.19 185.934C564.386 185.971 564.559 186.023 564.708 186.088L564.456 186.97C564.204 186.858 563.948 186.802 563.686 186.802C563.052 186.802 562.734 187.241 562.734 188.118V189.196H564.176V190.134H562.734V196H561.586ZM565.478 196V189.196H566.626V196H565.478ZM566.066 187.796C565.842 187.796 565.655 187.731 565.506 187.6C565.366 187.46 565.296 187.273 565.296 187.04C565.296 186.816 565.366 186.634 565.506 186.494C565.655 186.354 565.842 186.284 566.066 186.284C566.29 186.284 566.472 186.354 566.612 186.494C566.761 186.634 566.836 186.816 566.836 187.04C566.836 187.273 566.761 187.46 566.612 187.6C566.472 187.731 566.29 187.796 566.066 187.796ZM568.923 196V189.196H569.875L569.973 190.428H570.015C570.249 189.999 570.533 189.658 570.869 189.406C571.205 189.154 571.565 189.028 571.947 189.028C572.218 189.028 572.461 189.075 572.675 189.168L572.451 190.176C572.339 190.139 572.237 190.111 572.143 190.092C572.05 190.073 571.933 190.064 571.793 190.064C571.504 190.064 571.201 190.181 570.883 190.414C570.575 190.647 570.305 191.053 570.071 191.632V196H568.923ZM573.777 196V189.196H574.729L574.827 190.176H574.869C575.168 189.849 575.494 189.579 575.849 189.364C576.204 189.14 576.582 189.028 576.983 189.028C577.506 189.028 577.912 189.145 578.201 189.378C578.5 189.602 578.719 189.919 578.859 190.33C579.214 189.947 579.573 189.635 579.937 189.392C580.301 189.149 580.688 189.028 581.099 189.028C581.799 189.028 582.317 189.257 582.653 189.714C582.998 190.162 583.171 190.82 583.171 191.688V196H582.023V191.842C582.023 191.207 581.92 190.745 581.715 190.456C581.51 190.167 581.192 190.022 580.763 190.022C580.259 190.022 579.69 190.372 579.055 191.072V196H577.907V191.842C577.907 191.207 577.804 190.745 577.599 190.456C577.394 190.167 577.072 190.022 576.633 190.022C576.129 190.022 575.56 190.372 574.925 191.072V196H573.777Z" fill="#354052"/>
<rect x="495" y="177" width="28" height="28" rx="14" fill="#2DA1F8"/>
<path d="M506.956 192.612H509.756V190.022C509.756 189.779 509.765 189.49 509.784 189.154C509.803 188.818 509.817 188.533 509.826 188.3H509.77C509.658 188.515 509.541 188.725 509.42 188.93C509.299 189.135 509.173 189.345 509.042 189.56L506.956 192.612ZM509.756 196V193.536H505.738V192.78L509.56 187.068H510.848V192.612H512.066V193.536H510.848V196H509.756Z" fill="white"/>
<path d="M415.268 196L413.322 186.816H414.526L415.492 191.814C415.576 192.309 415.665 192.803 415.758 193.298C415.851 193.793 415.94 194.287 416.024 194.782H416.08C416.183 194.287 416.29 193.793 416.402 193.298C416.514 192.794 416.621 192.299 416.724 191.814L417.998 186.816H419.062L420.336 191.814C420.448 192.299 420.56 192.794 420.672 193.298C420.784 193.793 420.896 194.287 421.008 194.782H421.064C421.148 194.287 421.232 193.793 421.316 193.298C421.4 192.794 421.489 192.299 421.582 191.814L422.548 186.816H423.668L421.764 196H420.364L418.978 190.47C418.894 190.115 418.815 189.77 418.74 189.434C418.675 189.089 418.605 188.739 418.53 188.384H418.474C418.409 188.739 418.334 189.089 418.25 189.434C418.166 189.77 418.087 190.115 418.012 190.47L416.654 196H415.268ZM425.154 196V186.032H426.302V188.748L426.26 190.148C426.587 189.84 426.927 189.579 427.282 189.364C427.646 189.14 428.061 189.028 428.528 189.028C429.247 189.028 429.769 189.257 430.096 189.714C430.432 190.162 430.6 190.82 430.6 191.688V196H429.452V191.842C429.452 191.207 429.349 190.745 429.144 190.456C428.939 190.167 428.612 190.022 428.164 190.022C427.819 190.022 427.506 190.111 427.226 190.288C426.955 190.465 426.647 190.727 426.302 191.072V196H425.154ZM434.337 196.168C433.768 196.168 433.292 196 432.909 195.664C432.536 195.319 432.349 194.843 432.349 194.236C432.349 193.489 432.68 192.92 433.343 192.528C434.015 192.127 435.074 191.847 436.521 191.688C436.521 191.399 436.479 191.123 436.395 190.862C436.32 190.601 436.18 190.391 435.975 190.232C435.779 190.064 435.494 189.98 435.121 189.98C434.729 189.98 434.36 190.055 434.015 190.204C433.67 190.353 433.362 190.521 433.091 190.708L432.643 189.91C432.96 189.705 433.348 189.509 433.805 189.322C434.272 189.126 434.776 189.028 435.317 189.028C436.148 189.028 436.75 189.285 437.123 189.798C437.496 190.302 437.683 190.979 437.683 191.828V196H436.731L436.633 195.188H436.591C436.274 195.449 435.924 195.678 435.541 195.874C435.168 196.07 434.766 196.168 434.337 196.168ZM434.673 195.244C435 195.244 435.308 195.165 435.597 195.006C435.886 194.847 436.194 194.623 436.521 194.334V192.444C435.392 192.584 434.598 192.794 434.141 193.074C433.693 193.354 433.469 193.713 433.469 194.152C433.469 194.535 433.586 194.815 433.819 194.992C434.052 195.16 434.337 195.244 434.673 195.244ZM441.774 196.168C441.046 196.168 440.538 195.958 440.248 195.538C439.968 195.118 439.828 194.572 439.828 193.9V190.134H438.82V189.266L439.884 189.196L440.024 187.292H440.99V189.196H442.824V190.134H440.99V193.914C440.99 194.334 441.065 194.661 441.214 194.894C441.373 195.118 441.648 195.23 442.04 195.23C442.162 195.23 442.292 195.211 442.432 195.174C442.572 195.127 442.698 195.085 442.81 195.048L443.034 195.916C442.848 195.981 442.642 196.037 442.418 196.084C442.204 196.14 441.989 196.168 441.774 196.168Z" fill="#354052"/>
<rect x="371" y="177" width="28" height="28" rx="14" fill="#2DA1F8"/>
<path d="M384.804 196.168C384.095 196.168 383.502 196.042 383.026 195.79C382.55 195.529 382.163 195.235 381.864 194.908L382.452 194.152C382.723 194.432 383.04 194.679 383.404 194.894C383.768 195.109 384.211 195.216 384.734 195.216C385.275 195.216 385.719 195.067 386.064 194.768C386.409 194.469 386.582 194.073 386.582 193.578C386.582 193.223 386.489 192.915 386.302 192.654C386.125 192.383 385.826 192.173 385.406 192.024C384.995 191.875 384.435 191.8 383.726 191.8V190.918C384.361 190.918 384.86 190.843 385.224 190.694C385.597 190.545 385.863 190.344 386.022 190.092C386.181 189.84 386.26 189.56 386.26 189.252C386.26 188.813 386.12 188.468 385.84 188.216C385.569 187.964 385.196 187.838 384.72 187.838C384.347 187.838 384.001 187.922 383.684 188.09C383.376 188.258 383.087 188.477 382.816 188.748L382.2 188.02C382.545 187.693 382.928 187.427 383.348 187.222C383.768 187.007 384.239 186.9 384.762 186.9C385.537 186.9 386.176 187.101 386.68 187.502C387.184 187.894 387.436 188.449 387.436 189.168C387.436 189.709 387.287 190.153 386.988 190.498C386.689 190.843 386.297 191.109 385.812 191.296V191.352C386.353 191.473 386.811 191.73 387.184 192.122C387.557 192.505 387.744 193.004 387.744 193.62C387.744 194.143 387.613 194.595 387.352 194.978C387.091 195.361 386.736 195.655 386.288 195.86C385.849 196.065 385.355 196.168 384.804 196.168Z" fill="white"/>
<path d="M291.268 196L289.322 186.816H290.526L291.492 191.814C291.576 192.309 291.665 192.803 291.758 193.298C291.851 193.793 291.94 194.287 292.024 194.782H292.08C292.183 194.287 292.29 193.793 292.402 193.298C292.514 192.794 292.621 192.299 292.724 191.814L293.998 186.816H295.062L296.336 191.814C296.448 192.299 296.56 192.794 296.672 193.298C296.784 193.793 296.896 194.287 297.008 194.782H297.064C297.148 194.287 297.232 193.793 297.316 193.298C297.4 192.794 297.489 192.299 297.582 191.814L298.548 186.816H299.668L297.764 196H296.364L294.978 190.47C294.894 190.115 294.815 189.77 294.74 189.434C294.675 189.089 294.605 188.739 294.53 188.384H294.474C294.409 188.739 294.334 189.089 294.25 189.434C294.166 189.77 294.087 190.115 294.012 190.47L292.654 196H291.268ZM301.154 196V186.032H302.302V188.748L302.26 190.148C302.587 189.84 302.927 189.579 303.282 189.364C303.646 189.14 304.061 189.028 304.528 189.028C305.247 189.028 305.769 189.257 306.096 189.714C306.432 190.162 306.6 190.82 306.6 191.688V196H305.452V191.842C305.452 191.207 305.349 190.745 305.144 190.456C304.939 190.167 304.612 190.022 304.164 190.022C303.819 190.022 303.506 190.111 303.226 190.288C302.955 190.465 302.647 190.727 302.302 191.072V196H301.154ZM311.527 196.168C310.92 196.168 310.37 196.028 309.875 195.748C309.38 195.459 308.988 195.048 308.699 194.516C308.41 193.984 308.265 193.349 308.265 192.612C308.265 191.865 308.41 191.226 308.699 190.694C308.998 190.162 309.38 189.751 309.847 189.462C310.314 189.173 310.804 189.028 311.317 189.028C312.185 189.028 312.852 189.317 313.319 189.896C313.795 190.475 314.033 191.249 314.033 192.22C314.033 192.341 314.028 192.463 314.019 192.584C314.019 192.696 314.01 192.794 313.991 192.878H309.399C309.446 193.597 309.67 194.171 310.071 194.6C310.482 195.029 311.014 195.244 311.667 195.244C311.994 195.244 312.292 195.197 312.563 195.104C312.843 195.001 313.109 194.871 313.361 194.712L313.767 195.468C313.478 195.655 313.146 195.818 312.773 195.958C312.409 196.098 311.994 196.168 311.527 196.168ZM309.385 192.052H313.025C313.025 191.361 312.876 190.839 312.577 190.484C312.288 190.12 311.877 189.938 311.345 189.938C310.869 189.938 310.44 190.125 310.057 190.498C309.684 190.862 309.46 191.38 309.385 192.052ZM315.714 196V189.196H316.666L316.764 190.176H316.806C317.133 189.849 317.478 189.579 317.842 189.364C318.206 189.14 318.622 189.028 319.088 189.028C319.807 189.028 320.33 189.257 320.656 189.714C320.992 190.162 321.16 190.82 321.16 191.688V196H320.012V191.842C320.012 191.207 319.91 190.745 319.704 190.456C319.499 190.167 319.172 190.022 318.724 190.022C318.379 190.022 318.066 190.111 317.786 190.288C317.516 190.465 317.208 190.727 316.862 191.072V196H315.714Z" fill="#354052"/>
<rect x="247" y="177" width="28" height="28" rx="14" fill="#2DA1F8"/>
<path d="M258.06 196V195.314C258.956 194.418 259.717 193.634 260.342 192.962C260.967 192.281 261.443 191.669 261.77 191.128C262.097 190.577 262.26 190.064 262.26 189.588C262.26 189.075 262.12 188.655 261.84 188.328C261.56 188.001 261.135 187.838 260.566 187.838C260.193 187.838 259.847 187.945 259.53 188.16C259.213 188.365 258.923 188.617 258.662 188.916L258.004 188.258C258.377 187.847 258.774 187.521 259.194 187.278C259.623 187.026 260.127 186.9 260.706 186.9C261.537 186.9 262.19 187.143 262.666 187.628C263.142 188.104 263.38 188.739 263.38 189.532C263.38 190.092 263.221 190.661 262.904 191.24C262.596 191.809 262.167 192.411 261.616 193.046C261.075 193.671 260.449 194.353 259.74 195.09C259.983 195.071 260.235 195.053 260.496 195.034C260.757 195.015 261.005 195.006 261.238 195.006H263.828V196H258.06Z" fill="white"/>
</g>
<defs>
<clipPath id="clip0_315_2695">
<rect y="0.956787" width="649" height="262" rx="5" fill="white"/>
</clipPath>
</defs>
</svg>
