<svg width="649" height="262" viewBox="0 0 649 262" fill="none" xmlns="http://www.w3.org/2000/svg">
<rect width="649" height="262" rx="5" fill="#FAFAFA"/>
<circle cx="59" cy="40" r="19" fill="#59BD36"/>
<line x1="50.7071" y1="37.9594" x2="58.0404" y2="45.2927" stroke="white" stroke-width="2"/>
<line x1="56.6264" y1="45.2929" x2="67.6263" y2="34.293" stroke="white" stroke-width="2"/>
<circle cx="59" cy="169" r="19" fill="#BD3636"/>
<line x1="52.5312" y1="175.293" x2="65.4133" y2="162.411" stroke="white" stroke-width="2"/>
<line x1="52.7071" y1="162.293" x2="65.5892" y2="175.175" stroke="white" stroke-width="2"/>
<path d="M94.268 103L92.322 93.816H93.526L94.492 98.814C94.576 99.3087 94.6647 99.8033 94.758 100.298C94.8513 100.793 94.94 101.287 95.024 101.782H95.08C95.1827 101.287 95.29 100.793 95.402 100.298C95.514 99.794 95.6213 99.2993 95.724 98.814L96.998 93.816H98.062L99.336 98.814C99.448 99.2993 99.56 99.794 99.672 100.298C99.784 100.793 99.896 101.287 100.008 101.782H100.064C100.148 101.287 100.232 100.793 100.316 100.298C100.4 99.794 100.489 99.2993 100.582 98.814L101.548 93.816H102.668L100.764 103H99.364L97.978 97.47C97.894 97.1153 97.8147 96.77 97.74 96.434C97.6747 96.0887 97.6047 95.7387 97.53 95.384H97.474C97.4087 95.7387 97.334 96.0887 97.25 96.434C97.166 96.77 97.0867 97.1153 97.012 97.47L95.654 103H94.268ZM104.154 103V93.032H105.302V95.748L105.26 97.148C105.587 96.84 105.927 96.5787 106.282 96.364C106.646 96.14 107.061 96.028 107.528 96.028C108.247 96.028 108.769 96.2567 109.096 96.714C109.432 97.162 109.6 97.82 109.6 98.688V103H108.452V98.842C108.452 98.2073 108.349 97.7453 108.144 97.456C107.939 97.1667 107.612 97.022 107.164 97.022C106.819 97.022 106.506 97.1107 106.226 97.288C105.955 97.4653 105.647 97.7267 105.302 98.072V103H104.154ZM114.527 103.168C113.92 103.168 113.37 103.028 112.875 102.748C112.38 102.459 111.988 102.048 111.699 101.516C111.41 100.984 111.265 100.349 111.265 99.612C111.265 98.8653 111.41 98.226 111.699 97.694C111.998 97.162 112.38 96.7513 112.847 96.462C113.314 96.1727 113.804 96.028 114.317 96.028C115.185 96.028 115.852 96.3173 116.319 96.896C116.795 97.4747 117.033 98.2493 117.033 99.22C117.033 99.3413 117.028 99.4627 117.019 99.584C117.019 99.696 117.01 99.794 116.991 99.878H112.399C112.446 100.597 112.67 101.171 113.071 101.6C113.482 102.029 114.014 102.244 114.667 102.244C114.994 102.244 115.292 102.197 115.563 102.104C115.843 102.001 116.109 101.871 116.361 101.712L116.767 102.468C116.478 102.655 116.146 102.818 115.773 102.958C115.409 103.098 114.994 103.168 114.527 103.168ZM112.385 99.052H116.025C116.025 98.3613 115.876 97.8387 115.577 97.484C115.288 97.12 114.877 96.938 114.345 96.938C113.869 96.938 113.44 97.1247 113.057 97.498C112.684 97.862 112.46 98.38 112.385 99.052ZM118.714 103V96.196H119.666L119.764 97.428H119.806C120.04 96.9987 120.324 96.658 120.66 96.406C120.996 96.154 121.356 96.028 121.738 96.028C122.009 96.028 122.252 96.0747 122.466 96.168L122.242 97.176C122.13 97.1387 122.028 97.1107 121.934 97.092C121.841 97.0733 121.724 97.064 121.584 97.064C121.295 97.064 120.992 97.1807 120.674 97.414C120.366 97.6473 120.096 98.0533 119.862 98.632V103H118.714ZM126.189 103.168C125.583 103.168 125.032 103.028 124.537 102.748C124.043 102.459 123.651 102.048 123.361 101.516C123.072 100.984 122.927 100.349 122.927 99.612C122.927 98.8653 123.072 98.226 123.361 97.694C123.66 97.162 124.043 96.7513 124.509 96.462C124.976 96.1727 125.466 96.028 125.979 96.028C126.847 96.028 127.515 96.3173 127.981 96.896C128.457 97.4747 128.695 98.2493 128.695 99.22C128.695 99.3413 128.691 99.4627 128.681 99.584C128.681 99.696 128.672 99.794 128.653 99.878H124.061C124.108 100.597 124.332 101.171 124.733 101.6C125.144 102.029 125.676 102.244 126.329 102.244C126.656 102.244 126.955 102.197 127.225 102.104C127.505 102.001 127.771 101.871 128.023 101.712L128.429 102.468C128.14 102.655 127.809 102.818 127.435 102.958C127.071 103.098 126.656 103.168 126.189 103.168ZM124.047 99.052H127.687C127.687 98.3613 127.538 97.8387 127.239 97.484C126.95 97.12 126.539 96.938 126.007 96.938C125.531 96.938 125.102 97.1247 124.719 97.498C124.346 97.862 124.122 98.38 124.047 99.052Z" fill="#354052"/>
<rect x="50" y="84" width="28" height="28" rx="14" fill="#E6EAEE"/>
<path d="M61.606 103V102.048H63.65V95.468H62.026V94.726C62.4367 94.6513 62.7913 94.5627 63.09 94.46C63.398 94.348 63.6733 94.2173 63.916 94.068H64.798V102.048H66.646V103H61.606Z" fill="#354052"/>
<path d="M468.732 103.168C467.967 103.168 467.281 102.981 466.674 102.608C466.077 102.225 465.601 101.679 465.246 100.97C464.901 100.261 464.728 99.4067 464.728 98.408C464.728 97.4187 464.905 96.5693 465.26 95.86C465.615 95.1507 466.1 94.6047 466.716 94.222C467.332 93.8393 468.027 93.648 468.802 93.648C469.362 93.648 469.857 93.7647 470.286 93.998C470.715 94.222 471.061 94.4833 471.322 94.782L470.692 95.538C470.449 95.2767 470.174 95.0667 469.866 94.908C469.558 94.7493 469.208 94.67 468.816 94.67C468.237 94.67 467.729 94.824 467.29 95.132C466.861 95.4307 466.525 95.8553 466.282 96.406C466.049 96.9567 465.932 97.6147 465.932 98.38C465.932 99.1453 466.049 99.8127 466.282 100.382C466.515 100.942 466.842 101.376 467.262 101.684C467.691 101.992 468.195 102.146 468.774 102.146C469.213 102.146 469.605 102.053 469.95 101.866C470.295 101.679 470.613 101.427 470.902 101.11L471.546 101.838C471.182 102.258 470.771 102.585 470.314 102.818C469.857 103.051 469.329 103.168 468.732 103.168ZM475.792 103.168C475.241 103.168 474.723 103.028 474.238 102.748C473.762 102.468 473.375 102.062 473.076 101.53C472.787 100.998 472.642 100.359 472.642 99.612C472.642 98.8467 472.787 98.198 473.076 97.666C473.375 97.134 473.762 96.728 474.238 96.448C474.723 96.168 475.241 96.028 475.792 96.028C476.352 96.028 476.87 96.168 477.346 96.448C477.822 96.728 478.205 97.134 478.494 97.666C478.793 98.198 478.942 98.8467 478.942 99.612C478.942 100.359 478.793 100.998 478.494 101.53C478.205 102.062 477.822 102.468 477.346 102.748C476.87 103.028 476.352 103.168 475.792 103.168ZM475.792 102.216C476.38 102.216 476.851 101.978 477.206 101.502C477.57 101.017 477.752 100.387 477.752 99.612C477.752 98.828 477.57 98.1933 477.206 97.708C476.851 97.2227 476.38 96.98 475.792 96.98C475.213 96.98 474.742 97.2227 474.378 97.708C474.014 98.1933 473.832 98.828 473.832 99.612C473.832 100.387 474.014 101.017 474.378 101.502C474.742 101.978 475.213 102.216 475.792 102.216ZM480.734 103V96.196H481.686L481.784 97.176H481.826C482.153 96.8493 482.498 96.5787 482.862 96.364C483.226 96.14 483.641 96.028 484.108 96.028C484.827 96.028 485.349 96.2567 485.676 96.714C486.012 97.162 486.18 97.82 486.18 98.688V103H485.032V98.842C485.032 98.2073 484.929 97.7453 484.724 97.456C484.519 97.1667 484.192 97.022 483.744 97.022C483.399 97.022 483.086 97.1107 482.806 97.288C482.535 97.4653 482.227 97.7267 481.882 98.072V103H480.734ZM488.586 103V97.134H487.662V96.266L488.586 96.196V95.118C488.586 94.4273 488.745 93.8813 489.062 93.48C489.389 93.0693 489.893 92.864 490.574 92.864C490.789 92.864 490.994 92.8873 491.19 92.934C491.386 92.9713 491.559 93.0227 491.708 93.088L491.456 93.97C491.204 93.858 490.948 93.802 490.686 93.802C490.052 93.802 489.734 94.2407 489.734 95.118V96.196H491.176V97.134H489.734V103H488.586ZM492.478 103V96.196H493.626V103H492.478ZM493.066 94.796C492.842 94.796 492.655 94.7307 492.506 94.6C492.366 94.46 492.296 94.2733 492.296 94.04C492.296 93.816 492.366 93.634 492.506 93.494C492.655 93.354 492.842 93.284 493.066 93.284C493.29 93.284 493.472 93.354 493.612 93.494C493.761 93.634 493.836 93.816 493.836 94.04C493.836 94.2733 493.761 94.46 493.612 94.6C493.472 94.7307 493.29 94.796 493.066 94.796ZM495.923 103V96.196H496.875L496.973 97.428H497.015C497.249 96.9987 497.533 96.658 497.869 96.406C498.205 96.154 498.565 96.028 498.947 96.028C499.218 96.028 499.461 96.0747 499.675 96.168L499.451 97.176C499.339 97.1387 499.237 97.1107 499.143 97.092C499.05 97.0733 498.933 97.064 498.793 97.064C498.504 97.064 498.201 97.1807 497.883 97.414C497.575 97.6473 497.305 98.0533 497.071 98.632V103H495.923ZM500.777 103V96.196H501.729L501.827 97.176H501.869C502.168 96.8493 502.494 96.5787 502.849 96.364C503.204 96.14 503.582 96.028 503.983 96.028C504.506 96.028 504.912 96.1447 505.201 96.378C505.5 96.602 505.719 96.9193 505.859 97.33C506.214 96.9473 506.573 96.6347 506.937 96.392C507.301 96.1493 507.688 96.028 508.099 96.028C508.799 96.028 509.317 96.2567 509.653 96.714C509.998 97.162 510.171 97.82 510.171 98.688V103H509.023V98.842C509.023 98.2073 508.92 97.7453 508.715 97.456C508.51 97.1667 508.192 97.022 507.763 97.022C507.259 97.022 506.69 97.372 506.055 98.072V103H504.907V98.842C504.907 98.2073 504.804 97.7453 504.599 97.456C504.394 97.1667 504.072 97.022 503.633 97.022C503.129 97.022 502.56 97.372 501.925 98.072V103H500.777Z" fill="#354052"/>
<rect x="422" y="84" width="28" height="28" rx="14" fill="#E6EAEE"/>
<path d="M433.956 99.612H436.756V97.022C436.756 96.7793 436.765 96.49 436.784 96.154C436.803 95.818 436.817 95.5333 436.826 95.3H436.77C436.658 95.5147 436.541 95.7247 436.42 95.93C436.299 96.1353 436.173 96.3453 436.042 96.56L433.956 99.612ZM436.756 103V100.536H432.738V99.78L436.56 94.068H437.848V99.612H439.066V100.536H437.848V103H436.756Z" fill="#354052"/>
<path d="M342.268 103L340.322 93.816H341.526L342.492 98.814C342.576 99.3087 342.665 99.8033 342.758 100.298C342.851 100.793 342.94 101.287 343.024 101.782H343.08C343.183 101.287 343.29 100.793 343.402 100.298C343.514 99.794 343.621 99.2993 343.724 98.814L344.998 93.816H346.062L347.336 98.814C347.448 99.2993 347.56 99.794 347.672 100.298C347.784 100.793 347.896 101.287 348.008 101.782H348.064C348.148 101.287 348.232 100.793 348.316 100.298C348.4 99.794 348.489 99.2993 348.582 98.814L349.548 93.816H350.668L348.764 103H347.364L345.978 97.47C345.894 97.1153 345.815 96.77 345.74 96.434C345.675 96.0887 345.605 95.7387 345.53 95.384H345.474C345.409 95.7387 345.334 96.0887 345.25 96.434C345.166 96.77 345.087 97.1153 345.012 97.47L343.654 103H342.268ZM352.154 103V93.032H353.302V95.748L353.26 97.148C353.587 96.84 353.927 96.5787 354.282 96.364C354.646 96.14 355.061 96.028 355.528 96.028C356.247 96.028 356.769 96.2567 357.096 96.714C357.432 97.162 357.6 97.82 357.6 98.688V103H356.452V98.842C356.452 98.2073 356.349 97.7453 356.144 97.456C355.939 97.1667 355.612 97.022 355.164 97.022C354.819 97.022 354.506 97.1107 354.226 97.288C353.955 97.4653 353.647 97.7267 353.302 98.072V103H352.154ZM361.337 103.168C360.768 103.168 360.292 103 359.909 102.664C359.536 102.319 359.349 101.843 359.349 101.236C359.349 100.489 359.68 99.92 360.343 99.528C361.015 99.1267 362.074 98.8467 363.521 98.688C363.521 98.3987 363.479 98.1233 363.395 97.862C363.32 97.6007 363.18 97.3907 362.975 97.232C362.779 97.064 362.494 96.98 362.121 96.98C361.729 96.98 361.36 97.0547 361.015 97.204C360.67 97.3533 360.362 97.5213 360.091 97.708L359.643 96.91C359.96 96.7047 360.348 96.5087 360.805 96.322C361.272 96.126 361.776 96.028 362.317 96.028C363.148 96.028 363.75 96.2847 364.123 96.798C364.496 97.302 364.683 97.9787 364.683 98.828V103H363.731L363.633 102.188H363.591C363.274 102.449 362.924 102.678 362.541 102.874C362.168 103.07 361.766 103.168 361.337 103.168ZM361.673 102.244C362 102.244 362.308 102.165 362.597 102.006C362.886 101.847 363.194 101.623 363.521 101.334V99.444C362.392 99.584 361.598 99.794 361.141 100.074C360.693 100.354 360.469 100.713 360.469 101.152C360.469 101.535 360.586 101.815 360.819 101.992C361.052 102.16 361.337 102.244 361.673 102.244ZM368.774 103.168C368.046 103.168 367.538 102.958 367.248 102.538C366.968 102.118 366.828 101.572 366.828 100.9V97.134H365.82V96.266L366.884 96.196L367.024 94.292H367.99V96.196H369.824V97.134H367.99V100.914C367.99 101.334 368.065 101.661 368.214 101.894C368.373 102.118 368.648 102.23 369.04 102.23C369.162 102.23 369.292 102.211 369.432 102.174C369.572 102.127 369.698 102.085 369.81 102.048L370.034 102.916C369.848 102.981 369.642 103.037 369.418 103.084C369.204 103.14 368.989 103.168 368.774 103.168Z" fill="#354052"/>
<rect x="298" y="84" width="28" height="28" rx="14" fill="#E6EAEE"/>
<path d="M311.804 103.168C311.095 103.168 310.502 103.042 310.026 102.79C309.55 102.529 309.163 102.235 308.864 101.908L309.452 101.152C309.723 101.432 310.04 101.679 310.404 101.894C310.768 102.109 311.211 102.216 311.734 102.216C312.275 102.216 312.719 102.067 313.064 101.768C313.409 101.469 313.582 101.073 313.582 100.578C313.582 100.223 313.489 99.9153 313.302 99.654C313.125 99.3833 312.826 99.1733 312.406 99.024C311.995 98.8747 311.435 98.8 310.726 98.8V97.918C311.361 97.918 311.86 97.8433 312.224 97.694C312.597 97.5447 312.863 97.344 313.022 97.092C313.181 96.84 313.26 96.56 313.26 96.252C313.26 95.8133 313.12 95.468 312.84 95.216C312.569 94.964 312.196 94.838 311.72 94.838C311.347 94.838 311.001 94.922 310.684 95.09C310.376 95.258 310.087 95.4773 309.816 95.748L309.2 95.02C309.545 94.6933 309.928 94.4273 310.348 94.222C310.768 94.0073 311.239 93.9 311.762 93.9C312.537 93.9 313.176 94.1007 313.68 94.502C314.184 94.894 314.436 95.4493 314.436 96.168C314.436 96.7093 314.287 97.1527 313.988 97.498C313.689 97.8433 313.297 98.1093 312.812 98.296V98.352C313.353 98.4733 313.811 98.73 314.184 99.122C314.557 99.5047 314.744 100.004 314.744 100.62C314.744 101.143 314.613 101.595 314.352 101.978C314.091 102.361 313.736 102.655 313.288 102.86C312.849 103.065 312.355 103.168 311.804 103.168Z" fill="#354052"/>
<path d="M218.268 103L216.322 93.816H217.526L218.492 98.814C218.576 99.3087 218.665 99.8033 218.758 100.298C218.851 100.793 218.94 101.287 219.024 101.782H219.08C219.183 101.287 219.29 100.793 219.402 100.298C219.514 99.794 219.621 99.2993 219.724 98.814L220.998 93.816H222.062L223.336 98.814C223.448 99.2993 223.56 99.794 223.672 100.298C223.784 100.793 223.896 101.287 224.008 101.782H224.064C224.148 101.287 224.232 100.793 224.316 100.298C224.4 99.794 224.489 99.2993 224.582 98.814L225.548 93.816H226.668L224.764 103H223.364L221.978 97.47C221.894 97.1153 221.815 96.77 221.74 96.434C221.675 96.0887 221.605 95.7387 221.53 95.384H221.474C221.409 95.7387 221.334 96.0887 221.25 96.434C221.166 96.77 221.087 97.1153 221.012 97.47L219.654 103H218.268ZM228.154 103V93.032H229.302V95.748L229.26 97.148C229.587 96.84 229.927 96.5787 230.282 96.364C230.646 96.14 231.061 96.028 231.528 96.028C232.247 96.028 232.769 96.2567 233.096 96.714C233.432 97.162 233.6 97.82 233.6 98.688V103H232.452V98.842C232.452 98.2073 232.349 97.7453 232.144 97.456C231.939 97.1667 231.612 97.022 231.164 97.022C230.819 97.022 230.506 97.1107 230.226 97.288C229.955 97.4653 229.647 97.7267 229.302 98.072V103H228.154ZM238.527 103.168C237.92 103.168 237.37 103.028 236.875 102.748C236.38 102.459 235.988 102.048 235.699 101.516C235.41 100.984 235.265 100.349 235.265 99.612C235.265 98.8653 235.41 98.226 235.699 97.694C235.998 97.162 236.38 96.7513 236.847 96.462C237.314 96.1727 237.804 96.028 238.317 96.028C239.185 96.028 239.852 96.3173 240.319 96.896C240.795 97.4747 241.033 98.2493 241.033 99.22C241.033 99.3413 241.028 99.4627 241.019 99.584C241.019 99.696 241.01 99.794 240.991 99.878H236.399C236.446 100.597 236.67 101.171 237.071 101.6C237.482 102.029 238.014 102.244 238.667 102.244C238.994 102.244 239.292 102.197 239.563 102.104C239.843 102.001 240.109 101.871 240.361 101.712L240.767 102.468C240.478 102.655 240.146 102.818 239.773 102.958C239.409 103.098 238.994 103.168 238.527 103.168ZM236.385 99.052H240.025C240.025 98.3613 239.876 97.8387 239.577 97.484C239.288 97.12 238.877 96.938 238.345 96.938C237.869 96.938 237.44 97.1247 237.057 97.498C236.684 97.862 236.46 98.38 236.385 99.052ZM242.714 103V96.196H243.666L243.764 97.176H243.806C244.133 96.8493 244.478 96.5787 244.842 96.364C245.206 96.14 245.622 96.028 246.088 96.028C246.807 96.028 247.33 96.2567 247.656 96.714C247.992 97.162 248.16 97.82 248.16 98.688V103H247.012V98.842C247.012 98.2073 246.91 97.7453 246.704 97.456C246.499 97.1667 246.172 97.022 245.724 97.022C245.379 97.022 245.066 97.1107 244.786 97.288C244.516 97.4653 244.208 97.7267 243.862 98.072V103H242.714Z" fill="#354052"/>
<rect x="174" y="84" width="28" height="28" rx="14" fill="#E6EAEE"/>
<path d="M185.06 103V102.314C185.956 101.418 186.717 100.634 187.342 99.962C187.967 99.2807 188.443 98.6693 188.77 98.128C189.097 97.5773 189.26 97.064 189.26 96.588C189.26 96.0747 189.12 95.6547 188.84 95.328C188.56 95.0013 188.135 94.838 187.566 94.838C187.193 94.838 186.847 94.9453 186.53 95.16C186.213 95.3653 185.923 95.6173 185.662 95.916L185.004 95.258C185.377 94.8473 185.774 94.5207 186.194 94.278C186.623 94.026 187.127 93.9 187.706 93.9C188.537 93.9 189.19 94.1427 189.666 94.628C190.142 95.104 190.38 95.7387 190.38 96.532C190.38 97.092 190.221 97.6613 189.904 98.24C189.596 98.8093 189.167 99.4113 188.616 100.046C188.075 100.671 187.449 101.353 186.74 102.09C186.983 102.071 187.235 102.053 187.496 102.034C187.757 102.015 188.005 102.006 188.238 102.006H190.828V103H185.06Z" fill="#354052"/>
<path d="M94.268 232L92.322 222.816H93.526L94.492 227.814C94.576 228.309 94.6647 228.803 94.758 229.298C94.8513 229.793 94.94 230.287 95.024 230.782H95.08C95.1827 230.287 95.29 229.793 95.402 229.298C95.514 228.794 95.6213 228.299 95.724 227.814L96.998 222.816H98.062L99.336 227.814C99.448 228.299 99.56 228.794 99.672 229.298C99.784 229.793 99.896 230.287 100.008 230.782H100.064C100.148 230.287 100.232 229.793 100.316 229.298C100.4 228.794 100.489 228.299 100.582 227.814L101.548 222.816H102.668L100.764 232H99.364L97.978 226.47C97.894 226.115 97.8147 225.77 97.74 225.434C97.6747 225.089 97.6047 224.739 97.53 224.384H97.474C97.4087 224.739 97.334 225.089 97.25 225.434C97.166 225.77 97.0867 226.115 97.012 226.47L95.654 232H94.268ZM104.266 232V222.816H105.428V226.666H109.698V222.816H110.874V232H109.698V227.674H105.428V232H104.266ZM116.045 232.168C115.438 232.168 114.887 232.028 114.393 231.748C113.898 231.459 113.506 231.048 113.217 230.516C112.927 229.984 112.783 229.349 112.783 228.612C112.783 227.865 112.927 227.226 113.217 226.694C113.515 226.162 113.898 225.751 114.365 225.462C114.831 225.173 115.321 225.028 115.835 225.028C116.703 225.028 117.37 225.317 117.837 225.896C118.313 226.475 118.551 227.249 118.551 228.22C118.551 228.341 118.546 228.463 118.537 228.584C118.537 228.696 118.527 228.794 118.509 228.878H113.917C113.963 229.597 114.187 230.171 114.589 230.6C114.999 231.029 115.531 231.244 116.185 231.244C116.511 231.244 116.81 231.197 117.081 231.104C117.361 231.001 117.627 230.871 117.879 230.712L118.285 231.468C117.995 231.655 117.664 231.818 117.291 231.958C116.927 232.098 116.511 232.168 116.045 232.168ZM113.903 228.052H117.543C117.543 227.361 117.393 226.839 117.095 226.484C116.805 226.12 116.395 225.938 115.863 225.938C115.387 225.938 114.957 226.125 114.575 226.498C114.201 226.862 113.977 227.38 113.903 228.052ZM120.232 232V225.196H121.184L121.282 226.428H121.324C121.557 225.999 121.842 225.658 122.178 225.406C122.514 225.154 122.873 225.028 123.256 225.028C123.527 225.028 123.769 225.075 123.984 225.168L123.76 226.176C123.648 226.139 123.545 226.111 123.452 226.092C123.359 226.073 123.242 226.064 123.102 226.064C122.813 226.064 122.509 226.181 122.192 226.414C121.884 226.647 121.613 227.053 121.38 227.632V232H120.232ZM127.707 232.168C127.1 232.168 126.549 232.028 126.055 231.748C125.56 231.459 125.168 231.048 124.879 230.516C124.589 229.984 124.445 229.349 124.445 228.612C124.445 227.865 124.589 227.226 124.879 226.694C125.177 226.162 125.56 225.751 126.027 225.462C126.493 225.173 126.983 225.028 127.497 225.028C128.365 225.028 129.032 225.317 129.499 225.896C129.975 226.475 130.213 227.249 130.213 228.22C130.213 228.341 130.208 228.463 130.199 228.584C130.199 228.696 130.189 228.794 130.171 228.878H125.579C125.625 229.597 125.849 230.171 126.251 230.6C126.661 231.029 127.193 231.244 127.847 231.244C128.173 231.244 128.472 231.197 128.743 231.104C129.023 231.001 129.289 230.871 129.541 230.712L129.947 231.468C129.657 231.655 129.326 231.818 128.953 231.958C128.589 232.098 128.173 232.168 127.707 232.168ZM125.565 228.052H129.205C129.205 227.361 129.055 226.839 128.757 226.484C128.467 226.12 128.057 225.938 127.525 225.938C127.049 225.938 126.619 226.125 126.237 226.498C125.863 226.862 125.639 227.38 125.565 228.052Z" fill="#354052"/>
<rect x="50" y="213" width="28" height="28" rx="14" fill="#E6EAEE"/>
<path d="M61.606 232V231.048H63.65V224.468H62.026V223.726C62.4367 223.651 62.7913 223.563 63.09 223.46C63.398 223.348 63.6733 223.217 63.916 223.068H64.798V231.048H66.646V232H61.606Z" fill="#354052"/>
<path d="M485.732 232.168C484.967 232.168 484.281 231.981 483.674 231.608C483.077 231.225 482.601 230.679 482.246 229.97C481.901 229.261 481.728 228.407 481.728 227.408C481.728 226.419 481.905 225.569 482.26 224.86C482.615 224.151 483.1 223.605 483.716 223.222C484.332 222.839 485.027 222.648 485.802 222.648C486.362 222.648 486.857 222.765 487.286 222.998C487.715 223.222 488.061 223.483 488.322 223.782L487.692 224.538C487.449 224.277 487.174 224.067 486.866 223.908C486.558 223.749 486.208 223.67 485.816 223.67C485.237 223.67 484.729 223.824 484.29 224.132C483.861 224.431 483.525 224.855 483.282 225.406C483.049 225.957 482.932 226.615 482.932 227.38C482.932 228.145 483.049 228.813 483.282 229.382C483.515 229.942 483.842 230.376 484.262 230.684C484.691 230.992 485.195 231.146 485.774 231.146C486.213 231.146 486.605 231.053 486.95 230.866C487.295 230.679 487.613 230.427 487.902 230.11L488.546 230.838C488.182 231.258 487.771 231.585 487.314 231.818C486.857 232.051 486.329 232.168 485.732 232.168ZM492.792 232.168C492.241 232.168 491.723 232.028 491.238 231.748C490.762 231.468 490.375 231.062 490.076 230.53C489.787 229.998 489.642 229.359 489.642 228.612C489.642 227.847 489.787 227.198 490.076 226.666C490.375 226.134 490.762 225.728 491.238 225.448C491.723 225.168 492.241 225.028 492.792 225.028C493.352 225.028 493.87 225.168 494.346 225.448C494.822 225.728 495.205 226.134 495.494 226.666C495.793 227.198 495.942 227.847 495.942 228.612C495.942 229.359 495.793 229.998 495.494 230.53C495.205 231.062 494.822 231.468 494.346 231.748C493.87 232.028 493.352 232.168 492.792 232.168ZM492.792 231.216C493.38 231.216 493.851 230.978 494.206 230.502C494.57 230.017 494.752 229.387 494.752 228.612C494.752 227.828 494.57 227.193 494.206 226.708C493.851 226.223 493.38 225.98 492.792 225.98C492.213 225.98 491.742 226.223 491.378 226.708C491.014 227.193 490.832 227.828 490.832 228.612C490.832 229.387 491.014 230.017 491.378 230.502C491.742 230.978 492.213 231.216 492.792 231.216ZM497.734 232V225.196H498.686L498.784 226.176H498.826C499.153 225.849 499.498 225.579 499.862 225.364C500.226 225.14 500.641 225.028 501.108 225.028C501.827 225.028 502.349 225.257 502.676 225.714C503.012 226.162 503.18 226.82 503.18 227.688V232H502.032V227.842C502.032 227.207 501.929 226.745 501.724 226.456C501.519 226.167 501.192 226.022 500.744 226.022C500.399 226.022 500.086 226.111 499.806 226.288C499.535 226.465 499.227 226.727 498.882 227.072V232H497.734ZM505.586 232V226.134H504.662V225.266L505.586 225.196V224.118C505.586 223.427 505.745 222.881 506.062 222.48C506.389 222.069 506.893 221.864 507.574 221.864C507.789 221.864 507.994 221.887 508.19 221.934C508.386 221.971 508.559 222.023 508.708 222.088L508.456 222.97C508.204 222.858 507.948 222.802 507.686 222.802C507.052 222.802 506.734 223.241 506.734 224.118V225.196H508.176V226.134H506.734V232H505.586ZM509.478 232V225.196H510.626V232H509.478ZM510.066 223.796C509.842 223.796 509.655 223.731 509.506 223.6C509.366 223.46 509.296 223.273 509.296 223.04C509.296 222.816 509.366 222.634 509.506 222.494C509.655 222.354 509.842 222.284 510.066 222.284C510.29 222.284 510.472 222.354 510.612 222.494C510.761 222.634 510.836 222.816 510.836 223.04C510.836 223.273 510.761 223.46 510.612 223.6C510.472 223.731 510.29 223.796 510.066 223.796ZM512.923 232V225.196H513.875L513.973 226.428H514.015C514.249 225.999 514.533 225.658 514.869 225.406C515.205 225.154 515.565 225.028 515.947 225.028C516.218 225.028 516.461 225.075 516.675 225.168L516.451 226.176C516.339 226.139 516.237 226.111 516.143 226.092C516.05 226.073 515.933 226.064 515.793 226.064C515.504 226.064 515.201 226.181 514.883 226.414C514.575 226.647 514.305 227.053 514.071 227.632V232H512.923ZM517.777 232V225.196H518.729L518.827 226.176H518.869C519.168 225.849 519.494 225.579 519.849 225.364C520.204 225.14 520.582 225.028 520.983 225.028C521.506 225.028 521.912 225.145 522.201 225.378C522.5 225.602 522.719 225.919 522.859 226.33C523.214 225.947 523.573 225.635 523.937 225.392C524.301 225.149 524.688 225.028 525.099 225.028C525.799 225.028 526.317 225.257 526.653 225.714C526.998 226.162 527.171 226.82 527.171 227.688V232H526.023V227.842C526.023 227.207 525.92 226.745 525.715 226.456C525.51 226.167 525.192 226.022 524.763 226.022C524.259 226.022 523.69 226.372 523.055 227.072V232H521.907V227.842C521.907 227.207 521.804 226.745 521.599 226.456C521.394 226.167 521.072 226.022 520.633 226.022C520.129 226.022 519.56 226.372 518.925 227.072V232H517.777ZM530.952 232.168C530.383 232.168 529.907 232 529.524 231.664C529.151 231.319 528.964 230.843 528.964 230.236C528.964 229.489 529.296 228.92 529.958 228.528C530.63 228.127 531.69 227.847 533.136 227.688C533.136 227.399 533.094 227.123 533.01 226.862C532.936 226.601 532.796 226.391 532.59 226.232C532.394 226.064 532.11 225.98 531.736 225.98C531.344 225.98 530.976 226.055 530.63 226.204C530.285 226.353 529.977 226.521 529.706 226.708L529.258 225.91C529.576 225.705 529.963 225.509 530.42 225.322C530.887 225.126 531.391 225.028 531.932 225.028C532.763 225.028 533.365 225.285 533.738 225.798C534.112 226.302 534.298 226.979 534.298 227.828V232H533.346L533.248 231.188H533.206C532.889 231.449 532.539 231.678 532.156 231.874C531.783 232.07 531.382 232.168 530.952 232.168ZM531.288 231.244C531.615 231.244 531.923 231.165 532.212 231.006C532.502 230.847 532.81 230.623 533.136 230.334V228.444C532.007 228.584 531.214 228.794 530.756 229.074C530.308 229.354 530.084 229.713 530.084 230.152C530.084 230.535 530.201 230.815 530.434 230.992C530.668 231.16 530.952 231.244 531.288 231.244ZM538.39 232.168C537.662 232.168 537.153 231.958 536.864 231.538C536.584 231.118 536.444 230.572 536.444 229.9V226.134H535.436V225.266L536.5 225.196L536.64 223.292H537.606V225.196H539.44V226.134H537.606V229.914C537.606 230.334 537.68 230.661 537.83 230.894C537.988 231.118 538.264 231.23 538.656 231.23C538.777 231.23 538.908 231.211 539.048 231.174C539.188 231.127 539.314 231.085 539.426 231.048L539.65 231.916C539.463 231.981 539.258 232.037 539.034 232.084C538.819 232.14 538.604 232.168 538.39 232.168ZM540.978 232V225.196H542.126V232H540.978ZM541.566 223.796C541.342 223.796 541.155 223.731 541.006 223.6C540.866 223.46 540.796 223.273 540.796 223.04C540.796 222.816 540.866 222.634 541.006 222.494C541.155 222.354 541.342 222.284 541.566 222.284C541.79 222.284 541.972 222.354 542.112 222.494C542.261 222.634 542.336 222.816 542.336 223.04C542.336 223.273 542.261 223.46 542.112 223.6C541.972 223.731 541.79 223.796 541.566 223.796ZM547.069 232.168C546.519 232.168 546.001 232.028 545.515 231.748C545.039 231.468 544.652 231.062 544.353 230.53C544.064 229.998 543.919 229.359 543.919 228.612C543.919 227.847 544.064 227.198 544.353 226.666C544.652 226.134 545.039 225.728 545.515 225.448C546.001 225.168 546.519 225.028 547.069 225.028C547.629 225.028 548.147 225.168 548.623 225.448C549.099 225.728 549.482 226.134 549.771 226.666C550.07 227.198 550.219 227.847 550.219 228.612C550.219 229.359 550.07 229.998 549.771 230.53C549.482 231.062 549.099 231.468 548.623 231.748C548.147 232.028 547.629 232.168 547.069 232.168ZM547.069 231.216C547.657 231.216 548.129 230.978 548.483 230.502C548.847 230.017 549.029 229.387 549.029 228.612C549.029 227.828 548.847 227.193 548.483 226.708C548.129 226.223 547.657 225.98 547.069 225.98C546.491 225.98 546.019 226.223 545.655 226.708C545.291 227.193 545.109 227.828 545.109 228.612C545.109 229.387 545.291 230.017 545.655 230.502C546.019 230.978 546.491 231.216 547.069 231.216ZM552.011 232V225.196H552.963L553.061 226.176H553.103C553.43 225.849 553.775 225.579 554.139 225.364C554.503 225.14 554.919 225.028 555.385 225.028C556.104 225.028 556.627 225.257 556.953 225.714C557.289 226.162 557.457 226.82 557.457 227.688V232H556.309V227.842C556.309 227.207 556.207 226.745 556.001 226.456C555.796 226.167 555.469 226.022 555.021 226.022C554.676 226.022 554.363 226.111 554.083 226.288C553.813 226.465 553.505 226.727 553.159 227.072V232H552.011Z" fill="#354052"/>
<rect x="439" y="213" width="28" height="28" rx="14" fill="#E6EAEE"/>
<path d="M450.956 228.612H453.756V226.022C453.756 225.779 453.765 225.49 453.784 225.154C453.803 224.818 453.817 224.533 453.826 224.3H453.77C453.658 224.515 453.541 224.725 453.42 224.93C453.299 225.135 453.173 225.345 453.042 225.56L450.956 228.612ZM453.756 232V229.536H449.738V228.78L453.56 223.068H454.848V228.612H456.066V229.536H454.848V232H453.756Z" fill="#354052"/>
<path d="M342.268 232L340.322 222.816H341.526L342.492 227.814C342.576 228.309 342.665 228.803 342.758 229.298C342.851 229.793 342.94 230.287 343.024 230.782H343.08C343.183 230.287 343.29 229.793 343.402 229.298C343.514 228.794 343.621 228.299 343.724 227.814L344.998 222.816H346.062L347.336 227.814C347.448 228.299 347.56 228.794 347.672 229.298C347.784 229.793 347.896 230.287 348.008 230.782H348.064C348.148 230.287 348.232 229.793 348.316 229.298C348.4 228.794 348.489 228.299 348.582 227.814L349.548 222.816H350.668L348.764 232H347.364L345.978 226.47C345.894 226.115 345.815 225.77 345.74 225.434C345.675 225.089 345.605 224.739 345.53 224.384H345.474C345.409 224.739 345.334 225.089 345.25 225.434C345.166 225.77 345.087 226.115 345.012 226.47L343.654 232H342.268ZM352.266 232V222.816H353.428V226.666H357.698V222.816H358.874V232H357.698V227.674H353.428V232H352.266ZM362.981 226.862L362.547 228.262H365.305L364.871 226.862C364.703 226.349 364.544 225.84 364.395 225.336C364.245 224.823 364.096 224.3 363.947 223.768H363.891C363.751 224.3 363.606 224.823 363.457 225.336C363.307 225.84 363.149 226.349 362.981 226.862ZM360.181 232L363.289 222.816H364.605L367.713 232H366.467L365.599 229.2H362.253L361.371 232H360.181ZM370.152 232V223.796H367.38V222.816H374.1V223.796H371.328V232H370.152Z" fill="#354052"/>
<rect x="298" y="213" width="28" height="28" rx="14" fill="#959595"/>
<path d="M311.804 232.168C311.095 232.168 310.502 232.042 310.026 231.79C309.55 231.529 309.163 231.235 308.864 230.908L309.452 230.152C309.723 230.432 310.04 230.679 310.404 230.894C310.768 231.109 311.211 231.216 311.734 231.216C312.275 231.216 312.719 231.067 313.064 230.768C313.409 230.469 313.582 230.073 313.582 229.578C313.582 229.223 313.489 228.915 313.302 228.654C313.125 228.383 312.826 228.173 312.406 228.024C311.995 227.875 311.435 227.8 310.726 227.8V226.918C311.361 226.918 311.86 226.843 312.224 226.694C312.597 226.545 312.863 226.344 313.022 226.092C313.181 225.84 313.26 225.56 313.26 225.252C313.26 224.813 313.12 224.468 312.84 224.216C312.569 223.964 312.196 223.838 311.72 223.838C311.347 223.838 311.001 223.922 310.684 224.09C310.376 224.258 310.087 224.477 309.816 224.748L309.2 224.02C309.545 223.693 309.928 223.427 310.348 223.222C310.768 223.007 311.239 222.9 311.762 222.9C312.537 222.9 313.176 223.101 313.68 223.502C314.184 223.894 314.436 224.449 314.436 225.168C314.436 225.709 314.287 226.153 313.988 226.498C313.689 226.843 313.297 227.109 312.812 227.296V227.352C313.353 227.473 313.811 227.73 314.184 228.122C314.557 228.505 314.744 229.004 314.744 229.62C314.744 230.143 314.613 230.595 314.352 230.978C314.091 231.361 313.736 231.655 313.288 231.86C312.849 232.065 312.355 232.168 311.804 232.168Z" fill="#354052"/>
<path d="M218.268 232L216.322 222.816H217.526L218.492 227.814C218.576 228.309 218.665 228.803 218.758 229.298C218.851 229.793 218.94 230.287 219.024 230.782H219.08C219.183 230.287 219.29 229.793 219.402 229.298C219.514 228.794 219.621 228.299 219.724 227.814L220.998 222.816H222.062L223.336 227.814C223.448 228.299 223.56 228.794 223.672 229.298C223.784 229.793 223.896 230.287 224.008 230.782H224.064C224.148 230.287 224.232 229.793 224.316 229.298C224.4 228.794 224.489 228.299 224.582 227.814L225.548 222.816H226.668L224.764 232H223.364L221.978 226.47C221.894 226.115 221.815 225.77 221.74 225.434C221.675 225.089 221.605 224.739 221.53 224.384H221.474C221.409 224.739 221.334 225.089 221.25 225.434C221.166 225.77 221.087 226.115 221.012 226.47L219.654 232H218.268ZM228.154 232V222.032H229.302V224.748L229.26 226.148C229.587 225.84 229.927 225.579 230.282 225.364C230.646 225.14 231.061 225.028 231.528 225.028C232.247 225.028 232.769 225.257 233.096 225.714C233.432 226.162 233.6 226.82 233.6 227.688V232H232.452V227.842C232.452 227.207 232.349 226.745 232.144 226.456C231.939 226.167 231.612 226.022 231.164 226.022C230.819 226.022 230.506 226.111 230.226 226.288C229.955 226.465 229.647 226.727 229.302 227.072V232H228.154ZM238.527 232.168C237.92 232.168 237.37 232.028 236.875 231.748C236.38 231.459 235.988 231.048 235.699 230.516C235.41 229.984 235.265 229.349 235.265 228.612C235.265 227.865 235.41 227.226 235.699 226.694C235.998 226.162 236.38 225.751 236.847 225.462C237.314 225.173 237.804 225.028 238.317 225.028C239.185 225.028 239.852 225.317 240.319 225.896C240.795 226.475 241.033 227.249 241.033 228.22C241.033 228.341 241.028 228.463 241.019 228.584C241.019 228.696 241.01 228.794 240.991 228.878H236.399C236.446 229.597 236.67 230.171 237.071 230.6C237.482 231.029 238.014 231.244 238.667 231.244C238.994 231.244 239.292 231.197 239.563 231.104C239.843 231.001 240.109 230.871 240.361 230.712L240.767 231.468C240.478 231.655 240.146 231.818 239.773 231.958C239.409 232.098 238.994 232.168 238.527 232.168ZM236.385 228.052H240.025C240.025 227.361 239.876 226.839 239.577 226.484C239.288 226.12 238.877 225.938 238.345 225.938C237.869 225.938 237.44 226.125 237.057 226.498C236.684 226.862 236.46 227.38 236.385 228.052ZM242.714 232V225.196H243.666L243.764 226.176H243.806C244.133 225.849 244.478 225.579 244.842 225.364C245.206 225.14 245.622 225.028 246.088 225.028C246.807 225.028 247.33 225.257 247.656 225.714C247.992 226.162 248.16 226.82 248.16 227.688V232H247.012V227.842C247.012 227.207 246.91 226.745 246.704 226.456C246.499 226.167 246.172 226.022 245.724 226.022C245.379 226.022 245.066 226.111 244.786 226.288C244.516 226.465 244.208 226.727 243.862 227.072V232H242.714Z" fill="#1991EB"/>
<rect x="174" y="213" width="28" height="28" rx="14" fill="#E6EAEE"/>
<path d="M185.06 232V231.314C185.956 230.418 186.717 229.634 187.342 228.962C187.967 228.281 188.443 227.669 188.77 227.128C189.097 226.577 189.26 226.064 189.26 225.588C189.26 225.075 189.12 224.655 188.84 224.328C188.56 224.001 188.135 223.838 187.566 223.838C187.193 223.838 186.847 223.945 186.53 224.16C186.213 224.365 185.923 224.617 185.662 224.916L185.004 224.258C185.377 223.847 185.774 223.521 186.194 223.278C186.623 223.026 187.127 222.9 187.706 222.9C188.537 222.9 189.19 223.143 189.666 223.628C190.142 224.104 190.38 224.739 190.38 225.532C190.38 226.092 190.221 226.661 189.904 227.24C189.596 227.809 189.167 228.411 188.616 229.046C188.075 229.671 187.449 230.353 186.74 231.09C186.983 231.071 187.235 231.053 187.496 231.034C187.757 231.015 188.005 231.006 188.238 231.006H190.828V232H185.06Z" fill="#354052"/>
</svg>
