<svg width="762" height="232" viewBox="0 0 762 232" fill="none" xmlns="http://www.w3.org/2000/svg">
<rect width="762" height="232" rx="5" fill="#FAFAFA"/>
<rect x="298" y="110" width="164" height="36" rx="4" fill="url(#paint0_linear_1683_1856)"/>
<circle cx="322" cy="128.5" r="9" fill="white"/>
<path d="M321.306 131.916V128.892H318.442V127.548H321.306V124.524H322.698V127.548H325.562V128.892H322.698V131.916H321.306Z" fill="#1A91EB"/>
<path d="M356.949 132.5V123.344H359.833C360.514 123.344 361.121 123.433 361.653 123.61C362.185 123.787 362.605 124.081 362.913 124.492C363.221 124.903 363.375 125.463 363.375 126.172C363.375 126.844 363.221 127.399 362.913 127.838C362.605 128.277 362.19 128.603 361.667 128.818C361.144 129.033 360.552 129.14 359.889 129.14H358.573V132.5H356.949ZM358.573 127.838H359.763C361.107 127.838 361.779 127.283 361.779 126.172C361.779 125.593 361.602 125.197 361.247 124.982C360.902 124.758 360.388 124.646 359.707 124.646H358.573V127.838ZM364.958 132.5V125.626H366.288L366.4 126.844H366.456C366.698 126.396 366.992 126.055 367.338 125.822C367.683 125.579 368.038 125.458 368.402 125.458C368.728 125.458 368.99 125.505 369.186 125.598L368.906 126.998C368.784 126.961 368.672 126.933 368.57 126.914C368.467 126.895 368.341 126.886 368.192 126.886C367.921 126.886 367.636 126.993 367.338 127.208C367.039 127.413 366.782 127.777 366.568 128.3V132.5H364.958ZM370.18 132.5V125.626H371.79V132.5H370.18ZM370.992 124.422C370.703 124.422 370.47 124.338 370.292 124.17C370.115 124.002 370.026 123.778 370.026 123.498C370.026 123.227 370.115 123.008 370.292 122.84C370.47 122.672 370.703 122.588 370.992 122.588C371.282 122.588 371.515 122.672 371.692 122.84C371.87 123.008 371.958 123.227 371.958 123.498C371.958 123.778 371.87 124.002 371.692 124.17C371.515 124.338 371.282 124.422 370.992 124.422ZM373.844 132.5V125.626H375.174L375.286 126.564H375.342C375.632 126.256 375.944 125.995 376.28 125.78C376.626 125.565 377.013 125.458 377.442 125.458C377.946 125.458 378.348 125.57 378.646 125.794C378.954 126.009 379.188 126.307 379.346 126.69C379.673 126.335 380.014 126.041 380.368 125.808C380.732 125.575 381.129 125.458 381.558 125.458C382.286 125.458 382.823 125.696 383.168 126.172C383.514 126.648 383.686 127.32 383.686 128.188V132.5H382.062V128.398C382.062 127.829 381.974 127.427 381.796 127.194C381.628 126.961 381.367 126.844 381.012 126.844C380.583 126.844 380.102 127.129 379.57 127.698V132.5H377.96V128.398C377.96 127.829 377.872 127.427 377.694 127.194C377.526 126.961 377.26 126.844 376.896 126.844C376.467 126.844 375.986 127.129 375.454 127.698V132.5H373.844ZM387.309 132.668C386.712 132.668 386.222 132.481 385.839 132.108C385.466 131.735 385.279 131.249 385.279 130.652C385.279 129.915 385.601 129.345 386.245 128.944C386.889 128.533 387.916 128.253 389.325 128.104C389.316 127.74 389.218 127.427 389.031 127.166C388.854 126.895 388.532 126.76 388.065 126.76C387.729 126.76 387.398 126.825 387.071 126.956C386.754 127.087 386.441 127.245 386.133 127.432L385.545 126.354C385.928 126.111 386.357 125.901 386.833 125.724C387.318 125.547 387.832 125.458 388.373 125.458C389.232 125.458 389.871 125.715 390.291 126.228C390.72 126.732 390.935 127.465 390.935 128.426V132.5H389.605L389.493 131.744H389.437C389.129 132.005 388.798 132.225 388.443 132.402C388.098 132.579 387.72 132.668 387.309 132.668ZM387.827 131.408C388.107 131.408 388.359 131.343 388.583 131.212C388.816 131.072 389.064 130.885 389.325 130.652V129.112C388.392 129.233 387.743 129.415 387.379 129.658C387.015 129.891 386.833 130.181 386.833 130.526C386.833 130.834 386.926 131.058 387.113 131.198C387.3 131.338 387.538 131.408 387.827 131.408ZM392.862 132.5V125.626H394.192L394.304 126.844H394.36C394.603 126.396 394.897 126.055 395.242 125.822C395.587 125.579 395.942 125.458 396.306 125.458C396.633 125.458 396.894 125.505 397.09 125.598L396.81 126.998C396.689 126.961 396.577 126.933 396.474 126.914C396.371 126.895 396.245 126.886 396.096 126.886C395.825 126.886 395.541 126.993 395.242 127.208C394.943 127.413 394.687 127.777 394.472 128.3V132.5H392.862ZM398.765 135.328C398.579 135.328 398.415 135.314 398.275 135.286C398.135 135.258 398 135.225 397.869 135.188L398.163 133.928C398.229 133.947 398.303 133.965 398.387 133.984C398.481 134.012 398.569 134.026 398.653 134.026C399.017 134.026 399.307 133.914 399.521 133.69C399.745 133.475 399.913 133.195 400.025 132.85L400.151 132.416L397.449 125.626H399.087L400.277 129C400.38 129.299 400.478 129.616 400.571 129.952C400.674 130.279 400.777 130.605 400.879 130.932H400.935C401.019 130.615 401.103 130.293 401.187 129.966C401.281 129.63 401.369 129.308 401.453 129L402.489 125.626H404.043L401.551 132.808C401.262 133.583 400.912 134.194 400.501 134.642C400.091 135.099 399.512 135.328 398.765 135.328Z" fill="white"/>
<circle cx="438" cy="128.5" r="9" fill="white"/>
<path d="M437.306 131.916V128.892H434.442V127.548H437.306V124.524H438.698V127.548H441.562V128.892H438.698V131.916H437.306Z" fill="#1A91EB"/>
<rect x="336" y="67" width="89" height="22" rx="11" fill="#D9D9D9"/>
<path d="M350.936 75.452H348.2V83H346.928V75.452H344.18V74.384H350.936V75.452ZM353.112 76.904V83H351.942V76.904H353.112ZM353.334 75.02C353.334 75.128 353.312 75.232 353.268 75.332C353.224 75.428 353.164 75.514 353.088 75.59C353.016 75.662 352.93 75.72 352.83 75.764C352.73 75.804 352.626 75.824 352.518 75.824C352.41 75.824 352.308 75.804 352.212 75.764C352.116 75.72 352.03 75.662 351.954 75.59C351.882 75.514 351.824 75.428 351.78 75.332C351.74 75.232 351.72 75.128 351.72 75.02C351.72 74.908 351.74 74.804 351.78 74.708C351.824 74.608 351.882 74.522 351.954 74.45C352.03 74.374 352.116 74.316 352.212 74.276C352.308 74.232 352.41 74.21 352.518 74.21C352.626 74.21 352.73 74.232 352.83 74.276C352.93 74.316 353.016 74.374 353.088 74.45C353.164 74.522 353.224 74.608 353.268 74.708C353.312 74.804 353.334 74.908 353.334 75.02ZM356.714 83.096C356.222 83.096 355.842 82.958 355.574 82.682C355.31 82.406 355.178 82.012 355.178 81.5V77.852H354.47C354.402 77.852 354.344 77.832 354.296 77.792C354.252 77.748 354.23 77.684 354.23 77.6V77.126L355.22 76.988L355.484 75.17C355.5 75.102 355.53 75.05 355.574 75.014C355.622 74.974 355.682 74.954 355.754 74.954H356.348V77H358.076V77.852H356.348V81.422C356.348 81.662 356.406 81.842 356.522 81.962C356.642 82.078 356.794 82.136 356.978 82.136C357.086 82.136 357.178 82.122 357.254 82.094C357.334 82.066 357.402 82.036 357.458 82.004C357.514 81.968 357.562 81.936 357.602 81.908C357.642 81.88 357.678 81.866 357.71 81.866C357.75 81.866 357.78 81.876 357.8 81.896C357.824 81.912 357.848 81.94 357.872 81.98L358.22 82.544C358.028 82.72 357.8 82.856 357.536 82.952C357.272 83.048 356.998 83.096 356.714 83.096ZM360.354 74.144V83H359.178V74.144H360.354ZM366.063 79.274C366.063 79.042 366.029 78.828 365.961 78.632C365.897 78.436 365.801 78.266 365.673 78.122C365.545 77.978 365.389 77.866 365.205 77.786C365.021 77.706 364.809 77.666 364.569 77.666C364.077 77.666 363.689 77.808 363.405 78.092C363.125 78.376 362.947 78.77 362.871 79.274H366.063ZM367.029 82.13C366.885 82.298 366.719 82.444 366.531 82.568C366.343 82.688 366.143 82.786 365.931 82.862C365.719 82.938 365.499 82.994 365.271 83.03C365.047 83.066 364.825 83.084 364.605 83.084C364.185 83.084 363.795 83.014 363.435 82.874C363.079 82.73 362.769 82.522 362.505 82.25C362.245 81.974 362.041 81.634 361.893 81.23C361.749 80.822 361.677 80.354 361.677 79.826C361.677 79.402 361.743 79.008 361.875 78.644C362.007 78.276 362.195 77.956 362.439 77.684C362.687 77.412 362.989 77.198 363.345 77.042C363.701 76.886 364.101 76.808 364.545 76.808C364.917 76.808 365.259 76.87 365.571 76.994C365.887 77.114 366.159 77.29 366.387 77.522C366.615 77.754 366.793 78.04 366.921 78.38C367.053 78.72 367.119 79.108 367.119 79.544C367.119 79.724 367.099 79.846 367.059 79.91C367.019 79.97 366.945 80 366.837 80H362.841C362.853 80.364 362.905 80.682 362.997 80.954C363.089 81.222 363.215 81.446 363.375 81.626C363.539 81.806 363.733 81.94 363.957 82.028C364.181 82.116 364.431 82.16 364.707 82.16C364.967 82.16 365.191 82.13 365.379 82.07C365.571 82.01 365.735 81.946 365.871 81.878C366.011 81.806 366.127 81.74 366.219 81.68C366.315 81.62 366.399 81.59 366.471 81.59C366.567 81.59 366.641 81.626 366.693 81.698L367.029 82.13Z" fill="black"/>
<path d="M399.985 81.63V82H396.335V81.63H397.96V75.89C397.96 75.7767 397.965 75.6567 397.975 75.53L396.415 76.915C396.368 76.955 396.322 76.97 396.275 76.96C396.228 76.95 396.192 76.93 396.165 76.9L396.02 76.7L398.065 74.895H398.44V81.63H399.985ZM403.701 81.7C403.971 81.7 404.216 81.6633 404.436 81.59C404.659 81.5133 404.851 81.4067 405.011 81.27C405.171 81.13 405.294 80.9633 405.381 80.77C405.467 80.5767 405.511 80.3617 405.511 80.125C405.511 79.815 405.454 79.5567 405.341 79.35C405.227 79.1433 405.082 78.9783 404.906 78.855C404.729 78.7317 404.534 78.645 404.321 78.595C404.107 78.5417 403.901 78.515 403.701 78.515C403.501 78.515 403.294 78.5417 403.081 78.595C402.867 78.645 402.672 78.7317 402.496 78.855C402.319 78.9783 402.174 79.1433 402.061 79.35C401.947 79.5567 401.891 79.815 401.891 80.125C401.891 80.3617 401.934 80.5767 402.021 80.77C402.107 80.9633 402.229 81.13 402.386 81.27C402.546 81.4067 402.737 81.5133 402.961 81.59C403.184 81.6633 403.431 81.7 403.701 81.7ZM402.121 76.655C402.121 76.845 402.151 77.0283 402.211 77.205C402.274 77.3817 402.371 77.54 402.501 77.68C402.631 77.8167 402.794 77.9267 402.991 78.01C403.191 78.09 403.427 78.13 403.701 78.13C403.971 78.13 404.204 78.09 404.401 78.01C404.601 77.9267 404.766 77.8167 404.896 77.68C405.026 77.54 405.121 77.3817 405.181 77.205C405.244 77.0283 405.276 76.845 405.276 76.655C405.276 76.4517 405.241 76.2633 405.171 76.09C405.101 75.9133 404.997 75.76 404.861 75.63C404.727 75.5 404.562 75.3983 404.366 75.325C404.172 75.2517 403.951 75.215 403.701 75.215C403.451 75.215 403.227 75.2517 403.031 75.325C402.834 75.3983 402.667 75.5 402.531 75.63C402.397 75.76 402.296 75.9133 402.226 76.09C402.156 76.2633 402.121 76.4517 402.121 76.655ZM404.456 78.305C404.682 78.355 404.889 78.43 405.076 78.53C405.266 78.63 405.429 78.755 405.566 78.905C405.702 79.055 405.809 79.2317 405.886 79.435C405.962 79.6383 406.001 79.87 406.001 80.13C406.001 80.43 405.944 80.7 405.831 80.94C405.717 81.18 405.559 81.385 405.356 81.555C405.156 81.725 404.914 81.855 404.631 81.945C404.351 82.035 404.041 82.08 403.701 82.08C403.361 82.08 403.049 82.035 402.766 81.945C402.486 81.855 402.244 81.725 402.041 81.555C401.841 81.385 401.684 81.18 401.571 80.94C401.457 80.7 401.401 80.43 401.401 80.13C401.401 79.87 401.439 79.6383 401.516 79.435C401.592 79.2317 401.697 79.055 401.831 78.905C401.967 78.755 402.129 78.63 402.316 78.53C402.506 78.43 402.714 78.355 402.941 78.305C402.734 78.245 402.551 78.1633 402.391 78.06C402.231 77.9567 402.096 77.8333 401.986 77.69C401.879 77.5467 401.797 77.3883 401.741 77.215C401.684 77.0383 401.656 76.85 401.656 76.65C401.656 76.4 401.702 76.165 401.796 75.945C401.892 75.725 402.029 75.5333 402.206 75.37C402.382 75.2067 402.596 75.0783 402.846 74.985C403.099 74.8917 403.384 74.845 403.701 74.845C404.014 74.845 404.296 74.8917 404.546 74.985C404.799 75.0783 405.014 75.2067 405.191 75.37C405.371 75.5333 405.507 75.725 405.601 75.945C405.697 76.165 405.746 76.4 405.746 76.65C405.746 76.85 405.717 77.0383 405.661 77.215C405.604 77.3883 405.521 77.5467 405.411 77.69C405.301 77.83 405.166 77.9533 405.006 78.06C404.846 78.1633 404.662 78.245 404.456 78.305ZM407.902 80.915C407.998 81.0583 408.098 81.18 408.202 81.28C408.308 81.3767 408.42 81.4567 408.537 81.52C408.653 81.58 408.777 81.6233 408.907 81.65C409.04 81.6767 409.18 81.69 409.327 81.69C409.62 81.69 409.877 81.6367 410.097 81.53C410.317 81.4233 410.5 81.2733 410.647 81.08C410.797 80.8833 410.908 80.65 410.982 80.38C411.058 80.1067 411.097 79.8067 411.097 79.48C411.097 78.74 410.96 78.1967 410.687 77.85C410.413 77.5 410.022 77.325 409.512 77.325C409.182 77.325 408.883 77.41 408.617 77.58C408.35 77.75 408.112 77.9867 407.902 78.29V80.915ZM407.882 77.92C408.102 77.62 408.358 77.3817 408.652 77.205C408.948 77.0283 409.28 76.94 409.647 76.94C410.257 76.94 410.732 77.1517 411.072 77.575C411.415 77.9983 411.587 78.6333 411.587 79.48C411.587 79.8433 411.538 80.1833 411.442 80.5C411.348 80.8133 411.208 81.0867 411.022 81.32C410.838 81.55 410.612 81.7317 410.342 81.865C410.075 81.9983 409.767 82.065 409.417 82.065C409.08 82.065 408.788 82.0033 408.542 81.88C408.295 81.7567 408.082 81.575 407.902 81.335V83.76H407.422V77.025H407.687C407.77 77.025 407.818 77.0667 407.832 77.15L407.882 77.92ZM416.394 82H415.939C415.892 82 415.855 81.9867 415.829 81.96C415.802 81.93 415.78 81.9017 415.764 81.875L414.254 79.67C414.24 79.73 414.215 79.7883 414.179 79.845L412.739 81.875C412.715 81.905 412.69 81.9333 412.664 81.96C412.64 81.9867 412.609 82 412.569 82H412.139L413.949 79.455L412.209 77.025H412.664C412.71 77.025 412.745 77.035 412.769 77.055C412.792 77.075 412.812 77.0983 412.829 77.125L414.289 79.23C414.295 79.2033 414.305 79.175 414.319 79.145C414.335 79.115 414.352 79.085 414.369 79.055L415.734 77.13C415.754 77.1 415.775 77.075 415.799 77.055C415.822 77.035 415.852 77.025 415.889 77.025H416.324L414.589 79.425L416.394 82Z" fill="black"/>
<path d="M379.47 120.53C379.763 120.823 380.237 120.823 380.53 120.53L385.303 115.757C385.596 115.464 385.596 114.99 385.303 114.697C385.01 114.404 384.536 114.404 384.243 114.697L380 118.939L375.757 114.697C375.464 114.404 374.99 114.404 374.697 114.697C374.404 114.99 374.404 115.464 374.697 115.757L379.47 120.53ZM379.25 89L379.25 120L380.75 120L380.75 89L379.25 89Z" fill="#D9D9D9"/>
<defs>
<linearGradient id="paint0_linear_1683_1856" x1="380" y1="146" x2="380" y2="110" gradientUnits="userSpaceOnUse">
<stop stop-color="#1990EA"/>
<stop offset="1" stop-color="#1991EB"/>
<stop offset="1" stop-color="#2EA1F8"/>
</linearGradient>
</defs>
</svg>
