<svg width="762" height="232" viewBox="0 0 762 232" fill="none" xmlns="http://www.w3.org/2000/svg">
<g clip-path="url(#clip0_1893_1017)">
<path d="M757 0H5C2.23858 0 0 2.23858 0 5V227C0 229.761 2.23858 232 5 232H757C759.761 232 762 229.761 762 227V5C762 2.23858 759.761 0 757 0Z" fill="#FAFAFA"/>
<rect x="299" y="119" width="164" height="36" rx="4" fill="url(#paint0_linear_1893_1017)"/>
<circle cx="323" cy="137.5" r="9" fill="white"/>
<path d="M322.306 140.916V137.892H319.442V136.548H322.306V133.524H323.698V136.548H326.562V137.892H323.698V140.916H322.306Z" fill="#1A91EB"/>
<path d="M357.949 141.5V132.344H360.833C361.514 132.344 362.121 132.433 362.653 132.61C363.185 132.787 363.605 133.081 363.913 133.492C364.221 133.903 364.375 134.463 364.375 135.172C364.375 135.844 364.221 136.399 363.913 136.838C363.605 137.277 363.19 137.603 362.667 137.818C362.144 138.033 361.552 138.14 360.889 138.14H359.573V141.5H357.949ZM359.573 136.838H360.763C362.107 136.838 362.779 136.283 362.779 135.172C362.779 134.593 362.602 134.197 362.247 133.982C361.902 133.758 361.388 133.646 360.707 133.646H359.573V136.838ZM365.958 141.5V134.626H367.288L367.4 135.844H367.456C367.698 135.396 367.992 135.055 368.338 134.822C368.683 134.579 369.038 134.458 369.402 134.458C369.728 134.458 369.99 134.505 370.186 134.598L369.906 135.998C369.784 135.961 369.672 135.933 369.57 135.914C369.467 135.895 369.341 135.886 369.192 135.886C368.921 135.886 368.636 135.993 368.338 136.208C368.039 136.413 367.782 136.777 367.568 137.3V141.5H365.958ZM371.18 141.5V134.626H372.79V141.5H371.18ZM371.992 133.422C371.703 133.422 371.47 133.338 371.292 133.17C371.115 133.002 371.026 132.778 371.026 132.498C371.026 132.227 371.115 132.008 371.292 131.84C371.47 131.672 371.703 131.588 371.992 131.588C372.282 131.588 372.515 131.672 372.692 131.84C372.87 132.008 372.958 132.227 372.958 132.498C372.958 132.778 372.87 133.002 372.692 133.17C372.515 133.338 372.282 133.422 371.992 133.422ZM374.844 141.5V134.626H376.174L376.286 135.564H376.342C376.632 135.256 376.944 134.995 377.28 134.78C377.626 134.565 378.013 134.458 378.442 134.458C378.946 134.458 379.348 134.57 379.646 134.794C379.954 135.009 380.188 135.307 380.346 135.69C380.673 135.335 381.014 135.041 381.368 134.808C381.732 134.575 382.129 134.458 382.558 134.458C383.286 134.458 383.823 134.696 384.168 135.172C384.514 135.648 384.686 136.32 384.686 137.188V141.5H383.062V137.398C383.062 136.829 382.974 136.427 382.796 136.194C382.628 135.961 382.367 135.844 382.012 135.844C381.583 135.844 381.102 136.129 380.57 136.698V141.5H378.96V137.398C378.96 136.829 378.872 136.427 378.694 136.194C378.526 135.961 378.26 135.844 377.896 135.844C377.467 135.844 376.986 136.129 376.454 136.698V141.5H374.844ZM388.309 141.668C387.712 141.668 387.222 141.481 386.839 141.108C386.466 140.735 386.279 140.249 386.279 139.652C386.279 138.915 386.601 138.345 387.245 137.944C387.889 137.533 388.916 137.253 390.325 137.104C390.316 136.74 390.218 136.427 390.031 136.166C389.854 135.895 389.532 135.76 389.065 135.76C388.729 135.76 388.398 135.825 388.071 135.956C387.754 136.087 387.441 136.245 387.133 136.432L386.545 135.354C386.928 135.111 387.357 134.901 387.833 134.724C388.318 134.547 388.832 134.458 389.373 134.458C390.232 134.458 390.871 134.715 391.291 135.228C391.72 135.732 391.935 136.465 391.935 137.426V141.5H390.605L390.493 140.744H390.437C390.129 141.005 389.798 141.225 389.443 141.402C389.098 141.579 388.72 141.668 388.309 141.668ZM388.827 140.408C389.107 140.408 389.359 140.343 389.583 140.212C389.816 140.072 390.064 139.885 390.325 139.652V138.112C389.392 138.233 388.743 138.415 388.379 138.658C388.015 138.891 387.833 139.181 387.833 139.526C387.833 139.834 387.926 140.058 388.113 140.198C388.3 140.338 388.538 140.408 388.827 140.408ZM393.862 141.5V134.626H395.192L395.304 135.844H395.36C395.603 135.396 395.897 135.055 396.242 134.822C396.587 134.579 396.942 134.458 397.306 134.458C397.633 134.458 397.894 134.505 398.09 134.598L397.81 135.998C397.689 135.961 397.577 135.933 397.474 135.914C397.371 135.895 397.245 135.886 397.096 135.886C396.825 135.886 396.541 135.993 396.242 136.208C395.943 136.413 395.687 136.777 395.472 137.3V141.5H393.862ZM399.765 144.328C399.579 144.328 399.415 144.314 399.275 144.286C399.135 144.258 399 144.225 398.869 144.188L399.163 142.928C399.229 142.947 399.303 142.965 399.387 142.984C399.481 143.012 399.569 143.026 399.653 143.026C400.017 143.026 400.307 142.914 400.521 142.69C400.745 142.475 400.913 142.195 401.025 141.85L401.151 141.416L398.449 134.626H400.087L401.277 138C401.38 138.299 401.478 138.616 401.571 138.952C401.674 139.279 401.777 139.605 401.879 139.932H401.935C402.019 139.615 402.103 139.293 402.187 138.966C402.281 138.63 402.369 138.308 402.453 138L403.489 134.626H405.043L402.551 141.808C402.262 142.583 401.912 143.194 401.501 143.642C401.091 144.099 400.512 144.328 399.765 144.328Z" fill="white"/>
<circle cx="439" cy="137.5" r="9" fill="white"/>
<path d="M438.306 140.916V137.892H435.442V136.548H438.306V133.524H439.698V136.548H442.562V137.892H439.698V140.916H438.306Z" fill="#1A91EB"/>
<rect x="337" y="76" width="89" height="22" rx="11" fill="#D9D9D9"/>
<path d="M351.936 84.452H349.2V92H347.928V84.452H345.18V83.384H351.936V84.452ZM354.112 85.904V92H352.942V85.904H354.112ZM354.334 84.02C354.334 84.128 354.312 84.232 354.268 84.332C354.224 84.428 354.164 84.514 354.088 84.59C354.016 84.662 353.93 84.72 353.83 84.764C353.73 84.804 353.626 84.824 353.518 84.824C353.41 84.824 353.308 84.804 353.212 84.764C353.116 84.72 353.03 84.662 352.954 84.59C352.882 84.514 352.824 84.428 352.78 84.332C352.74 84.232 352.72 84.128 352.72 84.02C352.72 83.908 352.74 83.804 352.78 83.708C352.824 83.608 352.882 83.522 352.954 83.45C353.03 83.374 353.116 83.316 353.212 83.276C353.308 83.232 353.41 83.21 353.518 83.21C353.626 83.21 353.73 83.232 353.83 83.276C353.93 83.316 354.016 83.374 354.088 83.45C354.164 83.522 354.224 83.608 354.268 83.708C354.312 83.804 354.334 83.908 354.334 84.02ZM357.714 92.096C357.222 92.096 356.842 91.958 356.574 91.682C356.31 91.406 356.178 91.012 356.178 90.5V86.852H355.47C355.402 86.852 355.344 86.832 355.296 86.792C355.252 86.748 355.23 86.684 355.23 86.6V86.126L356.22 85.988L356.484 84.17C356.5 84.102 356.53 84.05 356.574 84.014C356.622 83.974 356.682 83.954 356.754 83.954H357.348V86H359.076V86.852H357.348V90.422C357.348 90.662 357.406 90.842 357.522 90.962C357.642 91.078 357.794 91.136 357.978 91.136C358.086 91.136 358.178 91.122 358.254 91.094C358.334 91.066 358.402 91.036 358.458 91.004C358.514 90.968 358.562 90.936 358.602 90.908C358.642 90.88 358.678 90.866 358.71 90.866C358.75 90.866 358.78 90.876 358.8 90.896C358.824 90.912 358.848 90.94 358.872 90.98L359.22 91.544C359.028 91.72 358.8 91.856 358.536 91.952C358.272 92.048 357.998 92.096 357.714 92.096ZM361.354 83.144V92H360.178V83.144H361.354ZM367.063 88.274C367.063 88.042 367.029 87.828 366.961 87.632C366.897 87.436 366.801 87.266 366.673 87.122C366.545 86.978 366.389 86.866 366.205 86.786C366.021 86.706 365.809 86.666 365.569 86.666C365.077 86.666 364.689 86.808 364.405 87.092C364.125 87.376 363.947 87.77 363.871 88.274H367.063ZM368.029 91.13C367.885 91.298 367.719 91.444 367.531 91.568C367.343 91.688 367.143 91.786 366.931 91.862C366.719 91.938 366.499 91.994 366.271 92.03C366.047 92.066 365.825 92.084 365.605 92.084C365.185 92.084 364.795 92.014 364.435 91.874C364.079 91.73 363.769 91.522 363.505 91.25C363.245 90.974 363.041 90.634 362.893 90.23C362.749 89.822 362.677 89.354 362.677 88.826C362.677 88.402 362.743 88.008 362.875 87.644C363.007 87.276 363.195 86.956 363.439 86.684C363.687 86.412 363.989 86.198 364.345 86.042C364.701 85.886 365.101 85.808 365.545 85.808C365.917 85.808 366.259 85.87 366.571 85.994C366.887 86.114 367.159 86.29 367.387 86.522C367.615 86.754 367.793 87.04 367.921 87.38C368.053 87.72 368.119 88.108 368.119 88.544C368.119 88.724 368.099 88.846 368.059 88.91C368.019 88.97 367.945 89 367.837 89H363.841C363.853 89.364 363.905 89.682 363.997 89.954C364.089 90.222 364.215 90.446 364.375 90.626C364.539 90.806 364.733 90.94 364.957 91.028C365.181 91.116 365.431 91.16 365.707 91.16C365.967 91.16 366.191 91.13 366.379 91.07C366.571 91.01 366.735 90.946 366.871 90.878C367.011 90.806 367.127 90.74 367.219 90.68C367.315 90.62 367.399 90.59 367.471 90.59C367.567 90.59 367.641 90.626 367.693 90.698L368.029 91.13Z" fill="black"/>
<path d="M400.985 90.63V91H397.335V90.63H398.96V84.89C398.96 84.7767 398.965 84.6567 398.975 84.53L397.415 85.915C397.368 85.955 397.322 85.97 397.275 85.96C397.228 85.95 397.192 85.93 397.165 85.9L397.02 85.7L399.065 83.895H399.44V90.63H400.985ZM404.701 90.7C404.971 90.7 405.216 90.6633 405.436 90.59C405.659 90.5133 405.851 90.4067 406.011 90.27C406.171 90.13 406.294 89.9633 406.381 89.77C406.467 89.5767 406.511 89.3617 406.511 89.125C406.511 88.815 406.454 88.5567 406.341 88.35C406.227 88.1433 406.082 87.9783 405.906 87.855C405.729 87.7317 405.534 87.645 405.321 87.595C405.107 87.5417 404.901 87.515 404.701 87.515C404.501 87.515 404.294 87.5417 404.081 87.595C403.867 87.645 403.672 87.7317 403.496 87.855C403.319 87.9783 403.174 88.1433 403.061 88.35C402.947 88.5567 402.891 88.815 402.891 89.125C402.891 89.3617 402.934 89.5767 403.021 89.77C403.107 89.9633 403.229 90.13 403.386 90.27C403.546 90.4067 403.737 90.5133 403.961 90.59C404.184 90.6633 404.431 90.7 404.701 90.7ZM403.121 85.655C403.121 85.845 403.151 86.0283 403.211 86.205C403.274 86.3817 403.371 86.54 403.501 86.68C403.631 86.8167 403.794 86.9267 403.991 87.01C404.191 87.09 404.427 87.13 404.701 87.13C404.971 87.13 405.204 87.09 405.401 87.01C405.601 86.9267 405.766 86.8167 405.896 86.68C406.026 86.54 406.121 86.3817 406.181 86.205C406.244 86.0283 406.276 85.845 406.276 85.655C406.276 85.4517 406.241 85.2633 406.171 85.09C406.101 84.9133 405.997 84.76 405.861 84.63C405.727 84.5 405.562 84.3983 405.366 84.325C405.172 84.2517 404.951 84.215 404.701 84.215C404.451 84.215 404.227 84.2517 404.031 84.325C403.834 84.3983 403.667 84.5 403.531 84.63C403.397 84.76 403.296 84.9133 403.226 85.09C403.156 85.2633 403.121 85.4517 403.121 85.655ZM405.456 87.305C405.682 87.355 405.889 87.43 406.076 87.53C406.266 87.63 406.429 87.755 406.566 87.905C406.702 88.055 406.809 88.2317 406.886 88.435C406.962 88.6383 407.001 88.87 407.001 89.13C407.001 89.43 406.944 89.7 406.831 89.94C406.717 90.18 406.559 90.385 406.356 90.555C406.156 90.725 405.914 90.855 405.631 90.945C405.351 91.035 405.041 91.08 404.701 91.08C404.361 91.08 404.049 91.035 403.766 90.945C403.486 90.855 403.244 90.725 403.041 90.555C402.841 90.385 402.684 90.18 402.571 89.94C402.457 89.7 402.401 89.43 402.401 89.13C402.401 88.87 402.439 88.6383 402.516 88.435C402.592 88.2317 402.697 88.055 402.831 87.905C402.967 87.755 403.129 87.63 403.316 87.53C403.506 87.43 403.714 87.355 403.941 87.305C403.734 87.245 403.551 87.1633 403.391 87.06C403.231 86.9567 403.096 86.8333 402.986 86.69C402.879 86.5467 402.797 86.3883 402.741 86.215C402.684 86.0383 402.656 85.85 402.656 85.65C402.656 85.4 402.702 85.165 402.796 84.945C402.892 84.725 403.029 84.5333 403.206 84.37C403.382 84.2067 403.596 84.0783 403.846 83.985C404.099 83.8917 404.384 83.845 404.701 83.845C405.014 83.845 405.296 83.8917 405.546 83.985C405.799 84.0783 406.014 84.2067 406.191 84.37C406.371 84.5333 406.507 84.725 406.601 84.945C406.697 85.165 406.746 85.4 406.746 85.65C406.746 85.85 406.717 86.0383 406.661 86.215C406.604 86.3883 406.521 86.5467 406.411 86.69C406.301 86.83 406.166 86.9533 406.006 87.06C405.846 87.1633 405.662 87.245 405.456 87.305ZM408.902 89.915C408.998 90.0583 409.098 90.18 409.202 90.28C409.308 90.3767 409.42 90.4567 409.537 90.52C409.653 90.58 409.777 90.6233 409.907 90.65C410.04 90.6767 410.18 90.69 410.327 90.69C410.62 90.69 410.877 90.6367 411.097 90.53C411.317 90.4233 411.5 90.2733 411.647 90.08C411.797 89.8833 411.908 89.65 411.982 89.38C412.058 89.1067 412.097 88.8067 412.097 88.48C412.097 87.74 411.96 87.1967 411.687 86.85C411.413 86.5 411.022 86.325 410.512 86.325C410.182 86.325 409.883 86.41 409.617 86.58C409.35 86.75 409.112 86.9867 408.902 87.29V89.915ZM408.882 86.92C409.102 86.62 409.358 86.3817 409.652 86.205C409.948 86.0283 410.28 85.94 410.647 85.94C411.257 85.94 411.732 86.1517 412.072 86.575C412.415 86.9983 412.587 87.6333 412.587 88.48C412.587 88.8433 412.538 89.1833 412.442 89.5C412.348 89.8133 412.208 90.0867 412.022 90.32C411.838 90.55 411.612 90.7317 411.342 90.865C411.075 90.9983 410.767 91.065 410.417 91.065C410.08 91.065 409.788 91.0033 409.542 90.88C409.295 90.7567 409.082 90.575 408.902 90.335V92.76H408.422V86.025H408.687C408.77 86.025 408.818 86.0667 408.832 86.15L408.882 86.92ZM417.394 91H416.939C416.892 91 416.855 90.9867 416.829 90.96C416.802 90.93 416.78 90.9017 416.764 90.875L415.254 88.67C415.24 88.73 415.215 88.7883 415.179 88.845L413.739 90.875C413.715 90.905 413.69 90.9333 413.664 90.96C413.64 90.9867 413.609 91 413.569 91H413.139L414.949 88.455L413.209 86.025H413.664C413.71 86.025 413.745 86.035 413.769 86.055C413.792 86.075 413.812 86.0983 413.829 86.125L415.289 88.23C415.295 88.2033 415.305 88.175 415.319 88.145C415.335 88.115 415.352 88.085 415.369 88.055L416.734 86.13C416.754 86.1 416.775 86.075 416.799 86.055C416.822 86.035 416.852 86.025 416.889 86.025H417.324L415.589 88.425L417.394 91Z" fill="black"/>
<path d="M380.47 129.53C380.763 129.823 381.237 129.823 381.53 129.53L386.303 124.757C386.596 124.464 386.596 123.99 386.303 123.697C386.01 123.404 385.536 123.404 385.243 123.697L381 127.939L376.757 123.697C376.464 123.404 375.99 123.404 375.697 123.697C375.404 123.99 375.404 124.464 375.697 124.757L380.47 129.53ZM380.25 98L380.25 129L381.75 129L381.75 98L380.25 98Z" fill="#D9D9D9"/>
</g>
<defs>
<linearGradient id="paint0_linear_1893_1017" x1="381" y1="155" x2="381" y2="119" gradientUnits="userSpaceOnUse">
<stop stop-color="#1990EA"/>
<stop offset="1" stop-color="#1991EB"/>
<stop offset="1" stop-color="#2EA1F8"/>
</linearGradient>
<clipPath id="clip0_1893_1017">
<rect width="762" height="232" fill="white"/>
</clipPath>
</defs>
</svg>
