<svg width="762" height="233" viewBox="0 0 762 233" fill="none" xmlns="http://www.w3.org/2000/svg">
<rect width="762" height="233" rx="5" fill="#FAFAFA"/>
<rect x="299" y="92" width="164" height="36" rx="4" fill="url(#paint0_linear_1680_1853)"/>
<circle cx="323" cy="110.5" r="9" fill="white"/>
<path d="M322.306 113.916V110.892H319.442V109.548H322.306V106.524H323.698V109.548H326.562V110.892H323.698V113.916H322.306Z" fill="#1A91EB"/>
<path d="M357.949 114.5V105.344H360.833C361.514 105.344 362.121 105.433 362.653 105.61C363.185 105.787 363.605 106.081 363.913 106.492C364.221 106.903 364.375 107.463 364.375 108.172C364.375 108.844 364.221 109.399 363.913 109.838C363.605 110.277 363.19 110.603 362.667 110.818C362.144 111.033 361.552 111.14 360.889 111.14H359.573V114.5H357.949ZM359.573 109.838H360.763C362.107 109.838 362.779 109.283 362.779 108.172C362.779 107.593 362.602 107.197 362.247 106.982C361.902 106.758 361.388 106.646 360.707 106.646H359.573V109.838ZM365.958 114.5V107.626H367.288L367.4 108.844H367.456C367.698 108.396 367.992 108.055 368.338 107.822C368.683 107.579 369.038 107.458 369.402 107.458C369.728 107.458 369.99 107.505 370.186 107.598L369.906 108.998C369.784 108.961 369.672 108.933 369.57 108.914C369.467 108.895 369.341 108.886 369.192 108.886C368.921 108.886 368.636 108.993 368.338 109.208C368.039 109.413 367.782 109.777 367.568 110.3V114.5H365.958ZM371.18 114.5V107.626H372.79V114.5H371.18ZM371.992 106.422C371.703 106.422 371.47 106.338 371.292 106.17C371.115 106.002 371.026 105.778 371.026 105.498C371.026 105.227 371.115 105.008 371.292 104.84C371.47 104.672 371.703 104.588 371.992 104.588C372.282 104.588 372.515 104.672 372.692 104.84C372.87 105.008 372.958 105.227 372.958 105.498C372.958 105.778 372.87 106.002 372.692 106.17C372.515 106.338 372.282 106.422 371.992 106.422ZM374.844 114.5V107.626H376.174L376.286 108.564H376.342C376.632 108.256 376.944 107.995 377.28 107.78C377.626 107.565 378.013 107.458 378.442 107.458C378.946 107.458 379.348 107.57 379.646 107.794C379.954 108.009 380.188 108.307 380.346 108.69C380.673 108.335 381.014 108.041 381.368 107.808C381.732 107.575 382.129 107.458 382.558 107.458C383.286 107.458 383.823 107.696 384.168 108.172C384.514 108.648 384.686 109.32 384.686 110.188V114.5H383.062V110.398C383.062 109.829 382.974 109.427 382.796 109.194C382.628 108.961 382.367 108.844 382.012 108.844C381.583 108.844 381.102 109.129 380.57 109.698V114.5H378.96V110.398C378.96 109.829 378.872 109.427 378.694 109.194C378.526 108.961 378.26 108.844 377.896 108.844C377.467 108.844 376.986 109.129 376.454 109.698V114.5H374.844ZM388.309 114.668C387.712 114.668 387.222 114.481 386.839 114.108C386.466 113.735 386.279 113.249 386.279 112.652C386.279 111.915 386.601 111.345 387.245 110.944C387.889 110.533 388.916 110.253 390.325 110.104C390.316 109.74 390.218 109.427 390.031 109.166C389.854 108.895 389.532 108.76 389.065 108.76C388.729 108.76 388.398 108.825 388.071 108.956C387.754 109.087 387.441 109.245 387.133 109.432L386.545 108.354C386.928 108.111 387.357 107.901 387.833 107.724C388.318 107.547 388.832 107.458 389.373 107.458C390.232 107.458 390.871 107.715 391.291 108.228C391.72 108.732 391.935 109.465 391.935 110.426V114.5H390.605L390.493 113.744H390.437C390.129 114.005 389.798 114.225 389.443 114.402C389.098 114.579 388.72 114.668 388.309 114.668ZM388.827 113.408C389.107 113.408 389.359 113.343 389.583 113.212C389.816 113.072 390.064 112.885 390.325 112.652V111.112C389.392 111.233 388.743 111.415 388.379 111.658C388.015 111.891 387.833 112.181 387.833 112.526C387.833 112.834 387.926 113.058 388.113 113.198C388.3 113.338 388.538 113.408 388.827 113.408ZM393.862 114.5V107.626H395.192L395.304 108.844H395.36C395.603 108.396 395.897 108.055 396.242 107.822C396.587 107.579 396.942 107.458 397.306 107.458C397.633 107.458 397.894 107.505 398.09 107.598L397.81 108.998C397.689 108.961 397.577 108.933 397.474 108.914C397.371 108.895 397.245 108.886 397.096 108.886C396.825 108.886 396.541 108.993 396.242 109.208C395.943 109.413 395.687 109.777 395.472 110.3V114.5H393.862ZM399.765 117.328C399.579 117.328 399.415 117.314 399.275 117.286C399.135 117.258 399 117.225 398.869 117.188L399.163 115.928C399.229 115.947 399.303 115.965 399.387 115.984C399.481 116.012 399.569 116.026 399.653 116.026C400.017 116.026 400.307 115.914 400.521 115.69C400.745 115.475 400.913 115.195 401.025 114.85L401.151 114.416L398.449 107.626H400.087L401.277 111C401.38 111.299 401.478 111.616 401.571 111.952C401.674 112.279 401.777 112.605 401.879 112.932H401.935C402.019 112.615 402.103 112.293 402.187 111.966C402.281 111.63 402.369 111.308 402.453 111L403.489 107.626H405.043L402.551 114.808C402.262 115.583 401.912 116.194 401.501 116.642C401.091 117.099 400.512 117.328 399.765 117.328Z" fill="white"/>
<circle cx="439" cy="110.5" r="9" fill="white"/>
<path d="M438.306 113.916V110.892H435.442V109.548H438.306V106.524H439.698V109.548H442.562V110.892H439.698V113.916H438.306Z" fill="#1A91EB"/>
<path d="M323.53 133.47C323.237 133.177 322.763 133.177 322.47 133.47L317.697 138.243C317.404 138.536 317.404 139.01 317.697 139.303C317.99 139.596 318.464 139.596 318.757 139.303L323 135.061L327.243 139.303C327.536 139.596 328.01 139.596 328.303 139.303C328.596 139.01 328.596 138.536 328.303 138.243L323.53 133.47ZM323.75 155L323.75 134L322.25 134L322.25 155L323.75 155Z" fill="#B0B0B0"/>
<path d="M379.47 83.5303C379.763 83.8232 380.237 83.8232 380.53 83.5303L385.303 78.7574C385.596 78.4645 385.596 77.9896 385.303 77.6967C385.01 77.4038 384.536 77.4038 384.243 77.6967L380 81.9393L375.757 77.6967C375.464 77.4038 374.99 77.4038 374.697 77.6967C374.404 77.9896 374.404 78.4645 374.697 78.7574L379.47 83.5303ZM379.25 62L379.25 83L380.75 83L380.75 62L379.25 62Z" fill="#B0B0B0"/>
<path d="M305.47 89.5303C305.763 89.8232 306.237 89.8232 306.53 89.5303L311.303 84.7574C311.596 84.4645 311.596 83.9896 311.303 83.6967C311.01 83.4038 310.536 83.4038 310.243 83.6967L306 87.9393L301.757 83.6967C301.464 83.4038 300.99 83.4038 300.697 83.6967C300.404 83.9896 300.404 84.4645 300.697 84.7574L305.47 89.5303ZM305.25 68L305.25 89L306.75 89L306.75 68L305.25 68Z" fill="#B0B0B0"/>
<path d="M439.53 133.47C439.237 133.177 438.763 133.177 438.47 133.47L433.697 138.243C433.404 138.536 433.404 139.01 433.697 139.303C433.99 139.596 434.464 139.596 434.757 139.303L439 135.061L443.243 139.303C443.536 139.596 444.01 139.596 444.303 139.303C444.596 139.01 444.596 138.536 444.303 138.243L439.53 133.47ZM439.75 155L439.75 134L438.25 134L438.25 155L439.75 155Z" fill="#B0B0B0"/>
<rect x="354.5" y="86.5" width="54" height="46" stroke="#B0B0B0"/>
<circle cx="323" cy="170" r="9" fill="#B0B0B0"/>
<path d="M320.447 175V173.684H322.435V167.832H320.797V166.824C321.236 166.74 321.618 166.642 321.945 166.53C322.272 166.409 322.575 166.264 322.855 166.096H324.059V173.684H325.809V175H320.447Z" fill="white"/>
<circle cx="439" cy="170" r="9" fill="#B0B0B0"/>
<path d="M435.943 175V174.062C436.774 173.259 437.488 172.545 438.085 171.92C438.692 171.285 439.158 170.711 439.485 170.198C439.812 169.675 439.975 169.19 439.975 168.742C439.975 168.275 439.849 167.902 439.597 167.622C439.345 167.342 438.981 167.202 438.505 167.202C438.16 167.202 437.842 167.3 437.553 167.496C437.273 167.692 437.012 167.925 436.769 168.196L435.873 167.3C436.284 166.861 436.708 166.525 437.147 166.292C437.586 166.049 438.108 165.928 438.715 165.928C439.574 165.928 440.255 166.175 440.759 166.67C441.272 167.165 441.529 167.827 441.529 168.658C441.529 169.181 441.38 169.717 441.081 170.268C440.792 170.809 440.4 171.365 439.905 171.934C439.42 172.503 438.883 173.101 438.295 173.726C438.528 173.707 438.78 173.689 439.051 173.67C439.322 173.642 439.564 173.628 439.779 173.628H441.963V175H435.943Z" fill="white"/>
<circle cx="306" cy="50" r="9" fill="#B0B0B0"/>
<path d="M305.771 55.168C305.052 55.168 304.446 55.0467 303.951 54.804C303.466 54.552 303.064 54.2533 302.747 53.908L303.517 52.872C303.788 53.1427 304.096 53.376 304.441 53.572C304.786 53.7587 305.183 53.852 305.631 53.852C306.116 53.852 306.508 53.7353 306.807 53.502C307.115 53.2593 307.269 52.928 307.269 52.508C307.269 52.2 307.19 51.934 307.031 51.71C306.882 51.4767 306.616 51.2993 306.233 51.178C305.86 51.0567 305.332 50.996 304.651 50.996V49.82C305.528 49.82 306.135 49.6847 306.471 49.414C306.807 49.1433 306.975 48.8027 306.975 48.392C306.975 48.0187 306.858 47.7293 306.625 47.524C306.392 47.3093 306.07 47.202 305.659 47.202C305.314 47.202 304.996 47.2813 304.707 47.44C304.418 47.5893 304.138 47.79 303.867 48.042L303.041 47.048C303.424 46.712 303.83 46.4413 304.259 46.236C304.698 46.0307 305.183 45.928 305.715 45.928C306.574 45.928 307.269 46.1333 307.801 46.544C308.333 46.9453 308.599 47.524 308.599 48.28C308.599 48.7747 308.459 49.1947 308.179 49.54C307.908 49.876 307.53 50.1373 307.045 50.324V50.38C307.568 50.52 308.006 50.7767 308.361 51.15C308.716 51.5233 308.893 52.004 308.893 52.592C308.893 53.1333 308.748 53.5953 308.459 53.978C308.179 54.3607 307.801 54.6547 307.325 54.86C306.858 55.0653 306.34 55.168 305.771 55.168Z" fill="white"/>
<circle cx="380" cy="50" r="9" fill="#B0B0B0"/>
<path d="M378.259 51.458H380.597V49.442C380.597 49.1807 380.606 48.8727 380.625 48.518C380.644 48.1633 380.658 47.8553 380.667 47.594H380.611C380.499 47.8273 380.382 48.056 380.261 48.28C380.14 48.504 380.014 48.7373 379.883 48.98L378.259 51.458ZM380.597 55V52.704H376.663V51.612L380.191 46.096H382.109V51.458H383.229V52.704H382.109V55H380.597Z" fill="white"/>
<defs>
<linearGradient id="paint0_linear_1680_1853" x1="381" y1="128" x2="381" y2="92" gradientUnits="userSpaceOnUse">
<stop stop-color="#1990EA"/>
<stop offset="1" stop-color="#1991EB"/>
<stop offset="1" stop-color="#2EA1F8"/>
</linearGradient>
</defs>
</svg>
