<svg width="762" height="232" viewBox="0 0 762 232" fill="none" xmlns="http://www.w3.org/2000/svg">
<rect width="762" height="232" rx="5" fill="#FAFAFA"/>
<rect x="298" y="108" width="164" height="36" rx="4" fill="url(#paint0_linear_1683_1855)"/>
<circle cx="322" cy="126.5" r="9" fill="white"/>
<path d="M321.306 129.916V126.892H318.442V125.548H321.306V122.524H322.698V125.548H325.562V126.892H322.698V129.916H321.306Z" fill="#1A91EB"/>
<path d="M356.949 130.5V121.344H359.833C360.514 121.344 361.121 121.433 361.653 121.61C362.185 121.787 362.605 122.081 362.913 122.492C363.221 122.903 363.375 123.463 363.375 124.172C363.375 124.844 363.221 125.399 362.913 125.838C362.605 126.277 362.19 126.603 361.667 126.818C361.144 127.033 360.552 127.14 359.889 127.14H358.573V130.5H356.949ZM358.573 125.838H359.763C361.107 125.838 361.779 125.283 361.779 124.172C361.779 123.593 361.602 123.197 361.247 122.982C360.902 122.758 360.388 122.646 359.707 122.646H358.573V125.838ZM364.958 130.5V123.626H366.288L366.4 124.844H366.456C366.698 124.396 366.992 124.055 367.338 123.822C367.683 123.579 368.038 123.458 368.402 123.458C368.728 123.458 368.99 123.505 369.186 123.598L368.906 124.998C368.784 124.961 368.672 124.933 368.57 124.914C368.467 124.895 368.341 124.886 368.192 124.886C367.921 124.886 367.636 124.993 367.338 125.208C367.039 125.413 366.782 125.777 366.568 126.3V130.5H364.958ZM370.18 130.5V123.626H371.79V130.5H370.18ZM370.992 122.422C370.703 122.422 370.47 122.338 370.292 122.17C370.115 122.002 370.026 121.778 370.026 121.498C370.026 121.227 370.115 121.008 370.292 120.84C370.47 120.672 370.703 120.588 370.992 120.588C371.282 120.588 371.515 120.672 371.692 120.84C371.87 121.008 371.958 121.227 371.958 121.498C371.958 121.778 371.87 122.002 371.692 122.17C371.515 122.338 371.282 122.422 370.992 122.422ZM373.844 130.5V123.626H375.174L375.286 124.564H375.342C375.632 124.256 375.944 123.995 376.28 123.78C376.626 123.565 377.013 123.458 377.442 123.458C377.946 123.458 378.348 123.57 378.646 123.794C378.954 124.009 379.188 124.307 379.346 124.69C379.673 124.335 380.014 124.041 380.368 123.808C380.732 123.575 381.129 123.458 381.558 123.458C382.286 123.458 382.823 123.696 383.168 124.172C383.514 124.648 383.686 125.32 383.686 126.188V130.5H382.062V126.398C382.062 125.829 381.974 125.427 381.796 125.194C381.628 124.961 381.367 124.844 381.012 124.844C380.583 124.844 380.102 125.129 379.57 125.698V130.5H377.96V126.398C377.96 125.829 377.872 125.427 377.694 125.194C377.526 124.961 377.26 124.844 376.896 124.844C376.467 124.844 375.986 125.129 375.454 125.698V130.5H373.844ZM387.309 130.668C386.712 130.668 386.222 130.481 385.839 130.108C385.466 129.735 385.279 129.249 385.279 128.652C385.279 127.915 385.601 127.345 386.245 126.944C386.889 126.533 387.916 126.253 389.325 126.104C389.316 125.74 389.218 125.427 389.031 125.166C388.854 124.895 388.532 124.76 388.065 124.76C387.729 124.76 387.398 124.825 387.071 124.956C386.754 125.087 386.441 125.245 386.133 125.432L385.545 124.354C385.928 124.111 386.357 123.901 386.833 123.724C387.318 123.547 387.832 123.458 388.373 123.458C389.232 123.458 389.871 123.715 390.291 124.228C390.72 124.732 390.935 125.465 390.935 126.426V130.5H389.605L389.493 129.744H389.437C389.129 130.005 388.798 130.225 388.443 130.402C388.098 130.579 387.72 130.668 387.309 130.668ZM387.827 129.408C388.107 129.408 388.359 129.343 388.583 129.212C388.816 129.072 389.064 128.885 389.325 128.652V127.112C388.392 127.233 387.743 127.415 387.379 127.658C387.015 127.891 386.833 128.181 386.833 128.526C386.833 128.834 386.926 129.058 387.113 129.198C387.3 129.338 387.538 129.408 387.827 129.408ZM392.862 130.5V123.626H394.192L394.304 124.844H394.36C394.603 124.396 394.897 124.055 395.242 123.822C395.587 123.579 395.942 123.458 396.306 123.458C396.633 123.458 396.894 123.505 397.09 123.598L396.81 124.998C396.689 124.961 396.577 124.933 396.474 124.914C396.371 124.895 396.245 124.886 396.096 124.886C395.825 124.886 395.541 124.993 395.242 125.208C394.943 125.413 394.687 125.777 394.472 126.3V130.5H392.862ZM398.765 133.328C398.579 133.328 398.415 133.314 398.275 133.286C398.135 133.258 398 133.225 397.869 133.188L398.163 131.928C398.229 131.947 398.303 131.965 398.387 131.984C398.481 132.012 398.569 132.026 398.653 132.026C399.017 132.026 399.307 131.914 399.521 131.69C399.745 131.475 399.913 131.195 400.025 130.85L400.151 130.416L397.449 123.626H399.087L400.277 127C400.38 127.299 400.478 127.616 400.571 127.952C400.674 128.279 400.777 128.605 400.879 128.932H400.935C401.019 128.615 401.103 128.293 401.187 127.966C401.281 127.63 401.369 127.308 401.453 127L402.489 123.626H404.043L401.551 130.808C401.262 131.583 400.912 132.194 400.501 132.642C400.091 133.099 399.512 133.328 398.765 133.328Z" fill="white"/>
<circle cx="438" cy="126.5" r="9" fill="white"/>
<path d="M437.306 129.916V126.892H434.442V125.548H437.306V122.524H438.698V125.548H441.562V126.892H438.698V129.916H437.306Z" fill="#1A91EB"/>
<rect x="322" y="163" width="116" height="22" rx="11" fill="#D9D9D9"/>
<path d="M337.947 171.788C337.907 171.856 337.865 171.906 337.821 171.938C337.777 171.97 337.721 171.986 337.653 171.986C337.581 171.986 337.499 171.954 337.407 171.89C337.315 171.822 337.199 171.748 337.059 171.668C336.923 171.584 336.759 171.51 336.567 171.446C336.375 171.378 336.145 171.344 335.877 171.344C335.625 171.344 335.403 171.378 335.211 171.446C335.023 171.51 334.865 171.6 334.737 171.716C334.609 171.828 334.511 171.962 334.443 172.118C334.379 172.27 334.347 172.436 334.347 172.616C334.347 172.848 334.405 173.04 334.521 173.192C334.641 173.344 334.797 173.474 334.989 173.582C335.181 173.69 335.399 173.784 335.643 173.864C335.887 173.944 336.137 174.028 336.393 174.116C336.649 174.2 336.899 174.298 337.143 174.41C337.387 174.522 337.605 174.664 337.797 174.836C337.989 175.004 338.143 175.212 338.259 175.46C338.379 175.704 338.439 176.004 338.439 176.36C338.439 176.74 338.373 177.096 338.241 177.428C338.113 177.76 337.925 178.05 337.677 178.298C337.429 178.546 337.123 178.742 336.759 178.886C336.399 179.026 335.989 179.096 335.529 179.096C335.253 179.096 334.985 179.068 334.725 179.012C334.465 178.96 334.219 178.886 333.987 178.79C333.755 178.69 333.537 178.572 333.333 178.436C333.133 178.296 332.953 178.14 332.793 177.968L333.159 177.356C333.195 177.308 333.237 177.268 333.285 177.236C333.337 177.204 333.395 177.188 333.459 177.188C333.543 177.188 333.639 177.232 333.747 177.32C333.859 177.408 333.995 177.506 334.155 177.614C334.319 177.718 334.513 177.814 334.737 177.902C334.965 177.99 335.241 178.034 335.565 178.034C335.829 178.034 336.065 178 336.273 177.932C336.481 177.86 336.655 177.76 336.795 177.632C336.939 177.5 337.049 177.342 337.125 177.158C337.201 176.974 337.239 176.77 337.239 176.546C337.239 176.294 337.181 176.088 337.065 175.928C336.949 175.768 336.795 175.634 336.603 175.526C336.411 175.418 336.193 175.326 335.949 175.25C335.705 175.174 335.455 175.096 335.199 175.016C334.943 174.932 334.693 174.836 334.449 174.728C334.205 174.62 333.987 174.48 333.795 174.308C333.603 174.132 333.449 173.914 333.333 173.654C333.217 173.39 333.159 173.066 333.159 172.682C333.159 172.374 333.219 172.076 333.339 171.788C333.459 171.5 333.633 171.246 333.861 171.026C334.093 170.802 334.377 170.624 334.713 170.492C335.049 170.356 335.433 170.288 335.865 170.288C336.349 170.288 336.793 170.366 337.197 170.522C337.605 170.674 337.959 170.894 338.259 171.182L337.947 171.788ZM340.817 177.5C341.009 177.752 341.215 177.928 341.435 178.028C341.659 178.128 341.909 178.178 342.185 178.178C342.721 178.178 343.135 177.986 343.427 177.602C343.723 177.214 343.871 176.65 343.871 175.91C343.871 175.522 343.837 175.192 343.769 174.92C343.705 174.644 343.609 174.42 343.481 174.248C343.357 174.072 343.203 173.944 343.019 173.864C342.835 173.78 342.627 173.738 342.395 173.738C342.055 173.738 341.759 173.814 341.507 173.966C341.259 174.118 341.029 174.334 340.817 174.614V177.5ZM340.757 173.816C340.885 173.664 341.021 173.526 341.165 173.402C341.313 173.274 341.471 173.166 341.639 173.078C341.807 172.986 341.985 172.916 342.173 172.868C342.365 172.816 342.569 172.79 342.785 172.79C343.133 172.79 343.447 172.858 343.727 172.994C344.011 173.13 344.253 173.33 344.453 173.594C344.653 173.858 344.807 174.184 344.915 174.572C345.027 174.96 345.083 175.406 345.083 175.91C345.083 176.362 345.021 176.782 344.897 177.17C344.777 177.554 344.603 177.888 344.375 178.172C344.151 178.456 343.875 178.68 343.547 178.844C343.223 179.004 342.857 179.084 342.449 179.084C342.085 179.084 341.773 179.024 341.513 178.904C341.253 178.784 341.021 178.616 340.817 178.4V181.046H339.647V172.904H340.349C340.513 172.904 340.615 172.982 340.655 173.138L340.757 173.816ZM349.673 176.294C349.197 176.31 348.793 176.348 348.461 176.408C348.129 176.464 347.859 176.54 347.651 176.636C347.443 176.732 347.293 176.846 347.201 176.978C347.109 177.106 347.063 177.25 347.063 177.41C347.063 177.562 347.087 177.694 347.135 177.806C347.187 177.914 347.255 178.004 347.339 178.076C347.427 178.144 347.529 178.194 347.645 178.226C347.761 178.258 347.887 178.274 348.023 178.274C348.203 178.274 348.367 178.256 348.515 178.22C348.667 178.184 348.809 178.134 348.941 178.07C349.073 178.002 349.199 177.92 349.319 177.824C349.439 177.728 349.557 177.618 349.673 177.494V176.294ZM346.241 173.756C346.581 173.432 346.949 173.19 347.345 173.03C347.745 172.87 348.183 172.79 348.659 172.79C349.007 172.79 349.315 172.848 349.583 172.964C349.851 173.076 350.077 173.234 350.261 173.438C350.445 173.642 350.583 173.886 350.675 174.17C350.771 174.454 350.819 174.768 350.819 175.112V179H350.297C350.181 179 350.093 178.982 350.033 178.946C349.973 178.906 349.925 178.834 349.889 178.73L349.763 178.196C349.607 178.34 349.453 178.468 349.301 178.58C349.149 178.688 348.989 178.782 348.821 178.862C348.657 178.938 348.481 178.996 348.293 179.036C348.105 179.076 347.897 179.096 347.669 179.096C347.429 179.096 347.203 179.064 346.991 179C346.783 178.932 346.601 178.83 346.445 178.694C346.289 178.558 346.165 178.388 346.073 178.184C345.985 177.98 345.941 177.742 345.941 177.47C345.941 177.23 346.005 177 346.133 176.78C346.265 176.556 346.477 176.356 346.769 176.18C347.065 176.004 347.449 175.86 347.921 175.748C348.397 175.636 348.981 175.572 349.673 175.556V175.112C349.673 174.652 349.575 174.308 349.379 174.08C349.183 173.852 348.895 173.738 348.515 173.738C348.259 173.738 348.043 173.77 347.867 173.834C347.695 173.898 347.545 173.97 347.417 174.05C347.293 174.126 347.183 174.196 347.087 174.26C346.995 174.324 346.899 174.356 346.799 174.356C346.719 174.356 346.649 174.334 346.589 174.29C346.533 174.246 346.487 174.194 346.451 174.134L346.241 173.756ZM356.658 174.044C356.622 174.088 356.586 174.124 356.55 174.152C356.518 174.176 356.47 174.188 356.406 174.188C356.342 174.188 356.274 174.164 356.202 174.116C356.134 174.064 356.046 174.01 355.938 173.954C355.834 173.894 355.706 173.84 355.554 173.792C355.406 173.74 355.222 173.714 355.002 173.714C354.714 173.714 354.46 173.766 354.24 173.87C354.02 173.974 353.836 174.122 353.688 174.314C353.544 174.506 353.434 174.74 353.358 175.016C353.282 175.292 353.244 175.602 353.244 175.946C353.244 176.302 353.284 176.62 353.364 176.9C353.444 177.176 353.558 177.41 353.706 177.602C353.854 177.79 354.034 177.934 354.246 178.034C354.458 178.13 354.694 178.178 354.954 178.178C355.206 178.178 355.414 178.148 355.578 178.088C355.742 178.024 355.878 177.956 355.986 177.884C356.094 177.812 356.184 177.746 356.256 177.686C356.328 177.622 356.402 177.59 356.478 177.59C356.574 177.59 356.648 177.626 356.7 177.698L357.036 178.13C356.896 178.302 356.738 178.448 356.562 178.568C356.39 178.688 356.206 178.786 356.01 178.862C355.814 178.938 355.608 178.994 355.392 179.03C355.18 179.066 354.964 179.084 354.744 179.084C354.364 179.084 354.008 179.014 353.676 178.874C353.348 178.734 353.062 178.53 352.818 178.262C352.578 177.994 352.388 177.666 352.248 177.278C352.108 176.886 352.038 176.442 352.038 175.946C352.038 175.494 352.1 175.076 352.224 174.692C352.352 174.308 352.538 173.978 352.782 173.702C353.03 173.422 353.334 173.204 353.694 173.048C354.054 172.888 354.466 172.808 354.93 172.808C355.366 172.808 355.75 172.878 356.082 173.018C356.414 173.158 356.71 173.356 356.97 173.612L356.658 174.044ZM362.06 175.274C362.06 175.042 362.026 174.828 361.958 174.632C361.894 174.436 361.798 174.266 361.67 174.122C361.542 173.978 361.386 173.866 361.202 173.786C361.018 173.706 360.806 173.666 360.566 173.666C360.074 173.666 359.686 173.808 359.402 174.092C359.122 174.376 358.944 174.77 358.868 175.274H362.06ZM363.026 178.13C362.882 178.298 362.716 178.444 362.528 178.568C362.34 178.688 362.14 178.786 361.928 178.862C361.716 178.938 361.496 178.994 361.268 179.03C361.044 179.066 360.822 179.084 360.602 179.084C360.182 179.084 359.792 179.014 359.432 178.874C359.076 178.73 358.766 178.522 358.502 178.25C358.242 177.974 358.038 177.634 357.89 177.23C357.746 176.822 357.674 176.354 357.674 175.826C357.674 175.402 357.74 175.008 357.872 174.644C358.004 174.276 358.192 173.956 358.436 173.684C358.684 173.412 358.986 173.198 359.342 173.042C359.698 172.886 360.098 172.808 360.542 172.808C360.914 172.808 361.256 172.87 361.568 172.994C361.884 173.114 362.156 173.29 362.384 173.522C362.612 173.754 362.79 174.04 362.918 174.38C363.05 174.72 363.116 175.108 363.116 175.544C363.116 175.724 363.096 175.846 363.056 175.91C363.016 175.97 362.942 176 362.834 176H358.838C358.85 176.364 358.902 176.682 358.994 176.954C359.086 177.222 359.212 177.446 359.372 177.626C359.536 177.806 359.73 177.94 359.954 178.028C360.178 178.116 360.428 178.16 360.704 178.16C360.964 178.16 361.188 178.13 361.376 178.07C361.568 178.01 361.732 177.946 361.868 177.878C362.008 177.806 362.124 177.74 362.216 177.68C362.312 177.62 362.396 177.59 362.468 177.59C362.564 177.59 362.638 177.626 362.69 177.698L363.026 178.13Z" fill="black"/>
<path d="M403.884 177.63V178H400.234V177.63H401.859V171.89C401.859 171.777 401.864 171.657 401.874 171.53L400.314 172.915C400.267 172.955 400.221 172.97 400.174 172.96C400.127 172.95 400.091 172.93 400.064 172.9L399.919 172.7L401.964 170.895H402.339V177.63H403.884ZM409.67 177.55C409.723 177.55 409.765 177.567 409.795 177.6C409.825 177.63 409.84 177.67 409.84 177.72V178H405.275V177.83C405.275 177.793 405.283 177.757 405.3 177.72C405.32 177.68 405.345 177.647 405.375 177.62L407.79 175.175C407.99 174.972 408.175 174.775 408.345 174.585C408.515 174.395 408.661 174.203 408.785 174.01C408.911 173.817 409.01 173.618 409.08 173.415C409.15 173.212 409.185 172.995 409.185 172.765C409.185 172.505 409.141 172.28 409.055 172.09C408.968 171.897 408.853 171.738 408.71 171.615C408.566 171.492 408.4 171.4 408.21 171.34C408.02 171.28 407.823 171.25 407.62 171.25C407.396 171.25 407.19 171.285 407 171.355C406.813 171.422 406.646 171.517 406.5 171.64C406.356 171.76 406.236 171.905 406.14 172.075C406.046 172.242 405.981 172.425 405.945 172.625C405.921 172.698 405.89 172.747 405.85 172.77C405.813 172.793 405.761 172.802 405.695 172.795L405.45 172.755C405.493 172.452 405.576 172.182 405.7 171.945C405.823 171.708 405.98 171.508 406.17 171.345C406.36 171.182 406.58 171.058 406.83 170.975C407.08 170.888 407.35 170.845 407.64 170.845C407.91 170.845 408.166 170.885 408.41 170.965C408.656 171.042 408.873 171.16 409.06 171.32C409.25 171.477 409.4 171.675 409.51 171.915C409.62 172.152 409.675 172.43 409.675 172.75C409.675 173.017 409.633 173.265 409.55 173.495C409.47 173.722 409.36 173.94 409.22 174.15C409.08 174.36 408.916 174.565 408.73 174.765C408.546 174.962 408.353 175.163 408.15 175.37L405.935 177.63C406.041 177.603 406.151 177.583 406.265 177.57C406.381 177.557 406.498 177.55 406.615 177.55H409.67ZM411.8 176.915C411.897 177.058 411.997 177.18 412.1 177.28C412.207 177.377 412.319 177.457 412.435 177.52C412.552 177.58 412.675 177.623 412.805 177.65C412.939 177.677 413.079 177.69 413.225 177.69C413.519 177.69 413.775 177.637 413.995 177.53C414.215 177.423 414.399 177.273 414.545 177.08C414.695 176.883 414.807 176.65 414.88 176.38C414.957 176.107 414.995 175.807 414.995 175.48C414.995 174.74 414.859 174.197 414.585 173.85C414.312 173.5 413.92 173.325 413.41 173.325C413.08 173.325 412.782 173.41 412.515 173.58C412.249 173.75 412.01 173.987 411.8 174.29V176.915ZM411.78 173.92C412 173.62 412.257 173.382 412.55 173.205C412.847 173.028 413.179 172.94 413.545 172.94C414.155 172.94 414.63 173.152 414.97 173.575C415.314 173.998 415.485 174.633 415.485 175.48C415.485 175.843 415.437 176.183 415.34 176.5C415.247 176.813 415.107 177.087 414.92 177.32C414.737 177.55 414.51 177.732 414.24 177.865C413.974 177.998 413.665 178.065 413.315 178.065C412.979 178.065 412.687 178.003 412.44 177.88C412.194 177.757 411.98 177.575 411.8 177.335V179.76H411.32V173.025H411.585C411.669 173.025 411.717 173.067 411.73 173.15L411.78 173.92ZM420.293 178H419.838C419.791 178 419.754 177.987 419.728 177.96C419.701 177.93 419.679 177.902 419.663 177.875L418.153 175.67C418.139 175.73 418.114 175.788 418.078 175.845L416.638 177.875C416.614 177.905 416.589 177.933 416.563 177.96C416.539 177.987 416.508 178 416.468 178H416.038L417.848 175.455L416.108 173.025H416.563C416.609 173.025 416.644 173.035 416.668 173.055C416.691 173.075 416.711 173.098 416.728 173.125L418.188 175.23C418.194 175.203 418.204 175.175 418.218 175.145C418.234 175.115 418.251 175.085 418.268 175.055L419.633 173.13C419.653 173.1 419.674 173.075 419.698 173.055C419.721 173.035 419.751 173.025 419.788 173.025H420.223L418.488 175.425L420.293 178Z" fill="black"/>
<rect x="336" y="67" width="89" height="22" rx="11" fill="#D9D9D9"/>
<path d="M350.936 75.452H348.2V83H346.928V75.452H344.18V74.384H350.936V75.452ZM353.112 76.904V83H351.942V76.904H353.112ZM353.334 75.02C353.334 75.128 353.312 75.232 353.268 75.332C353.224 75.428 353.164 75.514 353.088 75.59C353.016 75.662 352.93 75.72 352.83 75.764C352.73 75.804 352.626 75.824 352.518 75.824C352.41 75.824 352.308 75.804 352.212 75.764C352.116 75.72 352.03 75.662 351.954 75.59C351.882 75.514 351.824 75.428 351.78 75.332C351.74 75.232 351.72 75.128 351.72 75.02C351.72 74.908 351.74 74.804 351.78 74.708C351.824 74.608 351.882 74.522 351.954 74.45C352.03 74.374 352.116 74.316 352.212 74.276C352.308 74.232 352.41 74.21 352.518 74.21C352.626 74.21 352.73 74.232 352.83 74.276C352.93 74.316 353.016 74.374 353.088 74.45C353.164 74.522 353.224 74.608 353.268 74.708C353.312 74.804 353.334 74.908 353.334 75.02ZM356.714 83.096C356.222 83.096 355.842 82.958 355.574 82.682C355.31 82.406 355.178 82.012 355.178 81.5V77.852H354.47C354.402 77.852 354.344 77.832 354.296 77.792C354.252 77.748 354.23 77.684 354.23 77.6V77.126L355.22 76.988L355.484 75.17C355.5 75.102 355.53 75.05 355.574 75.014C355.622 74.974 355.682 74.954 355.754 74.954H356.348V77H358.076V77.852H356.348V81.422C356.348 81.662 356.406 81.842 356.522 81.962C356.642 82.078 356.794 82.136 356.978 82.136C357.086 82.136 357.178 82.122 357.254 82.094C357.334 82.066 357.402 82.036 357.458 82.004C357.514 81.968 357.562 81.936 357.602 81.908C357.642 81.88 357.678 81.866 357.71 81.866C357.75 81.866 357.78 81.876 357.8 81.896C357.824 81.912 357.848 81.94 357.872 81.98L358.22 82.544C358.028 82.72 357.8 82.856 357.536 82.952C357.272 83.048 356.998 83.096 356.714 83.096ZM360.354 74.144V83H359.178V74.144H360.354ZM366.063 79.274C366.063 79.042 366.029 78.828 365.961 78.632C365.897 78.436 365.801 78.266 365.673 78.122C365.545 77.978 365.389 77.866 365.205 77.786C365.021 77.706 364.809 77.666 364.569 77.666C364.077 77.666 363.689 77.808 363.405 78.092C363.125 78.376 362.947 78.77 362.871 79.274H366.063ZM367.029 82.13C366.885 82.298 366.719 82.444 366.531 82.568C366.343 82.688 366.143 82.786 365.931 82.862C365.719 82.938 365.499 82.994 365.271 83.03C365.047 83.066 364.825 83.084 364.605 83.084C364.185 83.084 363.795 83.014 363.435 82.874C363.079 82.73 362.769 82.522 362.505 82.25C362.245 81.974 362.041 81.634 361.893 81.23C361.749 80.822 361.677 80.354 361.677 79.826C361.677 79.402 361.743 79.008 361.875 78.644C362.007 78.276 362.195 77.956 362.439 77.684C362.687 77.412 362.989 77.198 363.345 77.042C363.701 76.886 364.101 76.808 364.545 76.808C364.917 76.808 365.259 76.87 365.571 76.994C365.887 77.114 366.159 77.29 366.387 77.522C366.615 77.754 366.793 78.04 366.921 78.38C367.053 78.72 367.119 79.108 367.119 79.544C367.119 79.724 367.099 79.846 367.059 79.91C367.019 79.97 366.945 80 366.837 80H362.841C362.853 80.364 362.905 80.682 362.997 80.954C363.089 81.222 363.215 81.446 363.375 81.626C363.539 81.806 363.733 81.94 363.957 82.028C364.181 82.116 364.431 82.16 364.707 82.16C364.967 82.16 365.191 82.13 365.379 82.07C365.571 82.01 365.735 81.946 365.871 81.878C366.011 81.806 366.127 81.74 366.219 81.68C366.315 81.62 366.399 81.59 366.471 81.59C366.567 81.59 366.641 81.626 366.693 81.698L367.029 82.13Z" fill="black"/>
<path d="M399.985 81.63V82H396.335V81.63H397.96V75.89C397.96 75.7767 397.965 75.6567 397.975 75.53L396.415 76.915C396.368 76.955 396.322 76.97 396.275 76.96C396.228 76.95 396.192 76.93 396.165 76.9L396.02 76.7L398.065 74.895H398.44V81.63H399.985ZM403.701 81.7C403.971 81.7 404.216 81.6633 404.436 81.59C404.659 81.5133 404.851 81.4067 405.011 81.27C405.171 81.13 405.294 80.9633 405.381 80.77C405.467 80.5767 405.511 80.3617 405.511 80.125C405.511 79.815 405.454 79.5567 405.341 79.35C405.227 79.1433 405.082 78.9783 404.906 78.855C404.729 78.7317 404.534 78.645 404.321 78.595C404.107 78.5417 403.901 78.515 403.701 78.515C403.501 78.515 403.294 78.5417 403.081 78.595C402.867 78.645 402.672 78.7317 402.496 78.855C402.319 78.9783 402.174 79.1433 402.061 79.35C401.947 79.5567 401.891 79.815 401.891 80.125C401.891 80.3617 401.934 80.5767 402.021 80.77C402.107 80.9633 402.229 81.13 402.386 81.27C402.546 81.4067 402.737 81.5133 402.961 81.59C403.184 81.6633 403.431 81.7 403.701 81.7ZM402.121 76.655C402.121 76.845 402.151 77.0283 402.211 77.205C402.274 77.3817 402.371 77.54 402.501 77.68C402.631 77.8167 402.794 77.9267 402.991 78.01C403.191 78.09 403.427 78.13 403.701 78.13C403.971 78.13 404.204 78.09 404.401 78.01C404.601 77.9267 404.766 77.8167 404.896 77.68C405.026 77.54 405.121 77.3817 405.181 77.205C405.244 77.0283 405.276 76.845 405.276 76.655C405.276 76.4517 405.241 76.2633 405.171 76.09C405.101 75.9133 404.997 75.76 404.861 75.63C404.727 75.5 404.562 75.3983 404.366 75.325C404.172 75.2517 403.951 75.215 403.701 75.215C403.451 75.215 403.227 75.2517 403.031 75.325C402.834 75.3983 402.667 75.5 402.531 75.63C402.397 75.76 402.296 75.9133 402.226 76.09C402.156 76.2633 402.121 76.4517 402.121 76.655ZM404.456 78.305C404.682 78.355 404.889 78.43 405.076 78.53C405.266 78.63 405.429 78.755 405.566 78.905C405.702 79.055 405.809 79.2317 405.886 79.435C405.962 79.6383 406.001 79.87 406.001 80.13C406.001 80.43 405.944 80.7 405.831 80.94C405.717 81.18 405.559 81.385 405.356 81.555C405.156 81.725 404.914 81.855 404.631 81.945C404.351 82.035 404.041 82.08 403.701 82.08C403.361 82.08 403.049 82.035 402.766 81.945C402.486 81.855 402.244 81.725 402.041 81.555C401.841 81.385 401.684 81.18 401.571 80.94C401.457 80.7 401.401 80.43 401.401 80.13C401.401 79.87 401.439 79.6383 401.516 79.435C401.592 79.2317 401.697 79.055 401.831 78.905C401.967 78.755 402.129 78.63 402.316 78.53C402.506 78.43 402.714 78.355 402.941 78.305C402.734 78.245 402.551 78.1633 402.391 78.06C402.231 77.9567 402.096 77.8333 401.986 77.69C401.879 77.5467 401.797 77.3883 401.741 77.215C401.684 77.0383 401.656 76.85 401.656 76.65C401.656 76.4 401.702 76.165 401.796 75.945C401.892 75.725 402.029 75.5333 402.206 75.37C402.382 75.2067 402.596 75.0783 402.846 74.985C403.099 74.8917 403.384 74.845 403.701 74.845C404.014 74.845 404.296 74.8917 404.546 74.985C404.799 75.0783 405.014 75.2067 405.191 75.37C405.371 75.5333 405.507 75.725 405.601 75.945C405.697 76.165 405.746 76.4 405.746 76.65C405.746 76.85 405.717 77.0383 405.661 77.215C405.604 77.3883 405.521 77.5467 405.411 77.69C405.301 77.83 405.166 77.9533 405.006 78.06C404.846 78.1633 404.662 78.245 404.456 78.305ZM407.902 80.915C407.998 81.0583 408.098 81.18 408.202 81.28C408.308 81.3767 408.42 81.4567 408.537 81.52C408.653 81.58 408.777 81.6233 408.907 81.65C409.04 81.6767 409.18 81.69 409.327 81.69C409.62 81.69 409.877 81.6367 410.097 81.53C410.317 81.4233 410.5 81.2733 410.647 81.08C410.797 80.8833 410.908 80.65 410.982 80.38C411.058 80.1067 411.097 79.8067 411.097 79.48C411.097 78.74 410.96 78.1967 410.687 77.85C410.413 77.5 410.022 77.325 409.512 77.325C409.182 77.325 408.883 77.41 408.617 77.58C408.35 77.75 408.112 77.9867 407.902 78.29V80.915ZM407.882 77.92C408.102 77.62 408.358 77.3817 408.652 77.205C408.948 77.0283 409.28 76.94 409.647 76.94C410.257 76.94 410.732 77.1517 411.072 77.575C411.415 77.9983 411.587 78.6333 411.587 79.48C411.587 79.8433 411.538 80.1833 411.442 80.5C411.348 80.8133 411.208 81.0867 411.022 81.32C410.838 81.55 410.612 81.7317 410.342 81.865C410.075 81.9983 409.767 82.065 409.417 82.065C409.08 82.065 408.788 82.0033 408.542 81.88C408.295 81.7567 408.082 81.575 407.902 81.335V83.76H407.422V77.025H407.687C407.77 77.025 407.818 77.0667 407.832 77.15L407.882 77.92ZM416.394 82H415.939C415.892 82 415.855 81.9867 415.829 81.96C415.802 81.93 415.78 81.9017 415.764 81.875L414.254 79.67C414.24 79.73 414.215 79.7883 414.179 79.845L412.739 81.875C412.715 81.905 412.69 81.9333 412.664 81.96C412.64 81.9867 412.609 82 412.569 82H412.139L413.949 79.455L412.209 77.025H412.664C412.71 77.025 412.745 77.035 412.769 77.055C412.792 77.075 412.812 77.0983 412.829 77.125L414.289 79.23C414.295 79.2033 414.305 79.175 414.319 79.145C414.335 79.115 414.352 79.085 414.369 79.055L415.734 77.13C415.754 77.1 415.775 77.075 415.799 77.055C415.822 77.035 415.852 77.025 415.889 77.025H416.324L414.589 79.425L416.394 82Z" fill="black"/>
<rect x="336" y="35" width="89" height="22" rx="11" fill="#D9D9D9"/>
<path d="M349.52 43.788C349.48 43.856 349.438 43.906 349.394 43.938C349.35 43.97 349.294 43.986 349.226 43.986C349.154 43.986 349.072 43.954 348.98 43.89C348.888 43.822 348.772 43.748 348.632 43.668C348.496 43.584 348.332 43.51 348.14 43.446C347.948 43.378 347.718 43.344 347.45 43.344C347.198 43.344 346.976 43.378 346.784 43.446C346.596 43.51 346.438 43.6 346.31 43.716C346.182 43.828 346.084 43.962 346.016 44.118C345.952 44.27 345.92 44.436 345.92 44.616C345.92 44.848 345.978 45.04 346.094 45.192C346.214 45.344 346.37 45.474 346.562 45.582C346.754 45.69 346.972 45.784 347.216 45.864C347.46 45.944 347.71 46.028 347.966 46.116C348.222 46.2 348.472 46.298 348.716 46.41C348.96 46.522 349.178 46.664 349.37 46.836C349.562 47.004 349.716 47.212 349.832 47.46C349.952 47.704 350.012 48.004 350.012 48.36C350.012 48.74 349.946 49.096 349.814 49.428C349.686 49.76 349.498 50.05 349.25 50.298C349.002 50.546 348.696 50.742 348.332 50.886C347.972 51.026 347.562 51.096 347.102 51.096C346.826 51.096 346.558 51.068 346.298 51.012C346.038 50.96 345.792 50.886 345.56 50.79C345.328 50.69 345.11 50.572 344.906 50.436C344.706 50.296 344.526 50.14 344.366 49.968L344.732 49.356C344.768 49.308 344.81 49.268 344.858 49.236C344.91 49.204 344.968 49.188 345.032 49.188C345.116 49.188 345.212 49.232 345.32 49.32C345.432 49.408 345.568 49.506 345.728 49.614C345.892 49.718 346.086 49.814 346.31 49.902C346.538 49.99 346.814 50.034 347.138 50.034C347.402 50.034 347.638 50 347.846 49.932C348.054 49.86 348.228 49.76 348.368 49.632C348.512 49.5 348.622 49.342 348.698 49.158C348.774 48.974 348.812 48.77 348.812 48.546C348.812 48.294 348.754 48.088 348.638 47.928C348.522 47.768 348.368 47.634 348.176 47.526C347.984 47.418 347.766 47.326 347.522 47.25C347.278 47.174 347.028 47.096 346.772 47.016C346.516 46.932 346.266 46.836 346.022 46.728C345.778 46.62 345.56 46.48 345.368 46.308C345.176 46.132 345.022 45.914 344.906 45.654C344.79 45.39 344.732 45.066 344.732 44.682C344.732 44.374 344.792 44.076 344.912 43.788C345.032 43.5 345.206 43.246 345.434 43.026C345.666 42.802 345.95 42.624 346.286 42.492C346.622 42.356 347.006 42.288 347.438 42.288C347.922 42.288 348.366 42.366 348.77 42.522C349.178 42.674 349.532 42.894 349.832 43.182L349.52 43.788ZM352.39 49.5C352.582 49.752 352.788 49.928 353.008 50.028C353.232 50.128 353.482 50.178 353.758 50.178C354.294 50.178 354.708 49.986 355 49.602C355.296 49.214 355.444 48.65 355.444 47.91C355.444 47.522 355.41 47.192 355.342 46.92C355.278 46.644 355.182 46.42 355.054 46.248C354.93 46.072 354.776 45.944 354.592 45.864C354.408 45.78 354.2 45.738 353.968 45.738C353.628 45.738 353.332 45.814 353.08 45.966C352.832 46.118 352.602 46.334 352.39 46.614V49.5ZM352.33 45.816C352.458 45.664 352.594 45.526 352.738 45.402C352.886 45.274 353.044 45.166 353.212 45.078C353.38 44.986 353.558 44.916 353.746 44.868C353.938 44.816 354.142 44.79 354.358 44.79C354.706 44.79 355.02 44.858 355.3 44.994C355.584 45.13 355.826 45.33 356.026 45.594C356.226 45.858 356.38 46.184 356.488 46.572C356.6 46.96 356.656 47.406 356.656 47.91C356.656 48.362 356.594 48.782 356.47 49.17C356.35 49.554 356.176 49.888 355.948 50.172C355.724 50.456 355.448 50.68 355.12 50.844C354.796 51.004 354.43 51.084 354.022 51.084C353.658 51.084 353.346 51.024 353.086 50.904C352.826 50.784 352.594 50.616 352.39 50.4V53.046H351.22V44.904H351.922C352.086 44.904 352.188 44.982 352.228 45.138L352.33 45.816ZM361.246 48.294C360.77 48.31 360.366 48.348 360.034 48.408C359.702 48.464 359.432 48.54 359.224 48.636C359.016 48.732 358.866 48.846 358.774 48.978C358.682 49.106 358.636 49.25 358.636 49.41C358.636 49.562 358.66 49.694 358.708 49.806C358.76 49.914 358.828 50.004 358.912 50.076C359 50.144 359.102 50.194 359.218 50.226C359.334 50.258 359.46 50.274 359.596 50.274C359.776 50.274 359.94 50.256 360.088 50.22C360.24 50.184 360.382 50.134 360.514 50.07C360.646 50.002 360.772 49.92 360.892 49.824C361.012 49.728 361.13 49.618 361.246 49.494V48.294ZM357.814 45.756C358.154 45.432 358.522 45.19 358.918 45.03C359.318 44.87 359.756 44.79 360.232 44.79C360.58 44.79 360.888 44.848 361.156 44.964C361.424 45.076 361.65 45.234 361.834 45.438C362.018 45.642 362.156 45.886 362.248 46.17C362.344 46.454 362.392 46.768 362.392 47.112V51H361.87C361.754 51 361.666 50.982 361.606 50.946C361.546 50.906 361.498 50.834 361.462 50.73L361.336 50.196C361.18 50.34 361.026 50.468 360.874 50.58C360.722 50.688 360.562 50.782 360.394 50.862C360.23 50.938 360.054 50.996 359.866 51.036C359.678 51.076 359.47 51.096 359.242 51.096C359.002 51.096 358.776 51.064 358.564 51C358.356 50.932 358.174 50.83 358.018 50.694C357.862 50.558 357.738 50.388 357.646 50.184C357.558 49.98 357.514 49.742 357.514 49.47C357.514 49.23 357.578 49 357.706 48.78C357.838 48.556 358.05 48.356 358.342 48.18C358.638 48.004 359.022 47.86 359.494 47.748C359.97 47.636 360.554 47.572 361.246 47.556V47.112C361.246 46.652 361.148 46.308 360.952 46.08C360.756 45.852 360.468 45.738 360.088 45.738C359.832 45.738 359.616 45.77 359.44 45.834C359.268 45.898 359.118 45.97 358.99 46.05C358.866 46.126 358.756 46.196 358.66 46.26C358.568 46.324 358.472 46.356 358.372 46.356C358.292 46.356 358.222 46.334 358.162 46.29C358.106 46.246 358.06 46.194 358.024 46.134L357.814 45.756ZM368.231 46.044C368.195 46.088 368.159 46.124 368.123 46.152C368.091 46.176 368.043 46.188 367.979 46.188C367.915 46.188 367.847 46.164 367.775 46.116C367.707 46.064 367.619 46.01 367.511 45.954C367.407 45.894 367.279 45.84 367.127 45.792C366.979 45.74 366.795 45.714 366.575 45.714C366.287 45.714 366.033 45.766 365.813 45.87C365.593 45.974 365.409 46.122 365.261 46.314C365.117 46.506 365.007 46.74 364.931 47.016C364.855 47.292 364.817 47.602 364.817 47.946C364.817 48.302 364.857 48.62 364.937 48.9C365.017 49.176 365.131 49.41 365.279 49.602C365.427 49.79 365.607 49.934 365.819 50.034C366.031 50.13 366.267 50.178 366.527 50.178C366.779 50.178 366.987 50.148 367.151 50.088C367.315 50.024 367.451 49.956 367.559 49.884C367.667 49.812 367.757 49.746 367.829 49.686C367.901 49.622 367.975 49.59 368.051 49.59C368.147 49.59 368.221 49.626 368.273 49.698L368.609 50.13C368.469 50.302 368.311 50.448 368.135 50.568C367.963 50.688 367.779 50.786 367.583 50.862C367.387 50.938 367.181 50.994 366.965 51.03C366.753 51.066 366.537 51.084 366.317 51.084C365.937 51.084 365.581 51.014 365.249 50.874C364.921 50.734 364.635 50.53 364.391 50.262C364.151 49.994 363.961 49.666 363.821 49.278C363.681 48.886 363.611 48.442 363.611 47.946C363.611 47.494 363.673 47.076 363.797 46.692C363.925 46.308 364.111 45.978 364.355 45.702C364.603 45.422 364.907 45.204 365.267 45.048C365.627 44.888 366.039 44.808 366.503 44.808C366.939 44.808 367.323 44.878 367.655 45.018C367.987 45.158 368.283 45.356 368.543 45.612L368.231 46.044ZM373.633 47.274C373.633 47.042 373.599 46.828 373.531 46.632C373.467 46.436 373.371 46.266 373.243 46.122C373.115 45.978 372.959 45.866 372.775 45.786C372.591 45.706 372.379 45.666 372.139 45.666C371.647 45.666 371.259 45.808 370.975 46.092C370.695 46.376 370.517 46.77 370.441 47.274H373.633ZM374.599 50.13C374.455 50.298 374.289 50.444 374.101 50.568C373.913 50.688 373.713 50.786 373.501 50.862C373.289 50.938 373.069 50.994 372.841 51.03C372.617 51.066 372.395 51.084 372.175 51.084C371.755 51.084 371.365 51.014 371.005 50.874C370.649 50.73 370.339 50.522 370.075 50.25C369.815 49.974 369.611 49.634 369.463 49.23C369.319 48.822 369.247 48.354 369.247 47.826C369.247 47.402 369.313 47.008 369.445 46.644C369.577 46.276 369.765 45.956 370.009 45.684C370.257 45.412 370.559 45.198 370.915 45.042C371.271 44.886 371.671 44.808 372.115 44.808C372.487 44.808 372.829 44.87 373.141 44.994C373.457 45.114 373.729 45.29 373.957 45.522C374.185 45.754 374.363 46.04 374.491 46.38C374.623 46.72 374.689 47.108 374.689 47.544C374.689 47.724 374.669 47.846 374.629 47.91C374.589 47.97 374.515 48 374.407 48H370.411C370.423 48.364 370.475 48.682 370.567 48.954C370.659 49.222 370.785 49.446 370.945 49.626C371.109 49.806 371.303 49.94 371.527 50.028C371.751 50.116 372.001 50.16 372.277 50.16C372.537 50.16 372.761 50.13 372.949 50.07C373.141 50.01 373.305 49.946 373.441 49.878C373.581 49.806 373.697 49.74 373.789 49.68C373.885 49.62 373.969 49.59 374.041 49.59C374.137 49.59 374.211 49.626 374.263 49.698L374.599 50.13Z" fill="black"/>
<path d="M402.9 49.7C403.17 49.7 403.415 49.6633 403.635 49.59C403.858 49.5133 404.05 49.4067 404.21 49.27C404.37 49.13 404.493 48.9633 404.58 48.77C404.667 48.5767 404.71 48.3617 404.71 48.125C404.71 47.815 404.653 47.5567 404.54 47.35C404.427 47.1433 404.282 46.9783 404.105 46.855C403.928 46.7317 403.733 46.645 403.52 46.595C403.307 46.5417 403.1 46.515 402.9 46.515C402.7 46.515 402.493 46.5417 402.28 46.595C402.067 46.645 401.872 46.7317 401.695 46.855C401.518 46.9783 401.373 47.1433 401.26 47.35C401.147 47.5567 401.09 47.815 401.09 48.125C401.09 48.3617 401.133 48.5767 401.22 48.77C401.307 48.9633 401.428 49.13 401.585 49.27C401.745 49.4067 401.937 49.5133 402.16 49.59C402.383 49.6633 402.63 49.7 402.9 49.7ZM401.32 44.655C401.32 44.845 401.35 45.0283 401.41 45.205C401.473 45.3817 401.57 45.54 401.7 45.68C401.83 45.8167 401.993 45.9267 402.19 46.01C402.39 46.09 402.627 46.13 402.9 46.13C403.17 46.13 403.403 46.09 403.6 46.01C403.8 45.9267 403.965 45.8167 404.095 45.68C404.225 45.54 404.32 45.3817 404.38 45.205C404.443 45.0283 404.475 44.845 404.475 44.655C404.475 44.4517 404.44 44.2633 404.37 44.09C404.3 43.9133 404.197 43.76 404.06 43.63C403.927 43.5 403.762 43.3983 403.565 43.325C403.372 43.2517 403.15 43.215 402.9 43.215C402.65 43.215 402.427 43.2517 402.23 43.325C402.033 43.3983 401.867 43.5 401.73 43.63C401.597 43.76 401.495 43.9133 401.425 44.09C401.355 44.2633 401.32 44.4517 401.32 44.655ZM403.655 46.305C403.882 46.355 404.088 46.43 404.275 46.53C404.465 46.63 404.628 46.755 404.765 46.905C404.902 47.055 405.008 47.2317 405.085 47.435C405.162 47.6383 405.2 47.87 405.2 48.13C405.2 48.43 405.143 48.7 405.03 48.94C404.917 49.18 404.758 49.385 404.555 49.555C404.355 49.725 404.113 49.855 403.83 49.945C403.55 50.035 403.24 50.08 402.9 50.08C402.56 50.08 402.248 50.035 401.965 49.945C401.685 49.855 401.443 49.725 401.24 49.555C401.04 49.385 400.883 49.18 400.77 48.94C400.657 48.7 400.6 48.43 400.6 48.13C400.6 47.87 400.638 47.6383 400.715 47.435C400.792 47.2317 400.897 47.055 401.03 46.905C401.167 46.755 401.328 46.63 401.515 46.53C401.705 46.43 401.913 46.355 402.14 46.305C401.933 46.245 401.75 46.1633 401.59 46.06C401.43 45.9567 401.295 45.8333 401.185 45.69C401.078 45.5467 400.997 45.3883 400.94 45.215C400.883 45.0383 400.855 44.85 400.855 44.65C400.855 44.4 400.902 44.165 400.995 43.945C401.092 43.725 401.228 43.5333 401.405 43.37C401.582 43.2067 401.795 43.0783 402.045 42.985C402.298 42.8917 402.583 42.845 402.9 42.845C403.213 42.845 403.495 42.8917 403.745 42.985C403.998 43.0783 404.213 43.2067 404.39 43.37C404.57 43.5333 404.707 43.725 404.8 43.945C404.897 44.165 404.945 44.4 404.945 44.65C404.945 44.85 404.917 45.0383 404.86 45.215C404.803 45.3883 404.72 45.5467 404.61 45.69C404.5 45.83 404.365 45.9533 404.205 46.06C404.045 46.1633 403.862 46.245 403.655 46.305ZM407.101 48.915C407.197 49.0583 407.297 49.18 407.401 49.28C407.507 49.3767 407.619 49.4567 407.736 49.52C407.852 49.58 407.976 49.6233 408.106 49.65C408.239 49.6767 408.379 49.69 408.526 49.69C408.819 49.69 409.076 49.6367 409.296 49.53C409.516 49.4233 409.699 49.2733 409.846 49.08C409.996 48.8833 410.107 48.65 410.181 48.38C410.257 48.1067 410.296 47.8067 410.296 47.48C410.296 46.74 410.159 46.1967 409.886 45.85C409.612 45.5 409.221 45.325 408.711 45.325C408.381 45.325 408.082 45.41 407.816 45.58C407.549 45.75 407.311 45.9867 407.101 46.29V48.915ZM407.081 45.92C407.301 45.62 407.557 45.3817 407.851 45.205C408.147 45.0283 408.479 44.94 408.846 44.94C409.456 44.94 409.931 45.1517 410.271 45.575C410.614 45.9983 410.786 46.6333 410.786 47.48C410.786 47.8433 410.737 48.1833 410.641 48.5C410.547 48.8133 410.407 49.0867 410.221 49.32C410.037 49.55 409.811 49.7317 409.541 49.865C409.274 49.9983 408.966 50.065 408.616 50.065C408.279 50.065 407.987 50.0033 407.741 49.88C407.494 49.7567 407.281 49.575 407.101 49.335V51.76H406.621V45.025H406.886C406.969 45.025 407.017 45.0667 407.031 45.15L407.081 45.92ZM415.593 50H415.138C415.091 50 415.055 49.9867 415.028 49.96C415.001 49.93 414.98 49.9017 414.963 49.875L413.453 47.67C413.44 47.73 413.415 47.7883 413.378 47.845L411.938 49.875C411.915 49.905 411.89 49.9333 411.863 49.96C411.84 49.9867 411.808 50 411.768 50H411.338L413.148 47.455L411.408 45.025H411.863C411.91 45.025 411.945 45.035 411.968 45.055C411.991 45.075 412.011 45.0983 412.028 45.125L413.488 47.23C413.495 47.2033 413.505 47.175 413.518 47.145C413.535 47.115 413.551 47.085 413.568 47.055L414.933 45.13C414.953 45.1 414.975 45.075 414.998 45.055C415.021 45.035 415.051 45.025 415.088 45.025H415.523L413.788 47.425L415.593 50Z" fill="black"/>
<path d="M379.47 120.53C379.763 120.823 380.237 120.823 380.53 120.53L385.303 115.757C385.596 115.464 385.596 114.99 385.303 114.697C385.01 114.404 384.536 114.404 384.243 114.697L380 118.939L375.757 114.697C375.464 114.404 374.99 114.404 374.697 114.697C374.404 114.99 374.404 115.464 374.697 115.757L379.47 120.53ZM379.25 89L379.25 120L380.75 120L380.75 89L379.25 89Z" fill="#D9D9D9"/>
<path d="M344.53 135.47C344.237 135.177 343.763 135.177 343.47 135.47L338.697 140.243C338.404 140.536 338.404 141.01 338.697 141.303C338.99 141.596 339.464 141.596 339.757 141.303L344 137.061L348.243 141.303C348.536 141.596 349.01 141.596 349.303 141.303C349.596 141.01 349.596 140.536 349.303 140.243L344.53 135.47ZM344.75 167L344.75 136L343.25 136L343.25 167L344.75 167Z" fill="#D9D9D9"/>
<path d="M417.53 135.47C417.237 135.177 416.763 135.177 416.47 135.47L411.697 140.243C411.404 140.536 411.404 141.01 411.697 141.303C411.99 141.596 412.464 141.596 412.757 141.303L417 137.061L421.243 141.303C421.536 141.596 422.01 141.596 422.303 141.303C422.596 141.01 422.596 140.536 422.303 140.243L417.53 135.47ZM417.75 167L417.75 136L416.25 136L416.25 167L417.75 167Z" fill="#D9D9D9"/>
<line x1="336" y1="45.75" x2="305" y2="45.75" stroke="#D9D9D9" stroke-width="1.5"/>
<path d="M304.47 117.53C304.763 117.823 305.237 117.823 305.53 117.53L310.303 112.757C310.596 112.464 310.596 111.99 310.303 111.697C310.01 111.404 309.536 111.404 309.243 111.697L305 115.939L300.757 111.697C300.464 111.404 299.99 111.404 299.697 111.697C299.404 111.99 299.404 112.464 299.697 112.757L304.47 117.53ZM304.25 45L304.25 117L305.75 117L305.75 45L304.25 45Z" fill="#D9D9D9"/>
<line y1="-0.75" x2="31" y2="-0.75" transform="matrix(1 -8.74228e-08 -8.74228e-08 -1 425 45)" stroke="#D9D9D9" stroke-width="1.5"/>
<path d="M456.53 117.53C456.237 117.823 455.763 117.823 455.47 117.53L450.697 112.757C450.404 112.464 450.404 111.99 450.697 111.697C450.99 111.404 451.464 111.404 451.757 111.697L456 115.939L460.243 111.697C460.536 111.404 461.01 111.404 461.303 111.697C461.596 111.99 461.596 112.464 461.303 112.757L456.53 117.53ZM456.75 45L456.75 117L455.25 117L455.25 45L456.75 45Z" fill="#D9D9D9"/>
<defs>
<linearGradient id="paint0_linear_1683_1855" x1="380" y1="144" x2="380" y2="108" gradientUnits="userSpaceOnUse">
<stop stop-color="#1990EA"/>
<stop offset="1" stop-color="#1991EB"/>
<stop offset="1" stop-color="#2EA1F8"/>
</linearGradient>
</defs>
</svg>
