<svg width="1148" height="269" viewBox="0 0 1148 269" fill="none" xmlns="http://www.w3.org/2000/svg">
<rect width="1148" height="269" rx="5" fill="#FAFAFA"/>
<rect width="1084" height="205" transform="translate(32 32)" fill="#FAFAFA"/>
<rect x="34.5" y="63.5432" width="1079" height="51" fill="#2DA1F8"/>
<rect x="34.5" y="63.5432" width="1079" height="51" stroke="#2DA1F8"/>
<rect x="53.5" y="77.5482" width="22.99" height="22.99" fill="white" stroke="#3F3F3F"/>
<path d="M96.152 93.5432V84.3872H97.776V93.5432H96.152ZM103.9 93.5432L102.08 86.6692H103.704L104.53 90.2392C104.605 90.5659 104.665 90.8925 104.712 91.2192C104.768 91.5459 104.829 91.8772 104.894 92.2132H104.95C105.015 91.8772 105.081 91.5459 105.146 91.2192C105.221 90.8832 105.3 90.5565 105.384 90.2392L106.28 86.6692H107.75L108.66 90.2392C108.744 90.5659 108.823 90.8925 108.898 91.2192C108.973 91.5459 109.047 91.8772 109.122 92.2132H109.178C109.243 91.8772 109.304 91.5459 109.36 91.2192C109.416 90.8925 109.477 90.5659 109.542 90.2392L110.368 86.6692H111.88L110.13 93.5432H108.212L107.414 90.3372C107.339 90.0105 107.269 89.6885 107.204 89.3712C107.139 89.0445 107.069 88.6992 106.994 88.3352H106.938C106.873 88.6992 106.807 89.0445 106.742 89.3712C106.677 89.6979 106.607 90.0245 106.532 90.3512L105.748 93.5432H103.9ZM114.768 93.7112C114.171 93.7112 113.681 93.5245 113.298 93.1512C112.925 92.7779 112.738 92.2925 112.738 91.6952C112.738 90.9579 113.06 90.3885 113.704 89.9872C114.348 89.5765 115.375 89.2965 116.784 89.1472C116.775 88.7832 116.677 88.4705 116.49 88.2092C116.313 87.9385 115.991 87.8032 115.524 87.8032C115.188 87.8032 114.857 87.8685 114.53 87.9992C114.213 88.1299 113.9 88.2885 113.592 88.4752L113.004 87.3972C113.387 87.1545 113.816 86.9445 114.292 86.7672C114.777 86.5899 115.291 86.5012 115.832 86.5012C116.691 86.5012 117.33 86.7579 117.75 87.2712C118.179 87.7752 118.394 88.5079 118.394 89.4692V93.5432H117.064L116.952 92.7872H116.896C116.588 93.0485 116.257 93.2679 115.902 93.4452C115.557 93.6225 115.179 93.7112 114.768 93.7112ZM115.286 92.4512C115.566 92.4512 115.818 92.3859 116.042 92.2552C116.275 92.1152 116.523 91.9285 116.784 91.6952V90.1552C115.851 90.2765 115.202 90.4585 114.838 90.7012C114.474 90.9345 114.292 91.2239 114.292 91.5692C114.292 91.8772 114.385 92.1012 114.572 92.2412C114.759 92.3812 114.997 92.4512 115.286 92.4512ZM120.321 93.5432V86.6692H121.651L121.763 87.5932H121.819C122.127 87.2945 122.463 87.0379 122.827 86.8232C123.191 86.6085 123.606 86.5012 124.073 86.5012C124.81 86.5012 125.347 86.7392 125.683 87.2152C126.019 87.6912 126.187 88.3632 126.187 89.2312V93.5432H124.577V89.4412C124.577 88.8719 124.493 88.4705 124.325 88.2372C124.157 88.0039 123.881 87.8872 123.499 87.8872C123.2 87.8872 122.934 87.9619 122.701 88.1112C122.477 88.2512 122.22 88.4612 121.931 88.7412V93.5432H120.321ZM130.577 93.7112C129.783 93.7112 129.219 93.4825 128.883 93.0252C128.556 92.5585 128.393 91.9565 128.393 91.2192V87.9432H127.413V86.7392L128.477 86.6692L128.673 84.7932H130.017V86.6692H131.767V87.9432H130.017V91.2192C130.017 92.0219 130.339 92.4232 130.983 92.4232C131.104 92.4232 131.23 92.4092 131.361 92.3812C131.491 92.3439 131.603 92.3065 131.697 92.2692L131.977 93.4592C131.79 93.5245 131.575 93.5805 131.333 93.6272C131.099 93.6832 130.847 93.7112 130.577 93.7112ZM138.438 93.7112C137.645 93.7112 137.08 93.4825 136.744 93.0252C136.417 92.5585 136.254 91.9565 136.254 91.2192V87.9432H135.274V86.7392L136.338 86.6692L136.534 84.7932H137.878V86.6692H139.628V87.9432H137.878V91.2192C137.878 92.0219 138.2 92.4232 138.844 92.4232C138.965 92.4232 139.091 92.4092 139.222 92.3812C139.353 92.3439 139.465 92.3065 139.558 92.2692L139.838 93.4592C139.651 93.5245 139.437 93.5805 139.194 93.6272C138.961 93.6832 138.709 93.7112 138.438 93.7112ZM143.67 93.7112C143.1 93.7112 142.568 93.5712 142.074 93.2912C141.579 93.0019 141.178 92.5912 140.87 92.0592C140.562 91.5179 140.408 90.8692 140.408 90.1132C140.408 89.3479 140.562 88.6992 140.87 88.1672C141.178 87.6259 141.579 87.2152 142.074 86.9352C142.568 86.6459 143.1 86.5012 143.67 86.5012C144.248 86.5012 144.785 86.6459 145.28 86.9352C145.774 87.2152 146.176 87.6259 146.484 88.1672C146.792 88.6992 146.946 89.3479 146.946 90.1132C146.946 90.8692 146.792 91.5179 146.484 92.0592C146.176 92.5912 145.774 93.0019 145.28 93.2912C144.785 93.5712 144.248 93.7112 143.67 93.7112ZM143.67 92.3952C144.174 92.3952 144.57 92.1852 144.86 91.7652C145.149 91.3452 145.294 90.7945 145.294 90.1132C145.294 89.4225 145.149 88.8672 144.86 88.4472C144.57 88.0272 144.174 87.8172 143.67 87.8172C143.166 87.8172 142.769 88.0272 142.48 88.4472C142.2 88.8672 142.06 89.4225 142.06 90.1132C142.06 90.7945 142.2 91.3452 142.48 91.7652C142.769 92.1852 143.166 92.3952 143.67 92.3952ZM153.26 93.7112C152.793 93.7112 152.327 93.6225 151.86 93.4452C151.393 93.2585 150.992 93.0299 150.656 92.7592L151.412 91.7232C151.72 91.9565 152.028 92.1432 152.336 92.2832C152.644 92.4232 152.971 92.4932 153.316 92.4932C153.689 92.4932 153.965 92.4139 154.142 92.2552C154.319 92.0965 154.408 91.9005 154.408 91.6672C154.408 91.4712 154.333 91.3125 154.184 91.1912C154.044 91.0605 153.862 90.9485 153.638 90.8552C153.414 90.7525 153.181 90.6545 152.938 90.5612C152.639 90.4492 152.341 90.3139 152.042 90.1552C151.753 89.9872 151.515 89.7772 151.328 89.5252C151.141 89.2639 151.048 88.9419 151.048 88.5592C151.048 87.9525 151.272 87.4579 151.72 87.0752C152.168 86.6925 152.775 86.5012 153.54 86.5012C154.025 86.5012 154.459 86.5852 154.842 86.7532C155.225 86.9212 155.556 87.1125 155.836 87.3272L155.094 88.3072C154.851 88.1299 154.604 87.9899 154.352 87.8872C154.109 87.7752 153.853 87.7192 153.582 87.7192C153.237 87.7192 152.98 87.7939 152.812 87.9432C152.644 88.0832 152.56 88.2605 152.56 88.4752C152.56 88.7459 152.7 88.9512 152.98 89.0912C153.26 89.2312 153.587 89.3665 153.96 89.4972C154.277 89.6092 154.585 89.7492 154.884 89.9172C155.183 90.0759 155.43 90.2859 155.626 90.5472C155.831 90.8085 155.934 91.1539 155.934 91.5832C155.934 92.1712 155.705 92.6752 155.248 93.0952C154.791 93.5059 154.128 93.7112 153.26 93.7112ZM157.371 96.2592V86.6692H158.701L158.813 87.3972H158.869C159.159 87.1545 159.481 86.9445 159.835 86.7672C160.199 86.5899 160.568 86.5012 160.941 86.5012C161.8 86.5012 162.463 86.8185 162.929 87.4532C163.405 88.0879 163.643 88.9372 163.643 90.0012C163.643 90.7852 163.503 91.4572 163.223 92.0172C162.943 92.5679 162.579 92.9879 162.131 93.2772C161.693 93.5665 161.217 93.7112 160.703 93.7112C160.405 93.7112 160.106 93.6459 159.807 93.5152C159.509 93.3752 159.219 93.1885 158.939 92.9552L158.981 94.1032V96.2592H157.371ZM160.367 92.3812C160.825 92.3812 161.207 92.1805 161.515 91.7792C161.823 91.3779 161.977 90.7899 161.977 90.0152C161.977 89.3245 161.861 88.7879 161.627 88.4052C161.394 88.0225 161.016 87.8312 160.493 87.8312C160.008 87.8312 159.504 88.0879 158.981 88.6012V91.8072C159.233 92.0125 159.476 92.1619 159.709 92.2552C159.943 92.3392 160.162 92.3812 160.367 92.3812ZM168.214 93.7112C167.579 93.7112 167.005 93.5712 166.492 93.2912C165.978 93.0019 165.572 92.5912 165.274 92.0592C164.975 91.5179 164.826 90.8692 164.826 90.1132C164.826 89.3665 164.975 88.7225 165.274 88.1812C165.582 87.6399 165.978 87.2245 166.464 86.9352C166.949 86.6459 167.458 86.5012 167.99 86.5012C168.615 86.5012 169.138 86.6412 169.558 86.9212C169.978 87.1919 170.295 87.5745 170.51 88.0692C170.724 88.5545 170.832 89.1192 170.832 89.7632C170.832 90.0992 170.808 90.3605 170.762 90.5472H166.394C166.468 91.1539 166.688 91.6252 167.052 91.9612C167.416 92.2972 167.873 92.4652 168.424 92.4652C168.722 92.4652 168.998 92.4232 169.25 92.3392C169.511 92.2459 169.768 92.1199 170.02 91.9612L170.566 92.9692C170.239 93.1839 169.875 93.3612 169.474 93.5012C169.072 93.6412 168.652 93.7112 168.214 93.7112ZM166.38 89.4552H169.432C169.432 88.9232 169.315 88.5079 169.082 88.2092C168.848 87.9012 168.498 87.7472 168.032 87.7472C167.63 87.7472 167.271 87.8965 166.954 88.1952C166.646 88.4845 166.454 88.9045 166.38 89.4552ZM175.239 93.7112C174.614 93.7112 174.049 93.5712 173.545 93.2912C173.051 93.0019 172.654 92.5912 172.355 92.0592C172.066 91.5179 171.921 90.8692 171.921 90.1132C171.921 89.3479 172.08 88.6992 172.397 88.1672C172.715 87.6259 173.135 87.2152 173.657 86.9352C174.189 86.6459 174.759 86.5012 175.365 86.5012C175.804 86.5012 176.187 86.5759 176.513 86.7252C176.84 86.8745 177.129 87.0565 177.381 87.2712L176.597 88.3212C176.42 88.1625 176.238 88.0412 176.051 87.9572C175.865 87.8639 175.664 87.8172 175.449 87.8172C174.899 87.8172 174.446 88.0272 174.091 88.4472C173.746 88.8672 173.573 89.4225 173.573 90.1132C173.573 90.7945 173.741 91.3452 174.077 91.7652C174.423 92.1852 174.866 92.3952 175.407 92.3952C175.678 92.3952 175.93 92.3392 176.163 92.2272C176.406 92.1059 176.625 91.9659 176.821 91.8072L177.479 92.8712C177.162 93.1512 176.807 93.3612 176.415 93.5012C176.023 93.6412 175.631 93.7112 175.239 93.7112ZM178.836 93.5432V86.6692H180.446V93.5432H178.836ZM179.648 85.4652C179.359 85.4652 179.126 85.3812 178.948 85.2132C178.771 85.0452 178.682 84.8212 178.682 84.5412C178.682 84.2705 178.771 84.0512 178.948 83.8832C179.126 83.7152 179.359 83.6312 179.648 83.6312C179.938 83.6312 180.171 83.7152 180.348 83.8832C180.526 84.0512 180.614 84.2705 180.614 84.5412C180.614 84.8212 180.526 85.0452 180.348 85.2132C180.171 85.3812 179.938 85.4652 179.648 85.4652ZM182.78 93.5432V87.9432H181.856V86.7392L182.78 86.6692V85.9552C182.78 85.2365 182.958 84.6485 183.312 84.1912C183.667 83.7245 184.25 83.4912 185.062 83.4912C185.305 83.4912 185.538 83.5145 185.762 83.5612C185.986 83.6079 186.173 83.6639 186.322 83.7292L186.014 84.9332C185.762 84.8212 185.51 84.7652 185.258 84.7652C184.68 84.7652 184.39 85.1525 184.39 85.9272V86.6692H185.734V87.9432H184.39V93.5432H182.78ZM187.406 96.3712C187.219 96.3712 187.056 96.3572 186.916 96.3292C186.776 96.3012 186.64 96.2685 186.51 96.2312L186.804 94.9712C186.869 94.9899 186.944 95.0085 187.028 95.0272C187.121 95.0552 187.21 95.0692 187.294 95.0692C187.658 95.0692 187.947 94.9572 188.162 94.7332C188.386 94.5185 188.554 94.2385 188.666 93.8932L188.792 93.4592L186.09 86.6692H187.728L188.918 90.0432C189.02 90.3419 189.118 90.6592 189.212 90.9952C189.314 91.3219 189.417 91.6485 189.52 91.9752H189.576C189.66 91.6579 189.744 91.3359 189.828 91.0092C189.921 90.6732 190.01 90.3512 190.094 90.0432L191.13 86.6692H192.684L190.192 93.8512C189.902 94.6259 189.552 95.2372 189.142 95.6852C188.731 96.1425 188.152 96.3712 187.406 96.3712ZM198.344 93.7112C197.747 93.7112 197.257 93.5245 196.874 93.1512C196.501 92.7779 196.314 92.2925 196.314 91.6952C196.314 90.9579 196.636 90.3885 197.28 89.9872C197.924 89.5765 198.951 89.2965 200.36 89.1472C200.351 88.7832 200.253 88.4705 200.066 88.2092C199.889 87.9385 199.567 87.8032 199.1 87.8032C198.764 87.8032 198.433 87.8685 198.106 87.9992C197.789 88.1299 197.476 88.2885 197.168 88.4752L196.58 87.3972C196.963 87.1545 197.392 86.9445 197.868 86.7672C198.353 86.5899 198.867 86.5012 199.408 86.5012C200.267 86.5012 200.906 86.7579 201.326 87.2712C201.755 87.7752 201.97 88.5079 201.97 89.4692V93.5432H200.64L200.528 92.7872H200.472C200.164 93.0485 199.833 93.2679 199.478 93.4452C199.133 93.6225 198.755 93.7112 198.344 93.7112ZM198.862 92.4512C199.142 92.4512 199.394 92.3859 199.618 92.2552C199.851 92.1152 200.099 91.9285 200.36 91.6952V90.1552C199.427 90.2765 198.778 90.4585 198.414 90.7012C198.05 90.9345 197.868 91.2239 197.868 91.5692C197.868 91.8772 197.961 92.1012 198.148 92.2412C198.335 92.3812 198.573 92.4512 198.862 92.4512ZM203.897 93.5432V86.6692H205.227L205.339 87.5932H205.395C205.703 87.2945 206.039 87.0379 206.403 86.8232C206.767 86.6085 207.182 86.5012 207.649 86.5012C208.386 86.5012 208.923 86.7392 209.259 87.2152C209.595 87.6912 209.763 88.3632 209.763 89.2312V93.5432H208.153V89.4412C208.153 88.8719 208.069 88.4705 207.901 88.2372C207.733 88.0039 207.457 87.8872 207.075 87.8872C206.776 87.8872 206.51 87.9619 206.277 88.1112C206.053 88.2512 205.796 88.4612 205.507 88.7412V93.5432H203.897ZM214.545 93.7112C213.975 93.7112 213.443 93.5712 212.949 93.2912C212.454 93.0019 212.053 92.5912 211.745 92.0592C211.437 91.5179 211.283 90.8692 211.283 90.1132C211.283 89.3479 211.437 88.6992 211.745 88.1672C212.053 87.6259 212.454 87.2152 212.949 86.9352C213.443 86.6459 213.975 86.5012 214.545 86.5012C215.123 86.5012 215.66 86.6459 216.155 86.9352C216.649 87.2152 217.051 87.6259 217.359 88.1672C217.667 88.6992 217.821 89.3479 217.821 90.1132C217.821 90.8692 217.667 91.5179 217.359 92.0592C217.051 92.5912 216.649 93.0019 216.155 93.2912C215.66 93.5712 215.123 93.7112 214.545 93.7112ZM214.545 92.3952C215.049 92.3952 215.445 92.1852 215.735 91.7652C216.024 91.3452 216.169 90.7945 216.169 90.1132C216.169 89.4225 216.024 88.8672 215.735 88.4472C215.445 88.0272 215.049 87.8172 214.545 87.8172C214.041 87.8172 213.644 88.0272 213.355 88.4472C213.075 88.8672 212.935 89.4225 212.935 90.1132C212.935 90.7945 213.075 91.3452 213.355 91.7652C213.644 92.1852 214.041 92.3952 214.545 92.3952ZM221.522 93.7112C220.729 93.7112 220.164 93.4825 219.828 93.0252C219.501 92.5585 219.338 91.9565 219.338 91.2192V87.9432H218.358V86.7392L219.422 86.6692L219.618 84.7932H220.962V86.6692H222.712V87.9432H220.962V91.2192C220.962 92.0219 221.284 92.4232 221.928 92.4232C222.049 92.4232 222.175 92.4092 222.306 92.3812C222.437 92.3439 222.549 92.3065 222.642 92.2692L222.922 93.4592C222.735 93.5245 222.521 93.5805 222.278 93.6272C222.045 93.6832 221.793 93.7112 221.522 93.7112ZM224.158 93.5432V83.6592H225.768V86.2072L225.712 87.5372C226.002 87.2665 226.324 87.0285 226.678 86.8232C227.033 86.6085 227.444 86.5012 227.91 86.5012C228.648 86.5012 229.184 86.7392 229.52 87.2152C229.856 87.6912 230.024 88.3632 230.024 89.2312V93.5432H228.414V89.4412C228.414 88.8719 228.33 88.4705 228.162 88.2372C227.994 88.0039 227.719 87.8872 227.336 87.8872C227.038 87.8872 226.772 87.9619 226.538 88.1112C226.314 88.2512 226.058 88.4612 225.768 88.7412V93.5432H224.158ZM234.905 93.7112C234.27 93.7112 233.696 93.5712 233.183 93.2912C232.67 93.0019 232.264 92.5912 231.965 92.0592C231.666 91.5179 231.517 90.8692 231.517 90.1132C231.517 89.3665 231.666 88.7225 231.965 88.1812C232.273 87.6399 232.67 87.2245 233.155 86.9352C233.64 86.6459 234.149 86.5012 234.681 86.5012C235.306 86.5012 235.829 86.6412 236.249 86.9212C236.669 87.1919 236.986 87.5745 237.201 88.0692C237.416 88.5545 237.523 89.1192 237.523 89.7632C237.523 90.0992 237.5 90.3605 237.453 90.5472H233.085C233.16 91.1539 233.379 91.6252 233.743 91.9612C234.107 92.2972 234.564 92.4652 235.115 92.4652C235.414 92.4652 235.689 92.4232 235.941 92.3392C236.202 92.2459 236.459 92.1199 236.711 91.9612L237.257 92.9692C236.93 93.1839 236.566 93.3612 236.165 93.5012C235.764 93.6412 235.344 93.7112 234.905 93.7112ZM233.071 89.4552H236.123C236.123 88.9232 236.006 88.5079 235.773 88.2092C235.54 87.9012 235.19 87.7472 234.723 87.7472C234.322 87.7472 233.962 87.8965 233.645 88.1952C233.337 88.4845 233.146 88.9045 233.071 89.4552ZM239.061 93.5432V86.6692H240.391L240.503 87.8872H240.559C240.801 87.4392 241.095 87.0985 241.441 86.8652C241.786 86.6225 242.141 86.5012 242.505 86.5012C242.831 86.5012 243.093 86.5479 243.289 86.6412L243.009 88.0412C242.887 88.0039 242.775 87.9759 242.673 87.9572C242.57 87.9385 242.444 87.9292 242.295 87.9292C242.024 87.9292 241.739 88.0365 241.441 88.2512C241.142 88.4565 240.885 88.8205 240.671 89.3432V93.5432H239.061ZM249.494 93.7112C248.636 93.7112 247.95 93.3939 247.436 92.7592C246.923 92.1245 246.666 91.2425 246.666 90.1132C246.666 89.3665 246.802 88.7225 247.072 88.1812C247.352 87.6399 247.716 87.2245 248.164 86.9352C248.612 86.6459 249.084 86.5012 249.578 86.5012C249.97 86.5012 250.302 86.5712 250.572 86.7112C250.852 86.8419 251.123 87.0239 251.384 87.2572L251.328 86.1512V83.6592H252.938V93.5432H251.608L251.496 92.8012H251.44C251.188 93.0532 250.894 93.2679 250.558 93.4452C250.222 93.6225 249.868 93.7112 249.494 93.7112ZM249.886 92.3812C250.4 92.3812 250.88 92.1245 251.328 91.6112V88.4052C251.095 88.1905 250.862 88.0412 250.628 87.9572C250.395 87.8732 250.162 87.8312 249.928 87.8312C249.49 87.8312 249.112 88.0319 248.794 88.4332C248.486 88.8252 248.332 89.3805 248.332 90.0992C248.332 90.8365 248.468 91.4012 248.738 91.7932C249.009 92.1852 249.392 92.3812 249.886 92.3812ZM257.929 93.7112C257.294 93.7112 256.72 93.5712 256.207 93.2912C255.693 93.0019 255.287 92.5912 254.989 92.0592C254.69 91.5179 254.541 90.8692 254.541 90.1132C254.541 89.3665 254.69 88.7225 254.989 88.1812C255.297 87.6399 255.693 87.2245 256.179 86.9352C256.664 86.6459 257.173 86.5012 257.705 86.5012C258.33 86.5012 258.853 86.6412 259.273 86.9212C259.693 87.1919 260.01 87.5745 260.225 88.0692C260.439 88.5545 260.547 89.1192 260.547 89.7632C260.547 90.0992 260.523 90.3605 260.477 90.5472H256.109C256.183 91.1539 256.403 91.6252 256.767 91.9612C257.131 92.2972 257.588 92.4652 258.139 92.4652C258.437 92.4652 258.713 92.4232 258.965 92.3392C259.226 92.2459 259.483 92.1199 259.735 91.9612L260.281 92.9692C259.954 93.1839 259.59 93.3612 259.189 93.5012C258.787 93.6412 258.367 93.7112 257.929 93.7112ZM256.095 89.4552H259.147C259.147 88.9232 259.03 88.5079 258.797 88.2092C258.563 87.9012 258.213 87.7472 257.747 87.7472C257.345 87.7472 256.986 87.8965 256.669 88.1952C256.361 88.4845 256.169 88.9045 256.095 89.4552ZM262.084 96.2592V86.6692H263.414L263.526 87.3972H263.582C263.872 87.1545 264.194 86.9445 264.548 86.7672C264.912 86.5899 265.281 86.5012 265.654 86.5012C266.513 86.5012 267.176 86.8185 267.642 87.4532C268.118 88.0879 268.356 88.9372 268.356 90.0012C268.356 90.7852 268.216 91.4572 267.936 92.0172C267.656 92.5679 267.292 92.9879 266.844 93.2772C266.406 93.5665 265.93 93.7112 265.416 93.7112C265.118 93.7112 264.819 93.6459 264.52 93.5152C264.222 93.3752 263.932 93.1885 263.652 92.9552L263.694 94.1032V96.2592H262.084ZM265.08 92.3812C265.538 92.3812 265.92 92.1805 266.228 91.7792C266.536 91.3779 266.69 90.7899 266.69 90.0152C266.69 89.3245 266.574 88.7879 266.34 88.4052C266.107 88.0225 265.729 87.8312 265.206 87.8312C264.721 87.8312 264.217 88.0879 263.694 88.6012V91.8072C263.946 92.0125 264.189 92.1619 264.422 92.2552C264.656 92.3392 264.875 92.3812 265.08 92.3812ZM271.489 93.7112C270.891 93.7112 270.401 93.5245 270.019 93.1512C269.645 92.7779 269.459 92.2925 269.459 91.6952C269.459 90.9579 269.781 90.3885 270.425 89.9872C271.069 89.5765 272.095 89.2965 273.505 89.1472C273.495 88.7832 273.397 88.4705 273.211 88.2092C273.033 87.9385 272.711 87.8032 272.245 87.8032C271.909 87.8032 271.577 87.8685 271.251 87.9992C270.933 88.1299 270.621 88.2885 270.313 88.4752L269.725 87.3972C270.107 87.1545 270.537 86.9445 271.013 86.7672C271.498 86.5899 272.011 86.5012 272.553 86.5012C273.411 86.5012 274.051 86.7579 274.471 87.2712C274.9 87.7752 275.115 88.5079 275.115 89.4692V93.5432H273.785L273.673 92.7872H273.617C273.309 93.0485 272.977 93.2679 272.623 93.4452C272.277 93.6225 271.899 93.7112 271.489 93.7112ZM272.007 92.4512C272.287 92.4512 272.539 92.3859 272.763 92.2552C272.996 92.1152 273.243 91.9285 273.505 91.6952V90.1552C272.571 90.2765 271.923 90.4585 271.559 90.7012C271.195 90.9345 271.013 91.2239 271.013 91.5692C271.013 91.8772 271.106 92.1012 271.293 92.2412C271.479 92.3812 271.717 92.4512 272.007 92.4512ZM277.041 93.5432V86.6692H278.371L278.483 87.8872H278.539C278.782 87.4392 279.076 87.0985 279.421 86.8652C279.767 86.6225 280.121 86.5012 280.485 86.5012C280.812 86.5012 281.073 86.5479 281.269 86.6412L280.989 88.0412C280.868 88.0039 280.756 87.9759 280.653 87.9572C280.551 87.9385 280.425 87.9292 280.275 87.9292C280.005 87.9292 279.72 88.0365 279.421 88.2512C279.123 88.4565 278.866 88.8205 278.651 89.3432V93.5432H277.041ZM284.686 93.7112C283.893 93.7112 283.328 93.4825 282.992 93.0252C282.665 92.5585 282.502 91.9565 282.502 91.2192V87.9432H281.522V86.7392L282.586 86.6692L282.782 84.7932H284.126V86.6692H285.876V87.9432H284.126V91.2192C284.126 92.0219 284.448 92.4232 285.092 92.4232C285.213 92.4232 285.339 92.4092 285.47 92.3812C285.601 92.3439 285.713 92.3065 285.806 92.2692L286.086 93.4592C285.899 93.5245 285.685 93.5805 285.442 93.6272C285.209 93.6832 284.957 93.7112 284.686 93.7112ZM289.367 93.7112C288.629 93.7112 288.093 93.4732 287.757 92.9972C287.421 92.5212 287.253 91.8492 287.253 90.9812V86.6692H288.863V90.7712C288.863 91.3405 288.947 91.7419 289.115 91.9752C289.283 92.2085 289.553 92.3252 289.927 92.3252C290.225 92.3252 290.487 92.2505 290.711 92.1012C290.944 91.9519 291.191 91.7092 291.453 91.3732V86.6692H293.063V93.5432H291.747L291.621 92.5352H291.579C291.28 92.8899 290.953 93.1745 290.599 93.3892C290.244 93.6039 289.833 93.7112 289.367 93.7112ZM295.102 93.5432V86.6692H296.432L296.544 87.8872H296.6C296.843 87.4392 297.137 87.0985 297.482 86.8652C297.827 86.6225 298.182 86.5012 298.546 86.5012C298.873 86.5012 299.134 86.5479 299.33 86.6412L299.05 88.0412C298.929 88.0039 298.817 87.9759 298.714 87.9572C298.611 87.9385 298.485 87.9292 298.336 87.9292C298.065 87.9292 297.781 88.0365 297.482 88.2512C297.183 88.4565 296.927 88.8205 296.712 89.3432V93.5432H295.102ZM303.128 93.7112C302.493 93.7112 301.919 93.5712 301.406 93.2912C300.892 93.0019 300.486 92.5912 300.188 92.0592C299.889 91.5179 299.74 90.8692 299.74 90.1132C299.74 89.3665 299.889 88.7225 300.188 88.1812C300.496 87.6399 300.892 87.2245 301.378 86.9352C301.863 86.6459 302.372 86.5012 302.904 86.5012C303.529 86.5012 304.052 86.6412 304.472 86.9212C304.892 87.1919 305.209 87.5745 305.424 88.0692C305.638 88.5545 305.746 89.1192 305.746 89.7632C305.746 90.0992 305.722 90.3605 305.676 90.5472H301.308C301.382 91.1539 301.602 91.6252 301.966 91.9612C302.33 92.2972 302.787 92.4652 303.338 92.4652C303.636 92.4652 303.912 92.4232 304.164 92.3392C304.425 92.2459 304.682 92.1199 304.934 91.9612L305.48 92.9692C305.153 93.1839 304.789 93.3612 304.388 93.5012C303.986 93.6412 303.566 93.7112 303.128 93.7112ZM301.294 89.4552H304.346C304.346 88.9232 304.229 88.5079 303.996 88.2092C303.762 87.9012 303.412 87.7472 302.946 87.7472C302.544 87.7472 302.185 87.8965 301.868 88.1952C301.56 88.4845 301.368 88.9045 301.294 89.4552ZM311.654 93.7112C311.085 93.7112 310.679 93.5385 310.436 93.1932C310.203 92.8479 310.086 92.3765 310.086 91.7792V83.6592H311.696V91.8632C311.696 92.0592 311.734 92.1992 311.808 92.2832C311.883 92.3579 311.962 92.3952 312.046 92.3952C312.084 92.3952 312.116 92.3952 312.144 92.3952C312.182 92.3859 312.233 92.3765 312.298 92.3672L312.508 93.5712C312.415 93.6085 312.294 93.6412 312.144 93.6692C312.004 93.6972 311.841 93.7112 311.654 93.7112ZM316.701 93.7112C316.132 93.7112 315.6 93.5712 315.105 93.2912C314.61 93.0019 314.209 92.5912 313.901 92.0592C313.593 91.5179 313.439 90.8692 313.439 90.1132C313.439 89.3479 313.593 88.6992 313.901 88.1672C314.209 87.6259 314.61 87.2152 315.105 86.9352C315.6 86.6459 316.132 86.5012 316.701 86.5012C317.28 86.5012 317.816 86.6459 318.311 86.9352C318.806 87.2152 319.207 87.6259 319.515 88.1672C319.823 88.6992 319.977 89.3479 319.977 90.1132C319.977 90.8692 319.823 91.5179 319.515 92.0592C319.207 92.5912 318.806 93.0019 318.311 93.2912C317.816 93.5712 317.28 93.7112 316.701 93.7112ZM316.701 92.3952C317.205 92.3952 317.602 92.1852 317.891 91.7652C318.18 91.3452 318.325 90.7945 318.325 90.1132C318.325 89.4225 318.18 88.8672 317.891 88.4472C317.602 88.0272 317.205 87.8172 316.701 87.8172C316.197 87.8172 315.8 88.0272 315.511 88.4472C315.231 88.8672 315.091 89.4225 315.091 90.1132C315.091 90.7945 315.231 91.3452 315.511 91.7652C315.8 92.1852 316.197 92.3952 316.701 92.3952ZM324.441 93.7112C323.815 93.7112 323.251 93.5712 322.747 93.2912C322.252 93.0019 321.855 92.5912 321.557 92.0592C321.267 91.5179 321.123 90.8692 321.123 90.1132C321.123 89.3479 321.281 88.6992 321.599 88.1672C321.916 87.6259 322.336 87.2152 322.859 86.9352C323.391 86.6459 323.96 86.5012 324.567 86.5012C325.005 86.5012 325.388 86.5759 325.715 86.7252C326.041 86.8745 326.331 87.0565 326.583 87.2712L325.799 88.3212C325.621 88.1625 325.439 88.0412 325.253 87.9572C325.066 87.8639 324.865 87.8172 324.651 87.8172C324.1 87.8172 323.647 88.0272 323.293 88.4472C322.947 88.8672 322.775 89.4225 322.775 90.1132C322.775 90.7945 322.943 91.3452 323.279 91.7652C323.624 92.1852 324.067 92.3952 324.609 92.3952C324.879 92.3952 325.131 92.3392 325.365 92.2272C325.607 92.1059 325.827 91.9659 326.023 91.8072L326.681 92.8712C326.363 93.1512 326.009 93.3612 325.617 93.5012C325.225 93.6412 324.833 93.7112 324.441 93.7112ZM329.567 93.7112C328.969 93.7112 328.479 93.5245 328.097 93.1512C327.723 92.7779 327.537 92.2925 327.537 91.6952C327.537 90.9579 327.859 90.3885 328.503 89.9872C329.147 89.5765 330.173 89.2965 331.583 89.1472C331.573 88.7832 331.475 88.4705 331.289 88.2092C331.111 87.9385 330.789 87.8032 330.323 87.8032C329.987 87.8032 329.655 87.8685 329.329 87.9992C329.011 88.1299 328.699 88.2885 328.391 88.4752L327.803 87.3972C328.185 87.1545 328.615 86.9445 329.091 86.7672C329.576 86.5899 330.089 86.5012 330.631 86.5012C331.489 86.5012 332.129 86.7579 332.549 87.2712C332.978 87.7752 333.193 88.5079 333.193 89.4692V93.5432H331.863L331.751 92.7872H331.695C331.387 93.0485 331.055 93.2679 330.701 93.4452C330.355 93.6225 329.977 93.7112 329.567 93.7112ZM330.085 92.4512C330.365 92.4512 330.617 92.3859 330.841 92.2552C331.074 92.1152 331.321 91.9285 331.583 91.6952V90.1552C330.649 90.2765 330.001 90.4585 329.637 90.7012C329.273 90.9345 329.091 91.2239 329.091 91.5692C329.091 91.8772 329.184 92.1012 329.371 92.2412C329.557 92.3812 329.795 92.4512 330.085 92.4512ZM337.323 93.7112C336.529 93.7112 335.965 93.4825 335.629 93.0252C335.302 92.5585 335.139 91.9565 335.139 91.2192V87.9432H334.159V86.7392L335.223 86.6692L335.419 84.7932H336.763V86.6692H338.513V87.9432H336.763V91.2192C336.763 92.0219 337.085 92.4232 337.729 92.4232C337.85 92.4232 337.976 92.4092 338.107 92.3812C338.237 92.3439 338.349 92.3065 338.443 92.2692L338.723 93.4592C338.536 93.5245 338.321 93.5805 338.079 93.6272C337.845 93.6832 337.593 93.7112 337.323 93.7112ZM339.959 93.5432V86.6692H341.569V93.5432H339.959ZM340.771 85.4652C340.482 85.4652 340.249 85.3812 340.071 85.2132C339.894 85.0452 339.805 84.8212 339.805 84.5412C339.805 84.2705 339.894 84.0512 340.071 83.8832C340.249 83.7152 340.482 83.6312 340.771 83.6312C341.061 83.6312 341.294 83.7152 341.471 83.8832C341.649 84.0512 341.737 84.2705 341.737 84.5412C341.737 84.8212 341.649 85.0452 341.471 85.2132C341.294 85.3812 341.061 85.4652 340.771 85.4652ZM346.437 93.7112C345.868 93.7112 345.336 93.5712 344.841 93.2912C344.347 93.0019 343.945 92.5912 343.637 92.0592C343.329 91.5179 343.175 90.8692 343.175 90.1132C343.175 89.3479 343.329 88.6992 343.637 88.1672C343.945 87.6259 344.347 87.2152 344.841 86.9352C345.336 86.6459 345.868 86.5012 346.437 86.5012C347.016 86.5012 347.553 86.6459 348.047 86.9352C348.542 87.2152 348.943 87.6259 349.251 88.1672C349.559 88.6992 349.713 89.3479 349.713 90.1132C349.713 90.8692 349.559 91.5179 349.251 92.0592C348.943 92.5912 348.542 93.0019 348.047 93.2912C347.553 93.5712 347.016 93.7112 346.437 93.7112ZM346.437 92.3952C346.941 92.3952 347.338 92.1852 347.627 91.7652C347.917 91.3452 348.061 90.7945 348.061 90.1132C348.061 89.4225 347.917 88.8672 347.627 88.4472C347.338 88.0272 346.941 87.8172 346.437 87.8172C345.933 87.8172 345.537 88.0272 345.247 88.4472C344.967 88.8672 344.827 89.4225 344.827 90.1132C344.827 90.7945 344.967 91.3452 345.247 91.7652C345.537 92.1852 345.933 92.3952 346.437 92.3952ZM351.307 93.5432V86.6692H352.637L352.749 87.5932H352.805C353.113 87.2945 353.449 87.0379 353.813 86.8232C354.177 86.6085 354.592 86.5012 355.059 86.5012C355.796 86.5012 356.333 86.7392 356.669 87.2152C357.005 87.6912 357.173 88.3632 357.173 89.2312V93.5432H355.563V89.4412C355.563 88.8719 355.479 88.4705 355.311 88.2372C355.143 88.0039 354.868 87.8872 354.485 87.8872C354.186 87.8872 353.92 87.9619 353.687 88.1112C353.463 88.2512 353.206 88.4612 352.917 88.7412V93.5432H351.307Z" fill="white"/>
<rect x="61" y="85.0432" width="7.99" height="7.99" fill="#3F3F3F"/>
<rect x="34.5" y="173.543" width="1079" height="51" fill="white"/>
<rect x="34.5" y="173.543" width="1079" height="51" stroke="#CFD2D8"/>
<rect x="53.5" y="187.548" width="22.99" height="22.99" fill="white" stroke="#3F3F3F"/>
<path d="M96.152 203.543V194.387H97.776V203.543H96.152ZM103.9 203.543L102.08 196.669H103.704L104.53 200.239C104.605 200.566 104.665 200.893 104.712 201.219C104.768 201.546 104.829 201.877 104.894 202.213H104.95C105.015 201.877 105.081 201.546 105.146 201.219C105.221 200.883 105.3 200.557 105.384 200.239L106.28 196.669H107.75L108.66 200.239C108.744 200.566 108.823 200.893 108.898 201.219C108.973 201.546 109.047 201.877 109.122 202.213H109.178C109.243 201.877 109.304 201.546 109.36 201.219C109.416 200.893 109.477 200.566 109.542 200.239L110.368 196.669H111.88L110.13 203.543H108.212L107.414 200.337C107.339 200.011 107.269 199.689 107.204 199.371C107.139 199.045 107.069 198.699 106.994 198.335H106.938C106.873 198.699 106.807 199.045 106.742 199.371C106.677 199.698 106.607 200.025 106.532 200.351L105.748 203.543H103.9ZM114.768 203.711C114.171 203.711 113.681 203.525 113.298 203.151C112.925 202.778 112.738 202.293 112.738 201.695C112.738 200.958 113.06 200.389 113.704 199.987C114.348 199.577 115.375 199.297 116.784 199.147C116.775 198.783 116.677 198.471 116.49 198.209C116.313 197.939 115.991 197.803 115.524 197.803C115.188 197.803 114.857 197.869 114.53 197.999C114.213 198.13 113.9 198.289 113.592 198.475L113.004 197.397C113.387 197.155 113.816 196.945 114.292 196.767C114.777 196.59 115.291 196.501 115.832 196.501C116.691 196.501 117.33 196.758 117.75 197.271C118.179 197.775 118.394 198.508 118.394 199.469V203.543H117.064L116.952 202.787H116.896C116.588 203.049 116.257 203.268 115.902 203.445C115.557 203.623 115.179 203.711 114.768 203.711ZM115.286 202.451C115.566 202.451 115.818 202.386 116.042 202.255C116.275 202.115 116.523 201.929 116.784 201.695V200.155C115.851 200.277 115.202 200.459 114.838 200.701C114.474 200.935 114.292 201.224 114.292 201.569C114.292 201.877 114.385 202.101 114.572 202.241C114.759 202.381 114.997 202.451 115.286 202.451ZM120.321 203.543V196.669H121.651L121.763 197.593H121.819C122.127 197.295 122.463 197.038 122.827 196.823C123.191 196.609 123.606 196.501 124.073 196.501C124.81 196.501 125.347 196.739 125.683 197.215C126.019 197.691 126.187 198.363 126.187 199.231V203.543H124.577V199.441C124.577 198.872 124.493 198.471 124.325 198.237C124.157 198.004 123.881 197.887 123.499 197.887C123.2 197.887 122.934 197.962 122.701 198.111C122.477 198.251 122.22 198.461 121.931 198.741V203.543H120.321ZM130.577 203.711C129.783 203.711 129.219 203.483 128.883 203.025C128.556 202.559 128.393 201.957 128.393 201.219V197.943H127.413V196.739L128.477 196.669L128.673 194.793H130.017V196.669H131.767V197.943H130.017V201.219C130.017 202.022 130.339 202.423 130.983 202.423C131.104 202.423 131.23 202.409 131.361 202.381C131.491 202.344 131.603 202.307 131.697 202.269L131.977 203.459C131.79 203.525 131.575 203.581 131.333 203.627C131.099 203.683 130.847 203.711 130.577 203.711ZM138.438 203.711C137.645 203.711 137.08 203.483 136.744 203.025C136.417 202.559 136.254 201.957 136.254 201.219V197.943H135.274V196.739L136.338 196.669L136.534 194.793H137.878V196.669H139.628V197.943H137.878V201.219C137.878 202.022 138.2 202.423 138.844 202.423C138.965 202.423 139.091 202.409 139.222 202.381C139.353 202.344 139.465 202.307 139.558 202.269L139.838 203.459C139.651 203.525 139.437 203.581 139.194 203.627C138.961 203.683 138.709 203.711 138.438 203.711ZM143.67 203.711C143.1 203.711 142.568 203.571 142.074 203.291C141.579 203.002 141.178 202.591 140.87 202.059C140.562 201.518 140.408 200.869 140.408 200.113C140.408 199.348 140.562 198.699 140.87 198.167C141.178 197.626 141.579 197.215 142.074 196.935C142.568 196.646 143.1 196.501 143.67 196.501C144.248 196.501 144.785 196.646 145.28 196.935C145.774 197.215 146.176 197.626 146.484 198.167C146.792 198.699 146.946 199.348 146.946 200.113C146.946 200.869 146.792 201.518 146.484 202.059C146.176 202.591 145.774 203.002 145.28 203.291C144.785 203.571 144.248 203.711 143.67 203.711ZM143.67 202.395C144.174 202.395 144.57 202.185 144.86 201.765C145.149 201.345 145.294 200.795 145.294 200.113C145.294 199.423 145.149 198.867 144.86 198.447C144.57 198.027 144.174 197.817 143.67 197.817C143.166 197.817 142.769 198.027 142.48 198.447C142.2 198.867 142.06 199.423 142.06 200.113C142.06 200.795 142.2 201.345 142.48 201.765C142.769 202.185 143.166 202.395 143.67 202.395ZM153.26 203.711C152.793 203.711 152.327 203.623 151.86 203.445C151.393 203.259 150.992 203.03 150.656 202.759L151.412 201.723C151.72 201.957 152.028 202.143 152.336 202.283C152.644 202.423 152.971 202.493 153.316 202.493C153.689 202.493 153.965 202.414 154.142 202.255C154.319 202.097 154.408 201.901 154.408 201.667C154.408 201.471 154.333 201.313 154.184 201.191C154.044 201.061 153.862 200.949 153.638 200.855C153.414 200.753 153.181 200.655 152.938 200.561C152.639 200.449 152.341 200.314 152.042 200.155C151.753 199.987 151.515 199.777 151.328 199.525C151.141 199.264 151.048 198.942 151.048 198.559C151.048 197.953 151.272 197.458 151.72 197.075C152.168 196.693 152.775 196.501 153.54 196.501C154.025 196.501 154.459 196.585 154.842 196.753C155.225 196.921 155.556 197.113 155.836 197.327L155.094 198.307C154.851 198.13 154.604 197.99 154.352 197.887C154.109 197.775 153.853 197.719 153.582 197.719C153.237 197.719 152.98 197.794 152.812 197.943C152.644 198.083 152.56 198.261 152.56 198.475C152.56 198.746 152.7 198.951 152.98 199.091C153.26 199.231 153.587 199.367 153.96 199.497C154.277 199.609 154.585 199.749 154.884 199.917C155.183 200.076 155.43 200.286 155.626 200.547C155.831 200.809 155.934 201.154 155.934 201.583C155.934 202.171 155.705 202.675 155.248 203.095C154.791 203.506 154.128 203.711 153.26 203.711ZM157.371 206.259V196.669H158.701L158.813 197.397H158.869C159.159 197.155 159.481 196.945 159.835 196.767C160.199 196.59 160.568 196.501 160.941 196.501C161.8 196.501 162.463 196.819 162.929 197.453C163.405 198.088 163.643 198.937 163.643 200.001C163.643 200.785 163.503 201.457 163.223 202.017C162.943 202.568 162.579 202.988 162.131 203.277C161.693 203.567 161.217 203.711 160.703 203.711C160.405 203.711 160.106 203.646 159.807 203.515C159.509 203.375 159.219 203.189 158.939 202.955L158.981 204.103V206.259H157.371ZM160.367 202.381C160.825 202.381 161.207 202.181 161.515 201.779C161.823 201.378 161.977 200.79 161.977 200.015C161.977 199.325 161.861 198.788 161.627 198.405C161.394 198.023 161.016 197.831 160.493 197.831C160.008 197.831 159.504 198.088 158.981 198.601V201.807C159.233 202.013 159.476 202.162 159.709 202.255C159.943 202.339 160.162 202.381 160.367 202.381ZM168.214 203.711C167.579 203.711 167.005 203.571 166.492 203.291C165.978 203.002 165.572 202.591 165.274 202.059C164.975 201.518 164.826 200.869 164.826 200.113C164.826 199.367 164.975 198.723 165.274 198.181C165.582 197.64 165.978 197.225 166.464 196.935C166.949 196.646 167.458 196.501 167.99 196.501C168.615 196.501 169.138 196.641 169.558 196.921C169.978 197.192 170.295 197.575 170.51 198.069C170.724 198.555 170.832 199.119 170.832 199.763C170.832 200.099 170.808 200.361 170.762 200.547H166.394C166.468 201.154 166.688 201.625 167.052 201.961C167.416 202.297 167.873 202.465 168.424 202.465C168.722 202.465 168.998 202.423 169.25 202.339C169.511 202.246 169.768 202.12 170.02 201.961L170.566 202.969C170.239 203.184 169.875 203.361 169.474 203.501C169.072 203.641 168.652 203.711 168.214 203.711ZM166.38 199.455H169.432C169.432 198.923 169.315 198.508 169.082 198.209C168.848 197.901 168.498 197.747 168.032 197.747C167.63 197.747 167.271 197.897 166.954 198.195C166.646 198.485 166.454 198.905 166.38 199.455ZM175.239 203.711C174.614 203.711 174.049 203.571 173.545 203.291C173.051 203.002 172.654 202.591 172.355 202.059C172.066 201.518 171.921 200.869 171.921 200.113C171.921 199.348 172.08 198.699 172.397 198.167C172.715 197.626 173.135 197.215 173.657 196.935C174.189 196.646 174.759 196.501 175.365 196.501C175.804 196.501 176.187 196.576 176.513 196.725C176.84 196.875 177.129 197.057 177.381 197.271L176.597 198.321C176.42 198.163 176.238 198.041 176.051 197.957C175.865 197.864 175.664 197.817 175.449 197.817C174.899 197.817 174.446 198.027 174.091 198.447C173.746 198.867 173.573 199.423 173.573 200.113C173.573 200.795 173.741 201.345 174.077 201.765C174.423 202.185 174.866 202.395 175.407 202.395C175.678 202.395 175.93 202.339 176.163 202.227C176.406 202.106 176.625 201.966 176.821 201.807L177.479 202.871C177.162 203.151 176.807 203.361 176.415 203.501C176.023 203.641 175.631 203.711 175.239 203.711ZM178.836 203.543V196.669H180.446V203.543H178.836ZM179.648 195.465C179.359 195.465 179.126 195.381 178.948 195.213C178.771 195.045 178.682 194.821 178.682 194.541C178.682 194.271 178.771 194.051 178.948 193.883C179.126 193.715 179.359 193.631 179.648 193.631C179.938 193.631 180.171 193.715 180.348 193.883C180.526 194.051 180.614 194.271 180.614 194.541C180.614 194.821 180.526 195.045 180.348 195.213C180.171 195.381 179.938 195.465 179.648 195.465ZM182.78 203.543V197.943H181.856V196.739L182.78 196.669V195.955C182.78 195.237 182.958 194.649 183.312 194.191C183.667 193.725 184.25 193.491 185.062 193.491C185.305 193.491 185.538 193.515 185.762 193.561C185.986 193.608 186.173 193.664 186.322 193.729L186.014 194.933C185.762 194.821 185.51 194.765 185.258 194.765C184.68 194.765 184.39 195.153 184.39 195.927V196.669H185.734V197.943H184.39V203.543H182.78ZM187.406 206.371C187.219 206.371 187.056 206.357 186.916 206.329C186.776 206.301 186.64 206.269 186.51 206.231L186.804 204.971C186.869 204.99 186.944 205.009 187.028 205.027C187.121 205.055 187.21 205.069 187.294 205.069C187.658 205.069 187.947 204.957 188.162 204.733C188.386 204.519 188.554 204.239 188.666 203.893L188.792 203.459L186.09 196.669H187.728L188.918 200.043C189.02 200.342 189.118 200.659 189.212 200.995C189.314 201.322 189.417 201.649 189.52 201.975H189.576C189.66 201.658 189.744 201.336 189.828 201.009C189.921 200.673 190.01 200.351 190.094 200.043L191.13 196.669H192.684L190.192 203.851C189.902 204.626 189.552 205.237 189.142 205.685C188.731 206.143 188.152 206.371 187.406 206.371ZM198.344 203.711C197.747 203.711 197.257 203.525 196.874 203.151C196.501 202.778 196.314 202.293 196.314 201.695C196.314 200.958 196.636 200.389 197.28 199.987C197.924 199.577 198.951 199.297 200.36 199.147C200.351 198.783 200.253 198.471 200.066 198.209C199.889 197.939 199.567 197.803 199.1 197.803C198.764 197.803 198.433 197.869 198.106 197.999C197.789 198.13 197.476 198.289 197.168 198.475L196.58 197.397C196.963 197.155 197.392 196.945 197.868 196.767C198.353 196.59 198.867 196.501 199.408 196.501C200.267 196.501 200.906 196.758 201.326 197.271C201.755 197.775 201.97 198.508 201.97 199.469V203.543H200.64L200.528 202.787H200.472C200.164 203.049 199.833 203.268 199.478 203.445C199.133 203.623 198.755 203.711 198.344 203.711ZM198.862 202.451C199.142 202.451 199.394 202.386 199.618 202.255C199.851 202.115 200.099 201.929 200.36 201.695V200.155C199.427 200.277 198.778 200.459 198.414 200.701C198.05 200.935 197.868 201.224 197.868 201.569C197.868 201.877 197.961 202.101 198.148 202.241C198.335 202.381 198.573 202.451 198.862 202.451ZM203.897 203.543V196.669H205.227L205.339 197.593H205.395C205.703 197.295 206.039 197.038 206.403 196.823C206.767 196.609 207.182 196.501 207.649 196.501C208.386 196.501 208.923 196.739 209.259 197.215C209.595 197.691 209.763 198.363 209.763 199.231V203.543H208.153V199.441C208.153 198.872 208.069 198.471 207.901 198.237C207.733 198.004 207.457 197.887 207.075 197.887C206.776 197.887 206.51 197.962 206.277 198.111C206.053 198.251 205.796 198.461 205.507 198.741V203.543H203.897ZM214.545 203.711C213.975 203.711 213.443 203.571 212.949 203.291C212.454 203.002 212.053 202.591 211.745 202.059C211.437 201.518 211.283 200.869 211.283 200.113C211.283 199.348 211.437 198.699 211.745 198.167C212.053 197.626 212.454 197.215 212.949 196.935C213.443 196.646 213.975 196.501 214.545 196.501C215.123 196.501 215.66 196.646 216.155 196.935C216.649 197.215 217.051 197.626 217.359 198.167C217.667 198.699 217.821 199.348 217.821 200.113C217.821 200.869 217.667 201.518 217.359 202.059C217.051 202.591 216.649 203.002 216.155 203.291C215.66 203.571 215.123 203.711 214.545 203.711ZM214.545 202.395C215.049 202.395 215.445 202.185 215.735 201.765C216.024 201.345 216.169 200.795 216.169 200.113C216.169 199.423 216.024 198.867 215.735 198.447C215.445 198.027 215.049 197.817 214.545 197.817C214.041 197.817 213.644 198.027 213.355 198.447C213.075 198.867 212.935 199.423 212.935 200.113C212.935 200.795 213.075 201.345 213.355 201.765C213.644 202.185 214.041 202.395 214.545 202.395ZM221.522 203.711C220.729 203.711 220.164 203.483 219.828 203.025C219.501 202.559 219.338 201.957 219.338 201.219V197.943H218.358V196.739L219.422 196.669L219.618 194.793H220.962V196.669H222.712V197.943H220.962V201.219C220.962 202.022 221.284 202.423 221.928 202.423C222.049 202.423 222.175 202.409 222.306 202.381C222.437 202.344 222.549 202.307 222.642 202.269L222.922 203.459C222.735 203.525 222.521 203.581 222.278 203.627C222.045 203.683 221.793 203.711 221.522 203.711ZM224.158 203.543V193.659H225.768V196.207L225.712 197.537C226.002 197.267 226.324 197.029 226.678 196.823C227.033 196.609 227.444 196.501 227.91 196.501C228.648 196.501 229.184 196.739 229.52 197.215C229.856 197.691 230.024 198.363 230.024 199.231V203.543H228.414V199.441C228.414 198.872 228.33 198.471 228.162 198.237C227.994 198.004 227.719 197.887 227.336 197.887C227.038 197.887 226.772 197.962 226.538 198.111C226.314 198.251 226.058 198.461 225.768 198.741V203.543H224.158ZM234.905 203.711C234.27 203.711 233.696 203.571 233.183 203.291C232.67 203.002 232.264 202.591 231.965 202.059C231.666 201.518 231.517 200.869 231.517 200.113C231.517 199.367 231.666 198.723 231.965 198.181C232.273 197.64 232.67 197.225 233.155 196.935C233.64 196.646 234.149 196.501 234.681 196.501C235.306 196.501 235.829 196.641 236.249 196.921C236.669 197.192 236.986 197.575 237.201 198.069C237.416 198.555 237.523 199.119 237.523 199.763C237.523 200.099 237.5 200.361 237.453 200.547H233.085C233.16 201.154 233.379 201.625 233.743 201.961C234.107 202.297 234.564 202.465 235.115 202.465C235.414 202.465 235.689 202.423 235.941 202.339C236.202 202.246 236.459 202.12 236.711 201.961L237.257 202.969C236.93 203.184 236.566 203.361 236.165 203.501C235.764 203.641 235.344 203.711 234.905 203.711ZM233.071 199.455H236.123C236.123 198.923 236.006 198.508 235.773 198.209C235.54 197.901 235.19 197.747 234.723 197.747C234.322 197.747 233.962 197.897 233.645 198.195C233.337 198.485 233.146 198.905 233.071 199.455ZM239.061 203.543V196.669H240.391L240.503 197.887H240.559C240.801 197.439 241.095 197.099 241.441 196.865C241.786 196.623 242.141 196.501 242.505 196.501C242.831 196.501 243.093 196.548 243.289 196.641L243.009 198.041C242.887 198.004 242.775 197.976 242.673 197.957C242.57 197.939 242.444 197.929 242.295 197.929C242.024 197.929 241.739 198.037 241.441 198.251C241.142 198.457 240.885 198.821 240.671 199.343V203.543H239.061ZM249.494 203.711C248.636 203.711 247.95 203.394 247.436 202.759C246.923 202.125 246.666 201.243 246.666 200.113C246.666 199.367 246.802 198.723 247.072 198.181C247.352 197.64 247.716 197.225 248.164 196.935C248.612 196.646 249.084 196.501 249.578 196.501C249.97 196.501 250.302 196.571 250.572 196.711C250.852 196.842 251.123 197.024 251.384 197.257L251.328 196.151V193.659H252.938V203.543H251.608L251.496 202.801H251.44C251.188 203.053 250.894 203.268 250.558 203.445C250.222 203.623 249.868 203.711 249.494 203.711ZM249.886 202.381C250.4 202.381 250.88 202.125 251.328 201.611V198.405C251.095 198.191 250.862 198.041 250.628 197.957C250.395 197.873 250.162 197.831 249.928 197.831C249.49 197.831 249.112 198.032 248.794 198.433C248.486 198.825 248.332 199.381 248.332 200.099C248.332 200.837 248.468 201.401 248.738 201.793C249.009 202.185 249.392 202.381 249.886 202.381ZM257.929 203.711C257.294 203.711 256.72 203.571 256.207 203.291C255.693 203.002 255.287 202.591 254.989 202.059C254.69 201.518 254.541 200.869 254.541 200.113C254.541 199.367 254.69 198.723 254.989 198.181C255.297 197.64 255.693 197.225 256.179 196.935C256.664 196.646 257.173 196.501 257.705 196.501C258.33 196.501 258.853 196.641 259.273 196.921C259.693 197.192 260.01 197.575 260.225 198.069C260.439 198.555 260.547 199.119 260.547 199.763C260.547 200.099 260.523 200.361 260.477 200.547H256.109C256.183 201.154 256.403 201.625 256.767 201.961C257.131 202.297 257.588 202.465 258.139 202.465C258.437 202.465 258.713 202.423 258.965 202.339C259.226 202.246 259.483 202.12 259.735 201.961L260.281 202.969C259.954 203.184 259.59 203.361 259.189 203.501C258.787 203.641 258.367 203.711 257.929 203.711ZM256.095 199.455H259.147C259.147 198.923 259.03 198.508 258.797 198.209C258.563 197.901 258.213 197.747 257.747 197.747C257.345 197.747 256.986 197.897 256.669 198.195C256.361 198.485 256.169 198.905 256.095 199.455ZM262.084 206.259V196.669H263.414L263.526 197.397H263.582C263.872 197.155 264.194 196.945 264.548 196.767C264.912 196.59 265.281 196.501 265.654 196.501C266.513 196.501 267.176 196.819 267.642 197.453C268.118 198.088 268.356 198.937 268.356 200.001C268.356 200.785 268.216 201.457 267.936 202.017C267.656 202.568 267.292 202.988 266.844 203.277C266.406 203.567 265.93 203.711 265.416 203.711C265.118 203.711 264.819 203.646 264.52 203.515C264.222 203.375 263.932 203.189 263.652 202.955L263.694 204.103V206.259H262.084ZM265.08 202.381C265.538 202.381 265.92 202.181 266.228 201.779C266.536 201.378 266.69 200.79 266.69 200.015C266.69 199.325 266.574 198.788 266.34 198.405C266.107 198.023 265.729 197.831 265.206 197.831C264.721 197.831 264.217 198.088 263.694 198.601V201.807C263.946 202.013 264.189 202.162 264.422 202.255C264.656 202.339 264.875 202.381 265.08 202.381ZM271.489 203.711C270.891 203.711 270.401 203.525 270.019 203.151C269.645 202.778 269.459 202.293 269.459 201.695C269.459 200.958 269.781 200.389 270.425 199.987C271.069 199.577 272.095 199.297 273.505 199.147C273.495 198.783 273.397 198.471 273.211 198.209C273.033 197.939 272.711 197.803 272.245 197.803C271.909 197.803 271.577 197.869 271.251 197.999C270.933 198.13 270.621 198.289 270.313 198.475L269.725 197.397C270.107 197.155 270.537 196.945 271.013 196.767C271.498 196.59 272.011 196.501 272.553 196.501C273.411 196.501 274.051 196.758 274.471 197.271C274.9 197.775 275.115 198.508 275.115 199.469V203.543H273.785L273.673 202.787H273.617C273.309 203.049 272.977 203.268 272.623 203.445C272.277 203.623 271.899 203.711 271.489 203.711ZM272.007 202.451C272.287 202.451 272.539 202.386 272.763 202.255C272.996 202.115 273.243 201.929 273.505 201.695V200.155C272.571 200.277 271.923 200.459 271.559 200.701C271.195 200.935 271.013 201.224 271.013 201.569C271.013 201.877 271.106 202.101 271.293 202.241C271.479 202.381 271.717 202.451 272.007 202.451ZM277.041 203.543V196.669H278.371L278.483 197.887H278.539C278.782 197.439 279.076 197.099 279.421 196.865C279.767 196.623 280.121 196.501 280.485 196.501C280.812 196.501 281.073 196.548 281.269 196.641L280.989 198.041C280.868 198.004 280.756 197.976 280.653 197.957C280.551 197.939 280.425 197.929 280.275 197.929C280.005 197.929 279.72 198.037 279.421 198.251C279.123 198.457 278.866 198.821 278.651 199.343V203.543H277.041ZM284.686 203.711C283.893 203.711 283.328 203.483 282.992 203.025C282.665 202.559 282.502 201.957 282.502 201.219V197.943H281.522V196.739L282.586 196.669L282.782 194.793H284.126V196.669H285.876V197.943H284.126V201.219C284.126 202.022 284.448 202.423 285.092 202.423C285.213 202.423 285.339 202.409 285.47 202.381C285.601 202.344 285.713 202.307 285.806 202.269L286.086 203.459C285.899 203.525 285.685 203.581 285.442 203.627C285.209 203.683 284.957 203.711 284.686 203.711ZM289.367 203.711C288.629 203.711 288.093 203.473 287.757 202.997C287.421 202.521 287.253 201.849 287.253 200.981V196.669H288.863V200.771C288.863 201.341 288.947 201.742 289.115 201.975C289.283 202.209 289.553 202.325 289.927 202.325C290.225 202.325 290.487 202.251 290.711 202.101C290.944 201.952 291.191 201.709 291.453 201.373V196.669H293.063V203.543H291.747L291.621 202.535H291.579C291.28 202.89 290.953 203.175 290.599 203.389C290.244 203.604 289.833 203.711 289.367 203.711ZM295.102 203.543V196.669H296.432L296.544 197.887H296.6C296.843 197.439 297.137 197.099 297.482 196.865C297.827 196.623 298.182 196.501 298.546 196.501C298.873 196.501 299.134 196.548 299.33 196.641L299.05 198.041C298.929 198.004 298.817 197.976 298.714 197.957C298.611 197.939 298.485 197.929 298.336 197.929C298.065 197.929 297.781 198.037 297.482 198.251C297.183 198.457 296.927 198.821 296.712 199.343V203.543H295.102ZM303.128 203.711C302.493 203.711 301.919 203.571 301.406 203.291C300.892 203.002 300.486 202.591 300.188 202.059C299.889 201.518 299.74 200.869 299.74 200.113C299.74 199.367 299.889 198.723 300.188 198.181C300.496 197.64 300.892 197.225 301.378 196.935C301.863 196.646 302.372 196.501 302.904 196.501C303.529 196.501 304.052 196.641 304.472 196.921C304.892 197.192 305.209 197.575 305.424 198.069C305.638 198.555 305.746 199.119 305.746 199.763C305.746 200.099 305.722 200.361 305.676 200.547H301.308C301.382 201.154 301.602 201.625 301.966 201.961C302.33 202.297 302.787 202.465 303.338 202.465C303.636 202.465 303.912 202.423 304.164 202.339C304.425 202.246 304.682 202.12 304.934 201.961L305.48 202.969C305.153 203.184 304.789 203.361 304.388 203.501C303.986 203.641 303.566 203.711 303.128 203.711ZM301.294 199.455H304.346C304.346 198.923 304.229 198.508 303.996 198.209C303.762 197.901 303.412 197.747 302.946 197.747C302.544 197.747 302.185 197.897 301.868 198.195C301.56 198.485 301.368 198.905 301.294 199.455ZM311.654 203.711C311.085 203.711 310.679 203.539 310.436 203.193C310.203 202.848 310.086 202.377 310.086 201.779V193.659H311.696V201.863C311.696 202.059 311.734 202.199 311.808 202.283C311.883 202.358 311.962 202.395 312.046 202.395C312.084 202.395 312.116 202.395 312.144 202.395C312.182 202.386 312.233 202.377 312.298 202.367L312.508 203.571C312.415 203.609 312.294 203.641 312.144 203.669C312.004 203.697 311.841 203.711 311.654 203.711ZM316.701 203.711C316.132 203.711 315.6 203.571 315.105 203.291C314.61 203.002 314.209 202.591 313.901 202.059C313.593 201.518 313.439 200.869 313.439 200.113C313.439 199.348 313.593 198.699 313.901 198.167C314.209 197.626 314.61 197.215 315.105 196.935C315.6 196.646 316.132 196.501 316.701 196.501C317.28 196.501 317.816 196.646 318.311 196.935C318.806 197.215 319.207 197.626 319.515 198.167C319.823 198.699 319.977 199.348 319.977 200.113C319.977 200.869 319.823 201.518 319.515 202.059C319.207 202.591 318.806 203.002 318.311 203.291C317.816 203.571 317.28 203.711 316.701 203.711ZM316.701 202.395C317.205 202.395 317.602 202.185 317.891 201.765C318.18 201.345 318.325 200.795 318.325 200.113C318.325 199.423 318.18 198.867 317.891 198.447C317.602 198.027 317.205 197.817 316.701 197.817C316.197 197.817 315.8 198.027 315.511 198.447C315.231 198.867 315.091 199.423 315.091 200.113C315.091 200.795 315.231 201.345 315.511 201.765C315.8 202.185 316.197 202.395 316.701 202.395ZM324.441 203.711C323.815 203.711 323.251 203.571 322.747 203.291C322.252 203.002 321.855 202.591 321.557 202.059C321.267 201.518 321.123 200.869 321.123 200.113C321.123 199.348 321.281 198.699 321.599 198.167C321.916 197.626 322.336 197.215 322.859 196.935C323.391 196.646 323.96 196.501 324.567 196.501C325.005 196.501 325.388 196.576 325.715 196.725C326.041 196.875 326.331 197.057 326.583 197.271L325.799 198.321C325.621 198.163 325.439 198.041 325.253 197.957C325.066 197.864 324.865 197.817 324.651 197.817C324.1 197.817 323.647 198.027 323.293 198.447C322.947 198.867 322.775 199.423 322.775 200.113C322.775 200.795 322.943 201.345 323.279 201.765C323.624 202.185 324.067 202.395 324.609 202.395C324.879 202.395 325.131 202.339 325.365 202.227C325.607 202.106 325.827 201.966 326.023 201.807L326.681 202.871C326.363 203.151 326.009 203.361 325.617 203.501C325.225 203.641 324.833 203.711 324.441 203.711ZM329.567 203.711C328.969 203.711 328.479 203.525 328.097 203.151C327.723 202.778 327.537 202.293 327.537 201.695C327.537 200.958 327.859 200.389 328.503 199.987C329.147 199.577 330.173 199.297 331.583 199.147C331.573 198.783 331.475 198.471 331.289 198.209C331.111 197.939 330.789 197.803 330.323 197.803C329.987 197.803 329.655 197.869 329.329 197.999C329.011 198.13 328.699 198.289 328.391 198.475L327.803 197.397C328.185 197.155 328.615 196.945 329.091 196.767C329.576 196.59 330.089 196.501 330.631 196.501C331.489 196.501 332.129 196.758 332.549 197.271C332.978 197.775 333.193 198.508 333.193 199.469V203.543H331.863L331.751 202.787H331.695C331.387 203.049 331.055 203.268 330.701 203.445C330.355 203.623 329.977 203.711 329.567 203.711ZM330.085 202.451C330.365 202.451 330.617 202.386 330.841 202.255C331.074 202.115 331.321 201.929 331.583 201.695V200.155C330.649 200.277 330.001 200.459 329.637 200.701C329.273 200.935 329.091 201.224 329.091 201.569C329.091 201.877 329.184 202.101 329.371 202.241C329.557 202.381 329.795 202.451 330.085 202.451ZM337.323 203.711C336.529 203.711 335.965 203.483 335.629 203.025C335.302 202.559 335.139 201.957 335.139 201.219V197.943H334.159V196.739L335.223 196.669L335.419 194.793H336.763V196.669H338.513V197.943H336.763V201.219C336.763 202.022 337.085 202.423 337.729 202.423C337.85 202.423 337.976 202.409 338.107 202.381C338.237 202.344 338.349 202.307 338.443 202.269L338.723 203.459C338.536 203.525 338.321 203.581 338.079 203.627C337.845 203.683 337.593 203.711 337.323 203.711ZM339.959 203.543V196.669H341.569V203.543H339.959ZM340.771 195.465C340.482 195.465 340.249 195.381 340.071 195.213C339.894 195.045 339.805 194.821 339.805 194.541C339.805 194.271 339.894 194.051 340.071 193.883C340.249 193.715 340.482 193.631 340.771 193.631C341.061 193.631 341.294 193.715 341.471 193.883C341.649 194.051 341.737 194.271 341.737 194.541C341.737 194.821 341.649 195.045 341.471 195.213C341.294 195.381 341.061 195.465 340.771 195.465ZM346.437 203.711C345.868 203.711 345.336 203.571 344.841 203.291C344.347 203.002 343.945 202.591 343.637 202.059C343.329 201.518 343.175 200.869 343.175 200.113C343.175 199.348 343.329 198.699 343.637 198.167C343.945 197.626 344.347 197.215 344.841 196.935C345.336 196.646 345.868 196.501 346.437 196.501C347.016 196.501 347.553 196.646 348.047 196.935C348.542 197.215 348.943 197.626 349.251 198.167C349.559 198.699 349.713 199.348 349.713 200.113C349.713 200.869 349.559 201.518 349.251 202.059C348.943 202.591 348.542 203.002 348.047 203.291C347.553 203.571 347.016 203.711 346.437 203.711ZM346.437 202.395C346.941 202.395 347.338 202.185 347.627 201.765C347.917 201.345 348.061 200.795 348.061 200.113C348.061 199.423 347.917 198.867 347.627 198.447C347.338 198.027 346.941 197.817 346.437 197.817C345.933 197.817 345.537 198.027 345.247 198.447C344.967 198.867 344.827 199.423 344.827 200.113C344.827 200.795 344.967 201.345 345.247 201.765C345.537 202.185 345.933 202.395 346.437 202.395ZM351.307 203.543V196.669H352.637L352.749 197.593H352.805C353.113 197.295 353.449 197.038 353.813 196.823C354.177 196.609 354.592 196.501 355.059 196.501C355.796 196.501 356.333 196.739 356.669 197.215C357.005 197.691 357.173 198.363 357.173 199.231V203.543H355.563V199.441C355.563 198.872 355.479 198.471 355.311 198.237C355.143 198.004 354.868 197.887 354.485 197.887C354.186 197.887 353.92 197.962 353.687 198.111C353.463 198.251 353.206 198.461 352.917 198.741V203.543H351.307Z" fill="#576372"/>
</svg>
