<svg width="37" height="37" viewBox="0 0 37 37" fill="none" xmlns="http://www.w3.org/2000/svg">
<circle cx="18.5" cy="18.5" r="18.5" fill="#B0B0B0"/>
<path d="M17.5423 27.336C16.1049 27.336 14.8916 27.0933 13.9023 26.608C12.9316 26.104 12.1289 25.5067 11.4943 24.816L13.0343 22.744C13.5756 23.2853 14.1916 23.752 14.8823 24.144C15.5729 24.5173 16.3663 24.704 17.2623 24.704C18.2329 24.704 19.0169 24.4707 19.6143 24.004C20.2303 23.5187 20.5383 22.856 20.5383 22.016C20.5383 21.4 20.3796 20.868 20.0623 20.42C19.7636 19.9533 19.2316 19.5987 18.4663 19.356C17.7196 19.1133 16.6649 18.992 15.3023 18.992V16.64C17.0569 16.64 18.2703 16.3693 18.9423 15.828C19.6143 15.2867 19.9503 14.6053 19.9503 13.784C19.9503 13.0373 19.7169 12.4587 19.2503 12.048C18.7836 11.6187 18.1396 11.404 17.3183 11.404C16.6276 11.404 15.9929 11.5627 15.4143 11.88C14.8356 12.1787 14.2756 12.58 13.7343 13.084L12.0823 11.096C12.8476 10.424 13.6596 9.88267 14.5183 9.472C15.3956 9.06133 16.3663 8.856 17.4303 8.856C19.1476 8.856 20.5383 9.26667 21.6023 10.088C22.6663 10.8907 23.1983 12.048 23.1983 13.56C23.1983 14.5493 22.9183 15.3893 22.3583 16.08C21.8169 16.752 21.0609 17.2747 20.0903 17.648V17.76C21.1356 18.04 22.0129 18.5533 22.7223 19.3C23.4316 20.0467 23.7863 21.008 23.7863 22.184C23.7863 23.2667 23.4969 24.1907 22.9183 24.956C22.3583 25.7213 21.6023 26.3093 20.6503 26.72C19.7169 27.1307 18.6809 27.336 17.5423 27.336Z" fill="white"/>
</svg>
