<svg width="37" height="37" viewBox="0 0 37 37" fill="none" xmlns="http://www.w3.org/2000/svg">
<circle cx="18.5" cy="18.5" r="18.5" fill="#B0B0B0"/>
<path d="M11.8863 27V25.124C13.5476 23.5187 14.9756 22.0907 16.1703 20.84C17.3836 19.5707 18.3169 18.4227 18.9703 17.396C19.6236 16.3507 19.9503 15.38 19.9503 14.484C19.9503 13.5507 19.6983 12.804 19.1943 12.244C18.6903 11.684 17.9623 11.404 17.0103 11.404C16.3196 11.404 15.6849 11.6 15.1063 11.992C14.5463 12.384 14.0236 12.8507 13.5383 13.392L11.7463 11.6C12.5676 10.7227 13.4169 10.0507 14.2943 9.584C15.1716 9.09867 16.2169 8.856 17.4303 8.856C19.1476 8.856 20.5103 9.35067 21.5183 10.34C22.5449 11.3293 23.0583 12.6547 23.0583 14.316C23.0583 15.3613 22.7596 16.4347 22.1623 17.536C21.5836 18.6187 20.7996 19.7293 19.8103 20.868C18.8396 22.0067 17.7663 23.2013 16.5903 24.452C17.0569 24.4147 17.5609 24.3773 18.1023 24.34C18.6436 24.284 19.1289 24.256 19.5583 24.256H23.9263V27H11.8863Z" fill="white"/>
</svg>
