<svg width="649" height="318" viewBox="0 0 649 318" fill="none" xmlns="http://www.w3.org/2000/svg">
<rect y="0.956787" width="649" height="317" rx="5" fill="#FAFAFA"/>
<path d="M95.5 83C95.5 81.067 97.067 79.5 99 79.5H266C267.933 79.5 269.5 81.067 269.5 83V284C269.5 285.933 267.933 287.5 266 287.5H99C97.067 287.5 95.5 285.933 95.5 284V83Z" fill="white"/>
<path d="M95.5 83C95.5 81.067 97.067 79.5 99 79.5H266C267.933 79.5 269.5 81.067 269.5 83V284C269.5 285.933 267.933 287.5 266 287.5H99C97.067 287.5 95.5 285.933 95.5 284V83Z" stroke="#B9BDC5"/>
<path d="M95 83C95 80.7909 96.7909 79 99 79H266C268.209 79 270 80.7909 270 83V86C270 88.2091 268.209 90 266 90H99C96.7909 90 95 88.2091 95 86V83Z" fill="white"/>
<path fill-rule="evenodd" clip-rule="evenodd" d="M106 98C106 95.7909 107.791 94 110 94H255C257.209 94 259 95.7909 259 98V228C259 230.209 257.209 232 255 232H110C107.791 232 106 230.209 106 228V98Z" fill="#BAA795"/>
<path fill-rule="evenodd" clip-rule="evenodd" d="M197.087 128C196.309 128 195.684 128.63 195.684 129.403V133.61H212.514V129.403C212.514 128.63 211.89 128 211.112 128H197.087ZM195.684 136.415C195.684 141.055 199.459 144.83 204.099 144.83C208.74 144.83 212.514 141.055 212.514 136.415H195.684ZM148 143.427V140.622H166.32C169.405 140.622 172.105 142.589 173.026 145.531L176.576 156.882C176.603 156.97 176.636 157.085 176.664 157.189L179.819 167.27C180.115 168.217 180.258 169.209 180.258 170.206V193.917C180.258 196.234 178.367 198.125 176.05 198.125H170.44C168.123 198.125 166.233 196.234 166.233 193.917V191.112H148V163.062H169.388C171.448 163.062 172.845 162.569 173.552 161.616C174.406 160.471 174.187 158.833 173.99 158.022L170.352 146.364C169.799 144.599 168.172 143.427 166.32 143.427H148ZM196.386 146.232C192.135 146.232 188.672 149.695 188.672 153.946V174.282C188.672 175.833 189.927 177.087 191.477 177.087C193.028 177.087 194.282 175.833 194.282 174.282V157.452C194.282 157.074 194.606 156.751 194.984 156.751C195.362 156.751 195.685 157.074 195.685 157.452V194.356C195.685 196.547 196.863 198.125 199.06 198.125C201.136 198.125 202.697 196.514 202.697 194.356V175.246C202.697 174.857 203.015 174.545 203.399 174.545C203.782 174.545 204.1 174.857 204.1 175.246V194.75C204.103 194.755 204.112 194.753 204.122 194.75C204.131 194.747 204.141 194.745 204.144 194.75C204.335 196.689 205.798 198.125 207.738 198.125C209.929 198.125 211.112 196.547 211.112 194.356V157.452C211.112 157.074 211.436 156.751 211.814 156.751C212.192 156.751 212.515 157.074 212.515 157.452V174.282C212.515 175.833 213.769 177.087 215.32 177.087C216.87 177.087 218.125 175.833 218.125 174.282V153.946C218.125 149.695 214.662 146.232 210.411 146.232H209.622L204.1 161.66L198.578 146.232H196.386ZM173.245 177.087C173.245 174.764 171.36 172.88 169.037 172.88C166.983 172.88 166.193 173.336 164.403 174.369C164.145 174.518 163.865 174.679 163.559 174.852C161.931 175.773 160.622 176.655 160.622 178.49C160.622 180.04 161.877 181.295 163.427 181.295H169.037C171.36 181.295 173.245 179.41 173.245 177.087Z" fill="white"/>
<path d="M95 240C95 237.791 96.7909 236 99 236H266C268.209 236 270 237.791 270 240V272C270 274.209 268.209 276 266 276H99C96.7909 276 95 274.209 95 272V240Z" fill="white"/>
<path d="M113.2 266L109.936 255.536H111.904L113.376 260.8C113.547 261.387 113.701 261.952 113.84 262.496C113.979 263.04 114.133 263.611 114.304 264.208H114.368C114.549 263.611 114.704 263.04 114.832 262.496C114.971 261.952 115.12 261.387 115.28 260.8L116.736 255.536H118.64L115.392 266H113.2ZM120.541 266.192C119.859 266.192 119.299 265.979 118.861 265.552C118.435 265.125 118.221 264.571 118.221 263.888C118.221 263.045 118.589 262.395 119.325 261.936C120.061 261.467 121.235 261.147 122.845 260.976C122.835 260.56 122.723 260.203 122.509 259.904C122.307 259.595 121.939 259.44 121.405 259.44C121.021 259.44 120.643 259.515 120.269 259.664C119.907 259.813 119.549 259.995 119.197 260.208L118.525 258.976C118.963 258.699 119.453 258.459 119.997 258.256C120.552 258.053 121.139 257.952 121.757 257.952C122.739 257.952 123.469 258.245 123.949 258.832C124.44 259.408 124.685 260.245 124.685 261.344V266H123.165L123.037 265.136H122.973C122.621 265.435 122.243 265.685 121.837 265.888C121.443 266.091 121.011 266.192 120.541 266.192ZM121.133 264.752C121.453 264.752 121.741 264.677 121.997 264.528C122.264 264.368 122.547 264.155 122.845 263.888V262.128C121.779 262.267 121.037 262.475 120.621 262.752C120.205 263.019 119.997 263.349 119.997 263.744C119.997 264.096 120.104 264.352 120.317 264.512C120.531 264.672 120.803 264.752 121.133 264.752ZM128.039 266.192C127.389 266.192 126.925 265.995 126.647 265.6C126.381 265.205 126.247 264.667 126.247 263.984V254.704H128.087V264.08C128.087 264.304 128.13 264.464 128.215 264.56C128.301 264.645 128.391 264.688 128.487 264.688C128.53 264.688 128.567 264.688 128.599 264.688C128.642 264.677 128.701 264.667 128.775 264.656L129.015 266.032C128.909 266.075 128.77 266.112 128.599 266.144C128.439 266.176 128.253 266.192 128.039 266.192ZM133.311 266.192C132.586 266.192 131.93 266.032 131.343 265.712C130.756 265.381 130.292 264.912 129.951 264.304C129.61 263.685 129.439 262.944 129.439 262.08C129.439 261.227 129.61 260.491 129.951 259.872C130.303 259.253 130.756 258.779 131.311 258.448C131.866 258.117 132.447 257.952 133.055 257.952C133.77 257.952 134.367 258.112 134.847 258.432C135.327 258.741 135.69 259.179 135.935 259.744C136.18 260.299 136.303 260.944 136.303 261.68C136.303 262.064 136.276 262.363 136.223 262.576H131.231C131.316 263.269 131.567 263.808 131.983 264.192C132.399 264.576 132.922 264.768 133.551 264.768C133.892 264.768 134.207 264.72 134.495 264.624C134.794 264.517 135.087 264.373 135.375 264.192L135.999 265.344C135.626 265.589 135.21 265.792 134.751 265.952C134.292 266.112 133.812 266.192 133.311 266.192ZM131.215 261.328H134.703C134.703 260.72 134.57 260.245 134.303 259.904C134.036 259.552 133.636 259.376 133.103 259.376C132.644 259.376 132.234 259.547 131.871 259.888C131.519 260.219 131.3 260.699 131.215 261.328ZM140.032 266.192C139.126 266.192 138.48 265.931 138.096 265.408C137.723 264.875 137.536 264.187 137.536 263.344V259.6H136.416V258.224L137.632 258.144L137.856 256H139.392V258.144H141.392V259.6H139.392V263.344C139.392 264.261 139.76 264.72 140.496 264.72C140.635 264.72 140.779 264.704 140.928 264.672C141.078 264.629 141.206 264.587 141.312 264.544L141.632 265.904C141.419 265.979 141.174 266.043 140.896 266.096C140.63 266.16 140.342 266.192 140.032 266.192Z" fill="#354052"/>
<circle cx="248.5" cy="260" r="9" fill="white" stroke="#B9BDC5"/>
<path d="M247.863 266.588V261.128H242.767V259.392H247.863V253.932H249.683V259.392H254.779V261.128H249.683V266.588H247.863Z" fill="#354052"/>
<path d="M379.5 83C379.5 81.067 381.067 79.5 383 79.5H550C551.933 79.5 553.5 81.067 553.5 83V284C553.5 285.933 551.933 287.5 550 287.5H383C381.067 287.5 379.5 285.933 379.5 284V83Z" fill="white"/>
<path d="M379.5 83C379.5 81.067 381.067 79.5 383 79.5H550C551.933 79.5 553.5 81.067 553.5 83V284C553.5 285.933 551.933 287.5 550 287.5H383C381.067 287.5 379.5 285.933 379.5 284V83Z" stroke="#B9BDC5"/>
<path d="M379 83C379 80.7909 380.791 79 383 79H550C552.209 79 554 80.7909 554 83V86C554 88.2091 552.209 90 550 90H383C380.791 90 379 88.2091 379 86V83Z" fill="white"/>
<path fill-rule="evenodd" clip-rule="evenodd" d="M390 98C390 95.7909 391.791 94 394 94H539C541.209 94 543 95.7909 543 98V228C543 230.209 541.209 232 539 232H394C391.791 232 390 230.209 390 228V98Z" fill="#BAA795"/>
<path fill-rule="evenodd" clip-rule="evenodd" d="M481.087 128C480.309 128 479.684 128.63 479.684 129.403V133.61H496.514V129.403C496.514 128.63 495.89 128 495.112 128H481.087ZM479.684 136.415C479.684 141.055 483.459 144.83 488.099 144.83C492.74 144.83 496.514 141.055 496.514 136.415H479.684ZM432 143.427V140.622H450.32C453.405 140.622 456.105 142.589 457.026 145.531L460.576 156.882C460.603 156.97 460.636 157.085 460.664 157.189L463.819 167.27C464.115 168.217 464.258 169.209 464.258 170.206V193.917C464.258 196.234 462.367 198.125 460.05 198.125H454.44C452.123 198.125 450.233 196.234 450.233 193.917V191.112H432V163.062H453.388C455.448 163.062 456.845 162.569 457.552 161.616C458.406 160.471 458.187 158.833 457.99 158.022L454.352 146.364C453.799 144.599 452.172 143.427 450.32 143.427H432ZM480.386 146.232C476.135 146.232 472.672 149.695 472.672 153.946V174.282C472.672 175.833 473.927 177.087 475.477 177.087C477.028 177.087 478.282 175.833 478.282 174.282V157.452C478.282 157.074 478.606 156.751 478.984 156.751C479.362 156.751 479.685 157.074 479.685 157.452V194.356C479.685 196.547 480.863 198.125 483.06 198.125C485.136 198.125 486.697 196.514 486.697 194.356V175.246C486.697 174.857 487.015 174.545 487.399 174.545C487.782 174.545 488.1 174.857 488.1 175.246V194.75C488.103 194.755 488.112 194.753 488.122 194.75C488.131 194.747 488.141 194.745 488.144 194.75C488.335 196.689 489.798 198.125 491.738 198.125C493.929 198.125 495.112 196.547 495.112 194.356V157.452C495.112 157.074 495.436 156.751 495.814 156.751C496.192 156.751 496.515 157.074 496.515 157.452V174.282C496.515 175.833 497.769 177.087 499.32 177.087C500.87 177.087 502.125 175.833 502.125 174.282V153.946C502.125 149.695 498.662 146.232 494.411 146.232H493.622L488.1 161.66L482.578 146.232H480.386ZM457.245 177.087C457.245 174.764 455.36 172.88 453.037 172.88C450.983 172.88 450.193 173.336 448.403 174.369C448.145 174.518 447.865 174.679 447.559 174.852C445.931 175.773 444.622 176.655 444.622 178.49C444.622 180.04 445.877 181.295 447.427 181.295H453.037C455.36 181.295 457.245 179.41 457.245 177.087Z" fill="white"/>
<path d="M379 240C379 237.791 380.791 236 383 236H550C552.209 236 554 237.791 554 240V272C554 274.209 552.209 276 550 276H383C380.791 276 379 274.209 379 272V240Z" fill="white"/>
<path d="M397.2 266L393.936 255.536H395.904L397.376 260.8C397.547 261.387 397.701 261.952 397.84 262.496C397.979 263.04 398.133 263.611 398.304 264.208H398.368C398.549 263.611 398.704 263.04 398.832 262.496C398.971 261.952 399.12 261.387 399.28 260.8L400.736 255.536H402.64L399.392 266H397.2ZM404.541 266.192C403.859 266.192 403.299 265.979 402.861 265.552C402.435 265.125 402.221 264.571 402.221 263.888C402.221 263.045 402.589 262.395 403.325 261.936C404.061 261.467 405.235 261.147 406.845 260.976C406.835 260.56 406.723 260.203 406.509 259.904C406.307 259.595 405.939 259.44 405.405 259.44C405.021 259.44 404.643 259.515 404.269 259.664C403.907 259.813 403.549 259.995 403.197 260.208L402.525 258.976C402.963 258.699 403.453 258.459 403.997 258.256C404.552 258.053 405.139 257.952 405.757 257.952C406.739 257.952 407.469 258.245 407.949 258.832C408.44 259.408 408.685 260.245 408.685 261.344V266H407.165L407.037 265.136H406.973C406.621 265.435 406.243 265.685 405.837 265.888C405.443 266.091 405.011 266.192 404.541 266.192ZM405.133 264.752C405.453 264.752 405.741 264.677 405.997 264.528C406.264 264.368 406.547 264.155 406.845 263.888V262.128C405.779 262.267 405.037 262.475 404.621 262.752C404.205 263.019 403.997 263.349 403.997 263.744C403.997 264.096 404.104 264.352 404.317 264.512C404.531 264.672 404.803 264.752 405.133 264.752ZM412.039 266.192C411.389 266.192 410.925 265.995 410.647 265.6C410.381 265.205 410.247 264.667 410.247 263.984V254.704H412.087V264.08C412.087 264.304 412.13 264.464 412.215 264.56C412.301 264.645 412.391 264.688 412.487 264.688C412.53 264.688 412.567 264.688 412.599 264.688C412.642 264.677 412.701 264.667 412.775 264.656L413.015 266.032C412.909 266.075 412.77 266.112 412.599 266.144C412.439 266.176 412.253 266.192 412.039 266.192ZM417.311 266.192C416.586 266.192 415.93 266.032 415.343 265.712C414.756 265.381 414.292 264.912 413.951 264.304C413.61 263.685 413.439 262.944 413.439 262.08C413.439 261.227 413.61 260.491 413.951 259.872C414.303 259.253 414.756 258.779 415.311 258.448C415.866 258.117 416.447 257.952 417.055 257.952C417.77 257.952 418.367 258.112 418.847 258.432C419.327 258.741 419.69 259.179 419.935 259.744C420.18 260.299 420.303 260.944 420.303 261.68C420.303 262.064 420.276 262.363 420.223 262.576H415.231C415.316 263.269 415.567 263.808 415.983 264.192C416.399 264.576 416.922 264.768 417.551 264.768C417.892 264.768 418.207 264.72 418.495 264.624C418.794 264.517 419.087 264.373 419.375 264.192L419.999 265.344C419.626 265.589 419.21 265.792 418.751 265.952C418.292 266.112 417.812 266.192 417.311 266.192ZM415.215 261.328H418.703C418.703 260.72 418.57 260.245 418.303 259.904C418.036 259.552 417.636 259.376 417.103 259.376C416.644 259.376 416.234 259.547 415.871 259.888C415.519 260.219 415.3 260.699 415.215 261.328ZM424.032 266.192C423.126 266.192 422.48 265.931 422.096 265.408C421.723 264.875 421.536 264.187 421.536 263.344V259.6H420.416V258.224L421.632 258.144L421.856 256H423.392V258.144H425.392V259.6H423.392V263.344C423.392 264.261 423.76 264.72 424.496 264.72C424.635 264.72 424.779 264.704 424.928 264.672C425.078 264.629 425.206 264.587 425.312 264.544L425.632 265.904C425.419 265.979 425.174 266.043 424.896 266.096C424.63 266.16 424.342 266.192 424.032 266.192Z" fill="#354052"/>
<path d="M98.808 45.168C98.164 45.168 97.5667 45.0467 97.016 44.804C96.4653 44.552 95.9893 44.2207 95.588 43.81L96.288 42.998C96.6147 43.3433 96.9973 43.6233 97.436 43.838C97.884 44.0433 98.346 44.146 98.822 44.146C99.4287 44.146 99.9 44.0107 100.236 43.74C100.572 43.46 100.74 43.096 100.74 42.648C100.74 42.3307 100.67 42.0787 100.53 41.892C100.399 41.7053 100.217 41.5467 99.984 41.416C99.76 41.2853 99.5033 41.1547 99.214 41.024L97.898 40.45C97.6087 40.3287 97.3193 40.17 97.03 39.974C96.75 39.778 96.512 39.526 96.316 39.218C96.1293 38.91 96.036 38.532 96.036 38.084C96.036 37.6173 96.1573 37.202 96.4 36.838C96.652 36.4647 96.9973 36.1753 97.436 35.97C97.8747 35.7553 98.3693 35.648 98.92 35.648C99.4707 35.648 99.9793 35.7553 100.446 35.97C100.913 36.1753 101.309 36.446 101.636 36.782L101.006 37.538C100.726 37.2673 100.413 37.0573 100.068 36.908C99.732 36.7493 99.3493 36.67 98.92 36.67C98.4067 36.67 97.9913 36.7913 97.674 37.034C97.366 37.2767 97.212 37.6033 97.212 38.014C97.212 38.3033 97.2867 38.546 97.436 38.742C97.5947 38.9287 97.7907 39.0827 98.024 39.204C98.2573 39.3253 98.4953 39.4373 98.738 39.54L100.04 40.1C100.395 40.2493 100.712 40.4313 100.992 40.646C101.281 40.8513 101.51 41.108 101.678 41.416C101.846 41.7147 101.93 42.0927 101.93 42.55C101.93 43.0353 101.804 43.4787 101.552 43.88C101.3 44.272 100.941 44.5847 100.474 44.818C100.007 45.0513 99.452 45.168 98.808 45.168ZM105.427 45.168C104.699 45.168 104.19 44.958 103.901 44.538C103.621 44.118 103.481 43.572 103.481 42.9V39.134H102.473V38.266L103.537 38.196L103.677 36.292H104.643V38.196H106.477V39.134H104.643V42.914C104.643 43.334 104.717 43.6607 104.867 43.894C105.025 44.118 105.301 44.23 105.693 44.23C105.814 44.23 105.945 44.2113 106.085 44.174C106.225 44.1273 106.351 44.0853 106.463 44.048L106.687 44.916C106.5 44.9813 106.295 45.0373 106.071 45.084C105.856 45.14 105.641 45.168 105.427 45.168ZM109.282 45.168C108.713 45.168 108.237 45 107.854 44.664C107.481 44.3187 107.294 43.8427 107.294 43.236C107.294 42.4893 107.626 41.92 108.288 41.528C108.96 41.1267 110.02 40.8467 111.466 40.688C111.466 40.3987 111.424 40.1233 111.34 39.862C111.266 39.6007 111.126 39.3907 110.92 39.232C110.724 39.064 110.44 38.98 110.066 38.98C109.674 38.98 109.306 39.0547 108.96 39.204C108.615 39.3533 108.307 39.5213 108.036 39.708L107.588 38.91C107.906 38.7047 108.293 38.5087 108.75 38.322C109.217 38.126 109.721 38.028 110.262 38.028C111.093 38.028 111.695 38.2847 112.068 38.798C112.442 39.302 112.628 39.9787 112.628 40.828V45H111.676L111.578 44.188H111.536C111.219 44.4493 110.869 44.678 110.486 44.874C110.113 45.07 109.712 45.168 109.282 45.168ZM109.618 44.244C109.945 44.244 110.253 44.1647 110.542 44.006C110.832 43.8473 111.14 43.6233 111.466 43.334V41.444C110.337 41.584 109.544 41.794 109.086 42.074C108.638 42.354 108.414 42.7133 108.414 43.152C108.414 43.5347 108.531 43.8147 108.764 43.992C108.998 44.16 109.282 44.244 109.618 44.244ZM118.955 45V39.134H116.113V45H114.965V39.134H114.041V38.266L114.965 38.196V37.3C114.965 36.5907 115.138 36.0307 115.483 35.62C115.838 35.2093 116.37 35.004 117.079 35.004C117.546 35.004 117.961 35.088 118.325 35.256L118.087 36.124C117.807 36.0027 117.504 35.942 117.177 35.942C116.841 35.942 116.58 36.0633 116.393 36.306C116.206 36.5393 116.113 36.88 116.113 37.328V38.196H118.955V37.118C118.955 36.4273 119.114 35.8813 119.431 35.48C119.758 35.0693 120.262 34.864 120.943 34.864C121.158 34.864 121.363 34.8873 121.559 34.934C121.755 34.9713 121.928 35.0227 122.077 35.088L121.825 35.97C121.573 35.858 121.316 35.802 121.055 35.802C120.42 35.802 120.103 36.2407 120.103 37.118V38.196H121.545V39.134H120.103V45H118.955Z" fill="black"/>
<path d="M380.26 45V35.816H383.13C383.755 35.816 384.311 35.9 384.796 36.068C385.281 36.2267 385.659 36.4973 385.93 36.88C386.21 37.2533 386.35 37.7573 386.35 38.392C386.35 39.1013 386.163 39.6753 385.79 40.114C385.417 40.5433 384.913 40.8373 384.278 40.996L386.616 45H385.3L383.088 41.122H381.422V45H380.26ZM381.422 40.17H382.962C383.681 40.17 384.231 40.0253 384.614 39.736C384.997 39.4373 385.188 38.9893 385.188 38.392C385.188 37.7853 384.997 37.3607 384.614 37.118C384.231 36.8753 383.681 36.754 382.962 36.754H381.422V40.17ZM390.74 45.168C390.133 45.168 389.583 45.028 389.088 44.748C388.593 44.4587 388.201 44.048 387.912 43.516C387.623 42.984 387.478 42.3493 387.478 41.612C387.478 40.8653 387.623 40.226 387.912 39.694C388.211 39.162 388.593 38.7513 389.06 38.462C389.527 38.1727 390.017 38.028 390.53 38.028C391.398 38.028 392.065 38.3173 392.532 38.896C393.008 39.4747 393.246 40.2493 393.246 41.22C393.246 41.3413 393.241 41.4627 393.232 41.584C393.232 41.696 393.223 41.794 393.204 41.878H388.612C388.659 42.5967 388.883 43.1707 389.284 43.6C389.695 44.0293 390.227 44.244 390.88 44.244C391.207 44.244 391.505 44.1973 391.776 44.104C392.056 44.0013 392.322 43.8707 392.574 43.712L392.98 44.468C392.691 44.6547 392.359 44.818 391.986 44.958C391.622 45.098 391.207 45.168 390.74 45.168ZM388.598 41.052H392.238C392.238 40.3613 392.089 39.8387 391.79 39.484C391.501 39.12 391.09 38.938 390.558 38.938C390.082 38.938 389.653 39.1247 389.27 39.498C388.897 39.862 388.673 40.38 388.598 41.052ZM396.705 45.168C396.22 45.168 395.758 45.0793 395.319 44.902C394.881 44.7153 394.498 44.4913 394.171 44.23L394.745 43.46C395.044 43.6933 395.352 43.8893 395.669 44.048C395.987 44.1973 396.346 44.272 396.747 44.272C397.195 44.272 397.531 44.1693 397.755 43.964C397.979 43.7493 398.091 43.4973 398.091 43.208C398.091 42.9747 398.012 42.7787 397.853 42.62C397.704 42.4613 397.508 42.3307 397.265 42.228C397.032 42.116 396.789 42.0133 396.537 41.92C396.22 41.7987 395.907 41.6633 395.599 41.514C395.291 41.3553 395.039 41.1547 394.843 40.912C394.647 40.66 394.549 40.3427 394.549 39.96C394.549 39.4093 394.755 38.952 395.165 38.588C395.585 38.2147 396.164 38.028 396.901 38.028C397.321 38.028 397.713 38.1027 398.077 38.252C398.441 38.4013 398.754 38.5833 399.015 38.798L398.455 39.526C398.222 39.3487 397.979 39.204 397.727 39.092C397.475 38.98 397.2 38.924 396.901 38.924C396.472 38.924 396.155 39.022 395.949 39.218C395.753 39.414 395.655 39.6427 395.655 39.904C395.655 40.1187 395.725 40.296 395.865 40.436C396.005 40.5667 396.187 40.6833 396.411 40.786C396.635 40.8793 396.873 40.9773 397.125 41.08C397.452 41.2013 397.774 41.3413 398.091 41.5C398.409 41.6493 398.67 41.8547 398.875 42.116C399.09 42.368 399.197 42.7087 399.197 43.138C399.197 43.502 399.099 43.838 398.903 44.146C398.717 44.454 398.437 44.7013 398.063 44.888C397.699 45.0747 397.247 45.168 396.705 45.168ZM400.793 45V38.196H401.941V45H400.793ZM401.381 36.796C401.157 36.796 400.97 36.7307 400.821 36.6C400.681 36.46 400.611 36.2733 400.611 36.04C400.611 35.816 400.681 35.634 400.821 35.494C400.97 35.354 401.157 35.284 401.381 35.284C401.605 35.284 401.787 35.354 401.927 35.494C402.076 35.634 402.151 35.816 402.151 36.04C402.151 36.2733 402.076 36.46 401.927 36.6C401.787 36.7307 401.605 36.796 401.381 36.796ZM406.562 45.168C405.713 45.168 405.031 44.86 404.518 44.244C404.005 43.6187 403.748 42.7413 403.748 41.612C403.748 40.8747 403.883 40.24 404.154 39.708C404.434 39.1667 404.798 38.7513 405.246 38.462C405.703 38.1727 406.189 38.028 406.702 38.028C407.094 38.028 407.435 38.098 407.724 38.238C408.013 38.378 408.307 38.5693 408.606 38.812L408.55 37.65V35.032H409.712V45H408.76L408.662 44.202H408.62C408.359 44.4633 408.051 44.692 407.696 44.888C407.341 45.0747 406.963 45.168 406.562 45.168ZM406.814 44.202C407.411 44.202 407.99 43.8893 408.55 43.264V39.708C408.261 39.4467 407.981 39.2647 407.71 39.162C407.449 39.05 407.178 38.994 406.898 38.994C406.534 38.994 406.203 39.106 405.904 39.33C405.615 39.5447 405.381 39.848 405.204 40.24C405.027 40.6227 404.938 41.0753 404.938 41.598C404.938 42.41 405.101 43.0493 405.428 43.516C405.755 43.9733 406.217 44.202 406.814 44.202ZM414.761 45.168C414.155 45.168 413.604 45.028 413.109 44.748C412.615 44.4587 412.223 44.048 411.933 43.516C411.644 42.984 411.499 42.3493 411.499 41.612C411.499 40.8653 411.644 40.226 411.933 39.694C412.232 39.162 412.615 38.7513 413.081 38.462C413.548 38.1727 414.038 38.028 414.551 38.028C415.419 38.028 416.087 38.3173 416.553 38.896C417.029 39.4747 417.267 40.2493 417.267 41.22C417.267 41.3413 417.263 41.4627 417.253 41.584C417.253 41.696 417.244 41.794 417.225 41.878H412.633C412.68 42.5967 412.904 43.1707 413.305 43.6C413.716 44.0293 414.248 44.244 414.901 44.244C415.228 44.244 415.527 44.1973 415.797 44.104C416.077 44.0013 416.343 43.8707 416.595 43.712L417.001 44.468C416.712 44.6547 416.381 44.818 416.007 44.958C415.643 45.098 415.228 45.168 414.761 45.168ZM412.619 41.052H416.259C416.259 40.3613 416.11 39.8387 415.811 39.484C415.522 39.12 415.111 38.938 414.579 38.938C414.103 38.938 413.674 39.1247 413.291 39.498C412.918 39.862 412.694 40.38 412.619 41.052ZM418.949 45V38.196H419.901L419.999 39.176H420.041C420.367 38.8493 420.713 38.5787 421.077 38.364C421.441 38.14 421.856 38.028 422.323 38.028C423.041 38.028 423.564 38.2567 423.891 38.714C424.227 39.162 424.395 39.82 424.395 40.688V45H423.247V40.842C423.247 40.2073 423.144 39.7453 422.939 39.456C422.733 39.1667 422.407 39.022 421.959 39.022C421.613 39.022 421.301 39.1107 421.021 39.288C420.75 39.4653 420.442 39.7267 420.097 40.072V45H418.949ZM428.747 45.168C428.019 45.168 427.51 44.958 427.221 44.538C426.941 44.118 426.801 43.572 426.801 42.9V39.134H425.793V38.266L426.857 38.196L426.997 36.292H427.963V38.196H429.797V39.134H427.963V42.914C427.963 43.334 428.038 43.6607 428.187 43.894C428.346 44.118 428.621 44.23 429.013 44.23C429.134 44.23 429.265 44.2113 429.405 44.174C429.545 44.1273 429.671 44.0853 429.783 44.048L430.007 44.916C429.82 44.9813 429.615 45.0373 429.391 45.084C429.176 45.14 428.962 45.168 428.747 45.168Z" fill="black"/>
</svg>
