<svg width="113" height="32" viewBox="0 0 113 32" fill="none" xmlns="http://www.w3.org/2000/svg">
<path fill-rule="evenodd" clip-rule="evenodd" d="M47.3819 14.5909C46.7726 13.9403 46.238 13.4817 45.263 13.4817C43.6813 13.4817 42.5623 14.7359 42.5623 16.4721C42.5623 18.2802 43.6813 19.4134 45.263 19.4134C46.238 19.4134 46.9679 18.8826 47.4782 18.1599L50.0343 20.0895C48.8172 21.7286 47.3573 22.5964 45.263 22.5964C41.686 22.5964 39.1548 19.8961 39.1548 16.4721C39.1548 13.0481 41.686 10.3475 45.2393 10.3475C47.1134 10.3475 48.5982 11.1431 49.7424 12.4202L47.3819 14.5909Z" fill="black"/>
<path fill-rule="evenodd" clip-rule="evenodd" d="M63.5675 22.38H60.1603V21.5841C60.1603 21.3906 60.1843 21.1018 60.2329 20.7636C59.4538 21.8742 58.2372 22.6692 56.6304 22.6692C54.1727 22.6692 52.3223 20.7636 52.3223 17.605V10.6126H55.7538V17.4121C55.7538 19.052 56.8011 19.896 57.9444 19.896C58.9669 19.896 60.0862 19.1002 60.1603 17.5093V10.6126H63.5675V22.38Z" fill="black"/>
<path fill-rule="evenodd" clip-rule="evenodd" d="M75.3232 16.4959C75.3232 14.7594 74.4469 13.3611 72.6705 13.3611C71.0883 13.3611 70.0415 14.664 70.0415 16.4721C70.0415 18.0882 71.1129 19.6327 72.6705 19.6327C74.4226 19.6327 75.3232 18.208 75.3232 16.4959ZM66.6826 22.38V4.29517H70.0901V11.7934C71.015 10.8302 72.2313 10.3475 73.5465 10.3475C76.8322 10.3475 78.7066 13.3141 78.7066 16.448C78.7066 19.6327 76.9051 22.6213 73.5705 22.6213C72.183 22.6213 70.8929 21.9452 69.9671 20.8358V22.38H66.6826Z" fill="black"/>
<path fill-rule="evenodd" clip-rule="evenodd" d="M81.2131 22.38H84.6929V10.6126H81.2131V22.38ZM82.9889 4.75461C84.2061 4.75461 85.2285 5.76451 85.2285 6.9714C85.2285 8.1774 84.2061 9.19112 82.9889 9.19112C81.7724 9.19112 80.7502 8.1774 80.7502 6.9714C80.7502 5.76451 81.7724 4.75461 82.9889 4.75461Z" fill="black"/>
<path fill-rule="evenodd" clip-rule="evenodd" d="M93.1637 17.4121C94.5024 17.4121 95.3781 16.6656 95.3781 15.2916C95.3781 13.8921 94.5024 13.096 93.1637 13.096C91.7999 13.096 90.9248 13.9147 90.9248 15.2916C90.9248 16.6896 91.8737 17.4121 93.1637 17.4121ZM90.0972 24.7189C89.439 25.949 90.243 27.1535 93.1639 27.1535C97.448 27.1535 97.3253 24.2131 95.0866 24.2131C93.7714 24.2131 92.4571 24.7668 90.7293 24.7668C90.5103 24.7668 90.2916 24.7421 90.0972 24.7189ZM95.4269 10.8055L96.9359 9.09395L98.9322 10.9505L97.5209 12.3485C98.2017 13.1697 98.592 14.181 98.592 15.2916C98.592 18.2321 96.158 20.1861 93.1639 20.1861C92.4571 20.1861 91.849 20.113 91.2658 19.9697C90.2182 20.8358 90.1204 21.8968 91.7278 21.8968C92.8477 21.8968 93.577 21.4391 95.2076 21.4391C101.415 21.4391 101.366 30.0221 93.1639 30.0221C87.0057 30.0221 85.7399 26.0685 87.8328 23.3441C86.9562 21.9934 87.3216 19.9213 88.9521 18.6663C88.1493 17.8219 87.7107 16.6655 87.7107 15.2916C87.7107 12.3485 90.1698 10.3731 93.1639 10.3731C93.967 10.3731 94.7456 10.5172 95.4269 10.8055Z" fill="black"/>
<path fill-rule="evenodd" clip-rule="evenodd" d="M109.666 16.4721C109.666 14.6883 108.522 13.3611 106.793 13.3611C105.041 13.3611 103.896 14.6883 103.896 16.4721C103.896 18.2802 105.09 19.6066 106.793 19.6066C108.522 19.6066 109.666 18.2802 109.666 16.4721ZM100.587 16.4721C100.587 12.9765 103.313 10.3475 106.793 10.3475C110.273 10.3475 113 12.9765 113 16.4721C113 19.9697 110.273 22.5964 106.793 22.5964C103.313 22.5964 100.587 19.9697 100.587 16.4721Z" fill="black"/>
<path fill-rule="evenodd" clip-rule="evenodd" d="M24.2264 32H8.07614C3.62297 32 0 28.411 0 23.9999V8.00007C0 3.58898 3.62297 0 8.07614 0H24.2264C28.6804 0 32.3028 3.58898 32.3028 8.00007V23.9999C32.3028 28.411 28.6804 32 24.2264 32ZM23.2674 17.803L23.4638 19.3704C23.6396 20.7581 22.6423 22.0278 21.2418 22.2002L12.774 23.2453C11.374 23.4182 10.0923 22.43 9.9183 21.042L8.86357 12.6555C8.68931 11.2677 9.68655 9.9986 11.0874 9.82539L19.5537 8.78143C20.9546 8.60793 22.2355 9.59581 22.4103 10.9835L22.6071 12.5501L26.8254 12.0304L26.4707 9.2124C26.0934 6.21089 23.3207 4.0716 20.2908 4.44621L9.29951 5.80282C6.26808 6.17683 4.11091 8.92323 4.48817 11.9247L5.85704 22.8134C6.2346 25.8147 9.00641 27.9537 12.0378 27.5802L23.0291 26.223C26.0596 25.8499 28.2189 23.1029 27.8395 20.1011L27.4854 17.2825L23.2674 17.803Z" fill="#4B97EA"/>
</svg>
