<svg width="143" height="42" viewBox="0 0 143 42" fill="none" xmlns="http://www.w3.org/2000/svg">
<path fill-rule="evenodd" clip-rule="evenodd" d="M59.9611 19.215C59.1901 18.3909 58.5135 17.81 57.2796 17.81C55.2781 17.81 53.862 19.3987 53.862 21.598C53.862 23.8884 55.2781 25.3239 57.2796 25.3239C58.5135 25.3239 59.4372 24.6516 60.083 23.736L63.3177 26.1804C61.7774 28.2566 59.93 29.3558 57.2796 29.3558C52.753 29.3558 49.5498 25.9353 49.5498 21.598C49.5498 17.2608 52.753 13.8398 57.2496 13.8398C59.6214 13.8398 61.5003 14.8476 62.9483 16.4653L59.9611 19.215" fill="black"/>
<path fill-rule="evenodd" clip-rule="evenodd" d="M80.4436 29.0818H76.1318V28.0736C76.1318 27.8285 76.1622 27.4626 76.2237 27.0342C75.2377 28.441 73.6982 29.4481 71.6648 29.4481C68.5546 29.4481 66.2129 27.0342 66.2129 23.0331V14.1757H70.5554V22.7888C70.5554 24.8661 71.8808 25.9353 73.3277 25.9353C74.6216 25.9353 76.0381 24.9271 76.1318 22.9119V14.1757H80.4436V29.0818" fill="black"/>
<path fill-rule="evenodd" clip-rule="evenodd" d="M95.3203 21.6282C95.3203 19.4285 94.2113 17.6572 91.9633 17.6572C89.961 17.6572 88.6364 19.3076 88.6364 21.598C88.6364 23.6453 89.9922 25.6017 91.9633 25.6017C94.1805 25.6017 95.3203 23.797 95.3203 21.6282ZM84.3857 29.0818V6.17316H88.6979V15.6714C89.8684 14.4512 91.4075 13.8399 93.0719 13.8399C97.2299 13.8399 99.602 17.5977 99.602 21.5676C99.602 25.6017 97.3222 29.3875 93.1023 29.3875C91.3464 29.3875 89.7139 28.531 88.5422 27.1257V29.0818H84.3857V29.0818Z" fill="black"/>
<path fill-rule="evenodd" clip-rule="evenodd" d="M102.774 29.0818H107.177V14.1756H102.774V29.0818ZM105.021 6.75513C106.561 6.75513 107.855 8.0344 107.855 9.5632C107.855 11.0909 106.561 12.375 105.021 12.375C103.481 12.375 102.188 11.0909 102.188 9.5632C102.188 8.0344 103.481 6.75513 105.021 6.75513V6.75513Z" fill="black"/>
<path fill-rule="evenodd" clip-rule="evenodd" d="M117.897 22.7888C119.591 22.7888 120.699 21.8431 120.699 20.1027C120.699 18.33 119.591 17.3214 117.897 17.3214C116.171 17.3214 115.064 18.3586 115.064 20.1027C115.064 21.8736 116.265 22.7888 117.897 22.7888ZM114.016 32.0446C113.183 33.6028 114.201 35.1286 117.897 35.1286C123.319 35.1286 123.164 31.4038 120.331 31.4038C118.666 31.4038 117.003 32.1052 114.816 32.1052C114.539 32.1052 114.262 32.074 114.016 32.0446ZM120.761 14.42L122.671 12.252L125.197 14.6037L123.411 16.3746C124.273 17.4148 124.766 18.6959 124.766 20.1027C124.766 23.8275 121.686 26.3027 117.897 26.3027C117.003 26.3027 116.233 26.2101 115.495 26.0287C114.17 27.1257 114.046 28.4697 116.08 28.4697C117.497 28.4697 118.42 27.8899 120.484 27.8899C128.339 27.8899 128.277 38.7623 117.897 38.7623C110.104 38.7623 108.502 33.7541 111.151 30.3031C110.042 28.5921 110.504 25.9673 112.567 24.3775C111.551 23.308 110.996 21.8431 110.996 20.1027C110.996 16.3746 114.108 13.8722 117.897 13.8722C118.914 13.8722 119.899 14.0548 120.761 14.42V14.42Z" fill="black"/>
<path fill-rule="evenodd" clip-rule="evenodd" d="M138.78 21.598C138.78 19.3385 137.333 17.6572 135.145 17.6572C132.927 17.6572 131.479 19.3385 131.479 21.598C131.479 23.8885 132.989 25.5686 135.145 25.5686C137.333 25.5686 138.78 23.8885 138.78 21.598ZM127.291 21.598C127.291 17.17 130.741 13.8398 135.145 13.8398C139.549 13.8398 143 17.17 143 21.598C143 26.0286 139.549 29.3558 135.145 29.3558C130.741 29.3558 127.291 26.0286 127.291 21.598V21.598Z" fill="black"/>
<path fill-rule="evenodd" clip-rule="evenodd" d="M30.6581 41.2677H10.2203C4.58482 41.2677 0 36.7215 0 31.1338V10.8663C0 5.27858 4.58482 0.7323 10.2203 0.7323H30.6581C36.2947 0.7323 40.8788 5.27858 40.8788 10.8663V31.1338C40.8788 36.7215 36.2947 41.2677 30.6581 41.2677M29.4445 23.2839L29.6932 25.2694C29.9156 27.0273 28.6536 28.6357 26.8812 28.854L16.1653 30.1779C14.3936 30.3969 12.7716 29.1452 12.5515 27.3869L11.2167 16.7634C10.9962 15.0055 12.2582 13.3978 14.031 13.1784L24.745 11.856C26.5178 11.6362 28.1387 12.8876 28.3599 14.6455L28.609 16.6299L33.9472 15.9716L33.4983 12.4019C33.0209 8.59983 29.512 5.88993 25.6777 6.36445L11.7684 8.08292C7.93218 8.55669 5.2023 12.0356 5.67972 15.8378L7.412 29.6308C7.8898 33.4326 11.3975 36.1421 15.2337 35.6691L29.143 33.9499C32.9781 33.4772 35.7106 29.9975 35.2306 26.195L34.7824 22.6246L29.4445 23.2839" fill="black"/>
</svg>
