<svg width="254" height="72" viewBox="0 0 254 72" fill="none" xmlns="http://www.w3.org/2000/svg">
<path fill-rule="evenodd" clip-rule="evenodd" d="M106.504 32.8296C105.134 31.3658 103.933 30.334 101.741 30.334C98.1859 30.334 95.6706 33.1559 95.6706 37.0623C95.6706 41.1306 98.1859 43.6803 101.741 43.6803C103.933 43.6803 105.573 42.4861 106.721 40.8598L112.466 45.2016C109.73 48.8894 106.449 50.8419 101.741 50.8419C93.7008 50.8419 88.0112 44.7663 88.0112 37.0623C88.0112 29.3584 93.7008 23.282 101.688 23.282C105.901 23.282 109.238 25.0721 111.81 27.9455L106.504 32.8296" fill="white"/>
<path fill-rule="evenodd" clip-rule="evenodd" d="M142.886 50.3551H135.227V48.5643C135.227 48.129 135.281 47.4791 135.39 46.7181C133.639 49.217 130.905 51.0057 127.293 51.0057C121.768 51.0057 117.609 46.7181 117.609 39.6113V23.8785H125.322V39.1773C125.322 42.8671 127.676 44.7662 130.246 44.7662C132.545 44.7662 135.061 42.9755 135.227 39.396V23.8785H142.886V50.3551" fill="white"/>
<path fill-rule="evenodd" clip-rule="evenodd" d="M169.31 37.1158C169.31 33.2087 167.341 30.0625 163.348 30.0625C159.791 30.0625 157.438 32.994 157.438 37.0623C157.438 40.6986 159.846 44.1737 163.348 44.1737C167.286 44.1737 169.31 40.9681 169.31 37.1158ZM149.888 50.3551V9.66425H157.548V26.5352C159.627 24.368 162.36 23.282 165.317 23.282C172.702 23.282 176.916 29.9568 176.916 37.0081C176.916 44.1737 172.866 50.8981 165.371 50.8981C162.252 50.8981 159.352 49.3768 157.271 46.8806V50.3551H149.888V50.3551Z" fill="white"/>
<path fill-rule="evenodd" clip-rule="evenodd" d="M182.549 50.3551H190.371V23.8785H182.549V50.3551ZM186.541 10.698C189.277 10.698 191.575 12.9703 191.575 15.6858C191.575 18.3993 189.277 20.6801 186.541 20.6801C183.806 20.6801 181.509 18.3993 181.509 15.6858C181.509 12.9703 183.806 10.698 186.541 10.698V10.698Z" fill="white"/>
<path fill-rule="evenodd" clip-rule="evenodd" d="M209.412 39.1774C212.421 39.1774 214.389 37.4976 214.389 34.4062C214.389 31.2574 212.421 29.466 209.412 29.466C206.346 29.466 204.379 31.3083 204.379 34.4062C204.379 37.5518 206.512 39.1774 209.412 39.1774ZM202.519 55.6177C201.039 58.3853 202.846 61.0956 209.412 61.0956C219.042 61.0956 218.766 54.4795 213.734 54.4795C210.778 54.4795 207.823 55.7253 203.94 55.7253C203.447 55.7253 202.956 55.6698 202.519 55.6177ZM214.499 24.3125L217.891 20.4615L222.378 24.6388L219.206 27.7843C220.736 29.6318 221.613 31.9074 221.613 34.4062C221.613 41.0223 216.142 45.4188 209.412 45.4188C207.823 45.4188 206.456 45.2544 205.145 44.932C202.791 46.8806 202.571 49.2678 206.184 49.2678C208.701 49.2678 210.341 48.238 214.006 48.238C227.958 48.238 227.849 67.5497 209.412 67.5497C195.57 67.5497 192.724 58.6542 197.429 52.5243C195.458 49.4852 196.28 44.823 199.945 41.9992C198.14 40.0995 197.154 37.4976 197.154 34.4062C197.154 27.7843 202.682 23.3395 209.412 23.3395C211.217 23.3395 212.967 23.6638 214.499 24.3125V24.3125Z" fill="white"/>
<path fill-rule="evenodd" clip-rule="evenodd" d="M246.505 37.0623C246.505 33.0489 243.934 30.0625 240.048 30.0625C236.109 30.0625 233.537 33.0489 233.537 37.0623C233.537 41.1306 236.219 44.115 240.048 44.115C243.934 44.115 246.505 41.1306 246.505 37.0623ZM226.097 37.0623C226.097 29.1972 232.225 23.282 240.048 23.282C247.871 23.282 254 29.1972 254 37.0623C254 44.932 247.871 50.8419 240.048 50.8419C232.225 50.8419 226.097 44.932 226.097 37.0623V37.0623Z" fill="white"/>
<path fill-rule="evenodd" clip-rule="evenodd" d="M54.4557 72H18.1535C8.14367 72 0 63.9248 0 53.9998V18.0002C0 8.0752 8.14367 0 18.1535 0H54.4557C64.4675 0 72.6098 8.0752 72.6098 18.0002V53.9998C72.6098 63.9248 64.4675 72 54.4557 72M52.3001 40.0568L52.7418 43.5834C53.1368 46.7058 50.8952 49.5626 47.747 49.9504L28.7132 52.3019C25.5663 52.691 22.6853 50.4676 22.2942 47.3445L19.9234 28.4748C19.5317 25.3524 21.7733 22.4968 24.9222 22.1071L43.9526 19.7582C47.1015 19.3678 49.9806 21.5906 50.3736 24.713L50.8159 28.2376L60.2978 27.0685L59.5005 20.7279C58.6525 13.9745 52.42 9.16111 45.6093 10.004L20.9033 13.0563C14.0893 13.8979 9.24045 20.0773 10.0885 26.8307L13.1654 51.3303C14.014 58.083 20.2445 62.8957 27.0585 62.0555L51.7645 59.0018C58.5765 58.1623 63.4301 51.9816 62.5774 45.2275L61.7813 38.8856L52.3001 40.0568" fill="white"/>
</svg>
