<svg width="532" height="434" viewBox="0 0 532 434" fill="none" xmlns="http://www.w3.org/2000/svg">
<g clip-path="url(#clip0_199_4582)">
<rect y="0.956787" width="532" height="433" rx="5" fill="#FAFAFA"/>
<rect width="500" height="401" transform="translate(32 32.9568)" fill="#FAFAFA"/>
<path d="M36.732 64.168C35.9667 64.168 35.2807 63.9813 34.674 63.608C34.0767 63.2253 33.6007 62.6793 33.246 61.97C32.9007 61.2607 32.728 60.4067 32.728 59.408C32.728 58.4187 32.9053 57.5693 33.26 56.86C33.6147 56.1507 34.1 55.6047 34.716 55.222C35.332 54.8393 36.0273 54.648 36.802 54.648C37.362 54.648 37.8567 54.7647 38.286 54.998C38.7153 55.222 39.0607 55.4833 39.322 55.782L38.692 56.538C38.4493 56.2767 38.174 56.0667 37.866 55.908C37.558 55.7493 37.208 55.67 36.816 55.67C36.2373 55.67 35.7287 55.824 35.29 56.132C34.8607 56.4307 34.5247 56.8553 34.282 57.406C34.0487 57.9567 33.932 58.6147 33.932 59.38C33.932 60.1453 34.0487 60.8127 34.282 61.382C34.5153 61.942 34.842 62.376 35.262 62.684C35.6913 62.992 36.1953 63.146 36.774 63.146C37.2127 63.146 37.6047 63.0527 37.95 62.866C38.2953 62.6793 38.6127 62.4273 38.902 62.11L39.546 62.838C39.182 63.258 38.7713 63.5847 38.314 63.818C37.8567 64.0513 37.3293 64.168 36.732 64.168ZM42.364 64.168C41.9347 64.168 41.622 64.0373 41.426 63.776C41.2394 63.5053 41.146 63.1227 41.146 62.628V54.032H42.294V62.712C42.294 62.8893 42.3267 63.02 42.392 63.104C42.4574 63.1787 42.532 63.216 42.616 63.216C42.6534 63.216 42.686 63.216 42.714 63.216C42.7514 63.2067 42.8027 63.1973 42.868 63.188L43.022 64.056C42.9474 64.0933 42.8587 64.1213 42.756 64.14C42.6534 64.1587 42.5227 64.168 42.364 64.168ZM47.3604 64.168C46.8097 64.168 46.2917 64.028 45.8064 63.748C45.3304 63.468 44.9431 63.062 44.6444 62.53C44.3551 61.998 44.2104 61.3587 44.2104 60.612C44.2104 59.8467 44.3551 59.198 44.6444 58.666C44.9431 58.134 45.3304 57.728 45.8064 57.448C46.2917 57.168 46.8097 57.028 47.3604 57.028C47.9204 57.028 48.4384 57.168 48.9144 57.448C49.3904 57.728 49.7731 58.134 50.0624 58.666C50.3611 59.198 50.5104 59.8467 50.5104 60.612C50.5104 61.3587 50.3611 61.998 50.0624 62.53C49.7731 63.062 49.3904 63.468 48.9144 63.748C48.4384 64.028 47.9204 64.168 47.3604 64.168ZM47.3604 63.216C47.9484 63.216 48.4197 62.978 48.7744 62.502C49.1384 62.0167 49.3204 61.3867 49.3204 60.612C49.3204 59.828 49.1384 59.1933 48.7744 58.708C48.4197 58.2227 47.9484 57.98 47.3604 57.98C46.7817 57.98 46.3104 58.2227 45.9464 58.708C45.5824 59.1933 45.4004 59.828 45.4004 60.612C45.4004 61.3867 45.5824 62.0167 45.9464 62.502C46.3104 62.978 46.7817 63.216 47.3604 63.216ZM54.0803 64.168C53.595 64.168 53.133 64.0793 52.6943 63.902C52.2556 63.7153 51.873 63.4913 51.5463 63.23L52.1203 62.46C52.419 62.6933 52.727 62.8893 53.0443 63.048C53.3616 63.1973 53.721 63.272 54.1223 63.272C54.5703 63.272 54.9063 63.1693 55.1303 62.964C55.3543 62.7493 55.4663 62.4973 55.4663 62.208C55.4663 61.9747 55.387 61.7787 55.2283 61.62C55.079 61.4613 54.883 61.3307 54.6403 61.228C54.407 61.116 54.1643 61.0133 53.9123 60.92C53.595 60.7987 53.2823 60.6633 52.9743 60.514C52.6663 60.3553 52.4143 60.1547 52.2183 59.912C52.0223 59.66 51.9243 59.3427 51.9243 58.96C51.9243 58.4093 52.1296 57.952 52.5403 57.588C52.9603 57.2147 53.539 57.028 54.2763 57.028C54.6963 57.028 55.0883 57.1027 55.4523 57.252C55.8163 57.4013 56.129 57.5833 56.3903 57.798L55.8303 58.526C55.597 58.3487 55.3543 58.204 55.1023 58.092C54.8503 57.98 54.575 57.924 54.2763 57.924C53.847 57.924 53.5296 58.022 53.3243 58.218C53.1283 58.414 53.0303 58.6427 53.0303 58.904C53.0303 59.1187 53.1003 59.296 53.2403 59.436C53.3803 59.5667 53.5623 59.6833 53.7863 59.786C54.0103 59.8793 54.2483 59.9773 54.5003 60.08C54.827 60.2013 55.149 60.3413 55.4663 60.5C55.7836 60.6493 56.045 60.8547 56.2503 61.116C56.465 61.368 56.5723 61.7087 56.5723 62.138C56.5723 62.502 56.4743 62.838 56.2783 63.146C56.0916 63.454 55.8116 63.7013 55.4383 63.888C55.0743 64.0747 54.6216 64.168 54.0803 64.168ZM60.9255 64.168C60.3189 64.168 59.7682 64.028 59.2735 63.748C58.7789 63.4587 58.3869 63.048 58.0975 62.516C57.8082 61.984 57.6635 61.3493 57.6635 60.612C57.6635 59.8653 57.8082 59.226 58.0975 58.694C58.3962 58.162 58.7789 57.7513 59.2455 57.462C59.7122 57.1727 60.2022 57.028 60.7155 57.028C61.5835 57.028 62.2509 57.3173 62.7175 57.896C63.1935 58.4747 63.4315 59.2493 63.4315 60.22C63.4315 60.3413 63.4269 60.4627 63.4175 60.584C63.4175 60.696 63.4082 60.794 63.3895 60.878H58.7975C58.8442 61.5967 59.0682 62.1707 59.4695 62.6C59.8802 63.0293 60.4122 63.244 61.0655 63.244C61.3922 63.244 61.6909 63.1973 61.9615 63.104C62.2415 63.0013 62.5075 62.8707 62.7595 62.712L63.1655 63.468C62.8762 63.6547 62.5449 63.818 62.1715 63.958C61.8075 64.098 61.3922 64.168 60.9255 64.168ZM58.7835 60.052H62.4235C62.4235 59.3613 62.2742 58.8387 61.9755 58.484C61.6862 58.12 61.2755 57.938 60.7435 57.938C60.2675 57.938 59.8382 58.1247 59.4555 58.498C59.0822 58.862 58.8582 59.38 58.7835 60.052ZM67.4368 64.168C66.5875 64.168 65.9062 63.86 65.3928 63.244C64.8795 62.6187 64.6228 61.7413 64.6228 60.612C64.6228 59.8747 64.7582 59.24 65.0288 58.708C65.3088 58.1667 65.6728 57.7513 66.1208 57.462C66.5782 57.1727 67.0635 57.028 67.5768 57.028C67.9688 57.028 68.3095 57.098 68.5988 57.238C68.8882 57.378 69.1822 57.5693 69.4808 57.812L69.4248 56.65V54.032H70.5868V64H69.6348L69.5368 63.202H69.4948C69.2335 63.4633 68.9255 63.692 68.5708 63.888C68.2162 64.0747 67.8382 64.168 67.4368 64.168ZM67.6888 63.202C68.2862 63.202 68.8648 62.8893 69.4248 62.264V58.708C69.1355 58.4467 68.8555 58.2647 68.5848 58.162C68.3235 58.05 68.0528 57.994 67.7728 57.994C67.4088 57.994 67.0775 58.106 66.7788 58.33C66.4895 58.5447 66.2562 58.848 66.0788 59.24C65.9015 59.6227 65.8128 60.0753 65.8128 60.598C65.8128 61.41 65.9762 62.0493 66.3028 62.516C66.6295 62.9733 67.0915 63.202 67.6888 63.202Z" fill="black"/>
<path d="M33.26 173V163.816H38.552V164.796H34.422V167.68H37.908V168.674H34.422V172.006H38.692V173H33.26ZM39.1413 173L41.3673 169.444L39.3093 166.196H40.5553L41.4653 167.694C41.568 167.871 41.6753 168.058 41.7873 168.254C41.8993 168.45 42.016 168.641 42.1373 168.828H42.1933C42.296 168.641 42.3986 168.45 42.5013 168.254C42.604 168.058 42.7066 167.871 42.8093 167.694L43.6353 166.196H44.8393L42.7813 169.57L44.9933 173H43.7473L42.7533 171.418C42.632 171.213 42.5106 171.007 42.3893 170.802C42.268 170.597 42.142 170.396 42.0113 170.2H41.9553C41.834 170.396 41.7173 170.597 41.6053 170.802C41.4933 170.998 41.3813 171.203 41.2693 171.418L40.3453 173H39.1413ZM46.3414 175.87V166.196H47.2934L47.3914 166.98H47.4334C47.7414 166.719 48.0774 166.495 48.4414 166.308C48.8147 166.121 49.202 166.028 49.6034 166.028C50.4807 166.028 51.148 166.345 51.6054 166.98C52.0627 167.605 52.2914 168.445 52.2914 169.5C52.2914 170.265 52.1514 170.923 51.8714 171.474C51.6007 172.025 51.2414 172.445 50.7934 172.734C50.3547 173.023 49.874 173.168 49.3514 173.168C49.034 173.168 48.7167 173.098 48.3994 172.958C48.0914 172.818 47.7787 172.627 47.4614 172.384L47.4894 173.574V175.87H46.3414ZM49.1554 172.202C49.7154 172.202 50.1774 171.964 50.5414 171.488C50.9147 171.003 51.1014 170.34 51.1014 169.5C51.1014 168.753 50.9614 168.151 50.6814 167.694C50.4107 167.227 49.9534 166.994 49.3094 166.994C49.02 166.994 48.726 167.073 48.4274 167.232C48.138 167.391 47.8254 167.619 47.4894 167.918V171.488C47.7974 171.749 48.096 171.936 48.3854 172.048C48.6747 172.151 48.9314 172.202 49.1554 172.202ZM55.4836 173.168C54.9142 173.168 54.4382 173 54.0556 172.664C53.6822 172.319 53.4956 171.843 53.4956 171.236C53.4956 170.489 53.8269 169.92 54.4896 169.528C55.1616 169.127 56.2209 168.847 57.6676 168.688C57.6676 168.399 57.6256 168.123 57.5416 167.862C57.4669 167.601 57.3269 167.391 57.1216 167.232C56.9256 167.064 56.6409 166.98 56.2676 166.98C55.8756 166.98 55.5069 167.055 55.1616 167.204C54.8162 167.353 54.5082 167.521 54.2376 167.708L53.7896 166.91C54.1069 166.705 54.4942 166.509 54.9516 166.322C55.4182 166.126 55.9222 166.028 56.4636 166.028C57.2942 166.028 57.8962 166.285 58.2696 166.798C58.6429 167.302 58.8296 167.979 58.8296 168.828V173H57.8776L57.7796 172.188H57.7376C57.4202 172.449 57.0702 172.678 56.6876 172.874C56.3142 173.07 55.9129 173.168 55.4836 173.168ZM55.8196 172.244C56.1462 172.244 56.4542 172.165 56.7436 172.006C57.0329 171.847 57.3409 171.623 57.6676 171.334V169.444C56.5382 169.584 55.7449 169.794 55.2876 170.074C54.8396 170.354 54.6156 170.713 54.6156 171.152C54.6156 171.535 54.7322 171.815 54.9656 171.992C55.1989 172.16 55.4836 172.244 55.8196 172.244ZM60.9703 173V166.196H61.9223L62.0203 167.176H62.0623C62.3889 166.849 62.7343 166.579 63.0983 166.364C63.4623 166.14 63.8776 166.028 64.3443 166.028C65.0629 166.028 65.5856 166.257 65.9123 166.714C66.2483 167.162 66.4163 167.82 66.4163 168.688V173H65.2683V168.842C65.2683 168.207 65.1656 167.745 64.9603 167.456C64.7549 167.167 64.4283 167.022 63.9803 167.022C63.6349 167.022 63.3223 167.111 63.0423 167.288C62.7716 167.465 62.4636 167.727 62.1183 168.072V173H60.9703ZM70.9505 173.168C70.1012 173.168 69.4198 172.86 68.9065 172.244C68.3932 171.619 68.1365 170.741 68.1365 169.612C68.1365 168.875 68.2718 168.24 68.5425 167.708C68.8225 167.167 69.1865 166.751 69.6345 166.462C70.0918 166.173 70.5772 166.028 71.0905 166.028C71.4825 166.028 71.8232 166.098 72.1125 166.238C72.4018 166.378 72.6958 166.569 72.9945 166.812L72.9385 165.65V163.032H74.1005V173H73.1485L73.0505 172.202H73.0085C72.7472 172.463 72.4392 172.692 72.0845 172.888C71.7298 173.075 71.3518 173.168 70.9505 173.168ZM71.2025 172.202C71.7998 172.202 72.3785 171.889 72.9385 171.264V167.708C72.6492 167.447 72.3692 167.265 72.0985 167.162C71.8372 167.05 71.5665 166.994 71.2865 166.994C70.9225 166.994 70.5912 167.106 70.2925 167.33C70.0032 167.545 69.7698 167.848 69.5925 168.24C69.4152 168.623 69.3265 169.075 69.3265 169.598C69.3265 170.41 69.4898 171.049 69.8165 171.516C70.1432 171.973 70.6052 172.202 71.2025 172.202ZM79.1501 173.168C78.5435 173.168 77.9928 173.028 77.4981 172.748C77.0035 172.459 76.6115 172.048 76.3221 171.516C76.0328 170.984 75.8881 170.349 75.8881 169.612C75.8881 168.865 76.0328 168.226 76.3221 167.694C76.6208 167.162 77.0035 166.751 77.4701 166.462C77.9368 166.173 78.4268 166.028 78.9401 166.028C79.8081 166.028 80.4755 166.317 80.9421 166.896C81.4181 167.475 81.6561 168.249 81.6561 169.22C81.6561 169.341 81.6515 169.463 81.6421 169.584C81.6421 169.696 81.6328 169.794 81.6141 169.878H77.0221C77.0688 170.597 77.2928 171.171 77.6941 171.6C78.1048 172.029 78.6368 172.244 79.2901 172.244C79.6168 172.244 79.9155 172.197 80.1861 172.104C80.4661 172.001 80.7321 171.871 80.9841 171.712L81.3901 172.468C81.1008 172.655 80.7695 172.818 80.3961 172.958C80.0321 173.098 79.6168 173.168 79.1501 173.168ZM77.0081 169.052H80.6481C80.6481 168.361 80.4988 167.839 80.2001 167.484C79.9108 167.12 79.5001 166.938 78.9681 166.938C78.4921 166.938 78.0628 167.125 77.6801 167.498C77.3068 167.862 77.0828 168.38 77.0081 169.052ZM85.6615 173.168C84.8121 173.168 84.1308 172.86 83.6175 172.244C83.1041 171.619 82.8475 170.741 82.8475 169.612C82.8475 168.875 82.9828 168.24 83.2535 167.708C83.5335 167.167 83.8975 166.751 84.3455 166.462C84.8028 166.173 85.2881 166.028 85.8015 166.028C86.1935 166.028 86.5341 166.098 86.8235 166.238C87.1128 166.378 87.4068 166.569 87.7055 166.812L87.6495 165.65V163.032H88.8115V173H87.8595L87.7615 172.202H87.7195C87.4581 172.463 87.1501 172.692 86.7955 172.888C86.4408 173.075 86.0628 173.168 85.6615 173.168ZM85.9135 172.202C86.5108 172.202 87.0895 171.889 87.6495 171.264V167.708C87.3601 167.447 87.0801 167.265 86.8095 167.162C86.5481 167.05 86.2775 166.994 85.9975 166.994C85.6335 166.994 85.3021 167.106 85.0035 167.33C84.7141 167.545 84.4808 167.848 84.3035 168.24C84.1261 168.623 84.0375 169.075 84.0375 169.598C84.0375 170.41 84.2008 171.049 84.5275 171.516C84.8541 171.973 85.3161 172.202 85.9135 172.202Z" fill="black"/>
<path d="M159.5 54C159.5 52.067 161.067 50.5 163 50.5H326.56C328.493 50.5 330.06 52.067 330.06 54V82C330.06 83.933 328.493 85.5 326.56 85.5H163C161.067 85.5 159.5 83.933 159.5 82V54Z" fill="white"/>
<path d="M159.5 54C159.5 52.067 161.067 50.5 163 50.5H326.56C328.493 50.5 330.06 52.067 330.06 54V82C330.06 83.933 328.493 85.5 326.56 85.5H163C161.067 85.5 159.5 83.933 159.5 82V54Z" stroke="#E6EAEE"/>
<path d="M175.162 72.5V63.344H178.046C178.727 63.344 179.334 63.4327 179.866 63.61C180.398 63.7873 180.818 64.0813 181.126 64.492C181.434 64.9027 181.588 65.4627 181.588 66.172C181.588 66.844 181.434 67.3993 181.126 67.838C180.818 68.2767 180.403 68.6033 179.88 68.818C179.357 69.0327 178.765 69.14 178.102 69.14H176.786V72.5H175.162ZM176.786 67.838H177.976C179.32 67.838 179.992 67.2827 179.992 66.172C179.992 65.5933 179.815 65.1967 179.46 64.982C179.115 64.758 178.601 64.646 177.92 64.646H176.786V67.838ZM184.738 72.668C184.169 72.668 183.763 72.4953 183.52 72.15C183.287 71.8047 183.17 71.3333 183.17 70.736V62.616H184.78V70.82C184.78 71.016 184.818 71.156 184.892 71.24C184.967 71.3147 185.046 71.352 185.13 71.352C185.168 71.352 185.2 71.352 185.228 71.352C185.266 71.3427 185.317 71.3333 185.382 71.324L185.592 72.528C185.499 72.5653 185.378 72.598 185.228 72.626C185.088 72.654 184.925 72.668 184.738 72.668ZM188.637 72.668C188.04 72.668 187.55 72.4813 187.167 72.108C186.794 71.7347 186.607 71.2493 186.607 70.652C186.607 69.9147 186.929 69.3453 187.573 68.944C188.217 68.5333 189.244 68.2533 190.653 68.104C190.644 67.74 190.546 67.4273 190.359 67.166C190.182 66.8953 189.86 66.76 189.393 66.76C189.057 66.76 188.726 66.8253 188.399 66.956C188.082 67.0867 187.769 67.2453 187.461 67.432L186.873 66.354C187.256 66.1113 187.685 65.9013 188.161 65.724C188.647 65.5467 189.16 65.458 189.701 65.458C190.56 65.458 191.199 65.7147 191.619 66.228C192.049 66.732 192.263 67.4647 192.263 68.426V72.5H190.933L190.821 71.744H190.765C190.457 72.0053 190.126 72.2247 189.771 72.402C189.426 72.5793 189.048 72.668 188.637 72.668ZM189.155 71.408C189.435 71.408 189.687 71.3427 189.911 71.212C190.145 71.072 190.392 70.8853 190.653 70.652V69.112C189.72 69.2333 189.071 69.4153 188.707 69.658C188.343 69.8913 188.161 70.1807 188.161 70.526C188.161 70.834 188.255 71.058 188.441 71.198C188.628 71.338 188.866 71.408 189.155 71.408ZM197.06 72.668C196.435 72.668 195.87 72.528 195.366 72.248C194.871 71.9587 194.475 71.548 194.176 71.016C193.887 70.4747 193.742 69.826 193.742 69.07C193.742 68.3047 193.901 67.656 194.218 67.124C194.535 66.5827 194.955 66.172 195.478 65.892C196.01 65.6027 196.579 65.458 197.186 65.458C197.625 65.458 198.007 65.5327 198.334 65.682C198.661 65.8313 198.95 66.0133 199.202 66.228L198.418 67.278C198.241 67.1193 198.059 66.998 197.872 66.914C197.685 66.8207 197.485 66.774 197.27 66.774C196.719 66.774 196.267 66.984 195.912 67.404C195.567 67.824 195.394 68.3793 195.394 69.07C195.394 69.7513 195.562 70.302 195.898 70.722C196.243 71.142 196.687 71.352 197.228 71.352C197.499 71.352 197.751 71.296 197.984 71.184C198.227 71.0627 198.446 70.9227 198.642 70.764L199.3 71.828C198.983 72.108 198.628 72.318 198.236 72.458C197.844 72.598 197.452 72.668 197.06 72.668ZM203.255 72.668C202.62 72.668 202.046 72.528 201.533 72.248C201.02 71.9587 200.614 71.548 200.315 71.016C200.016 70.4747 199.867 69.826 199.867 69.07C199.867 68.3233 200.016 67.6793 200.315 67.138C200.623 66.5967 201.02 66.1813 201.505 65.892C201.99 65.6027 202.499 65.458 203.031 65.458C203.656 65.458 204.179 65.598 204.599 65.878C205.019 66.1487 205.336 66.5313 205.551 67.026C205.766 67.5113 205.873 68.076 205.873 68.72C205.873 69.056 205.85 69.3173 205.803 69.504H201.435C201.51 70.1107 201.729 70.582 202.093 70.918C202.457 71.254 202.914 71.422 203.465 71.422C203.764 71.422 204.039 71.38 204.291 71.296C204.552 71.2027 204.809 71.0767 205.061 70.918L205.607 71.926C205.28 72.1407 204.916 72.318 204.515 72.458C204.114 72.598 203.694 72.668 203.255 72.668ZM201.421 68.412H204.473C204.473 67.88 204.356 67.4647 204.123 67.166C203.89 66.858 203.54 66.704 203.073 66.704C202.672 66.704 202.312 66.8533 201.995 67.152C201.687 67.4413 201.496 67.8613 201.421 68.412ZM207.411 72.5V62.616H209.021V65.164L208.965 66.494C209.254 66.2233 209.576 65.9853 209.931 65.78C210.285 65.5653 210.696 65.458 211.163 65.458C211.9 65.458 212.437 65.696 212.773 66.172C213.109 66.648 213.277 67.32 213.277 68.188V72.5H211.667V68.398C211.667 67.8287 211.583 67.4273 211.415 67.194C211.247 66.9607 210.971 66.844 210.589 66.844C210.29 66.844 210.024 66.9187 209.791 67.068C209.567 67.208 209.31 67.418 209.021 67.698V72.5H207.411ZM218.031 72.668C217.462 72.668 216.93 72.528 216.435 72.248C215.941 71.9587 215.539 71.548 215.231 71.016C214.923 70.4747 214.769 69.826 214.769 69.07C214.769 68.3047 214.923 67.656 215.231 67.124C215.539 66.5827 215.941 66.172 216.435 65.892C216.93 65.6027 217.462 65.458 218.031 65.458C218.61 65.458 219.147 65.6027 219.641 65.892C220.136 66.172 220.537 66.5827 220.845 67.124C221.153 67.656 221.307 68.3047 221.307 69.07C221.307 69.826 221.153 70.4747 220.845 71.016C220.537 71.548 220.136 71.9587 219.641 72.248C219.147 72.528 218.61 72.668 218.031 72.668ZM218.031 71.352C218.535 71.352 218.932 71.142 219.221 70.722C219.511 70.302 219.655 69.7513 219.655 69.07C219.655 68.3793 219.511 67.824 219.221 67.404C218.932 66.984 218.535 66.774 218.031 66.774C217.527 66.774 217.131 66.984 216.841 67.404C216.561 67.824 216.421 68.3793 216.421 69.07C216.421 69.7513 216.561 70.302 216.841 70.722C217.131 71.142 217.527 71.352 218.031 71.352ZM224.469 72.668C223.9 72.668 223.494 72.4953 223.251 72.15C223.018 71.8047 222.901 71.3333 222.901 70.736V62.616H224.511V70.82C224.511 71.016 224.548 71.156 224.623 71.24C224.698 71.3147 224.777 71.352 224.861 71.352C224.898 71.352 224.931 71.352 224.959 71.352C224.996 71.3427 225.048 71.3333 225.113 71.324L225.323 72.528C225.23 72.5653 225.108 72.598 224.959 72.626C224.819 72.654 224.656 72.668 224.469 72.668ZM229.11 72.668C228.251 72.668 227.565 72.3507 227.052 71.716C226.538 71.0813 226.282 70.1993 226.282 69.07C226.282 68.3233 226.417 67.6793 226.688 67.138C226.968 66.5967 227.332 66.1813 227.78 65.892C228.228 65.6027 228.699 65.458 229.194 65.458C229.586 65.458 229.917 65.528 230.188 65.668C230.468 65.7987 230.738 65.9807 231 66.214L230.944 65.108V62.616H232.554V72.5H231.224L231.112 71.758H231.056C230.804 72.01 230.51 72.2247 230.174 72.402C229.838 72.5793 229.483 72.668 229.11 72.668ZM229.502 71.338C230.015 71.338 230.496 71.0813 230.944 70.568V67.362C230.71 67.1473 230.477 66.998 230.244 66.914C230.01 66.83 229.777 66.788 229.544 66.788C229.105 66.788 228.727 66.9887 228.41 67.39C228.102 67.782 227.948 68.3373 227.948 69.056C227.948 69.7933 228.083 70.358 228.354 70.75C228.624 71.142 229.007 71.338 229.502 71.338ZM237.544 72.668C236.909 72.668 236.335 72.528 235.822 72.248C235.309 71.9587 234.903 71.548 234.604 71.016C234.305 70.4747 234.156 69.826 234.156 69.07C234.156 68.3233 234.305 67.6793 234.604 67.138C234.912 66.5967 235.309 66.1813 235.794 65.892C236.279 65.6027 236.788 65.458 237.32 65.458C237.945 65.458 238.468 65.598 238.888 65.878C239.308 66.1487 239.625 66.5313 239.84 67.026C240.055 67.5113 240.162 68.076 240.162 68.72C240.162 69.056 240.139 69.3173 240.092 69.504H235.724C235.799 70.1107 236.018 70.582 236.382 70.918C236.746 71.254 237.203 71.422 237.754 71.422C238.053 71.422 238.328 71.38 238.58 71.296C238.841 71.2027 239.098 71.0767 239.35 70.918L239.896 71.926C239.569 72.1407 239.205 72.318 238.804 72.458C238.403 72.598 237.983 72.668 237.544 72.668ZM235.71 68.412H238.762C238.762 67.88 238.645 67.4647 238.412 67.166C238.179 66.858 237.829 66.704 237.362 66.704C236.961 66.704 236.601 66.8533 236.284 67.152C235.976 67.4413 235.785 67.8613 235.71 68.412ZM241.7 72.5V65.626H243.03L243.142 66.844H243.198C243.44 66.396 243.734 66.0553 244.08 65.822C244.425 65.5793 244.78 65.458 245.144 65.458C245.47 65.458 245.732 65.5047 245.928 65.598L245.648 66.998C245.526 66.9607 245.414 66.9327 245.312 66.914C245.209 66.8953 245.083 66.886 244.934 66.886C244.663 66.886 244.378 66.9933 244.08 67.208C243.781 67.4133 243.524 67.7773 243.31 68.3V72.5H241.7Z" fill="#354052"/>
<path d="M308.913 66.8175C308.718 66.6225 308.719 66.3058 308.914 66.1108C309.109 65.9158 309.425 65.9154 309.62 66.1104L312.449 68.9397C312.645 69.1347 312.644 69.4513 312.449 69.6463C312.254 69.8414 311.937 69.8418 311.742 69.6468L308.913 66.8175Z" fill="#354052"/>
<rect width="1" height="5" rx="0.5" transform="matrix(0.707104 0.707109 -0.707104 0.707109 314.924 65.7573)" fill="#354052"/>
<g clip-path="url(#clip1_199_4582)">
<rect x="159" y="195" width="172" height="208" rx="4" fill="white"/>
<path d="M159 199C159 196.791 160.791 195 163 195H327C329.209 195 331 196.791 331 199V230H159V199Z" fill="white"/>
<path d="M175.162 217V207.844H178.046C178.727 207.844 179.334 207.933 179.866 208.11C180.398 208.287 180.818 208.581 181.126 208.992C181.434 209.403 181.588 209.963 181.588 210.672C181.588 211.344 181.434 211.899 181.126 212.338C180.818 212.777 180.403 213.103 179.88 213.318C179.357 213.533 178.765 213.64 178.102 213.64H176.786V217H175.162ZM176.786 212.338H177.976C179.32 212.338 179.992 211.783 179.992 210.672C179.992 210.093 179.815 209.697 179.46 209.482C179.115 209.258 178.601 209.146 177.92 209.146H176.786V212.338ZM184.738 217.168C184.169 217.168 183.763 216.995 183.52 216.65C183.287 216.305 183.17 215.833 183.17 215.236V207.116H184.78V215.32C184.78 215.516 184.818 215.656 184.892 215.74C184.967 215.815 185.046 215.852 185.13 215.852C185.168 215.852 185.2 215.852 185.228 215.852C185.266 215.843 185.317 215.833 185.382 215.824L185.592 217.028C185.499 217.065 185.378 217.098 185.228 217.126C185.088 217.154 184.925 217.168 184.738 217.168ZM188.637 217.168C188.04 217.168 187.55 216.981 187.167 216.608C186.794 216.235 186.607 215.749 186.607 215.152C186.607 214.415 186.929 213.845 187.573 213.444C188.217 213.033 189.244 212.753 190.653 212.604C190.644 212.24 190.546 211.927 190.359 211.666C190.182 211.395 189.86 211.26 189.393 211.26C189.057 211.26 188.726 211.325 188.399 211.456C188.082 211.587 187.769 211.745 187.461 211.932L186.873 210.854C187.256 210.611 187.685 210.401 188.161 210.224C188.647 210.047 189.16 209.958 189.701 209.958C190.56 209.958 191.199 210.215 191.619 210.728C192.049 211.232 192.263 211.965 192.263 212.926V217H190.933L190.821 216.244H190.765C190.457 216.505 190.126 216.725 189.771 216.902C189.426 217.079 189.048 217.168 188.637 217.168ZM189.155 215.908C189.435 215.908 189.687 215.843 189.911 215.712C190.145 215.572 190.392 215.385 190.653 215.152V213.612C189.72 213.733 189.071 213.915 188.707 214.158C188.343 214.391 188.161 214.681 188.161 215.026C188.161 215.334 188.255 215.558 188.441 215.698C188.628 215.838 188.866 215.908 189.155 215.908ZM197.06 217.168C196.435 217.168 195.87 217.028 195.366 216.748C194.871 216.459 194.475 216.048 194.176 215.516C193.887 214.975 193.742 214.326 193.742 213.57C193.742 212.805 193.901 212.156 194.218 211.624C194.535 211.083 194.955 210.672 195.478 210.392C196.01 210.103 196.579 209.958 197.186 209.958C197.625 209.958 198.007 210.033 198.334 210.182C198.661 210.331 198.95 210.513 199.202 210.728L198.418 211.778C198.241 211.619 198.059 211.498 197.872 211.414C197.685 211.321 197.485 211.274 197.27 211.274C196.719 211.274 196.267 211.484 195.912 211.904C195.567 212.324 195.394 212.879 195.394 213.57C195.394 214.251 195.562 214.802 195.898 215.222C196.243 215.642 196.687 215.852 197.228 215.852C197.499 215.852 197.751 215.796 197.984 215.684C198.227 215.563 198.446 215.423 198.642 215.264L199.3 216.328C198.983 216.608 198.628 216.818 198.236 216.958C197.844 217.098 197.452 217.168 197.06 217.168ZM203.255 217.168C202.62 217.168 202.046 217.028 201.533 216.748C201.02 216.459 200.614 216.048 200.315 215.516C200.016 214.975 199.867 214.326 199.867 213.57C199.867 212.823 200.016 212.179 200.315 211.638C200.623 211.097 201.02 210.681 201.505 210.392C201.99 210.103 202.499 209.958 203.031 209.958C203.656 209.958 204.179 210.098 204.599 210.378C205.019 210.649 205.336 211.031 205.551 211.526C205.766 212.011 205.873 212.576 205.873 213.22C205.873 213.556 205.85 213.817 205.803 214.004H201.435C201.51 214.611 201.729 215.082 202.093 215.418C202.457 215.754 202.914 215.922 203.465 215.922C203.764 215.922 204.039 215.88 204.291 215.796C204.552 215.703 204.809 215.577 205.061 215.418L205.607 216.426C205.28 216.641 204.916 216.818 204.515 216.958C204.114 217.098 203.694 217.168 203.255 217.168ZM201.421 212.912H204.473C204.473 212.38 204.356 211.965 204.123 211.666C203.89 211.358 203.54 211.204 203.073 211.204C202.672 211.204 202.312 211.353 201.995 211.652C201.687 211.941 201.496 212.361 201.421 212.912ZM207.411 217V207.116H209.021V209.664L208.965 210.994C209.254 210.723 209.576 210.485 209.931 210.28C210.285 210.065 210.696 209.958 211.163 209.958C211.9 209.958 212.437 210.196 212.773 210.672C213.109 211.148 213.277 211.82 213.277 212.688V217H211.667V212.898C211.667 212.329 211.583 211.927 211.415 211.694C211.247 211.461 210.971 211.344 210.589 211.344C210.29 211.344 210.024 211.419 209.791 211.568C209.567 211.708 209.31 211.918 209.021 212.198V217H207.411ZM218.031 217.168C217.462 217.168 216.93 217.028 216.435 216.748C215.941 216.459 215.539 216.048 215.231 215.516C214.923 214.975 214.769 214.326 214.769 213.57C214.769 212.805 214.923 212.156 215.231 211.624C215.539 211.083 215.941 210.672 216.435 210.392C216.93 210.103 217.462 209.958 218.031 209.958C218.61 209.958 219.147 210.103 219.641 210.392C220.136 210.672 220.537 211.083 220.845 211.624C221.153 212.156 221.307 212.805 221.307 213.57C221.307 214.326 221.153 214.975 220.845 215.516C220.537 216.048 220.136 216.459 219.641 216.748C219.147 217.028 218.61 217.168 218.031 217.168ZM218.031 215.852C218.535 215.852 218.932 215.642 219.221 215.222C219.511 214.802 219.655 214.251 219.655 213.57C219.655 212.879 219.511 212.324 219.221 211.904C218.932 211.484 218.535 211.274 218.031 211.274C217.527 211.274 217.131 211.484 216.841 211.904C216.561 212.324 216.421 212.879 216.421 213.57C216.421 214.251 216.561 214.802 216.841 215.222C217.131 215.642 217.527 215.852 218.031 215.852ZM224.469 217.168C223.9 217.168 223.494 216.995 223.251 216.65C223.018 216.305 222.901 215.833 222.901 215.236V207.116H224.511V215.32C224.511 215.516 224.548 215.656 224.623 215.74C224.698 215.815 224.777 215.852 224.861 215.852C224.898 215.852 224.931 215.852 224.959 215.852C224.996 215.843 225.048 215.833 225.113 215.824L225.323 217.028C225.23 217.065 225.108 217.098 224.959 217.126C224.819 217.154 224.656 217.168 224.469 217.168ZM229.11 217.168C228.251 217.168 227.565 216.851 227.052 216.216C226.538 215.581 226.282 214.699 226.282 213.57C226.282 212.823 226.417 212.179 226.688 211.638C226.968 211.097 227.332 210.681 227.78 210.392C228.228 210.103 228.699 209.958 229.194 209.958C229.586 209.958 229.917 210.028 230.188 210.168C230.468 210.299 230.738 210.481 231 210.714L230.944 209.608V207.116H232.554V217H231.224L231.112 216.258H231.056C230.804 216.51 230.51 216.725 230.174 216.902C229.838 217.079 229.483 217.168 229.11 217.168ZM229.502 215.838C230.015 215.838 230.496 215.581 230.944 215.068V211.862C230.71 211.647 230.477 211.498 230.244 211.414C230.01 211.33 229.777 211.288 229.544 211.288C229.105 211.288 228.727 211.489 228.41 211.89C228.102 212.282 227.948 212.837 227.948 213.556C227.948 214.293 228.083 214.858 228.354 215.25C228.624 215.642 229.007 215.838 229.502 215.838ZM237.544 217.168C236.909 217.168 236.335 217.028 235.822 216.748C235.309 216.459 234.903 216.048 234.604 215.516C234.305 214.975 234.156 214.326 234.156 213.57C234.156 212.823 234.305 212.179 234.604 211.638C234.912 211.097 235.309 210.681 235.794 210.392C236.279 210.103 236.788 209.958 237.32 209.958C237.945 209.958 238.468 210.098 238.888 210.378C239.308 210.649 239.625 211.031 239.84 211.526C240.055 212.011 240.162 212.576 240.162 213.22C240.162 213.556 240.139 213.817 240.092 214.004H235.724C235.799 214.611 236.018 215.082 236.382 215.418C236.746 215.754 237.203 215.922 237.754 215.922C238.053 215.922 238.328 215.88 238.58 215.796C238.841 215.703 239.098 215.577 239.35 215.418L239.896 216.426C239.569 216.641 239.205 216.818 238.804 216.958C238.403 217.098 237.983 217.168 237.544 217.168ZM235.71 212.912H238.762C238.762 212.38 238.645 211.965 238.412 211.666C238.179 211.358 237.829 211.204 237.362 211.204C236.961 211.204 236.601 211.353 236.284 211.652C235.976 211.941 235.785 212.361 235.71 212.912ZM241.7 217V210.126H243.03L243.142 211.344H243.198C243.44 210.896 243.734 210.555 244.08 210.322C244.425 210.079 244.78 209.958 245.144 209.958C245.47 209.958 245.732 210.005 245.928 210.098L245.648 211.498C245.526 211.461 245.414 211.433 245.312 211.414C245.209 211.395 245.083 211.386 244.934 211.386C244.663 211.386 244.378 211.493 244.08 211.708C243.781 211.913 243.524 212.277 243.31 212.8V217H241.7Z" fill="#354052"/>
<path d="M159 230H331V261H159V230Z" fill="#1991EB"/>
<path d="M175.162 250V240.844H178.046C178.727 240.844 179.334 240.933 179.866 241.11C180.398 241.287 180.818 241.581 181.126 241.992C181.434 242.403 181.588 242.963 181.588 243.672C181.588 244.344 181.434 244.899 181.126 245.338C180.818 245.777 180.403 246.103 179.88 246.318C179.357 246.533 178.765 246.64 178.102 246.64H176.786V250H175.162ZM176.786 245.338H177.976C179.32 245.338 179.992 244.783 179.992 243.672C179.992 243.093 179.815 242.697 179.46 242.482C179.115 242.258 178.601 242.146 177.92 242.146H176.786V245.338ZM184.738 250.168C184.169 250.168 183.763 249.995 183.52 249.65C183.287 249.305 183.17 248.833 183.17 248.236V240.116H184.78V248.32C184.78 248.516 184.818 248.656 184.892 248.74C184.967 248.815 185.046 248.852 185.13 248.852C185.168 248.852 185.2 248.852 185.228 248.852C185.266 248.843 185.317 248.833 185.382 248.824L185.592 250.028C185.499 250.065 185.378 250.098 185.228 250.126C185.088 250.154 184.925 250.168 184.738 250.168ZM188.637 250.168C188.04 250.168 187.55 249.981 187.167 249.608C186.794 249.235 186.607 248.749 186.607 248.152C186.607 247.415 186.929 246.845 187.573 246.444C188.217 246.033 189.244 245.753 190.653 245.604C190.644 245.24 190.546 244.927 190.359 244.666C190.182 244.395 189.86 244.26 189.393 244.26C189.057 244.26 188.726 244.325 188.399 244.456C188.082 244.587 187.769 244.745 187.461 244.932L186.873 243.854C187.256 243.611 187.685 243.401 188.161 243.224C188.647 243.047 189.16 242.958 189.701 242.958C190.56 242.958 191.199 243.215 191.619 243.728C192.049 244.232 192.263 244.965 192.263 245.926V250H190.933L190.821 249.244H190.765C190.457 249.505 190.126 249.725 189.771 249.902C189.426 250.079 189.048 250.168 188.637 250.168ZM189.155 248.908C189.435 248.908 189.687 248.843 189.911 248.712C190.145 248.572 190.392 248.385 190.653 248.152V246.612C189.72 246.733 189.071 246.915 188.707 247.158C188.343 247.391 188.161 247.681 188.161 248.026C188.161 248.334 188.255 248.558 188.441 248.698C188.628 248.838 188.866 248.908 189.155 248.908ZM197.06 250.168C196.435 250.168 195.87 250.028 195.366 249.748C194.871 249.459 194.475 249.048 194.176 248.516C193.887 247.975 193.742 247.326 193.742 246.57C193.742 245.805 193.901 245.156 194.218 244.624C194.535 244.083 194.955 243.672 195.478 243.392C196.01 243.103 196.579 242.958 197.186 242.958C197.625 242.958 198.007 243.033 198.334 243.182C198.661 243.331 198.95 243.513 199.202 243.728L198.418 244.778C198.241 244.619 198.059 244.498 197.872 244.414C197.685 244.321 197.485 244.274 197.27 244.274C196.719 244.274 196.267 244.484 195.912 244.904C195.567 245.324 195.394 245.879 195.394 246.57C195.394 247.251 195.562 247.802 195.898 248.222C196.243 248.642 196.687 248.852 197.228 248.852C197.499 248.852 197.751 248.796 197.984 248.684C198.227 248.563 198.446 248.423 198.642 248.264L199.3 249.328C198.983 249.608 198.628 249.818 198.236 249.958C197.844 250.098 197.452 250.168 197.06 250.168ZM203.255 250.168C202.62 250.168 202.046 250.028 201.533 249.748C201.02 249.459 200.614 249.048 200.315 248.516C200.016 247.975 199.867 247.326 199.867 246.57C199.867 245.823 200.016 245.179 200.315 244.638C200.623 244.097 201.02 243.681 201.505 243.392C201.99 243.103 202.499 242.958 203.031 242.958C203.656 242.958 204.179 243.098 204.599 243.378C205.019 243.649 205.336 244.031 205.551 244.526C205.766 245.011 205.873 245.576 205.873 246.22C205.873 246.556 205.85 246.817 205.803 247.004H201.435C201.51 247.611 201.729 248.082 202.093 248.418C202.457 248.754 202.914 248.922 203.465 248.922C203.764 248.922 204.039 248.88 204.291 248.796C204.552 248.703 204.809 248.577 205.061 248.418L205.607 249.426C205.28 249.641 204.916 249.818 204.515 249.958C204.114 250.098 203.694 250.168 203.255 250.168ZM201.421 245.912H204.473C204.473 245.38 204.356 244.965 204.123 244.666C203.89 244.358 203.54 244.204 203.073 244.204C202.672 244.204 202.312 244.353 201.995 244.652C201.687 244.941 201.496 245.361 201.421 245.912ZM207.411 250V240.116H209.021V242.664L208.965 243.994C209.254 243.723 209.576 243.485 209.931 243.28C210.285 243.065 210.696 242.958 211.163 242.958C211.9 242.958 212.437 243.196 212.773 243.672C213.109 244.148 213.277 244.82 213.277 245.688V250H211.667V245.898C211.667 245.329 211.583 244.927 211.415 244.694C211.247 244.461 210.971 244.344 210.589 244.344C210.29 244.344 210.024 244.419 209.791 244.568C209.567 244.708 209.31 244.918 209.021 245.198V250H207.411ZM218.031 250.168C217.462 250.168 216.93 250.028 216.435 249.748C215.941 249.459 215.539 249.048 215.231 248.516C214.923 247.975 214.769 247.326 214.769 246.57C214.769 245.805 214.923 245.156 215.231 244.624C215.539 244.083 215.941 243.672 216.435 243.392C216.93 243.103 217.462 242.958 218.031 242.958C218.61 242.958 219.147 243.103 219.641 243.392C220.136 243.672 220.537 244.083 220.845 244.624C221.153 245.156 221.307 245.805 221.307 246.57C221.307 247.326 221.153 247.975 220.845 248.516C220.537 249.048 220.136 249.459 219.641 249.748C219.147 250.028 218.61 250.168 218.031 250.168ZM218.031 248.852C218.535 248.852 218.932 248.642 219.221 248.222C219.511 247.802 219.655 247.251 219.655 246.57C219.655 245.879 219.511 245.324 219.221 244.904C218.932 244.484 218.535 244.274 218.031 244.274C217.527 244.274 217.131 244.484 216.841 244.904C216.561 245.324 216.421 245.879 216.421 246.57C216.421 247.251 216.561 247.802 216.841 248.222C217.131 248.642 217.527 248.852 218.031 248.852ZM224.469 250.168C223.9 250.168 223.494 249.995 223.251 249.65C223.018 249.305 222.901 248.833 222.901 248.236V240.116H224.511V248.32C224.511 248.516 224.548 248.656 224.623 248.74C224.698 248.815 224.777 248.852 224.861 248.852C224.898 248.852 224.931 248.852 224.959 248.852C224.996 248.843 225.048 248.833 225.113 248.824L225.323 250.028C225.23 250.065 225.108 250.098 224.959 250.126C224.819 250.154 224.656 250.168 224.469 250.168ZM229.11 250.168C228.251 250.168 227.565 249.851 227.052 249.216C226.538 248.581 226.282 247.699 226.282 246.57C226.282 245.823 226.417 245.179 226.688 244.638C226.968 244.097 227.332 243.681 227.78 243.392C228.228 243.103 228.699 242.958 229.194 242.958C229.586 242.958 229.917 243.028 230.188 243.168C230.468 243.299 230.738 243.481 231 243.714L230.944 242.608V240.116H232.554V250H231.224L231.112 249.258H231.056C230.804 249.51 230.51 249.725 230.174 249.902C229.838 250.079 229.483 250.168 229.11 250.168ZM229.502 248.838C230.015 248.838 230.496 248.581 230.944 248.068V244.862C230.71 244.647 230.477 244.498 230.244 244.414C230.01 244.33 229.777 244.288 229.544 244.288C229.105 244.288 228.727 244.489 228.41 244.89C228.102 245.282 227.948 245.837 227.948 246.556C227.948 247.293 228.083 247.858 228.354 248.25C228.624 248.642 229.007 248.838 229.502 248.838ZM237.544 250.168C236.909 250.168 236.335 250.028 235.822 249.748C235.309 249.459 234.903 249.048 234.604 248.516C234.305 247.975 234.156 247.326 234.156 246.57C234.156 245.823 234.305 245.179 234.604 244.638C234.912 244.097 235.309 243.681 235.794 243.392C236.279 243.103 236.788 242.958 237.32 242.958C237.945 242.958 238.468 243.098 238.888 243.378C239.308 243.649 239.625 244.031 239.84 244.526C240.055 245.011 240.162 245.576 240.162 246.22C240.162 246.556 240.139 246.817 240.092 247.004H235.724C235.799 247.611 236.018 248.082 236.382 248.418C236.746 248.754 237.203 248.922 237.754 248.922C238.053 248.922 238.328 248.88 238.58 248.796C238.841 248.703 239.098 248.577 239.35 248.418L239.896 249.426C239.569 249.641 239.205 249.818 238.804 249.958C238.403 250.098 237.983 250.168 237.544 250.168ZM235.71 245.912H238.762C238.762 245.38 238.645 244.965 238.412 244.666C238.179 244.358 237.829 244.204 237.362 244.204C236.961 244.204 236.601 244.353 236.284 244.652C235.976 244.941 235.785 245.361 235.71 245.912ZM241.7 250V243.126H243.03L243.142 244.344H243.198C243.44 243.896 243.734 243.555 244.08 243.322C244.425 243.079 244.78 242.958 245.144 242.958C245.47 242.958 245.732 243.005 245.928 243.098L245.648 244.498C245.526 244.461 245.414 244.433 245.312 244.414C245.209 244.395 245.083 244.386 244.934 244.386C244.663 244.386 244.378 244.493 244.08 244.708C243.781 244.913 243.524 245.277 243.31 245.8V250H241.7Z" fill="white"/>
<path d="M159 261H331V298H159V261Z" fill="white"/>
<path d="M174.162 284V274.844H177.046C177.727 274.844 178.334 274.933 178.866 275.11C179.398 275.287 179.818 275.581 180.126 275.992C180.434 276.403 180.588 276.963 180.588 277.672C180.588 278.344 180.434 278.899 180.126 279.338C179.818 279.777 179.403 280.103 178.88 280.318C178.357 280.533 177.765 280.64 177.102 280.64H175.786V284H174.162ZM175.786 279.338H176.976C178.32 279.338 178.992 278.783 178.992 277.672C178.992 277.093 178.815 276.697 178.46 276.482C178.115 276.258 177.601 276.146 176.92 276.146H175.786V279.338ZM183.738 284.168C183.169 284.168 182.763 283.995 182.52 283.65C182.287 283.305 182.17 282.833 182.17 282.236V274.116H183.78V282.32C183.78 282.516 183.818 282.656 183.892 282.74C183.967 282.815 184.046 282.852 184.13 282.852C184.168 282.852 184.2 282.852 184.228 282.852C184.266 282.843 184.317 282.833 184.382 282.824L184.592 284.028C184.499 284.065 184.378 284.098 184.228 284.126C184.088 284.154 183.925 284.168 183.738 284.168ZM187.637 284.168C187.04 284.168 186.55 283.981 186.167 283.608C185.794 283.235 185.607 282.749 185.607 282.152C185.607 281.415 185.929 280.845 186.573 280.444C187.217 280.033 188.244 279.753 189.653 279.604C189.644 279.24 189.546 278.927 189.359 278.666C189.182 278.395 188.86 278.26 188.393 278.26C188.057 278.26 187.726 278.325 187.399 278.456C187.082 278.587 186.769 278.745 186.461 278.932L185.873 277.854C186.256 277.611 186.685 277.401 187.161 277.224C187.647 277.047 188.16 276.958 188.701 276.958C189.56 276.958 190.199 277.215 190.619 277.728C191.049 278.232 191.263 278.965 191.263 279.926V284H189.933L189.821 283.244H189.765C189.457 283.505 189.126 283.725 188.771 283.902C188.426 284.079 188.048 284.168 187.637 284.168ZM188.155 282.908C188.435 282.908 188.687 282.843 188.911 282.712C189.145 282.572 189.392 282.385 189.653 282.152V280.612C188.72 280.733 188.071 280.915 187.707 281.158C187.343 281.391 187.161 281.681 187.161 282.026C187.161 282.334 187.255 282.558 187.441 282.698C187.628 282.838 187.866 282.908 188.155 282.908ZM196.06 284.168C195.435 284.168 194.87 284.028 194.366 283.748C193.871 283.459 193.475 283.048 193.176 282.516C192.887 281.975 192.742 281.326 192.742 280.57C192.742 279.805 192.901 279.156 193.218 278.624C193.535 278.083 193.955 277.672 194.478 277.392C195.01 277.103 195.579 276.958 196.186 276.958C196.625 276.958 197.007 277.033 197.334 277.182C197.661 277.331 197.95 277.513 198.202 277.728L197.418 278.778C197.241 278.619 197.059 278.498 196.872 278.414C196.685 278.321 196.485 278.274 196.27 278.274C195.719 278.274 195.267 278.484 194.912 278.904C194.567 279.324 194.394 279.879 194.394 280.57C194.394 281.251 194.562 281.802 194.898 282.222C195.243 282.642 195.687 282.852 196.228 282.852C196.499 282.852 196.751 282.796 196.984 282.684C197.227 282.563 197.446 282.423 197.642 282.264L198.3 283.328C197.983 283.608 197.628 283.818 197.236 283.958C196.844 284.098 196.452 284.168 196.06 284.168ZM202.255 284.168C201.62 284.168 201.046 284.028 200.533 283.748C200.02 283.459 199.614 283.048 199.315 282.516C199.016 281.975 198.867 281.326 198.867 280.57C198.867 279.823 199.016 279.179 199.315 278.638C199.623 278.097 200.02 277.681 200.505 277.392C200.99 277.103 201.499 276.958 202.031 276.958C202.656 276.958 203.179 277.098 203.599 277.378C204.019 277.649 204.336 278.031 204.551 278.526C204.766 279.011 204.873 279.576 204.873 280.22C204.873 280.556 204.85 280.817 204.803 281.004H200.435C200.51 281.611 200.729 282.082 201.093 282.418C201.457 282.754 201.914 282.922 202.465 282.922C202.764 282.922 203.039 282.88 203.291 282.796C203.552 282.703 203.809 282.577 204.061 282.418L204.607 283.426C204.28 283.641 203.916 283.818 203.515 283.958C203.114 284.098 202.694 284.168 202.255 284.168ZM200.421 279.912H203.473C203.473 279.38 203.356 278.965 203.123 278.666C202.89 278.358 202.54 278.204 202.073 278.204C201.672 278.204 201.312 278.353 200.995 278.652C200.687 278.941 200.496 279.361 200.421 279.912ZM206.411 284V274.116H208.021V276.664L207.965 277.994C208.254 277.723 208.576 277.485 208.931 277.28C209.285 277.065 209.696 276.958 210.163 276.958C210.9 276.958 211.437 277.196 211.773 277.672C212.109 278.148 212.277 278.82 212.277 279.688V284H210.667V279.898C210.667 279.329 210.583 278.927 210.415 278.694C210.247 278.461 209.971 278.344 209.589 278.344C209.29 278.344 209.024 278.419 208.791 278.568C208.567 278.708 208.31 278.918 208.021 279.198V284H206.411ZM217.031 284.168C216.462 284.168 215.93 284.028 215.435 283.748C214.941 283.459 214.539 283.048 214.231 282.516C213.923 281.975 213.769 281.326 213.769 280.57C213.769 279.805 213.923 279.156 214.231 278.624C214.539 278.083 214.941 277.672 215.435 277.392C215.93 277.103 216.462 276.958 217.031 276.958C217.61 276.958 218.147 277.103 218.641 277.392C219.136 277.672 219.537 278.083 219.845 278.624C220.153 279.156 220.307 279.805 220.307 280.57C220.307 281.326 220.153 281.975 219.845 282.516C219.537 283.048 219.136 283.459 218.641 283.748C218.147 284.028 217.61 284.168 217.031 284.168ZM217.031 282.852C217.535 282.852 217.932 282.642 218.221 282.222C218.511 281.802 218.655 281.251 218.655 280.57C218.655 279.879 218.511 279.324 218.221 278.904C217.932 278.484 217.535 278.274 217.031 278.274C216.527 278.274 216.131 278.484 215.841 278.904C215.561 279.324 215.421 279.879 215.421 280.57C215.421 281.251 215.561 281.802 215.841 282.222C216.131 282.642 216.527 282.852 217.031 282.852ZM223.469 284.168C222.9 284.168 222.494 283.995 222.251 283.65C222.018 283.305 221.901 282.833 221.901 282.236V274.116H223.511V282.32C223.511 282.516 223.548 282.656 223.623 282.74C223.698 282.815 223.777 282.852 223.861 282.852C223.898 282.852 223.931 282.852 223.959 282.852C223.996 282.843 224.048 282.833 224.113 282.824L224.323 284.028C224.23 284.065 224.108 284.098 223.959 284.126C223.819 284.154 223.656 284.168 223.469 284.168ZM228.11 284.168C227.251 284.168 226.565 283.851 226.052 283.216C225.538 282.581 225.282 281.699 225.282 280.57C225.282 279.823 225.417 279.179 225.688 278.638C225.968 278.097 226.332 277.681 226.78 277.392C227.228 277.103 227.699 276.958 228.194 276.958C228.586 276.958 228.917 277.028 229.188 277.168C229.468 277.299 229.738 277.481 230 277.714L229.944 276.608V274.116H231.554V284H230.224L230.112 283.258H230.056C229.804 283.51 229.51 283.725 229.174 283.902C228.838 284.079 228.483 284.168 228.11 284.168ZM228.502 282.838C229.015 282.838 229.496 282.581 229.944 282.068V278.862C229.71 278.647 229.477 278.498 229.244 278.414C229.01 278.33 228.777 278.288 228.544 278.288C228.105 278.288 227.727 278.489 227.41 278.89C227.102 279.282 226.948 279.837 226.948 280.556C226.948 281.293 227.083 281.858 227.354 282.25C227.624 282.642 228.007 282.838 228.502 282.838ZM236.544 284.168C235.909 284.168 235.335 284.028 234.822 283.748C234.309 283.459 233.903 283.048 233.604 282.516C233.305 281.975 233.156 281.326 233.156 280.57C233.156 279.823 233.305 279.179 233.604 278.638C233.912 278.097 234.309 277.681 234.794 277.392C235.279 277.103 235.788 276.958 236.32 276.958C236.945 276.958 237.468 277.098 237.888 277.378C238.308 277.649 238.625 278.031 238.84 278.526C239.055 279.011 239.162 279.576 239.162 280.22C239.162 280.556 239.139 280.817 239.092 281.004H234.724C234.799 281.611 235.018 282.082 235.382 282.418C235.746 282.754 236.203 282.922 236.754 282.922C237.053 282.922 237.328 282.88 237.58 282.796C237.841 282.703 238.098 282.577 238.35 282.418L238.896 283.426C238.569 283.641 238.205 283.818 237.804 283.958C237.403 284.098 236.983 284.168 236.544 284.168ZM234.71 279.912H237.762C237.762 279.38 237.645 278.965 237.412 278.666C237.179 278.358 236.829 278.204 236.362 278.204C235.961 278.204 235.601 278.353 235.284 278.652C234.976 278.941 234.785 279.361 234.71 279.912ZM240.7 284V277.126H242.03L242.142 278.344H242.198C242.44 277.896 242.734 277.555 243.08 277.322C243.425 277.079 243.78 276.958 244.144 276.958C244.47 276.958 244.732 277.005 244.928 277.098L244.648 278.498C244.526 278.461 244.414 278.433 244.312 278.414C244.209 278.395 244.083 278.386 243.934 278.386C243.663 278.386 243.378 278.493 243.08 278.708C242.781 278.913 242.524 279.277 242.31 279.8V284H240.7Z" fill="#354052"/>
<path d="M159 298H331V335H159V298Z" fill="white"/>
<path d="M174.162 321V311.844H177.046C177.727 311.844 178.334 311.933 178.866 312.11C179.398 312.287 179.818 312.581 180.126 312.992C180.434 313.403 180.588 313.963 180.588 314.672C180.588 315.344 180.434 315.899 180.126 316.338C179.818 316.777 179.403 317.103 178.88 317.318C178.357 317.533 177.765 317.64 177.102 317.64H175.786V321H174.162ZM175.786 316.338H176.976C178.32 316.338 178.992 315.783 178.992 314.672C178.992 314.093 178.815 313.697 178.46 313.482C178.115 313.258 177.601 313.146 176.92 313.146H175.786V316.338ZM183.738 321.168C183.169 321.168 182.763 320.995 182.52 320.65C182.287 320.305 182.17 319.833 182.17 319.236V311.116H183.78V319.32C183.78 319.516 183.818 319.656 183.892 319.74C183.967 319.815 184.046 319.852 184.13 319.852C184.168 319.852 184.2 319.852 184.228 319.852C184.266 319.843 184.317 319.833 184.382 319.824L184.592 321.028C184.499 321.065 184.378 321.098 184.228 321.126C184.088 321.154 183.925 321.168 183.738 321.168ZM187.637 321.168C187.04 321.168 186.55 320.981 186.167 320.608C185.794 320.235 185.607 319.749 185.607 319.152C185.607 318.415 185.929 317.845 186.573 317.444C187.217 317.033 188.244 316.753 189.653 316.604C189.644 316.24 189.546 315.927 189.359 315.666C189.182 315.395 188.86 315.26 188.393 315.26C188.057 315.26 187.726 315.325 187.399 315.456C187.082 315.587 186.769 315.745 186.461 315.932L185.873 314.854C186.256 314.611 186.685 314.401 187.161 314.224C187.647 314.047 188.16 313.958 188.701 313.958C189.56 313.958 190.199 314.215 190.619 314.728C191.049 315.232 191.263 315.965 191.263 316.926V321H189.933L189.821 320.244H189.765C189.457 320.505 189.126 320.725 188.771 320.902C188.426 321.079 188.048 321.168 187.637 321.168ZM188.155 319.908C188.435 319.908 188.687 319.843 188.911 319.712C189.145 319.572 189.392 319.385 189.653 319.152V317.612C188.72 317.733 188.071 317.915 187.707 318.158C187.343 318.391 187.161 318.681 187.161 319.026C187.161 319.334 187.255 319.558 187.441 319.698C187.628 319.838 187.866 319.908 188.155 319.908ZM196.06 321.168C195.435 321.168 194.87 321.028 194.366 320.748C193.871 320.459 193.475 320.048 193.176 319.516C192.887 318.975 192.742 318.326 192.742 317.57C192.742 316.805 192.901 316.156 193.218 315.624C193.535 315.083 193.955 314.672 194.478 314.392C195.01 314.103 195.579 313.958 196.186 313.958C196.625 313.958 197.007 314.033 197.334 314.182C197.661 314.331 197.95 314.513 198.202 314.728L197.418 315.778C197.241 315.619 197.059 315.498 196.872 315.414C196.685 315.321 196.485 315.274 196.27 315.274C195.719 315.274 195.267 315.484 194.912 315.904C194.567 316.324 194.394 316.879 194.394 317.57C194.394 318.251 194.562 318.802 194.898 319.222C195.243 319.642 195.687 319.852 196.228 319.852C196.499 319.852 196.751 319.796 196.984 319.684C197.227 319.563 197.446 319.423 197.642 319.264L198.3 320.328C197.983 320.608 197.628 320.818 197.236 320.958C196.844 321.098 196.452 321.168 196.06 321.168ZM202.255 321.168C201.62 321.168 201.046 321.028 200.533 320.748C200.02 320.459 199.614 320.048 199.315 319.516C199.016 318.975 198.867 318.326 198.867 317.57C198.867 316.823 199.016 316.179 199.315 315.638C199.623 315.097 200.02 314.681 200.505 314.392C200.99 314.103 201.499 313.958 202.031 313.958C202.656 313.958 203.179 314.098 203.599 314.378C204.019 314.649 204.336 315.031 204.551 315.526C204.766 316.011 204.873 316.576 204.873 317.22C204.873 317.556 204.85 317.817 204.803 318.004H200.435C200.51 318.611 200.729 319.082 201.093 319.418C201.457 319.754 201.914 319.922 202.465 319.922C202.764 319.922 203.039 319.88 203.291 319.796C203.552 319.703 203.809 319.577 204.061 319.418L204.607 320.426C204.28 320.641 203.916 320.818 203.515 320.958C203.114 321.098 202.694 321.168 202.255 321.168ZM200.421 316.912H203.473C203.473 316.38 203.356 315.965 203.123 315.666C202.89 315.358 202.54 315.204 202.073 315.204C201.672 315.204 201.312 315.353 200.995 315.652C200.687 315.941 200.496 316.361 200.421 316.912ZM206.411 321V311.116H208.021V313.664L207.965 314.994C208.254 314.723 208.576 314.485 208.931 314.28C209.285 314.065 209.696 313.958 210.163 313.958C210.9 313.958 211.437 314.196 211.773 314.672C212.109 315.148 212.277 315.82 212.277 316.688V321H210.667V316.898C210.667 316.329 210.583 315.927 210.415 315.694C210.247 315.461 209.971 315.344 209.589 315.344C209.29 315.344 209.024 315.419 208.791 315.568C208.567 315.708 208.31 315.918 208.021 316.198V321H206.411ZM217.031 321.168C216.462 321.168 215.93 321.028 215.435 320.748C214.941 320.459 214.539 320.048 214.231 319.516C213.923 318.975 213.769 318.326 213.769 317.57C213.769 316.805 213.923 316.156 214.231 315.624C214.539 315.083 214.941 314.672 215.435 314.392C215.93 314.103 216.462 313.958 217.031 313.958C217.61 313.958 218.147 314.103 218.641 314.392C219.136 314.672 219.537 315.083 219.845 315.624C220.153 316.156 220.307 316.805 220.307 317.57C220.307 318.326 220.153 318.975 219.845 319.516C219.537 320.048 219.136 320.459 218.641 320.748C218.147 321.028 217.61 321.168 217.031 321.168ZM217.031 319.852C217.535 319.852 217.932 319.642 218.221 319.222C218.511 318.802 218.655 318.251 218.655 317.57C218.655 316.879 218.511 316.324 218.221 315.904C217.932 315.484 217.535 315.274 217.031 315.274C216.527 315.274 216.131 315.484 215.841 315.904C215.561 316.324 215.421 316.879 215.421 317.57C215.421 318.251 215.561 318.802 215.841 319.222C216.131 319.642 216.527 319.852 217.031 319.852ZM223.469 321.168C222.9 321.168 222.494 320.995 222.251 320.65C222.018 320.305 221.901 319.833 221.901 319.236V311.116H223.511V319.32C223.511 319.516 223.548 319.656 223.623 319.74C223.698 319.815 223.777 319.852 223.861 319.852C223.898 319.852 223.931 319.852 223.959 319.852C223.996 319.843 224.048 319.833 224.113 319.824L224.323 321.028C224.23 321.065 224.108 321.098 223.959 321.126C223.819 321.154 223.656 321.168 223.469 321.168ZM228.11 321.168C227.251 321.168 226.565 320.851 226.052 320.216C225.538 319.581 225.282 318.699 225.282 317.57C225.282 316.823 225.417 316.179 225.688 315.638C225.968 315.097 226.332 314.681 226.78 314.392C227.228 314.103 227.699 313.958 228.194 313.958C228.586 313.958 228.917 314.028 229.188 314.168C229.468 314.299 229.738 314.481 230 314.714L229.944 313.608V311.116H231.554V321H230.224L230.112 320.258H230.056C229.804 320.51 229.51 320.725 229.174 320.902C228.838 321.079 228.483 321.168 228.11 321.168ZM228.502 319.838C229.015 319.838 229.496 319.581 229.944 319.068V315.862C229.71 315.647 229.477 315.498 229.244 315.414C229.01 315.33 228.777 315.288 228.544 315.288C228.105 315.288 227.727 315.489 227.41 315.89C227.102 316.282 226.948 316.837 226.948 317.556C226.948 318.293 227.083 318.858 227.354 319.25C227.624 319.642 228.007 319.838 228.502 319.838ZM236.544 321.168C235.909 321.168 235.335 321.028 234.822 320.748C234.309 320.459 233.903 320.048 233.604 319.516C233.305 318.975 233.156 318.326 233.156 317.57C233.156 316.823 233.305 316.179 233.604 315.638C233.912 315.097 234.309 314.681 234.794 314.392C235.279 314.103 235.788 313.958 236.32 313.958C236.945 313.958 237.468 314.098 237.888 314.378C238.308 314.649 238.625 315.031 238.84 315.526C239.055 316.011 239.162 316.576 239.162 317.22C239.162 317.556 239.139 317.817 239.092 318.004H234.724C234.799 318.611 235.018 319.082 235.382 319.418C235.746 319.754 236.203 319.922 236.754 319.922C237.053 319.922 237.328 319.88 237.58 319.796C237.841 319.703 238.098 319.577 238.35 319.418L238.896 320.426C238.569 320.641 238.205 320.818 237.804 320.958C237.403 321.098 236.983 321.168 236.544 321.168ZM234.71 316.912H237.762C237.762 316.38 237.645 315.965 237.412 315.666C237.179 315.358 236.829 315.204 236.362 315.204C235.961 315.204 235.601 315.353 235.284 315.652C234.976 315.941 234.785 316.361 234.71 316.912ZM240.7 321V314.126H242.03L242.142 315.344H242.198C242.44 314.896 242.734 314.555 243.08 314.322C243.425 314.079 243.78 313.958 244.144 313.958C244.47 313.958 244.732 314.005 244.928 314.098L244.648 315.498C244.526 315.461 244.414 315.433 244.312 315.414C244.209 315.395 244.083 315.386 243.934 315.386C243.663 315.386 243.378 315.493 243.08 315.708C242.781 315.913 242.524 316.277 242.31 316.8V321H240.7Z" fill="#354052"/>
<path d="M159 335H331V372H159V335Z" fill="white"/>
<path d="M174.162 358V348.844H177.046C177.727 348.844 178.334 348.933 178.866 349.11C179.398 349.287 179.818 349.581 180.126 349.992C180.434 350.403 180.588 350.963 180.588 351.672C180.588 352.344 180.434 352.899 180.126 353.338C179.818 353.777 179.403 354.103 178.88 354.318C178.357 354.533 177.765 354.64 177.102 354.64H175.786V358H174.162ZM175.786 353.338H176.976C178.32 353.338 178.992 352.783 178.992 351.672C178.992 351.093 178.815 350.697 178.46 350.482C178.115 350.258 177.601 350.146 176.92 350.146H175.786V353.338ZM183.738 358.168C183.169 358.168 182.763 357.995 182.52 357.65C182.287 357.305 182.17 356.833 182.17 356.236V348.116H183.78V356.32C183.78 356.516 183.818 356.656 183.892 356.74C183.967 356.815 184.046 356.852 184.13 356.852C184.168 356.852 184.2 356.852 184.228 356.852C184.266 356.843 184.317 356.833 184.382 356.824L184.592 358.028C184.499 358.065 184.378 358.098 184.228 358.126C184.088 358.154 183.925 358.168 183.738 358.168ZM187.637 358.168C187.04 358.168 186.55 357.981 186.167 357.608C185.794 357.235 185.607 356.749 185.607 356.152C185.607 355.415 185.929 354.845 186.573 354.444C187.217 354.033 188.244 353.753 189.653 353.604C189.644 353.24 189.546 352.927 189.359 352.666C189.182 352.395 188.86 352.26 188.393 352.26C188.057 352.26 187.726 352.325 187.399 352.456C187.082 352.587 186.769 352.745 186.461 352.932L185.873 351.854C186.256 351.611 186.685 351.401 187.161 351.224C187.647 351.047 188.16 350.958 188.701 350.958C189.56 350.958 190.199 351.215 190.619 351.728C191.049 352.232 191.263 352.965 191.263 353.926V358H189.933L189.821 357.244H189.765C189.457 357.505 189.126 357.725 188.771 357.902C188.426 358.079 188.048 358.168 187.637 358.168ZM188.155 356.908C188.435 356.908 188.687 356.843 188.911 356.712C189.145 356.572 189.392 356.385 189.653 356.152V354.612C188.72 354.733 188.071 354.915 187.707 355.158C187.343 355.391 187.161 355.681 187.161 356.026C187.161 356.334 187.255 356.558 187.441 356.698C187.628 356.838 187.866 356.908 188.155 356.908ZM196.06 358.168C195.435 358.168 194.87 358.028 194.366 357.748C193.871 357.459 193.475 357.048 193.176 356.516C192.887 355.975 192.742 355.326 192.742 354.57C192.742 353.805 192.901 353.156 193.218 352.624C193.535 352.083 193.955 351.672 194.478 351.392C195.01 351.103 195.579 350.958 196.186 350.958C196.625 350.958 197.007 351.033 197.334 351.182C197.661 351.331 197.95 351.513 198.202 351.728L197.418 352.778C197.241 352.619 197.059 352.498 196.872 352.414C196.685 352.321 196.485 352.274 196.27 352.274C195.719 352.274 195.267 352.484 194.912 352.904C194.567 353.324 194.394 353.879 194.394 354.57C194.394 355.251 194.562 355.802 194.898 356.222C195.243 356.642 195.687 356.852 196.228 356.852C196.499 356.852 196.751 356.796 196.984 356.684C197.227 356.563 197.446 356.423 197.642 356.264L198.3 357.328C197.983 357.608 197.628 357.818 197.236 357.958C196.844 358.098 196.452 358.168 196.06 358.168ZM202.255 358.168C201.62 358.168 201.046 358.028 200.533 357.748C200.02 357.459 199.614 357.048 199.315 356.516C199.016 355.975 198.867 355.326 198.867 354.57C198.867 353.823 199.016 353.179 199.315 352.638C199.623 352.097 200.02 351.681 200.505 351.392C200.99 351.103 201.499 350.958 202.031 350.958C202.656 350.958 203.179 351.098 203.599 351.378C204.019 351.649 204.336 352.031 204.551 352.526C204.766 353.011 204.873 353.576 204.873 354.22C204.873 354.556 204.85 354.817 204.803 355.004H200.435C200.51 355.611 200.729 356.082 201.093 356.418C201.457 356.754 201.914 356.922 202.465 356.922C202.764 356.922 203.039 356.88 203.291 356.796C203.552 356.703 203.809 356.577 204.061 356.418L204.607 357.426C204.28 357.641 203.916 357.818 203.515 357.958C203.114 358.098 202.694 358.168 202.255 358.168ZM200.421 353.912H203.473C203.473 353.38 203.356 352.965 203.123 352.666C202.89 352.358 202.54 352.204 202.073 352.204C201.672 352.204 201.312 352.353 200.995 352.652C200.687 352.941 200.496 353.361 200.421 353.912ZM206.411 358V348.116H208.021V350.664L207.965 351.994C208.254 351.723 208.576 351.485 208.931 351.28C209.285 351.065 209.696 350.958 210.163 350.958C210.9 350.958 211.437 351.196 211.773 351.672C212.109 352.148 212.277 352.82 212.277 353.688V358H210.667V353.898C210.667 353.329 210.583 352.927 210.415 352.694C210.247 352.461 209.971 352.344 209.589 352.344C209.29 352.344 209.024 352.419 208.791 352.568C208.567 352.708 208.31 352.918 208.021 353.198V358H206.411ZM217.031 358.168C216.462 358.168 215.93 358.028 215.435 357.748C214.941 357.459 214.539 357.048 214.231 356.516C213.923 355.975 213.769 355.326 213.769 354.57C213.769 353.805 213.923 353.156 214.231 352.624C214.539 352.083 214.941 351.672 215.435 351.392C215.93 351.103 216.462 350.958 217.031 350.958C217.61 350.958 218.147 351.103 218.641 351.392C219.136 351.672 219.537 352.083 219.845 352.624C220.153 353.156 220.307 353.805 220.307 354.57C220.307 355.326 220.153 355.975 219.845 356.516C219.537 357.048 219.136 357.459 218.641 357.748C218.147 358.028 217.61 358.168 217.031 358.168ZM217.031 356.852C217.535 356.852 217.932 356.642 218.221 356.222C218.511 355.802 218.655 355.251 218.655 354.57C218.655 353.879 218.511 353.324 218.221 352.904C217.932 352.484 217.535 352.274 217.031 352.274C216.527 352.274 216.131 352.484 215.841 352.904C215.561 353.324 215.421 353.879 215.421 354.57C215.421 355.251 215.561 355.802 215.841 356.222C216.131 356.642 216.527 356.852 217.031 356.852ZM223.469 358.168C222.9 358.168 222.494 357.995 222.251 357.65C222.018 357.305 221.901 356.833 221.901 356.236V348.116H223.511V356.32C223.511 356.516 223.548 356.656 223.623 356.74C223.698 356.815 223.777 356.852 223.861 356.852C223.898 356.852 223.931 356.852 223.959 356.852C223.996 356.843 224.048 356.833 224.113 356.824L224.323 358.028C224.23 358.065 224.108 358.098 223.959 358.126C223.819 358.154 223.656 358.168 223.469 358.168ZM228.11 358.168C227.251 358.168 226.565 357.851 226.052 357.216C225.538 356.581 225.282 355.699 225.282 354.57C225.282 353.823 225.417 353.179 225.688 352.638C225.968 352.097 226.332 351.681 226.78 351.392C227.228 351.103 227.699 350.958 228.194 350.958C228.586 350.958 228.917 351.028 229.188 351.168C229.468 351.299 229.738 351.481 230 351.714L229.944 350.608V348.116H231.554V358H230.224L230.112 357.258H230.056C229.804 357.51 229.51 357.725 229.174 357.902C228.838 358.079 228.483 358.168 228.11 358.168ZM228.502 356.838C229.015 356.838 229.496 356.581 229.944 356.068V352.862C229.71 352.647 229.477 352.498 229.244 352.414C229.01 352.33 228.777 352.288 228.544 352.288C228.105 352.288 227.727 352.489 227.41 352.89C227.102 353.282 226.948 353.837 226.948 354.556C226.948 355.293 227.083 355.858 227.354 356.25C227.624 356.642 228.007 356.838 228.502 356.838ZM236.544 358.168C235.909 358.168 235.335 358.028 234.822 357.748C234.309 357.459 233.903 357.048 233.604 356.516C233.305 355.975 233.156 355.326 233.156 354.57C233.156 353.823 233.305 353.179 233.604 352.638C233.912 352.097 234.309 351.681 234.794 351.392C235.279 351.103 235.788 350.958 236.32 350.958C236.945 350.958 237.468 351.098 237.888 351.378C238.308 351.649 238.625 352.031 238.84 352.526C239.055 353.011 239.162 353.576 239.162 354.22C239.162 354.556 239.139 354.817 239.092 355.004H234.724C234.799 355.611 235.018 356.082 235.382 356.418C235.746 356.754 236.203 356.922 236.754 356.922C237.053 356.922 237.328 356.88 237.58 356.796C237.841 356.703 238.098 356.577 238.35 356.418L238.896 357.426C238.569 357.641 238.205 357.818 237.804 357.958C237.403 358.098 236.983 358.168 236.544 358.168ZM234.71 353.912H237.762C237.762 353.38 237.645 352.965 237.412 352.666C237.179 352.358 236.829 352.204 236.362 352.204C235.961 352.204 235.601 352.353 235.284 352.652C234.976 352.941 234.785 353.361 234.71 353.912ZM240.7 358V351.126H242.03L242.142 352.344H242.198C242.44 351.896 242.734 351.555 243.08 351.322C243.425 351.079 243.78 350.958 244.144 350.958C244.47 350.958 244.732 351.005 244.928 351.098L244.648 352.498C244.526 352.461 244.414 352.433 244.312 352.414C244.209 352.395 244.083 352.386 243.934 352.386C243.663 352.386 243.378 352.493 243.08 352.708C242.781 352.913 242.524 353.277 242.31 353.8V358H240.7Z" fill="#354052"/>
<path d="M159 372H331V399C331 401.209 329.209 403 327 403H163C160.791 403 159 401.209 159 399V372Z" fill="white"/>
<path d="M174.162 392V382.844H177.046C177.727 382.844 178.334 382.933 178.866 383.11C179.398 383.287 179.818 383.581 180.126 383.992C180.434 384.403 180.588 384.963 180.588 385.672C180.588 386.344 180.434 386.899 180.126 387.338C179.818 387.777 179.403 388.103 178.88 388.318C178.357 388.533 177.765 388.64 177.102 388.64H175.786V392H174.162ZM175.786 387.338H176.976C178.32 387.338 178.992 386.783 178.992 385.672C178.992 385.093 178.815 384.697 178.46 384.482C178.115 384.258 177.601 384.146 176.92 384.146H175.786V387.338ZM183.738 392.168C183.169 392.168 182.763 391.995 182.52 391.65C182.287 391.305 182.17 390.833 182.17 390.236V382.116H183.78V390.32C183.78 390.516 183.818 390.656 183.892 390.74C183.967 390.815 184.046 390.852 184.13 390.852C184.168 390.852 184.2 390.852 184.228 390.852C184.266 390.843 184.317 390.833 184.382 390.824L184.592 392.028C184.499 392.065 184.378 392.098 184.228 392.126C184.088 392.154 183.925 392.168 183.738 392.168ZM187.637 392.168C187.04 392.168 186.55 391.981 186.167 391.608C185.794 391.235 185.607 390.749 185.607 390.152C185.607 389.415 185.929 388.845 186.573 388.444C187.217 388.033 188.244 387.753 189.653 387.604C189.644 387.24 189.546 386.927 189.359 386.666C189.182 386.395 188.86 386.26 188.393 386.26C188.057 386.26 187.726 386.325 187.399 386.456C187.082 386.587 186.769 386.745 186.461 386.932L185.873 385.854C186.256 385.611 186.685 385.401 187.161 385.224C187.647 385.047 188.16 384.958 188.701 384.958C189.56 384.958 190.199 385.215 190.619 385.728C191.049 386.232 191.263 386.965 191.263 387.926V392H189.933L189.821 391.244H189.765C189.457 391.505 189.126 391.725 188.771 391.902C188.426 392.079 188.048 392.168 187.637 392.168ZM188.155 390.908C188.435 390.908 188.687 390.843 188.911 390.712C189.145 390.572 189.392 390.385 189.653 390.152V388.612C188.72 388.733 188.071 388.915 187.707 389.158C187.343 389.391 187.161 389.681 187.161 390.026C187.161 390.334 187.255 390.558 187.441 390.698C187.628 390.838 187.866 390.908 188.155 390.908ZM196.06 392.168C195.435 392.168 194.87 392.028 194.366 391.748C193.871 391.459 193.475 391.048 193.176 390.516C192.887 389.975 192.742 389.326 192.742 388.57C192.742 387.805 192.901 387.156 193.218 386.624C193.535 386.083 193.955 385.672 194.478 385.392C195.01 385.103 195.579 384.958 196.186 384.958C196.625 384.958 197.007 385.033 197.334 385.182C197.661 385.331 197.95 385.513 198.202 385.728L197.418 386.778C197.241 386.619 197.059 386.498 196.872 386.414C196.685 386.321 196.485 386.274 196.27 386.274C195.719 386.274 195.267 386.484 194.912 386.904C194.567 387.324 194.394 387.879 194.394 388.57C194.394 389.251 194.562 389.802 194.898 390.222C195.243 390.642 195.687 390.852 196.228 390.852C196.499 390.852 196.751 390.796 196.984 390.684C197.227 390.563 197.446 390.423 197.642 390.264L198.3 391.328C197.983 391.608 197.628 391.818 197.236 391.958C196.844 392.098 196.452 392.168 196.06 392.168ZM202.255 392.168C201.62 392.168 201.046 392.028 200.533 391.748C200.02 391.459 199.614 391.048 199.315 390.516C199.016 389.975 198.867 389.326 198.867 388.57C198.867 387.823 199.016 387.179 199.315 386.638C199.623 386.097 200.02 385.681 200.505 385.392C200.99 385.103 201.499 384.958 202.031 384.958C202.656 384.958 203.179 385.098 203.599 385.378C204.019 385.649 204.336 386.031 204.551 386.526C204.766 387.011 204.873 387.576 204.873 388.22C204.873 388.556 204.85 388.817 204.803 389.004H200.435C200.51 389.611 200.729 390.082 201.093 390.418C201.457 390.754 201.914 390.922 202.465 390.922C202.764 390.922 203.039 390.88 203.291 390.796C203.552 390.703 203.809 390.577 204.061 390.418L204.607 391.426C204.28 391.641 203.916 391.818 203.515 391.958C203.114 392.098 202.694 392.168 202.255 392.168ZM200.421 387.912H203.473C203.473 387.38 203.356 386.965 203.123 386.666C202.89 386.358 202.54 386.204 202.073 386.204C201.672 386.204 201.312 386.353 200.995 386.652C200.687 386.941 200.496 387.361 200.421 387.912ZM206.411 392V382.116H208.021V384.664L207.965 385.994C208.254 385.723 208.576 385.485 208.931 385.28C209.285 385.065 209.696 384.958 210.163 384.958C210.9 384.958 211.437 385.196 211.773 385.672C212.109 386.148 212.277 386.82 212.277 387.688V392H210.667V387.898C210.667 387.329 210.583 386.927 210.415 386.694C210.247 386.461 209.971 386.344 209.589 386.344C209.29 386.344 209.024 386.419 208.791 386.568C208.567 386.708 208.31 386.918 208.021 387.198V392H206.411ZM217.031 392.168C216.462 392.168 215.93 392.028 215.435 391.748C214.941 391.459 214.539 391.048 214.231 390.516C213.923 389.975 213.769 389.326 213.769 388.57C213.769 387.805 213.923 387.156 214.231 386.624C214.539 386.083 214.941 385.672 215.435 385.392C215.93 385.103 216.462 384.958 217.031 384.958C217.61 384.958 218.147 385.103 218.641 385.392C219.136 385.672 219.537 386.083 219.845 386.624C220.153 387.156 220.307 387.805 220.307 388.57C220.307 389.326 220.153 389.975 219.845 390.516C219.537 391.048 219.136 391.459 218.641 391.748C218.147 392.028 217.61 392.168 217.031 392.168ZM217.031 390.852C217.535 390.852 217.932 390.642 218.221 390.222C218.511 389.802 218.655 389.251 218.655 388.57C218.655 387.879 218.511 387.324 218.221 386.904C217.932 386.484 217.535 386.274 217.031 386.274C216.527 386.274 216.131 386.484 215.841 386.904C215.561 387.324 215.421 387.879 215.421 388.57C215.421 389.251 215.561 389.802 215.841 390.222C216.131 390.642 216.527 390.852 217.031 390.852ZM223.469 392.168C222.9 392.168 222.494 391.995 222.251 391.65C222.018 391.305 221.901 390.833 221.901 390.236V382.116H223.511V390.32C223.511 390.516 223.548 390.656 223.623 390.74C223.698 390.815 223.777 390.852 223.861 390.852C223.898 390.852 223.931 390.852 223.959 390.852C223.996 390.843 224.048 390.833 224.113 390.824L224.323 392.028C224.23 392.065 224.108 392.098 223.959 392.126C223.819 392.154 223.656 392.168 223.469 392.168ZM228.11 392.168C227.251 392.168 226.565 391.851 226.052 391.216C225.538 390.581 225.282 389.699 225.282 388.57C225.282 387.823 225.417 387.179 225.688 386.638C225.968 386.097 226.332 385.681 226.78 385.392C227.228 385.103 227.699 384.958 228.194 384.958C228.586 384.958 228.917 385.028 229.188 385.168C229.468 385.299 229.738 385.481 230 385.714L229.944 384.608V382.116H231.554V392H230.224L230.112 391.258H230.056C229.804 391.51 229.51 391.725 229.174 391.902C228.838 392.079 228.483 392.168 228.11 392.168ZM228.502 390.838C229.015 390.838 229.496 390.581 229.944 390.068V386.862C229.71 386.647 229.477 386.498 229.244 386.414C229.01 386.33 228.777 386.288 228.544 386.288C228.105 386.288 227.727 386.489 227.41 386.89C227.102 387.282 226.948 387.837 226.948 388.556C226.948 389.293 227.083 389.858 227.354 390.25C227.624 390.642 228.007 390.838 228.502 390.838ZM236.544 392.168C235.909 392.168 235.335 392.028 234.822 391.748C234.309 391.459 233.903 391.048 233.604 390.516C233.305 389.975 233.156 389.326 233.156 388.57C233.156 387.823 233.305 387.179 233.604 386.638C233.912 386.097 234.309 385.681 234.794 385.392C235.279 385.103 235.788 384.958 236.32 384.958C236.945 384.958 237.468 385.098 237.888 385.378C238.308 385.649 238.625 386.031 238.84 386.526C239.055 387.011 239.162 387.576 239.162 388.22C239.162 388.556 239.139 388.817 239.092 389.004H234.724C234.799 389.611 235.018 390.082 235.382 390.418C235.746 390.754 236.203 390.922 236.754 390.922C237.053 390.922 237.328 390.88 237.58 390.796C237.841 390.703 238.098 390.577 238.35 390.418L238.896 391.426C238.569 391.641 238.205 391.818 237.804 391.958C237.403 392.098 236.983 392.168 236.544 392.168ZM234.71 387.912H237.762C237.762 387.38 237.645 386.965 237.412 386.666C237.179 386.358 236.829 386.204 236.362 386.204C235.961 386.204 235.601 386.353 235.284 386.652C234.976 386.941 234.785 387.361 234.71 387.912ZM240.7 392V385.126H242.03L242.142 386.344H242.198C242.44 385.896 242.734 385.555 243.08 385.322C243.425 385.079 243.78 384.958 244.144 384.958C244.47 384.958 244.732 385.005 244.928 385.098L244.648 386.498C244.526 386.461 244.414 386.433 244.312 386.414C244.209 386.395 244.083 386.386 243.934 386.386C243.663 386.386 243.378 386.493 243.08 386.708C242.781 386.913 242.524 387.277 242.31 387.8V392H240.7Z" fill="#354052"/>
</g>
<path d="M159.5 163C159.5 161.067 161.067 159.5 163 159.5H326.56C328.493 159.5 330.06 161.067 330.06 163V191C330.06 192.933 328.493 194.5 326.56 194.5H163C161.067 194.5 159.5 192.933 159.5 191V163Z" fill="white"/>
<path d="M159.5 163C159.5 161.067 161.067 159.5 163 159.5H326.56C328.493 159.5 330.06 161.067 330.06 163V191C330.06 192.933 328.493 194.5 326.56 194.5H163C161.067 194.5 159.5 192.933 159.5 191V163Z" stroke="#E6EAEE"/>
<path d="M175.162 181.5V172.344H178.046C178.727 172.344 179.334 172.433 179.866 172.61C180.398 172.787 180.818 173.081 181.126 173.492C181.434 173.903 181.588 174.463 181.588 175.172C181.588 175.844 181.434 176.399 181.126 176.838C180.818 177.277 180.403 177.603 179.88 177.818C179.357 178.033 178.765 178.14 178.102 178.14H176.786V181.5H175.162ZM176.786 176.838H177.976C179.32 176.838 179.992 176.283 179.992 175.172C179.992 174.593 179.815 174.197 179.46 173.982C179.115 173.758 178.601 173.646 177.92 173.646H176.786V176.838ZM184.738 181.668C184.169 181.668 183.763 181.495 183.52 181.15C183.287 180.805 183.17 180.333 183.17 179.736V171.616H184.78V179.82C184.78 180.016 184.818 180.156 184.892 180.24C184.967 180.315 185.046 180.352 185.13 180.352C185.168 180.352 185.2 180.352 185.228 180.352C185.266 180.343 185.317 180.333 185.382 180.324L185.592 181.528C185.499 181.565 185.378 181.598 185.228 181.626C185.088 181.654 184.925 181.668 184.738 181.668ZM188.637 181.668C188.04 181.668 187.55 181.481 187.167 181.108C186.794 180.735 186.607 180.249 186.607 179.652C186.607 178.915 186.929 178.345 187.573 177.944C188.217 177.533 189.244 177.253 190.653 177.104C190.644 176.74 190.546 176.427 190.359 176.166C190.182 175.895 189.86 175.76 189.393 175.76C189.057 175.76 188.726 175.825 188.399 175.956C188.082 176.087 187.769 176.245 187.461 176.432L186.873 175.354C187.256 175.111 187.685 174.901 188.161 174.724C188.647 174.547 189.16 174.458 189.701 174.458C190.56 174.458 191.199 174.715 191.619 175.228C192.049 175.732 192.263 176.465 192.263 177.426V181.5H190.933L190.821 180.744H190.765C190.457 181.005 190.126 181.225 189.771 181.402C189.426 181.579 189.048 181.668 188.637 181.668ZM189.155 180.408C189.435 180.408 189.687 180.343 189.911 180.212C190.145 180.072 190.392 179.885 190.653 179.652V178.112C189.72 178.233 189.071 178.415 188.707 178.658C188.343 178.891 188.161 179.181 188.161 179.526C188.161 179.834 188.255 180.058 188.441 180.198C188.628 180.338 188.866 180.408 189.155 180.408ZM197.06 181.668C196.435 181.668 195.87 181.528 195.366 181.248C194.871 180.959 194.475 180.548 194.176 180.016C193.887 179.475 193.742 178.826 193.742 178.07C193.742 177.305 193.901 176.656 194.218 176.124C194.535 175.583 194.955 175.172 195.478 174.892C196.01 174.603 196.579 174.458 197.186 174.458C197.625 174.458 198.007 174.533 198.334 174.682C198.661 174.831 198.95 175.013 199.202 175.228L198.418 176.278C198.241 176.119 198.059 175.998 197.872 175.914C197.685 175.821 197.485 175.774 197.27 175.774C196.719 175.774 196.267 175.984 195.912 176.404C195.567 176.824 195.394 177.379 195.394 178.07C195.394 178.751 195.562 179.302 195.898 179.722C196.243 180.142 196.687 180.352 197.228 180.352C197.499 180.352 197.751 180.296 197.984 180.184C198.227 180.063 198.446 179.923 198.642 179.764L199.3 180.828C198.983 181.108 198.628 181.318 198.236 181.458C197.844 181.598 197.452 181.668 197.06 181.668ZM203.255 181.668C202.62 181.668 202.046 181.528 201.533 181.248C201.02 180.959 200.614 180.548 200.315 180.016C200.016 179.475 199.867 178.826 199.867 178.07C199.867 177.323 200.016 176.679 200.315 176.138C200.623 175.597 201.02 175.181 201.505 174.892C201.99 174.603 202.499 174.458 203.031 174.458C203.656 174.458 204.179 174.598 204.599 174.878C205.019 175.149 205.336 175.531 205.551 176.026C205.766 176.511 205.873 177.076 205.873 177.72C205.873 178.056 205.85 178.317 205.803 178.504H201.435C201.51 179.111 201.729 179.582 202.093 179.918C202.457 180.254 202.914 180.422 203.465 180.422C203.764 180.422 204.039 180.38 204.291 180.296C204.552 180.203 204.809 180.077 205.061 179.918L205.607 180.926C205.28 181.141 204.916 181.318 204.515 181.458C204.114 181.598 203.694 181.668 203.255 181.668ZM201.421 177.412H204.473C204.473 176.88 204.356 176.465 204.123 176.166C203.89 175.858 203.54 175.704 203.073 175.704C202.672 175.704 202.312 175.853 201.995 176.152C201.687 176.441 201.496 176.861 201.421 177.412ZM207.411 181.5V171.616H209.021V174.164L208.965 175.494C209.254 175.223 209.576 174.985 209.931 174.78C210.285 174.565 210.696 174.458 211.163 174.458C211.9 174.458 212.437 174.696 212.773 175.172C213.109 175.648 213.277 176.32 213.277 177.188V181.5H211.667V177.398C211.667 176.829 211.583 176.427 211.415 176.194C211.247 175.961 210.971 175.844 210.589 175.844C210.29 175.844 210.024 175.919 209.791 176.068C209.567 176.208 209.31 176.418 209.021 176.698V181.5H207.411ZM218.031 181.668C217.462 181.668 216.93 181.528 216.435 181.248C215.941 180.959 215.539 180.548 215.231 180.016C214.923 179.475 214.769 178.826 214.769 178.07C214.769 177.305 214.923 176.656 215.231 176.124C215.539 175.583 215.941 175.172 216.435 174.892C216.93 174.603 217.462 174.458 218.031 174.458C218.61 174.458 219.147 174.603 219.641 174.892C220.136 175.172 220.537 175.583 220.845 176.124C221.153 176.656 221.307 177.305 221.307 178.07C221.307 178.826 221.153 179.475 220.845 180.016C220.537 180.548 220.136 180.959 219.641 181.248C219.147 181.528 218.61 181.668 218.031 181.668ZM218.031 180.352C218.535 180.352 218.932 180.142 219.221 179.722C219.511 179.302 219.655 178.751 219.655 178.07C219.655 177.379 219.511 176.824 219.221 176.404C218.932 175.984 218.535 175.774 218.031 175.774C217.527 175.774 217.131 175.984 216.841 176.404C216.561 176.824 216.421 177.379 216.421 178.07C216.421 178.751 216.561 179.302 216.841 179.722C217.131 180.142 217.527 180.352 218.031 180.352ZM224.469 181.668C223.9 181.668 223.494 181.495 223.251 181.15C223.018 180.805 222.901 180.333 222.901 179.736V171.616H224.511V179.82C224.511 180.016 224.548 180.156 224.623 180.24C224.698 180.315 224.777 180.352 224.861 180.352C224.898 180.352 224.931 180.352 224.959 180.352C224.996 180.343 225.048 180.333 225.113 180.324L225.323 181.528C225.23 181.565 225.108 181.598 224.959 181.626C224.819 181.654 224.656 181.668 224.469 181.668ZM229.11 181.668C228.251 181.668 227.565 181.351 227.052 180.716C226.538 180.081 226.282 179.199 226.282 178.07C226.282 177.323 226.417 176.679 226.688 176.138C226.968 175.597 227.332 175.181 227.78 174.892C228.228 174.603 228.699 174.458 229.194 174.458C229.586 174.458 229.917 174.528 230.188 174.668C230.468 174.799 230.738 174.981 231 175.214L230.944 174.108V171.616H232.554V181.5H231.224L231.112 180.758H231.056C230.804 181.01 230.51 181.225 230.174 181.402C229.838 181.579 229.483 181.668 229.11 181.668ZM229.502 180.338C230.015 180.338 230.496 180.081 230.944 179.568V176.362C230.71 176.147 230.477 175.998 230.244 175.914C230.01 175.83 229.777 175.788 229.544 175.788C229.105 175.788 228.727 175.989 228.41 176.39C228.102 176.782 227.948 177.337 227.948 178.056C227.948 178.793 228.083 179.358 228.354 179.75C228.624 180.142 229.007 180.338 229.502 180.338ZM237.544 181.668C236.909 181.668 236.335 181.528 235.822 181.248C235.309 180.959 234.903 180.548 234.604 180.016C234.305 179.475 234.156 178.826 234.156 178.07C234.156 177.323 234.305 176.679 234.604 176.138C234.912 175.597 235.309 175.181 235.794 174.892C236.279 174.603 236.788 174.458 237.32 174.458C237.945 174.458 238.468 174.598 238.888 174.878C239.308 175.149 239.625 175.531 239.84 176.026C240.055 176.511 240.162 177.076 240.162 177.72C240.162 178.056 240.139 178.317 240.092 178.504H235.724C235.799 179.111 236.018 179.582 236.382 179.918C236.746 180.254 237.203 180.422 237.754 180.422C238.053 180.422 238.328 180.38 238.58 180.296C238.841 180.203 239.098 180.077 239.35 179.918L239.896 180.926C239.569 181.141 239.205 181.318 238.804 181.458C238.403 181.598 237.983 181.668 237.544 181.668ZM235.71 177.412H238.762C238.762 176.88 238.645 176.465 238.412 176.166C238.179 175.858 237.829 175.704 237.362 175.704C236.961 175.704 236.601 175.853 236.284 176.152C235.976 176.441 235.785 176.861 235.71 177.412ZM241.7 181.5V174.626H243.03L243.142 175.844H243.198C243.44 175.396 243.734 175.055 244.08 174.822C244.425 174.579 244.78 174.458 245.144 174.458C245.47 174.458 245.732 174.505 245.928 174.598L245.648 175.998C245.526 175.961 245.414 175.933 245.312 175.914C245.209 175.895 245.083 175.886 244.934 175.886C244.663 175.886 244.378 175.993 244.08 176.208C243.781 176.413 243.524 176.777 243.31 177.3V181.5H241.7Z" fill="#354052"/>
<path d="M308.913 175.817C308.718 175.622 308.719 175.306 308.914 175.111C309.109 174.916 309.425 174.915 309.62 175.11L312.449 177.94C312.645 178.135 312.644 178.451 312.449 178.646C312.254 178.841 311.937 178.842 311.742 178.647L308.913 175.817Z" fill="#354052"/>
<rect width="1" height="5" rx="0.5" transform="matrix(0.707104 0.707109 -0.707104 0.707109 314.924 174.757)" fill="#354052"/>
</g>
<defs>
<clipPath id="clip0_199_4582">
<rect y="0.956787" width="532" height="433" rx="5" fill="white"/>
</clipPath>
<clipPath id="clip1_199_4582">
<rect x="159" y="195" width="172" height="208" rx="4" fill="white"/>
</clipPath>
</defs>
</svg>
