<svg width="649" height="177" viewBox="0 0 649 177" fill="none" xmlns="http://www.w3.org/2000/svg">
<rect width="649" height="177" rx="5" fill="#FAFAFA"/>
<rect width="585" height="119" transform="translate(32 32)" fill="#FAFAFA"/>
<g filter="url(#filter0_d_1170_9553)">
<rect x="155" y="45.0432" width="339" height="93" rx="5" fill="#BB3830"/>
<circle cx="188.5" cy="90.5432" r="15.5" fill="white"/>
<path d="M182.743 96.3004L188.5 90.5432L194.257 84.7861" stroke="#BB3830" stroke-width="4.5"/>
<path d="M182.743 84.7861L188.5 90.5432L194.257 96.3004" stroke="#BB3830" stroke-width="4.5"/>
<path d="M470.257 74.0432L474.757 69.5432L479.257 65.0432" stroke="white" stroke-width="3.5"/>
<path d="M470.257 65.0432L474.757 69.5432L479.257 74.0432" stroke="white" stroke-width="3.5"/>
<path d="M224.078 84.0432V74.9152H229.79V76.6512H226.136V78.4852H229.244V80.2072H226.136V82.3072H229.93V84.0432H224.078ZM231.58 84.0432V77.0992H233.26L233.4 78.3172H233.456C233.708 77.8505 234.011 77.5052 234.366 77.2812C234.721 77.0479 235.075 76.9312 235.43 76.9312C235.626 76.9312 235.789 76.9452 235.92 76.9732C236.051 76.9919 236.163 77.0245 236.256 77.0712L235.92 78.8492C235.799 78.8119 235.677 78.7839 235.556 78.7652C235.444 78.7465 235.313 78.7372 235.164 78.7372C234.903 78.7372 234.627 78.8352 234.338 79.0312C234.058 79.2179 233.825 79.5445 233.638 80.0112V84.0432H231.58ZM237.158 84.0432V77.0992H238.838L238.978 78.3172H239.034C239.286 77.8505 239.589 77.5052 239.944 77.2812C240.299 77.0479 240.653 76.9312 241.008 76.9312C241.204 76.9312 241.367 76.9452 241.498 76.9732C241.629 76.9919 241.741 77.0245 241.834 77.0712L241.498 78.8492C241.377 78.8119 241.255 78.7839 241.134 78.7652C241.022 78.7465 240.891 78.7372 240.742 78.7372C240.481 78.7372 240.205 78.8352 239.916 79.0312C239.636 79.2179 239.403 79.5445 239.216 80.0112V84.0432H237.158ZM245.581 84.2112C244.993 84.2112 244.438 84.0712 243.915 83.7912C243.402 83.5019 242.987 83.0865 242.669 82.5452C242.352 81.9945 242.193 81.3365 242.193 80.5712C242.193 79.7965 242.352 79.1385 242.669 78.5972C242.987 78.0559 243.402 77.6452 243.915 77.3652C244.438 77.0759 244.993 76.9312 245.581 76.9312C246.169 76.9312 246.72 77.0759 247.233 77.3652C247.747 77.6452 248.162 78.0559 248.479 78.5972C248.797 79.1385 248.955 79.7965 248.955 80.5712C248.955 81.3365 248.797 81.9945 248.479 82.5452C248.162 83.0865 247.747 83.5019 247.233 83.7912C246.72 84.0712 246.169 84.2112 245.581 84.2112ZM245.581 82.5452C246.001 82.5452 246.319 82.3679 246.533 82.0132C246.748 81.6492 246.855 81.1685 246.855 80.5712C246.855 79.9645 246.748 79.4839 246.533 79.1292C246.319 78.7745 246.001 78.5972 245.581 78.5972C245.152 78.5972 244.83 78.7745 244.615 79.1292C244.41 79.4839 244.307 79.9645 244.307 80.5712C244.307 81.1685 244.41 81.6492 244.615 82.0132C244.83 82.3679 245.152 82.5452 245.581 82.5452ZM250.365 84.0432V77.0992H252.045L252.185 78.3172H252.241C252.493 77.8505 252.796 77.5052 253.151 77.2812C253.506 77.0479 253.86 76.9312 254.215 76.9312C254.411 76.9312 254.574 76.9452 254.705 76.9732C254.836 76.9919 254.948 77.0245 255.041 77.0712L254.705 78.8492C254.584 78.8119 254.462 78.7839 254.341 78.7652C254.229 78.7465 254.098 78.7372 253.949 78.7372C253.688 78.7372 253.412 78.8352 253.123 79.0312C252.843 79.2179 252.61 79.5445 252.423 80.0112V84.0432H250.365Z" fill="white"/>
<path d="M224.26 108.043V98.8592H225.422V108.043H224.26ZM229.968 108.211C229.24 108.211 228.731 108.001 228.442 107.581C228.162 107.161 228.022 106.615 228.022 105.943V102.177H227.014V101.309L228.078 101.239L228.218 99.3352H229.184V101.239H231.018V102.177H229.184V105.957C229.184 106.377 229.258 106.704 229.408 106.937C229.566 107.161 229.842 107.273 230.234 107.273C230.355 107.273 230.486 107.255 230.626 107.217C230.766 107.171 230.892 107.129 231.004 107.091L231.228 107.959C231.041 108.025 230.836 108.081 230.612 108.127C230.397 108.183 230.182 108.211 229.968 108.211ZM235.123 108.211C234.516 108.211 233.965 108.071 233.471 107.791C232.976 107.502 232.584 107.091 232.295 106.559C232.005 106.027 231.861 105.393 231.861 104.655C231.861 103.909 232.005 103.269 232.295 102.737C232.593 102.205 232.976 101.795 233.443 101.505C233.909 101.216 234.399 101.071 234.913 101.071C235.781 101.071 236.448 101.361 236.915 101.939C237.391 102.518 237.629 103.293 237.629 104.263C237.629 104.385 237.624 104.506 237.615 104.627C237.615 104.739 237.605 104.837 237.587 104.921H232.995C233.041 105.64 233.265 106.214 233.667 106.643C234.077 107.073 234.609 107.287 235.263 107.287C235.589 107.287 235.888 107.241 236.159 107.147C236.439 107.045 236.705 106.914 236.957 106.755L237.363 107.511C237.073 107.698 236.742 107.861 236.369 108.001C236.005 108.141 235.589 108.211 235.123 108.211ZM232.981 104.095H236.621C236.621 103.405 236.471 102.882 236.173 102.527C235.883 102.163 235.473 101.981 234.941 101.981C234.465 101.981 234.035 102.168 233.653 102.541C233.279 102.905 233.055 103.423 232.981 104.095ZM239.31 108.043V101.239H240.262L240.36 102.219H240.402C240.701 101.893 241.027 101.622 241.382 101.407C241.737 101.183 242.115 101.071 242.516 101.071C243.039 101.071 243.445 101.188 243.734 101.421C244.033 101.645 244.252 101.963 244.392 102.373C244.747 101.991 245.106 101.678 245.47 101.435C245.834 101.193 246.221 101.071 246.632 101.071C247.332 101.071 247.85 101.3 248.186 101.757C248.531 102.205 248.704 102.863 248.704 103.731V108.043H247.556V103.885C247.556 103.251 247.453 102.789 247.248 102.499C247.043 102.21 246.725 102.065 246.296 102.065C245.792 102.065 245.223 102.415 244.588 103.115V108.043H243.44V103.885C243.44 103.251 243.337 102.789 243.132 102.499C242.927 102.21 242.605 102.065 242.166 102.065C241.662 102.065 241.093 102.415 240.458 103.115V108.043H239.31ZM256.408 108.211C255.811 108.211 255.27 108.071 254.784 107.791C254.299 107.511 253.916 107.105 253.636 106.573C253.356 106.041 253.216 105.402 253.216 104.655C253.216 103.89 253.366 103.241 253.664 102.709C253.972 102.177 254.374 101.771 254.868 101.491C255.372 101.211 255.914 101.071 256.492 101.071C256.94 101.071 257.323 101.151 257.64 101.309C257.967 101.468 258.247 101.655 258.48 101.869L257.892 102.625C257.696 102.448 257.486 102.303 257.262 102.191C257.048 102.079 256.805 102.023 256.534 102.023C256.124 102.023 255.755 102.135 255.428 102.359C255.111 102.574 254.859 102.882 254.672 103.283C254.495 103.675 254.406 104.133 254.406 104.655C254.406 105.43 254.598 106.06 254.98 106.545C255.372 107.021 255.881 107.259 256.506 107.259C256.824 107.259 257.118 107.194 257.388 107.063C257.659 106.923 257.897 106.76 258.102 106.573L258.606 107.343C258.298 107.614 257.958 107.829 257.584 107.987C257.211 108.137 256.819 108.211 256.408 108.211ZM262.45 108.211C261.9 108.211 261.382 108.071 260.896 107.791C260.42 107.511 260.033 107.105 259.734 106.573C259.445 106.041 259.3 105.402 259.3 104.655C259.3 103.89 259.445 103.241 259.734 102.709C260.033 102.177 260.42 101.771 260.896 101.491C261.382 101.211 261.9 101.071 262.45 101.071C263.01 101.071 263.528 101.211 264.004 101.491C264.48 101.771 264.863 102.177 265.152 102.709C265.451 103.241 265.6 103.89 265.6 104.655C265.6 105.402 265.451 106.041 265.152 106.573C264.863 107.105 264.48 107.511 264.004 107.791C263.528 108.071 263.01 108.211 262.45 108.211ZM262.45 107.259C263.038 107.259 263.51 107.021 263.864 106.545C264.228 106.06 264.41 105.43 264.41 104.655C264.41 103.871 264.228 103.237 263.864 102.751C263.51 102.266 263.038 102.023 262.45 102.023C261.872 102.023 261.4 102.266 261.036 102.751C260.672 103.237 260.49 103.871 260.49 104.655C260.49 105.43 260.672 106.06 261.036 106.545C261.4 107.021 261.872 107.259 262.45 107.259ZM269.38 108.211C268.661 108.211 268.134 107.987 267.798 107.539C267.462 107.082 267.294 106.419 267.294 105.551V101.239H268.456V105.397C268.456 106.032 268.554 106.494 268.75 106.783C268.955 107.073 269.282 107.217 269.73 107.217C270.085 107.217 270.397 107.129 270.668 106.951C270.948 106.765 271.247 106.471 271.564 106.069V101.239H272.712V108.043H271.76L271.662 106.979H271.62C271.303 107.353 270.967 107.651 270.612 107.875C270.257 108.099 269.847 108.211 269.38 108.211ZM276.225 108.211C275.796 108.211 275.483 108.081 275.287 107.819C275.101 107.549 275.007 107.166 275.007 106.671V98.0752H276.155V106.755C276.155 106.933 276.188 107.063 276.253 107.147C276.319 107.222 276.393 107.259 276.477 107.259C276.515 107.259 276.547 107.259 276.575 107.259C276.613 107.25 276.664 107.241 276.729 107.231L276.883 108.099C276.809 108.137 276.72 108.165 276.617 108.183C276.515 108.202 276.384 108.211 276.225 108.211ZM280.9 108.211C280.05 108.211 279.369 107.903 278.856 107.287C278.342 106.662 278.086 105.785 278.086 104.655C278.086 103.918 278.221 103.283 278.492 102.751C278.772 102.21 279.136 101.795 279.584 101.505C280.041 101.216 280.526 101.071 281.04 101.071C281.432 101.071 281.772 101.141 282.062 101.281C282.351 101.421 282.645 101.613 282.944 101.855L282.888 100.693V98.0752H284.05V108.043H283.098L283 107.245H282.958C282.696 107.507 282.388 107.735 282.034 107.931C281.679 108.118 281.301 108.211 280.9 108.211ZM281.152 107.245C281.749 107.245 282.328 106.933 282.888 106.307V102.751C282.598 102.49 282.318 102.308 282.048 102.205C281.786 102.093 281.516 102.037 281.236 102.037C280.872 102.037 280.54 102.149 280.242 102.373C279.952 102.588 279.719 102.891 279.542 103.283C279.364 103.666 279.276 104.119 279.276 104.641C279.276 105.453 279.439 106.093 279.766 106.559C280.092 107.017 280.554 107.245 281.152 107.245ZM289.144 108.043V101.239H290.096L290.194 102.219H290.236C290.563 101.893 290.908 101.622 291.272 101.407C291.636 101.183 292.051 101.071 292.518 101.071C293.237 101.071 293.759 101.3 294.086 101.757C294.422 102.205 294.59 102.863 294.59 103.731V108.043H293.442V103.885C293.442 103.251 293.339 102.789 293.134 102.499C292.929 102.21 292.602 102.065 292.154 102.065C291.809 102.065 291.496 102.154 291.216 102.331C290.945 102.509 290.637 102.77 290.292 103.115V108.043H289.144ZM299.446 108.211C298.896 108.211 298.378 108.071 297.892 107.791C297.416 107.511 297.029 107.105 296.73 106.573C296.441 106.041 296.296 105.402 296.296 104.655C296.296 103.89 296.441 103.241 296.73 102.709C297.029 102.177 297.416 101.771 297.892 101.491C298.378 101.211 298.896 101.071 299.446 101.071C300.006 101.071 300.524 101.211 301 101.491C301.476 101.771 301.859 102.177 302.148 102.709C302.447 103.241 302.596 103.89 302.596 104.655C302.596 105.402 302.447 106.041 302.148 106.573C301.859 107.105 301.476 107.511 301 107.791C300.524 108.071 300.006 108.211 299.446 108.211ZM299.446 107.259C300.034 107.259 300.506 107.021 300.86 106.545C301.224 106.06 301.406 105.43 301.406 104.655C301.406 103.871 301.224 103.237 300.86 102.751C300.506 102.266 300.034 102.023 299.446 102.023C298.868 102.023 298.396 102.266 298.032 102.751C297.668 103.237 297.486 103.871 297.486 104.655C297.486 105.43 297.668 106.06 298.032 106.545C298.396 107.021 298.868 107.259 299.446 107.259ZM306.298 108.211C305.57 108.211 305.061 108.001 304.772 107.581C304.492 107.161 304.352 106.615 304.352 105.943V102.177H303.344V101.309L304.408 101.239L304.548 99.3352H305.514V101.239H307.348V102.177H305.514V105.957C305.514 106.377 305.588 106.704 305.738 106.937C305.896 107.161 306.172 107.273 306.564 107.273C306.685 107.273 306.816 107.255 306.956 107.217C307.096 107.171 307.222 107.129 307.334 107.091L307.558 107.959C307.371 108.025 307.166 108.081 306.942 108.127C306.727 108.183 306.512 108.211 306.298 108.211ZM314.699 108.211C314.382 108.211 314.05 108.137 313.705 107.987C313.369 107.829 313.052 107.614 312.753 107.343H312.711L312.613 108.043H311.689V98.0752H312.837V100.791L312.809 102.023C313.117 101.753 313.453 101.529 313.817 101.351C314.19 101.165 314.564 101.071 314.937 101.071C315.824 101.071 316.496 101.384 316.953 102.009C317.41 102.635 317.639 103.475 317.639 104.529C317.639 105.304 317.499 105.967 317.219 106.517C316.948 107.068 316.589 107.488 316.141 107.777C315.702 108.067 315.222 108.211 314.699 108.211ZM314.503 107.245C315.063 107.245 315.525 107.007 315.889 106.531C316.262 106.046 316.449 105.383 316.449 104.543C316.449 103.797 316.309 103.195 316.029 102.737C315.758 102.271 315.301 102.037 314.657 102.037C314.368 102.037 314.074 102.117 313.775 102.275C313.476 102.434 313.164 102.663 312.837 102.961V106.531C313.136 106.793 313.43 106.979 313.719 107.091C314.018 107.194 314.279 107.245 314.503 107.245ZM322.185 108.211C321.579 108.211 321.028 108.071 320.533 107.791C320.039 107.502 319.647 107.091 319.357 106.559C319.068 106.027 318.923 105.393 318.923 104.655C318.923 103.909 319.068 103.269 319.357 102.737C319.656 102.205 320.039 101.795 320.505 101.505C320.972 101.216 321.462 101.071 321.975 101.071C322.843 101.071 323.511 101.361 323.977 101.939C324.453 102.518 324.691 103.293 324.691 104.263C324.691 104.385 324.687 104.506 324.677 104.627C324.677 104.739 324.668 104.837 324.649 104.921H320.057C320.104 105.64 320.328 106.214 320.729 106.643C321.14 107.073 321.672 107.287 322.325 107.287C322.652 107.287 322.951 107.241 323.221 107.147C323.501 107.045 323.767 106.914 324.019 106.755L324.425 107.511C324.136 107.698 323.805 107.861 323.431 108.001C323.067 108.141 322.652 108.211 322.185 108.211ZM320.043 104.095H323.683C323.683 103.405 323.534 102.882 323.235 102.527C322.946 102.163 322.535 101.981 322.003 101.981C321.527 101.981 321.098 102.168 320.715 102.541C320.342 102.905 320.118 103.423 320.043 104.095ZM329.371 108.043V102.177H328.447V101.309L329.371 101.239V100.161C329.371 99.4705 329.53 98.9245 329.847 98.5232C330.174 98.1125 330.678 97.9072 331.359 97.9072C331.574 97.9072 331.779 97.9305 331.975 97.9772C332.171 98.0145 332.344 98.0659 332.493 98.1312L332.241 99.0132C331.989 98.9012 331.733 98.8452 331.471 98.8452C330.837 98.8452 330.519 99.2839 330.519 100.161V101.239H331.961V102.177H330.519V108.043H329.371ZM335.773 108.211C335.222 108.211 334.704 108.071 334.219 107.791C333.743 107.511 333.355 107.105 333.057 106.573C332.767 106.041 332.623 105.402 332.623 104.655C332.623 103.89 332.767 103.241 333.057 102.709C333.355 102.177 333.743 101.771 334.219 101.491C334.704 101.211 335.222 101.071 335.773 101.071C336.333 101.071 336.851 101.211 337.327 101.491C337.803 101.771 338.185 102.177 338.475 102.709C338.773 103.241 338.923 103.89 338.923 104.655C338.923 105.402 338.773 106.041 338.475 106.573C338.185 107.105 337.803 107.511 337.327 107.791C336.851 108.071 336.333 108.211 335.773 108.211ZM335.773 107.259C336.361 107.259 336.832 107.021 337.187 106.545C337.551 106.06 337.733 105.43 337.733 104.655C337.733 103.871 337.551 103.237 337.187 102.751C336.832 102.266 336.361 102.023 335.773 102.023C335.194 102.023 334.723 102.266 334.359 102.751C333.995 103.237 333.813 103.871 333.813 104.655C333.813 105.43 333.995 106.06 334.359 106.545C334.723 107.021 335.194 107.259 335.773 107.259ZM342.702 108.211C341.984 108.211 341.456 107.987 341.12 107.539C340.784 107.082 340.616 106.419 340.616 105.551V101.239H341.778V105.397C341.778 106.032 341.876 106.494 342.072 106.783C342.278 107.073 342.604 107.217 343.052 107.217C343.407 107.217 343.72 107.129 343.99 106.951C344.27 106.765 344.569 106.471 344.886 106.069V101.239H346.034V108.043H345.082L344.984 106.979H344.942C344.625 107.353 344.289 107.651 343.934 107.875C343.58 108.099 343.169 108.211 342.702 108.211ZM348.33 108.043V101.239H349.282L349.38 102.219H349.422C349.748 101.893 350.094 101.622 350.458 101.407C350.822 101.183 351.237 101.071 351.704 101.071C352.422 101.071 352.945 101.3 353.272 101.757C353.608 102.205 353.776 102.863 353.776 103.731V108.043H352.628V103.885C352.628 103.251 352.525 102.789 352.32 102.499C352.114 102.21 351.788 102.065 351.34 102.065C350.994 102.065 350.682 102.154 350.402 102.331C350.131 102.509 349.823 102.77 349.478 103.115V108.043H348.33ZM358.31 108.211C357.461 108.211 356.779 107.903 356.266 107.287C355.753 106.662 355.496 105.785 355.496 104.655C355.496 103.918 355.631 103.283 355.902 102.751C356.182 102.21 356.546 101.795 356.994 101.505C357.451 101.216 357.937 101.071 358.45 101.071C358.842 101.071 359.183 101.141 359.472 101.281C359.761 101.421 360.055 101.613 360.354 101.855L360.298 100.693V98.0752H361.46V108.043H360.508L360.41 107.245H360.368C360.107 107.507 359.799 107.735 359.444 107.931C359.089 108.118 358.711 108.211 358.31 108.211ZM358.562 107.245C359.159 107.245 359.738 106.933 360.298 106.307V102.751C360.009 102.49 359.729 102.308 359.458 102.205C359.197 102.093 358.926 102.037 358.646 102.037C358.282 102.037 357.951 102.149 357.652 102.373C357.363 102.588 357.129 102.891 356.952 103.283C356.775 103.666 356.686 104.119 356.686 104.641C356.686 105.453 356.849 106.093 357.176 106.559C357.503 107.017 357.965 107.245 358.562 107.245ZM364.354 108.211C364.12 108.211 363.92 108.132 363.752 107.973C363.593 107.805 363.514 107.595 363.514 107.343C363.514 107.073 363.593 106.858 363.752 106.699C363.92 106.531 364.12 106.447 364.354 106.447C364.578 106.447 364.769 106.531 364.928 106.699C365.096 106.858 365.18 107.073 365.18 107.343C365.18 107.595 365.096 107.805 364.928 107.973C364.769 108.132 364.578 108.211 364.354 108.211Z" fill="white"/>
</g>
<defs>
<filter id="filter0_d_1170_9553" x="155" y="45.0432" width="343" height="97" filterUnits="userSpaceOnUse" color-interpolation-filters="sRGB">
<feFlood flood-opacity="0" result="BackgroundImageFix"/>
<feColorMatrix in="SourceAlpha" type="matrix" values="0 0 0 0 0 0 0 0 0 0 0 0 0 0 0 0 0 0 127 0" result="hardAlpha"/>
<feOffset dx="2" dy="2"/>
<feGaussianBlur stdDeviation="1"/>
<feComposite in2="hardAlpha" operator="out"/>
<feColorMatrix type="matrix" values="0 0 0 0 0 0 0 0 0 0 0 0 0 0 0 0 0 0 0.25 0"/>
<feBlend mode="normal" in2="BackgroundImageFix" result="effect1_dropShadow_1170_9553"/>
<feBlend mode="normal" in="SourceGraphic" in2="effect1_dropShadow_1170_9553" result="shape"/>
</filter>
</defs>
</svg>
