<svg width="235" height="124" viewBox="0 0 235 124" fill="none" xmlns="http://www.w3.org/2000/svg">
<rect x="0.75" y="0.75" width="233.5" height="122.5" rx="3.25" fill="white"/>
<rect x="0.75" y="0.75" width="233.5" height="122.5" rx="3.25" stroke="#1991EB" stroke-width="1.5"/>
<path d="M58 17H27.197V28.3311C24.2766 28.928 21.5723 30.3049 19.3716 32.3154C17.1708 34.326 15.5558 36.8951 14.698 39.7499C13.8402 42.6047 13.7717 45.6385 14.4998 48.5291C15.2279 51.4196 16.7254 54.059 18.8332 56.1668C20.941 58.2746 23.5804 59.7721 26.4709 60.5002C29.3615 61.2283 32.3953 61.1598 35.2501 60.302C38.1049 59.4442 40.674 57.8292 42.6846 55.6284C44.6951 53.4277 46.072 50.7234 46.6689 47.803H58V17ZM46.9637 43.4025C46.6976 39.4147 44.9933 35.659 42.1672 32.8328C39.3411 30.0067 35.5853 28.3024 31.5975 28.0363V21.4004H53.5996V43.4025H46.9637ZM30.4974 32.4015C33.7068 32.4015 36.7848 33.6764 39.0542 35.9458C41.3236 38.2152 42.5985 41.2932 42.5985 44.5026C42.5985 47.7121 41.3236 50.7901 39.0542 53.0595C36.7848 55.3289 33.7068 56.6038 30.4974 56.6038C27.2879 56.6038 24.2099 55.3289 21.9405 53.0595C19.6711 50.7901 18.3962 47.7121 18.3962 44.5026C18.3962 41.2932 19.6711 38.2152 21.9405 35.9458C24.2099 33.6764 27.2879 32.4015 30.4974 32.4015Z" fill="#1991EB"/>
<path d="M22.4588 84.3281H20.5923C20.5582 84.0866 20.4886 83.8722 20.3835 83.6847C20.2784 83.4943 20.1435 83.3324 19.9787 83.1989C19.8139 83.0653 19.6236 82.9631 19.4077 82.892C19.1946 82.821 18.9631 82.7855 18.7131 82.7855C18.2614 82.7855 17.8679 82.8977 17.5327 83.1222C17.1974 83.3437 16.9375 83.6676 16.7528 84.0938C16.5682 84.517 16.4759 85.0312 16.4759 85.6364C16.4759 86.2585 16.5682 86.7812 16.7528 87.2045C16.9403 87.6278 17.2017 87.9474 17.5369 88.1634C17.8722 88.3793 18.2599 88.4872 18.7003 88.4872C18.9474 88.4872 19.1761 88.4545 19.3864 88.3892C19.5994 88.3239 19.7884 88.2287 19.9531 88.1037C20.1179 87.9759 20.2543 87.821 20.3622 87.6392C20.473 87.4574 20.5497 87.25 20.5923 87.017L22.4588 87.0256C22.4105 87.4261 22.2898 87.8125 22.0966 88.1847C21.9063 88.554 21.6491 88.8849 21.3253 89.1776C21.0043 89.4673 20.6207 89.6974 20.1747 89.8679C19.7315 90.0355 19.2301 90.1193 18.6705 90.1193C17.892 90.1193 17.196 89.9432 16.5824 89.5909C15.9716 89.2386 15.4886 88.7287 15.1335 88.0611C14.7812 87.3935 14.6051 86.5852 14.6051 85.6364C14.6051 84.6847 14.7841 83.875 15.142 83.2074C15.5 82.5398 15.9858 82.0312 16.5994 81.6818C17.2131 81.3295 17.9034 81.1534 18.6705 81.1534C19.1761 81.1534 19.6449 81.2244 20.0767 81.3665C20.5114 81.5085 20.8963 81.7159 21.2315 81.9886C21.5668 82.2585 21.8395 82.5895 22.0497 82.9815C22.2628 83.3736 22.3991 83.8224 22.4588 84.3281ZM27.9453 87.2131V83.4545H29.7607V90H28.0178V88.8111H27.9496C27.8018 89.1946 27.5561 89.5028 27.2124 89.7358C26.8714 89.9687 26.4553 90.0852 25.9638 90.0852C25.5263 90.0852 25.1413 89.9858 24.8089 89.7869C24.4766 89.5881 24.2166 89.3054 24.0291 88.9389C23.8445 88.5724 23.7507 88.1335 23.7479 87.6222V83.4545H25.5632V87.2983C25.5661 87.6847 25.6697 87.9901 25.8743 88.2145C26.0788 88.4389 26.353 88.5511 26.6967 88.5511C26.9155 88.5511 27.12 88.5014 27.3104 88.402C27.5007 88.2997 27.6541 88.1491 27.7706 87.9503C27.8899 87.7514 27.9482 87.5057 27.9453 87.2131ZM31.2468 90V81.2727H33.0621V84.554H33.1175C33.1971 84.3778 33.3121 84.1989 33.4627 84.017C33.6161 83.8324 33.815 83.679 34.0593 83.5568C34.3065 83.4318 34.6133 83.3693 34.9798 83.3693C35.457 83.3693 35.8974 83.4943 36.3008 83.7443C36.7042 83.9915 37.0266 84.3651 37.2681 84.8651C37.5096 85.3622 37.6303 85.9858 37.6303 86.7358C37.6303 87.4659 37.5124 88.0824 37.2766 88.5852C37.0437 89.0852 36.7255 89.4645 36.3221 89.723C35.9215 89.9787 35.4727 90.1065 34.9755 90.1065C34.6232 90.1065 34.3235 90.0483 34.0763 89.9318C33.832 89.8153 33.6317 89.669 33.4755 89.4929C33.3192 89.3139 33.1999 89.1335 33.1175 88.9517H33.0366V90H31.2468ZM33.0238 86.7273C33.0238 87.1165 33.0778 87.456 33.1857 87.7457C33.2937 88.0355 33.4499 88.2614 33.6545 88.4233C33.859 88.5824 34.1076 88.6619 34.4002 88.6619C34.6957 88.6619 34.9457 88.581 35.1502 88.419C35.3548 88.2543 35.5096 88.027 35.6147 87.7372C35.7227 87.4446 35.7766 87.108 35.7766 86.7273C35.7766 86.3494 35.7241 86.017 35.619 85.7301C35.5138 85.4432 35.359 85.2187 35.1545 85.0568C34.9499 84.8949 34.6985 84.8139 34.4002 84.8139C34.1048 84.8139 33.8548 84.892 33.6502 85.0483C33.4485 85.2045 33.2937 85.4261 33.1857 85.7131C33.0778 86 33.0238 86.3381 33.0238 86.7273ZM38.8416 90V83.4545H40.657V90H38.8416ZM39.7536 82.6108C39.4837 82.6108 39.2521 82.5213 39.0589 82.3423C38.8686 82.1605 38.7734 81.9432 38.7734 81.6903C38.7734 81.4403 38.8686 81.2259 39.0589 81.0469C39.2521 80.8651 39.4837 80.7741 39.7536 80.7741C40.0234 80.7741 40.2536 80.8651 40.4439 81.0469C40.6371 81.2259 40.7337 81.4403 40.7337 81.6903C40.7337 81.9432 40.6371 82.1605 40.4439 82.3423C40.2536 82.5213 40.0234 82.6108 39.7536 82.6108ZM45.06 92.5909C44.4719 92.5909 43.9677 92.5099 43.5472 92.348C43.1296 92.1889 42.7972 91.9716 42.5501 91.696C42.3029 91.4205 42.1424 91.1108 42.0685 90.767L43.7475 90.5412C43.7987 90.6719 43.8796 90.794 43.9904 90.9077C44.1012 91.0213 44.2475 91.1122 44.4293 91.1804C44.614 91.2514 44.8384 91.2869 45.1026 91.2869C45.4975 91.2869 45.8228 91.1903 46.0785 90.9972C46.337 90.8068 46.4663 90.4872 46.4663 90.0384V88.8409H46.3896C46.31 89.0227 46.1907 89.1946 46.0316 89.3565C45.8725 89.5185 45.668 89.6506 45.418 89.7528C45.168 89.8551 44.8697 89.9062 44.5231 89.9062C44.0316 89.9062 43.5842 89.7926 43.1808 89.5653C42.7802 89.3352 42.4606 88.9844 42.2219 88.5128C41.9862 88.0384 41.8683 87.4389 41.8683 86.7145C41.8683 85.973 41.989 85.3537 42.2305 84.8565C42.4719 84.3594 42.793 83.9872 43.1935 83.7401C43.5969 83.4929 44.0387 83.3693 44.5188 83.3693C44.8853 83.3693 45.1921 83.4318 45.4393 83.5568C45.6864 83.679 45.8853 83.8324 46.0359 84.017C46.1893 84.1989 46.3072 84.3778 46.3896 84.554H46.4577V83.4545H48.2603V90.0639C48.2603 90.6207 48.1239 91.0866 47.8512 91.4616C47.5785 91.8366 47.2006 92.1179 46.7177 92.3054C46.2376 92.4957 45.685 92.5909 45.06 92.5909ZM45.0984 88.5426C45.391 88.5426 45.6381 88.4702 45.8398 88.3253C46.0444 88.1776 46.2006 87.9673 46.3086 87.6946C46.4194 87.419 46.4748 87.0895 46.4748 86.706C46.4748 86.3224 46.4208 85.9901 46.3129 85.7088C46.2049 85.4247 46.0487 85.2045 45.8441 85.0483C45.6396 84.892 45.391 84.8139 45.0984 84.8139C44.8001 84.8139 44.5487 84.8949 44.3441 85.0568C44.1396 85.2159 43.9847 85.4375 43.8796 85.7216C43.7745 86.0057 43.7219 86.3338 43.7219 86.706C43.7219 87.0838 43.7745 87.4105 43.8796 87.6861C43.9876 87.9588 44.1424 88.1705 44.3441 88.321C44.5487 88.4687 44.8001 88.5426 45.0984 88.5426ZM52.6623 90.1278C52.0004 90.1278 51.4279 89.9872 50.945 89.706C50.4648 89.4219 50.0941 89.027 49.8327 88.5213C49.5714 88.0128 49.4407 87.4233 49.4407 86.7528C49.4407 86.0767 49.5714 85.4858 49.8327 84.9801C50.0941 84.4716 50.4648 84.0767 50.945 83.7955C51.4279 83.5114 52.0004 83.3693 52.6623 83.3693C53.3242 83.3693 53.8952 83.5114 54.3754 83.7955C54.8583 84.0767 55.2305 84.4716 55.4918 84.9801C55.7532 85.4858 55.8839 86.0767 55.8839 86.7528C55.8839 87.4233 55.7532 88.0128 55.4918 88.5213C55.2305 89.027 54.8583 89.4219 54.3754 89.706C53.8952 89.9872 53.3242 90.1278 52.6623 90.1278ZM52.6708 88.7216C52.9719 88.7216 53.2234 88.6364 53.4251 88.4659C53.6268 88.2926 53.7788 88.0568 53.881 87.7585C53.9862 87.4602 54.0387 87.1207 54.0387 86.7401C54.0387 86.3594 53.9862 86.0199 53.881 85.7216C53.7788 85.4233 53.6268 85.1875 53.4251 85.0142C53.2234 84.8409 52.9719 84.7543 52.6708 84.7543C52.3668 84.7543 52.1112 84.8409 51.9038 85.0142C51.6992 85.1875 51.5444 85.4233 51.4393 85.7216C51.337 86.0199 51.2859 86.3594 51.2859 86.7401C51.2859 87.1207 51.337 87.4602 51.4393 87.7585C51.5444 88.0568 51.6992 88.2926 51.9038 88.4659C52.1112 88.6364 52.3668 88.7216 52.6708 88.7216ZM61.7209 81.2727V90H59.8757V81.2727H61.7209ZM66.1623 90.1278C65.4918 90.1278 64.9151 89.9858 64.4322 89.7017C63.9521 89.4148 63.5827 89.017 63.3242 88.5085C63.0685 88 62.9407 87.4148 62.9407 86.7528C62.9407 86.0824 63.07 85.4943 63.3285 84.9886C63.5898 84.4801 63.9606 84.0838 64.4407 83.7997C64.9208 83.5128 65.4918 83.3693 66.1538 83.3693C66.7248 83.3693 67.2248 83.473 67.6538 83.6804C68.0827 83.8878 68.4222 84.179 68.6722 84.554C68.9222 84.929 69.06 85.3693 69.0856 85.875H67.3725C67.3242 85.5483 67.1964 85.2855 66.989 85.0866C66.7844 84.8849 66.516 84.7841 66.1836 84.7841C65.9023 84.7841 65.6566 84.8608 65.4464 85.0142C65.239 85.1648 65.0771 85.3849 64.9606 85.6747C64.8441 85.9645 64.7859 86.3153 64.7859 86.7273C64.7859 87.1449 64.8427 87.5 64.9563 87.7926C65.0728 88.0852 65.2362 88.3082 65.4464 88.4616C65.6566 88.6151 65.9023 88.6918 66.1836 88.6918C66.391 88.6918 66.5771 88.6491 66.7418 88.5639C66.9094 88.4787 67.0472 88.3551 67.1552 88.1932C67.266 88.0284 67.3384 87.831 67.3725 87.6009H69.0856C69.0572 88.1009 68.9208 88.5412 68.6765 88.9219C68.435 89.2997 68.1012 89.5952 67.6751 89.8082C67.2489 90.0213 66.7447 90.1278 66.1623 90.1278ZM73.2053 90.1278C72.5433 90.1278 71.9709 89.9872 71.4879 89.706C71.0078 89.4219 70.6371 89.027 70.3757 88.5213C70.1143 88.0128 69.9837 87.4233 69.9837 86.7528C69.9837 86.0767 70.1143 85.4858 70.3757 84.9801C70.6371 84.4716 71.0078 84.0767 71.4879 83.7955C71.9709 83.5114 72.5433 83.3693 73.2053 83.3693C73.8672 83.3693 74.4382 83.5114 74.9183 83.7955C75.4013 84.0767 75.7734 84.4716 76.0348 84.9801C76.2962 85.4858 76.4268 86.0767 76.4268 86.7528C76.4268 87.4233 76.2962 88.0128 76.0348 88.5213C75.7734 89.027 75.4013 89.4219 74.9183 89.706C74.4382 89.9872 73.8672 90.1278 73.2053 90.1278ZM73.2138 88.7216C73.5149 88.7216 73.7663 88.6364 73.968 88.4659C74.1697 88.2926 74.3217 88.0568 74.424 87.7585C74.5291 87.4602 74.5817 87.1207 74.5817 86.7401C74.5817 86.3594 74.5291 86.0199 74.424 85.7216C74.3217 85.4233 74.1697 85.1875 73.968 85.0142C73.7663 84.8409 73.5149 84.7543 73.2138 84.7543C72.9098 84.7543 72.6541 84.8409 72.4467 85.0142C72.2422 85.1875 72.0874 85.4233 71.9822 85.7216C71.88 86.0199 71.8288 86.3594 71.8288 86.7401C71.8288 87.1207 71.88 87.4602 71.9822 87.7585C72.0874 88.0568 72.2422 88.2926 72.4467 88.4659C72.6541 88.6364 72.9098 88.7216 73.2138 88.7216ZM79.4226 86.2159V90H77.6072V83.4545H79.3374V84.6094H79.4141C79.5589 84.2287 79.8018 83.9276 80.1428 83.706C80.4837 83.4815 80.897 83.3693 81.3828 83.3693C81.8374 83.3693 82.2337 83.4688 82.5717 83.6676C82.9098 83.8665 83.1726 84.1506 83.3601 84.5199C83.5476 84.8864 83.6413 85.3239 83.6413 85.8324V90H81.826V86.1562C81.8288 85.7557 81.7266 85.4432 81.5192 85.2188C81.3118 84.9915 81.0263 84.8778 80.6626 84.8778C80.4183 84.8778 80.2024 84.9304 80.0149 85.0355C79.8303 85.1406 79.6854 85.294 79.5803 85.4957C79.478 85.6946 79.4254 85.9347 79.4226 86.2159ZM90.5181 85.321L88.8562 85.4233C88.8278 85.2812 88.7667 85.1534 88.6729 85.0398C88.5792 84.9233 88.4556 84.831 88.3022 84.7628C88.1516 84.6918 87.9712 84.6562 87.761 84.6562C87.4798 84.6562 87.2425 84.7159 87.0494 84.8352C86.8562 84.9517 86.7596 85.108 86.7596 85.304C86.7596 85.4602 86.8221 85.5923 86.9471 85.7003C87.0721 85.8082 87.2866 85.8949 87.5906 85.9602L88.7752 86.1989C89.4116 86.3295 89.886 86.5398 90.1985 86.8295C90.511 87.1193 90.6673 87.5 90.6673 87.9716C90.6673 88.4006 90.5408 88.777 90.288 89.1009C90.038 89.4247 89.6942 89.6776 89.2567 89.8594C88.8221 90.0384 88.3207 90.1278 87.7525 90.1278C86.886 90.1278 86.1957 89.9474 85.6815 89.5866C85.1701 89.223 84.8704 88.7287 84.7823 88.1037L86.5678 88.0099C86.6218 88.2741 86.7525 88.4759 86.9599 88.6151C87.1673 88.7514 87.4329 88.8196 87.7567 88.8196C88.0749 88.8196 88.3306 88.7585 88.5238 88.6364C88.7198 88.5114 88.8192 88.3509 88.8221 88.1548C88.8192 87.9901 88.7496 87.8551 88.6133 87.75C88.4769 87.642 88.2667 87.5597 87.9826 87.5028L86.8491 87.277C86.2099 87.1491 85.734 86.9276 85.4215 86.6122C85.1119 86.2969 84.957 85.8949 84.957 85.4062C84.957 84.9858 85.0707 84.6236 85.2979 84.3196C85.5281 84.0156 85.8505 83.7812 86.2653 83.6165C86.6829 83.4517 87.1715 83.3693 87.7312 83.3693C88.5579 83.3693 89.2085 83.544 89.6829 83.8935C90.1602 84.2429 90.4386 84.7187 90.5181 85.321Z" fill="black"/>
<path d="M14 92.3864H91.0891V93.2045H14V92.3864Z" fill="black"/>
<path d="M22.0795 106H21.0227C20.9602 105.696 20.8509 105.429 20.6946 105.199C20.5412 104.969 20.3537 104.776 20.1321 104.619C19.9134 104.46 19.6705 104.341 19.4034 104.261C19.1364 104.182 18.858 104.142 18.5682 104.142C18.0398 104.142 17.5611 104.276 17.1321 104.543C16.706 104.81 16.3665 105.203 16.1136 105.723C15.8636 106.243 15.7386 106.881 15.7386 107.636C15.7386 108.392 15.8636 109.03 16.1136 109.55C16.3665 110.07 16.706 110.463 17.1321 110.73C17.5611 110.997 18.0398 111.131 18.5682 111.131C18.858 111.131 19.1364 111.091 19.4034 111.011C19.6705 110.932 19.9134 110.814 20.1321 110.658C20.3537 110.499 20.5412 110.304 20.6946 110.074C20.8509 109.841 20.9602 109.574 21.0227 109.273H22.0795C22 109.719 21.8551 110.118 21.6449 110.47C21.4347 110.822 21.1733 111.122 20.8608 111.369C20.5483 111.614 20.1974 111.8 19.8082 111.928C19.4219 112.055 19.0085 112.119 18.5682 112.119C17.8239 112.119 17.1619 111.938 16.5824 111.574C16.0028 111.21 15.5469 110.693 15.2145 110.023C14.8821 109.352 14.7159 108.557 14.7159 107.636C14.7159 106.716 14.8821 105.92 15.2145 105.25C15.5469 104.58 16.0028 104.062 16.5824 103.699C17.1619 103.335 17.8239 103.153 18.5682 103.153C19.0085 103.153 19.4219 103.217 19.8082 103.345C20.1974 103.473 20.5483 103.661 20.8608 103.908C21.1733 104.152 21.4347 104.45 21.6449 104.803C21.8551 105.152 22 105.551 22.0795 106ZM27.7759 109.324V105.455H28.7816V112H27.7759V110.892H27.7077C27.5543 111.224 27.3157 111.507 26.9918 111.74C26.668 111.97 26.2589 112.085 25.7646 112.085C25.3555 112.085 24.9918 111.996 24.6737 111.817C24.3555 111.635 24.1055 111.362 23.9237 110.999C23.7418 110.632 23.6509 110.17 23.6509 109.614V105.455H24.6566V109.545C24.6566 110.023 24.7901 110.403 25.0572 110.688C25.3271 110.972 25.6708 111.114 26.0884 111.114C26.3384 111.114 26.5927 111.05 26.8512 110.922C27.1126 110.794 27.3313 110.598 27.5075 110.334C27.6864 110.07 27.7759 109.733 27.7759 109.324ZM30.7599 112V103.273H31.7656V106.494H31.8509C31.9247 106.381 32.027 106.236 32.1577 106.06C32.2912 105.881 32.4815 105.722 32.7287 105.582C32.9787 105.44 33.3168 105.369 33.7429 105.369C34.294 105.369 34.7798 105.507 35.2003 105.783C35.6207 106.058 35.9489 106.449 36.1847 106.955C36.4205 107.46 36.5384 108.057 36.5384 108.744C36.5384 109.438 36.4205 110.038 36.1847 110.547C35.9489 111.053 35.6222 111.445 35.2045 111.723C34.7869 111.999 34.3054 112.136 33.7599 112.136C33.3395 112.136 33.0028 112.067 32.75 111.928C32.4972 111.786 32.3026 111.625 32.1662 111.446C32.0298 111.264 31.9247 111.114 31.8509 110.994H31.7315V112H30.7599ZM31.7486 108.727C31.7486 109.222 31.821 109.658 31.9659 110.036C32.1108 110.411 32.3224 110.705 32.6009 110.918C32.8793 111.128 33.2202 111.233 33.6236 111.233C34.044 111.233 34.3949 111.122 34.6761 110.901C34.9602 110.676 35.1733 110.375 35.3153 109.997C35.4602 109.616 35.5327 109.193 35.5327 108.727C35.5327 108.267 35.4616 107.852 35.3196 107.483C35.1804 107.111 34.9688 106.817 34.6847 106.601C34.4034 106.382 34.0497 106.273 33.6236 106.273C33.2145 106.273 32.8707 106.376 32.5923 106.584C32.3139 106.788 32.1037 107.075 31.9616 107.445C31.8196 107.811 31.7486 108.239 31.7486 108.727ZM38.0767 112V105.455H39.0824V112H38.0767ZM38.5881 104.364C38.392 104.364 38.223 104.297 38.081 104.163C37.9418 104.03 37.8722 103.869 37.8722 103.682C37.8722 103.494 37.9418 103.334 38.081 103.2C38.223 103.067 38.392 103 38.5881 103C38.7841 103 38.9517 103.067 39.0909 103.2C39.233 103.334 39.304 103.494 39.304 103.682C39.304 103.869 39.233 104.03 39.0909 104.163C38.9517 104.297 38.7841 104.364 38.5881 104.364ZM43.5664 114.591C43.0806 114.591 42.663 114.528 42.3136 114.403C41.9641 114.281 41.6729 114.119 41.44 113.918C41.2099 113.719 41.0266 113.506 40.8903 113.278L41.6914 112.716C41.7823 112.835 41.8974 112.972 42.0366 113.125C42.1758 113.281 42.3661 113.416 42.6076 113.53C42.8519 113.646 43.1715 113.705 43.5664 113.705C44.0948 113.705 44.5309 113.577 44.8746 113.321C45.2184 113.065 45.3903 112.665 45.3903 112.119V110.79H45.305C45.2312 110.909 45.1261 111.057 44.9897 111.233C44.8562 111.406 44.663 111.561 44.4102 111.697C44.1602 111.831 43.8221 111.898 43.396 111.898C42.8675 111.898 42.3931 111.773 41.9727 111.523C41.555 111.273 41.2241 110.909 40.9798 110.432C40.7383 109.955 40.6175 109.375 40.6175 108.693C40.6175 108.023 40.7354 107.439 40.9712 106.942C41.207 106.442 41.5352 106.055 41.9556 105.783C42.3761 105.507 42.8619 105.369 43.413 105.369C43.8391 105.369 44.1772 105.44 44.4272 105.582C44.68 105.722 44.8732 105.881 45.0067 106.06C45.1431 106.236 45.2482 106.381 45.3221 106.494H45.4244V105.455H46.396V112.188C46.396 112.75 46.2681 113.207 46.0124 113.56C45.7596 113.915 45.4187 114.175 44.9897 114.339C44.5636 114.507 44.0891 114.591 43.5664 114.591ZM43.5323 110.994C43.9357 110.994 44.2766 110.902 44.555 110.717C44.8335 110.533 45.0451 110.267 45.19 109.92C45.3349 109.574 45.4073 109.159 45.4073 108.676C45.4073 108.205 45.3363 107.788 45.1942 107.428C45.0522 107.067 44.842 106.784 44.5636 106.58C44.2852 106.375 43.9414 106.273 43.5323 106.273C43.1062 106.273 42.7511 106.381 42.467 106.597C42.1857 106.812 41.9741 107.102 41.832 107.466C41.6928 107.83 41.6232 108.233 41.6232 108.676C41.6232 109.131 41.6942 109.533 41.8363 109.882C41.9812 110.229 42.1942 110.501 42.4755 110.7C42.7596 110.896 43.1119 110.994 43.5323 110.994ZM50.896 112.136C50.305 112.136 49.7866 111.996 49.3406 111.714C48.8974 111.433 48.5508 111.04 48.3008 110.534C48.0536 110.028 47.93 109.437 47.93 108.761C47.93 108.08 48.0536 107.484 48.3008 106.976C48.5508 106.467 48.8974 106.072 49.3406 105.791C49.7866 105.51 50.305 105.369 50.896 105.369C51.4869 105.369 52.0039 105.51 52.4471 105.791C52.8931 106.072 53.2397 106.467 53.4869 106.976C53.7369 107.484 53.8619 108.08 53.8619 108.761C53.8619 109.437 53.7369 110.028 53.4869 110.534C53.2397 111.04 52.8931 111.433 52.4471 111.714C52.0039 111.996 51.4869 112.136 50.896 112.136ZM50.896 111.233C51.3448 111.233 51.7141 111.118 52.0039 110.888C52.2937 110.658 52.5082 110.355 52.6474 109.98C52.7866 109.605 52.8562 109.199 52.8562 108.761C52.8562 108.324 52.7866 107.916 52.6474 107.538C52.5082 107.161 52.2937 106.855 52.0039 106.622C51.7141 106.389 51.3448 106.273 50.896 106.273C50.4471 106.273 50.0778 106.389 49.788 106.622C49.4982 106.855 49.2837 107.161 49.1445 107.538C49.0053 107.916 48.9357 108.324 48.9357 108.761C48.9357 109.199 49.0053 109.605 49.1445 109.98C49.2837 110.355 49.4982 110.658 49.788 110.888C50.0778 111.118 50.4471 111.233 50.896 111.233ZM58.9084 112V103.273H64.1413V104.21H59.9652V107.159H63.7493V108.097H59.9652V112H58.9084ZM65.815 112V105.455H66.8207V112H65.815ZM66.3263 104.364C66.1303 104.364 65.9613 104.297 65.8192 104.163C65.68 104.03 65.6104 103.869 65.6104 103.682C65.6104 103.494 65.68 103.334 65.8192 103.2C65.9613 103.067 66.1303 103 66.3263 103C66.5224 103 66.69 103.067 66.8292 103.2C66.9712 103.334 67.0423 103.494 67.0423 103.682C67.0423 103.869 66.9712 104.03 66.8292 104.163C66.69 104.297 66.5224 104.364 66.3263 104.364ZM71.3047 114.591C70.8189 114.591 70.4013 114.528 70.0518 114.403C69.7024 114.281 69.4112 114.119 69.1783 113.918C68.9482 113.719 68.7649 113.506 68.6286 113.278L69.4297 112.716C69.5206 112.835 69.6357 112.972 69.7749 113.125C69.9141 113.281 70.1044 113.416 70.3459 113.53C70.5902 113.646 70.9098 113.705 71.3047 113.705C71.8331 113.705 72.2692 113.577 72.6129 113.321C72.9567 113.065 73.1286 112.665 73.1286 112.119V110.79H73.0433C72.9695 110.909 72.8643 111.057 72.728 111.233C72.5945 111.406 72.4013 111.561 72.1484 111.697C71.8984 111.831 71.5604 111.898 71.1342 111.898C70.6058 111.898 70.1314 111.773 69.7109 111.523C69.2933 111.273 68.9624 110.909 68.718 110.432C68.4766 109.955 68.3558 109.375 68.3558 108.693C68.3558 108.023 68.4737 107.439 68.7095 106.942C68.9453 106.442 69.2734 106.055 69.6939 105.783C70.1143 105.507 70.6001 105.369 71.1513 105.369C71.5774 105.369 71.9155 105.44 72.1655 105.582C72.4183 105.722 72.6115 105.881 72.745 106.06C72.8814 106.236 72.9865 106.381 73.0604 106.494H73.1626V105.455H74.1342V112.188C74.1342 112.75 74.0064 113.207 73.7507 113.56C73.4979 113.915 73.157 114.175 72.728 114.339C72.3018 114.507 71.8274 114.591 71.3047 114.591ZM71.2706 110.994C71.674 110.994 72.0149 110.902 72.2933 110.717C72.5717 110.533 72.7834 110.267 72.9283 109.92C73.0732 109.574 73.1456 109.159 73.1456 108.676C73.1456 108.205 73.0746 107.788 72.9325 107.428C72.7905 107.067 72.5803 106.784 72.3018 106.58C72.0234 106.375 71.6797 106.273 71.2706 106.273C70.8445 106.273 70.4893 106.381 70.2053 106.597C69.924 106.812 69.7124 107.102 69.5703 107.466C69.4311 107.83 69.3615 108.233 69.3615 108.676C69.3615 109.131 69.4325 109.533 69.5746 109.882C69.7195 110.229 69.9325 110.501 70.2138 110.7C70.4979 110.896 70.8501 110.994 71.2706 110.994ZM75.9751 112V105.455H76.9467V106.477H77.032C77.1683 106.128 77.3885 105.857 77.6925 105.663C77.9964 105.467 78.3615 105.369 78.7876 105.369C79.2195 105.369 79.5788 105.467 79.8658 105.663C80.1555 105.857 80.3814 106.128 80.5433 106.477H80.6115C80.7791 106.139 81.0305 105.871 81.3658 105.672C81.701 105.47 82.103 105.369 82.5717 105.369C83.157 105.369 83.6357 105.553 84.0078 105.919C84.38 106.283 84.5661 106.849 84.5661 107.619V112H83.5604V107.619C83.5604 107.136 83.4283 106.791 83.1641 106.584C82.8999 106.376 82.5888 106.273 82.2308 106.273C81.7706 106.273 81.4141 106.412 81.1612 106.69C80.9084 106.966 80.782 107.315 80.782 107.739V112H79.7592V107.517C79.7592 107.145 79.6385 106.845 79.397 106.618C79.1555 106.388 78.8445 106.273 78.4638 106.273C78.2024 106.273 77.9581 106.342 77.7308 106.482C77.5064 106.621 77.3246 106.814 77.1854 107.061C77.049 107.305 76.9808 107.588 76.9808 107.909V112H75.9751ZM88.331 112.153C87.9162 112.153 87.5398 112.075 87.2017 111.919C86.8636 111.76 86.5952 111.531 86.3963 111.233C86.1974 110.932 86.098 110.568 86.098 110.142C86.098 109.767 86.1719 109.463 86.3196 109.23C86.4673 108.994 86.6648 108.81 86.9119 108.676C87.1591 108.543 87.4318 108.443 87.7301 108.378C88.0313 108.31 88.3338 108.256 88.6378 108.216C89.0355 108.165 89.358 108.126 89.6051 108.101C89.8551 108.072 90.0369 108.026 90.1506 107.96C90.267 107.895 90.3253 107.781 90.3253 107.619V107.585C90.3253 107.165 90.2102 106.838 89.9801 106.605C89.7528 106.372 89.4077 106.256 88.9446 106.256C88.4645 106.256 88.0881 106.361 87.8153 106.571C87.5426 106.781 87.3509 107.006 87.2401 107.244L86.2855 106.903C86.456 106.506 86.6832 106.196 86.9673 105.974C87.2543 105.75 87.5668 105.594 87.9048 105.506C88.2457 105.415 88.581 105.369 88.9105 105.369C89.1207 105.369 89.3622 105.395 89.6349 105.446C89.9105 105.494 90.1761 105.595 90.4318 105.749C90.6903 105.902 90.9048 106.134 91.0753 106.443C91.2457 106.753 91.331 107.168 91.331 107.688V112H90.3253V111.114H90.2741C90.206 111.256 90.0923 111.408 89.9332 111.57C89.7741 111.732 89.5625 111.869 89.2983 111.983C89.0341 112.097 88.7116 112.153 88.331 112.153ZM88.4844 111.25C88.8821 111.25 89.2173 111.172 89.4901 111.016C89.7656 110.859 89.973 110.658 90.1122 110.411C90.2543 110.163 90.3253 109.903 90.3253 109.631V108.71C90.2827 108.761 90.1889 108.808 90.044 108.851C89.902 108.891 89.7372 108.926 89.5497 108.957C89.3651 108.986 89.1847 109.011 89.0085 109.034C88.8352 109.054 88.6946 109.071 88.5866 109.085C88.3253 109.119 88.081 109.175 87.8537 109.251C87.6293 109.325 87.4474 109.437 87.3082 109.588C87.1719 109.736 87.1037 109.937 87.1037 110.193C87.1037 110.543 87.233 110.807 87.4915 110.986C87.7528 111.162 88.0838 111.25 88.4844 111.25ZM97.7347 103.273V112H96.6779V103.273H97.7347ZM102.376 112.136C101.763 112.136 101.234 111.991 100.791 111.702C100.348 111.412 100.007 111.013 99.7685 110.504C99.5298 109.996 99.4105 109.415 99.4105 108.761C99.4105 108.097 99.5327 107.51 99.777 107.001C100.024 106.49 100.368 106.091 100.808 105.804C101.251 105.514 101.768 105.369 102.359 105.369C102.82 105.369 103.234 105.455 103.604 105.625C103.973 105.795 104.276 106.034 104.511 106.341C104.747 106.648 104.893 107.006 104.95 107.415H103.945C103.868 107.116 103.697 106.852 103.433 106.622C103.172 106.389 102.82 106.273 102.376 106.273C101.984 106.273 101.641 106.375 101.345 106.58C101.053 106.781 100.824 107.067 100.659 107.436C100.497 107.803 100.416 108.233 100.416 108.727C100.416 109.233 100.496 109.673 100.655 110.048C100.817 110.423 101.044 110.714 101.337 110.922C101.632 111.129 101.979 111.233 102.376 111.233C102.638 111.233 102.875 111.188 103.088 111.097C103.301 111.006 103.482 110.875 103.629 110.705C103.777 110.534 103.882 110.33 103.945 110.091H104.95C104.893 110.477 104.753 110.825 104.528 111.135C104.307 111.442 104.013 111.686 103.646 111.868C103.283 112.047 102.859 112.136 102.376 112.136ZM109.08 112.136C108.489 112.136 107.97 111.996 107.524 111.714C107.081 111.433 106.734 111.04 106.484 110.534C106.237 110.028 106.114 109.437 106.114 108.761C106.114 108.08 106.237 107.484 106.484 106.976C106.734 106.467 107.081 106.072 107.524 105.791C107.97 105.51 108.489 105.369 109.08 105.369C109.67 105.369 110.188 105.51 110.631 105.791C111.077 106.072 111.423 106.467 111.67 106.976C111.92 107.484 112.045 108.08 112.045 108.761C112.045 109.437 111.92 110.028 111.67 110.534C111.423 111.04 111.077 111.433 110.631 111.714C110.188 111.996 109.67 112.136 109.08 112.136ZM109.08 111.233C109.528 111.233 109.898 111.118 110.188 110.888C110.477 110.658 110.692 110.355 110.831 109.98C110.97 109.605 111.04 109.199 111.04 108.761C111.04 108.324 110.97 107.916 110.831 107.538C110.692 107.161 110.477 106.855 110.188 106.622C109.898 106.389 109.528 106.273 109.08 106.273C108.631 106.273 108.261 106.389 107.972 106.622C107.682 106.855 107.467 107.161 107.328 107.538C107.189 107.916 107.119 108.324 107.119 108.761C107.119 109.199 107.189 109.605 107.328 109.98C107.467 110.355 107.682 110.658 107.972 110.888C108.261 111.118 108.631 111.233 109.08 111.233ZM114.586 108.062V112H113.581V105.455H114.552V106.477H114.637C114.791 106.145 115.024 105.878 115.336 105.676C115.649 105.472 116.052 105.369 116.547 105.369C116.99 105.369 117.377 105.46 117.71 105.642C118.042 105.821 118.301 106.094 118.485 106.46C118.67 106.824 118.762 107.284 118.762 107.841V112H117.757V107.909C117.757 107.395 117.623 106.994 117.356 106.707C117.089 106.418 116.723 106.273 116.257 106.273C115.936 106.273 115.649 106.342 115.396 106.482C115.146 106.621 114.949 106.824 114.804 107.091C114.659 107.358 114.586 107.682 114.586 108.062ZM125.237 106.92L124.333 107.176C124.276 107.026 124.192 106.879 124.082 106.737C123.974 106.592 123.826 106.473 123.638 106.379C123.451 106.286 123.211 106.239 122.918 106.239C122.518 106.239 122.184 106.331 121.917 106.516C121.653 106.697 121.521 106.929 121.521 107.21C121.521 107.46 121.612 107.658 121.793 107.803C121.975 107.947 122.259 108.068 122.646 108.165L123.617 108.403C124.202 108.545 124.638 108.763 124.925 109.055C125.212 109.345 125.356 109.719 125.356 110.176C125.356 110.551 125.248 110.886 125.032 111.182C124.819 111.477 124.521 111.71 124.137 111.881C123.754 112.051 123.308 112.136 122.799 112.136C122.131 112.136 121.579 111.991 121.141 111.702C120.704 111.412 120.427 110.989 120.31 110.432L121.265 110.193C121.356 110.545 121.528 110.81 121.781 110.986C122.036 111.162 122.37 111.25 122.782 111.25C123.251 111.25 123.623 111.151 123.898 110.952C124.177 110.75 124.316 110.509 124.316 110.227C124.316 110 124.237 109.81 124.077 109.656C123.918 109.5 123.674 109.384 123.344 109.307L122.254 109.051C121.654 108.909 121.214 108.689 120.933 108.391C120.654 108.089 120.515 107.713 120.515 107.261C120.515 106.892 120.619 106.565 120.826 106.281C121.036 105.997 121.322 105.774 121.683 105.612C122.046 105.45 122.458 105.369 122.918 105.369C123.566 105.369 124.075 105.511 124.444 105.795C124.816 106.08 125.08 106.455 125.237 106.92Z" fill="#8D8D8D"/>
<path d="M214.531 21.3381L214 21.8684L215.061 22.9291L215.591 22.3988L214.531 21.3381ZM224.929 12.75C224.929 12.3358 224.594 12 224.179 12H217.429C217.015 12 216.679 12.3358 216.679 12.75C216.679 13.1642 217.015 13.5 217.429 13.5H223.429V19.5C223.429 19.9142 223.765 20.25 224.179 20.25C224.594 20.25 224.929 19.9142 224.929 19.5V12.75ZM215.591 22.3988L224.71 13.2803L223.649 12.2197L214.531 21.3381L215.591 22.3988Z" fill="#007AFF"/>
</svg>
