<svg width="311" height="126" viewBox="0 0 311 126" fill="none" xmlns="http://www.w3.org/2000/svg">
<rect x="0.5" y="0.5" width="309.855" height="125" rx="4.5" fill="white" stroke="#80BCFF"/>
<rect x="20.5215" y="39.1507" width="52.1926" height="51.5625" stroke="#80BCFF" stroke-width="2"/>
<rect x="17" y="35" width="8.19191" height="8.82205" fill="#007AFF"/>
<rect x="18.2607" y="62.7265" width="3.78088" height="4.41103" fill="#007AFF"/>
<rect x="43.4668" y="36.2603" width="4.41103" height="4.41103" fill="#007AFF"/>
<rect x="43.4668" y="89.1926" width="4.41103" height="4.41103" fill="#007AFF"/>
<rect x="71.1934" y="62.7265" width="3.78088" height="4.41103" fill="#007AFF"/>
<rect x="68.042" y="86.0419" width="8.19191" height="8.82205" fill="#007AFF"/>
<rect x="17" y="86.0419" width="8.19191" height="8.82205" fill="#007AFF"/>
<rect x="68.042" y="35" width="8.19191" height="8.82205" fill="#007AFF"/>
<g clip-path="url(#clip0_1689_1223)">
<path d="M40.6556 81.1663C43.246 81.1663 45.3483 79.045 45.3483 76.4313V71.6963H40.6556C38.0652 71.6963 35.9629 73.8176 35.9629 76.4313C35.9629 79.045 38.0652 81.1663 40.6556 81.1663Z" fill="#007AFF" fill-opacity="0.3"/>
<path d="M35.9629 66.9613C35.9629 64.3476 38.0652 62.2263 40.6556 62.2263H45.3483V71.6963H40.6556C38.0652 71.6963 35.9629 69.575 35.9629 66.9613Z" fill="#80BCFF"/>
<path d="M35.9629 57.4913C35.9629 54.8776 38.0652 52.7563 40.6556 52.7563H45.3483V62.2263H40.6556C38.0652 62.2263 35.9629 60.105 35.9629 57.4913Z" fill="#6A66A3"/>
<path d="M45.3486 52.7563H50.0414C52.6317 52.7563 54.7341 54.8776 54.7341 57.4913C54.7341 60.105 52.6317 62.2263 50.0414 62.2263H45.3486V52.7563Z" fill="#6A66A3" fill-opacity="0.5"/>
<path d="M54.7341 66.9613C54.7341 69.575 52.6317 71.6963 50.0414 71.6963C47.451 71.6963 45.3486 69.575 45.3486 66.9613C45.3486 64.3476 47.451 62.2263 50.0414 62.2263C52.6317 62.2263 54.7341 64.3476 54.7341 66.9613Z" fill="#007AFF"/>
</g>
<path d="M99.8875 39.2125V45.225H107.088V47.3875H99.8875V55H97.2125V37.05H108.338V39.2125H99.8875ZM113.349 42.3V55H110.912V42.3H113.349ZM113.812 38.375C113.812 38.6 113.766 38.8167 113.674 39.025C113.583 39.225 113.458 39.4042 113.299 39.5625C113.149 39.7125 112.97 39.8333 112.762 39.925C112.554 40.0083 112.337 40.05 112.112 40.05C111.887 40.05 111.674 40.0083 111.474 39.925C111.274 39.8333 111.095 39.7125 110.937 39.5625C110.787 39.4042 110.666 39.225 110.574 39.025C110.491 38.8167 110.449 38.6 110.449 38.375C110.449 38.1417 110.491 37.925 110.574 37.725C110.666 37.5167 110.787 37.3375 110.937 37.1875C111.095 37.0292 111.274 36.9083 111.474 36.825C111.674 36.7333 111.887 36.6875 112.112 36.6875C112.337 36.6875 112.554 36.7333 112.762 36.825C112.97 36.9083 113.149 37.0292 113.299 37.1875C113.458 37.3375 113.583 37.5167 113.674 37.725C113.766 37.925 113.812 38.1417 113.812 38.375ZM121.341 48.6625C121.774 48.6625 122.154 48.6042 122.479 48.4875C122.812 48.3708 123.087 48.2083 123.304 48C123.529 47.7833 123.695 47.525 123.804 47.225C123.92 46.925 123.979 46.5958 123.979 46.2375C123.979 45.5042 123.754 44.9208 123.304 44.4875C122.862 44.0458 122.208 43.825 121.341 43.825C120.483 43.825 119.829 44.0458 119.379 44.4875C118.937 44.9208 118.716 45.5042 118.716 46.2375C118.716 46.5958 118.77 46.925 118.879 47.225C118.995 47.5167 119.162 47.7708 119.379 47.9875C119.604 48.1958 119.879 48.3625 120.204 48.4875C120.537 48.6042 120.916 48.6625 121.341 48.6625ZM125.229 55.6625C125.229 55.3625 125.145 55.125 124.979 54.95C124.812 54.7667 124.583 54.625 124.291 54.525C124.008 54.4167 123.674 54.3417 123.291 54.3C122.908 54.25 122.504 54.2125 122.079 54.1875C121.662 54.1625 121.233 54.1417 120.791 54.125C120.349 54.1 119.924 54.0583 119.516 54C119.083 54.2167 118.724 54.4792 118.441 54.7875C118.166 55.0958 118.029 55.4583 118.029 55.875C118.029 56.1417 118.095 56.3917 118.229 56.625C118.37 56.8583 118.583 57.0583 118.866 57.225C119.158 57.4 119.52 57.5333 119.954 57.625C120.395 57.725 120.92 57.775 121.529 57.775C122.129 57.775 122.658 57.7208 123.116 57.6125C123.574 57.5125 123.958 57.3667 124.266 57.175C124.583 56.9917 124.82 56.7708 124.979 56.5125C125.145 56.2542 125.229 55.9708 125.229 55.6625ZM127.704 42.775V43.6875C127.704 43.9875 127.516 44.175 127.141 44.25L125.779 44.45C125.895 44.7083 125.987 44.9833 126.054 45.275C126.12 45.5583 126.154 45.8583 126.154 46.175C126.154 46.8 126.033 47.3667 125.791 47.875C125.549 48.375 125.216 48.8042 124.791 49.1625C124.366 49.5208 123.858 49.7958 123.266 49.9875C122.683 50.1792 122.041 50.275 121.341 50.275C120.766 50.275 120.229 50.2125 119.729 50.0875C119.479 50.2375 119.287 50.4042 119.154 50.5875C119.029 50.7625 118.966 50.9375 118.966 51.1125C118.966 51.4042 119.087 51.6208 119.329 51.7625C119.579 51.9042 119.899 52.0083 120.291 52.075C120.691 52.1333 121.145 52.1708 121.654 52.1875C122.17 52.2042 122.691 52.2333 123.216 52.275C123.749 52.3083 124.27 52.375 124.779 52.475C125.295 52.5667 125.749 52.7208 126.141 52.9375C126.541 53.1458 126.862 53.4375 127.104 53.8125C127.354 54.1792 127.479 54.6583 127.479 55.25C127.479 55.8 127.341 56.3333 127.066 56.85C126.799 57.3667 126.408 57.825 125.891 58.225C125.374 58.625 124.745 58.9458 124.004 59.1875C123.262 59.4292 122.42 59.55 121.479 59.55C120.537 59.55 119.716 59.4583 119.016 59.275C118.324 59.0917 117.745 58.8458 117.279 58.5375C116.82 58.2292 116.474 57.8708 116.241 57.4625C116.016 57.0542 115.904 56.6292 115.904 56.1875C115.904 55.5708 116.095 55.05 116.479 54.625C116.862 54.1917 117.391 53.8542 118.066 53.6125C117.699 53.4458 117.408 53.2208 117.191 52.9375C116.974 52.6458 116.866 52.2625 116.866 51.7875C116.866 51.6042 116.899 51.4167 116.966 51.225C117.033 51.025 117.133 50.8292 117.266 50.6375C117.408 50.4375 117.579 50.25 117.779 50.075C117.987 49.9 118.224 49.7417 118.491 49.6C117.866 49.25 117.374 48.7875 117.016 48.2125C116.658 47.6292 116.479 46.95 116.479 46.175C116.479 45.55 116.599 44.9875 116.841 44.4875C117.083 43.9875 117.416 43.5583 117.841 43.2C118.274 42.8417 118.787 42.5667 119.379 42.375C119.979 42.1833 120.633 42.0875 121.341 42.0875C122.441 42.0875 123.387 42.3167 124.179 42.775H127.704ZM129.94 55V42.3H131.403C131.744 42.3 131.957 42.4625 132.04 42.7875L132.215 44C132.682 43.4417 133.198 42.9875 133.765 42.6375C134.34 42.2792 135.011 42.1 135.778 42.1C136.619 42.1 137.303 42.3333 137.828 42.8C138.353 43.2583 138.736 43.8833 138.978 44.675C139.161 44.225 139.398 43.8375 139.69 43.5125C139.982 43.1875 140.307 42.9208 140.665 42.7125C141.023 42.5042 141.403 42.35 141.803 42.25C142.211 42.15 142.623 42.1 143.04 42.1C143.715 42.1 144.315 42.2083 144.84 42.425C145.373 42.6333 145.823 42.9417 146.19 43.35C146.557 43.7583 146.836 44.2625 147.028 44.8625C147.219 45.4625 147.315 46.1458 147.315 46.9125V55H144.865V46.9125C144.865 45.9625 144.657 45.2458 144.24 44.7625C143.832 44.2792 143.232 44.0375 142.44 44.0375C142.09 44.0375 141.757 44.1 141.44 44.225C141.123 44.3417 140.844 44.5208 140.603 44.7625C140.369 45.0042 140.182 45.3042 140.04 45.6625C139.907 46.0208 139.84 46.4375 139.84 46.9125V55H137.39V46.9125C137.39 45.9292 137.194 45.2042 136.803 44.7375C136.411 44.2708 135.836 44.0375 135.078 44.0375C134.553 44.0375 134.065 44.175 133.615 44.45C133.165 44.725 132.753 45.1 132.378 45.575V55H129.94ZM157.419 49.3625C156.428 49.3958 155.586 49.475 154.894 49.6C154.203 49.7167 153.64 49.875 153.207 50.075C152.774 50.275 152.461 50.5125 152.269 50.7875C152.078 51.0542 151.982 51.3542 151.982 51.6875C151.982 52.0042 152.032 52.2792 152.132 52.5125C152.24 52.7375 152.382 52.925 152.557 53.075C152.74 53.2167 152.953 53.3208 153.194 53.3875C153.436 53.4542 153.699 53.4875 153.982 53.4875C154.357 53.4875 154.699 53.45 155.007 53.375C155.324 53.3 155.619 53.1958 155.894 53.0625C156.169 52.9208 156.432 52.75 156.682 52.55C156.932 52.35 157.178 52.1208 157.419 51.8625V49.3625ZM150.269 44.075C150.978 43.4 151.744 42.8958 152.569 42.5625C153.403 42.2292 154.315 42.0625 155.307 42.0625C156.032 42.0625 156.674 42.1833 157.232 42.425C157.79 42.6583 158.261 42.9875 158.644 43.4125C159.028 43.8375 159.315 44.3458 159.507 44.9375C159.707 45.5292 159.807 46.1833 159.807 46.9V55H158.719C158.478 55 158.294 54.9625 158.169 54.8875C158.044 54.8042 157.944 54.6542 157.869 54.4375L157.607 53.325C157.282 53.625 156.961 53.8917 156.644 54.125C156.328 54.35 155.994 54.5458 155.644 54.7125C155.303 54.8708 154.936 54.9917 154.544 55.075C154.153 55.1583 153.719 55.2 153.244 55.2C152.744 55.2 152.274 55.1333 151.832 55C151.399 54.8583 151.019 54.6458 150.694 54.3625C150.369 54.0792 150.111 53.725 149.919 53.3C149.736 52.875 149.644 52.3792 149.644 51.8125C149.644 51.3125 149.778 50.8333 150.044 50.375C150.319 49.9083 150.761 49.4917 151.369 49.125C151.986 48.7583 152.786 48.4583 153.769 48.225C154.761 47.9917 155.978 47.8583 157.419 47.825V46.9C157.419 45.9417 157.215 45.225 156.807 44.75C156.399 44.275 155.799 44.0375 155.007 44.0375C154.474 44.0375 154.024 44.1042 153.657 44.2375C153.299 44.3708 152.986 44.5208 152.719 44.6875C152.461 44.8458 152.232 44.9917 152.032 45.125C151.84 45.2583 151.64 45.325 151.432 45.325C151.265 45.325 151.119 45.2792 150.994 45.1875C150.878 45.0958 150.782 44.9875 150.707 44.8625L150.269 44.075ZM176.893 52.8625C177.61 52.8625 178.251 52.7417 178.818 52.5C179.385 52.2583 179.864 51.9208 180.256 51.4875C180.647 51.0458 180.947 50.525 181.156 49.925C181.364 49.3167 181.468 48.6458 181.468 47.9125V37.05H184.118V47.9125C184.118 48.9625 183.951 49.9333 183.618 50.825C183.285 51.7167 182.806 52.4875 182.181 53.1375C181.556 53.7875 180.797 54.2958 179.906 54.6625C179.014 55.0292 178.01 55.2125 176.893 55.2125C175.776 55.2125 174.772 55.0292 173.881 54.6625C172.989 54.2958 172.231 53.7875 171.606 53.1375C170.981 52.4875 170.501 51.7167 170.168 50.825C169.835 49.9333 169.668 48.9625 169.668 47.9125V37.05H172.331V47.9C172.331 48.6333 172.431 49.3042 172.631 49.9125C172.839 50.5208 173.139 51.0458 173.531 51.4875C173.922 51.9208 174.401 52.2583 174.968 52.5C175.535 52.7417 176.176 52.8625 176.893 52.8625ZM191.001 55H188.326V37.05H191.001V55ZM194.743 46.45H200.993V48.525H194.743V46.45ZM206.67 36.55V47.3375H207.245C207.42 47.3375 207.565 47.3125 207.682 47.2625C207.799 47.2125 207.92 47.1125 208.045 46.9625L211.845 42.775C211.961 42.6167 212.09 42.5 212.232 42.425C212.374 42.3417 212.553 42.3 212.77 42.3H214.995L210.507 47.2125C210.265 47.5208 210.007 47.7583 209.732 47.925C209.89 48.0333 210.028 48.1583 210.145 48.3C210.27 48.4417 210.39 48.5958 210.507 48.7625L215.282 55H213.095C212.895 55 212.72 54.9667 212.57 54.9C212.428 54.8333 212.299 54.7125 212.182 54.5375L208.257 49.4375C208.132 49.2458 208.007 49.125 207.882 49.075C207.757 49.0167 207.57 48.9875 207.32 48.9875H206.67V55H204.232V36.55H206.67ZM219.648 42.3V55H217.211V42.3H219.648ZM220.111 38.375C220.111 38.6 220.065 38.8167 219.973 39.025C219.882 39.225 219.757 39.4042 219.598 39.5625C219.448 39.7125 219.269 39.8333 219.061 39.925C218.852 40.0083 218.636 40.05 218.411 40.05C218.186 40.05 217.973 40.0083 217.773 39.925C217.573 39.8333 217.394 39.7125 217.236 39.5625C217.086 39.4042 216.965 39.225 216.873 39.025C216.79 38.8167 216.748 38.6 216.748 38.375C216.748 38.1417 216.79 37.925 216.873 37.725C216.965 37.5167 217.086 37.3375 217.236 37.1875C217.394 37.0292 217.573 36.9083 217.773 36.825C217.973 36.7333 218.186 36.6875 218.411 36.6875C218.636 36.6875 218.852 36.7333 219.061 36.825C219.269 36.9083 219.448 37.0292 219.598 37.1875C219.757 37.3375 219.882 37.5167 219.973 37.725C220.065 37.925 220.111 38.1417 220.111 38.375ZM227.152 55.2C226.127 55.2 225.336 54.9125 224.777 54.3375C224.227 53.7625 223.952 52.9417 223.952 51.875V44.275H222.477C222.336 44.275 222.215 44.2333 222.115 44.15C222.023 44.0583 221.977 43.925 221.977 43.75V42.7625L224.04 42.475L224.59 38.6875C224.623 38.5458 224.686 38.4375 224.777 38.3625C224.877 38.2792 225.002 38.2375 225.152 38.2375H226.39V42.5H229.99V44.275H226.39V51.7125C226.39 52.2125 226.511 52.5875 226.752 52.8375C227.002 53.0792 227.319 53.2 227.702 53.2C227.927 53.2 228.119 53.1708 228.277 53.1125C228.444 53.0542 228.586 52.9917 228.702 52.925C228.819 52.85 228.919 52.7833 229.002 52.725C229.086 52.6667 229.161 52.6375 229.227 52.6375C229.311 52.6375 229.373 52.6583 229.415 52.7C229.465 52.7333 229.515 52.7917 229.565 52.875L230.29 54.05C229.89 54.4167 229.415 54.7 228.865 54.9C228.315 55.1 227.744 55.2 227.152 55.2Z" fill="black"/>
<path d="M289.47 21.5881L288.939 22.1184L290 23.1791L290.53 22.6488L289.47 21.5881ZM299.868 13C299.868 12.5858 299.533 12.25 299.118 12.25H292.368C291.954 12.25 291.618 12.5858 291.618 13C291.618 13.4142 291.954 13.75 292.368 13.75L298.368 13.75V19.75C298.368 20.1642 298.704 20.5 299.118 20.5C299.533 20.5 299.868 20.1642 299.868 19.75V13ZM290.53 22.6488L299.649 13.5303L298.588 12.4697L289.47 21.5881L290.53 22.6488Z" fill="#007AFF"/>
<path d="M107.3 85.62C107.367 85.62 107.423 85.6433 107.47 85.69L107.87 86.12C107.577 86.4333 107.257 86.7167 106.91 86.97C106.57 87.2167 106.193 87.43 105.78 87.61C105.373 87.7833 104.923 87.9167 104.43 88.01C103.943 88.11 103.407 88.16 102.82 88.16C101.84 88.16 100.94 87.99 100.12 87.65C99.3067 87.3033 98.6067 86.8167 98.02 86.19C97.4333 85.5567 96.9767 84.7933 96.65 83.9C96.33 83.0067 96.17 82.0133 96.17 80.92C96.17 79.8467 96.3367 78.8667 96.67 77.98C97.0033 77.0933 97.47 76.3333 98.07 75.7C98.67 75.06 99.39 74.5667 100.23 74.22C101.07 73.8667 101.997 73.69 103.01 73.69C103.977 73.69 104.833 73.84 105.58 74.14C106.327 74.44 107.007 74.8633 107.62 75.41L107.31 75.86C107.257 75.94 107.173 75.98 107.06 75.98C106.98 75.98 106.85 75.9067 106.67 75.76C106.49 75.6133 106.24 75.4533 105.92 75.28C105.6 75.1 105.2 74.9367 104.72 74.79C104.247 74.6433 103.677 74.57 103.01 74.57C102.157 74.57 101.373 74.7167 100.66 75.01C99.9533 75.3033 99.3433 75.7233 98.83 76.27C98.3233 76.8167 97.9267 77.4833 97.64 78.27C97.3533 79.0567 97.21 79.94 97.21 80.92C97.21 81.92 97.3533 82.8133 97.64 83.6C97.9333 84.3867 98.3333 85.0533 98.84 85.6C99.3467 86.14 99.9433 86.5567 100.63 86.85C101.323 87.1367 102.07 87.28 102.87 87.28C103.377 87.28 103.827 87.2467 104.22 87.18C104.62 87.1133 104.987 87.0133 105.32 86.88C105.653 86.7467 105.963 86.5833 106.25 86.39C106.537 86.1967 106.82 85.97 107.1 85.71C107.133 85.6833 107.167 85.6633 107.2 85.65C107.233 85.63 107.267 85.62 107.3 85.62ZM117.68 78.05V88H117.15C116.984 88 116.887 87.9133 116.86 87.74L116.77 86.26C116.31 86.8333 115.777 87.2933 115.17 87.64C114.57 87.9867 113.9 88.16 113.16 88.16C112.607 88.16 112.124 88.0733 111.71 87.9C111.297 87.7267 110.954 87.4767 110.68 87.15C110.407 86.8233 110.2 86.43 110.06 85.97C109.92 85.51 109.85 84.99 109.85 84.41V78.05H110.81V84.41C110.81 85.3433 111.024 86.0767 111.45 86.61C111.877 87.1367 112.527 87.4 113.4 87.4C114.047 87.4 114.65 87.2367 115.21 86.91C115.777 86.5767 116.28 86.1167 116.72 85.53V78.05H117.68ZM121.916 85.83C122.303 86.4033 122.726 86.8067 123.186 87.04C123.653 87.2667 124.176 87.38 124.756 87.38C125.35 87.38 125.866 87.2733 126.306 87.06C126.753 86.8467 127.123 86.5433 127.416 86.15C127.716 85.75 127.94 85.2667 128.086 84.7C128.233 84.1333 128.306 83.4967 128.306 82.79C128.306 81.4167 128.033 80.3833 127.486 79.69C126.94 78.9967 126.173 78.65 125.186 78.65C124.48 78.65 123.863 78.82 123.336 79.16C122.81 79.5 122.336 79.9733 121.916 80.58V85.83ZM121.916 79.78C122.35 79.1933 122.856 78.7333 123.436 78.4C124.016 78.06 124.69 77.89 125.456 77.89C126.056 77.89 126.593 78 127.066 78.22C127.54 78.44 127.94 78.7567 128.266 79.17C128.6 79.5833 128.853 80.0933 129.026 80.7C129.2 81.3 129.286 81.9833 129.286 82.75C129.286 83.5567 129.19 84.2933 128.996 84.96C128.803 85.62 128.52 86.1867 128.146 86.66C127.78 87.1267 127.33 87.49 126.796 87.75C126.263 88.0033 125.653 88.13 124.966 88.13C124.26 88.13 123.656 87.9967 123.156 87.73C122.663 87.4567 122.236 87.0533 121.876 86.52L121.806 87.75C121.786 87.9167 121.696 88 121.536 88H120.956V73.45H121.916V79.78ZM133.032 78.05V88H132.082V78.05H133.032ZM133.442 74.62C133.442 74.74 133.415 74.8533 133.362 74.96C133.315 75.06 133.252 75.15 133.172 75.23C133.092 75.31 132.999 75.3733 132.892 75.42C132.785 75.4667 132.672 75.49 132.552 75.49C132.432 75.49 132.319 75.4667 132.212 75.42C132.105 75.3733 132.012 75.31 131.932 75.23C131.852 75.15 131.789 75.06 131.742 74.96C131.695 74.8533 131.672 74.74 131.672 74.62C131.672 74.5 131.695 74.3867 131.742 74.28C131.789 74.1667 131.852 74.07 131.932 73.99C132.012 73.91 132.105 73.8467 132.212 73.8C132.319 73.7533 132.432 73.73 132.552 73.73C132.672 73.73 132.785 73.7533 132.892 73.8C132.999 73.8467 133.092 73.91 133.172 73.99C133.252 74.07 133.315 74.1667 133.362 74.28C133.415 74.3867 133.442 74.5 133.442 74.62ZM139.675 83.6C140.102 83.6 140.482 83.54 140.815 83.42C141.148 83.2933 141.428 83.12 141.655 82.9C141.882 82.68 142.055 82.4167 142.175 82.11C142.295 81.8033 142.355 81.4633 142.355 81.09C142.355 80.7167 142.292 80.3767 142.165 80.07C142.045 79.7567 141.868 79.49 141.635 79.27C141.408 79.05 141.128 78.88 140.795 78.76C140.468 78.64 140.095 78.58 139.675 78.58C139.255 78.58 138.878 78.64 138.545 78.76C138.218 78.88 137.938 79.05 137.705 79.27C137.478 79.49 137.305 79.7567 137.185 80.07C137.065 80.3767 137.005 80.7167 137.005 81.09C137.005 81.4633 137.065 81.8033 137.185 82.11C137.305 82.4167 137.478 82.68 137.705 82.9C137.938 83.12 138.218 83.2933 138.545 83.42C138.878 83.54 139.255 83.6 139.675 83.6ZM143.395 88.67C143.395 88.3567 143.312 88.1067 143.145 87.92C142.985 87.7267 142.768 87.5767 142.495 87.47C142.222 87.3633 141.905 87.29 141.545 87.25C141.192 87.2033 140.818 87.17 140.425 87.15C140.038 87.13 139.648 87.11 139.255 87.09C138.862 87.07 138.492 87.03 138.145 86.97C137.892 87.07 137.658 87.1867 137.445 87.32C137.232 87.4467 137.048 87.5933 136.895 87.76C136.742 87.9267 136.622 88.1067 136.535 88.3C136.448 88.5 136.405 88.7133 136.405 88.94C136.405 89.2333 136.478 89.5033 136.625 89.75C136.778 90.0033 136.998 90.22 137.285 90.4C137.578 90.5867 137.935 90.7333 138.355 90.84C138.775 90.9467 139.258 91 139.805 91C140.312 91 140.782 90.9433 141.215 90.83C141.655 90.7167 142.035 90.5567 142.355 90.35C142.682 90.1433 142.935 89.8967 143.115 89.61C143.302 89.3233 143.395 89.01 143.395 88.67ZM144.435 78.49V78.82C144.435 78.9667 144.342 79.0567 144.155 79.09L142.635 79.2C142.822 79.4533 142.965 79.7367 143.065 80.05C143.165 80.3633 143.215 80.7033 143.215 81.07C143.215 81.55 143.128 81.9867 142.955 82.38C142.788 82.7667 142.548 83.1 142.235 83.38C141.928 83.6533 141.555 83.8667 141.115 84.02C140.682 84.1733 140.202 84.25 139.675 84.25C139.108 84.25 138.592 84.1633 138.125 83.99C137.845 84.15 137.622 84.34 137.455 84.56C137.295 84.7733 137.215 84.9867 137.215 85.2C137.215 85.4867 137.315 85.7067 137.515 85.86C137.722 86.0133 137.988 86.1267 138.315 86.2C138.648 86.2667 139.025 86.31 139.445 86.33C139.872 86.35 140.305 86.3733 140.745 86.4C141.185 86.42 141.615 86.46 142.035 86.52C142.462 86.58 142.838 86.6867 143.165 86.84C143.498 86.9867 143.765 87.1967 143.965 87.47C144.172 87.7367 144.275 88.0933 144.275 88.54C144.275 88.9533 144.172 89.35 143.965 89.73C143.758 90.11 143.458 90.4467 143.065 90.74C142.678 91.0333 142.208 91.2667 141.655 91.44C141.102 91.62 140.482 91.71 139.795 91.71C139.095 91.71 138.482 91.6367 137.955 91.49C137.428 91.35 136.985 91.1567 136.625 90.91C136.272 90.67 136.005 90.39 135.825 90.07C135.645 89.75 135.555 89.41 135.555 89.05C135.555 88.5233 135.728 88.0733 136.075 87.7C136.422 87.32 136.895 87.0233 137.495 86.81C137.162 86.6967 136.892 86.5333 136.685 86.32C136.485 86.1 136.385 85.8033 136.385 85.43C136.385 85.29 136.412 85.1433 136.465 84.99C136.518 84.8367 136.598 84.6867 136.705 84.54C136.812 84.3867 136.942 84.2433 137.095 84.11C137.248 83.9767 137.422 83.8567 137.615 83.75C137.142 83.4767 136.772 83.1133 136.505 82.66C136.245 82.2067 136.115 81.6767 136.115 81.07C136.115 80.59 136.198 80.1567 136.365 79.77C136.538 79.3767 136.782 79.04 137.095 78.76C137.408 78.48 137.782 78.2633 138.215 78.11C138.655 77.9567 139.142 77.88 139.675 77.88C140.115 77.88 140.518 77.9333 140.885 78.04C141.258 78.1467 141.592 78.2967 141.885 78.49H144.435ZM150.443 77.89C151.157 77.89 151.793 78.0133 152.353 78.26C152.92 78.5 153.397 78.8433 153.783 79.29C154.17 79.7367 154.463 80.2767 154.663 80.91C154.87 81.5367 154.973 82.24 154.973 83.02C154.973 83.8 154.87 84.5033 154.663 85.13C154.463 85.7567 154.17 86.2933 153.783 86.74C153.397 87.1867 152.92 87.53 152.353 87.77C151.793 88.01 151.157 88.13 150.443 88.13C149.73 88.13 149.09 88.01 148.523 87.77C147.963 87.53 147.487 87.1867 147.093 86.74C146.707 86.2933 146.41 85.7567 146.203 85.13C146.003 84.5033 145.903 83.8 145.903 83.02C145.903 82.24 146.003 81.5367 146.203 80.91C146.41 80.2767 146.707 79.7367 147.093 79.29C147.487 78.8433 147.963 78.5 148.523 78.26C149.09 78.0133 149.73 77.89 150.443 77.89ZM150.443 87.38C151.037 87.38 151.553 87.28 151.993 87.08C152.44 86.8733 152.81 86.58 153.103 86.2C153.403 85.82 153.627 85.3633 153.773 84.83C153.92 84.29 153.993 83.6867 153.993 83.02C153.993 82.36 153.92 81.76 153.773 81.22C153.627 80.68 153.403 80.22 153.103 79.84C152.81 79.4533 152.44 79.1567 151.993 78.95C151.553 78.7433 151.037 78.64 150.443 78.64C149.85 78.64 149.33 78.7433 148.883 78.95C148.443 79.1567 148.073 79.4533 147.773 79.84C147.48 80.22 147.257 80.68 147.103 81.22C146.957 81.76 146.883 82.36 146.883 83.02C146.883 83.6867 146.957 84.29 147.103 84.83C147.257 85.3633 147.48 85.82 147.773 86.2C148.073 86.58 148.443 86.8733 148.883 87.08C149.33 87.28 149.85 87.38 150.443 87.38ZM169.875 80.19C169.495 79.6167 169.072 79.2133 168.605 78.98C168.145 78.7467 167.619 78.63 167.025 78.63C166.439 78.63 165.925 78.7367 165.485 78.95C165.045 79.1633 164.675 79.4667 164.375 79.86C164.082 80.2467 163.859 80.7133 163.705 81.26C163.559 81.8 163.485 82.3967 163.485 83.05C163.485 84.53 163.755 85.62 164.295 86.32C164.842 87.0133 165.629 87.36 166.655 87.36C167.309 87.36 167.905 87.19 168.445 86.85C168.985 86.51 169.462 86.0333 169.875 85.42V80.19ZM170.825 73.45V88H170.305C170.132 88 170.032 87.9133 170.005 87.74L169.905 86.17C169.465 86.77 168.952 87.2467 168.365 87.6C167.779 87.9533 167.119 88.13 166.385 88.13C165.159 88.13 164.205 87.7067 163.525 86.86C162.845 86.0133 162.505 84.7433 162.505 83.05C162.505 82.3233 162.599 81.6467 162.785 81.02C162.979 80.3867 163.259 79.84 163.625 79.38C163.992 78.9133 164.442 78.5467 164.975 78.28C165.515 78.0133 166.135 77.88 166.835 77.88C167.509 77.88 168.092 78.0033 168.585 78.25C169.079 78.4967 169.509 78.8633 169.875 79.35V73.45H170.825ZM181.081 82.02C181.081 81.4867 181.004 81.01 180.851 80.59C180.704 80.1633 180.494 79.8033 180.221 79.51C179.948 79.2167 179.621 78.9933 179.241 78.84C178.868 78.68 178.454 78.6 178.001 78.6C177.488 78.6 177.028 78.68 176.621 78.84C176.214 79 175.861 79.23 175.561 79.53C175.268 79.83 175.031 80.19 174.851 80.61C174.671 81.03 174.551 81.5 174.491 82.02H181.081ZM174.441 82.63V82.82C174.441 83.5667 174.528 84.2233 174.701 84.79C174.874 85.3567 175.121 85.8333 175.441 86.22C175.761 86.6 176.148 86.8867 176.601 87.08C177.054 87.2733 177.561 87.37 178.121 87.37C178.621 87.37 179.054 87.3167 179.421 87.21C179.788 87.0967 180.094 86.9733 180.341 86.84C180.594 86.7 180.794 86.5767 180.941 86.47C181.088 86.3567 181.194 86.3 181.261 86.3C181.348 86.3 181.414 86.3333 181.461 86.4L181.721 86.72C181.561 86.92 181.348 87.1067 181.081 87.28C180.821 87.4533 180.528 87.6033 180.201 87.73C179.881 87.85 179.534 87.9467 179.161 88.02C178.794 88.0933 178.424 88.13 178.051 88.13C177.371 88.13 176.751 88.0133 176.191 87.78C175.631 87.54 175.151 87.1933 174.751 86.74C174.351 86.2867 174.041 85.7333 173.821 85.08C173.608 84.42 173.501 83.6667 173.501 82.82C173.501 82.1067 173.601 81.45 173.801 80.85C174.008 80.2433 174.301 79.7233 174.681 79.29C175.068 78.85 175.538 78.5067 176.091 78.26C176.651 78.0133 177.284 77.89 177.991 77.89C178.551 77.89 179.071 77.9867 179.551 78.18C180.031 78.3733 180.448 78.6567 180.801 79.03C181.154 79.3967 181.431 79.85 181.631 80.39C181.838 80.93 181.941 81.55 181.941 82.25C181.941 82.3967 181.921 82.4967 181.881 82.55C181.841 82.6033 181.774 82.63 181.681 82.63H174.441ZM190.001 79.28C189.947 79.3733 189.871 79.42 189.771 79.42C189.697 79.42 189.604 79.38 189.491 79.3C189.377 79.2133 189.224 79.12 189.031 79.02C188.844 78.9133 188.611 78.82 188.331 78.74C188.051 78.6533 187.711 78.61 187.311 78.61C186.951 78.61 186.621 78.6633 186.321 78.77C186.027 78.87 185.774 79.0067 185.561 79.18C185.354 79.3533 185.194 79.5567 185.081 79.79C184.967 80.0167 184.911 80.2567 184.911 80.51C184.911 80.8233 184.991 81.0833 185.151 81.29C185.311 81.4967 185.517 81.6733 185.771 81.82C186.031 81.9667 186.327 82.0933 186.661 82.2C186.994 82.3067 187.331 82.4133 187.671 82.52C188.017 82.6267 188.357 82.7467 188.691 82.88C189.024 83.0067 189.317 83.1667 189.571 83.36C189.831 83.5533 190.041 83.79 190.201 84.07C190.361 84.35 190.441 84.69 190.441 85.09C190.441 85.5233 190.364 85.9267 190.211 86.3C190.057 86.6733 189.831 86.9967 189.531 87.27C189.237 87.5433 188.874 87.76 188.441 87.92C188.007 88.08 187.511 88.16 186.951 88.16C186.251 88.16 185.647 88.05 185.141 87.83C184.634 87.6033 184.181 87.31 183.781 86.95L184.001 86.61C184.034 86.5567 184.071 86.5167 184.111 86.49C184.157 86.4633 184.217 86.45 184.291 86.45C184.377 86.45 184.481 86.5033 184.601 86.61C184.727 86.7167 184.894 86.8333 185.101 86.96C185.307 87.08 185.561 87.1933 185.861 87.3C186.167 87.4067 186.544 87.46 186.991 87.46C187.411 87.46 187.781 87.4033 188.101 87.29C188.421 87.17 188.687 87.01 188.901 86.81C189.114 86.61 189.274 86.3767 189.381 86.11C189.494 85.8367 189.551 85.55 189.551 85.25C189.551 84.9167 189.471 84.64 189.311 84.42C189.151 84.2 188.941 84.0133 188.681 83.86C188.421 83.7067 188.124 83.5767 187.791 83.47C187.464 83.3633 187.127 83.2567 186.781 83.15C186.434 83.0433 186.094 82.9267 185.761 82.8C185.434 82.6733 185.141 82.5133 184.881 82.32C184.621 82.1267 184.411 81.8933 184.251 81.62C184.091 81.34 184.011 80.9933 184.011 80.58C184.011 80.2267 184.087 79.8867 184.241 79.56C184.394 79.2333 184.611 78.9467 184.891 78.7C185.177 78.4533 185.524 78.2567 185.931 78.11C186.337 77.9633 186.794 77.89 187.301 77.89C187.907 77.89 188.444 77.9767 188.911 78.15C189.384 78.3233 189.814 78.59 190.201 78.95L190.001 79.28ZM194.087 78.05V88H193.137V78.05H194.087ZM194.497 74.62C194.497 74.74 194.47 74.8533 194.417 74.96C194.37 75.06 194.307 75.15 194.227 75.23C194.147 75.31 194.053 75.3733 193.947 75.42C193.84 75.4667 193.727 75.49 193.607 75.49C193.487 75.49 193.373 75.4667 193.267 75.42C193.16 75.3733 193.067 75.31 192.987 75.23C192.907 75.15 192.843 75.06 192.797 74.96C192.75 74.8533 192.727 74.74 192.727 74.62C192.727 74.5 192.75 74.3867 192.797 74.28C192.843 74.1667 192.907 74.07 192.987 73.99C193.067 73.91 193.16 73.8467 193.267 73.8C193.373 73.7533 193.487 73.73 193.607 73.73C193.727 73.73 193.84 73.7533 193.947 73.8C194.053 73.8467 194.147 73.91 194.227 73.99C194.307 74.07 194.37 74.1667 194.417 74.28C194.47 74.3867 194.497 74.5 194.497 74.62ZM200.73 83.6C201.157 83.6 201.537 83.54 201.87 83.42C202.203 83.2933 202.483 83.12 202.71 82.9C202.937 82.68 203.11 82.4167 203.23 82.11C203.35 81.8033 203.41 81.4633 203.41 81.09C203.41 80.7167 203.347 80.3767 203.22 80.07C203.1 79.7567 202.923 79.49 202.69 79.27C202.463 79.05 202.183 78.88 201.85 78.76C201.523 78.64 201.15 78.58 200.73 78.58C200.31 78.58 199.933 78.64 199.6 78.76C199.273 78.88 198.993 79.05 198.76 79.27C198.533 79.49 198.36 79.7567 198.24 80.07C198.12 80.3767 198.06 80.7167 198.06 81.09C198.06 81.4633 198.12 81.8033 198.24 82.11C198.36 82.4167 198.533 82.68 198.76 82.9C198.993 83.12 199.273 83.2933 199.6 83.42C199.933 83.54 200.31 83.6 200.73 83.6ZM204.45 88.67C204.45 88.3567 204.367 88.1067 204.2 87.92C204.04 87.7267 203.823 87.5767 203.55 87.47C203.277 87.3633 202.96 87.29 202.6 87.25C202.247 87.2033 201.873 87.17 201.48 87.15C201.093 87.13 200.703 87.11 200.31 87.09C199.917 87.07 199.547 87.03 199.2 86.97C198.947 87.07 198.713 87.1867 198.5 87.32C198.287 87.4467 198.103 87.5933 197.95 87.76C197.797 87.9267 197.677 88.1067 197.59 88.3C197.503 88.5 197.46 88.7133 197.46 88.94C197.46 89.2333 197.533 89.5033 197.68 89.75C197.833 90.0033 198.053 90.22 198.34 90.4C198.633 90.5867 198.99 90.7333 199.41 90.84C199.83 90.9467 200.313 91 200.86 91C201.367 91 201.837 90.9433 202.27 90.83C202.71 90.7167 203.09 90.5567 203.41 90.35C203.737 90.1433 203.99 89.8967 204.17 89.61C204.357 89.3233 204.45 89.01 204.45 88.67ZM205.49 78.49V78.82C205.49 78.9667 205.397 79.0567 205.21 79.09L203.69 79.2C203.877 79.4533 204.02 79.7367 204.12 80.05C204.22 80.3633 204.27 80.7033 204.27 81.07C204.27 81.55 204.183 81.9867 204.01 82.38C203.843 82.7667 203.603 83.1 203.29 83.38C202.983 83.6533 202.61 83.8667 202.17 84.02C201.737 84.1733 201.257 84.25 200.73 84.25C200.163 84.25 199.647 84.1633 199.18 83.99C198.9 84.15 198.677 84.34 198.51 84.56C198.35 84.7733 198.27 84.9867 198.27 85.2C198.27 85.4867 198.37 85.7067 198.57 85.86C198.777 86.0133 199.043 86.1267 199.37 86.2C199.703 86.2667 200.08 86.31 200.5 86.33C200.927 86.35 201.36 86.3733 201.8 86.4C202.24 86.42 202.67 86.46 203.09 86.52C203.517 86.58 203.893 86.6867 204.22 86.84C204.553 86.9867 204.82 87.1967 205.02 87.47C205.227 87.7367 205.33 88.0933 205.33 88.54C205.33 88.9533 205.227 89.35 205.02 89.73C204.813 90.11 204.513 90.4467 204.12 90.74C203.733 91.0333 203.263 91.2667 202.71 91.44C202.157 91.62 201.537 91.71 200.85 91.71C200.15 91.71 199.537 91.6367 199.01 91.49C198.483 91.35 198.04 91.1567 197.68 90.91C197.327 90.67 197.06 90.39 196.88 90.07C196.7 89.75 196.61 89.41 196.61 89.05C196.61 88.5233 196.783 88.0733 197.13 87.7C197.477 87.32 197.95 87.0233 198.55 86.81C198.217 86.6967 197.947 86.5333 197.74 86.32C197.54 86.1 197.44 85.8033 197.44 85.43C197.44 85.29 197.467 85.1433 197.52 84.99C197.573 84.8367 197.653 84.6867 197.76 84.54C197.867 84.3867 197.997 84.2433 198.15 84.11C198.303 83.9767 198.477 83.8567 198.67 83.75C198.197 83.4767 197.827 83.1133 197.56 82.66C197.3 82.2067 197.17 81.6767 197.17 81.07C197.17 80.59 197.253 80.1567 197.42 79.77C197.593 79.3767 197.837 79.04 198.15 78.76C198.463 78.48 198.837 78.2633 199.27 78.11C199.71 77.9567 200.197 77.88 200.73 77.88C201.17 77.88 201.573 77.9333 201.94 78.04C202.313 78.1467 202.647 78.2967 202.94 78.49H205.49ZM208.605 79.79C209.065 79.2167 209.595 78.7567 210.195 78.41C210.801 78.0633 211.475 77.89 212.215 77.89C212.761 77.89 213.241 77.9767 213.655 78.15C214.075 78.3233 214.421 78.5733 214.695 78.9C214.968 79.2267 215.175 79.62 215.315 80.08C215.455 80.54 215.525 81.06 215.525 81.64V88H214.565V81.64C214.565 80.7067 214.351 79.9767 213.925 79.45C213.498 78.9167 212.848 78.65 211.975 78.65C211.328 78.65 210.721 78.8167 210.155 79.15C209.595 79.4767 209.095 79.9333 208.655 80.52V88H207.695V78.05H208.225C208.391 78.05 208.488 78.1333 208.515 78.3L208.605 79.79ZM229.69 83.19C228.744 83.2233 227.927 83.3 227.24 83.42C226.56 83.5333 225.997 83.69 225.55 83.89C225.11 84.09 224.784 84.33 224.57 84.61C224.357 84.8833 224.25 85.1967 224.25 85.55C224.25 85.8833 224.304 86.1733 224.41 86.42C224.524 86.66 224.67 86.86 224.85 87.02C225.037 87.1733 225.25 87.2867 225.49 87.36C225.73 87.4333 225.98 87.47 226.24 87.47C226.627 87.47 226.98 87.43 227.3 87.35C227.627 87.2633 227.927 87.1467 228.2 87C228.48 86.8467 228.74 86.6667 228.98 86.46C229.22 86.2533 229.457 86.03 229.69 85.79V83.19ZM223.84 79.46C224.36 78.94 224.907 78.5467 225.48 78.28C226.054 78.0133 226.704 77.88 227.43 77.88C227.964 77.88 228.43 77.9667 228.83 78.14C229.23 78.3067 229.56 78.55 229.82 78.87C230.087 79.1833 230.287 79.5667 230.42 80.02C230.554 80.4667 230.62 80.9667 230.62 81.52V88H230.24C230.04 88 229.917 87.9067 229.87 87.72L229.73 86.44C229.457 86.7067 229.184 86.9467 228.91 87.16C228.644 87.3733 228.364 87.5533 228.07 87.7C227.777 87.8467 227.46 87.96 227.12 88.04C226.78 88.12 226.407 88.16 226 88.16C225.66 88.16 225.33 88.11 225.01 88.01C224.69 87.91 224.404 87.7567 224.15 87.55C223.904 87.3433 223.704 87.08 223.55 86.76C223.404 86.4333 223.33 86.0433 223.33 85.59C223.33 85.17 223.45 84.78 223.69 84.42C223.93 84.06 224.307 83.7467 224.82 83.48C225.334 83.2133 225.99 83 226.79 82.84C227.597 82.68 228.564 82.5867 229.69 82.56V81.52C229.69 80.6 229.49 79.8933 229.09 79.4C228.697 78.9 228.11 78.65 227.33 78.65C226.85 78.65 226.44 78.7167 226.1 78.85C225.767 78.9833 225.484 79.13 225.25 79.29C225.017 79.45 224.827 79.5967 224.68 79.73C224.534 79.8633 224.41 79.93 224.31 79.93C224.237 79.93 224.177 79.9133 224.13 79.88C224.084 79.8467 224.044 79.8033 224.01 79.75L223.84 79.46ZM239.278 79.28C239.225 79.3733 239.148 79.42 239.048 79.42C238.975 79.42 238.881 79.38 238.768 79.3C238.655 79.2133 238.501 79.12 238.308 79.02C238.121 78.9133 237.888 78.82 237.608 78.74C237.328 78.6533 236.988 78.61 236.588 78.61C236.228 78.61 235.898 78.6633 235.598 78.77C235.305 78.87 235.051 79.0067 234.838 79.18C234.631 79.3533 234.471 79.5567 234.358 79.79C234.245 80.0167 234.188 80.2567 234.188 80.51C234.188 80.8233 234.268 81.0833 234.428 81.29C234.588 81.4967 234.795 81.6733 235.048 81.82C235.308 81.9667 235.605 82.0933 235.938 82.2C236.271 82.3067 236.608 82.4133 236.948 82.52C237.295 82.6267 237.635 82.7467 237.968 82.88C238.301 83.0067 238.595 83.1667 238.848 83.36C239.108 83.5533 239.318 83.79 239.478 84.07C239.638 84.35 239.718 84.69 239.718 85.09C239.718 85.5233 239.641 85.9267 239.488 86.3C239.335 86.6733 239.108 86.9967 238.808 87.27C238.515 87.5433 238.151 87.76 237.718 87.92C237.285 88.08 236.788 88.16 236.228 88.16C235.528 88.16 234.925 88.05 234.418 87.83C233.911 87.6033 233.458 87.31 233.058 86.95L233.278 86.61C233.311 86.5567 233.348 86.5167 233.388 86.49C233.435 86.4633 233.495 86.45 233.568 86.45C233.655 86.45 233.758 86.5033 233.878 86.61C234.005 86.7167 234.171 86.8333 234.378 86.96C234.585 87.08 234.838 87.1933 235.138 87.3C235.445 87.4067 235.821 87.46 236.268 87.46C236.688 87.46 237.058 87.4033 237.378 87.29C237.698 87.17 237.965 87.01 238.178 86.81C238.391 86.61 238.551 86.3767 238.658 86.11C238.771 85.8367 238.828 85.55 238.828 85.25C238.828 84.9167 238.748 84.64 238.588 84.42C238.428 84.2 238.218 84.0133 237.958 83.86C237.698 83.7067 237.401 83.5767 237.068 83.47C236.741 83.3633 236.405 83.2567 236.058 83.15C235.711 83.0433 235.371 82.9267 235.038 82.8C234.711 82.6733 234.418 82.5133 234.158 82.32C233.898 82.1267 233.688 81.8933 233.528 81.62C233.368 81.34 233.288 80.9933 233.288 80.58C233.288 80.2267 233.365 79.8867 233.518 79.56C233.671 79.2333 233.888 78.9467 234.168 78.7C234.455 78.4533 234.801 78.2567 235.208 78.11C235.615 77.9633 236.071 77.89 236.578 77.89C237.185 77.89 237.721 77.9767 238.188 78.15C238.661 78.3233 239.091 78.59 239.478 78.95L239.278 79.28ZM247.774 79.28C247.721 79.3733 247.644 79.42 247.544 79.42C247.471 79.42 247.377 79.38 247.264 79.3C247.151 79.2133 246.997 79.12 246.804 79.02C246.617 78.9133 246.384 78.82 246.104 78.74C245.824 78.6533 245.484 78.61 245.084 78.61C244.724 78.61 244.394 78.6633 244.094 78.77C243.801 78.87 243.547 79.0067 243.334 79.18C243.127 79.3533 242.967 79.5567 242.854 79.79C242.741 80.0167 242.684 80.2567 242.684 80.51C242.684 80.8233 242.764 81.0833 242.924 81.29C243.084 81.4967 243.291 81.6733 243.544 81.82C243.804 81.9667 244.101 82.0933 244.434 82.2C244.767 82.3067 245.104 82.4133 245.444 82.52C245.791 82.6267 246.131 82.7467 246.464 82.88C246.797 83.0067 247.091 83.1667 247.344 83.36C247.604 83.5533 247.814 83.79 247.974 84.07C248.134 84.35 248.214 84.69 248.214 85.09C248.214 85.5233 248.137 85.9267 247.984 86.3C247.831 86.6733 247.604 86.9967 247.304 87.27C247.011 87.5433 246.647 87.76 246.214 87.92C245.781 88.08 245.284 88.16 244.724 88.16C244.024 88.16 243.421 88.05 242.914 87.83C242.407 87.6033 241.954 87.31 241.554 86.95L241.774 86.61C241.807 86.5567 241.844 86.5167 241.884 86.49C241.931 86.4633 241.991 86.45 242.064 86.45C242.151 86.45 242.254 86.5033 242.374 86.61C242.501 86.7167 242.667 86.8333 242.874 86.96C243.081 87.08 243.334 87.1933 243.634 87.3C243.941 87.4067 244.317 87.46 244.764 87.46C245.184 87.46 245.554 87.4033 245.874 87.29C246.194 87.17 246.461 87.01 246.674 86.81C246.887 86.61 247.047 86.3767 247.154 86.11C247.267 85.8367 247.324 85.55 247.324 85.25C247.324 84.9167 247.244 84.64 247.084 84.42C246.924 84.2 246.714 84.0133 246.454 83.86C246.194 83.7067 245.897 83.5767 245.564 83.47C245.237 83.3633 244.901 83.2567 244.554 83.15C244.207 83.0433 243.867 82.9267 243.534 82.8C243.207 82.6733 242.914 82.5133 242.654 82.32C242.394 82.1267 242.184 81.8933 242.024 81.62C241.864 81.34 241.784 80.9933 241.784 80.58C241.784 80.2267 241.861 79.8867 242.014 79.56C242.167 79.2333 242.384 78.9467 242.664 78.7C242.951 78.4533 243.297 78.2567 243.704 78.11C244.111 77.9633 244.567 77.89 245.074 77.89C245.681 77.89 246.217 77.9767 246.684 78.15C247.157 78.3233 247.587 78.59 247.974 78.95L247.774 79.28ZM257.78 82.02C257.78 81.4867 257.703 81.01 257.55 80.59C257.403 80.1633 257.193 79.8033 256.92 79.51C256.647 79.2167 256.32 78.9933 255.94 78.84C255.567 78.68 255.153 78.6 254.7 78.6C254.187 78.6 253.727 78.68 253.32 78.84C252.913 79 252.56 79.23 252.26 79.53C251.967 79.83 251.73 80.19 251.55 80.61C251.37 81.03 251.25 81.5 251.19 82.02H257.78ZM251.14 82.63V82.82C251.14 83.5667 251.227 84.2233 251.4 84.79C251.573 85.3567 251.82 85.8333 252.14 86.22C252.46 86.6 252.847 86.8867 253.3 87.08C253.753 87.2733 254.26 87.37 254.82 87.37C255.32 87.37 255.753 87.3167 256.12 87.21C256.487 87.0967 256.793 86.9733 257.04 86.84C257.293 86.7 257.493 86.5767 257.64 86.47C257.787 86.3567 257.893 86.3 257.96 86.3C258.047 86.3 258.113 86.3333 258.16 86.4L258.42 86.72C258.26 86.92 258.047 87.1067 257.78 87.28C257.52 87.4533 257.227 87.6033 256.9 87.73C256.58 87.85 256.233 87.9467 255.86 88.02C255.493 88.0933 255.123 88.13 254.75 88.13C254.07 88.13 253.45 88.0133 252.89 87.78C252.33 87.54 251.85 87.1933 251.45 86.74C251.05 86.2867 250.74 85.7333 250.52 85.08C250.307 84.42 250.2 83.6667 250.2 82.82C250.2 82.1067 250.3 81.45 250.5 80.85C250.707 80.2433 251 79.7233 251.38 79.29C251.767 78.85 252.237 78.5067 252.79 78.26C253.35 78.0133 253.983 77.89 254.69 77.89C255.25 77.89 255.77 77.9867 256.25 78.18C256.73 78.3733 257.147 78.6567 257.5 79.03C257.853 79.3967 258.13 79.85 258.33 80.39C258.537 80.93 258.64 81.55 258.64 82.25C258.64 82.3967 258.62 82.4967 258.58 82.55C258.54 82.6033 258.473 82.63 258.38 82.63H251.14ZM263.911 88.16C263.237 88.16 262.711 87.9733 262.331 87.6C261.957 87.2267 261.771 86.65 261.771 85.87V79.07H260.341C260.267 79.07 260.207 79.05 260.161 79.01C260.114 78.97 260.091 78.9133 260.091 78.84V78.47L261.791 78.35L262.031 74.79C262.044 74.73 262.071 74.6767 262.111 74.63C262.151 74.5833 262.207 74.56 262.281 74.56H262.731V78.36H265.871V79.07H262.731V85.82C262.731 86.0933 262.764 86.33 262.831 86.53C262.904 86.7233 263.001 86.8833 263.121 87.01C263.247 87.1367 263.394 87.23 263.561 87.29C263.727 87.35 263.907 87.38 264.101 87.38C264.341 87.38 264.547 87.3467 264.721 87.28C264.894 87.2067 265.044 87.13 265.171 87.05C265.297 86.9633 265.401 86.8867 265.481 86.82C265.561 86.7467 265.624 86.71 265.671 86.71C265.724 86.71 265.777 86.7433 265.831 86.81L266.091 87.23C265.837 87.51 265.514 87.7367 265.121 87.91C264.734 88.0767 264.331 88.16 263.911 88.16ZM273.516 79.28C273.463 79.3733 273.386 79.42 273.286 79.42C273.213 79.42 273.12 79.38 273.006 79.3C272.893 79.2133 272.74 79.12 272.546 79.02C272.36 78.9133 272.126 78.82 271.846 78.74C271.566 78.6533 271.226 78.61 270.826 78.61C270.466 78.61 270.136 78.6633 269.836 78.77C269.543 78.87 269.29 79.0067 269.076 79.18C268.87 79.3533 268.71 79.5567 268.596 79.79C268.483 80.0167 268.426 80.2567 268.426 80.51C268.426 80.8233 268.506 81.0833 268.666 81.29C268.826 81.4967 269.033 81.6733 269.286 81.82C269.546 81.9667 269.843 82.0933 270.176 82.2C270.51 82.3067 270.846 82.4133 271.186 82.52C271.533 82.6267 271.873 82.7467 272.206 82.88C272.54 83.0067 272.833 83.1667 273.086 83.36C273.346 83.5533 273.556 83.79 273.716 84.07C273.876 84.35 273.956 84.69 273.956 85.09C273.956 85.5233 273.88 85.9267 273.726 86.3C273.573 86.6733 273.346 86.9967 273.046 87.27C272.753 87.5433 272.39 87.76 271.956 87.92C271.523 88.08 271.026 88.16 270.466 88.16C269.766 88.16 269.163 88.05 268.656 87.83C268.15 87.6033 267.696 87.31 267.296 86.95L267.516 86.61C267.55 86.5567 267.586 86.5167 267.626 86.49C267.673 86.4633 267.733 86.45 267.806 86.45C267.893 86.45 267.996 86.5033 268.116 86.61C268.243 86.7167 268.41 86.8333 268.616 86.96C268.823 87.08 269.076 87.1933 269.376 87.3C269.683 87.4067 270.06 87.46 270.506 87.46C270.926 87.46 271.296 87.4033 271.616 87.29C271.936 87.17 272.203 87.01 272.416 86.81C272.63 86.61 272.79 86.3767 272.896 86.11C273.01 85.8367 273.066 85.55 273.066 85.25C273.066 84.9167 272.986 84.64 272.826 84.42C272.666 84.2 272.456 84.0133 272.196 83.86C271.936 83.7067 271.64 83.5767 271.306 83.47C270.98 83.3633 270.643 83.2567 270.296 83.15C269.95 83.0433 269.61 82.9267 269.276 82.8C268.95 82.6733 268.656 82.5133 268.396 82.32C268.136 82.1267 267.926 81.8933 267.766 81.62C267.606 81.34 267.526 80.9933 267.526 80.58C267.526 80.2267 267.603 79.8867 267.756 79.56C267.91 79.2333 268.126 78.9467 268.406 78.7C268.693 78.4533 269.04 78.2567 269.446 78.11C269.853 77.9633 270.31 77.89 270.816 77.89C271.423 77.89 271.96 77.9767 272.426 78.15C272.9 78.3233 273.33 78.59 273.716 78.95L273.516 79.28Z" fill="#007AFF"/>
<path d="M95 93.1H274.906V93.69H95V93.1Z" fill="#007AFF"/>
<defs>
<clipPath id="clip0_1689_1223">
<rect width="18.7709" height="28.41" fill="white" transform="translate(35.9629 52.7563)"/>
</clipPath>
</defs>
</svg>
