<svg width="356" height="146" viewBox="0 0 356 146" fill="none" xmlns="http://www.w3.org/2000/svg">
<rect x="0.493164" y="1.34921" width="355.007" height="143.302" rx="4.5" fill="white" stroke="#80BCFF"/>
<rect x="129.156" y="23.6843" width="98.6313" height="98.6313" stroke="#80BCFF" stroke-width="2"/>
<rect x="122.459" y="16.9882" width="16.139" height="16.139" fill="#007AFF"/>
<rect x="125.308" y="69.2026" width="7.59482" height="7.59482" fill="#007AFF"/>
<rect x="172.775" y="19.8363" width="7.59482" height="7.59482" fill="#007AFF"/>
<rect x="172.775" y="118.569" width="7.59482" height="7.59482" fill="#007AFF"/>
<rect x="224.041" y="69.2026" width="7.59482" height="7.59482" fill="#007AFF"/>
<rect x="218.344" y="112.873" width="16.139" height="16.139" fill="#007AFF"/>
<rect x="122.459" y="112.873" width="16.139" height="16.139" fill="#007AFF"/>
<rect x="218.344" y="16.9882" width="16.139" height="16.139" fill="#007AFF"/>
<g clip-path="url(#clip0_1713_2909)">
<path d="M167.317 103.379C172.164 103.379 176.098 99.4097 176.098 94.5186V85.658H167.317C162.469 85.658 158.535 89.6275 158.535 94.5186C158.535 99.4097 162.469 103.379 167.317 103.379Z" fill="#007AFF" fill-opacity="0.3"/>
<path d="M158.535 76.7974C158.535 71.9063 162.469 67.9368 167.317 67.9368H176.098V85.658H167.317C162.469 85.658 158.535 81.6884 158.535 76.7974Z" fill="#80BCFF"/>
<path d="M158.535 59.0761C158.535 54.1851 162.469 50.2155 167.317 50.2155H176.098V67.9368H167.317C162.469 67.9368 158.535 63.9672 158.535 59.0761Z" fill="#6A66A3"/>
<path d="M176.098 50.2155H184.88C189.727 50.2155 193.661 54.1851 193.661 59.0761C193.661 63.9672 189.727 67.9368 184.88 67.9368H176.098V50.2155Z" fill="#6A66A3" fill-opacity="0.5"/>
<path d="M193.661 76.7974C193.661 81.6884 189.727 85.658 184.88 85.658C180.032 85.658 176.098 81.6884 176.098 76.7974C176.098 71.9063 180.032 67.9368 184.88 67.9368C189.727 67.9368 193.661 71.9063 193.661 76.7974Z" fill="#007AFF"/>
</g>
<defs>
<clipPath id="clip0_1713_2909">
<rect width="35.126" height="53.1637" fill="white" transform="translate(158.535 50.2155)"/>
</clipPath>
</defs>
</svg>
