<svg width="235" height="124" viewBox="0 0 235 124" fill="none" xmlns="http://www.w3.org/2000/svg">
<rect x="0.75" y="0.75" width="233.5" height="122.5" rx="3.25" fill="white"/>
<rect x="0.75" y="0.75" width="233.5" height="122.5" rx="3.25" stroke="#1991EB" stroke-width="1.5"/>
<path d="M14.7585 90V81.2727H20.5369V82.794H16.6037V84.8736H20.1534V86.3949H16.6037V90H14.7585ZM21.744 90V83.4545H23.5593V90H21.744ZM22.6559 82.6108C22.386 82.6108 22.1545 82.5213 21.9613 82.3423C21.771 82.1605 21.6758 81.9432 21.6758 81.6903C21.6758 81.4403 21.771 81.2259 21.9613 81.0469C22.1545 80.8651 22.386 80.7741 22.6559 80.7741C22.9258 80.7741 23.1559 80.8651 23.3462 81.0469C23.5394 81.2259 23.636 81.4403 23.636 81.6903C23.636 81.9432 23.5394 82.1605 23.3462 82.3423C23.1559 82.5213 22.9258 82.6108 22.6559 82.6108ZM27.9624 92.5909C27.3743 92.5909 26.87 92.5099 26.4496 92.348C26.032 92.1889 25.6996 91.9716 25.4524 91.696C25.2053 91.4205 25.0447 91.1108 24.9709 90.767L26.6499 90.5412C26.701 90.6719 26.782 90.794 26.8928 90.9077C27.0036 91.0213 27.1499 91.1122 27.3317 91.1804C27.5163 91.2514 27.7408 91.2869 28.005 91.2869C28.3999 91.2869 28.7251 91.1903 28.9808 90.9972C29.2393 90.8068 29.3686 90.4872 29.3686 90.0384V88.8409H29.2919C29.2124 89.0227 29.093 89.1946 28.9339 89.3565C28.7749 89.5185 28.5703 89.6506 28.3203 89.7528C28.0703 89.8551 27.772 89.9062 27.4254 89.9062C26.9339 89.9062 26.4865 89.7926 26.0831 89.5653C25.6825 89.3352 25.3629 88.9844 25.1243 88.5128C24.8885 88.0384 24.7706 87.4389 24.7706 86.7145C24.7706 85.973 24.8913 85.3537 25.1328 84.8565C25.3743 84.3594 25.6953 83.9872 26.0959 83.7401C26.4993 83.4929 26.9411 83.3693 27.4212 83.3693C27.7876 83.3693 28.0945 83.4318 28.3416 83.5568C28.5888 83.679 28.7876 83.8324 28.9382 84.017C29.0916 84.1989 29.2095 84.3778 29.2919 84.554H29.3601V83.4545H31.1626V90.0639C31.1626 90.6207 31.0263 91.0866 30.7536 91.4616C30.4808 91.8366 30.103 92.1179 29.62 92.3054C29.1399 92.4957 28.5874 92.5909 27.9624 92.5909ZM28.0007 88.5426C28.2933 88.5426 28.5405 88.4702 28.7422 88.3253C28.9467 88.1776 29.103 87.9673 29.2109 87.6946C29.3217 87.419 29.3771 87.0895 29.3771 86.706C29.3771 86.3224 29.3232 85.9901 29.2152 85.7088C29.1072 85.4247 28.951 85.2045 28.7464 85.0483C28.5419 84.892 28.2933 84.8139 28.0007 84.8139C27.7024 84.8139 27.451 84.8949 27.2464 85.0568C27.0419 85.2159 26.8871 85.4375 26.782 85.7216C26.6768 86.0057 26.6243 86.3338 26.6243 86.706C26.6243 87.0838 26.6768 87.4105 26.782 87.6861C26.8899 87.9588 27.0447 88.1705 27.2464 88.321C27.451 88.4687 27.7024 88.5426 28.0007 88.5426ZM32.6072 90V83.4545H34.3374V84.6094H34.4141C34.5504 84.2259 34.7777 83.9233 35.0959 83.7017C35.4141 83.4801 35.7947 83.3693 36.2379 83.3693C36.6868 83.3693 37.0689 83.4815 37.3842 83.706C37.6996 83.9276 37.9098 84.2287 38.0149 84.6094H38.0831C38.2166 84.2344 38.4581 83.9347 38.8075 83.7102C39.1598 83.483 39.576 83.3693 40.0561 83.3693C40.6669 83.3693 41.1626 83.5639 41.5433 83.9531C41.9268 84.3395 42.1186 84.8878 42.1186 85.598V90H40.3075V85.956C40.3075 85.5923 40.2109 85.3196 40.0178 85.1378C39.8246 84.956 39.5831 84.8651 39.2933 84.8651C38.9638 84.8651 38.7067 84.9702 38.522 85.1804C38.3374 85.3878 38.245 85.6619 38.245 86.0028V90H36.4851V85.9176C36.4851 85.5966 36.3928 85.3409 36.2081 85.1506C36.0263 84.9602 35.7862 84.8651 35.4879 84.8651C35.2862 84.8651 35.1044 84.9162 34.9425 85.0185C34.7834 85.1179 34.657 85.2585 34.5632 85.4403C34.4695 85.6193 34.4226 85.8295 34.4226 86.071V90H32.6072ZM45.419 90.1236C45.0014 90.1236 44.6293 90.0511 44.3026 89.9062C43.9759 89.7585 43.7173 89.5412 43.527 89.2543C43.3395 88.9645 43.2457 88.6037 43.2457 88.1719C43.2457 87.8082 43.3125 87.5028 43.446 87.2557C43.5795 87.0085 43.7614 86.8097 43.9915 86.6591C44.2216 86.5085 44.483 86.3949 44.7756 86.3182C45.071 86.2415 45.3807 86.1875 45.7045 86.1562C46.0852 86.1165 46.392 86.0795 46.625 86.0455C46.858 86.0085 47.027 85.9545 47.1321 85.8835C47.2372 85.8125 47.2898 85.7074 47.2898 85.5682V85.5426C47.2898 85.2727 47.2045 85.0639 47.0341 84.9162C46.8665 84.7685 46.6278 84.6946 46.3182 84.6946C45.9915 84.6946 45.7315 84.767 45.5384 84.9119C45.3452 85.054 45.2173 85.233 45.1548 85.4489L43.4759 85.3125C43.5611 84.9148 43.7287 84.571 43.9787 84.2812C44.2287 83.9886 44.5511 83.7642 44.946 83.608C45.3438 83.4489 45.804 83.3693 46.3267 83.3693C46.6903 83.3693 47.0384 83.4119 47.3707 83.4972C47.706 83.5824 48.0028 83.7145 48.2614 83.8935C48.5227 84.0724 48.7287 84.3026 48.8793 84.5838C49.0298 84.8622 49.1051 85.196 49.1051 85.5852V90H47.3835V89.0923H47.3324C47.2273 89.2969 47.0866 89.4773 46.9105 89.6335C46.7344 89.7869 46.5227 89.9077 46.2756 89.9957C46.0284 90.081 45.7429 90.1236 45.419 90.1236ZM45.9389 88.8707C46.206 88.8707 46.4418 88.8182 46.6463 88.7131C46.8509 88.6051 47.0114 88.4602 47.1278 88.2784C47.2443 88.0966 47.3026 87.8906 47.3026 87.6605V86.9659C47.2457 87.0028 47.1676 87.0369 47.0682 87.0682C46.9716 87.0966 46.8622 87.1236 46.7401 87.1491C46.6179 87.1719 46.4957 87.1932 46.3736 87.2131C46.2514 87.2301 46.1406 87.2457 46.0412 87.2599C45.8281 87.2912 45.642 87.3409 45.483 87.4091C45.3239 87.4773 45.2003 87.5696 45.1122 87.6861C45.0241 87.7997 44.9801 87.9418 44.9801 88.1122C44.9801 88.3594 45.0696 88.5483 45.2486 88.679C45.4304 88.8068 45.6605 88.8707 45.9389 88.8707ZM58.7156 81.2727H60.5607V86.9403C60.5607 87.5767 60.4087 88.1335 60.1048 88.6108C59.8036 89.0881 59.3817 89.4602 58.8391 89.7273C58.2965 89.9915 57.6644 90.1236 56.9428 90.1236C56.2184 90.1236 55.5849 89.9915 55.0423 89.7273C54.4996 89.4602 54.0778 89.0881 53.7766 88.6108C53.4755 88.1335 53.3249 87.5767 53.3249 86.9403V81.2727H55.1701V86.7827C55.1701 87.1151 55.2425 87.4105 55.3874 87.669C55.5352 87.9276 55.7425 88.1307 56.0096 88.2784C56.2766 88.4261 56.5877 88.5 56.9428 88.5C57.3008 88.5 57.6119 88.4261 57.8761 88.2784C58.1431 88.1307 58.3491 87.9276 58.494 87.669C58.6417 87.4105 58.7156 87.1151 58.7156 86.7827V81.2727ZM63.924 81.2727V90H62.0788V81.2727H63.924ZM69.4862 85.696V87.1364H65.506V85.696H69.4862ZM72.6779 88.1165L72.6822 85.9389H72.9464L75.043 83.4545H77.1268L74.31 86.7443H73.8796L72.6779 88.1165ZM71.033 90V81.2727H72.8484V90H71.033ZM75.1239 90L73.1978 87.1491L74.408 85.8665L77.2504 90H75.1239ZM78.0174 90V83.4545H79.8327V90H78.0174ZM78.9293 82.6108C78.6594 82.6108 78.4279 82.5213 78.2347 82.3423C78.0444 82.1605 77.9492 81.9432 77.9492 81.6903C77.9492 81.4403 78.0444 81.2259 78.2347 81.0469C78.4279 80.8651 78.6594 80.7741 78.9293 80.7741C79.1992 80.7741 79.4293 80.8651 79.6197 81.0469C79.8129 81.2259 79.9094 81.4403 79.9094 81.6903C79.9094 81.9432 79.8129 82.1605 79.6197 82.3423C79.4293 82.5213 79.1992 82.6108 78.9293 82.6108ZM84.7685 83.4545V84.8182H80.8267V83.4545H84.7685ZM81.7216 81.8864H83.5369V87.9886C83.5369 88.1562 83.5625 88.2869 83.6136 88.3807C83.6648 88.4716 83.7358 88.5355 83.8267 88.5724C83.9205 88.6094 84.0284 88.6278 84.1506 88.6278C84.2358 88.6278 84.321 88.6207 84.4062 88.6065C84.4915 88.5895 84.5568 88.5767 84.6023 88.5682L84.8878 89.919C84.7969 89.9474 84.669 89.9801 84.5043 90.017C84.3395 90.0568 84.1392 90.081 83.9034 90.0895C83.4659 90.1065 83.0824 90.0483 82.7528 89.9148C82.4261 89.7812 82.1719 89.5739 81.9901 89.2926C81.8082 89.0114 81.7188 88.6562 81.7216 88.2273V81.8864Z" fill="black"/>
<path d="M14 92.3864H85.2244V93.2045H14V92.3864Z" fill="black"/>
<path d="M22.0795 106H21.0227C20.9602 105.696 20.8509 105.429 20.6946 105.199C20.5412 104.969 20.3537 104.776 20.1321 104.619C19.9134 104.46 19.6705 104.341 19.4034 104.261C19.1364 104.182 18.858 104.142 18.5682 104.142C18.0398 104.142 17.5611 104.276 17.1321 104.543C16.706 104.81 16.3665 105.203 16.1136 105.723C15.8636 106.243 15.7386 106.881 15.7386 107.636C15.7386 108.392 15.8636 109.03 16.1136 109.55C16.3665 110.07 16.706 110.463 17.1321 110.73C17.5611 110.997 18.0398 111.131 18.5682 111.131C18.858 111.131 19.1364 111.091 19.4034 111.011C19.6705 110.932 19.9134 110.814 20.1321 110.658C20.3537 110.499 20.5412 110.304 20.6946 110.074C20.8509 109.841 20.9602 109.574 21.0227 109.273H22.0795C22 109.719 21.8551 110.118 21.6449 110.47C21.4347 110.822 21.1733 111.122 20.8608 111.369C20.5483 111.614 20.1974 111.8 19.8082 111.928C19.4219 112.055 19.0085 112.119 18.5682 112.119C17.8239 112.119 17.1619 111.938 16.5824 111.574C16.0028 111.21 15.5469 110.693 15.2145 110.023C14.8821 109.352 14.7159 108.557 14.7159 107.636C14.7159 106.716 14.8821 105.92 15.2145 105.25C15.5469 104.58 16.0028 104.062 16.5824 103.699C17.1619 103.335 17.8239 103.153 18.5682 103.153C19.0085 103.153 19.4219 103.217 19.8082 103.345C20.1974 103.473 20.5483 103.661 20.8608 103.908C21.1733 104.152 21.4347 104.45 21.6449 104.803C21.8551 105.152 22 105.551 22.0795 106ZM27.7759 109.324V105.455H28.7816V112H27.7759V110.892H27.7077C27.5543 111.224 27.3157 111.507 26.9918 111.74C26.668 111.97 26.2589 112.085 25.7646 112.085C25.3555 112.085 24.9918 111.996 24.6737 111.817C24.3555 111.635 24.1055 111.362 23.9237 110.999C23.7418 110.632 23.6509 110.17 23.6509 109.614V105.455H24.6566V109.545C24.6566 110.023 24.7901 110.403 25.0572 110.688C25.3271 110.972 25.6708 111.114 26.0884 111.114C26.3384 111.114 26.5927 111.05 26.8512 110.922C27.1126 110.794 27.3313 110.598 27.5075 110.334C27.6864 110.07 27.7759 109.733 27.7759 109.324ZM30.7599 112V103.273H31.7656V106.494H31.8509C31.9247 106.381 32.027 106.236 32.1577 106.06C32.2912 105.881 32.4815 105.722 32.7287 105.582C32.9787 105.44 33.3168 105.369 33.7429 105.369C34.294 105.369 34.7798 105.507 35.2003 105.783C35.6207 106.058 35.9489 106.449 36.1847 106.955C36.4205 107.46 36.5384 108.057 36.5384 108.744C36.5384 109.438 36.4205 110.038 36.1847 110.547C35.9489 111.053 35.6222 111.445 35.2045 111.723C34.7869 111.999 34.3054 112.136 33.7599 112.136C33.3395 112.136 33.0028 112.067 32.75 111.928C32.4972 111.786 32.3026 111.625 32.1662 111.446C32.0298 111.264 31.9247 111.114 31.8509 110.994H31.7315V112H30.7599ZM31.7486 108.727C31.7486 109.222 31.821 109.658 31.9659 110.036C32.1108 110.411 32.3224 110.705 32.6009 110.918C32.8793 111.128 33.2202 111.233 33.6236 111.233C34.044 111.233 34.3949 111.122 34.6761 110.901C34.9602 110.676 35.1733 110.375 35.3153 109.997C35.4602 109.616 35.5327 109.193 35.5327 108.727C35.5327 108.267 35.4616 107.852 35.3196 107.483C35.1804 107.111 34.9688 106.817 34.6847 106.601C34.4034 106.382 34.0497 106.273 33.6236 106.273C33.2145 106.273 32.8707 106.376 32.5923 106.584C32.3139 106.788 32.1037 107.075 31.9616 107.445C31.8196 107.811 31.7486 108.239 31.7486 108.727ZM38.0767 112V105.455H39.0824V112H38.0767ZM38.5881 104.364C38.392 104.364 38.223 104.297 38.081 104.163C37.9418 104.03 37.8722 103.869 37.8722 103.682C37.8722 103.494 37.9418 103.334 38.081 103.2C38.223 103.067 38.392 103 38.5881 103C38.7841 103 38.9517 103.067 39.0909 103.2C39.233 103.334 39.304 103.494 39.304 103.682C39.304 103.869 39.233 104.03 39.0909 104.163C38.9517 104.297 38.7841 104.364 38.5881 104.364ZM43.5664 114.591C43.0806 114.591 42.663 114.528 42.3136 114.403C41.9641 114.281 41.6729 114.119 41.44 113.918C41.2099 113.719 41.0266 113.506 40.8903 113.278L41.6914 112.716C41.7823 112.835 41.8974 112.972 42.0366 113.125C42.1758 113.281 42.3661 113.416 42.6076 113.53C42.8519 113.646 43.1715 113.705 43.5664 113.705C44.0948 113.705 44.5309 113.577 44.8746 113.321C45.2184 113.065 45.3903 112.665 45.3903 112.119V110.79H45.305C45.2312 110.909 45.1261 111.057 44.9897 111.233C44.8562 111.406 44.663 111.561 44.4102 111.697C44.1602 111.831 43.8221 111.898 43.396 111.898C42.8675 111.898 42.3931 111.773 41.9727 111.523C41.555 111.273 41.2241 110.909 40.9798 110.432C40.7383 109.955 40.6175 109.375 40.6175 108.693C40.6175 108.023 40.7354 107.439 40.9712 106.942C41.207 106.442 41.5352 106.055 41.9556 105.783C42.3761 105.507 42.8619 105.369 43.413 105.369C43.8391 105.369 44.1772 105.44 44.4272 105.582C44.68 105.722 44.8732 105.881 45.0067 106.06C45.1431 106.236 45.2482 106.381 45.3221 106.494H45.4244V105.455H46.396V112.188C46.396 112.75 46.2681 113.207 46.0124 113.56C45.7596 113.915 45.4187 114.175 44.9897 114.339C44.5636 114.507 44.0891 114.591 43.5664 114.591ZM43.5323 110.994C43.9357 110.994 44.2766 110.902 44.555 110.717C44.8335 110.533 45.0451 110.267 45.19 109.92C45.3349 109.574 45.4073 109.159 45.4073 108.676C45.4073 108.205 45.3363 107.788 45.1942 107.428C45.0522 107.067 44.842 106.784 44.5636 106.58C44.2852 106.375 43.9414 106.273 43.5323 106.273C43.1062 106.273 42.7511 106.381 42.467 106.597C42.1857 106.812 41.9741 107.102 41.832 107.466C41.6928 107.83 41.6232 108.233 41.6232 108.676C41.6232 109.131 41.6942 109.533 41.8363 109.882C41.9812 110.229 42.1942 110.501 42.4755 110.7C42.7596 110.896 43.1119 110.994 43.5323 110.994ZM50.896 112.136C50.305 112.136 49.7866 111.996 49.3406 111.714C48.8974 111.433 48.5508 111.04 48.3008 110.534C48.0536 110.028 47.93 109.437 47.93 108.761C47.93 108.08 48.0536 107.484 48.3008 106.976C48.5508 106.467 48.8974 106.072 49.3406 105.791C49.7866 105.51 50.305 105.369 50.896 105.369C51.4869 105.369 52.0039 105.51 52.4471 105.791C52.8931 106.072 53.2397 106.467 53.4869 106.976C53.7369 107.484 53.8619 108.08 53.8619 108.761C53.8619 109.437 53.7369 110.028 53.4869 110.534C53.2397 111.04 52.8931 111.433 52.4471 111.714C52.0039 111.996 51.4869 112.136 50.896 112.136ZM50.896 111.233C51.3448 111.233 51.7141 111.118 52.0039 110.888C52.2937 110.658 52.5082 110.355 52.6474 109.98C52.7866 109.605 52.8562 109.199 52.8562 108.761C52.8562 108.324 52.7866 107.916 52.6474 107.538C52.5082 107.161 52.2937 106.855 52.0039 106.622C51.7141 106.389 51.3448 106.273 50.896 106.273C50.4471 106.273 50.0778 106.389 49.788 106.622C49.4982 106.855 49.2837 107.161 49.1445 107.538C49.0053 107.916 48.9357 108.324 48.9357 108.761C48.9357 109.199 49.0053 109.605 49.1445 109.98C49.2837 110.355 49.4982 110.658 49.788 110.888C50.0778 111.118 50.4471 111.233 50.896 111.233ZM61.6016 112H58.9084V103.273H61.7209C62.5675 103.273 63.2919 103.447 63.8942 103.797C64.4964 104.143 64.9581 104.642 65.2791 105.293C65.6001 105.94 65.7607 106.716 65.7607 107.619C65.7607 108.528 65.5987 109.311 65.2749 109.967C64.951 110.621 64.4794 111.124 63.8601 111.476C63.2408 111.825 62.4879 112 61.6016 112ZM59.9652 111.062H61.5334C62.255 111.062 62.853 110.923 63.3274 110.645C63.8018 110.366 64.1555 109.97 64.3885 109.456C64.6214 108.942 64.7379 108.33 64.7379 107.619C64.7379 106.915 64.6229 106.308 64.3928 105.8C64.1626 105.288 63.8189 104.896 63.3615 104.624C62.9041 104.348 62.3345 104.21 61.6527 104.21H59.9652V111.062ZM70.1413 112.136C69.5107 112.136 68.9666 111.997 68.5092 111.719C68.0547 111.438 67.7038 111.045 67.4567 110.543C67.2124 110.037 67.0902 109.449 67.0902 108.778C67.0902 108.108 67.2124 107.517 67.4567 107.006C67.7038 106.491 68.0476 106.091 68.4879 105.804C68.9311 105.514 69.4482 105.369 70.0391 105.369C70.38 105.369 70.7166 105.426 71.049 105.54C71.3814 105.653 71.6839 105.838 71.9567 106.094C72.2294 106.347 72.4467 106.682 72.6087 107.099C72.7706 107.517 72.8516 108.031 72.8516 108.642V109.068H67.8061V108.199H71.8288C71.8288 107.83 71.755 107.5 71.6072 107.21C71.4624 106.92 71.255 106.692 70.9851 106.524C70.718 106.357 70.4027 106.273 70.0391 106.273C69.6385 106.273 69.2919 106.372 68.9993 106.571C68.7095 106.767 68.4865 107.023 68.3303 107.338C68.174 107.653 68.0959 107.991 68.0959 108.352V108.932C68.0959 109.426 68.1811 109.845 68.3516 110.189C68.5249 110.53 68.7649 110.79 69.0717 110.969C69.3786 111.145 69.7351 111.233 70.1413 111.233C70.4055 111.233 70.6442 111.196 70.8572 111.122C71.0732 111.045 71.2592 110.932 71.4155 110.781C71.5717 110.628 71.6925 110.437 71.7777 110.21L72.7493 110.483C72.647 110.812 72.4751 111.102 72.2337 111.352C71.9922 111.599 71.6939 111.793 71.3388 111.932C70.9837 112.068 70.5845 112.136 70.1413 112.136ZM79.0178 106.92L78.1143 107.176C78.0575 107.026 77.9737 106.879 77.8629 106.737C77.755 106.592 77.6072 106.473 77.4197 106.379C77.2322 106.286 76.9922 106.239 76.6996 106.239C76.299 106.239 75.9652 106.331 75.6982 106.516C75.4339 106.697 75.3018 106.929 75.3018 107.21C75.3018 107.46 75.3928 107.658 75.5746 107.803C75.7564 107.947 76.0405 108.068 76.4268 108.165L77.3984 108.403C77.9837 108.545 78.4197 108.763 78.7067 109.055C78.9936 109.345 79.1371 109.719 79.1371 110.176C79.1371 110.551 79.0291 110.886 78.8132 111.182C78.6001 111.477 78.3018 111.71 77.9183 111.881C77.5348 112.051 77.0888 112.136 76.5803 112.136C75.9126 112.136 75.3601 111.991 74.9226 111.702C74.4851 111.412 74.2081 110.989 74.0916 110.432L75.0462 110.193C75.1371 110.545 75.3089 110.81 75.5618 110.986C75.8175 111.162 76.1513 111.25 76.5632 111.25C77.032 111.25 77.4041 111.151 77.6797 110.952C77.9581 110.75 78.0973 110.509 78.0973 110.227C78.0973 110 78.0178 109.81 77.8587 109.656C77.6996 109.5 77.4553 109.384 77.1257 109.307L76.0348 109.051C75.4354 108.909 74.995 108.689 74.7138 108.391C74.4354 108.089 74.2962 107.713 74.2962 107.261C74.2962 106.892 74.3999 106.565 74.6072 106.281C74.8175 105.997 75.103 105.774 75.4638 105.612C75.8274 105.45 76.2393 105.369 76.6996 105.369C77.3473 105.369 77.8558 105.511 78.2251 105.795C78.5973 106.08 78.8615 106.455 79.0178 106.92ZM80.6509 112V105.455H81.6566V112H80.6509ZM81.1623 104.364C80.9663 104.364 80.7972 104.297 80.6552 104.163C80.516 104.03 80.4464 103.869 80.4464 103.682C80.4464 103.494 80.516 103.334 80.6552 103.2C80.7972 103.067 80.9663 103 81.1623 103C81.3583 103 81.5259 103.067 81.6651 103.2C81.8072 103.334 81.8782 103.494 81.8782 103.682C81.8782 103.869 81.8072 104.03 81.6651 104.163C81.5259 104.297 81.3583 104.364 81.1623 104.364ZM86.1406 114.591C85.6548 114.591 85.2372 114.528 84.8878 114.403C84.5384 114.281 84.2472 114.119 84.0142 113.918C83.7841 113.719 83.6009 113.506 83.4645 113.278L84.2656 112.716C84.3565 112.835 84.4716 112.972 84.6108 113.125C84.75 113.281 84.9403 113.416 85.1818 113.53C85.4261 113.646 85.7457 113.705 86.1406 113.705C86.669 113.705 87.1051 113.577 87.4489 113.321C87.7926 113.065 87.9645 112.665 87.9645 112.119V110.79H87.8793C87.8054 110.909 87.7003 111.057 87.5639 111.233C87.4304 111.406 87.2372 111.561 86.9844 111.697C86.7344 111.831 86.3963 111.898 85.9702 111.898C85.4418 111.898 84.9673 111.773 84.5469 111.523C84.1293 111.273 83.7983 110.909 83.554 110.432C83.3125 109.955 83.1918 109.375 83.1918 108.693C83.1918 108.023 83.3097 107.439 83.5455 106.942C83.7813 106.442 84.1094 106.055 84.5298 105.783C84.9503 105.507 85.4361 105.369 85.9872 105.369C86.4134 105.369 86.7514 105.44 87.0014 105.582C87.2543 105.722 87.4474 105.881 87.581 106.06C87.7173 106.236 87.8224 106.381 87.8963 106.494H87.9986V105.455H88.9702V112.188C88.9702 112.75 88.8423 113.207 88.5866 113.56C88.3338 113.915 87.9929 114.175 87.5639 114.339C87.1378 114.507 86.6634 114.591 86.1406 114.591ZM86.1065 110.994C86.5099 110.994 86.8509 110.902 87.1293 110.717C87.4077 110.533 87.6193 110.267 87.7642 109.92C87.9091 109.574 87.9815 109.159 87.9815 108.676C87.9815 108.205 87.9105 107.788 87.7685 107.428C87.6264 107.067 87.4162 106.784 87.1378 106.58C86.8594 106.375 86.5156 106.273 86.1065 106.273C85.6804 106.273 85.3253 106.381 85.0412 106.597C84.7599 106.812 84.5483 107.102 84.4062 107.466C84.267 107.83 84.1974 108.233 84.1974 108.676C84.1974 109.131 84.2685 109.533 84.4105 109.882C84.5554 110.229 84.7685 110.501 85.0497 110.7C85.3338 110.896 85.6861 110.994 86.1065 110.994ZM91.8168 108.062V112H90.8111V105.455H91.7827V106.477H91.8679C92.0213 106.145 92.2543 105.878 92.5668 105.676C92.8793 105.472 93.2827 105.369 93.777 105.369C94.2202 105.369 94.608 105.46 94.9403 105.642C95.2727 105.821 95.5313 106.094 95.7159 106.46C95.9006 106.824 95.9929 107.284 95.9929 107.841V112H94.9872V107.909C94.9872 107.395 94.8537 106.994 94.5866 106.707C94.3196 106.418 93.9531 106.273 93.4872 106.273C93.1662 106.273 92.8793 106.342 92.6264 106.482C92.3764 106.621 92.179 106.824 92.0341 107.091C91.8892 107.358 91.8168 107.682 91.8168 108.062ZM101.7 112H100.592L103.797 103.273H104.887L108.092 112H106.984L104.376 104.653H104.308L101.7 112ZM102.109 108.591H106.575V109.528H102.109V108.591ZM113.951 106.92L113.048 107.176C112.991 107.026 112.907 106.879 112.797 106.737C112.689 106.592 112.541 106.473 112.353 106.379C112.166 106.286 111.926 106.239 111.633 106.239C111.233 106.239 110.899 106.331 110.632 106.516C110.368 106.697 110.235 106.929 110.235 107.21C110.235 107.46 110.326 107.658 110.508 107.803C110.69 107.947 110.974 108.068 111.36 108.165L112.332 108.403C112.917 108.545 113.353 108.763 113.64 109.055C113.927 109.345 114.071 109.719 114.071 110.176C114.071 110.551 113.963 110.886 113.747 111.182C113.534 111.477 113.235 111.71 112.852 111.881C112.468 112.051 112.022 112.136 111.514 112.136C110.846 112.136 110.294 111.991 109.856 111.702C109.419 111.412 109.142 110.989 109.025 110.432L109.98 110.193C110.071 110.545 110.243 110.81 110.495 110.986C110.751 111.162 111.085 111.25 111.497 111.25C111.966 111.25 112.338 111.151 112.613 110.952C112.892 110.75 113.031 110.509 113.031 110.227C113.031 110 112.951 109.81 112.792 109.656C112.633 109.5 112.389 109.384 112.059 109.307L110.968 109.051C110.369 108.909 109.929 108.689 109.647 108.391C109.369 108.089 109.23 107.713 109.23 107.261C109.23 106.892 109.333 106.565 109.541 106.281C109.751 105.997 110.037 105.774 110.397 105.612C110.761 105.45 111.173 105.369 111.633 105.369C112.281 105.369 112.789 105.511 113.159 105.795C113.531 106.08 113.795 106.455 113.951 106.92ZM120.221 106.92L119.317 107.176C119.261 107.026 119.177 106.879 119.066 106.737C118.958 106.592 118.81 106.473 118.623 106.379C118.435 106.286 118.195 106.239 117.903 106.239C117.502 106.239 117.168 106.331 116.901 106.516C116.637 106.697 116.505 106.929 116.505 107.21C116.505 107.46 116.596 107.658 116.778 107.803C116.96 107.947 117.244 108.068 117.63 108.165L118.602 108.403C119.187 108.545 119.623 108.763 119.91 109.055C120.197 109.345 120.34 109.719 120.34 110.176C120.34 110.551 120.232 110.886 120.016 111.182C119.803 111.477 119.505 111.71 119.121 111.881C118.738 112.051 118.292 112.136 117.783 112.136C117.116 112.136 116.563 111.991 116.126 111.702C115.688 111.412 115.411 110.989 115.295 110.432L116.249 110.193C116.34 110.545 116.512 110.81 116.765 110.986C117.021 111.162 117.354 111.25 117.766 111.25C118.235 111.25 118.607 111.151 118.883 110.952C119.161 110.75 119.3 110.509 119.3 110.227C119.3 110 119.221 109.81 119.062 109.656C118.903 109.5 118.658 109.384 118.329 109.307L117.238 109.051C116.638 108.909 116.198 108.689 115.917 108.391C115.638 108.089 115.499 107.713 115.499 107.261C115.499 106.892 115.603 106.565 115.81 106.281C116.021 105.997 116.306 105.774 116.667 105.612C117.031 105.45 117.442 105.369 117.903 105.369C118.55 105.369 119.059 105.511 119.428 105.795C119.8 106.08 120.065 106.455 120.221 106.92ZM124.598 112.136C123.968 112.136 123.424 111.997 122.966 111.719C122.512 111.438 122.161 111.045 121.914 110.543C121.669 110.037 121.547 109.449 121.547 108.778C121.547 108.108 121.669 107.517 121.914 107.006C122.161 106.491 122.505 106.091 122.945 105.804C123.388 105.514 123.905 105.369 124.496 105.369C124.837 105.369 125.174 105.426 125.506 105.54C125.838 105.653 126.141 105.838 126.414 106.094C126.686 106.347 126.904 106.682 127.066 107.099C127.228 107.517 127.309 108.031 127.309 108.642V109.068H122.263V108.199H126.286C126.286 107.83 126.212 107.5 126.064 107.21C125.919 106.92 125.712 106.692 125.442 106.524C125.175 106.357 124.86 106.273 124.496 106.273C124.096 106.273 123.749 106.372 123.456 106.571C123.167 106.767 122.944 107.023 122.787 107.338C122.631 107.653 122.553 107.991 122.553 108.352V108.932C122.553 109.426 122.638 109.845 122.809 110.189C122.982 110.53 123.222 110.79 123.529 110.969C123.836 111.145 124.192 111.233 124.598 111.233C124.863 111.233 125.101 111.196 125.314 111.122C125.53 111.045 125.716 110.932 125.873 110.781C126.029 110.628 126.15 110.437 126.235 110.21L127.206 110.483C127.104 110.812 126.932 111.102 126.691 111.352C126.449 111.599 126.151 111.793 125.796 111.932C125.441 112.068 125.042 112.136 124.598 112.136ZM131.685 105.455V106.307H128.293V105.455H131.685ZM129.282 103.886H130.287V110.125C130.287 110.409 130.328 110.622 130.411 110.764C130.496 110.903 130.604 110.997 130.735 111.045C130.868 111.091 131.009 111.114 131.157 111.114C131.267 111.114 131.358 111.108 131.429 111.097C131.5 111.082 131.557 111.071 131.6 111.062L131.804 111.966C131.736 111.991 131.641 112.017 131.519 112.043C131.397 112.071 131.242 112.085 131.054 112.085C130.77 112.085 130.492 112.024 130.219 111.902C129.949 111.78 129.725 111.594 129.546 111.344C129.37 111.094 129.282 110.778 129.282 110.398V103.886ZM137.717 106.92L136.814 107.176C136.757 107.026 136.673 106.879 136.562 106.737C136.454 106.592 136.306 106.473 136.119 106.379C135.931 106.286 135.691 106.239 135.399 106.239C134.998 106.239 134.664 106.331 134.397 106.516C134.133 106.697 134.001 106.929 134.001 107.21C134.001 107.46 134.092 107.658 134.274 107.803C134.456 107.947 134.74 108.068 135.126 108.165L136.098 108.403C136.683 108.545 137.119 108.763 137.406 109.055C137.693 109.345 137.836 109.719 137.836 110.176C137.836 110.551 137.728 110.886 137.512 111.182C137.299 111.477 137.001 111.71 136.618 111.881C136.234 112.051 135.788 112.136 135.279 112.136C134.612 112.136 134.059 111.991 133.622 111.702C133.184 111.412 132.907 110.989 132.791 110.432L133.745 110.193C133.836 110.545 134.008 110.81 134.261 110.986C134.517 111.162 134.85 111.25 135.262 111.25C135.731 111.25 136.103 111.151 136.379 110.952C136.657 110.75 136.797 110.509 136.797 110.227C136.797 110 136.717 109.81 136.558 109.656C136.399 109.5 136.154 109.384 135.825 109.307L134.734 109.051C134.135 108.909 133.694 108.689 133.413 108.391C133.135 108.089 132.995 107.713 132.995 107.261C132.995 106.892 133.099 106.565 133.306 106.281C133.517 105.997 133.802 105.774 134.163 105.612C134.527 105.45 134.939 105.369 135.399 105.369C136.047 105.369 136.555 105.511 136.924 105.795C137.297 106.08 137.561 106.455 137.717 106.92Z" fill="#8D8D8D"/>
<path d="M214.531 21.3381L214 21.8684L215.061 22.9291L215.591 22.3988L214.531 21.3381ZM224.929 12.75C224.929 12.3358 224.594 12 224.179 12H217.429C217.015 12 216.679 12.3358 216.679 12.75C216.679 13.1642 217.015 13.5 217.429 13.5H223.429V19.5C223.429 19.9142 223.765 20.25 224.179 20.25C224.594 20.25 224.929 19.9142 224.929 19.5V12.75ZM215.591 22.3988L224.71 13.2803L223.649 12.2197L214.531 21.3381L215.591 22.3988Z" fill="#007AFF"/>
<path d="M62 14H20V56H62V14Z" stroke="#80BCFF" stroke-width="2"/>
<path d="M24 11H17V18H24V11Z" fill="#007AFF"/>
<path d="M21 33H18V37H21V33Z" fill="#007AFF"/>
<path d="M42 12H38V16H42V12Z" fill="#007AFF"/>
<path d="M42 55H38V58H42V55Z" fill="#007AFF"/>
<path d="M64 33H61V37H64V33Z" fill="#007AFF"/>
<path d="M65 52H58V60H65V52Z" fill="#007AFF"/>
<path d="M24 52H17V60H24V52Z" fill="#007AFF"/>
<path d="M65 11H58V18H65V11Z" fill="#007AFF"/>
<mask id="mask0_1216_385" style="mask-type:luminance" maskUnits="userSpaceOnUse" x="32" y="25" width="16" height="24">
<path d="M47.5774 25.3888H32.3665V48.4107H47.5774V25.3888Z" fill="white"/>
</mask>
<g mask="url(#mask0_1216_385)">
<path d="M36.1692 48.4107C38.2683 48.4107 39.9719 46.6917 39.9719 44.5737V40.7367H36.1692C34.07 40.7367 32.3665 42.4557 32.3665 44.5737C32.3665 46.6917 34.07 48.4107 36.1692 48.4107Z" fill="#007AFF" fill-opacity="0.3"/>
<path d="M32.3665 36.8997C32.3665 34.7817 34.07 33.0627 36.1692 33.0627H39.9719V40.7367H36.1692C34.07 40.7367 32.3665 39.0177 32.3665 36.8997Z" fill="#80BCFF"/>
<path d="M32.3665 29.2258C32.3665 27.1077 34.07 25.3888 36.1692 25.3888H39.9719V33.0627H36.1692C34.07 33.0627 32.3665 31.3438 32.3665 29.2258Z" fill="#6A66A3"/>
<path d="M39.972 25.3888H43.7748C45.8739 25.3888 47.5776 27.1077 47.5776 29.2258C47.5776 31.3438 45.8739 33.0627 43.7748 33.0627H39.972V25.3888Z" fill="#6A66A3" fill-opacity="0.5"/>
<path d="M47.5776 36.8997C47.5776 39.0177 45.8739 40.7367 43.7748 40.7367C41.6757 40.7367 39.972 39.0177 39.972 36.8997C39.972 34.7817 41.6757 33.0627 43.7748 33.0627C45.8739 33.0627 47.5776 34.7817 47.5776 36.8997Z" fill="#007AFF"/>
</g>
</svg>
