<svg width="235" height="124" viewBox="0 0 235 124" fill="none" xmlns="http://www.w3.org/2000/svg">
<rect x="0.75" y="0.75" width="233.5" height="122.5" rx="3.25" fill="white"/>
<rect x="0.75" y="0.75" width="233.5" height="122.5" rx="3.25" stroke="#1991EB" stroke-width="1.5"/>
<path d="M14.7585 90V81.2727H20.5369V82.794H16.6037V84.8736H20.1534V86.3949H16.6037V90H14.7585ZM21.744 90V83.4545H23.5593V90H21.744ZM22.6559 82.6108C22.386 82.6108 22.1545 82.5213 21.9613 82.3423C21.771 82.1605 21.6758 81.9432 21.6758 81.6903C21.6758 81.4403 21.771 81.2259 21.9613 81.0469C22.1545 80.8651 22.386 80.7741 22.6559 80.7741C22.9258 80.7741 23.1559 80.8651 23.3462 81.0469C23.5394 81.2259 23.636 81.4403 23.636 81.6903C23.636 81.9432 23.5394 82.1605 23.3462 82.3423C23.1559 82.5213 22.9258 82.6108 22.6559 82.6108ZM27.9624 92.5909C27.3743 92.5909 26.87 92.5099 26.4496 92.348C26.032 92.1889 25.6996 91.9716 25.4524 91.696C25.2053 91.4205 25.0447 91.1108 24.9709 90.767L26.6499 90.5412C26.701 90.6719 26.782 90.794 26.8928 90.9077C27.0036 91.0213 27.1499 91.1122 27.3317 91.1804C27.5163 91.2514 27.7408 91.2869 28.005 91.2869C28.3999 91.2869 28.7251 91.1903 28.9808 90.9972C29.2393 90.8068 29.3686 90.4872 29.3686 90.0384V88.8409H29.2919C29.2124 89.0227 29.093 89.1946 28.9339 89.3565C28.7749 89.5185 28.5703 89.6506 28.3203 89.7528C28.0703 89.8551 27.772 89.9062 27.4254 89.9062C26.9339 89.9062 26.4865 89.7926 26.0831 89.5653C25.6825 89.3352 25.3629 88.9844 25.1243 88.5128C24.8885 88.0384 24.7706 87.4389 24.7706 86.7145C24.7706 85.973 24.8913 85.3537 25.1328 84.8565C25.3743 84.3594 25.6953 83.9872 26.0959 83.7401C26.4993 83.4929 26.9411 83.3693 27.4212 83.3693C27.7876 83.3693 28.0945 83.4318 28.3416 83.5568C28.5888 83.679 28.7876 83.8324 28.9382 84.017C29.0916 84.1989 29.2095 84.3778 29.2919 84.554H29.3601V83.4545H31.1626V90.0639C31.1626 90.6207 31.0263 91.0866 30.7536 91.4616C30.4808 91.8366 30.103 92.1179 29.62 92.3054C29.1399 92.4957 28.5874 92.5909 27.9624 92.5909ZM28.0007 88.5426C28.2933 88.5426 28.5405 88.4702 28.7422 88.3253C28.9467 88.1776 29.103 87.9673 29.2109 87.6946C29.3217 87.419 29.3771 87.0895 29.3771 86.706C29.3771 86.3224 29.3232 85.9901 29.2152 85.7088C29.1072 85.4247 28.951 85.2045 28.7464 85.0483C28.5419 84.892 28.2933 84.8139 28.0007 84.8139C27.7024 84.8139 27.451 84.8949 27.2464 85.0568C27.0419 85.2159 26.8871 85.4375 26.782 85.7216C26.6768 86.0057 26.6243 86.3338 26.6243 86.706C26.6243 87.0838 26.6768 87.4105 26.782 87.6861C26.8899 87.9588 27.0447 88.1705 27.2464 88.321C27.451 88.4687 27.7024 88.5426 28.0007 88.5426ZM32.6072 90V83.4545H34.3374V84.6094H34.4141C34.5504 84.2259 34.7777 83.9233 35.0959 83.7017C35.4141 83.4801 35.7947 83.3693 36.2379 83.3693C36.6868 83.3693 37.0689 83.4815 37.3842 83.706C37.6996 83.9276 37.9098 84.2287 38.0149 84.6094H38.0831C38.2166 84.2344 38.4581 83.9347 38.8075 83.7102C39.1598 83.483 39.576 83.3693 40.0561 83.3693C40.6669 83.3693 41.1626 83.5639 41.5433 83.9531C41.9268 84.3395 42.1186 84.8878 42.1186 85.598V90H40.3075V85.956C40.3075 85.5923 40.2109 85.3196 40.0178 85.1378C39.8246 84.956 39.5831 84.8651 39.2933 84.8651C38.9638 84.8651 38.7067 84.9702 38.522 85.1804C38.3374 85.3878 38.245 85.6619 38.245 86.0028V90H36.4851V85.9176C36.4851 85.5966 36.3928 85.3409 36.2081 85.1506C36.0263 84.9602 35.7862 84.8651 35.4879 84.8651C35.2862 84.8651 35.1044 84.9162 34.9425 85.0185C34.7834 85.1179 34.657 85.2585 34.5632 85.4403C34.4695 85.6193 34.4226 85.8295 34.4226 86.071V90H32.6072ZM45.419 90.1236C45.0014 90.1236 44.6293 90.0511 44.3026 89.9062C43.9759 89.7585 43.7173 89.5412 43.527 89.2543C43.3395 88.9645 43.2457 88.6037 43.2457 88.1719C43.2457 87.8082 43.3125 87.5028 43.446 87.2557C43.5795 87.0085 43.7614 86.8097 43.9915 86.6591C44.2216 86.5085 44.483 86.3949 44.7756 86.3182C45.071 86.2415 45.3807 86.1875 45.7045 86.1562C46.0852 86.1165 46.392 86.0795 46.625 86.0455C46.858 86.0085 47.027 85.9545 47.1321 85.8835C47.2372 85.8125 47.2898 85.7074 47.2898 85.5682V85.5426C47.2898 85.2727 47.2045 85.0639 47.0341 84.9162C46.8665 84.7685 46.6278 84.6946 46.3182 84.6946C45.9915 84.6946 45.7315 84.767 45.5384 84.9119C45.3452 85.054 45.2173 85.233 45.1548 85.4489L43.4759 85.3125C43.5611 84.9148 43.7287 84.571 43.9787 84.2812C44.2287 83.9886 44.5511 83.7642 44.946 83.608C45.3438 83.4489 45.804 83.3693 46.3267 83.3693C46.6903 83.3693 47.0384 83.4119 47.3707 83.4972C47.706 83.5824 48.0028 83.7145 48.2614 83.8935C48.5227 84.0724 48.7287 84.3026 48.8793 84.5838C49.0298 84.8622 49.1051 85.196 49.1051 85.5852V90H47.3835V89.0923H47.3324C47.2273 89.2969 47.0866 89.4773 46.9105 89.6335C46.7344 89.7869 46.5227 89.9077 46.2756 89.9957C46.0284 90.081 45.7429 90.1236 45.419 90.1236ZM45.9389 88.8707C46.206 88.8707 46.4418 88.8182 46.6463 88.7131C46.8509 88.6051 47.0114 88.4602 47.1278 88.2784C47.2443 88.0966 47.3026 87.8906 47.3026 87.6605V86.9659C47.2457 87.0028 47.1676 87.0369 47.0682 87.0682C46.9716 87.0966 46.8622 87.1236 46.7401 87.1491C46.6179 87.1719 46.4957 87.1932 46.3736 87.2131C46.2514 87.2301 46.1406 87.2457 46.0412 87.2599C45.8281 87.2912 45.642 87.3409 45.483 87.4091C45.3239 87.4773 45.2003 87.5696 45.1122 87.6861C45.0241 87.7997 44.9801 87.9418 44.9801 88.1122C44.9801 88.3594 45.0696 88.5483 45.2486 88.679C45.4304 88.8068 45.6605 88.8707 45.9389 88.8707ZM58.7156 81.2727H60.5607V86.9403C60.5607 87.5767 60.4087 88.1335 60.1048 88.6108C59.8036 89.0881 59.3817 89.4602 58.8391 89.7273C58.2965 89.9915 57.6644 90.1236 56.9428 90.1236C56.2184 90.1236 55.5849 89.9915 55.0423 89.7273C54.4996 89.4602 54.0778 89.0881 53.7766 88.6108C53.4755 88.1335 53.3249 87.5767 53.3249 86.9403V81.2727H55.1701V86.7827C55.1701 87.1151 55.2425 87.4105 55.3874 87.669C55.5352 87.9276 55.7425 88.1307 56.0096 88.2784C56.2766 88.4261 56.5877 88.5 56.9428 88.5C57.3008 88.5 57.6119 88.4261 57.8761 88.2784C58.1431 88.1307 58.3491 87.9276 58.494 87.669C58.6417 87.4105 58.7156 87.1151 58.7156 86.7827V81.2727ZM63.924 81.2727V90H62.0788V81.2727H63.924ZM69.4862 85.696V87.1364H65.506V85.696H69.4862ZM72.6779 88.1165L72.6822 85.9389H72.9464L75.043 83.4545H77.1268L74.31 86.7443H73.8796L72.6779 88.1165ZM71.033 90V81.2727H72.8484V90H71.033ZM75.1239 90L73.1978 87.1491L74.408 85.8665L77.2504 90H75.1239ZM78.0174 90V83.4545H79.8327V90H78.0174ZM78.9293 82.6108C78.6594 82.6108 78.4279 82.5213 78.2347 82.3423C78.0444 82.1605 77.9492 81.9432 77.9492 81.6903C77.9492 81.4403 78.0444 81.2259 78.2347 81.0469C78.4279 80.8651 78.6594 80.7741 78.9293 80.7741C79.1992 80.7741 79.4293 80.8651 79.6197 81.0469C79.8129 81.2259 79.9094 81.4403 79.9094 81.6903C79.9094 81.9432 79.8129 82.1605 79.6197 82.3423C79.4293 82.5213 79.1992 82.6108 78.9293 82.6108ZM84.7685 83.4545V84.8182H80.8267V83.4545H84.7685ZM81.7216 81.8864H83.5369V87.9886C83.5369 88.1562 83.5625 88.2869 83.6136 88.3807C83.6648 88.4716 83.7358 88.5355 83.8267 88.5724C83.9205 88.6094 84.0284 88.6278 84.1506 88.6278C84.2358 88.6278 84.321 88.6207 84.4062 88.6065C84.4915 88.5895 84.5568 88.5767 84.6023 88.5682L84.8878 89.919C84.7969 89.9474 84.669 89.9801 84.5043 90.017C84.3395 90.0568 84.1392 90.081 83.9034 90.0895C83.4659 90.1065 83.0824 90.0483 82.7528 89.9148C82.4261 89.7812 82.1719 89.5739 81.9901 89.2926C81.8082 89.0114 81.7188 88.6562 81.7216 88.2273V81.8864Z" fill="black"/>
<path d="M14 92.3864H85.2244V93.2045H14V92.3864Z" fill="black"/>
<path d="M22.0795 106H21.0227C20.9602 105.696 20.8509 105.429 20.6946 105.199C20.5412 104.969 20.3537 104.776 20.1321 104.619C19.9134 104.46 19.6705 104.341 19.4034 104.261C19.1364 104.182 18.858 104.142 18.5682 104.142C18.0398 104.142 17.5611 104.276 17.1321 104.543C16.706 104.81 16.3665 105.203 16.1136 105.723C15.8636 106.243 15.7386 106.881 15.7386 107.636C15.7386 108.392 15.8636 109.03 16.1136 109.55C16.3665 110.07 16.706 110.463 17.1321 110.73C17.5611 110.997 18.0398 111.131 18.5682 111.131C18.858 111.131 19.1364 111.091 19.4034 111.011C19.6705 110.932 19.9134 110.814 20.1321 110.658C20.3537 110.499 20.5412 110.304 20.6946 110.074C20.8509 109.841 20.9602 109.574 21.0227 109.273H22.0795C22 109.719 21.8551 110.118 21.6449 110.47C21.4347 110.822 21.1733 111.122 20.8608 111.369C20.5483 111.614 20.1974 111.8 19.8082 111.928C19.4219 112.055 19.0085 112.119 18.5682 112.119C17.8239 112.119 17.1619 111.938 16.5824 111.574C16.0028 111.21 15.5469 110.693 15.2145 110.023C14.8821 109.352 14.7159 108.557 14.7159 107.636C14.7159 106.716 14.8821 105.92 15.2145 105.25C15.5469 104.58 16.0028 104.062 16.5824 103.699C17.1619 103.335 17.8239 103.153 18.5682 103.153C19.0085 103.153 19.4219 103.217 19.8082 103.345C20.1974 103.473 20.5483 103.661 20.8608 103.908C21.1733 104.152 21.4347 104.45 21.6449 104.803C21.8551 105.152 22 105.551 22.0795 106ZM27.7759 109.324V105.455H28.7816V112H27.7759V110.892H27.7077C27.5543 111.224 27.3157 111.507 26.9918 111.74C26.668 111.97 26.2589 112.085 25.7646 112.085C25.3555 112.085 24.9918 111.996 24.6737 111.817C24.3555 111.635 24.1055 111.362 23.9237 110.999C23.7418 110.632 23.6509 110.17 23.6509 109.614V105.455H24.6566V109.545C24.6566 110.023 24.7901 110.403 25.0572 110.688C25.3271 110.972 25.6708 111.114 26.0884 111.114C26.3384 111.114 26.5927 111.05 26.8512 110.922C27.1126 110.794 27.3313 110.598 27.5075 110.334C27.6864 110.07 27.7759 109.733 27.7759 109.324ZM30.7599 112V103.273H31.7656V106.494H31.8509C31.9247 106.381 32.027 106.236 32.1577 106.06C32.2912 105.881 32.4815 105.722 32.7287 105.582C32.9787 105.44 33.3168 105.369 33.7429 105.369C34.294 105.369 34.7798 105.507 35.2003 105.783C35.6207 106.058 35.9489 106.449 36.1847 106.955C36.4205 107.46 36.5384 108.057 36.5384 108.744C36.5384 109.438 36.4205 110.038 36.1847 110.547C35.9489 111.053 35.6222 111.445 35.2045 111.723C34.7869 111.999 34.3054 112.136 33.7599 112.136C33.3395 112.136 33.0028 112.067 32.75 111.928C32.4972 111.786 32.3026 111.625 32.1662 111.446C32.0298 111.264 31.9247 111.114 31.8509 110.994H31.7315V112H30.7599ZM31.7486 108.727C31.7486 109.222 31.821 109.658 31.9659 110.036C32.1108 110.411 32.3224 110.705 32.6009 110.918C32.8793 111.128 33.2202 111.233 33.6236 111.233C34.044 111.233 34.3949 111.122 34.6761 110.901C34.9602 110.676 35.1733 110.375 35.3153 109.997C35.4602 109.616 35.5327 109.193 35.5327 108.727C35.5327 108.267 35.4616 107.852 35.3196 107.483C35.1804 107.111 34.9688 106.817 34.6847 106.601C34.4034 106.382 34.0497 106.273 33.6236 106.273C33.2145 106.273 32.8707 106.376 32.5923 106.584C32.3139 106.788 32.1037 107.075 31.9616 107.445C31.8196 107.811 31.7486 108.239 31.7486 108.727ZM38.0767 112V105.455H39.0824V112H38.0767ZM38.5881 104.364C38.392 104.364 38.223 104.297 38.081 104.163C37.9418 104.03 37.8722 103.869 37.8722 103.682C37.8722 103.494 37.9418 103.334 38.081 103.2C38.223 103.067 38.392 103 38.5881 103C38.7841 103 38.9517 103.067 39.0909 103.2C39.233 103.334 39.304 103.494 39.304 103.682C39.304 103.869 39.233 104.03 39.0909 104.163C38.9517 104.297 38.7841 104.364 38.5881 104.364ZM43.5664 114.591C43.0806 114.591 42.663 114.528 42.3136 114.403C41.9641 114.281 41.6729 114.119 41.44 113.918C41.2099 113.719 41.0266 113.506 40.8903 113.278L41.6914 112.716C41.7823 112.835 41.8974 112.972 42.0366 113.125C42.1758 113.281 42.3661 113.416 42.6076 113.53C42.8519 113.646 43.1715 113.705 43.5664 113.705C44.0948 113.705 44.5309 113.577 44.8746 113.321C45.2184 113.065 45.3903 112.665 45.3903 112.119V110.79H45.305C45.2312 110.909 45.1261 111.057 44.9897 111.233C44.8562 111.406 44.663 111.561 44.4102 111.697C44.1602 111.831 43.8221 111.898 43.396 111.898C42.8675 111.898 42.3931 111.773 41.9727 111.523C41.555 111.273 41.2241 110.909 40.9798 110.432C40.7383 109.955 40.6175 109.375 40.6175 108.693C40.6175 108.023 40.7354 107.439 40.9712 106.942C41.207 106.442 41.5352 106.055 41.9556 105.783C42.3761 105.507 42.8619 105.369 43.413 105.369C43.8391 105.369 44.1772 105.44 44.4272 105.582C44.68 105.722 44.8732 105.881 45.0067 106.06C45.1431 106.236 45.2482 106.381 45.3221 106.494H45.4244V105.455H46.396V112.188C46.396 112.75 46.2681 113.207 46.0124 113.56C45.7596 113.915 45.4187 114.175 44.9897 114.339C44.5636 114.507 44.0891 114.591 43.5664 114.591ZM43.5323 110.994C43.9357 110.994 44.2766 110.902 44.555 110.717C44.8335 110.533 45.0451 110.267 45.19 109.92C45.3349 109.574 45.4073 109.159 45.4073 108.676C45.4073 108.205 45.3363 107.788 45.1942 107.428C45.0522 107.067 44.842 106.784 44.5636 106.58C44.2852 106.375 43.9414 106.273 43.5323 106.273C43.1062 106.273 42.7511 106.381 42.467 106.597C42.1857 106.812 41.9741 107.102 41.832 107.466C41.6928 107.83 41.6232 108.233 41.6232 108.676C41.6232 109.131 41.6942 109.533 41.8363 109.882C41.9812 110.229 42.1942 110.501 42.4755 110.7C42.7596 110.896 43.1119 110.994 43.5323 110.994ZM50.896 112.136C50.305 112.136 49.7866 111.996 49.3406 111.714C48.8974 111.433 48.5508 111.04 48.3008 110.534C48.0536 110.028 47.93 109.437 47.93 108.761C47.93 108.08 48.0536 107.484 48.3008 106.976C48.5508 106.467 48.8974 106.072 49.3406 105.791C49.7866 105.51 50.305 105.369 50.896 105.369C51.4869 105.369 52.0039 105.51 52.4471 105.791C52.8931 106.072 53.2397 106.467 53.4869 106.976C53.7369 107.484 53.8619 108.08 53.8619 108.761C53.8619 109.437 53.7369 110.028 53.4869 110.534C53.2397 111.04 52.8931 111.433 52.4471 111.714C52.0039 111.996 51.4869 112.136 50.896 112.136ZM50.896 111.233C51.3448 111.233 51.7141 111.118 52.0039 110.888C52.2937 110.658 52.5082 110.355 52.6474 109.98C52.7866 109.605 52.8562 109.199 52.8562 108.761C52.8562 108.324 52.7866 107.916 52.6474 107.538C52.5082 107.161 52.2937 106.855 52.0039 106.622C51.7141 106.389 51.3448 106.273 50.896 106.273C50.4471 106.273 50.0778 106.389 49.788 106.622C49.4982 106.855 49.2837 107.161 49.1445 107.538C49.0053 107.916 48.9357 108.324 48.9357 108.761C48.9357 109.199 49.0053 109.605 49.1445 109.98C49.2837 110.355 49.4982 110.658 49.788 110.888C50.0778 111.118 50.4471 111.233 50.896 111.233ZM58.9084 112V103.273H64.1413V104.21H59.9652V107.159H63.7493V108.097H59.9652V112H58.9084ZM67.9936 112.136C67.4027 112.136 66.8842 111.996 66.4382 111.714C65.995 111.433 65.6484 111.04 65.3984 110.534C65.1513 110.028 65.0277 109.437 65.0277 108.761C65.0277 108.08 65.1513 107.484 65.3984 106.976C65.6484 106.467 65.995 106.072 66.4382 105.791C66.8842 105.51 67.4027 105.369 67.9936 105.369C68.5845 105.369 69.1016 105.51 69.5447 105.791C69.9908 106.072 70.3374 106.467 70.5845 106.976C70.8345 107.484 70.9595 108.08 70.9595 108.761C70.9595 109.437 70.8345 110.028 70.5845 110.534C70.3374 111.04 69.9908 111.433 69.5447 111.714C69.1016 111.996 68.5845 112.136 67.9936 112.136ZM67.9936 111.233C68.4425 111.233 68.8118 111.118 69.1016 110.888C69.3913 110.658 69.6058 110.355 69.745 109.98C69.8842 109.605 69.9538 109.199 69.9538 108.761C69.9538 108.324 69.8842 107.916 69.745 107.538C69.6058 107.161 69.3913 106.855 69.1016 106.622C68.8118 106.389 68.4425 106.273 67.9936 106.273C67.5447 106.273 67.1754 106.389 66.8857 106.622C66.5959 106.855 66.3814 107.161 66.2422 107.538C66.103 107.916 66.0334 108.324 66.0334 108.761C66.0334 109.199 66.103 109.605 66.2422 109.98C66.3814 110.355 66.5959 110.658 66.8857 110.888C67.1754 111.118 67.5447 111.233 67.9936 111.233ZM73.5004 108.062V112H72.4947V105.455H73.4663V106.477H73.5515C73.7049 106.145 73.9379 105.878 74.2504 105.676C74.5629 105.472 74.9663 105.369 75.4606 105.369C75.9038 105.369 76.2915 105.46 76.6239 105.642C76.9563 105.821 77.2148 106.094 77.3995 106.46C77.5842 106.824 77.6765 107.284 77.6765 107.841V112H76.6708V107.909C76.6708 107.395 76.5373 106.994 76.2702 106.707C76.0032 106.418 75.6367 106.273 75.1708 106.273C74.8498 106.273 74.5629 106.342 74.31 106.482C74.06 106.621 73.8626 106.824 73.7177 107.091C73.5728 107.358 73.5004 107.682 73.5004 108.062ZM82.3608 105.455V106.307H78.9688V105.455H82.3608ZM79.9574 103.886H80.9631V110.125C80.9631 110.409 81.0043 110.622 81.0866 110.764C81.1719 110.903 81.2798 110.997 81.4105 111.045C81.544 111.091 81.6847 111.114 81.8324 111.114C81.9432 111.114 82.0341 111.108 82.1051 111.097C82.1761 111.082 82.233 111.071 82.2756 111.062L82.4801 111.966C82.4119 111.991 82.3168 112.017 82.1946 112.043C82.0724 112.071 81.9176 112.085 81.7301 112.085C81.446 112.085 81.1676 112.024 80.8949 111.902C80.625 111.78 80.4006 111.594 80.2216 111.344C80.0455 111.094 79.9574 110.778 79.9574 110.398V103.886ZM88.3928 106.92L87.4893 107.176C87.4325 107.026 87.3487 106.879 87.2379 106.737C87.13 106.592 86.9822 106.473 86.7947 106.379C86.6072 106.286 86.3672 106.239 86.0746 106.239C85.674 106.239 85.3402 106.331 85.0732 106.516C84.8089 106.697 84.6768 106.929 84.6768 107.21C84.6768 107.46 84.7678 107.658 84.9496 107.803C85.1314 107.947 85.4155 108.068 85.8018 108.165L86.7734 108.403C87.3587 108.545 87.7947 108.763 88.0817 109.055C88.3686 109.345 88.5121 109.719 88.5121 110.176C88.5121 110.551 88.4041 110.886 88.1882 111.182C87.9751 111.477 87.6768 111.71 87.2933 111.881C86.9098 112.051 86.4638 112.136 85.9553 112.136C85.2876 112.136 84.7351 111.991 84.2976 111.702C83.8601 111.412 83.5831 110.989 83.4666 110.432L84.4212 110.193C84.5121 110.545 84.6839 110.81 84.9368 110.986C85.1925 111.162 85.5263 111.25 85.9382 111.25C86.407 111.25 86.7791 111.151 87.0547 110.952C87.3331 110.75 87.4723 110.509 87.4723 110.227C87.4723 110 87.3928 109.81 87.2337 109.656C87.0746 109.5 86.8303 109.384 86.5007 109.307L85.4098 109.051C84.8104 108.909 84.37 108.689 84.0888 108.391C83.8104 108.089 83.6712 107.713 83.6712 107.261C83.6712 106.892 83.7749 106.565 83.9822 106.281C84.1925 105.997 84.478 105.774 84.8388 105.612C85.2024 105.45 85.6143 105.369 86.0746 105.369C86.7223 105.369 87.2308 105.511 87.6001 105.795C87.9723 106.08 88.2365 106.455 88.3928 106.92Z" fill="#8D8D8D"/>
<path d="M214.531 21.3381L214 21.8684L215.061 22.9291L215.591 22.3988L214.531 21.3381ZM224.929 12.75C224.929 12.3358 224.594 12 224.179 12H217.429C217.015 12 216.679 12.3358 216.679 12.75C216.679 13.1642 217.015 13.5 217.429 13.5H223.429V19.5C223.429 19.9142 223.765 20.25 224.179 20.25C224.594 20.25 224.929 19.9142 224.929 19.5V12.75ZM215.591 22.3988L224.71 13.2803L223.649 12.2197L214.531 21.3381L215.591 22.3988Z" fill="#007AFF"/>
<path d="M22.4854 51H15.0707L26.3686 18.2727H35.2855L46.5675 51H39.1527L30.9549 25.7514H30.6992L22.4854 51ZM22.022 38.136H39.5362V43.5373H22.022V38.136ZM57.378 51.4634C55.812 51.4634 54.4164 51.1918 53.1912 50.6484C51.9661 50.0945 50.9966 49.2795 50.2828 48.2035C49.5797 47.1168 49.2282 45.7638 49.2282 44.1445C49.2282 42.7809 49.4785 41.6357 49.9792 40.7088C50.4799 39.782 51.1618 39.0362 52.0247 38.4716C52.8876 37.907 53.8677 37.4808 54.965 37.1932C56.073 36.9055 57.2342 36.7031 58.4487 36.5859C59.8762 36.4368 61.0268 36.2983 61.9004 36.1705C62.774 36.032 63.4078 35.8295 63.802 35.5632C64.1962 35.2969 64.3933 34.9027 64.3933 34.3807V34.2848C64.3933 33.2727 64.0737 32.4897 63.4345 31.9357C62.8059 31.3817 61.911 31.1048 60.7498 31.1048C59.5247 31.1048 58.5499 31.3764 57.8255 31.9197C57.101 32.4524 56.6216 33.1236 56.3873 33.9332L50.0911 33.4219C50.4107 31.9304 51.0392 30.6413 51.9767 29.5547C52.9142 28.4574 54.1234 27.6158 55.6042 27.0298C57.0957 26.4332 58.8216 26.1349 60.7818 26.1349C62.1454 26.1349 63.4505 26.2947 64.6969 26.6143C65.954 26.9339 67.0673 27.4293 68.0368 28.1005C69.0169 28.7717 69.7892 29.6346 70.3539 30.6893C70.9185 31.7333 71.2008 32.9851 71.2008 34.4446V51H64.7449V47.5962H64.5531C64.1589 48.3633 63.6316 49.0398 62.9711 49.6257C62.3105 50.201 61.5169 50.6538 60.59 50.984C59.6632 51.3036 58.5925 51.4634 57.378 51.4634ZM59.3276 46.7653C60.329 46.7653 61.2132 46.5682 61.9803 46.174C62.7473 45.7692 63.3493 45.2259 63.786 44.544C64.2228 43.8622 64.4412 43.0898 64.4412 42.2269V39.6222C64.2282 39.7607 63.9352 39.8885 63.5623 40.0057C63.2001 40.1122 62.79 40.2134 62.3319 40.3093C61.8738 40.3945 61.4157 40.4744 60.9576 40.549C60.4995 40.6129 60.084 40.6715 59.7111 40.7248C58.9121 40.842 58.2143 41.0284 57.6177 41.2841C57.0211 41.5398 56.5577 41.886 56.2275 42.3228C55.8972 42.7489 55.7321 43.2816 55.7321 43.9208C55.7321 44.8477 56.0676 45.5561 56.7388 46.0462C57.4206 46.5256 58.2836 46.7653 59.3276 46.7653Z" fill="#007AFF"/>
</svg>
