<svg width="347" height="141" viewBox="0 0 347 141" fill="none" xmlns="http://www.w3.org/2000/svg">
<rect x="1.20996" y="0.5" width="345.29" height="139.363" rx="4.5" fill="white" stroke="#80BCFF"/>
<rect x="126.374" y="22.2391" width="95.8846" height="95.8846" stroke="#80BCFF" stroke-width="2"/>
<rect x="119.834" y="15.6985" width="15.6985" height="15.6985" fill="#007AFF"/>
<rect x="122.604" y="66.4876" width="7.38751" height="7.38751" fill="#007AFF"/>
<rect x="168.776" y="18.4688" width="7.38751" height="7.38751" fill="#007AFF"/>
<rect x="168.776" y="114.506" width="7.38751" height="7.38751" fill="#007AFF"/>
<rect x="218.642" y="66.4876" width="7.38751" height="7.38751" fill="#007AFF"/>
<rect x="213.101" y="108.966" width="15.6985" height="15.6985" fill="#007AFF"/>
<rect x="119.834" y="108.966" width="15.6985" height="15.6985" fill="#007AFF"/>
<rect x="213.101" y="15.6985" width="15.6985" height="15.6985" fill="#007AFF"/>
<g clip-path="url(#clip0_1689_1256)">
<path d="M163.467 99.7314C168.182 99.7314 172.008 95.8702 172.008 91.1127V82.4939H163.467C158.752 82.4939 154.925 86.3551 154.925 91.1127C154.925 95.8702 158.752 99.7314 163.467 99.7314Z" fill="#007AFF" fill-opacity="0.3"/>
<path d="M154.925 73.8751C154.925 69.1176 158.752 65.2564 163.467 65.2564H172.008V82.4939H163.467C158.752 82.4939 154.925 78.6327 154.925 73.8751Z" fill="#80BCFF"/>
<path d="M154.925 56.6376C154.925 51.8801 158.752 48.0188 163.467 48.0188H172.008V65.2564H163.467C158.752 65.2564 154.925 61.3952 154.925 56.6376Z" fill="#6A66A3"/>
<path d="M172.009 48.0188H180.551C185.266 48.0188 189.092 51.8801 189.092 56.6376C189.092 61.3952 185.266 65.2564 180.551 65.2564H172.009V48.0188Z" fill="#6A66A3" fill-opacity="0.5"/>
<path d="M189.092 73.8751C189.092 78.6327 185.266 82.4939 180.551 82.4939C175.836 82.4939 172.009 78.6327 172.009 73.8751C172.009 69.1176 175.836 65.2564 180.551 65.2564C185.266 65.2564 189.092 69.1176 189.092 73.8751Z" fill="#007AFF"/>
</g>
<defs>
<clipPath id="clip0_1689_1256">
<rect width="34.1673" height="51.7126" fill="white" transform="translate(154.925 48.0188)"/>
</clipPath>
</defs>
</svg>
