<svg width="924" height="135" viewBox="0 0 924 135" fill="none" xmlns="http://www.w3.org/2000/svg">
<rect width="924" height="135" rx="5" fill="#FAFAFA"/>
<rect width="892" height="71" transform="translate(16 32)" fill="#F4F6F8"/>
<path d="M345.452 73.676C344.759 73.676 344.097 73.5533 343.468 73.308C342.849 73.052 342.3 72.6947 341.82 72.236C341.34 71.7667 340.961 71.2013 340.684 70.54C340.417 69.8787 340.284 69.1427 340.284 68.332C340.284 67.5213 340.417 66.7907 340.684 66.14C340.961 65.4893 341.34 64.9347 341.82 64.476C342.3 64.0173 342.849 63.6653 343.468 63.42C344.097 63.1747 344.759 63.052 345.452 63.052C346.145 63.052 346.801 63.1747 347.42 63.42C348.049 63.6653 348.604 64.0173 349.084 64.476C349.564 64.9347 349.937 65.4893 350.204 66.14C350.481 66.7907 350.62 67.5213 350.62 68.332C350.62 69.1427 350.481 69.8787 350.204 70.54C349.937 71.2013 349.564 71.7667 349.084 72.236C348.604 72.6947 348.049 73.052 347.42 73.308C346.801 73.5533 346.145 73.676 345.452 73.676ZM345.452 73.004C346.263 73.004 346.999 72.812 347.66 72.428C348.332 72.0333 348.865 71.484 349.26 70.78C349.665 70.076 349.868 69.26 349.868 68.332C349.868 67.404 349.665 66.5933 349.26 65.9C348.865 65.2067 348.332 64.668 347.66 64.284C346.999 63.9 346.263 63.708 345.452 63.708C344.652 63.708 343.916 63.9 343.244 64.284C342.572 64.668 342.033 65.2067 341.628 65.9C341.233 66.5933 341.036 67.404 341.036 68.332C341.036 69.26 341.233 70.076 341.628 70.78C342.033 71.484 342.572 72.0333 343.244 72.428C343.916 72.812 344.652 73.004 345.452 73.004ZM345.58 71.5C345.047 71.5 344.556 71.3773 344.108 71.132C343.671 70.876 343.319 70.5133 343.052 70.044C342.796 69.564 342.668 68.9933 342.668 68.332C342.668 67.7133 342.807 67.18 343.084 66.732C343.361 66.2733 343.724 65.9213 344.172 65.676C344.631 65.4307 345.116 65.308 345.628 65.308C346.076 65.308 346.455 65.3987 346.764 65.58C347.084 65.7507 347.372 65.964 347.628 66.22L347.068 66.844C346.855 66.6307 346.636 66.4707 346.412 66.364C346.199 66.2467 345.953 66.188 345.676 66.188C345.089 66.188 344.615 66.3907 344.252 66.796C343.9 67.1907 343.724 67.7027 343.724 68.332C343.724 69.036 343.895 69.596 344.236 70.012C344.588 70.4173 345.052 70.62 345.628 70.62C345.969 70.62 346.268 70.556 346.524 70.428C346.78 70.2893 347.025 70.1187 347.26 69.916L347.74 70.588C347.441 70.844 347.127 71.0627 346.796 71.244C346.465 71.4147 346.06 71.5 345.58 71.5ZM360.017 73.692C359.143 73.692 358.359 73.4787 357.665 73.052C356.983 72.6147 356.439 71.9907 356.033 71.18C355.639 70.3693 355.441 69.3933 355.441 68.252C355.441 67.1213 355.644 66.1507 356.049 65.34C356.455 64.5293 357.009 63.9053 357.713 63.468C358.417 63.0307 359.212 62.812 360.097 62.812C360.737 62.812 361.303 62.9453 361.793 63.212C362.284 63.468 362.679 63.7667 362.977 64.108L362.257 64.972C361.98 64.6733 361.665 64.4333 361.313 64.252C360.961 64.0707 360.561 63.98 360.113 63.98C359.452 63.98 358.871 64.156 358.369 64.508C357.879 64.8493 357.495 65.3347 357.217 65.964C356.951 66.5933 356.817 67.3453 356.817 68.22C356.817 69.0947 356.951 69.8573 357.217 70.508C357.484 71.148 357.857 71.644 358.337 71.996C358.828 72.348 359.404 72.524 360.065 72.524C360.567 72.524 361.015 72.4173 361.409 72.204C361.804 71.9907 362.167 71.7027 362.497 71.34L363.233 72.172C362.817 72.652 362.348 73.0253 361.825 73.292C361.303 73.5587 360.7 73.692 360.017 73.692ZM367.178 73.692C366.356 73.692 365.754 73.436 365.37 72.924C364.986 72.4013 364.794 71.644 364.794 70.652V65.724H366.122V70.476C366.122 71.2013 366.234 71.7293 366.458 72.06C366.692 72.3907 367.066 72.556 367.578 72.556C367.983 72.556 368.34 72.4547 368.65 72.252C368.97 72.0387 369.311 71.7027 369.674 71.244V65.724H370.986V73.5H369.898L369.786 72.284H369.738C369.375 72.7107 368.991 73.052 368.586 73.308C368.18 73.564 367.711 73.692 367.178 73.692ZM377.049 73.692C376.686 73.692 376.308 73.6067 375.913 73.436C375.529 73.2547 375.166 73.0093 374.825 72.7H374.777L374.665 73.5H373.609V62.108H374.921V65.212L374.889 66.62C375.241 66.3107 375.625 66.0547 376.041 65.852C376.468 65.6387 376.894 65.532 377.321 65.532C378.334 65.532 379.102 65.8893 379.625 66.604C380.148 67.3187 380.409 68.2787 380.409 69.484C380.409 70.3693 380.249 71.1267 379.929 71.756C379.62 72.3853 379.209 72.8653 378.697 73.196C378.196 73.5267 377.646 73.692 377.049 73.692ZM376.825 72.588C377.465 72.588 377.993 72.316 378.409 71.772C378.836 71.2173 379.049 70.46 379.049 69.5C379.049 68.6467 378.889 67.9587 378.569 67.436C378.26 66.9027 377.737 66.636 377.001 66.636C376.67 66.636 376.334 66.7267 375.993 66.908C375.652 67.0893 375.294 67.3507 374.921 67.692V71.772C375.262 72.0707 375.598 72.284 375.929 72.412C376.27 72.5293 376.569 72.588 376.825 72.588ZM382.453 73.5V65.724H383.765V73.5H382.453ZM383.125 64.124C382.869 64.124 382.655 64.0493 382.485 63.9C382.325 63.74 382.245 63.5267 382.245 63.26C382.245 63.004 382.325 62.796 382.485 62.636C382.655 62.476 382.869 62.396 383.125 62.396C383.381 62.396 383.589 62.476 383.749 62.636C383.919 62.796 384.005 63.004 384.005 63.26C384.005 63.5267 383.919 63.74 383.749 63.9C383.589 64.0493 383.381 64.124 383.125 64.124ZM389.014 77.084C388.065 77.084 387.291 76.9027 386.694 76.54C386.097 76.1773 385.798 75.66 385.798 74.988C385.798 74.6573 385.899 74.3373 386.102 74.028C386.305 73.7293 386.582 73.4627 386.934 73.228V73.164C386.742 73.0467 386.577 72.8813 386.438 72.668C386.31 72.4547 386.246 72.1987 386.246 71.9C386.246 71.5693 386.337 71.2813 386.518 71.036C386.699 70.7907 386.891 70.5987 387.094 70.46V70.396C386.838 70.1827 386.603 69.8947 386.39 69.532C386.187 69.1693 386.086 68.7587 386.086 68.3C386.086 67.7347 386.219 67.244 386.486 66.828C386.753 66.412 387.11 66.092 387.558 65.868C388.006 65.644 388.491 65.532 389.014 65.532C389.227 65.532 389.43 65.5533 389.622 65.596C389.814 65.628 389.979 65.6707 390.118 65.724H392.822V66.732H391.222C391.403 66.9027 391.553 67.132 391.67 67.42C391.798 67.6973 391.862 68.0013 391.862 68.332C391.862 68.8867 391.734 69.3667 391.478 69.772C391.222 70.1773 390.881 70.492 390.454 70.716C390.027 70.9293 389.547 71.036 389.014 71.036C388.598 71.036 388.209 70.9453 387.846 70.764C387.707 70.8813 387.59 71.0147 387.494 71.164C387.398 71.3027 387.35 71.4787 387.35 71.692C387.35 71.9373 387.446 72.14 387.638 72.3C387.841 72.46 388.203 72.54 388.726 72.54H390.23C391.137 72.54 391.814 72.6893 392.262 72.988C392.721 73.276 392.95 73.7453 392.95 74.396C392.95 74.876 392.79 75.3187 392.47 75.724C392.15 76.1293 391.697 76.4547 391.11 76.7C390.523 76.956 389.825 77.084 389.014 77.084ZM389.014 70.156C389.462 70.156 389.846 69.9907 390.166 69.66C390.497 69.3187 390.662 68.8653 390.662 68.3C390.662 67.7347 390.502 67.292 390.182 66.972C389.862 66.652 389.473 66.492 389.014 66.492C388.555 66.492 388.166 66.652 387.846 66.972C387.526 67.292 387.366 67.7347 387.366 68.3C387.366 68.8653 387.526 69.3187 387.846 69.66C388.177 69.9907 388.566 70.156 389.014 70.156ZM389.206 76.172C389.953 76.172 390.55 76.0067 390.998 75.676C391.446 75.356 391.67 74.9933 391.67 74.588C391.67 74.2253 391.531 73.9747 391.254 73.836C390.987 73.6973 390.603 73.628 390.102 73.628H388.758C388.609 73.628 388.443 73.6173 388.262 73.596C388.091 73.5747 387.921 73.5427 387.75 73.5C387.473 73.7027 387.27 73.916 387.142 74.14C387.014 74.364 386.95 74.588 386.95 74.812C386.95 75.228 387.147 75.5587 387.542 75.804C387.947 76.0493 388.502 76.172 389.206 76.172ZM397.258 73.692C396.629 73.692 396.037 73.532 395.482 73.212C394.938 72.892 394.495 72.428 394.154 71.82C393.823 71.212 393.658 70.4813 393.658 69.628C393.658 68.7533 393.823 68.012 394.154 67.404C394.495 66.796 394.938 66.332 395.482 66.012C396.037 65.692 396.629 65.532 397.258 65.532C397.898 65.532 398.49 65.692 399.034 66.012C399.578 66.332 400.015 66.796 400.346 67.404C400.687 68.012 400.858 68.7533 400.858 69.628C400.858 70.4813 400.687 71.212 400.346 71.82C400.015 72.428 399.578 72.892 399.034 73.212C398.49 73.532 397.898 73.692 397.258 73.692ZM397.258 72.604C397.93 72.604 398.469 72.332 398.874 71.788C399.29 71.2333 399.498 70.5133 399.498 69.628C399.498 68.732 399.29 68.0067 398.874 67.452C398.469 66.8973 397.93 66.62 397.258 66.62C396.597 66.62 396.058 66.8973 395.642 67.452C395.226 68.0067 395.018 68.732 395.018 69.628C395.018 70.5133 395.226 71.2333 395.642 71.788C396.058 72.332 396.597 72.604 397.258 72.604ZM405.453 69.996V68.988H409.133V69.996H405.453ZM413.609 73.5V72.716C414.633 71.692 415.502 70.796 416.217 70.028C416.931 69.2493 417.475 68.5507 417.849 67.932C418.222 67.3027 418.409 66.716 418.409 66.172C418.409 65.5853 418.249 65.1053 417.929 64.732C417.609 64.3587 417.123 64.172 416.473 64.172C416.046 64.172 415.651 64.2947 415.289 64.54C414.926 64.7747 414.595 65.0627 414.297 65.404L413.545 64.652C413.971 64.1827 414.425 63.8093 414.905 63.532C415.395 63.244 415.971 63.1 416.633 63.1C417.582 63.1 418.329 63.3773 418.873 63.932C419.417 64.476 419.689 65.2013 419.689 66.108C419.689 66.748 419.507 67.3987 419.145 68.06C418.793 68.7107 418.302 69.3987 417.673 70.124C417.054 70.8387 416.339 71.6173 415.529 72.46C415.806 72.4387 416.094 72.4173 416.393 72.396C416.691 72.3747 416.974 72.364 417.241 72.364H420.201V73.5H413.609ZM424.906 73.692C423.882 73.692 423.077 73.2333 422.49 72.316C421.914 71.388 421.626 70.0707 421.626 68.364C421.626 66.6467 421.914 65.34 422.49 64.444C423.077 63.548 423.882 63.1 424.906 63.1C425.919 63.1 426.714 63.548 427.29 64.444C427.877 65.34 428.17 66.6467 428.17 68.364C428.17 70.0707 427.877 71.388 427.29 72.316C426.714 73.2333 425.919 73.692 424.906 73.692ZM424.906 72.636C425.503 72.636 425.983 72.3 426.346 71.628C426.709 70.9453 426.89 69.8573 426.89 68.364C426.89 66.8707 426.709 65.7987 426.346 65.148C425.983 64.4867 425.503 64.156 424.906 64.156C424.309 64.156 423.823 64.4867 423.45 65.148C423.087 65.7987 422.906 66.8707 422.906 68.364C422.906 69.8573 423.087 70.9453 423.45 71.628C423.823 72.3 424.309 72.636 424.906 72.636ZM429.515 73.5V72.716C430.539 71.692 431.408 70.796 432.123 70.028C432.838 69.2493 433.382 68.5507 433.755 67.932C434.128 67.3027 434.315 66.716 434.315 66.172C434.315 65.5853 434.155 65.1053 433.835 64.732C433.515 64.3587 433.03 64.172 432.379 64.172C431.952 64.172 431.558 64.2947 431.195 64.54C430.832 64.7747 430.502 65.0627 430.203 65.404L429.451 64.652C429.878 64.1827 430.331 63.8093 430.811 63.532C431.302 63.244 431.878 63.1 432.539 63.1C433.488 63.1 434.235 63.3773 434.779 63.932C435.323 64.476 435.595 65.2013 435.595 66.108C435.595 66.748 435.414 67.3987 435.051 68.06C434.699 68.7107 434.208 69.3987 433.579 70.124C432.96 70.8387 432.246 71.6173 431.435 72.46C431.712 72.4387 432 72.4173 432.299 72.396C432.598 72.3747 432.88 72.364 433.147 72.364H436.107V73.5H429.515ZM438.492 69.628H441.692V66.668C441.692 66.3907 441.703 66.06 441.724 65.676C441.745 65.292 441.761 64.9667 441.772 64.7H441.708C441.58 64.9453 441.447 65.1853 441.308 65.42C441.169 65.6547 441.025 65.8947 440.876 66.14L438.492 69.628ZM441.692 73.5V70.684H437.1V69.82L441.468 63.292H442.94V69.628H444.332V70.684H442.94V73.5H441.692Z" fill="#576372"/>
<path d="M450.972 77.5V61.5H451.9V77.5H450.972Z" fill="#576372"/>
<path d="M462.252 73.692C461.889 73.692 461.511 73.6067 461.116 73.436C460.732 73.2547 460.369 73.0093 460.028 72.7H459.98L459.868 73.5H458.812V62.108H460.124V65.212L460.092 66.62C460.444 66.3107 460.828 66.0547 461.244 65.852C461.671 65.6387 462.097 65.532 462.524 65.532C463.537 65.532 464.305 65.8893 464.828 66.604C465.351 67.3187 465.612 68.2787 465.612 69.484C465.612 70.3693 465.452 71.1267 465.132 71.756C464.823 72.3853 464.412 72.8653 463.9 73.196C463.399 73.5267 462.849 73.692 462.252 73.692ZM462.028 72.588C462.668 72.588 463.196 72.316 463.612 71.772C464.039 71.2173 464.252 70.46 464.252 69.5C464.252 68.6467 464.092 67.9587 463.772 67.436C463.463 66.9027 462.94 66.636 462.204 66.636C461.873 66.636 461.537 66.7267 461.196 66.908C460.855 67.0893 460.497 67.3507 460.124 67.692V71.772C460.465 72.0707 460.801 72.284 461.132 72.412C461.473 72.5293 461.772 72.588 462.028 72.588ZM469.928 73.692C469.106 73.692 468.504 73.436 468.12 72.924C467.736 72.4013 467.544 71.644 467.544 70.652V65.724H468.872V70.476C468.872 71.2013 468.984 71.7293 469.208 72.06C469.442 72.3907 469.816 72.556 470.328 72.556C470.733 72.556 471.09 72.4547 471.4 72.252C471.72 72.0387 472.061 71.7027 472.424 71.244V65.724H473.736V73.5H472.648L472.536 72.284H472.488C472.125 72.7107 471.741 73.052 471.336 73.308C470.93 73.564 470.461 73.692 469.928 73.692ZM476.359 73.5V65.724H477.671V73.5H476.359ZM477.031 64.124C476.775 64.124 476.562 64.0493 476.391 63.9C476.231 63.74 476.151 63.5267 476.151 63.26C476.151 63.004 476.231 62.796 476.391 62.636C476.562 62.476 476.775 62.396 477.031 62.396C477.287 62.396 477.495 62.476 477.655 62.636C477.826 62.796 477.911 63.004 477.911 63.26C477.911 63.5267 477.826 63.74 477.655 63.9C477.495 64.0493 477.287 64.124 477.031 64.124ZM481.688 73.692C481.198 73.692 480.84 73.5427 480.616 73.244C480.403 72.9347 480.296 72.4973 480.296 71.932V62.108H481.608V72.028C481.608 72.2307 481.646 72.38 481.72 72.476C481.795 72.5613 481.88 72.604 481.976 72.604C482.019 72.604 482.056 72.604 482.088 72.604C482.131 72.5933 482.19 72.5827 482.264 72.572L482.44 73.564C482.355 73.6067 482.254 73.6387 482.136 73.66C482.019 73.6813 481.87 73.692 481.688 73.692ZM487.031 73.692C486.06 73.692 485.281 73.34 484.695 72.636C484.108 71.9213 483.815 70.9187 483.815 69.628C483.815 68.7853 483.969 68.06 484.279 67.452C484.599 66.8333 485.015 66.3587 485.527 66.028C486.049 65.6973 486.604 65.532 487.191 65.532C487.639 65.532 488.028 65.612 488.359 65.772C488.689 65.932 489.025 66.1507 489.367 66.428L489.303 65.1V62.108H490.631V73.5H489.543L489.431 72.588H489.383C489.084 72.8867 488.732 73.148 488.327 73.372C487.921 73.5853 487.489 73.692 487.031 73.692ZM487.319 72.588C488.001 72.588 488.663 72.2307 489.303 71.516V67.452C488.972 67.1533 488.652 66.9453 488.343 66.828C488.044 66.7 487.735 66.636 487.415 66.636C486.999 66.636 486.62 66.764 486.279 67.02C485.948 67.2653 485.681 67.612 485.479 68.06C485.276 68.4973 485.174 69.0147 485.174 69.612C485.174 70.54 485.361 71.2707 485.735 71.804C486.108 72.3267 486.636 72.588 487.319 72.588ZM494.93 73.5L492.13 65.724H493.49L494.962 70.14C495.079 70.524 495.196 70.908 495.314 71.292C495.442 71.676 495.564 72.0547 495.682 72.428H495.746C495.863 72.0547 495.98 71.676 496.098 71.292C496.226 70.908 496.343 70.524 496.45 70.14L497.922 65.724H499.218L496.466 73.5H494.93ZM500.046 73.5V72.716C501.07 71.692 501.94 70.796 502.654 70.028C503.369 69.2493 503.913 68.5507 504.286 67.932C504.66 67.3027 504.846 66.716 504.846 66.172C504.846 65.5853 504.686 65.1053 504.366 64.732C504.046 64.3587 503.561 64.172 502.91 64.172C502.484 64.172 502.089 64.2947 501.726 64.54C501.364 64.7747 501.033 65.0627 500.734 65.404L499.982 64.652C500.409 64.1827 500.862 63.8093 501.342 63.532C501.833 63.244 502.409 63.1 503.07 63.1C504.02 63.1 504.766 63.3773 505.31 63.932C505.854 64.476 506.126 65.2013 506.126 66.108C506.126 66.748 505.945 67.3987 505.582 68.06C505.23 68.7107 504.74 69.3987 504.11 70.124C503.492 70.8387 502.777 71.6173 501.966 72.46C502.244 72.4387 502.532 72.4173 502.83 72.396C503.129 72.3747 503.412 72.364 503.678 72.364H506.638V73.5H500.046ZM511.343 73.692C510.319 73.692 509.514 73.2333 508.927 72.316C508.351 71.388 508.063 70.0707 508.063 68.364C508.063 66.6467 508.351 65.34 508.927 64.444C509.514 63.548 510.319 63.1 511.343 63.1C512.357 63.1 513.151 63.548 513.727 64.444C514.314 65.34 514.607 66.6467 514.607 68.364C514.607 70.0707 514.314 71.388 513.727 72.316C513.151 73.2333 512.357 73.692 511.343 73.692ZM511.343 72.636C511.941 72.636 512.421 72.3 512.783 71.628C513.146 70.9453 513.327 69.8573 513.327 68.364C513.327 66.8707 513.146 65.7987 512.783 65.148C512.421 64.4867 511.941 64.156 511.343 64.156C510.746 64.156 510.261 64.4867 509.887 65.148C509.525 65.7987 509.343 66.8707 509.343 68.364C509.343 69.8573 509.525 70.9453 509.887 71.628C510.261 72.3 510.746 72.636 511.343 72.636ZM516.977 69.628H520.177V66.668C520.177 66.3907 520.187 66.06 520.209 65.676C520.23 65.292 520.246 64.9667 520.257 64.7H520.193C520.065 64.9453 519.931 65.1853 519.793 65.42C519.654 65.6547 519.51 65.8947 519.361 66.14L516.977 69.628ZM520.177 73.5V70.684H515.585V69.82L519.953 63.292H521.425V69.628H522.817V70.684H521.425V73.5H520.177ZM527.042 73.692C526.231 73.692 525.554 73.548 525.01 73.26C524.466 72.9613 524.023 72.6253 523.682 72.252L524.354 71.388C524.663 71.708 525.026 71.9907 525.442 72.236C525.858 72.4813 526.364 72.604 526.962 72.604C527.58 72.604 528.087 72.4333 528.482 72.092C528.876 71.7507 529.074 71.2973 529.074 70.732C529.074 70.3267 528.967 69.9747 528.754 69.676C528.551 69.3667 528.21 69.1267 527.73 68.956C527.26 68.7853 526.62 68.7 525.81 68.7V67.692C526.535 67.692 527.106 67.6067 527.522 67.436C527.948 67.2653 528.252 67.036 528.434 66.748C528.615 66.46 528.706 66.14 528.706 65.788C528.706 65.2867 528.546 64.892 528.226 64.604C527.916 64.316 527.49 64.172 526.946 64.172C526.519 64.172 526.124 64.268 525.762 64.46C525.41 64.652 525.079 64.9027 524.77 65.212L524.066 64.38C524.46 64.0067 524.898 63.7027 525.378 63.468C525.858 63.2227 526.396 63.1 526.994 63.1C527.879 63.1 528.61 63.3293 529.186 63.788C529.762 64.236 530.05 64.8707 530.05 65.692C530.05 66.3107 529.879 66.8173 529.538 67.212C529.196 67.6067 528.748 67.9107 528.194 68.124V68.188C528.812 68.3267 529.335 68.62 529.762 69.068C530.188 69.5053 530.402 70.076 530.402 70.78C530.402 71.3773 530.252 71.8947 529.954 72.332C529.655 72.7693 529.25 73.1053 528.738 73.34C528.236 73.5747 527.671 73.692 527.042 73.692ZM531.859 73.5V72.716C532.883 71.692 533.752 70.796 534.467 70.028C535.181 69.2493 535.725 68.5507 536.099 67.932C536.472 67.3027 536.659 66.716 536.659 66.172C536.659 65.5853 536.499 65.1053 536.179 64.732C535.859 64.3587 535.373 64.172 534.723 64.172C534.296 64.172 533.901 64.2947 533.539 64.54C533.176 64.7747 532.845 65.0627 532.547 65.404L531.795 64.652C532.221 64.1827 532.675 63.8093 533.155 63.532C533.645 63.244 534.221 63.1 534.883 63.1C535.832 63.1 536.579 63.3773 537.123 63.932C537.667 64.476 537.939 65.2013 537.939 66.108C537.939 66.748 537.757 67.3987 537.395 68.06C537.043 68.7107 536.552 69.3987 535.923 70.124C535.304 70.8387 534.589 71.6173 533.779 72.46C534.056 72.4387 534.344 72.4173 534.643 72.396C534.941 72.3747 535.224 72.364 535.491 72.364H538.451V73.5H531.859Z" fill="#576372"/>
<path d="M544.972 77.5V61.5H545.9V77.5H544.972Z" fill="#576372"/>
<path d="M552.732 73.5V63.068H555.084V67.084H558.684V63.068H561.052V73.5H558.684V69.148H555.084V73.5H552.732ZM566.873 73.692C566.116 73.692 565.433 73.5267 564.825 73.196C564.217 72.8653 563.737 72.3907 563.385 71.772C563.033 71.1533 562.857 70.4067 562.857 69.532C562.857 68.668 563.033 67.9267 563.385 67.308C563.748 66.6893 564.217 66.2147 564.793 65.884C565.369 65.5427 565.972 65.372 566.601 65.372C567.359 65.372 567.983 65.5427 568.473 65.884C568.975 66.2147 569.348 66.668 569.593 67.244C569.849 67.8093 569.977 68.4547 569.977 69.18C569.977 69.3827 569.967 69.5853 569.945 69.788C569.924 69.98 569.903 70.124 569.881 70.22H565.129C565.236 70.796 565.476 71.2227 565.849 71.5C566.223 71.7667 566.671 71.9 567.193 71.9C567.759 71.9 568.329 71.724 568.905 71.372L569.689 72.796C569.284 73.0733 568.831 73.292 568.329 73.452C567.828 73.612 567.343 73.692 566.873 73.692ZM565.113 68.668H567.977C567.977 68.2307 567.871 67.8733 567.657 67.596C567.455 67.308 567.119 67.164 566.649 67.164C566.287 67.164 565.961 67.292 565.673 67.548C565.385 67.7933 565.199 68.1667 565.113 68.668ZM573.763 73.692C572.952 73.692 572.387 73.452 572.067 72.972C571.757 72.4813 571.603 71.836 571.603 71.036V62.284H573.955V71.132C573.955 71.3773 573.997 71.548 574.083 71.644C574.179 71.74 574.275 71.788 574.371 71.788C574.424 71.788 574.467 71.788 574.499 71.788C574.541 71.7773 574.595 71.7667 574.659 71.756L574.947 73.5C574.819 73.5533 574.653 73.596 574.451 73.628C574.259 73.6707 574.029 73.692 573.763 73.692ZM576.181 76.444V65.564H578.101L578.261 66.348H578.325C578.634 66.0707 578.981 65.8413 579.365 65.66C579.759 65.468 580.165 65.372 580.581 65.372C581.541 65.372 582.298 65.74 582.853 66.476C583.407 67.2013 583.685 68.1773 583.685 69.404C583.685 70.3107 583.525 71.084 583.205 71.724C582.885 72.364 582.469 72.8547 581.957 73.196C581.455 73.5267 580.917 73.692 580.341 73.692C579.999 73.692 579.669 73.6227 579.349 73.484C579.029 73.3347 578.73 73.1267 578.453 72.86L578.533 74.124V76.444H576.181ZM579.797 71.772C580.202 71.772 580.549 71.5853 580.837 71.212C581.125 70.8387 581.269 70.2467 581.269 69.436C581.269 68.0067 580.81 67.292 579.893 67.292C579.434 67.292 578.981 67.532 578.533 68.012V71.26C578.746 71.452 578.959 71.5853 579.173 71.66C579.386 71.7347 579.594 71.772 579.797 71.772Z" fill="#1991EB"/>
</svg>
