<svg width="766" height="103" viewBox="0 0 766 103" fill="none" xmlns="http://www.w3.org/2000/svg">
<rect width="766" height="103" rx="5" fill="#FAFAFA"/>
<rect width="722" height="51" transform="translate(20 26)" fill="white"/>
<mask id="path-2-inside-1_1164_9278" fill="white">
<path d="M45 26H270V77H45V26Z"/>
</mask>
<path d="M45 26H270V77H45V26Z" fill="white"/>
<path d="M270 76H45V78H270V76Z" fill="#E6EAEE" mask="url(#path-2-inside-1_1164_9278)"/>
<path d="M56.162 56V46.844H61.678V48.216H57.786V50.554H61.076V51.926H57.786V54.628H61.818V56H56.162ZM63.5552 56V49.126H64.8852L64.9972 50.064H65.0532C65.3425 49.756 65.6552 49.4947 65.9912 49.28C66.3365 49.0653 66.7239 48.958 67.1532 48.958C67.6572 48.958 68.0585 49.07 68.3572 49.294C68.6652 49.5087 68.8985 49.8073 69.0572 50.19C69.3839 49.8353 69.7245 49.5413 70.0792 49.308C70.4432 49.0747 70.8399 48.958 71.2692 48.958C71.9972 48.958 72.5339 49.196 72.8792 49.672C73.2245 50.148 73.3972 50.82 73.3972 51.688V56H71.7732V51.898C71.7732 51.3287 71.6845 50.9273 71.5072 50.694C71.3392 50.4607 71.0779 50.344 70.7232 50.344C70.2939 50.344 69.8132 50.6287 69.2812 51.198V56H67.6712V51.898C67.6712 51.3287 67.5825 50.9273 67.4052 50.694C67.2372 50.4607 66.9712 50.344 66.6072 50.344C66.1779 50.344 65.6972 50.6287 65.1652 51.198V56H63.5552ZM77.02 56.168C76.4227 56.168 75.9327 55.9813 75.55 55.608C75.1767 55.2347 74.99 54.7493 74.99 54.152C74.99 53.4147 75.312 52.8453 75.956 52.444C76.6 52.0333 77.6267 51.7533 79.036 51.604C79.0267 51.24 78.9287 50.9273 78.742 50.666C78.5647 50.3953 78.2427 50.26 77.776 50.26C77.44 50.26 77.1087 50.3253 76.782 50.456C76.4647 50.5867 76.152 50.7453 75.844 50.932L75.256 49.854C75.6387 49.6113 76.068 49.4013 76.544 49.224C77.0294 49.0467 77.5427 48.958 78.084 48.958C78.9427 48.958 79.582 49.2147 80.002 49.728C80.4314 50.232 80.646 50.9647 80.646 51.926V56H79.316L79.204 55.244H79.148C78.84 55.5053 78.5087 55.7247 78.154 55.902C77.8087 56.0793 77.4307 56.168 77.02 56.168ZM77.538 54.908C77.818 54.908 78.07 54.8427 78.294 54.712C78.5274 54.572 78.7747 54.3853 79.036 54.152V52.612C78.1027 52.7333 77.454 52.9153 77.09 53.158C76.726 53.3913 76.544 53.6807 76.544 54.026C76.544 54.334 76.6374 54.558 76.824 54.698C77.0107 54.838 77.2487 54.908 77.538 54.908ZM82.5728 56V49.126H84.1828V56H82.5728ZM83.3848 47.922C83.0954 47.922 82.8621 47.838 82.6848 47.67C82.5074 47.502 82.4188 47.278 82.4188 46.998C82.4188 46.7273 82.5074 46.508 82.6848 46.34C82.8621 46.172 83.0954 46.088 83.3848 46.088C83.6741 46.088 83.9074 46.172 84.0848 46.34C84.2621 46.508 84.3508 46.7273 84.3508 46.998C84.3508 47.278 84.2621 47.502 84.0848 47.67C83.9074 47.838 83.6741 47.922 83.3848 47.922ZM87.8048 56.168C87.2355 56.168 86.8295 55.9953 86.5868 55.65C86.3535 55.3047 86.2368 54.8333 86.2368 54.236V46.116H87.8468V54.32C87.8468 54.516 87.8842 54.656 87.9588 54.74C88.0335 54.8147 88.1128 54.852 88.1968 54.852C88.2342 54.852 88.2668 54.852 88.2948 54.852C88.3322 54.8427 88.3835 54.8333 88.4488 54.824L88.6588 56.028C88.5655 56.0653 88.4442 56.098 88.2948 56.126C88.1548 56.154 87.9915 56.168 87.8048 56.168Z" fill="#576372"/>
<mask id="path-5-inside-2_1164_9278" fill="white">
<path d="M270 26H717V77H270V26Z"/>
</mask>
<path d="M270 26H717V77H270V26Z" fill="white"/>
<path d="M717 76H270V78H717V76Z" fill="#E6EAEE" mask="url(#path-5-inside-2_1164_9278)"/>
<path d="M282.926 56.168C282.441 56.168 281.979 56.0793 281.54 55.902C281.101 55.7153 280.719 55.4913 280.392 55.23L280.966 54.46C281.265 54.6933 281.573 54.8893 281.89 55.048C282.207 55.1973 282.567 55.272 282.968 55.272C283.416 55.272 283.752 55.1693 283.976 54.964C284.2 54.7493 284.312 54.4973 284.312 54.208C284.312 53.9747 284.233 53.7787 284.074 53.62C283.925 53.4613 283.729 53.3307 283.486 53.228C283.253 53.116 283.01 53.0133 282.758 52.92C282.441 52.7987 282.128 52.6633 281.82 52.514C281.512 52.3553 281.26 52.1547 281.064 51.912C280.868 51.66 280.77 51.3427 280.77 50.96C280.77 50.4093 280.975 49.952 281.386 49.588C281.806 49.2147 282.385 49.028 283.122 49.028C283.542 49.028 283.934 49.1027 284.298 49.252C284.662 49.4013 284.975 49.5833 285.236 49.798L284.676 50.526C284.443 50.3487 284.2 50.204 283.948 50.092C283.696 49.98 283.421 49.924 283.122 49.924C282.693 49.924 282.375 50.022 282.17 50.218C281.974 50.414 281.876 50.6427 281.876 50.904C281.876 51.1187 281.946 51.296 282.086 51.436C282.226 51.5667 282.408 51.6833 282.632 51.786C282.856 51.8793 283.094 51.9773 283.346 52.08C283.673 52.2013 283.995 52.3413 284.312 52.5C284.629 52.6493 284.891 52.8547 285.096 53.116C285.311 53.368 285.418 53.7087 285.418 54.138C285.418 54.502 285.32 54.838 285.124 55.146C284.937 55.454 284.657 55.7013 284.284 55.888C283.92 56.0747 283.467 56.168 282.926 56.168ZM287.013 56V49.196H288.161V56H287.013ZM287.601 47.796C287.377 47.796 287.191 47.7307 287.041 47.6C286.901 47.46 286.831 47.2733 286.831 47.04C286.831 46.816 286.901 46.634 287.041 46.494C287.191 46.354 287.377 46.284 287.601 46.284C287.825 46.284 288.007 46.354 288.147 46.494C288.297 46.634 288.371 46.816 288.371 47.04C288.371 47.2733 288.297 47.46 288.147 47.6C288.007 47.7307 287.825 47.796 287.601 47.796ZM291.677 56.168C291.247 56.168 290.935 56.0373 290.739 55.776C290.552 55.5053 290.459 55.1227 290.459 54.628V46.032H291.607V54.712C291.607 54.8893 291.639 55.02 291.705 55.104C291.77 55.1787 291.845 55.216 291.929 55.216C291.966 55.216 291.999 55.216 292.027 55.216C292.064 55.2067 292.115 55.1973 292.181 55.188L292.335 56.056C292.26 56.0933 292.171 56.1213 292.069 56.14C291.966 56.1587 291.835 56.168 291.677 56.168ZM295.497 56L293.047 49.196H294.237L295.525 53.06C295.628 53.396 295.73 53.732 295.833 54.068C295.945 54.404 296.052 54.7353 296.155 55.062H296.211C296.314 54.7353 296.416 54.404 296.519 54.068C296.631 53.732 296.734 53.396 296.827 53.06L298.115 49.196H299.249L296.841 56H295.497ZM303.265 56.168C302.659 56.168 302.108 56.028 301.613 55.748C301.119 55.4587 300.727 55.048 300.437 54.516C300.148 53.984 300.003 53.3493 300.003 52.612C300.003 51.8653 300.148 51.226 300.437 50.694C300.736 50.162 301.119 49.7513 301.585 49.462C302.052 49.1727 302.542 49.028 303.055 49.028C303.923 49.028 304.591 49.3173 305.057 49.896C305.533 50.4747 305.771 51.2493 305.771 52.22C305.771 52.3413 305.767 52.4627 305.757 52.584C305.757 52.696 305.748 52.794 305.729 52.878H301.137C301.184 53.5967 301.408 54.1707 301.809 54.6C302.22 55.0293 302.752 55.244 303.405 55.244C303.732 55.244 304.031 55.1973 304.301 55.104C304.581 55.0013 304.847 54.8707 305.099 54.712L305.505 55.468C305.216 55.6547 304.885 55.818 304.511 55.958C304.147 56.098 303.732 56.168 303.265 56.168ZM301.123 52.052H304.763C304.763 51.3613 304.614 50.8387 304.315 50.484C304.026 50.12 303.615 49.938 303.083 49.938C302.607 49.938 302.178 50.1247 301.795 50.498C301.422 50.862 301.198 51.38 301.123 52.052ZM307.453 56V49.196H308.405L308.503 50.428H308.545C308.778 49.9987 309.063 49.658 309.399 49.406C309.735 49.154 310.094 49.028 310.477 49.028C310.747 49.028 310.99 49.0747 311.205 49.168L310.981 50.176C310.869 50.1387 310.766 50.1107 310.673 50.092C310.579 50.0733 310.463 50.064 310.323 50.064C310.033 50.064 309.73 50.1807 309.413 50.414C309.105 50.6473 308.834 51.0533 308.601 51.632V56H307.453ZM312.306 56V49.196H313.258L313.356 50.176H313.398C313.697 49.8493 314.024 49.5787 314.378 49.364C314.733 49.14 315.111 49.028 315.512 49.028C316.035 49.028 316.441 49.1447 316.73 49.378C317.029 49.602 317.248 49.9193 317.388 50.33C317.743 49.9473 318.102 49.6347 318.466 49.392C318.83 49.1493 319.218 49.028 319.628 49.028C320.328 49.028 320.846 49.2567 321.182 49.714C321.528 50.162 321.7 50.82 321.7 51.688V56H320.552V51.842C320.552 51.2073 320.45 50.7453 320.244 50.456C320.039 50.1667 319.722 50.022 319.292 50.022C318.788 50.022 318.219 50.372 317.584 51.072V56H316.436V51.842C316.436 51.2073 316.334 50.7453 316.128 50.456C315.923 50.1667 315.601 50.022 315.162 50.022C314.658 50.022 314.089 50.372 313.454 51.072V56H312.306ZM326.56 56.168C326.009 56.168 325.491 56.028 325.006 55.748C324.53 55.468 324.142 55.062 323.844 54.53C323.554 53.998 323.41 53.3587 323.41 52.612C323.41 51.8467 323.554 51.198 323.844 50.666C324.142 50.134 324.53 49.728 325.006 49.448C325.491 49.168 326.009 49.028 326.56 49.028C327.12 49.028 327.638 49.168 328.114 49.448C328.59 49.728 328.972 50.134 329.262 50.666C329.56 51.198 329.71 51.8467 329.71 52.612C329.71 53.3587 329.56 53.998 329.262 54.53C328.972 55.062 328.59 55.468 328.114 55.748C327.638 56.028 327.12 56.168 326.56 56.168ZM326.56 55.216C327.148 55.216 327.619 54.978 327.974 54.502C328.338 54.0167 328.52 53.3867 328.52 52.612C328.52 51.828 328.338 51.1933 327.974 50.708C327.619 50.2227 327.148 49.98 326.56 49.98C325.981 49.98 325.51 50.2227 325.146 50.708C324.782 51.1933 324.6 51.828 324.6 52.612C324.6 53.3867 324.782 54.0167 325.146 54.502C325.51 54.978 325.981 55.216 326.56 55.216ZM334.148 56.168C333.597 56.168 333.079 56.028 332.594 55.748C332.118 55.468 331.73 55.062 331.432 54.53C331.142 53.998 330.998 53.3587 330.998 52.612C330.998 51.8467 331.142 51.198 331.432 50.666C331.73 50.134 332.118 49.728 332.594 49.448C333.079 49.168 333.597 49.028 334.148 49.028C334.708 49.028 335.226 49.168 335.702 49.448C336.178 49.728 336.56 50.134 336.85 50.666C337.148 51.198 337.298 51.8467 337.298 52.612C337.298 53.3587 337.148 53.998 336.85 54.53C336.56 55.062 336.178 55.468 335.702 55.748C335.226 56.028 334.708 56.168 334.148 56.168ZM334.148 55.216C334.736 55.216 335.207 54.978 335.562 54.502C335.926 54.0167 336.108 53.3867 336.108 52.612C336.108 51.828 335.926 51.1933 335.562 50.708C335.207 50.2227 334.736 49.98 334.148 49.98C333.569 49.98 333.098 50.2227 332.734 50.708C332.37 51.1933 332.188 51.828 332.188 52.612C332.188 53.3867 332.37 54.0167 332.734 54.502C333.098 54.978 333.569 55.216 334.148 55.216ZM339.089 56V49.196H340.041L340.139 50.176H340.181C340.508 49.8493 340.853 49.5787 341.217 49.364C341.581 49.14 341.997 49.028 342.463 49.028C343.182 49.028 343.705 49.2567 344.031 49.714C344.367 50.162 344.535 50.82 344.535 51.688V56H343.387V51.842C343.387 51.2073 343.285 50.7453 343.079 50.456C342.874 50.1667 342.547 50.022 342.099 50.022C341.754 50.022 341.441 50.1107 341.161 50.288C340.891 50.4653 340.583 50.7267 340.237 51.072V56H339.089ZM348.622 54.544V51.814H346.074V50.946H348.622V48.216H349.532V50.946H352.08V51.814H349.532V54.544H348.622ZM353.705 56V49.196H354.657L354.755 50.428H354.797C355.03 49.9987 355.315 49.658 355.651 49.406C355.987 49.154 356.346 49.028 356.729 49.028C356.999 49.028 357.242 49.0747 357.457 49.168L357.233 50.176C357.121 50.1387 357.018 50.1107 356.925 50.092C356.831 50.0733 356.715 50.064 356.575 50.064C356.285 50.064 355.982 50.1807 355.665 50.414C355.357 50.6473 355.086 51.0533 354.853 51.632V56H353.705ZM361.179 56.168C360.573 56.168 360.022 56.028 359.527 55.748C359.033 55.4587 358.641 55.048 358.351 54.516C358.062 53.984 357.917 53.3493 357.917 52.612C357.917 51.8653 358.062 51.226 358.351 50.694C358.65 50.162 359.033 49.7513 359.499 49.462C359.966 49.1727 360.456 49.028 360.969 49.028C361.837 49.028 362.505 49.3173 362.971 49.896C363.447 50.4747 363.685 51.2493 363.685 52.22C363.685 52.3413 363.681 52.4627 363.671 52.584C363.671 52.696 363.662 52.794 363.643 52.878H359.051C359.098 53.5967 359.322 54.1707 359.723 54.6C360.134 55.0293 360.666 55.244 361.319 55.244C361.646 55.244 361.945 55.1973 362.215 55.104C362.495 55.0013 362.761 54.8707 363.013 54.712L363.419 55.468C363.13 55.6547 362.799 55.818 362.425 55.958C362.061 56.098 361.646 56.168 361.179 56.168ZM359.037 52.052H362.677C362.677 51.3613 362.528 50.8387 362.229 50.484C361.94 50.12 361.529 49.938 360.997 49.938C360.521 49.938 360.092 50.1247 359.709 50.498C359.336 50.862 359.112 51.38 359.037 52.052ZM367.145 56.168C366.659 56.168 366.197 56.0793 365.759 55.902C365.32 55.7153 364.937 55.4913 364.611 55.23L365.185 54.46C365.483 54.6933 365.791 54.8893 366.109 55.048C366.426 55.1973 366.785 55.272 367.187 55.272C367.635 55.272 367.971 55.1693 368.195 54.964C368.419 54.7493 368.531 54.4973 368.531 54.208C368.531 53.9747 368.451 53.7787 368.293 53.62C368.143 53.4613 367.947 53.3307 367.705 53.228C367.471 53.116 367.229 53.0133 366.977 52.92C366.659 52.7987 366.347 52.6633 366.039 52.514C365.731 52.3553 365.479 52.1547 365.283 51.912C365.087 51.66 364.989 51.3427 364.989 50.96C364.989 50.4093 365.194 49.952 365.605 49.588C366.025 49.2147 366.603 49.028 367.341 49.028C367.761 49.028 368.153 49.1027 368.517 49.252C368.881 49.4013 369.193 49.5833 369.455 49.798L368.895 50.526C368.661 50.3487 368.419 50.204 368.167 50.092C367.915 49.98 367.639 49.924 367.341 49.924C366.911 49.924 366.594 50.022 366.389 50.218C366.193 50.414 366.095 50.6427 366.095 50.904C366.095 51.1187 366.165 51.296 366.305 51.436C366.445 51.5667 366.627 51.6833 366.851 51.786C367.075 51.8793 367.313 51.9773 367.565 52.08C367.891 52.2013 368.213 52.3413 368.531 52.5C368.848 52.6493 369.109 52.8547 369.315 53.116C369.529 53.368 369.637 53.7087 369.637 54.138C369.637 54.502 369.539 54.838 369.343 55.146C369.156 55.454 368.876 55.7013 368.503 55.888C368.139 56.0747 367.686 56.168 367.145 56.168ZM371.232 56V49.196H372.38V56H371.232ZM371.82 47.796C371.596 47.796 371.409 47.7307 371.26 47.6C371.12 47.46 371.05 47.2733 371.05 47.04C371.05 46.816 371.12 46.634 371.26 46.494C371.409 46.354 371.596 46.284 371.82 46.284C372.044 46.284 372.226 46.354 372.366 46.494C372.515 46.634 372.59 46.816 372.59 47.04C372.59 47.2733 372.515 47.46 372.366 47.6C372.226 47.7307 372.044 47.796 371.82 47.796ZM377.001 56.168C376.152 56.168 375.471 55.86 374.957 55.244C374.444 54.6187 374.187 53.7413 374.187 52.612C374.187 51.8747 374.323 51.24 374.593 50.708C374.873 50.1667 375.237 49.7513 375.685 49.462C376.143 49.1727 376.628 49.028 377.141 49.028C377.533 49.028 377.874 49.098 378.163 49.238C378.453 49.378 378.747 49.5693 379.045 49.812L378.989 48.65V46.032H380.151V56H379.199L379.101 55.202H379.059C378.798 55.4633 378.49 55.692 378.135 55.888C377.781 56.0747 377.403 56.168 377.001 56.168ZM377.253 55.202C377.851 55.202 378.429 54.8893 378.989 54.264V50.708C378.7 50.4467 378.42 50.2647 378.149 50.162C377.888 50.05 377.617 49.994 377.337 49.994C376.973 49.994 376.642 50.106 376.343 50.33C376.054 50.5447 375.821 50.848 375.643 51.24C375.466 51.6227 375.377 52.0753 375.377 52.598C375.377 53.41 375.541 54.0493 375.867 54.516C376.194 54.9733 376.656 55.202 377.253 55.202ZM385.201 56.168C384.594 56.168 384.044 56.028 383.549 55.748C383.054 55.4587 382.662 55.048 382.373 54.516C382.084 53.984 381.939 53.3493 381.939 52.612C381.939 51.8653 382.084 51.226 382.373 50.694C382.672 50.162 383.054 49.7513 383.521 49.462C383.988 49.1727 384.478 49.028 384.991 49.028C385.859 49.028 386.526 49.3173 386.993 49.896C387.469 50.4747 387.707 51.2493 387.707 52.22C387.707 52.3413 387.702 52.4627 387.693 52.584C387.693 52.696 387.684 52.794 387.665 52.878H383.073C383.12 53.5967 383.344 54.1707 383.745 54.6C384.156 55.0293 384.688 55.244 385.341 55.244C385.668 55.244 385.966 55.1973 386.237 55.104C386.517 55.0013 386.783 54.8707 387.035 54.712L387.441 55.468C387.152 55.6547 386.82 55.818 386.447 55.958C386.083 56.098 385.668 56.168 385.201 56.168ZM383.059 52.052H386.699C386.699 51.3613 386.55 50.8387 386.251 50.484C385.962 50.12 385.551 49.938 385.019 49.938C384.543 49.938 384.114 50.1247 383.731 50.498C383.358 50.862 383.134 51.38 383.059 52.052ZM389.388 56V49.196H390.34L390.438 50.176H390.48C390.807 49.8493 391.152 49.5787 391.516 49.364C391.88 49.14 392.296 49.028 392.762 49.028C393.481 49.028 394.004 49.2567 394.33 49.714C394.666 50.162 394.834 50.82 394.834 51.688V56H393.686V51.842C393.686 51.2073 393.584 50.7453 393.378 50.456C393.173 50.1667 392.846 50.022 392.398 50.022C392.053 50.022 391.74 50.1107 391.46 50.288C391.19 50.4653 390.882 50.7267 390.536 51.072V56H389.388ZM399.186 56.168C398.458 56.168 397.95 55.958 397.66 55.538C397.38 55.118 397.24 54.572 397.24 53.9V50.134H396.232V49.266L397.296 49.196L397.436 47.292H398.402V49.196H400.236V50.134H398.402V53.914C398.402 54.334 398.477 54.6607 398.626 54.894C398.785 55.118 399.06 55.23 399.452 55.23C399.574 55.23 399.704 55.2113 399.844 55.174C399.984 55.1273 400.11 55.0853 400.222 55.048L400.446 55.916C400.26 55.9813 400.054 56.0373 399.83 56.084C399.616 56.14 399.401 56.168 399.186 56.168ZM406.269 58.17C405.354 58.17 404.524 57.9787 403.777 57.596C403.03 57.2133 402.438 56.6487 401.999 55.902C401.56 55.1553 401.341 54.2407 401.341 53.158C401.341 52.2153 401.495 51.366 401.803 50.61C402.111 49.8447 402.536 49.1913 403.077 48.65C403.628 48.1087 404.253 47.6933 404.953 47.404C405.653 47.1053 406.395 46.956 407.179 46.956C408.122 46.956 408.934 47.152 409.615 47.544C410.306 47.9267 410.838 48.468 411.211 49.168C411.584 49.8587 411.771 50.666 411.771 51.59C411.771 52.402 411.626 53.088 411.337 53.648C411.048 54.1987 410.688 54.614 410.259 54.894C409.83 55.174 409.4 55.314 408.971 55.314C408.598 55.314 408.276 55.2253 408.005 55.048C407.734 54.8613 407.576 54.5953 407.529 54.25H407.501C407.268 54.5207 407.002 54.7493 406.703 54.936C406.404 55.1133 406.101 55.202 405.793 55.202C405.317 55.202 404.916 55.034 404.589 54.698C404.272 54.3527 404.113 53.8627 404.113 53.228C404.113 52.8547 404.174 52.4767 404.295 52.094C404.426 51.7113 404.608 51.3613 404.841 51.044C405.074 50.7267 405.354 50.47 405.681 50.274C406.017 50.078 406.39 49.98 406.801 49.98C407.044 49.98 407.258 50.036 407.445 50.148C407.641 50.2507 407.8 50.4187 407.921 50.652H407.949L408.103 50.092H408.873L408.327 52.892C408.047 53.984 408.299 54.53 409.083 54.53C409.382 54.53 409.671 54.418 409.951 54.194C410.24 53.9607 410.478 53.6293 410.665 53.2C410.861 52.7613 410.959 52.2387 410.959 51.632C410.959 50.876 410.81 50.204 410.511 49.616C410.222 49.028 409.788 48.566 409.209 48.23C408.64 47.894 407.93 47.726 407.081 47.726C406.456 47.726 405.849 47.852 405.261 48.104C404.682 48.356 404.16 48.72 403.693 49.196C403.226 49.6627 402.858 50.2273 402.587 50.89C402.316 51.5527 402.181 52.2947 402.181 53.116C402.181 54.0213 402.363 54.796 402.727 55.44C403.091 56.0747 403.586 56.56 404.211 56.896C404.846 57.232 405.56 57.4 406.353 57.4C406.782 57.4 407.188 57.3393 407.571 57.218C407.954 57.0967 408.304 56.9473 408.621 56.77L408.929 57.456C408.528 57.6987 408.103 57.876 407.655 57.988C407.216 58.1093 406.754 58.17 406.269 58.17ZM406.017 54.418C406.213 54.418 406.418 54.3527 406.633 54.222C406.848 54.0913 407.072 53.8813 407.305 53.592L407.711 51.366C407.58 51.1513 407.445 51.002 407.305 50.918C407.165 50.8247 407.002 50.778 406.815 50.778C406.451 50.778 406.134 50.904 405.863 51.156C405.602 51.408 405.396 51.716 405.247 52.08C405.107 52.444 405.037 52.8033 405.037 53.158C405.037 53.606 405.13 53.928 405.317 54.124C405.504 54.32 405.737 54.418 406.017 54.418ZM416.316 56.168C415.719 56.168 415.178 56.028 414.692 55.748C414.207 55.468 413.824 55.062 413.544 54.53C413.264 53.998 413.124 53.3587 413.124 52.612C413.124 51.8467 413.274 51.198 413.572 50.666C413.88 50.134 414.282 49.728 414.776 49.448C415.28 49.168 415.822 49.028 416.4 49.028C416.848 49.028 417.231 49.1073 417.548 49.266C417.875 49.4247 418.155 49.6113 418.388 49.826L417.8 50.582C417.604 50.4047 417.394 50.26 417.17 50.148C416.956 50.036 416.713 49.98 416.442 49.98C416.032 49.98 415.663 50.092 415.336 50.316C415.019 50.5307 414.767 50.8387 414.58 51.24C414.403 51.632 414.314 52.0893 414.314 52.612C414.314 53.3867 414.506 54.0167 414.888 54.502C415.28 54.978 415.789 55.216 416.414 55.216C416.732 55.216 417.026 55.1507 417.296 55.02C417.567 54.88 417.805 54.7167 418.01 54.53L418.514 55.3C418.206 55.5707 417.866 55.7853 417.492 55.944C417.119 56.0933 416.727 56.168 416.316 56.168ZM422.001 56.168C421.283 56.168 420.755 55.944 420.419 55.496C420.083 55.0387 419.915 54.376 419.915 53.508V49.196H421.077V53.354C421.077 53.9887 421.175 54.4507 421.371 54.74C421.577 55.0293 421.903 55.174 422.351 55.174C422.706 55.174 423.019 55.0853 423.289 54.908C423.569 54.7213 423.868 54.4273 424.185 54.026V49.196H425.333V56H424.381L424.283 54.936H424.241C423.924 55.3093 423.588 55.608 423.233 55.832C422.879 56.056 422.468 56.168 422.001 56.168ZM430.638 56.168C430.321 56.168 429.99 56.0933 429.644 55.944C429.308 55.7853 428.991 55.5707 428.692 55.3H428.65L428.552 56H427.628V46.032H428.776V48.748L428.748 49.98C429.056 49.7093 429.392 49.4853 429.756 49.308C430.13 49.1213 430.503 49.028 430.876 49.028C431.763 49.028 432.435 49.3407 432.892 49.966C433.35 50.5913 433.578 51.4313 433.578 52.486C433.578 53.2607 433.438 53.9233 433.158 54.474C432.888 55.0247 432.528 55.4447 432.08 55.734C431.642 56.0233 431.161 56.168 430.638 56.168ZM430.442 55.202C431.002 55.202 431.464 54.964 431.828 54.488C432.202 54.0027 432.388 53.34 432.388 52.5C432.388 51.7533 432.248 51.1513 431.968 50.694C431.698 50.2273 431.24 49.994 430.596 49.994C430.307 49.994 430.013 50.0733 429.714 50.232C429.416 50.3907 429.103 50.6193 428.776 50.918V54.488C429.075 54.7493 429.369 54.936 429.658 55.048C429.957 55.1507 430.218 55.202 430.442 55.202ZM435.367 56V49.196H436.515V56H435.367ZM435.955 47.796C435.731 47.796 435.544 47.7307 435.395 47.6C435.255 47.46 435.185 47.2733 435.185 47.04C435.185 46.816 435.255 46.634 435.395 46.494C435.544 46.354 435.731 46.284 435.955 46.284C436.179 46.284 436.361 46.354 436.501 46.494C436.65 46.634 436.725 46.816 436.725 47.04C436.725 47.2733 436.65 47.46 436.501 47.6C436.361 47.7307 436.179 47.796 435.955 47.796ZM441.108 59.136C440.277 59.136 439.601 58.9773 439.078 58.66C438.555 58.3427 438.294 57.89 438.294 57.302C438.294 57.0127 438.383 56.7327 438.56 56.462C438.737 56.2007 438.98 55.9673 439.288 55.762V55.706C439.12 55.6033 438.975 55.4587 438.854 55.272C438.742 55.0853 438.686 54.8613 438.686 54.6C438.686 54.3107 438.765 54.0587 438.924 53.844C439.083 53.6293 439.251 53.4613 439.428 53.34V53.284C439.204 53.0973 438.999 52.8453 438.812 52.528C438.635 52.2107 438.546 51.8513 438.546 51.45C438.546 50.9553 438.663 50.526 438.896 50.162C439.129 49.798 439.442 49.518 439.834 49.322C440.226 49.126 440.651 49.028 441.108 49.028C441.295 49.028 441.472 49.0467 441.64 49.084C441.808 49.112 441.953 49.1493 442.074 49.196H444.44V50.078H443.04C443.199 50.2273 443.329 50.428 443.432 50.68C443.544 50.9227 443.6 51.1887 443.6 51.478C443.6 51.9633 443.488 52.3833 443.264 52.738C443.04 53.0927 442.741 53.368 442.368 53.564C441.995 53.7507 441.575 53.844 441.108 53.844C440.744 53.844 440.403 53.7647 440.086 53.606C439.965 53.7087 439.862 53.8253 439.778 53.956C439.694 54.0773 439.652 54.2313 439.652 54.418C439.652 54.6327 439.736 54.81 439.904 54.95C440.081 55.09 440.399 55.16 440.856 55.16H442.172C442.965 55.16 443.558 55.2907 443.95 55.552C444.351 55.804 444.552 56.2147 444.552 56.784C444.552 57.204 444.412 57.5913 444.132 57.946C443.852 58.3007 443.455 58.5853 442.942 58.8C442.429 59.024 441.817 59.136 441.108 59.136ZM441.108 53.074C441.5 53.074 441.836 52.9293 442.116 52.64C442.405 52.3413 442.55 51.9447 442.55 51.45C442.55 50.9553 442.41 50.568 442.13 50.288C441.85 50.008 441.509 49.868 441.108 49.868C440.707 49.868 440.366 50.008 440.086 50.288C439.806 50.568 439.666 50.9553 439.666 51.45C439.666 51.9447 439.806 52.3413 440.086 52.64C440.375 52.9293 440.716 53.074 441.108 53.074ZM441.276 58.338C441.929 58.338 442.452 58.1933 442.844 57.904C443.236 57.624 443.432 57.3067 443.432 56.952C443.432 56.6347 443.311 56.4153 443.068 56.294C442.835 56.1727 442.499 56.112 442.06 56.112H440.884C440.753 56.112 440.609 56.1027 440.45 56.084C440.301 56.0653 440.151 56.0373 440.002 56C439.759 56.1773 439.582 56.364 439.47 56.56C439.358 56.756 439.302 56.952 439.302 57.148C439.302 57.512 439.475 57.8013 439.82 58.016C440.175 58.2307 440.66 58.338 441.276 58.338ZM448.321 56.168C447.771 56.168 447.253 56.028 446.767 55.748C446.291 55.468 445.904 55.062 445.605 54.53C445.316 53.998 445.171 53.3587 445.171 52.612C445.171 51.8467 445.316 51.198 445.605 50.666C445.904 50.134 446.291 49.728 446.767 49.448C447.253 49.168 447.771 49.028 448.321 49.028C448.881 49.028 449.399 49.168 449.875 49.448C450.351 49.728 450.734 50.134 451.023 50.666C451.322 51.198 451.471 51.8467 451.471 52.612C451.471 53.3587 451.322 53.998 451.023 54.53C450.734 55.062 450.351 55.468 449.875 55.748C449.399 56.028 448.881 56.168 448.321 56.168ZM448.321 55.216C448.909 55.216 449.381 54.978 449.735 54.502C450.099 54.0167 450.281 53.3867 450.281 52.612C450.281 51.828 450.099 51.1933 449.735 50.708C449.381 50.2227 448.909 49.98 448.321 49.98C447.743 49.98 447.271 50.2227 446.907 50.708C446.543 51.1933 446.361 51.828 446.361 52.612C446.361 53.3867 446.543 54.0167 446.907 54.502C447.271 54.978 447.743 55.216 448.321 55.216ZM453.729 56.168C453.495 56.168 453.295 56.0887 453.127 55.93C452.968 55.762 452.889 55.552 452.889 55.3C452.889 55.0293 452.968 54.8147 453.127 54.656C453.295 54.488 453.495 54.404 453.729 54.404C453.953 54.404 454.144 54.488 454.303 54.656C454.471 54.8147 454.555 55.0293 454.555 55.3C454.555 55.552 454.471 55.762 454.303 55.93C454.144 56.0887 453.953 56.168 453.729 56.168ZM459.15 56.168C458.553 56.168 458.012 56.028 457.526 55.748C457.041 55.468 456.658 55.062 456.378 54.53C456.098 53.998 455.958 53.3587 455.958 52.612C455.958 51.8467 456.108 51.198 456.406 50.666C456.714 50.134 457.116 49.728 457.61 49.448C458.114 49.168 458.656 49.028 459.234 49.028C459.682 49.028 460.065 49.1073 460.382 49.266C460.709 49.4247 460.989 49.6113 461.222 49.826L460.634 50.582C460.438 50.4047 460.228 50.26 460.004 50.148C459.79 50.036 459.547 49.98 459.276 49.98C458.866 49.98 458.497 50.092 458.17 50.316C457.853 50.5307 457.601 50.8387 457.414 51.24C457.237 51.632 457.148 52.0893 457.148 52.612C457.148 53.3867 457.34 54.0167 457.722 54.502C458.114 54.978 458.623 55.216 459.248 55.216C459.566 55.216 459.86 55.1507 460.13 55.02C460.401 54.88 460.639 54.7167 460.844 54.53L461.348 55.3C461.04 55.5707 460.7 55.7853 460.326 55.944C459.953 56.0933 459.561 56.168 459.15 56.168ZM465.192 56.168C464.642 56.168 464.124 56.028 463.638 55.748C463.162 55.468 462.775 55.062 462.476 54.53C462.187 53.998 462.042 53.3587 462.042 52.612C462.042 51.8467 462.187 51.198 462.476 50.666C462.775 50.134 463.162 49.728 463.638 49.448C464.124 49.168 464.642 49.028 465.192 49.028C465.752 49.028 466.27 49.168 466.746 49.448C467.222 49.728 467.605 50.134 467.894 50.666C468.193 51.198 468.342 51.8467 468.342 52.612C468.342 53.3587 468.193 53.998 467.894 54.53C467.605 55.062 467.222 55.468 466.746 55.748C466.27 56.028 465.752 56.168 465.192 56.168ZM465.192 55.216C465.78 55.216 466.252 54.978 466.606 54.502C466.97 54.0167 467.152 53.3867 467.152 52.612C467.152 51.828 466.97 51.1933 466.606 50.708C466.252 50.2227 465.78 49.98 465.192 49.98C464.614 49.98 464.142 50.2227 463.778 50.708C463.414 51.1933 463.232 51.828 463.232 52.612C463.232 53.3867 463.414 54.0167 463.778 54.502C464.142 54.978 464.614 55.216 465.192 55.216ZM470.134 56V49.196H471.086L471.184 50.176H471.226C471.525 49.8493 471.852 49.5787 472.206 49.364C472.561 49.14 472.939 49.028 473.34 49.028C473.863 49.028 474.269 49.1447 474.558 49.378C474.857 49.602 475.076 49.9193 475.216 50.33C475.571 49.9473 475.93 49.6347 476.294 49.392C476.658 49.1493 477.046 49.028 477.456 49.028C478.156 49.028 478.674 49.2567 479.01 49.714C479.356 50.162 479.528 50.82 479.528 51.688V56H478.38V51.842C478.38 51.2073 478.278 50.7453 478.072 50.456C477.867 50.1667 477.55 50.022 477.12 50.022C476.616 50.022 476.047 50.372 475.412 51.072V56H474.264V51.842C474.264 51.2073 474.162 50.7453 473.956 50.456C473.751 50.1667 473.429 50.022 472.99 50.022C472.486 50.022 471.917 50.372 471.282 51.072V56H470.134Z" fill="#354052"/>
<rect x="680.5" y="38.5" width="26" height="26" rx="13" stroke="#E6EAEE"/>
<g clip-path="url(#clip0_1164_9278)">
<path d="M689.322 55.7875L690.034 55.076L688.2 53.229L687.489 53.9405V54.7887H688.488V55.7875H689.322ZM693.413 48.5225C693.413 48.4131 693.358 48.3584 693.249 48.3584C693.194 48.3584 693.148 48.3766 693.112 48.4131L688.871 52.6544C688.834 52.6909 688.816 52.7319 688.816 52.7775C688.816 52.8961 688.875 52.9554 688.994 52.9554C689.048 52.9554 689.094 52.9372 689.131 52.9007L693.358 48.6594C693.395 48.6229 693.413 48.5773 693.413 48.5225ZM692.989 47.0312L696.245 50.2738L689.746 56.7863H686.49V53.53L692.989 47.0312ZM698.338 47.7837C698.338 48.0574 698.243 48.29 698.051 48.4815L696.751 49.7813L693.495 46.525L694.795 45.239C694.977 45.0383 695.21 44.938 695.493 44.938C695.775 44.938 696.012 45.0383 696.204 45.239L698.051 47.0723C698.243 47.273 698.338 47.5101 698.338 47.7837Z" fill="#828A97"/>
</g>
<defs>
<clipPath id="clip0_1164_9278">
<rect width="14.01" height="14.44" fill="white" transform="matrix(1 0 0 -1 686.49 58)"/>
</clipPath>
</defs>
</svg>
