<svg width="766" height="103" viewBox="0 0 766 103" fill="none" xmlns="http://www.w3.org/2000/svg">
<rect width="766" height="103" rx="5" fill="#FAFAFA"/>
<rect width="726" height="65" transform="translate(19 19)" fill="white"/>
<mask id="path-2-inside-1_1164_9280" fill="white">
<path d="M44 19H537V84H44V19Z"/>
</mask>
<path d="M44 19H537V84H44V19Z" fill="white"/>
<path d="M537 83H44V85H537V83Z" fill="#E6EAEE" mask="url(#path-2-inside-1_1164_9280)"/>
<path d="M55.162 45.5V36.344H60.678V37.716H56.786V40.054H60.076V41.426H56.786V44.128H60.818V45.5H55.162ZM62.5552 45.5V38.626H63.8852L63.9972 39.564H64.0532C64.3425 39.256 64.6552 38.9947 64.9912 38.78C65.3365 38.5653 65.7239 38.458 66.1532 38.458C66.6572 38.458 67.0585 38.57 67.3572 38.794C67.6652 39.0087 67.8985 39.3073 68.0572 39.69C68.3839 39.3353 68.7245 39.0413 69.0792 38.808C69.4432 38.5747 69.8399 38.458 70.2692 38.458C70.9972 38.458 71.5339 38.696 71.8792 39.172C72.2245 39.648 72.3972 40.32 72.3972 41.188V45.5H70.7732V41.398C70.7732 40.8287 70.6845 40.4273 70.5072 40.194C70.3392 39.9607 70.0779 39.844 69.7232 39.844C69.2939 39.844 68.8132 40.1287 68.2812 40.698V45.5H66.6712V41.398C66.6712 40.8287 66.5825 40.4273 66.4052 40.194C66.2372 39.9607 65.9712 39.844 65.6072 39.844C65.1779 39.844 64.6972 40.1287 64.1652 40.698V45.5H62.5552ZM76.02 45.668C75.4227 45.668 74.9327 45.4813 74.55 45.108C74.1767 44.7347 73.99 44.2493 73.99 43.652C73.99 42.9147 74.312 42.3453 74.956 41.944C75.6 41.5333 76.6267 41.2533 78.036 41.104C78.0267 40.74 77.9287 40.4273 77.742 40.166C77.5647 39.8953 77.2427 39.76 76.776 39.76C76.44 39.76 76.1087 39.8253 75.782 39.956C75.4647 40.0867 75.152 40.2453 74.844 40.432L74.256 39.354C74.6387 39.1113 75.068 38.9013 75.544 38.724C76.0294 38.5467 76.5427 38.458 77.084 38.458C77.9427 38.458 78.582 38.7147 79.002 39.228C79.4314 39.732 79.646 40.4647 79.646 41.426V45.5H78.316L78.204 44.744H78.148C77.84 45.0053 77.5087 45.2247 77.154 45.402C76.8087 45.5793 76.4307 45.668 76.02 45.668ZM76.538 44.408C76.818 44.408 77.07 44.3427 77.294 44.212C77.5274 44.072 77.7747 43.8853 78.036 43.652V42.112C77.1027 42.2333 76.454 42.4153 76.09 42.658C75.726 42.8913 75.544 43.1807 75.544 43.526C75.544 43.834 75.6374 44.058 75.824 44.198C76.0107 44.338 76.2487 44.408 76.538 44.408ZM81.5728 45.5V38.626H83.1828V45.5H81.5728ZM82.3848 37.422C82.0954 37.422 81.8621 37.338 81.6848 37.17C81.5074 37.002 81.4188 36.778 81.4188 36.498C81.4188 36.2273 81.5074 36.008 81.6848 35.84C81.8621 35.672 82.0954 35.588 82.3848 35.588C82.6741 35.588 82.9074 35.672 83.0848 35.84C83.2621 36.008 83.3508 36.2273 83.3508 36.498C83.3508 36.778 83.2621 37.002 83.0848 37.17C82.9074 37.338 82.6741 37.422 82.3848 37.422ZM86.8048 45.668C86.2355 45.668 85.8295 45.4953 85.5868 45.15C85.3535 44.8047 85.2368 44.3333 85.2368 43.736V35.616H86.8468V43.82C86.8468 44.016 86.8842 44.156 86.9588 44.24C87.0335 44.3147 87.1128 44.352 87.1968 44.352C87.2342 44.352 87.2668 44.352 87.2948 44.352C87.3322 44.3427 87.3835 44.3333 87.4488 44.324L87.6588 45.528C87.5655 45.5653 87.4442 45.598 87.2948 45.626C87.1548 45.654 86.9915 45.668 86.8048 45.668Z" fill="#576372"/>
<path d="M58.732 66.668C57.9667 66.668 57.2807 66.4813 56.674 66.108C56.0767 65.7253 55.6007 65.1793 55.246 64.47C54.9007 63.7607 54.728 62.9067 54.728 61.908C54.728 60.9187 54.9053 60.0693 55.26 59.36C55.6147 58.6507 56.1 58.1047 56.716 57.722C57.332 57.3393 58.0273 57.148 58.802 57.148C59.362 57.148 59.8567 57.2647 60.286 57.498C60.7153 57.722 61.0607 57.9833 61.322 58.282L60.692 59.038C60.4493 58.7767 60.174 58.5667 59.866 58.408C59.558 58.2493 59.208 58.17 58.816 58.17C58.2373 58.17 57.7287 58.324 57.29 58.632C56.8607 58.9307 56.5247 59.3553 56.282 59.906C56.0487 60.4567 55.932 61.1147 55.932 61.88C55.932 62.6453 56.0487 63.3127 56.282 63.882C56.5153 64.442 56.842 64.876 57.262 65.184C57.6913 65.492 58.1953 65.646 58.774 65.646C59.2127 65.646 59.6047 65.5527 59.95 65.366C60.2953 65.1793 60.6127 64.9273 60.902 64.61L61.546 65.338C61.182 65.758 60.7713 66.0847 60.314 66.318C59.8567 66.5513 59.3293 66.668 58.732 66.668ZM65.792 66.668C65.2414 66.668 64.7234 66.528 64.238 66.248C63.762 65.968 63.3747 65.562 63.076 65.03C62.7867 64.498 62.642 63.8587 62.642 63.112C62.642 62.3467 62.7867 61.698 63.076 61.166C63.3747 60.634 63.762 60.228 64.238 59.948C64.7234 59.668 65.2414 59.528 65.792 59.528C66.352 59.528 66.87 59.668 67.346 59.948C67.822 60.228 68.2047 60.634 68.494 61.166C68.7927 61.698 68.942 62.3467 68.942 63.112C68.942 63.8587 68.7927 64.498 68.494 65.03C68.2047 65.562 67.822 65.968 67.346 66.248C66.87 66.528 66.352 66.668 65.792 66.668ZM65.792 65.716C66.38 65.716 66.8514 65.478 67.206 65.002C67.57 64.5167 67.752 63.8867 67.752 63.112C67.752 62.328 67.57 61.6933 67.206 61.208C66.8514 60.7227 66.38 60.48 65.792 60.48C65.2134 60.48 64.742 60.7227 64.378 61.208C64.014 61.6933 63.832 62.328 63.832 63.112C63.832 63.8867 64.014 64.5167 64.378 65.002C64.742 65.478 65.2134 65.716 65.792 65.716ZM70.7339 66.5V59.696H71.6859L71.7839 60.676H71.8259C72.1246 60.3493 72.4513 60.0787 72.8059 59.864C73.1606 59.64 73.5386 59.528 73.9399 59.528C74.4626 59.528 74.8686 59.6447 75.1579 59.878C75.4566 60.102 75.6759 60.4193 75.8159 60.83C76.1706 60.4473 76.5299 60.1347 76.8939 59.892C77.2579 59.6493 77.6453 59.528 78.0559 59.528C78.7559 59.528 79.2739 59.7567 79.6099 60.214C79.9553 60.662 80.1279 61.32 80.1279 62.188V66.5H78.9799V62.342C78.9799 61.7073 78.8773 61.2453 78.6719 60.956C78.4666 60.6667 78.1493 60.522 77.7199 60.522C77.2159 60.522 76.6466 60.872 76.0119 61.572V66.5H74.8639V62.342C74.8639 61.7073 74.7613 61.2453 74.5559 60.956C74.3506 60.6667 74.0286 60.522 73.5899 60.522C73.0859 60.522 72.5166 60.872 71.8819 61.572V66.5H70.7339ZM82.3414 66.5V59.696H83.2934L83.3914 60.676H83.4334C83.732 60.3493 84.0587 60.0787 84.4134 59.864C84.768 59.64 85.146 59.528 85.5474 59.528C86.07 59.528 86.476 59.6447 86.7654 59.878C87.064 60.102 87.2834 60.4193 87.4234 60.83C87.778 60.4473 88.1374 60.1347 88.5014 59.892C88.8654 59.6493 89.2527 59.528 89.6634 59.528C90.3634 59.528 90.8814 59.7567 91.2174 60.214C91.5627 60.662 91.7354 61.32 91.7354 62.188V66.5H90.5874V62.342C90.5874 61.7073 90.4847 61.2453 90.2794 60.956C90.074 60.6667 89.7567 60.522 89.3274 60.522C88.8234 60.522 88.254 60.872 87.6194 61.572V66.5H86.4714V62.342C86.4714 61.7073 86.3687 61.2453 86.1634 60.956C85.958 60.6667 85.636 60.522 85.1974 60.522C84.6934 60.522 84.124 60.872 83.4894 61.572V66.5H82.3414ZM95.9368 66.668C95.2181 66.668 94.6908 66.444 94.3548 65.996C94.0188 65.5387 93.8508 64.876 93.8508 64.008V59.696H95.0128V63.854C95.0128 64.4887 95.1108 64.9507 95.3068 65.24C95.5121 65.5293 95.8388 65.674 96.2868 65.674C96.6414 65.674 96.9541 65.5853 97.2248 65.408C97.5048 65.2213 97.8034 64.9273 98.1208 64.526V59.696H99.2688V66.5H98.3168L98.2188 65.436H98.1768C97.8594 65.8093 97.5234 66.108 97.1688 66.332C96.8141 66.556 96.4034 66.668 95.9368 66.668ZM101.564 66.5V59.696H102.516L102.614 60.676H102.656C102.983 60.3493 103.328 60.0787 103.692 59.864C104.056 59.64 104.471 59.528 104.938 59.528C105.657 59.528 106.179 59.7567 106.506 60.214C106.842 60.662 107.01 61.32 107.01 62.188V66.5H105.862V62.342C105.862 61.7073 105.759 61.2453 105.554 60.956C105.349 60.6667 105.022 60.522 104.574 60.522C104.229 60.522 103.916 60.6107 103.636 60.788C103.365 60.9653 103.057 61.2267 102.712 61.572V66.5H101.564ZM109.22 66.5V59.696H110.368V66.5H109.22ZM109.808 58.296C109.584 58.296 109.398 58.2307 109.248 58.1C109.108 57.96 109.038 57.7733 109.038 57.54C109.038 57.316 109.108 57.134 109.248 56.994C109.398 56.854 109.584 56.784 109.808 56.784C110.032 56.784 110.214 56.854 110.354 56.994C110.504 57.134 110.578 57.316 110.578 57.54C110.578 57.7733 110.504 57.96 110.354 58.1C110.214 58.2307 110.032 58.296 109.808 58.296ZM114.808 66.668C114.08 66.668 113.571 66.458 113.282 66.038C113.002 65.618 112.862 65.072 112.862 64.4V60.634H111.854V59.766L112.918 59.696L113.058 57.792H114.024V59.696H115.858V60.634H114.024V64.414C114.024 64.834 114.098 65.1607 114.248 65.394C114.406 65.618 114.682 65.73 115.074 65.73C115.195 65.73 115.326 65.7113 115.466 65.674C115.606 65.6273 115.732 65.5853 115.844 65.548L116.068 66.416C115.881 66.4813 115.676 66.5373 115.452 66.584C115.237 66.64 115.022 66.668 114.808 66.668ZM117.508 69.426C117.359 69.426 117.214 69.412 117.074 69.384C116.943 69.356 116.822 69.3233 116.71 69.286L116.934 68.376C117.009 68.3947 117.093 68.4133 117.186 68.432C117.279 68.46 117.368 68.474 117.452 68.474C117.835 68.474 118.152 68.334 118.404 68.054C118.656 67.7833 118.852 67.438 118.992 67.018L119.146 66.514L116.416 59.696H117.606L118.992 63.462C119.095 63.7513 119.202 64.064 119.314 64.4C119.435 64.736 119.547 65.0627 119.65 65.38H119.706C119.809 65.072 119.907 64.75 120 64.414C120.093 64.078 120.187 63.7607 120.28 63.462L121.498 59.696H122.618L120.056 67.06C119.897 67.508 119.706 67.9093 119.482 68.264C119.267 68.6187 118.997 68.8987 118.67 69.104C118.353 69.3187 117.965 69.426 117.508 69.426ZM126.846 66.5V57.316H132.138V58.296H128.008V61.18H131.494V62.174H128.008V65.506H132.278V66.5H126.846ZM134.117 66.5V59.696H135.069L135.167 60.676H135.209C135.535 60.3493 135.881 60.0787 136.245 59.864C136.609 59.64 137.024 59.528 137.491 59.528C138.209 59.528 138.732 59.7567 139.059 60.214C139.395 60.662 139.563 61.32 139.563 62.188V66.5H138.415V62.342C138.415 61.7073 138.312 61.2453 138.107 60.956C137.901 60.6667 137.575 60.522 137.127 60.522C136.781 60.522 136.469 60.6107 136.189 60.788C135.918 60.9653 135.61 61.2267 135.265 61.572V66.5H134.117ZM144.069 69.636C143.238 69.636 142.562 69.4773 142.039 69.16C141.516 68.8427 141.255 68.39 141.255 67.802C141.255 67.5127 141.344 67.2327 141.521 66.962C141.698 66.7007 141.941 66.4673 142.249 66.262V66.206C142.081 66.1033 141.936 65.9587 141.815 65.772C141.703 65.5853 141.647 65.3613 141.647 65.1C141.647 64.8107 141.726 64.5587 141.885 64.344C142.044 64.1293 142.212 63.9613 142.389 63.84V63.784C142.165 63.5973 141.96 63.3453 141.773 63.028C141.596 62.7107 141.507 62.3513 141.507 61.95C141.507 61.4553 141.624 61.026 141.857 60.662C142.09 60.298 142.403 60.018 142.795 59.822C143.187 59.626 143.612 59.528 144.069 59.528C144.256 59.528 144.433 59.5467 144.601 59.584C144.769 59.612 144.914 59.6493 145.035 59.696H147.401V60.578H146.001C146.16 60.7273 146.29 60.928 146.393 61.18C146.505 61.4227 146.561 61.6887 146.561 61.978C146.561 62.4633 146.449 62.8833 146.225 63.238C146.001 63.5927 145.702 63.868 145.329 64.064C144.956 64.2507 144.536 64.344 144.069 64.344C143.705 64.344 143.364 64.2647 143.047 64.106C142.926 64.2087 142.823 64.3253 142.739 64.456C142.655 64.5773 142.613 64.7313 142.613 64.918C142.613 65.1327 142.697 65.31 142.865 65.45C143.042 65.59 143.36 65.66 143.817 65.66H145.133C145.926 65.66 146.519 65.7907 146.911 66.052C147.312 66.304 147.513 66.7147 147.513 67.284C147.513 67.704 147.373 68.0913 147.093 68.446C146.813 68.8007 146.416 69.0853 145.903 69.3C145.39 69.524 144.778 69.636 144.069 69.636ZM144.069 63.574C144.461 63.574 144.797 63.4293 145.077 63.14C145.366 62.8413 145.511 62.4447 145.511 61.95C145.511 61.4553 145.371 61.068 145.091 60.788C144.811 60.508 144.47 60.368 144.069 60.368C143.668 60.368 143.327 60.508 143.047 60.788C142.767 61.068 142.627 61.4553 142.627 61.95C142.627 62.4447 142.767 62.8413 143.047 63.14C143.336 63.4293 143.677 63.574 144.069 63.574ZM144.237 68.838C144.89 68.838 145.413 68.6933 145.805 68.404C146.197 68.124 146.393 67.8067 146.393 67.452C146.393 67.1347 146.272 66.9153 146.029 66.794C145.796 66.6727 145.46 66.612 145.021 66.612H143.845C143.714 66.612 143.57 66.6027 143.411 66.584C143.262 66.5653 143.112 66.5373 142.963 66.5C142.72 66.6773 142.543 66.864 142.431 67.06C142.319 67.256 142.263 67.452 142.263 67.648C142.263 68.012 142.436 68.3013 142.781 68.516C143.136 68.7307 143.621 68.838 144.237 68.838ZM150.177 66.668C149.608 66.668 149.132 66.5 148.749 66.164C148.376 65.8187 148.189 65.3427 148.189 64.736C148.189 63.9893 148.52 63.42 149.183 63.028C149.855 62.6267 150.914 62.3467 152.361 62.188C152.361 61.8987 152.319 61.6233 152.235 61.362C152.16 61.1007 152.02 60.8907 151.815 60.732C151.619 60.564 151.334 60.48 150.961 60.48C150.569 60.48 150.2 60.5547 149.855 60.704C149.51 60.8533 149.202 61.0213 148.931 61.208L148.483 60.41C148.8 60.2047 149.188 60.0087 149.645 59.822C150.112 59.626 150.616 59.528 151.157 59.528C151.988 59.528 152.59 59.7847 152.963 60.298C153.336 60.802 153.523 61.4787 153.523 62.328V66.5H152.571L152.473 65.688H152.431C152.114 65.9493 151.764 66.178 151.381 66.374C151.008 66.57 150.606 66.668 150.177 66.668ZM150.513 65.744C150.84 65.744 151.148 65.6647 151.437 65.506C151.726 65.3473 152.034 65.1233 152.361 64.834V62.944C151.232 63.084 150.438 63.294 149.981 63.574C149.533 63.854 149.309 64.2133 149.309 64.652C149.309 65.0347 149.426 65.3147 149.659 65.492C149.892 65.66 150.177 65.744 150.513 65.744ZM157.96 69.636C157.129 69.636 156.452 69.4773 155.93 69.16C155.407 68.8427 155.146 68.39 155.146 67.802C155.146 67.5127 155.234 67.2327 155.412 66.962C155.589 66.7007 155.832 66.4673 156.14 66.262V66.206C155.972 66.1033 155.827 65.9587 155.706 65.772C155.594 65.5853 155.538 65.3613 155.538 65.1C155.538 64.8107 155.617 64.5587 155.776 64.344C155.934 64.1293 156.102 63.9613 156.28 63.84V63.784C156.056 63.5973 155.85 63.3453 155.664 63.028C155.486 62.7107 155.398 62.3513 155.398 61.95C155.398 61.4553 155.514 61.026 155.748 60.662C155.981 60.298 156.294 60.018 156.686 59.822C157.078 59.626 157.502 59.528 157.96 59.528C158.146 59.528 158.324 59.5467 158.492 59.584C158.66 59.612 158.804 59.6493 158.926 59.696H161.292V60.578H159.892C160.05 60.7273 160.181 60.928 160.284 61.18C160.396 61.4227 160.452 61.6887 160.452 61.978C160.452 62.4633 160.34 62.8833 160.116 63.238C159.892 63.5927 159.593 63.868 159.22 64.064C158.846 64.2507 158.426 64.344 157.96 64.344C157.596 64.344 157.255 64.2647 156.938 64.106C156.816 64.2087 156.714 64.3253 156.63 64.456C156.546 64.5773 156.504 64.7313 156.504 64.918C156.504 65.1327 156.588 65.31 156.756 65.45C156.933 65.59 157.25 65.66 157.708 65.66H159.024C159.817 65.66 160.41 65.7907 160.802 66.052C161.203 66.304 161.404 66.7147 161.404 67.284C161.404 67.704 161.264 68.0913 160.984 68.446C160.704 68.8007 160.307 69.0853 159.794 69.3C159.28 69.524 158.669 69.636 157.96 69.636ZM157.96 63.574C158.352 63.574 158.688 63.4293 158.968 63.14C159.257 62.8413 159.402 62.4447 159.402 61.95C159.402 61.4553 159.262 61.068 158.982 60.788C158.702 60.508 158.361 60.368 157.96 60.368C157.558 60.368 157.218 60.508 156.938 60.788C156.658 61.068 156.518 61.4553 156.518 61.95C156.518 62.4447 156.658 62.8413 156.938 63.14C157.227 63.4293 157.568 63.574 157.96 63.574ZM158.128 68.838C158.781 68.838 159.304 68.6933 159.696 68.404C160.088 68.124 160.284 67.8067 160.284 67.452C160.284 67.1347 160.162 66.9153 159.92 66.794C159.686 66.6727 159.35 66.612 158.912 66.612H157.736C157.605 66.612 157.46 66.6027 157.302 66.584C157.152 66.5653 157.003 66.5373 156.854 66.5C156.611 66.6773 156.434 66.864 156.322 67.06C156.21 67.256 156.154 67.452 156.154 67.648C156.154 68.012 156.326 68.3013 156.672 68.516C157.026 68.7307 157.512 68.838 158.128 68.838ZM165.285 66.668C164.678 66.668 164.128 66.528 163.633 66.248C163.138 65.9587 162.746 65.548 162.457 65.016C162.168 64.484 162.023 63.8493 162.023 63.112C162.023 62.3653 162.168 61.726 162.457 61.194C162.756 60.662 163.138 60.2513 163.605 59.962C164.072 59.6727 164.562 59.528 165.075 59.528C165.943 59.528 166.61 59.8173 167.077 60.396C167.553 60.9747 167.791 61.7493 167.791 62.72C167.791 62.8413 167.786 62.9627 167.777 63.084C167.777 63.196 167.768 63.294 167.749 63.378H163.157C163.204 64.0967 163.428 64.6707 163.829 65.1C164.24 65.5293 164.772 65.744 165.425 65.744C165.752 65.744 166.05 65.6973 166.321 65.604C166.601 65.5013 166.867 65.3707 167.119 65.212L167.525 65.968C167.236 66.1547 166.904 66.318 166.531 66.458C166.167 66.598 165.752 66.668 165.285 66.668ZM163.143 62.552H166.783C166.783 61.8613 166.634 61.3387 166.335 60.984C166.046 60.62 165.635 60.438 165.103 60.438C164.627 60.438 164.198 60.6247 163.815 60.998C163.442 61.362 163.218 61.88 163.143 62.552ZM169.472 66.5V59.696H170.424L170.522 60.676H170.564C170.863 60.3493 171.19 60.0787 171.544 59.864C171.899 59.64 172.277 59.528 172.678 59.528C173.201 59.528 173.607 59.6447 173.896 59.878C174.195 60.102 174.414 60.4193 174.554 60.83C174.909 60.4473 175.268 60.1347 175.632 59.892C175.996 59.6493 176.384 59.528 176.794 59.528C177.494 59.528 178.012 59.7567 178.348 60.214C178.694 60.662 178.866 61.32 178.866 62.188V66.5H177.718V62.342C177.718 61.7073 177.616 61.2453 177.41 60.956C177.205 60.6667 176.888 60.522 176.458 60.522C175.954 60.522 175.385 60.872 174.75 61.572V66.5H173.602V62.342C173.602 61.7073 173.5 61.2453 173.294 60.956C173.089 60.6667 172.767 60.522 172.328 60.522C171.824 60.522 171.255 60.872 170.62 61.572V66.5H169.472ZM183.838 66.668C183.231 66.668 182.68 66.528 182.186 66.248C181.691 65.9587 181.299 65.548 181.01 65.016C180.72 64.484 180.576 63.8493 180.576 63.112C180.576 62.3653 180.72 61.726 181.01 61.194C181.308 60.662 181.691 60.2513 182.158 59.962C182.624 59.6727 183.114 59.528 183.628 59.528C184.496 59.528 185.163 59.8173 185.63 60.396C186.106 60.9747 186.344 61.7493 186.344 62.72C186.344 62.8413 186.339 62.9627 186.33 63.084C186.33 63.196 186.32 63.294 186.302 63.378H181.71C181.756 64.0967 181.98 64.6707 182.382 65.1C182.792 65.5293 183.324 65.744 183.978 65.744C184.304 65.744 184.603 65.6973 184.874 65.604C185.154 65.5013 185.42 65.3707 185.672 65.212L186.078 65.968C185.788 66.1547 185.457 66.318 185.084 66.458C184.72 66.598 184.304 66.668 183.838 66.668ZM181.696 62.552H185.336C185.336 61.8613 185.186 61.3387 184.888 60.984C184.598 60.62 184.188 60.438 183.656 60.438C183.18 60.438 182.75 60.6247 182.368 60.998C181.994 61.362 181.77 61.88 181.696 62.552ZM188.025 66.5V59.696H188.977L189.075 60.676H189.117C189.444 60.3493 189.789 60.0787 190.153 59.864C190.517 59.64 190.932 59.528 191.399 59.528C192.118 59.528 192.64 59.7567 192.967 60.214C193.303 60.662 193.471 61.32 193.471 62.188V66.5H192.323V62.342C192.323 61.7073 192.22 61.2453 192.015 60.956C191.81 60.6667 191.483 60.522 191.035 60.522C190.69 60.522 190.377 60.6107 190.097 60.788C189.826 60.9653 189.518 61.2267 189.173 61.572V66.5H188.025ZM197.823 66.668C197.095 66.668 196.587 66.458 196.297 66.038C196.017 65.618 195.877 65.072 195.877 64.4V60.634H194.869V59.766L195.933 59.696L196.073 57.792H197.039V59.696H198.873V60.634H197.039V64.414C197.039 64.834 197.114 65.1607 197.263 65.394C197.422 65.618 197.697 65.73 198.089 65.73C198.211 65.73 198.341 65.7113 198.481 65.674C198.621 65.6273 198.747 65.5853 198.859 65.548L199.083 66.416C198.897 66.4813 198.691 66.5373 198.467 66.584C198.253 66.64 198.038 66.668 197.823 66.668ZM202.542 64.666V63.672L205.496 62.58L207.372 61.88V61.824L205.496 61.124L202.542 60.032V59.038L208.548 61.39V62.314L202.542 64.666ZM213.088 66.5V57.316H215.706C216.397 57.316 216.999 57.4 217.512 57.568C218.025 57.736 218.427 58.0207 218.716 58.422C219.005 58.814 219.15 59.346 219.15 60.018C219.15 60.9793 218.837 61.6933 218.212 62.16C217.587 62.6267 216.77 62.86 215.762 62.86H214.25V66.5H213.088ZM214.25 61.908H215.622C216.425 61.908 217.017 61.7587 217.4 61.46C217.792 61.152 217.988 60.6713 217.988 60.018C217.988 59.3553 217.783 58.898 217.372 58.646C216.971 58.3847 216.369 58.254 215.566 58.254H214.25V61.908ZM222.894 66.668C222.175 66.668 221.648 66.444 221.312 65.996C220.976 65.5387 220.808 64.876 220.808 64.008V59.696H221.97V63.854C221.97 64.4887 222.068 64.9507 222.264 65.24C222.469 65.5293 222.796 65.674 223.244 65.674C223.598 65.674 223.911 65.5853 224.182 65.408C224.462 65.2213 224.76 64.9273 225.078 64.526V59.696H226.226V66.5H225.274L225.176 65.436H225.134C224.816 65.8093 224.48 66.108 224.126 66.332C223.771 66.556 223.36 66.668 222.894 66.668ZM228.521 66.5V59.696H229.473L229.571 60.928H229.613C229.846 60.4987 230.131 60.158 230.467 59.906C230.803 59.654 231.162 59.528 231.545 59.528C231.816 59.528 232.058 59.5747 232.273 59.668L232.049 60.676C231.937 60.6387 231.834 60.6107 231.741 60.592C231.648 60.5733 231.531 60.564 231.391 60.564C231.102 60.564 230.798 60.6807 230.481 60.914C230.173 61.1473 229.902 61.5533 229.669 62.132V66.5H228.521ZM233.375 69.37V59.696H234.327L234.425 60.48H234.467C234.775 60.2187 235.111 59.9947 235.475 59.808C235.848 59.6213 236.235 59.528 236.637 59.528C237.514 59.528 238.181 59.8453 238.639 60.48C239.096 61.1053 239.325 61.9453 239.325 63C239.325 63.7653 239.185 64.4233 238.905 64.974C238.634 65.5247 238.275 65.9447 237.827 66.234C237.388 66.5233 236.907 66.668 236.385 66.668C236.067 66.668 235.75 66.598 235.433 66.458C235.125 66.318 234.812 66.1267 234.495 65.884L234.523 67.074V69.37H233.375ZM236.189 65.702C236.749 65.702 237.211 65.464 237.575 64.988C237.948 64.5027 238.135 63.84 238.135 63C238.135 62.2533 237.995 61.6513 237.715 61.194C237.444 60.7273 236.987 60.494 236.343 60.494C236.053 60.494 235.759 60.5733 235.461 60.732C235.171 60.8907 234.859 61.1193 234.523 61.418V64.988C234.831 65.2493 235.129 65.436 235.419 65.548C235.708 65.6507 235.965 65.702 236.189 65.702ZM243.786 66.668C243.236 66.668 242.718 66.528 242.232 66.248C241.756 65.968 241.369 65.562 241.07 65.03C240.781 64.498 240.636 63.8587 240.636 63.112C240.636 62.3467 240.781 61.698 241.07 61.166C241.369 60.634 241.756 60.228 242.232 59.948C242.718 59.668 243.236 59.528 243.786 59.528C244.346 59.528 244.864 59.668 245.34 59.948C245.816 60.228 246.199 60.634 246.488 61.166C246.787 61.698 246.936 62.3467 246.936 63.112C246.936 63.8587 246.787 64.498 246.488 65.03C246.199 65.562 245.816 65.968 245.34 66.248C244.864 66.528 244.346 66.668 243.786 66.668ZM243.786 65.716C244.374 65.716 244.846 65.478 245.2 65.002C245.564 64.5167 245.746 63.8867 245.746 63.112C245.746 62.328 245.564 61.6933 245.2 61.208C244.846 60.7227 244.374 60.48 243.786 60.48C243.208 60.48 242.736 60.7227 242.372 61.208C242.008 61.6933 241.826 62.328 241.826 63.112C241.826 63.8867 242.008 64.5167 242.372 65.002C242.736 65.478 243.208 65.716 243.786 65.716ZM250.506 66.668C250.021 66.668 249.559 66.5793 249.12 66.402C248.681 66.2153 248.299 65.9913 247.972 65.73L248.546 64.96C248.845 65.1933 249.153 65.3893 249.47 65.548C249.787 65.6973 250.147 65.772 250.548 65.772C250.996 65.772 251.332 65.6693 251.556 65.464C251.78 65.2493 251.892 64.9973 251.892 64.708C251.892 64.4747 251.813 64.2787 251.654 64.12C251.505 63.9613 251.309 63.8307 251.066 63.728C250.833 63.616 250.59 63.5133 250.338 63.42C250.021 63.2987 249.708 63.1633 249.4 63.014C249.092 62.8553 248.84 62.6547 248.644 62.412C248.448 62.16 248.35 61.8427 248.35 61.46C248.35 60.9093 248.555 60.452 248.966 60.088C249.386 59.7147 249.965 59.528 250.702 59.528C251.122 59.528 251.514 59.6027 251.878 59.752C252.242 59.9013 252.555 60.0833 252.816 60.298L252.256 61.026C252.023 60.8487 251.78 60.704 251.528 60.592C251.276 60.48 251.001 60.424 250.702 60.424C250.273 60.424 249.955 60.522 249.75 60.718C249.554 60.914 249.456 61.1427 249.456 61.404C249.456 61.6187 249.526 61.796 249.666 61.936C249.806 62.0667 249.988 62.1833 250.212 62.286C250.436 62.3793 250.674 62.4773 250.926 62.58C251.253 62.7013 251.575 62.8413 251.892 63C252.209 63.1493 252.471 63.3547 252.676 63.616C252.891 63.868 252.998 64.2087 252.998 64.638C252.998 65.002 252.9 65.338 252.704 65.646C252.517 65.954 252.237 66.2013 251.864 66.388C251.5 66.5747 251.047 66.668 250.506 66.668ZM257.351 66.668C256.745 66.668 256.194 66.528 255.699 66.248C255.205 65.9587 254.813 65.548 254.523 65.016C254.234 64.484 254.089 63.8493 254.089 63.112C254.089 62.3653 254.234 61.726 254.523 61.194C254.822 60.662 255.205 60.2513 255.671 59.962C256.138 59.6727 256.628 59.528 257.141 59.528C258.009 59.528 258.677 59.8173 259.143 60.396C259.619 60.9747 259.857 61.7493 259.857 62.72C259.857 62.8413 259.853 62.9627 259.843 63.084C259.843 63.196 259.834 63.294 259.815 63.378H255.223C255.27 64.0967 255.494 64.6707 255.895 65.1C256.306 65.5293 256.838 65.744 257.491 65.744C257.818 65.744 258.117 65.6973 258.387 65.604C258.667 65.5013 258.933 65.3707 259.185 65.212L259.591 65.968C259.302 66.1547 258.971 66.318 258.597 66.458C258.233 66.598 257.818 66.668 257.351 66.668ZM255.209 62.552H258.849C258.849 61.8613 258.7 61.3387 258.401 60.984C258.112 60.62 257.701 60.438 257.169 60.438C256.693 60.438 256.264 60.6247 255.881 60.998C255.508 61.362 255.284 61.88 255.209 62.552ZM261.735 66.5V60.634H260.811V59.766L261.735 59.696V58.618C261.735 57.9273 261.893 57.3813 262.211 56.98C262.537 56.5693 263.041 56.364 263.723 56.364C263.937 56.364 264.143 56.3873 264.339 56.434C264.535 56.4713 264.707 56.5227 264.857 56.588L264.605 57.47C264.353 57.358 264.096 57.302 263.835 57.302C263.2 57.302 262.883 57.7407 262.883 58.618V59.696H264.325V60.634H262.883V66.5H261.735ZM267.615 66.668C266.896 66.668 266.369 66.444 266.033 65.996C265.697 65.5387 265.529 64.876 265.529 64.008V59.696H266.691V63.854C266.691 64.4887 266.789 64.9507 266.985 65.24C267.19 65.5293 267.517 65.674 267.965 65.674C268.319 65.674 268.632 65.5853 268.903 65.408C269.183 65.2213 269.481 64.9273 269.799 64.526V59.696H270.947V66.5H269.995L269.897 65.436H269.855C269.537 65.8093 269.201 66.108 268.847 66.332C268.492 66.556 268.081 66.668 267.615 66.668ZM274.46 66.668C274.03 66.668 273.718 66.5373 273.522 66.276C273.335 66.0053 273.242 65.6227 273.242 65.128V56.532H274.39V65.212C274.39 65.3893 274.422 65.52 274.488 65.604C274.553 65.6787 274.628 65.716 274.712 65.716C274.749 65.716 274.782 65.716 274.81 65.716C274.847 65.7067 274.898 65.6973 274.964 65.688L275.118 66.556C275.043 66.5933 274.954 66.6213 274.852 66.64C274.749 66.6587 274.618 66.668 274.46 66.668Z" fill="#354052"/>
<mask id="path-6-inside-2_1164_9280" fill="white">
<path d="M537 19H720V84H537V19Z"/>
</mask>
<path d="M537 19H720V84H537V19Z" fill="white"/>
<path d="M720 83H537V85H720V83Z" fill="#E6EAEE" mask="url(#path-6-inside-2_1164_9280)"/>
<g clip-path="url(#clip0_1164_9280)">
<path d="M707 44L705.188 61.209C705.081 62.2267 704.223 62.9995 703.2 63H692.8C691.776 63 690.918 62.227 690.811 61.209L689 44" stroke="black" stroke-linecap="round" stroke-linejoin="round"/>
<path d="M686.5 44H709.5" stroke="black" stroke-linecap="round" stroke-linejoin="round"/>
<path d="M693.5 44V41C693.5 40.4477 693.948 40 694.5 40H701.5C702.052 40 702.5 40.4477 702.5 41V44" stroke="black" stroke-linecap="round" stroke-linejoin="round"/>
<path d="M698 48.5V59" stroke="black" stroke-linecap="round" stroke-linejoin="round"/>
<path d="M702.5 48.5L702 59" stroke="black" stroke-linecap="round" stroke-linejoin="round"/>
<path d="M693.5 48.5L694 59" stroke="black" stroke-linecap="round" stroke-linejoin="round"/>
</g>
<defs>
<clipPath id="clip0_1164_9280">
<rect width="24" height="24" fill="white" transform="translate(686 39.5)"/>
</clipPath>
</defs>
</svg>
