<svg width="762" height="320" viewBox="0 0 762 320" fill="none" xmlns="http://www.w3.org/2000/svg">
<rect width="762" height="320" rx="5" fill="#EBEBEB"/>
<rect x="18" y="15" width="727" height="290" rx="5" fill="white"/>
<path d="M222.842 46.862L222.408 48.262H225.166L224.732 46.862C224.564 46.3487 224.405 45.84 224.256 45.336C224.107 44.8227 223.957 44.3 223.808 43.768H223.752C223.612 44.3 223.467 44.8227 223.318 45.336C223.169 45.84 223.01 46.3487 222.842 46.862ZM220.042 52L223.15 42.816H224.466L227.574 52H226.328L225.46 49.2H222.114L221.232 52H220.042ZM230.014 52V43.796H227.242V42.816H233.962V43.796H231.19V52H230.014ZM237.519 52V43.796H234.747V42.816H241.467V43.796H238.695V52H237.519ZM244.143 46.862L243.709 48.262H246.467L246.033 46.862C245.865 46.3487 245.706 45.84 245.557 45.336C245.407 44.8227 245.258 44.3 245.109 43.768H245.053C244.913 44.3 244.768 44.8227 244.619 45.336C244.469 45.84 244.311 46.3487 244.143 46.862ZM241.343 52L244.451 42.816H245.767L248.875 52H247.629L246.761 49.2H243.415L242.533 52H241.343ZM253.511 52.168C252.746 52.168 252.06 51.9813 251.453 51.608C250.856 51.2253 250.38 50.6793 250.025 49.97C249.68 49.2607 249.507 48.4067 249.507 47.408C249.507 46.4187 249.685 45.5693 250.039 44.86C250.394 44.1507 250.879 43.6047 251.495 43.222C252.111 42.8393 252.807 42.648 253.581 42.648C254.141 42.648 254.636 42.7647 255.065 42.998C255.495 43.222 255.84 43.4833 256.101 43.782L255.471 44.538C255.229 44.2767 254.953 44.0667 254.645 43.908C254.337 43.7493 253.987 43.67 253.595 43.67C253.017 43.67 252.508 43.824 252.069 44.132C251.64 44.4307 251.304 44.8553 251.061 45.406C250.828 45.9567 250.711 46.6147 250.711 47.38C250.711 48.1453 250.828 48.8127 251.061 49.382C251.295 49.942 251.621 50.376 252.041 50.684C252.471 50.992 252.975 51.146 253.553 51.146C253.992 51.146 254.384 51.0527 254.729 50.866C255.075 50.6793 255.392 50.4273 255.681 50.11L256.325 50.838C255.961 51.258 255.551 51.5847 255.093 51.818C254.636 52.0513 254.109 52.168 253.511 52.168ZM258.037 52V42.816H259.199V46.666H263.469V42.816H264.645V52H263.469V47.674H259.199V52H258.037ZM267.17 52V42.816H268.57L270.334 47.716C270.446 48.0333 270.553 48.3553 270.656 48.682C270.768 48.9993 270.88 49.3167 270.992 49.634H271.048C271.16 49.3167 271.263 48.9993 271.356 48.682C271.459 48.3553 271.566 48.0333 271.678 47.716L273.414 42.816H274.828V52H273.736V46.946C273.736 46.5353 273.755 46.0827 273.792 45.588C273.829 45.084 273.862 44.6313 273.89 44.23H273.834L273.106 46.316L271.37 51.076H270.6L268.864 46.316L268.136 44.23H268.08C268.108 44.6313 268.136 45.084 268.164 45.588C268.201 46.0827 268.22 46.5353 268.22 46.946V52H267.17ZM277.342 52V42.816H282.634V43.796H278.504V46.68H281.99V47.674H278.504V51.006H282.774V52H277.342ZM284.725 52V42.816H285.929L289.247 48.584L290.241 50.488H290.297C290.269 50.0213 290.236 49.5407 290.199 49.046C290.171 48.542 290.157 48.0473 290.157 47.562V42.816H291.263V52H290.059L286.727 46.218L285.733 44.328H285.677C285.714 44.7853 285.747 45.2567 285.775 45.742C285.812 46.2273 285.831 46.7127 285.831 47.198V52H284.725ZM295.693 52V43.796H292.921V42.816H299.641V43.796H296.869V52H295.693ZM307.36 52.168C306.735 52.168 306.17 52.042 305.666 51.79C305.171 51.538 304.779 51.1227 304.49 50.544C304.201 49.9653 304.056 49.186 304.056 48.206V42.816H305.218V48.234C305.218 48.9713 305.311 49.5547 305.498 49.984C305.694 50.404 305.951 50.7027 306.268 50.88C306.595 51.0573 306.959 51.146 307.36 51.146C307.771 51.146 308.139 51.0573 308.466 50.88C308.793 50.7027 309.049 50.404 309.236 49.984C309.432 49.5547 309.53 48.9713 309.53 48.234V42.816H310.65V48.206C310.65 49.186 310.505 49.9653 310.216 50.544C309.927 51.1227 309.535 51.538 309.04 51.79C308.545 52.042 307.985 52.168 307.36 52.168ZM313.121 52V42.816H315.739C316.43 42.816 317.032 42.9 317.545 43.068C318.059 43.236 318.46 43.5207 318.749 43.922C319.039 44.314 319.183 44.846 319.183 45.518C319.183 46.4793 318.871 47.1933 318.245 47.66C317.62 48.1267 316.803 48.36 315.795 48.36H314.283V52H313.121ZM314.283 47.408H315.655C316.458 47.408 317.051 47.2587 317.433 46.96C317.825 46.652 318.021 46.1713 318.021 45.518C318.021 44.8553 317.816 44.398 317.405 44.146C317.004 43.8847 316.402 43.754 315.599 43.754H314.283V47.408ZM321.051 52V42.816H322.213V51.006H326.231V52H321.051ZM330.878 52.168C330.113 52.168 329.432 51.972 328.834 51.58C328.246 51.188 327.784 50.6327 327.448 49.914C327.122 49.1953 326.958 48.346 326.958 47.366C326.958 46.386 327.122 45.546 327.448 44.846C327.784 44.1367 328.246 43.5953 328.834 43.222C329.432 42.8393 330.113 42.648 330.878 42.648C331.653 42.648 332.334 42.8393 332.922 43.222C333.51 43.5953 333.972 44.1367 334.308 44.846C334.644 45.546 334.812 46.386 334.812 47.366C334.812 48.346 334.644 49.1953 334.308 49.914C333.972 50.6327 333.51 51.188 332.922 51.58C332.334 51.972 331.653 52.168 330.878 52.168ZM330.878 51.146C331.429 51.146 331.905 50.992 332.306 50.684C332.717 50.3667 333.034 49.928 333.258 49.368C333.482 48.7987 333.594 48.1313 333.594 47.366C333.594 46.2273 333.347 45.3267 332.852 44.664C332.358 44.0013 331.7 43.67 330.878 43.67C330.057 43.67 329.399 44.0013 328.904 44.664C328.41 45.3267 328.162 46.2273 328.162 47.366C328.162 48.1313 328.274 48.7987 328.498 49.368C328.722 49.928 329.04 50.3667 329.45 50.684C329.861 50.992 330.337 51.146 330.878 51.146ZM338.233 46.862L337.799 48.262H340.557L340.123 46.862C339.955 46.3487 339.796 45.84 339.647 45.336C339.497 44.8227 339.348 44.3 339.199 43.768H339.143C339.003 44.3 338.858 44.8227 338.709 45.336C338.559 45.84 338.401 46.3487 338.233 46.862ZM335.433 52L338.541 42.816H339.857L342.965 52H341.719L340.851 49.2H337.505L336.623 52H335.433ZM344.266 52V42.816H346.562C347.981 42.816 349.059 43.2127 349.796 44.006C350.533 44.79 350.902 45.91 350.902 47.366C350.902 48.8313 350.533 49.97 349.796 50.782C349.068 51.594 348.009 52 346.618 52H344.266ZM345.428 51.048H346.478C347.551 51.048 348.354 50.726 348.886 50.082C349.427 49.4287 349.698 48.5233 349.698 47.366C349.698 46.2087 349.427 45.322 348.886 44.706C348.354 44.0807 347.551 43.768 346.478 43.768H345.428V51.048ZM352.879 52V42.816H358.171V43.796H354.041V46.68H357.527V47.674H354.041V51.006H358.311V52H352.879ZM360.262 52V42.816H363.132C363.757 42.816 364.313 42.9 364.798 43.068C365.283 43.2267 365.661 43.4973 365.932 43.88C366.212 44.2533 366.352 44.7573 366.352 45.392C366.352 46.1013 366.165 46.6753 365.792 47.114C365.419 47.5433 364.915 47.8373 364.28 47.996L366.618 52H365.302L363.09 48.122H361.424V52H360.262ZM361.424 47.17H362.964C363.683 47.17 364.233 47.0253 364.616 46.736C364.999 46.4373 365.19 45.9893 365.19 45.392C365.19 44.7853 364.999 44.3607 364.616 44.118C364.233 43.8753 363.683 43.754 362.964 43.754H361.424V47.17Z" fill="black"/>
<g clip-path="url(#clip0_1505_871)">
<path d="M223.038 92.128L222.716 93.248H225.054L224.732 92.128C224.583 91.6427 224.438 91.1433 224.298 90.63C224.167 90.1167 224.037 89.608 223.906 89.104H223.85C223.729 89.6173 223.598 90.1307 223.458 90.644C223.327 91.148 223.187 91.6427 223.038 92.128ZM219.972 97L222.954 87.844H224.858L227.84 97H226.132L225.418 94.522H222.338L221.624 97H219.972ZM231.237 97.168C230.378 97.168 229.692 96.8507 229.179 96.216C228.665 95.5813 228.409 94.6993 228.409 93.57C228.409 92.8233 228.544 92.1793 228.815 91.638C229.095 91.0967 229.459 90.6813 229.907 90.392C230.355 90.1027 230.826 89.958 231.321 89.958C231.713 89.958 232.044 90.028 232.315 90.168C232.595 90.2987 232.865 90.4807 233.127 90.714L233.071 89.608V87.116H234.681V97H233.351L233.239 96.258H233.183C232.931 96.51 232.637 96.7247 232.301 96.902C231.965 97.0793 231.61 97.168 231.237 97.168ZM231.629 95.838C232.142 95.838 232.623 95.5813 233.071 95.068V91.862C232.837 91.6473 232.604 91.498 232.371 91.414C232.137 91.33 231.904 91.288 231.671 91.288C231.232 91.288 230.854 91.4887 230.537 91.89C230.229 92.282 230.075 92.8373 230.075 93.556C230.075 94.2933 230.21 94.858 230.481 95.25C230.751 95.642 231.134 95.838 231.629 95.838ZM239.139 97.168C238.28 97.168 237.594 96.8507 237.081 96.216C236.568 95.5813 236.311 94.6993 236.311 93.57C236.311 92.8233 236.446 92.1793 236.717 91.638C236.997 91.0967 237.361 90.6813 237.809 90.392C238.257 90.1027 238.728 89.958 239.223 89.958C239.615 89.958 239.946 90.028 240.217 90.168C240.497 90.2987 240.768 90.4807 241.029 90.714L240.973 89.608V87.116H242.583V97H241.253L241.141 96.258H241.085C240.833 96.51 240.539 96.7247 240.203 96.902C239.867 97.0793 239.512 97.168 239.139 97.168ZM239.531 95.838C240.044 95.838 240.525 95.5813 240.973 95.068V91.862C240.74 91.6473 240.506 91.498 240.273 91.414C240.04 91.33 239.806 91.288 239.573 91.288C239.134 91.288 238.756 91.4887 238.439 91.89C238.131 92.282 237.977 92.8373 237.977 93.556C237.977 94.2933 238.112 94.858 238.383 95.25C238.654 95.642 239.036 95.838 239.531 95.838ZM249.102 97.168C248.505 97.168 248.015 96.9813 247.632 96.608C247.259 96.2347 247.072 95.7493 247.072 95.152C247.072 94.4147 247.394 93.8453 248.038 93.444C248.682 93.0333 249.709 92.7533 251.118 92.604C251.109 92.24 251.011 91.9273 250.824 91.666C250.647 91.3953 250.325 91.26 249.858 91.26C249.522 91.26 249.191 91.3253 248.864 91.456C248.547 91.5867 248.234 91.7453 247.926 91.932L247.338 90.854C247.721 90.6113 248.15 90.4013 248.626 90.224C249.111 90.0467 249.625 89.958 250.166 89.958C251.025 89.958 251.664 90.2147 252.084 90.728C252.513 91.232 252.728 91.9647 252.728 92.926V97H251.398L251.286 96.244H251.23C250.922 96.5053 250.591 96.7247 250.236 96.902C249.891 97.0793 249.513 97.168 249.102 97.168ZM249.62 95.908C249.9 95.908 250.152 95.8427 250.376 95.712C250.609 95.572 250.857 95.3853 251.118 95.152V93.612C250.185 93.7333 249.536 93.9153 249.172 94.158C248.808 94.3913 248.626 94.6807 248.626 95.026C248.626 95.334 248.719 95.558 248.906 95.698C249.093 95.838 249.331 95.908 249.62 95.908ZM256.858 97.168C256.065 97.168 255.5 96.9393 255.164 96.482C254.837 96.0153 254.674 95.4133 254.674 94.676V91.4H253.694V90.196L254.758 90.126L254.954 88.25H256.298V90.126H258.048V91.4H256.298V94.676C256.298 95.4787 256.62 95.88 257.264 95.88C257.385 95.88 257.511 95.866 257.642 95.838C257.773 95.8007 257.885 95.7633 257.978 95.726L258.258 96.916C258.071 96.9813 257.857 97.0373 257.614 97.084C257.381 97.14 257.129 97.168 256.858 97.168ZM261.643 97.168C260.85 97.168 260.285 96.9393 259.949 96.482C259.623 96.0153 259.459 95.4133 259.459 94.676V91.4H258.479V90.196L259.543 90.126L259.739 88.25H261.083V90.126H262.833V91.4H261.083V94.676C261.083 95.4787 261.405 95.88 262.049 95.88C262.171 95.88 262.297 95.866 262.427 95.838C262.558 95.8007 262.67 95.7633 262.763 95.726L263.043 96.916C262.857 96.9813 262.642 97.0373 262.399 97.084C262.166 97.14 261.914 97.168 261.643 97.168ZM265.645 97.168C265.048 97.168 264.558 96.9813 264.175 96.608C263.802 96.2347 263.615 95.7493 263.615 95.152C263.615 94.4147 263.937 93.8453 264.581 93.444C265.225 93.0333 266.252 92.7533 267.661 92.604C267.652 92.24 267.554 91.9273 267.367 91.666C267.19 91.3953 266.868 91.26 266.401 91.26C266.065 91.26 265.734 91.3253 265.407 91.456C265.09 91.5867 264.777 91.7453 264.469 91.932L263.881 90.854C264.264 90.6113 264.693 90.4013 265.169 90.224C265.654 90.0467 266.168 89.958 266.709 89.958C267.568 89.958 268.207 90.2147 268.627 90.728C269.056 91.232 269.271 91.9647 269.271 92.926V97H267.941L267.829 96.244H267.773C267.465 96.5053 267.134 96.7247 266.779 96.902C266.434 97.0793 266.056 97.168 265.645 97.168ZM266.163 95.908C266.443 95.908 266.695 95.8427 266.919 95.712C267.152 95.572 267.4 95.3853 267.661 95.152V93.612C266.728 93.7333 266.079 93.9153 265.715 94.158C265.351 94.3913 265.169 94.6807 265.169 95.026C265.169 95.334 265.262 95.558 265.449 95.698C265.636 95.838 265.874 95.908 266.163 95.908ZM274.068 97.168C273.442 97.168 272.878 97.028 272.374 96.748C271.879 96.4587 271.482 96.048 271.184 95.516C270.894 94.9747 270.75 94.326 270.75 93.57C270.75 92.8047 270.908 92.156 271.226 91.624C271.543 91.0827 271.963 90.672 272.486 90.392C273.018 90.1027 273.587 89.958 274.194 89.958C274.632 89.958 275.015 90.0327 275.342 90.182C275.668 90.3313 275.958 90.5133 276.21 90.728L275.426 91.778C275.248 91.6193 275.066 91.498 274.88 91.414C274.693 91.3207 274.492 91.274 274.278 91.274C273.727 91.274 273.274 91.484 272.92 91.904C272.574 92.324 272.402 92.8793 272.402 93.57C272.402 94.2513 272.57 94.802 272.906 95.222C273.251 95.642 273.694 95.852 274.236 95.852C274.506 95.852 274.758 95.796 274.992 95.684C275.234 95.5627 275.454 95.4227 275.65 95.264L276.308 96.328C275.99 96.608 275.636 96.818 275.244 96.958C274.852 97.098 274.46 97.168 274.068 97.168ZM277.665 97V87.116H279.275V89.664L279.219 90.994C279.508 90.7233 279.83 90.4853 280.185 90.28C280.539 90.0653 280.95 89.958 281.417 89.958C282.154 89.958 282.691 90.196 283.027 90.672C283.363 91.148 283.531 91.82 283.531 92.688V97H281.921V92.898C281.921 92.3287 281.837 91.9273 281.669 91.694C281.501 91.4607 281.225 91.344 280.843 91.344C280.544 91.344 280.278 91.4187 280.045 91.568C279.821 91.708 279.564 91.918 279.275 92.198V97H277.665ZM285.471 97V90.126H286.801L286.913 91.064H286.969C287.259 90.756 287.571 90.4947 287.907 90.28C288.253 90.0653 288.64 89.958 289.069 89.958C289.573 89.958 289.975 90.07 290.273 90.294C290.581 90.5087 290.815 90.8073 290.973 91.19C291.3 90.8353 291.641 90.5413 291.995 90.308C292.359 90.0747 292.756 89.958 293.185 89.958C293.913 89.958 294.45 90.196 294.795 90.672C295.141 91.148 295.313 91.82 295.313 92.688V97H293.689V92.898C293.689 92.3287 293.601 91.9273 293.423 91.694C293.255 91.4607 292.994 91.344 292.639 91.344C292.21 91.344 291.729 91.6287 291.197 92.198V97H289.587V92.898C289.587 92.3287 289.499 91.9273 289.321 91.694C289.153 91.4607 288.887 91.344 288.523 91.344C288.094 91.344 287.613 91.6287 287.081 92.198V97H285.471ZM300.21 97.168C299.575 97.168 299.001 97.028 298.488 96.748C297.975 96.4587 297.569 96.048 297.27 95.516C296.971 94.9747 296.822 94.326 296.822 93.57C296.822 92.8233 296.971 92.1793 297.27 91.638C297.578 91.0967 297.975 90.6813 298.46 90.392C298.945 90.1027 299.454 89.958 299.986 89.958C300.611 89.958 301.134 90.098 301.554 90.378C301.974 90.6487 302.291 91.0313 302.506 91.526C302.721 92.0113 302.828 92.576 302.828 93.22C302.828 93.556 302.805 93.8173 302.758 94.004H298.39C298.465 94.6107 298.684 95.082 299.048 95.418C299.412 95.754 299.869 95.922 300.42 95.922C300.719 95.922 300.994 95.88 301.246 95.796C301.507 95.7027 301.764 95.5767 302.016 95.418L302.562 96.426C302.235 96.6407 301.871 96.818 301.47 96.958C301.069 97.098 300.649 97.168 300.21 97.168ZM298.376 92.912H301.428C301.428 92.38 301.311 91.9647 301.078 91.666C300.845 91.358 300.495 91.204 300.028 91.204C299.627 91.204 299.267 91.3533 298.95 91.652C298.642 91.9413 298.451 92.3613 298.376 92.912ZM304.366 97V90.126H305.696L305.808 91.05H305.864C306.172 90.7513 306.508 90.4947 306.872 90.28C307.236 90.0653 307.651 89.958 308.118 89.958C308.855 89.958 309.392 90.196 309.728 90.672C310.064 91.148 310.232 91.82 310.232 92.688V97H308.622V92.898C308.622 92.3287 308.538 91.9273 308.37 91.694C308.202 91.4607 307.926 91.344 307.544 91.344C307.245 91.344 306.979 91.4187 306.746 91.568C306.522 91.708 306.265 91.918 305.976 92.198V97H304.366ZM314.622 97.168C313.828 97.168 313.264 96.9393 312.928 96.482C312.601 96.0153 312.438 95.4133 312.438 94.676V91.4H311.458V90.196L312.522 90.126L312.718 88.25H314.062V90.126H315.812V91.4H314.062V94.676C314.062 95.4787 314.384 95.88 315.028 95.88C315.149 95.88 315.275 95.866 315.406 95.838C315.536 95.8007 315.648 95.7633 315.742 95.726L316.022 96.916C315.835 96.9813 315.62 97.0373 315.378 97.084C315.144 97.14 314.892 97.168 314.622 97.168ZM319.162 99.492C318.584 98.54 318.131 97.546 317.804 96.51C317.478 95.474 317.314 94.34 317.314 93.108C317.314 91.876 317.478 90.742 317.804 89.706C318.131 88.67 318.584 87.676 319.162 86.724L320.17 87.172C319.648 88.068 319.26 89.0247 319.008 90.042C318.756 91.0593 318.63 92.0813 318.63 93.108C318.63 94.1347 318.756 95.1567 319.008 96.174C319.26 97.1913 319.648 98.148 320.17 99.044L319.162 99.492ZM323.715 97.168C323.249 97.168 322.782 97.0793 322.315 96.902C321.849 96.7153 321.447 96.4867 321.111 96.216L321.867 95.18C322.175 95.4133 322.483 95.6 322.791 95.74C323.099 95.88 323.426 95.95 323.771 95.95C324.145 95.95 324.42 95.8707 324.597 95.712C324.775 95.5533 324.863 95.3573 324.863 95.124C324.863 94.928 324.789 94.7693 324.639 94.648C324.499 94.5173 324.317 94.4053 324.093 94.312C323.869 94.2093 323.636 94.1113 323.393 94.018C323.095 93.906 322.796 93.7707 322.497 93.612C322.208 93.444 321.97 93.234 321.783 92.982C321.597 92.7207 321.503 92.3987 321.503 92.016C321.503 91.4093 321.727 90.9147 322.175 90.532C322.623 90.1493 323.23 89.958 323.995 89.958C324.481 89.958 324.915 90.042 325.297 90.21C325.68 90.378 326.011 90.5693 326.291 90.784L325.549 91.764C325.307 91.5867 325.059 91.4467 324.807 91.344C324.565 91.232 324.308 91.176 324.037 91.176C323.692 91.176 323.435 91.2507 323.267 91.4C323.099 91.54 323.015 91.7173 323.015 91.932C323.015 92.2027 323.155 92.408 323.435 92.548C323.715 92.688 324.042 92.8233 324.415 92.954C324.733 93.066 325.041 93.206 325.339 93.374C325.638 93.5327 325.885 93.7427 326.081 94.004C326.287 94.2653 326.389 94.6107 326.389 95.04C326.389 95.628 326.161 96.132 325.703 96.552C325.246 96.9627 324.583 97.168 323.715 97.168ZM328.415 99.492L327.407 99.044C327.929 98.148 328.317 97.1913 328.569 96.174C328.821 95.1567 328.947 94.1347 328.947 93.108C328.947 92.0813 328.821 91.0593 328.569 90.042C328.317 89.0247 327.929 88.068 327.407 87.172L328.415 86.724C328.993 87.676 329.446 88.67 329.773 89.706C330.099 90.742 330.263 91.876 330.263 93.108C330.263 94.34 330.099 95.474 329.773 96.51C329.446 97.546 328.993 98.54 328.415 99.492Z" fill="#7F8FA4"/>
<path d="M220.799 114.812C220.799 112.879 222.366 111.312 224.299 111.312H538.523C540.456 111.312 542.023 112.879 542.023 114.812V231.266C542.023 233.199 540.456 234.766 538.523 234.766H224.299C222.366 234.766 220.799 233.199 220.799 231.266V114.812Z" fill="white" stroke="#EAEDF3"/>
<path fill-rule="evenodd" clip-rule="evenodd" d="M396.593 153.934C395.837 153.613 395.425 152.901 395.542 152.171C395.833 150.368 395.595 148.418 394.476 146.371C392.755 143.225 389.343 140.909 385.405 140.459C380.622 139.913 376.31 141.88 373.928 145.063C373.332 145.86 372.073 146.015 371.183 145.471C369.223 144.274 366.663 143.795 363.944 144.513C362.481 144.899 361.219 145.679 360.225 146.697C358.187 148.784 357.98 150.672 358.2 152.242C358.312 153.039 357.796 153.791 357.001 154.186C353.851 155.753 351.772 158.779 352.007 162.235C352.325 166.888 357.04 170.38 362.343 170.38H370.935C372.582 170.38 374.308 169.824 374.308 168.376V165.376C374.308 164.729 372.815 164.376 372.078 164.376L369.674 164.361C368.86 164.361 368.416 163.486 368.936 162.909L376.537 154.376C377.069 153.816 378.236 153.816 378.767 154.376L386.334 162.909C386.856 163.486 386.411 164.361 385.598 164.361L383.226 164.376C382.49 164.376 380.997 164.729 380.997 165.376V168.376C380.997 169.824 382.856 170.38 384.503 170.38H391.935C396.833 170.38 401.268 167.383 402.043 163.133C402.777 159.1 400.338 155.524 396.593 153.933V153.934Z" fill="#E2E3E9"/>
<path d="M306.324 187.807V178.651H308.774C310.174 178.651 311.266 179.029 312.05 179.785C312.834 180.541 313.226 181.675 313.226 183.187C313.226 184.708 312.839 185.861 312.064 186.645C311.289 187.42 310.221 187.807 308.858 187.807H306.324ZM307.948 186.491H308.662C309.586 186.491 310.3 186.225 310.804 185.693C311.308 185.152 311.56 184.316 311.56 183.187C311.56 182.067 311.308 181.25 310.804 180.737C310.3 180.224 309.586 179.967 308.662 179.967H307.948V186.491ZM314.934 187.807V180.933H316.264L316.376 182.151H316.432C316.675 181.703 316.969 181.362 317.314 181.129C317.659 180.886 318.014 180.765 318.378 180.765C318.705 180.765 318.966 180.812 319.162 180.905L318.882 182.305C318.761 182.268 318.649 182.24 318.546 182.221C318.443 182.202 318.317 182.193 318.168 182.193C317.897 182.193 317.613 182.3 317.314 182.515C317.015 182.72 316.759 183.084 316.544 183.607V187.807H314.934ZM321.454 187.975C320.856 187.975 320.366 187.788 319.984 187.415C319.61 187.042 319.424 186.556 319.424 185.959C319.424 185.222 319.746 184.652 320.39 184.251C321.034 183.84 322.06 183.56 323.47 183.411C323.46 183.047 323.362 182.734 323.176 182.473C322.998 182.202 322.676 182.067 322.21 182.067C321.874 182.067 321.542 182.132 321.216 182.263C320.898 182.394 320.586 182.552 320.278 182.739L319.69 181.661C320.072 181.418 320.502 181.208 320.978 181.031C321.463 180.854 321.976 180.765 322.518 180.765C323.376 180.765 324.016 181.022 324.436 181.535C324.865 182.039 325.08 182.772 325.08 183.733V187.807H323.75L323.638 187.051H323.582C323.274 187.312 322.942 187.532 322.588 187.709C322.242 187.886 321.864 187.975 321.454 187.975ZM321.972 186.715C322.252 186.715 322.504 186.65 322.728 186.519C322.961 186.379 323.208 186.192 323.47 185.959V184.419C322.536 184.54 321.888 184.722 321.524 184.965C321.16 185.198 320.978 185.488 320.978 185.833C320.978 186.141 321.071 186.365 321.258 186.505C321.444 186.645 321.682 186.715 321.972 186.715ZM329.4 190.845C328.859 190.845 328.369 190.78 327.93 190.649C327.501 190.518 327.16 190.318 326.908 190.047C326.666 189.786 326.544 189.454 326.544 189.053C326.544 188.484 326.871 187.994 327.524 187.583V187.527C327.347 187.415 327.198 187.266 327.076 187.079C326.964 186.892 326.908 186.659 326.908 186.379C326.908 186.108 326.983 185.866 327.132 185.651C327.291 185.427 327.468 185.245 327.664 185.105V185.049C327.431 184.872 327.221 184.624 327.034 184.307C326.857 183.99 326.768 183.63 326.768 183.229C326.768 182.697 326.894 182.249 327.146 181.885C327.398 181.521 327.73 181.246 328.14 181.059C328.56 180.863 329.008 180.765 329.484 180.765C329.671 180.765 329.848 180.784 330.016 180.821C330.194 180.849 330.352 180.886 330.492 180.933H332.956V182.123H331.696C331.808 182.254 331.902 182.422 331.976 182.627C332.051 182.823 332.088 183.042 332.088 183.285C332.088 183.789 331.972 184.218 331.738 184.573C331.505 184.918 331.192 185.18 330.8 185.357C330.408 185.534 329.97 185.623 329.484 185.623C329.335 185.623 329.181 185.609 329.022 185.581C328.864 185.553 328.705 185.506 328.546 185.441C328.444 185.534 328.36 185.628 328.294 185.721C328.238 185.814 328.21 185.94 328.21 186.099C328.21 186.295 328.29 186.449 328.448 186.561C328.616 186.673 328.91 186.729 329.33 186.729H330.548C331.379 186.729 332.004 186.864 332.424 187.135C332.854 187.396 333.068 187.826 333.068 188.423C333.068 188.871 332.919 189.277 332.62 189.641C332.322 190.014 331.897 190.308 331.346 190.523C330.796 190.738 330.147 190.845 329.4 190.845ZM329.484 184.615C329.811 184.615 330.091 184.494 330.324 184.251C330.558 184.008 330.674 183.668 330.674 183.229C330.674 182.8 330.558 182.468 330.324 182.235C330.1 181.992 329.82 181.871 329.484 181.871C329.148 181.871 328.864 181.988 328.63 182.221C328.397 182.454 328.28 182.79 328.28 183.229C328.28 183.668 328.397 184.008 328.63 184.251C328.864 184.494 329.148 184.615 329.484 184.615ZM329.652 189.795C330.203 189.795 330.651 189.683 330.996 189.459C331.342 189.235 331.514 188.978 331.514 188.689C331.514 188.418 331.407 188.236 331.192 188.143C330.987 188.05 330.688 188.003 330.296 188.003H329.358C328.985 188.003 328.672 187.97 328.42 187.905C328.066 188.176 327.888 188.479 327.888 188.815C327.888 189.123 328.047 189.361 328.364 189.529C328.682 189.706 329.111 189.795 329.652 189.795ZM338.749 187.975C338.151 187.975 337.661 187.788 337.279 187.415C336.905 187.042 336.719 186.556 336.719 185.959C336.719 185.222 337.041 184.652 337.685 184.251C338.329 183.84 339.355 183.56 340.765 183.411C340.755 183.047 340.657 182.734 340.471 182.473C340.293 182.202 339.971 182.067 339.505 182.067C339.169 182.067 338.837 182.132 338.511 182.263C338.193 182.394 337.881 182.552 337.573 182.739L336.985 181.661C337.367 181.418 337.797 181.208 338.273 181.031C338.758 180.854 339.271 180.765 339.813 180.765C340.671 180.765 341.311 181.022 341.731 181.535C342.16 182.039 342.375 182.772 342.375 183.733V187.807H341.045L340.933 187.051H340.877C340.569 187.312 340.237 187.532 339.883 187.709C339.537 187.886 339.159 187.975 338.749 187.975ZM339.267 186.715C339.547 186.715 339.799 186.65 340.023 186.519C340.256 186.379 340.503 186.192 340.765 185.959V184.419C339.831 184.54 339.183 184.722 338.819 184.965C338.455 185.198 338.273 185.488 338.273 185.833C338.273 186.141 338.366 186.365 338.553 186.505C338.739 186.645 338.977 186.715 339.267 186.715ZM347.384 187.807V182.207H346.46V181.003L347.384 180.933V180.219C347.384 179.5 347.561 178.912 347.916 178.455C348.271 177.988 348.854 177.755 349.666 177.755C349.909 177.755 350.142 177.778 350.366 177.825C350.59 177.872 350.777 177.928 350.926 177.993L350.618 179.197C350.366 179.085 350.114 179.029 349.862 179.029C349.283 179.029 348.994 179.416 348.994 180.191V180.933H350.338V182.207H348.994V187.807H347.384ZM351.547 187.807V180.933H353.157V187.807H351.547ZM352.359 179.729C352.07 179.729 351.837 179.645 351.659 179.477C351.482 179.309 351.393 179.085 351.393 178.805C351.393 178.534 351.482 178.315 351.659 178.147C351.837 177.979 352.07 177.895 352.359 177.895C352.649 177.895 352.882 177.979 353.059 178.147C353.237 178.315 353.325 178.534 353.325 178.805C353.325 179.085 353.237 179.309 353.059 179.477C352.882 179.645 352.649 179.729 352.359 179.729ZM356.779 187.975C356.21 187.975 355.804 187.802 355.561 187.457C355.328 187.112 355.211 186.64 355.211 186.043V177.923H356.821V186.127C356.821 186.323 356.859 186.463 356.933 186.547C357.008 186.622 357.087 186.659 357.171 186.659C357.209 186.659 357.241 186.659 357.269 186.659C357.307 186.65 357.358 186.64 357.423 186.631L357.633 187.835C357.54 187.872 357.419 187.905 357.269 187.933C357.129 187.961 356.966 187.975 356.779 187.975ZM361.952 187.975C361.318 187.975 360.744 187.835 360.23 187.555C359.717 187.266 359.311 186.855 359.012 186.323C358.714 185.782 358.564 185.133 358.564 184.377C358.564 183.63 358.714 182.986 359.012 182.445C359.32 181.904 359.717 181.488 360.202 181.199C360.688 180.91 361.196 180.765 361.728 180.765C362.354 180.765 362.876 180.905 363.296 181.185C363.716 181.456 364.034 181.838 364.248 182.333C364.463 182.818 364.57 183.383 364.57 184.027C364.57 184.363 364.547 184.624 364.5 184.811H360.132C360.207 185.418 360.426 185.889 360.79 186.225C361.154 186.561 361.612 186.729 362.162 186.729C362.461 186.729 362.736 186.687 362.988 186.603C363.25 186.51 363.506 186.384 363.758 186.225L364.304 187.233C363.978 187.448 363.614 187.625 363.212 187.765C362.811 187.905 362.391 187.975 361.952 187.975ZM360.118 183.719H363.17C363.17 183.187 363.054 182.772 362.82 182.473C362.587 182.165 362.237 182.011 361.77 182.011C361.369 182.011 361.01 182.16 360.692 182.459C360.384 182.748 360.193 183.168 360.118 183.719ZM368.911 187.807V177.923H370.521V180.471L370.465 181.801C370.754 181.53 371.076 181.292 371.431 181.087C371.785 180.872 372.196 180.765 372.663 180.765C373.4 180.765 373.937 181.003 374.273 181.479C374.609 181.955 374.777 182.627 374.777 183.495V187.807H373.167V183.705C373.167 183.136 373.083 182.734 372.915 182.501C372.747 182.268 372.471 182.151 372.089 182.151C371.79 182.151 371.524 182.226 371.291 182.375C371.067 182.515 370.81 182.725 370.521 183.005V187.807H368.911ZM379.657 187.975C379.023 187.975 378.449 187.835 377.935 187.555C377.422 187.266 377.016 186.855 376.717 186.323C376.419 185.782 376.269 185.133 376.269 184.377C376.269 183.63 376.419 182.986 376.717 182.445C377.025 181.904 377.422 181.488 377.907 181.199C378.393 180.91 378.901 180.765 379.433 180.765C380.059 180.765 380.581 180.905 381.001 181.185C381.421 181.456 381.739 181.838 381.953 182.333C382.168 182.818 382.275 183.383 382.275 184.027C382.275 184.363 382.252 184.624 382.205 184.811H377.837C377.912 185.418 378.131 185.889 378.495 186.225C378.859 186.561 379.317 186.729 379.867 186.729C380.166 186.729 380.441 186.687 380.693 186.603C380.955 186.51 381.211 186.384 381.463 186.225L382.009 187.233C381.683 187.448 381.319 187.625 380.917 187.765C380.516 187.905 380.096 187.975 379.657 187.975ZM377.823 183.719H380.875C380.875 183.187 380.759 182.772 380.525 182.473C380.292 182.165 379.942 182.011 379.475 182.011C379.074 182.011 378.715 182.16 378.397 182.459C378.089 182.748 377.898 183.168 377.823 183.719ZM383.813 187.807V180.933H385.143L385.255 182.151H385.311C385.554 181.703 385.848 181.362 386.193 181.129C386.538 180.886 386.893 180.765 387.257 180.765C387.584 180.765 387.845 180.812 388.041 180.905L387.761 182.305C387.64 182.268 387.528 182.24 387.425 182.221C387.322 182.202 387.196 182.193 387.047 182.193C386.776 182.193 386.492 182.3 386.193 182.515C385.894 182.72 385.638 183.084 385.423 183.607V187.807H383.813ZM391.839 187.975C391.204 187.975 390.63 187.835 390.117 187.555C389.604 187.266 389.198 186.855 388.899 186.323C388.6 185.782 388.451 185.133 388.451 184.377C388.451 183.63 388.6 182.986 388.899 182.445C389.207 181.904 389.604 181.488 390.089 181.199C390.574 180.91 391.083 180.765 391.615 180.765C392.24 180.765 392.763 180.905 393.183 181.185C393.603 181.456 393.92 181.838 394.135 182.333C394.35 182.818 394.457 183.383 394.457 184.027C394.457 184.363 394.434 184.624 394.387 184.811H390.019C390.094 185.418 390.313 185.889 390.677 186.225C391.041 186.561 391.498 186.729 392.049 186.729C392.348 186.729 392.623 186.687 392.875 186.603C393.136 186.51 393.393 186.384 393.645 186.225L394.191 187.233C393.864 187.448 393.5 187.625 393.099 187.765C392.698 187.905 392.278 187.975 391.839 187.975ZM390.005 183.719H393.057C393.057 183.187 392.94 182.772 392.707 182.473C392.474 182.165 392.124 182.011 391.657 182.011C391.256 182.011 390.896 182.16 390.579 182.459C390.271 182.748 390.08 183.168 390.005 183.719ZM401.611 187.975C401.042 187.975 400.51 187.835 400.015 187.555C399.521 187.266 399.119 186.855 398.811 186.323C398.503 185.782 398.349 185.133 398.349 184.377C398.349 183.612 398.503 182.963 398.811 182.431C399.119 181.89 399.521 181.479 400.015 181.199C400.51 180.91 401.042 180.765 401.611 180.765C402.19 180.765 402.727 180.91 403.221 181.199C403.716 181.479 404.117 181.89 404.425 182.431C404.733 182.963 404.887 183.612 404.887 184.377C404.887 185.133 404.733 185.782 404.425 186.323C404.117 186.855 403.716 187.266 403.221 187.555C402.727 187.835 402.19 187.975 401.611 187.975ZM401.611 186.659C402.115 186.659 402.512 186.449 402.801 186.029C403.091 185.609 403.235 185.058 403.235 184.377C403.235 183.686 403.091 183.131 402.801 182.711C402.512 182.291 402.115 182.081 401.611 182.081C401.107 182.081 400.711 182.291 400.421 182.711C400.141 183.131 400.001 183.686 400.001 184.377C400.001 185.058 400.141 185.609 400.421 186.029C400.711 186.449 401.107 186.659 401.611 186.659ZM406.481 187.807V180.933H407.811L407.923 182.151H407.979C408.222 181.703 408.516 181.362 408.861 181.129C409.206 180.886 409.561 180.765 409.925 180.765C410.252 180.765 410.513 180.812 410.709 180.905L410.429 182.305C410.308 182.268 410.196 182.24 410.093 182.221C409.99 182.202 409.864 182.193 409.715 182.193C409.444 182.193 409.16 182.3 408.861 182.515C408.562 182.72 408.306 183.084 408.091 183.607V187.807H406.481ZM417.838 187.975C417.185 187.975 416.56 187.676 415.962 187.079H415.92L415.78 187.807H414.506V177.923H416.116V180.471L416.074 181.619C416.364 181.367 416.681 181.162 417.026 181.003C417.372 180.844 417.717 180.765 418.062 180.765C418.921 180.765 419.588 181.082 420.064 181.717C420.54 182.352 420.778 183.196 420.778 184.251C420.778 185.035 420.638 185.707 420.358 186.267C420.078 186.818 419.714 187.242 419.266 187.541C418.828 187.83 418.352 187.975 417.838 187.975ZM417.502 186.645C417.96 186.645 418.342 186.444 418.65 186.043C418.958 185.642 419.112 185.054 419.112 184.279C419.112 183.588 418.996 183.052 418.762 182.669C418.529 182.286 418.151 182.095 417.628 182.095C417.143 182.095 416.639 182.352 416.116 182.865V186.071C416.359 186.276 416.597 186.426 416.83 186.519C417.073 186.603 417.297 186.645 417.502 186.645ZM422.395 187.807V180.933H423.725L423.837 182.151H423.893C424.136 181.703 424.43 181.362 424.775 181.129C425.12 180.886 425.475 180.765 425.839 180.765C426.166 180.765 426.427 180.812 426.623 180.905L426.343 182.305C426.222 182.268 426.11 182.24 426.007 182.221C425.904 182.202 425.778 182.193 425.629 182.193C425.358 182.193 425.074 182.3 424.775 182.515C424.476 182.72 424.22 183.084 424.005 183.607V187.807H422.395ZM430.295 187.975C429.726 187.975 429.194 187.835 428.699 187.555C428.204 187.266 427.803 186.855 427.495 186.323C427.187 185.782 427.033 185.133 427.033 184.377C427.033 183.612 427.187 182.963 427.495 182.431C427.803 181.89 428.204 181.479 428.699 181.199C429.194 180.91 429.726 180.765 430.295 180.765C430.874 180.765 431.41 180.91 431.905 181.199C432.4 181.479 432.801 181.89 433.109 182.431C433.417 182.963 433.571 183.612 433.571 184.377C433.571 185.133 433.417 185.782 433.109 186.323C432.801 186.855 432.4 187.266 431.905 187.555C431.41 187.835 430.874 187.975 430.295 187.975ZM430.295 186.659C430.799 186.659 431.196 186.449 431.485 186.029C431.774 185.609 431.919 185.058 431.919 184.377C431.919 183.686 431.774 183.131 431.485 182.711C431.196 182.291 430.799 182.081 430.295 182.081C429.791 182.081 429.394 182.291 429.105 182.711C428.825 183.131 428.685 183.686 428.685 184.377C428.685 185.058 428.825 185.609 429.105 186.029C429.394 186.449 429.791 186.659 430.295 186.659ZM436.217 187.807L434.397 180.933H436.021L436.847 184.503C436.921 184.83 436.982 185.156 437.029 185.483C437.085 185.81 437.145 186.141 437.211 186.477H437.267C437.332 186.141 437.397 185.81 437.463 185.483C437.537 185.147 437.617 184.82 437.701 184.503L438.597 180.933H440.067L440.977 184.503C441.061 184.83 441.14 185.156 441.215 185.483C441.289 185.81 441.364 186.141 441.439 186.477H441.495C441.56 186.141 441.621 185.81 441.677 185.483C441.733 185.156 441.793 184.83 441.859 184.503L442.685 180.933H444.197L442.447 187.807H440.529L439.731 184.601C439.656 184.274 439.586 183.952 439.521 183.635C439.455 183.308 439.385 182.963 439.311 182.599H439.255C439.189 182.963 439.124 183.308 439.059 183.635C438.993 183.962 438.923 184.288 438.849 184.615L438.065 187.807H436.217ZM447.473 187.975C447.007 187.975 446.54 187.886 446.073 187.709C445.607 187.522 445.205 187.294 444.869 187.023L445.625 185.987C445.933 186.22 446.241 186.407 446.549 186.547C446.857 186.687 447.184 186.757 447.529 186.757C447.903 186.757 448.178 186.678 448.355 186.519C448.533 186.36 448.621 186.164 448.621 185.931C448.621 185.735 448.547 185.576 448.397 185.455C448.257 185.324 448.075 185.212 447.851 185.119C447.627 185.016 447.394 184.918 447.151 184.825C446.853 184.713 446.554 184.578 446.255 184.419C445.966 184.251 445.728 184.041 445.541 183.789C445.355 183.528 445.261 183.206 445.261 182.823C445.261 182.216 445.485 181.722 445.933 181.339C446.381 180.956 446.988 180.765 447.753 180.765C448.239 180.765 448.673 180.849 449.055 181.017C449.438 181.185 449.769 181.376 450.049 181.591L449.307 182.571C449.065 182.394 448.817 182.254 448.565 182.151C448.323 182.039 448.066 181.983 447.795 181.983C447.45 181.983 447.193 182.058 447.025 182.207C446.857 182.347 446.773 182.524 446.773 182.739C446.773 183.01 446.913 183.215 447.193 183.355C447.473 183.495 447.8 183.63 448.173 183.761C448.491 183.873 448.799 184.013 449.097 184.181C449.396 184.34 449.643 184.55 449.839 184.811C450.045 185.072 450.147 185.418 450.147 185.847C450.147 186.435 449.919 186.939 449.461 187.359C449.004 187.77 448.341 187.975 447.473 187.975ZM454.524 187.975C453.89 187.975 453.316 187.835 452.802 187.555C452.289 187.266 451.883 186.855 451.584 186.323C451.286 185.782 451.136 185.133 451.136 184.377C451.136 183.63 451.286 182.986 451.584 182.445C451.892 181.904 452.289 181.488 452.774 181.199C453.26 180.91 453.768 180.765 454.3 180.765C454.926 180.765 455.448 180.905 455.868 181.185C456.288 181.456 456.606 181.838 456.82 182.333C457.035 182.818 457.142 183.383 457.142 184.027C457.142 184.363 457.119 184.624 457.072 184.811H452.704C452.779 185.418 452.998 185.889 453.362 186.225C453.726 186.561 454.184 186.729 454.734 186.729C455.033 186.729 455.308 186.687 455.56 186.603C455.822 186.51 456.078 186.384 456.33 186.225L456.876 187.233C456.55 187.448 456.186 187.625 455.784 187.765C455.383 187.905 454.963 187.975 454.524 187.975ZM452.69 183.719H455.742C455.742 183.187 455.626 182.772 455.392 182.473C455.159 182.165 454.809 182.011 454.342 182.011C453.941 182.011 453.582 182.16 453.264 182.459C452.956 182.748 452.765 183.168 452.69 183.719ZM326.138 206.807V201.207H325.214V200.003L326.138 199.933V199.219C326.138 198.5 326.315 197.912 326.67 197.455C327.025 196.988 327.608 196.755 328.42 196.755C328.663 196.755 328.896 196.778 329.12 196.825C329.344 196.872 329.531 196.928 329.68 196.993L329.372 198.197C329.12 198.085 328.868 198.029 328.616 198.029C328.037 198.029 327.748 198.416 327.748 199.191V199.933H329.092V201.207H327.748V206.807H326.138ZM332.979 206.975C332.409 206.975 331.877 206.835 331.383 206.555C330.888 206.266 330.487 205.855 330.179 205.323C329.871 204.782 329.717 204.133 329.717 203.377C329.717 202.612 329.871 201.963 330.179 201.431C330.487 200.89 330.888 200.479 331.383 200.199C331.877 199.91 332.409 199.765 332.979 199.765C333.557 199.765 334.094 199.91 334.589 200.199C335.083 200.479 335.485 200.89 335.793 201.431C336.101 201.963 336.255 202.612 336.255 203.377C336.255 204.133 336.101 204.782 335.793 205.323C335.485 205.855 335.083 206.266 334.589 206.555C334.094 206.835 333.557 206.975 332.979 206.975ZM332.979 205.659C333.483 205.659 333.879 205.449 334.169 205.029C334.458 204.609 334.603 204.058 334.603 203.377C334.603 202.686 334.458 202.131 334.169 201.711C333.879 201.291 333.483 201.081 332.979 201.081C332.475 201.081 332.078 201.291 331.789 201.711C331.509 202.131 331.369 202.686 331.369 203.377C331.369 204.058 331.509 204.609 331.789 205.029C332.078 205.449 332.475 205.659 332.979 205.659ZM337.848 206.807V199.933H339.178L339.29 201.151H339.346C339.589 200.703 339.883 200.362 340.228 200.129C340.573 199.886 340.928 199.765 341.292 199.765C341.619 199.765 341.88 199.812 342.076 199.905L341.796 201.305C341.675 201.268 341.563 201.24 341.46 201.221C341.357 201.202 341.231 201.193 341.082 201.193C340.811 201.193 340.527 201.3 340.228 201.515C339.929 201.72 339.673 202.084 339.458 202.607V206.807H337.848ZM347.54 206.975C346.942 206.975 346.452 206.788 346.07 206.415C345.696 206.042 345.51 205.556 345.51 204.959C345.51 204.222 345.832 203.652 346.476 203.251C347.12 202.84 348.146 202.56 349.556 202.411C349.546 202.047 349.448 201.734 349.262 201.473C349.084 201.202 348.762 201.067 348.296 201.067C347.96 201.067 347.628 201.132 347.302 201.263C346.984 201.394 346.672 201.552 346.364 201.739L345.776 200.661C346.158 200.418 346.588 200.208 347.064 200.031C347.549 199.854 348.062 199.765 348.604 199.765C349.462 199.765 350.102 200.022 350.522 200.535C350.951 201.039 351.166 201.772 351.166 202.733V206.807H349.836L349.724 206.051H349.668C349.36 206.312 349.028 206.532 348.674 206.709C348.328 206.886 347.95 206.975 347.54 206.975ZM348.058 205.715C348.338 205.715 348.59 205.65 348.814 205.519C349.047 205.379 349.294 205.192 349.556 204.959V203.419C348.622 203.54 347.974 203.722 347.61 203.965C347.246 204.198 347.064 204.488 347.064 204.833C347.064 205.141 347.157 205.365 347.344 205.505C347.53 205.645 347.768 205.715 348.058 205.715ZM356.175 206.807V201.207H355.251V200.003L356.175 199.933V199.219C356.175 198.5 356.352 197.912 356.707 197.455C357.062 196.988 357.645 196.755 358.457 196.755C358.7 196.755 358.933 196.778 359.157 196.825C359.381 196.872 359.568 196.928 359.717 196.993L359.409 198.197C359.157 198.085 358.905 198.029 358.653 198.029C358.074 198.029 357.785 198.416 357.785 199.191V199.933H359.129V201.207H357.785V206.807H356.175ZM360.338 206.807V199.933H361.948V206.807H360.338ZM361.15 198.729C360.861 198.729 360.628 198.645 360.45 198.477C360.273 198.309 360.184 198.085 360.184 197.805C360.184 197.534 360.273 197.315 360.45 197.147C360.628 196.979 360.861 196.895 361.15 196.895C361.44 196.895 361.673 196.979 361.85 197.147C362.028 197.315 362.116 197.534 362.116 197.805C362.116 198.085 362.028 198.309 361.85 198.477C361.673 198.645 361.44 198.729 361.15 198.729ZM365.57 206.975C365.001 206.975 364.595 206.802 364.352 206.457C364.119 206.112 364.002 205.64 364.002 205.043V196.923H365.612V205.127C365.612 205.323 365.65 205.463 365.724 205.547C365.799 205.622 365.878 205.659 365.962 205.659C366 205.659 366.032 205.659 366.06 205.659C366.098 205.65 366.149 205.64 366.214 205.631L366.424 206.835C366.331 206.872 366.21 206.905 366.06 206.933C365.92 206.961 365.757 206.975 365.57 206.975ZM370.743 206.975C370.109 206.975 369.535 206.835 369.021 206.555C368.508 206.266 368.102 205.855 367.803 205.323C367.505 204.782 367.355 204.133 367.355 203.377C367.355 202.63 367.505 201.986 367.803 201.445C368.111 200.904 368.508 200.488 368.993 200.199C369.479 199.91 369.987 199.765 370.519 199.765C371.145 199.765 371.667 199.905 372.087 200.185C372.507 200.456 372.825 200.838 373.039 201.333C373.254 201.818 373.361 202.383 373.361 203.027C373.361 203.363 373.338 203.624 373.291 203.811H368.923C368.998 204.418 369.217 204.889 369.581 205.225C369.945 205.561 370.403 205.729 370.953 205.729C371.252 205.729 371.527 205.687 371.779 205.603C372.041 205.51 372.297 205.384 372.549 205.225L373.095 206.233C372.769 206.448 372.405 206.625 372.003 206.765C371.602 206.905 371.182 206.975 370.743 206.975ZM368.909 202.719H371.961C371.961 202.187 371.845 201.772 371.611 201.473C371.378 201.165 371.028 201.011 370.561 201.011C370.16 201.011 369.801 201.16 369.483 201.459C369.175 201.748 368.984 202.168 368.909 202.719ZM380.124 206.975C379.33 206.975 378.766 206.746 378.43 206.289C378.103 205.822 377.94 205.22 377.94 204.483V201.207H376.96V200.003L378.024 199.933L378.22 198.057H379.564V199.933H381.314V201.207H379.564V204.483C379.564 205.286 379.886 205.687 380.53 205.687C380.651 205.687 380.777 205.673 380.908 205.645C381.038 205.608 381.15 205.57 381.244 205.533L381.524 206.723C381.337 206.788 381.122 206.844 380.88 206.891C380.646 206.947 380.394 206.975 380.124 206.975ZM385.356 206.975C384.786 206.975 384.254 206.835 383.76 206.555C383.265 206.266 382.864 205.855 382.556 205.323C382.248 204.782 382.094 204.133 382.094 203.377C382.094 202.612 382.248 201.963 382.556 201.431C382.864 200.89 383.265 200.479 383.76 200.199C384.254 199.91 384.786 199.765 385.356 199.765C385.934 199.765 386.471 199.91 386.966 200.199C387.46 200.479 387.862 200.89 388.17 201.431C388.478 201.963 388.632 202.612 388.632 203.377C388.632 204.133 388.478 204.782 388.17 205.323C387.862 205.855 387.46 206.266 386.966 206.555C386.471 206.835 385.934 206.975 385.356 206.975ZM385.356 205.659C385.86 205.659 386.256 205.449 386.546 205.029C386.835 204.609 386.98 204.058 386.98 203.377C386.98 202.686 386.835 202.131 386.546 201.711C386.256 201.291 385.86 201.081 385.356 201.081C384.852 201.081 384.455 201.291 384.166 201.711C383.886 202.131 383.746 202.686 383.746 203.377C383.746 204.058 383.886 204.609 384.166 205.029C384.455 205.449 384.852 205.659 385.356 205.659ZM395.072 206.975C394.334 206.975 393.798 206.737 393.462 206.261C393.126 205.785 392.958 205.113 392.958 204.245V199.933H394.568V204.035C394.568 204.604 394.652 205.006 394.82 205.239C394.988 205.472 395.258 205.589 395.632 205.589C395.93 205.589 396.192 205.514 396.416 205.365C396.649 205.216 396.896 204.973 397.158 204.637V199.933H398.768V206.807H397.452L397.326 205.799H397.284C396.985 206.154 396.658 206.438 396.304 206.653C395.949 206.868 395.538 206.975 395.072 206.975ZM400.807 209.523V199.933H402.137L402.249 200.661H402.305C402.594 200.418 402.916 200.208 403.271 200.031C403.635 199.854 404.004 199.765 404.377 199.765C405.236 199.765 405.898 200.082 406.365 200.717C406.841 201.352 407.079 202.201 407.079 203.265C407.079 204.049 406.939 204.721 406.659 205.281C406.379 205.832 406.015 206.252 405.567 206.541C405.128 206.83 404.652 206.975 404.139 206.975C403.84 206.975 403.542 206.91 403.243 206.779C402.944 206.639 402.655 206.452 402.375 206.219L402.417 207.367V209.523H400.807ZM403.803 205.645C404.26 205.645 404.643 205.444 404.951 205.043C405.259 204.642 405.413 204.054 405.413 203.279C405.413 202.588 405.296 202.052 405.063 201.669C404.83 201.286 404.452 201.095 403.929 201.095C403.444 201.095 402.94 201.352 402.417 201.865V205.071C402.669 205.276 402.912 205.426 403.145 205.519C403.378 205.603 403.598 205.645 403.803 205.645ZM410.277 206.975C409.708 206.975 409.302 206.802 409.059 206.457C408.826 206.112 408.709 205.64 408.709 205.043V196.923H410.319V205.127C410.319 205.323 410.357 205.463 410.431 205.547C410.506 205.622 410.585 205.659 410.669 205.659C410.707 205.659 410.739 205.659 410.767 205.659C410.805 205.65 410.856 205.64 410.921 205.631L411.131 206.835C411.038 206.872 410.917 206.905 410.767 206.933C410.627 206.961 410.464 206.975 410.277 206.975ZM415.324 206.975C414.755 206.975 414.223 206.835 413.728 206.555C413.234 206.266 412.832 205.855 412.524 205.323C412.216 204.782 412.062 204.133 412.062 203.377C412.062 202.612 412.216 201.963 412.524 201.431C412.832 200.89 413.234 200.479 413.728 200.199C414.223 199.91 414.755 199.765 415.324 199.765C415.903 199.765 416.44 199.91 416.934 200.199C417.429 200.479 417.83 200.89 418.138 201.431C418.446 201.963 418.6 202.612 418.6 203.377C418.6 204.133 418.446 204.782 418.138 205.323C417.83 205.855 417.429 206.266 416.934 206.555C416.44 206.835 415.903 206.975 415.324 206.975ZM415.324 205.659C415.828 205.659 416.225 205.449 416.514 205.029C416.804 204.609 416.948 204.058 416.948 203.377C416.948 202.686 416.804 202.131 416.514 201.711C416.225 201.291 415.828 201.081 415.324 201.081C414.82 201.081 414.424 201.291 414.134 201.711C413.854 202.131 413.714 202.686 413.714 203.377C413.714 204.058 413.854 204.609 414.134 205.029C414.424 205.449 414.82 205.659 415.324 205.659ZM421.696 206.975C421.098 206.975 420.608 206.788 420.226 206.415C419.852 206.042 419.666 205.556 419.666 204.959C419.666 204.222 419.988 203.652 420.632 203.251C421.276 202.84 422.302 202.56 423.712 202.411C423.702 202.047 423.604 201.734 423.418 201.473C423.24 201.202 422.918 201.067 422.452 201.067C422.116 201.067 421.784 201.132 421.458 201.263C421.14 201.394 420.828 201.552 420.52 201.739L419.932 200.661C420.314 200.418 420.744 200.208 421.22 200.031C421.705 199.854 422.218 199.765 422.76 199.765C423.618 199.765 424.258 200.022 424.678 200.535C425.107 201.039 425.322 201.772 425.322 202.733V206.807H423.992L423.88 206.051H423.824C423.516 206.312 423.184 206.532 422.83 206.709C422.484 206.886 422.106 206.975 421.696 206.975ZM422.214 205.715C422.494 205.715 422.746 205.65 422.97 205.519C423.203 205.379 423.45 205.192 423.712 204.959V203.419C422.778 203.54 422.13 203.722 421.766 203.965C421.402 204.198 421.22 204.488 421.22 204.833C421.22 205.141 421.313 205.365 421.5 205.505C421.686 205.645 421.924 205.715 422.214 205.715ZM429.657 206.975C428.798 206.975 428.112 206.658 427.599 206.023C427.085 205.388 426.829 204.506 426.829 203.377C426.829 202.63 426.964 201.986 427.235 201.445C427.515 200.904 427.879 200.488 428.327 200.199C428.775 199.91 429.246 199.765 429.741 199.765C430.133 199.765 430.464 199.835 430.735 199.975C431.015 200.106 431.285 200.288 431.547 200.521L431.491 199.415V196.923H433.101V206.807H431.771L431.659 206.065H431.603C431.351 206.317 431.057 206.532 430.721 206.709C430.385 206.886 430.03 206.975 429.657 206.975ZM430.049 205.645C430.562 205.645 431.043 205.388 431.491 204.875V201.669C431.257 201.454 431.024 201.305 430.791 201.221C430.557 201.137 430.324 201.095 430.091 201.095C429.652 201.095 429.274 201.296 428.957 201.697C428.649 202.089 428.495 202.644 428.495 203.363C428.495 204.1 428.63 204.665 428.901 205.057C429.171 205.449 429.554 205.645 430.049 205.645ZM436.061 206.975C435.772 206.975 435.524 206.872 435.319 206.667C435.114 206.462 435.011 206.2 435.011 205.883C435.011 205.566 435.114 205.304 435.319 205.099C435.524 204.894 435.772 204.791 436.061 204.791C436.36 204.791 436.607 204.894 436.803 205.099C436.999 205.304 437.097 205.566 437.097 205.883C437.097 206.2 436.999 206.462 436.803 206.667C436.607 206.872 436.36 206.975 436.061 206.975Z" fill="#7F8FA4"/>
<path opacity="0.4" d="M229.5 218.389H228V212.778H229.5V201.556H228V195.944H229.5V184.722H228V179.111H229.5V167.889H228V162.278H229.5V151.056H228V145.444H229.5V134.222H228V128.611H229.5V123C229.5 121.619 230.619 120.5 232 120.5H237.843V119H243.686V120.5H255.372V119H261.216V120.5H272.902V119H278.745V120.5H290.431V119H296.274V120.5H307.961V119H313.804V120.5H325.49V119H331.333V120.5H343.02V119H348.863V120.5H360.549V119H366.392V120.5H378.078V119H383.922V120.5H395.608V119H401.451V120.5H413.137V119H418.98V120.5H430.667V119H436.51V120.5H448.196V119H454.039V120.5H465.725V119H471.569V120.5H483.255V119H489.098V120.5H500.784V119H506.627V120.5H518.314V119H524.157V120.5H530C531.381 120.5 532.5 121.619 532.5 123V128.611H534V134.222H532.5V145.444H534V151.056H532.5V162.278H534V167.889H532.5V179.111H534V184.722H532.5V195.944H534V201.556H532.5V212.778H534V218.389H532.5V224C532.5 225.381 531.381 226.5 530 226.5H524.157V228H518.314V226.5H506.628V228H500.784V226.5H489.098V228H483.255V226.5H471.569V228H465.726V226.5H454.039V228H448.196V226.5H436.51V228H430.667V226.5H418.98V228H413.137V226.5H401.451V228H395.608V226.5H383.922V228H378.078V226.5H366.392V228H360.549V226.5H348.863V228H343.02V226.5H331.333V228H325.49V226.5H313.804V228H307.961V226.5H296.275V228H290.431V226.5H278.745V228H272.902V226.5H261.216V228H255.373V226.5H243.686V228H237.843V226.5H232C230.619 226.5 229.5 225.381 229.5 224V218.389Z" stroke="#CED0DA" stroke-width="3" stroke-dasharray="12 6"/>
</g>
<defs>
<clipPath id="clip0_1505_871">
<rect width="323" height="153" fill="white" transform="translate(220 83)"/>
</clipPath>
</defs>
</svg>
