<svg width="649" height="522" viewBox="0 0 649 522" fill="none" xmlns="http://www.w3.org/2000/svg">
<rect width="649" height="273" rx="5" fill="#FAFAFA"/>
<rect width="580" height="213" transform="translate(32 32)" fill="#FAFAFA"/>
<path d="M33.26 63.0432V53.8592H35.556C36.9747 53.8592 38.0527 54.2559 38.79 55.0492C39.5273 55.8332 39.896 56.9532 39.896 58.4092C39.896 59.8745 39.5273 61.0132 38.79 61.8252C38.062 62.6372 37.0027 63.0432 35.612 63.0432H33.26ZM34.422 62.0912H35.472C36.5453 62.0912 37.348 61.7692 37.88 61.1252C38.4213 60.4719 38.692 59.5665 38.692 58.4092C38.692 57.2519 38.4213 56.3652 37.88 55.7492C37.348 55.1239 36.5453 54.8112 35.472 54.8112H34.422V62.0912ZM43.3293 63.2112C42.7599 63.2112 42.2839 63.0432 41.9013 62.7072C41.5279 62.3619 41.3413 61.8859 41.3413 61.2792C41.3413 60.5325 41.6726 59.9632 42.3353 59.5712C43.0073 59.1699 44.0666 58.8899 45.5133 58.7312C45.5133 58.4419 45.4713 58.1665 45.3873 57.9052C45.3126 57.6439 45.1726 57.4339 44.9673 57.2752C44.7713 57.1072 44.4866 57.0232 44.1133 57.0232C43.7213 57.0232 43.3526 57.0979 43.0073 57.2472C42.6619 57.3965 42.3539 57.5645 42.0833 57.7512L41.6353 56.9532C41.9526 56.7479 42.3399 56.5519 42.7973 56.3652C43.2639 56.1692 43.7679 56.0712 44.3093 56.0712C45.1399 56.0712 45.7419 56.3279 46.1153 56.8412C46.4886 57.3452 46.6753 58.0219 46.6753 58.8712V63.0432H45.7233L45.6253 62.2312H45.5833C45.2659 62.4925 44.9159 62.7212 44.5333 62.9172C44.1599 63.1132 43.7586 63.2112 43.3293 63.2112ZM43.6653 62.2872C43.9919 62.2872 44.2999 62.2079 44.5893 62.0492C44.8786 61.8905 45.1866 61.6665 45.5133 61.3772V59.4872C44.3839 59.6272 43.5906 59.8372 43.1333 60.1172C42.6853 60.3972 42.4613 60.7565 42.4613 61.1952C42.4613 61.5779 42.5779 61.8579 42.8113 62.0352C43.0446 62.2032 43.3293 62.2872 43.6653 62.2872ZM48.928 65.9692C48.7786 65.9692 48.634 65.9552 48.494 65.9272C48.3633 65.8992 48.242 65.8665 48.13 65.8292L48.354 64.9192C48.4286 64.9379 48.5126 64.9565 48.606 64.9752C48.6993 65.0032 48.788 65.0172 48.872 65.0172C49.2546 65.0172 49.572 64.8772 49.824 64.5972C50.076 64.3265 50.272 63.9812 50.412 63.5612L50.566 63.0572L47.836 56.2392H49.026L50.412 60.0052C50.5146 60.2945 50.622 60.6072 50.734 60.9432C50.8553 61.2792 50.9673 61.6059 51.07 61.9232H51.126C51.2286 61.6152 51.3266 61.2932 51.42 60.9572C51.5133 60.6212 51.6066 60.3039 51.7 60.0052L52.918 56.2392H54.038L51.476 63.6032C51.3173 64.0512 51.126 64.4525 50.902 64.8072C50.6873 65.1619 50.4166 65.4419 50.09 65.6472C49.7726 65.8619 49.3853 65.9692 48.928 65.9692Z" fill="black"/>
<path d="M34.268 113.043L32.322 103.859H33.526L34.492 108.857C34.576 109.352 34.6647 109.847 34.758 110.341C34.8513 110.836 34.94 111.331 35.024 111.825H35.08C35.1827 111.331 35.29 110.836 35.402 110.341C35.514 109.837 35.6213 109.343 35.724 108.857L36.998 103.859H38.062L39.336 108.857C39.448 109.343 39.56 109.837 39.672 110.341C39.784 110.836 39.896 111.331 40.008 111.825H40.064C40.148 111.331 40.232 110.836 40.316 110.341C40.4 109.837 40.4887 109.343 40.582 108.857L41.548 103.859H42.668L40.764 113.043H39.364L37.978 107.513C37.894 107.159 37.8147 106.813 37.74 106.477C37.6747 106.132 37.6047 105.782 37.53 105.427H37.474C37.4087 105.782 37.334 106.132 37.25 106.477C37.166 106.813 37.0867 107.159 37.012 107.513L35.654 113.043H34.268ZM46.9119 113.211C46.3052 113.211 45.7545 113.071 45.2599 112.791C44.7652 112.502 44.3732 112.091 44.0839 111.559C43.7945 111.027 43.6499 110.393 43.6499 109.655C43.6499 108.909 43.7945 108.269 44.0839 107.737C44.3825 107.205 44.7652 106.795 45.2319 106.505C45.6985 106.216 46.1885 106.071 46.7019 106.071C47.5699 106.071 48.2372 106.361 48.7039 106.939C49.1799 107.518 49.4179 108.293 49.4179 109.263C49.4179 109.385 49.4132 109.506 49.4039 109.627C49.4039 109.739 49.3945 109.837 49.3759 109.921H44.7839C44.8305 110.64 45.0545 111.214 45.4559 111.643C45.8665 112.073 46.3985 112.287 47.0519 112.287C47.3785 112.287 47.6772 112.241 47.9479 112.147C48.2279 112.045 48.4939 111.914 48.7459 111.755L49.1519 112.511C48.8625 112.698 48.5312 112.861 48.1579 113.001C47.7939 113.141 47.3785 113.211 46.9119 113.211ZM44.7699 109.095H48.4099C48.4099 108.405 48.2605 107.882 47.9619 107.527C47.6725 107.163 47.2619 106.981 46.7299 106.981C46.2539 106.981 45.8245 107.168 45.4419 107.541C45.0685 107.905 44.8445 108.423 44.7699 109.095ZM53.8572 113.211C53.2505 113.211 52.6998 113.071 52.2052 112.791C51.7105 112.502 51.3185 112.091 51.0292 111.559C50.7398 111.027 50.5952 110.393 50.5952 109.655C50.5952 108.909 50.7398 108.269 51.0292 107.737C51.3278 107.205 51.7105 106.795 52.1772 106.505C52.6438 106.216 53.1338 106.071 53.6472 106.071C54.5152 106.071 55.1825 106.361 55.6492 106.939C56.1252 107.518 56.3632 108.293 56.3632 109.263C56.3632 109.385 56.3585 109.506 56.3492 109.627C56.3492 109.739 56.3398 109.837 56.3212 109.921H51.7292C51.7758 110.64 51.9998 111.214 52.4012 111.643C52.8118 112.073 53.3438 112.287 53.9972 112.287C54.3238 112.287 54.6225 112.241 54.8932 112.147C55.1732 112.045 55.4392 111.914 55.6912 111.755L56.0972 112.511C55.8078 112.698 55.4765 112.861 55.1032 113.001C54.7392 113.141 54.3238 113.211 53.8572 113.211ZM51.7152 109.095H55.3552C55.3552 108.405 55.2058 107.882 54.9072 107.527C54.6178 107.163 54.2072 106.981 53.6752 106.981C53.1992 106.981 52.7698 107.168 52.3872 107.541C52.0138 107.905 51.7898 108.423 51.7152 109.095ZM58.0445 113.043V103.075H59.1785V109.823H59.2205L62.1185 106.239H63.3925L61.1105 108.969L63.7005 113.043H62.4405L60.4525 109.767L59.1785 111.251V113.043H58.0445Z" fill="black"/>
<path d="M33.26 169.043V159.859H34.66L36.424 164.759C36.536 165.077 36.6433 165.399 36.746 165.725C36.858 166.043 36.97 166.36 37.082 166.677H37.138C37.25 166.36 37.3527 166.043 37.446 165.725C37.5487 165.399 37.656 165.077 37.768 164.759L39.504 159.859H40.918V169.043H39.826V163.989C39.826 163.579 39.8447 163.126 39.882 162.631C39.9193 162.127 39.952 161.675 39.98 161.273H39.924L39.196 163.359L37.46 168.119H36.69L34.954 163.359L34.226 161.273H34.17C34.198 161.675 34.226 162.127 34.254 162.631C34.2913 163.126 34.31 163.579 34.31 163.989V169.043H33.26ZM45.9659 169.211C45.4152 169.211 44.8972 169.071 44.4119 168.791C43.9359 168.511 43.5485 168.105 43.2499 167.573C42.9605 167.041 42.8159 166.402 42.8159 165.655C42.8159 164.89 42.9605 164.241 43.2499 163.709C43.5485 163.177 43.9359 162.771 44.4119 162.491C44.8972 162.211 45.4152 162.071 45.9659 162.071C46.5259 162.071 47.0439 162.211 47.5199 162.491C47.9959 162.771 48.3785 163.177 48.6679 163.709C48.9665 164.241 49.1159 164.89 49.1159 165.655C49.1159 166.402 48.9665 167.041 48.6679 167.573C48.3785 168.105 47.9959 168.511 47.5199 168.791C47.0439 169.071 46.5259 169.211 45.9659 169.211ZM45.9659 168.259C46.5539 168.259 47.0252 168.021 47.3799 167.545C47.7439 167.06 47.9259 166.43 47.9259 165.655C47.9259 164.871 47.7439 164.237 47.3799 163.751C47.0252 163.266 46.5539 163.023 45.9659 163.023C45.3872 163.023 44.9159 163.266 44.5519 163.751C44.1879 164.237 44.0059 164.871 44.0059 165.655C44.0059 166.43 44.1879 167.06 44.5519 167.545C44.9159 168.021 45.3872 168.259 45.9659 168.259ZM50.9078 169.043V162.239H51.8598L51.9578 163.219H51.9998C52.3264 162.893 52.6718 162.622 53.0358 162.407C53.3998 162.183 53.8151 162.071 54.2818 162.071C55.0004 162.071 55.5231 162.3 55.8498 162.757C56.1858 163.205 56.3538 163.863 56.3538 164.731V169.043H55.2058V164.885C55.2058 164.251 55.1031 163.789 54.8978 163.499C54.6924 163.21 54.3658 163.065 53.9178 163.065C53.5724 163.065 53.2598 163.154 52.9798 163.331C52.7091 163.509 52.4011 163.77 52.0558 164.115V169.043H50.9078ZM60.706 169.211C59.978 169.211 59.4693 169.001 59.18 168.581C58.9 168.161 58.76 167.615 58.76 166.943V163.177H57.752V162.309L58.816 162.239L58.956 160.335H59.922V162.239H61.756V163.177H59.922V166.957C59.922 167.377 59.9967 167.704 60.146 167.937C60.3047 168.161 60.58 168.273 60.972 168.273C61.0933 168.273 61.224 168.255 61.364 168.217C61.504 168.171 61.63 168.129 61.742 168.091L61.966 168.959C61.7793 169.025 61.574 169.081 61.35 169.127C61.1353 169.183 60.9207 169.211 60.706 169.211ZM63.2945 169.043V159.075H64.4425V161.791L64.4005 163.191C64.7272 162.883 65.0678 162.622 65.4225 162.407C65.7865 162.183 66.2018 162.071 66.6685 162.071C67.3872 162.071 67.9098 162.3 68.2365 162.757C68.5725 163.205 68.7405 163.863 68.7405 164.731V169.043H67.5925V164.885C67.5925 164.251 67.4898 163.789 67.2845 163.499C67.0792 163.21 66.7525 163.065 66.3045 163.065C65.9592 163.065 65.6465 163.154 65.3665 163.331C65.0958 163.509 64.7878 163.77 64.4425 164.115V169.043H63.2945Z" fill="black"/>
<path d="M35.808 219.211C35.164 219.211 34.5667 219.09 34.016 218.847C33.4653 218.595 32.9893 218.264 32.588 217.853L33.288 217.041C33.6147 217.387 33.9973 217.667 34.436 217.881C34.884 218.087 35.346 218.189 35.822 218.189C36.4287 218.189 36.9 218.054 37.236 217.783C37.572 217.503 37.74 217.139 37.74 216.691C37.74 216.374 37.67 216.122 37.53 215.935C37.3993 215.749 37.2173 215.59 36.984 215.459C36.76 215.329 36.5033 215.198 36.214 215.067L34.898 214.493C34.6087 214.372 34.3193 214.213 34.03 214.017C33.75 213.821 33.512 213.569 33.316 213.261C33.1293 212.953 33.036 212.575 33.036 212.127C33.036 211.661 33.1573 211.245 33.4 210.881C33.652 210.508 33.9973 210.219 34.436 210.013C34.8747 209.799 35.3693 209.691 35.92 209.691C36.4707 209.691 36.9793 209.799 37.446 210.013C37.9127 210.219 38.3093 210.489 38.636 210.825L38.006 211.581C37.726 211.311 37.4133 211.101 37.068 210.951C36.732 210.793 36.3493 210.713 35.92 210.713C35.4067 210.713 34.9913 210.835 34.674 211.077C34.366 211.32 34.212 211.647 34.212 212.057C34.212 212.347 34.2867 212.589 34.436 212.785C34.5947 212.972 34.7907 213.126 35.024 213.247C35.2573 213.369 35.4953 213.481 35.738 213.583L37.04 214.143C37.3947 214.293 37.712 214.475 37.992 214.689C38.2813 214.895 38.51 215.151 38.678 215.459C38.846 215.758 38.93 216.136 38.93 216.593C38.93 217.079 38.804 217.522 38.552 217.923C38.3 218.315 37.9407 218.628 37.474 218.861C37.0073 219.095 36.452 219.211 35.808 219.211ZM43.3845 219.211C42.7778 219.211 42.2272 219.071 41.7325 218.791C41.2378 218.502 40.8458 218.091 40.5565 217.559C40.2672 217.027 40.1225 216.393 40.1225 215.655C40.1225 214.909 40.2672 214.269 40.5565 213.737C40.8552 213.205 41.2378 212.795 41.7045 212.505C42.1712 212.216 42.6612 212.071 43.1745 212.071C44.0425 212.071 44.7098 212.361 45.1765 212.939C45.6525 213.518 45.8905 214.293 45.8905 215.263C45.8905 215.385 45.8858 215.506 45.8765 215.627C45.8765 215.739 45.8672 215.837 45.8485 215.921H41.2565C41.3032 216.64 41.5272 217.214 41.9285 217.643C42.3392 218.073 42.8712 218.287 43.5245 218.287C43.8512 218.287 44.1498 218.241 44.4205 218.147C44.7005 218.045 44.9665 217.914 45.2185 217.755L45.6245 218.511C45.3352 218.698 45.0038 218.861 44.6305 219.001C44.2665 219.141 43.8512 219.211 43.3845 219.211ZM41.2425 215.095H44.8825C44.8825 214.405 44.7332 213.882 44.4345 213.527C44.1452 213.163 43.7345 212.981 43.2025 212.981C42.7265 212.981 42.2972 213.168 41.9145 213.541C41.5412 213.905 41.3172 214.423 41.2425 215.095ZM48.9484 219.211C48.3791 219.211 47.9031 219.043 47.5204 218.707C47.1471 218.362 46.9604 217.886 46.9604 217.279C46.9604 216.533 47.2918 215.963 47.9544 215.571C48.6264 215.17 49.6858 214.89 51.1324 214.731C51.1324 214.442 51.0904 214.167 51.0064 213.905C50.9318 213.644 50.7918 213.434 50.5864 213.275C50.3904 213.107 50.1058 213.023 49.7324 213.023C49.3404 213.023 48.9718 213.098 48.6264 213.247C48.2811 213.397 47.9731 213.565 47.7024 213.751L47.2544 212.953C47.5718 212.748 47.9591 212.552 48.4164 212.365C48.8831 212.169 49.3871 212.071 49.9284 212.071C50.7591 212.071 51.3611 212.328 51.7344 212.841C52.1078 213.345 52.2944 214.022 52.2944 214.871V219.043H51.3424L51.2444 218.231H51.2024C50.8851 218.493 50.5351 218.721 50.1524 218.917C49.7791 219.113 49.3778 219.211 48.9484 219.211ZM49.2844 218.287C49.6111 218.287 49.9191 218.208 50.2084 218.049C50.4978 217.891 50.8058 217.667 51.1324 217.377V215.487C50.0031 215.627 49.2098 215.837 48.7524 216.117C48.3044 216.397 48.0804 216.757 48.0804 217.195C48.0804 217.578 48.1971 217.858 48.4304 218.035C48.6638 218.203 48.9484 218.287 49.2844 218.287ZM54.4351 219.043V212.239H55.3871L55.4851 213.471H55.5271C55.7604 213.042 56.0451 212.701 56.3811 212.449C56.7171 212.197 57.0764 212.071 57.4591 212.071C57.7298 212.071 57.9724 212.118 58.1871 212.211L57.9631 213.219C57.8511 213.182 57.7484 213.154 57.6551 213.135C57.5618 213.117 57.4451 213.107 57.3051 213.107C57.0158 213.107 56.7124 213.224 56.3951 213.457C56.0871 213.691 55.8164 214.097 55.5831 214.675V219.043H54.4351ZM61.8399 219.211C61.2426 219.211 60.7012 219.071 60.2159 218.791C59.7306 218.511 59.3479 218.105 59.0679 217.573C58.7879 217.041 58.6479 216.402 58.6479 215.655C58.6479 214.89 58.7972 214.241 59.0959 213.709C59.4039 213.177 59.8052 212.771 60.2999 212.491C60.8039 212.211 61.3452 212.071 61.9239 212.071C62.3719 212.071 62.7546 212.151 63.0719 212.309C63.3986 212.468 63.6786 212.655 63.9119 212.869L63.3239 213.625C63.1279 213.448 62.9179 213.303 62.6939 213.191C62.4792 213.079 62.2366 213.023 61.9659 213.023C61.5552 213.023 61.1866 213.135 60.8599 213.359C60.5426 213.574 60.2906 213.882 60.1039 214.283C59.9266 214.675 59.8379 215.133 59.8379 215.655C59.8379 216.43 60.0292 217.06 60.4119 217.545C60.8039 218.021 61.3126 218.259 61.9379 218.259C62.2552 218.259 62.5492 218.194 62.8199 218.063C63.0906 217.923 63.3286 217.76 63.5339 217.573L64.0379 218.343C63.7299 218.614 63.3892 218.829 63.0159 218.987C62.6426 219.137 62.2506 219.211 61.8399 219.211ZM65.5367 219.043V209.075H66.6847V211.791L66.6427 213.191C66.9693 212.883 67.31 212.622 67.6647 212.407C68.0287 212.183 68.444 212.071 68.9107 212.071C69.6293 212.071 70.152 212.3 70.4787 212.757C70.8147 213.205 70.9827 213.863 70.9827 214.731V219.043H69.8347V214.885C69.8347 214.251 69.732 213.789 69.5267 213.499C69.3213 213.21 68.9947 213.065 68.5467 213.065C68.2013 213.065 67.8887 213.154 67.6087 213.331C67.338 213.509 67.03 213.77 66.6847 214.115V219.043H65.5367Z" fill="black"/>
<mask id="path-6-inside-1_775_3058" fill="white">
<path d="M441 45.0432H544C546.209 45.0432 548 46.8341 548 49.0432V67.0432C548 69.2524 546.209 71.0432 544 71.0432H441V45.0432Z"/>
</mask>
<path d="M441 45.0432H544C546.209 45.0432 548 46.8341 548 49.0432V67.0432C548 69.2524 546.209 71.0432 544 71.0432H441V45.0432Z" fill="white"/>
<path d="M440.75 44.5432H544C546.485 44.5432 548.5 46.5579 548.5 49.0432H547.5C547.5 47.1102 545.933 45.5432 544 45.5432H441.25L440.75 44.5432ZM548.5 67.0432C548.5 69.5285 546.485 71.5432 544 71.5432H440.75L441.25 70.5432H544C545.933 70.5432 547.5 68.9762 547.5 67.0432H548.5ZM440.75 71.5432V44.5432L441.25 45.5432V70.5432L440.75 71.5432ZM544 44.5432C546.485 44.5432 548.5 46.5579 548.5 49.0432V67.0432C548.5 69.5285 546.485 71.5432 544 71.5432V70.5432C545.933 70.5432 547.5 68.9762 547.5 67.0432V49.0432C547.5 47.1102 545.933 45.5432 544 45.5432V44.5432Z" fill="#B9BDC5" mask="url(#path-6-inside-1_775_3058)"/>
<path d="M471.44 64.0432V53.5472H473.04L475.056 59.1472C475.184 59.5099 475.307 59.8779 475.424 60.2512C475.552 60.6139 475.68 60.9765 475.808 61.3392H475.872C476 60.9765 476.117 60.6139 476.224 60.2512C476.341 59.8779 476.464 59.5099 476.592 59.1472L478.576 53.5472H480.192V64.0432H478.944V58.2672C478.944 57.7979 478.965 57.2805 479.008 56.7152C479.051 56.1392 479.088 55.6219 479.12 55.1632H479.056L478.224 57.5472L476.24 62.9872H475.36L473.376 57.5472L472.544 55.1632H472.48C472.512 55.6219 472.544 56.1392 472.576 56.7152C472.619 57.2805 472.64 57.7979 472.64 58.2672V64.0432H471.44ZM486.297 64.2352C485.422 64.2352 484.644 64.0112 483.961 63.5632C483.289 63.1152 482.761 62.4805 482.377 61.6592C482.004 60.8379 481.817 59.8672 481.817 58.7472C481.817 57.6272 482.004 56.6672 482.377 55.8672C482.761 55.0565 483.289 54.4379 483.961 54.0112C484.644 53.5739 485.422 53.3552 486.297 53.3552C487.182 53.3552 487.961 53.5739 488.633 54.0112C489.305 54.4379 489.833 55.0565 490.217 55.8672C490.601 56.6672 490.793 57.6272 490.793 58.7472C490.793 59.8672 490.601 60.8379 490.217 61.6592C489.833 62.4805 489.305 63.1152 488.633 63.5632C487.961 64.0112 487.182 64.2352 486.297 64.2352ZM486.297 63.0672C486.926 63.0672 487.47 62.8912 487.929 62.5392C488.398 62.1765 488.761 61.6752 489.017 61.0352C489.273 60.3845 489.401 59.6219 489.401 58.7472C489.401 57.4459 489.118 56.4165 488.553 55.6592C487.988 54.9019 487.236 54.5232 486.297 54.5232C485.358 54.5232 484.606 54.9019 484.041 55.6592C483.476 56.4165 483.193 57.4459 483.193 58.7472C483.193 59.6219 483.321 60.3845 483.577 61.0352C483.833 61.6752 484.196 62.1765 484.665 62.5392C485.134 62.8912 485.678 63.0672 486.297 63.0672ZM492.41 64.0432V53.5472H493.786L497.578 60.1392L498.714 62.3152H498.778C498.746 61.7819 498.709 61.2325 498.666 60.6672C498.634 60.0912 498.618 59.5259 498.618 58.9712V53.5472H499.882V64.0432H498.506L494.698 57.4352L493.562 55.2752H493.498C493.541 55.7979 493.578 56.3365 493.61 56.8912C493.653 57.4459 493.674 58.0005 493.674 58.5552V64.0432H492.41ZM504.305 64.0432V54.6672H501.137V53.5472H508.817V54.6672H505.649V64.0432H504.305ZM510.067 64.0432V53.5472H511.395V57.9472H516.275V53.5472H517.619V64.0432H516.275V59.0992H511.395V64.0432H510.067Z" fill="#1991EB"/>
<mask id="path-9-inside-2_775_3058" fill="white">
<path d="M227 71.0432L124 71.0432C121.791 71.0432 120 69.2523 120 67.0432L120 49.0432C120 46.8341 121.791 45.0432 124 45.0432L227 45.0432L227 71.0432Z"/>
</mask>
<path d="M227 71.0432L124 71.0432C121.791 71.0432 120 69.2523 120 67.0432L120 49.0432C120 46.8341 121.791 45.0432 124 45.0432L227 45.0432L227 71.0432Z" fill="white"/>
<path d="M227.25 71.5432L124 71.5432C121.515 71.5432 119.5 69.5285 119.5 67.0432L120.5 67.0432C120.5 68.9762 122.067 70.5432 124 70.5432L226.75 70.5432L227.25 71.5432ZM119.5 49.0432C119.5 46.5579 121.515 44.5432 124 44.5432L227.25 44.5432L226.75 45.5432L124 45.5432C122.067 45.5432 120.5 47.1102 120.5 49.0432L119.5 49.0432ZM227.25 44.5432L227.25 71.5432L226.75 70.5432L226.75 45.5432L227.25 44.5432ZM124 71.5432C121.515 71.5432 119.5 69.5285 119.5 67.0432L119.5 49.0432C119.5 46.5579 121.515 44.5432 124 44.5432L124 45.5432C122.067 45.5432 120.5 47.1102 120.5 49.0432L120.5 67.0432C120.5 68.9762 122.067 70.5432 124 70.5432L124 71.5432Z" fill="#B9BDC5" mask="url(#path-9-inside-2_775_3058)"/>
<path d="M160.352 64.2352C159.616 64.2352 158.933 64.0965 158.304 63.8192C157.675 63.5312 157.131 63.1525 156.672 62.6832L157.472 61.7552C157.845 62.1499 158.283 62.4699 158.784 62.7152C159.296 62.9499 159.824 63.0672 160.368 63.0672C161.061 63.0672 161.6 62.9125 161.984 62.6032C162.368 62.2832 162.56 61.8672 162.56 61.3552C162.56 60.9925 162.48 60.7045 162.32 60.4912C162.171 60.2779 161.963 60.0965 161.696 59.9472C161.44 59.7979 161.147 59.6485 160.816 59.4992L159.312 58.8432C158.981 58.7045 158.651 58.5232 158.32 58.2992C158 58.0752 157.728 57.7872 157.504 57.4352C157.291 57.0832 157.184 56.6512 157.184 56.1392C157.184 55.6059 157.323 55.1312 157.6 54.7152C157.888 54.2885 158.283 53.9579 158.784 53.7232C159.285 53.4779 159.851 53.3552 160.48 53.3552C161.109 53.3552 161.691 53.4779 162.224 53.7232C162.757 53.9579 163.211 54.2672 163.584 54.6512L162.864 55.5152C162.544 55.2059 162.187 54.9659 161.792 54.7952C161.408 54.6139 160.971 54.5232 160.48 54.5232C159.893 54.5232 159.419 54.6619 159.056 54.9392C158.704 55.2165 158.528 55.5899 158.528 56.0592C158.528 56.3899 158.613 56.6672 158.784 56.8912C158.965 57.1045 159.189 57.2805 159.456 57.4192C159.723 57.5579 159.995 57.6859 160.272 57.8032L161.76 58.4432C162.165 58.6139 162.528 58.8219 162.848 59.0672C163.179 59.3019 163.44 59.5952 163.632 59.9472C163.824 60.2885 163.92 60.7205 163.92 61.2432C163.92 61.7979 163.776 62.3045 163.488 62.7632C163.2 63.2112 162.789 63.5685 162.256 63.8352C161.723 64.1019 161.088 64.2352 160.352 64.2352ZM165.347 64.0432V53.5472H171.395V54.6672H166.675V57.9632H170.659V59.0992H166.675V62.9072H171.555V64.0432H165.347ZM174.952 58.1712L174.456 59.7712H177.608L177.112 58.1712C176.92 57.5845 176.739 57.0032 176.568 56.4272C176.398 55.8405 176.227 55.2432 176.056 54.6352H175.992C175.832 55.2432 175.667 55.8405 175.496 56.4272C175.326 57.0032 175.144 57.5845 174.952 58.1712ZM171.752 64.0432L175.304 53.5472H176.808L180.36 64.0432H178.936L177.944 60.8432H174.12L173.112 64.0432H171.752ZM181.207 64.0432V53.5472H184.488C185.202 53.5472 185.837 53.6432 186.392 53.8352C186.946 54.0165 187.378 54.3259 187.688 54.7632C188.008 55.1899 188.168 55.7659 188.168 56.4912C188.168 57.3019 187.954 57.9579 187.528 58.4592C187.101 58.9499 186.525 59.2859 185.799 59.4672L188.472 64.0432H186.968L184.44 59.6112H182.536V64.0432H181.207ZM182.536 58.5232H184.296C185.117 58.5232 185.746 58.3579 186.184 58.0272C186.621 57.6859 186.84 57.1739 186.84 56.4912C186.84 55.7979 186.621 55.3125 186.184 55.0352C185.746 54.7579 185.117 54.6192 184.296 54.6192H182.536V58.5232ZM193.645 64.2352C192.77 64.2352 191.986 64.0219 191.293 63.5952C190.61 63.1579 190.066 62.5339 189.661 61.7232C189.266 60.9125 189.069 59.9365 189.069 58.7952C189.069 57.6645 189.272 56.6939 189.677 55.8832C190.082 55.0725 190.637 54.4485 191.341 54.0112C192.045 53.5739 192.84 53.3552 193.725 53.3552C194.365 53.3552 194.93 53.4885 195.421 53.7552C195.912 54.0112 196.306 54.3099 196.605 54.6512L195.885 55.5152C195.608 55.2165 195.293 54.9765 194.941 54.7952C194.589 54.6139 194.189 54.5232 193.741 54.5232C193.08 54.5232 192.498 54.6992 191.997 55.0512C191.506 55.3925 191.122 55.8779 190.845 56.5072C190.578 57.1365 190.445 57.8885 190.445 58.7632C190.445 59.6379 190.578 60.4005 190.845 61.0512C191.112 61.6912 191.485 62.1872 191.965 62.5392C192.456 62.8912 193.032 63.0672 193.693 63.0672C194.194 63.0672 194.642 62.9605 195.037 62.7472C195.432 62.5339 195.794 62.2459 196.125 61.8832L196.861 62.7152C196.445 63.1952 195.976 63.5685 195.453 63.8352C194.93 64.1019 194.328 64.2352 193.645 64.2352ZM198.177 64.0432V53.5472H199.505V57.9472H204.385V53.5472H205.729V64.0432H204.385V59.0992H199.505V64.0432H198.177Z" fill="#1991EB"/>
<circle cx="143.715" cy="57.2579" r="4.21473" stroke="#1991EB"/>
<line x1="147.211" y1="60.0476" x2="150.353" y2="63.1897" stroke="#1991EB"/>
<mask id="path-14-inside-3_775_3058" fill="white">
<path d="M441 71.0432L334 71.0432L334 45.0432L441 45.0432L441 71.0432Z"/>
</mask>
<path d="M441 71.0432L334 71.0432L334 45.0432L441 45.0432L441 71.0432Z" fill="white"/>
<path d="M441 71.0432L441 71.5432L441.25 71.5432L441.25 71.0432L441 71.0432ZM334 71.0432L333.75 71.0432L333.75 71.5432L334 71.5432L334 71.0432ZM334 45.0432L334 44.5432L333.75 44.5432L333.75 45.0432L334 45.0432ZM441 45.0432L441.25 45.0432L441.25 44.5432L441 44.5432L441 45.0432ZM441 70.5432L334 70.5432L334 71.5432L441 71.5432L441 70.5432ZM334.25 71.0432L334.25 45.0432L333.75 45.0432L333.75 71.0432L334.25 71.0432ZM334 45.5432L441 45.5432L441 44.5432L334 44.5432L334 45.5432ZM440.75 45.0432L440.75 71.0432L441.25 71.0432L441.25 45.0432L440.75 45.0432Z" fill="#B9BDC5" mask="url(#path-14-inside-3_775_3058)"/>
<path d="M371.592 64.0432L369.368 53.5472H370.744L371.848 59.2592C371.944 59.8245 372.045 60.3899 372.152 60.9552C372.259 61.5205 372.36 62.0859 372.456 62.6512H372.52C372.637 62.0859 372.76 61.5205 372.888 60.9552C373.016 60.3792 373.139 59.8139 373.256 59.2592L374.712 53.5472H375.928L377.384 59.2592C377.512 59.8139 377.64 60.3792 377.768 60.9552C377.896 61.5205 378.024 62.0859 378.152 62.6512H378.216C378.312 62.0859 378.408 61.5205 378.504 60.9552C378.6 60.3792 378.701 59.8139 378.808 59.2592L379.912 53.5472H381.192L379.016 64.0432H377.416L375.832 57.7232C375.736 57.3179 375.645 56.9232 375.56 56.5392C375.485 56.1445 375.405 55.7445 375.32 55.3392H375.256C375.181 55.7445 375.096 56.1445 375 56.5392C374.904 56.9232 374.813 57.3179 374.728 57.7232L373.176 64.0432H371.592ZM382.378 64.0432V53.5472H388.426V54.6672H383.706V57.9632H387.69V59.0992H383.706V62.9072H388.586V64.0432H382.378ZM390.176 64.0432V53.5472H396.224V54.6672H391.504V57.9632H395.488V59.0992H391.504V62.9072H396.384V64.0432H390.176ZM397.973 64.0432V53.5472H399.301V58.8112H399.349L403.717 53.5472H405.221L401.941 57.5472L405.733 64.0432H404.245L401.109 58.5872L399.301 60.7152V64.0432H397.973Z" fill="#1991EB"/>
<mask id="path-17-inside-4_775_3058" fill="white">
<path d="M334 71.0432L227 71.0432L227 45.0432L334 45.0432L334 71.0432Z"/>
</mask>
<path d="M334 71.0432L227 71.0432L227 45.0432L334 45.0432L334 71.0432Z" fill="#1991EB"/>
<path d="M334 71.0432L334 71.5432L334.25 71.5432L334.25 71.0432L334 71.0432ZM227 71.0432L226.75 71.0432L226.75 71.5432L227 71.5432L227 71.0432ZM227 45.0432L227 44.5432L226.75 44.5432L226.75 45.0432L227 45.0432ZM334 45.0432L334.25 45.0432L334.25 44.5432L334 44.5432L334 45.0432ZM334 70.5432L227 70.5432L227 71.5432L334 71.5432L334 70.5432ZM227.25 71.0432L227.25 45.0432L226.75 45.0432L226.75 71.0432L227.25 71.0432ZM227 45.5432L334 45.5432L334 44.5432L227 44.5432L227 45.5432ZM333.75 45.0432L333.75 71.0432L334.25 71.0432L334.25 45.0432L333.75 45.0432Z" fill="#B9BDC5" mask="url(#path-17-inside-4_775_3058)"/>
<path d="M269.44 64.0432V53.5472H272.064C273.685 53.5472 274.917 54.0005 275.76 54.9072C276.603 55.8032 277.024 57.0832 277.024 58.7472C277.024 60.4219 276.603 61.7232 275.76 62.6512C274.928 63.5792 273.717 64.0432 272.128 64.0432H269.44ZM270.768 62.9552H271.968C273.195 62.9552 274.112 62.5872 274.72 61.8512C275.339 61.1045 275.648 60.0699 275.648 58.7472C275.648 57.4245 275.339 56.4112 274.72 55.7072C274.112 54.9925 273.195 54.6352 271.968 54.6352H270.768V62.9552ZM280.295 58.1712L279.799 59.7712H282.951L282.456 58.1712C282.264 57.5845 282.082 57.0032 281.911 56.4272C281.741 55.8405 281.57 55.2432 281.399 54.6352H281.335C281.175 55.2432 281.01 55.8405 280.839 56.4272C280.669 57.0032 280.487 57.5845 280.295 58.1712ZM277.095 64.0432L280.647 53.5472H282.151L285.703 64.0432H284.28L283.287 60.8432H279.463L278.455 64.0432H277.095ZM288.028 64.0432V59.9792L284.876 53.5472H286.3L287.66 56.5072C287.831 56.8912 287.996 57.2699 288.156 57.6432C288.327 58.0165 288.497 58.4005 288.668 58.7952H288.732C288.913 58.4005 289.095 58.0165 289.276 57.6432C289.457 57.2699 289.628 56.8912 289.788 56.5072L291.132 53.5472H292.524L289.372 59.9792V64.0432H288.028Z" fill="white"/>
<mask id="path-20-inside-5_775_3058" fill="white">
<path d="M441 201.043H544C546.209 201.043 548 202.834 548 205.043V223.043C548 225.252 546.209 227.043 544 227.043H441V201.043Z"/>
</mask>
<path d="M441 201.043H544C546.209 201.043 548 202.834 548 205.043V223.043C548 225.252 546.209 227.043 544 227.043H441V201.043Z" fill="#1991EB"/>
<path d="M440.75 200.543H544C546.485 200.543 548.5 202.558 548.5 205.043H547.5C547.5 203.11 545.933 201.543 544 201.543H441.25L440.75 200.543ZM548.5 223.043C548.5 225.528 546.485 227.543 544 227.543H440.75L441.25 226.543H544C545.933 226.543 547.5 224.976 547.5 223.043H548.5ZM440.75 227.543V200.543L441.25 201.543V226.543L440.75 227.543ZM544 200.543C546.485 200.543 548.5 202.558 548.5 205.043V223.043C548.5 225.528 546.485 227.543 544 227.543V226.543C545.933 226.543 547.5 224.976 547.5 223.043V205.043C547.5 203.11 545.933 201.543 544 201.543V200.543Z" fill="#B9BDC5" mask="url(#path-20-inside-5_775_3058)"/>
<path d="M471.44 220.043V209.547H473.04L475.056 215.147C475.184 215.51 475.307 215.878 475.424 216.251C475.552 216.614 475.68 216.977 475.808 217.339H475.872C476 216.977 476.117 216.614 476.224 216.251C476.341 215.878 476.464 215.51 476.592 215.147L478.576 209.547H480.192V220.043H478.944V214.267C478.944 213.798 478.965 213.281 479.008 212.715C479.051 212.139 479.088 211.622 479.12 211.163H479.056L478.224 213.547L476.24 218.987H475.36L473.376 213.547L472.544 211.163H472.48C472.512 211.622 472.544 212.139 472.576 212.715C472.619 213.281 472.64 213.798 472.64 214.267V220.043H471.44ZM486.297 220.235C485.422 220.235 484.644 220.011 483.961 219.563C483.289 219.115 482.761 218.481 482.377 217.659C482.004 216.838 481.817 215.867 481.817 214.747C481.817 213.627 482.004 212.667 482.377 211.867C482.761 211.057 483.289 210.438 483.961 210.011C484.644 209.574 485.422 209.355 486.297 209.355C487.182 209.355 487.961 209.574 488.633 210.011C489.305 210.438 489.833 211.057 490.217 211.867C490.601 212.667 490.793 213.627 490.793 214.747C490.793 215.867 490.601 216.838 490.217 217.659C489.833 218.481 489.305 219.115 488.633 219.563C487.961 220.011 487.182 220.235 486.297 220.235ZM486.297 219.067C486.926 219.067 487.47 218.891 487.929 218.539C488.398 218.177 488.761 217.675 489.017 217.035C489.273 216.385 489.401 215.622 489.401 214.747C489.401 213.446 489.118 212.417 488.553 211.659C487.988 210.902 487.236 210.523 486.297 210.523C485.358 210.523 484.606 210.902 484.041 211.659C483.476 212.417 483.193 213.446 483.193 214.747C483.193 215.622 483.321 216.385 483.577 217.035C483.833 217.675 484.196 218.177 484.665 218.539C485.134 218.891 485.678 219.067 486.297 219.067ZM492.41 220.043V209.547H493.786L497.578 216.139L498.714 218.315H498.778C498.746 217.782 498.709 217.233 498.666 216.667C498.634 216.091 498.618 215.526 498.618 214.971V209.547H499.882V220.043H498.506L494.698 213.435L493.562 211.275H493.498C493.541 211.798 493.578 212.337 493.61 212.891C493.653 213.446 493.674 214.001 493.674 214.555V220.043H492.41ZM504.305 220.043V210.667H501.137V209.547H508.817V210.667H505.649V220.043H504.305ZM510.067 220.043V209.547H511.395V213.947H516.275V209.547H517.619V220.043H516.275V215.099H511.395V220.043H510.067Z" fill="white"/>
<mask id="path-23-inside-6_775_3058" fill="white">
<path d="M227 227.043L124 227.043C121.791 227.043 120 225.252 120 223.043L120 205.043C120 202.834 121.791 201.043 124 201.043L227 201.043L227 227.043Z"/>
</mask>
<path d="M227 227.043L124 227.043C121.791 227.043 120 225.252 120 223.043L120 205.043C120 202.834 121.791 201.043 124 201.043L227 201.043L227 227.043Z" fill="white"/>
<path d="M227.25 227.543L124 227.543C121.515 227.543 119.5 225.528 119.5 223.043L120.5 223.043C120.5 224.976 122.067 226.543 124 226.543L226.75 226.543L227.25 227.543ZM119.5 205.043C119.5 202.558 121.515 200.543 124 200.543L227.25 200.543L226.75 201.543L124 201.543C122.067 201.543 120.5 203.11 120.5 205.043L119.5 205.043ZM227.25 200.543L227.25 227.543L226.75 226.543L226.75 201.543L227.25 200.543ZM124 227.543C121.515 227.543 119.5 225.528 119.5 223.043L119.5 205.043C119.5 202.558 121.515 200.543 124 200.543L124 201.543C122.067 201.543 120.5 203.11 120.5 205.043L120.5 223.043C120.5 224.976 122.067 226.543 124 226.543L124 227.543Z" fill="#B9BDC5" mask="url(#path-23-inside-6_775_3058)"/>
<path d="M160.352 220.235C159.616 220.235 158.933 220.097 158.304 219.819C157.675 219.531 157.131 219.153 156.672 218.683L157.472 217.755C157.845 218.15 158.283 218.47 158.784 218.715C159.296 218.95 159.824 219.067 160.368 219.067C161.061 219.067 161.6 218.913 161.984 218.603C162.368 218.283 162.56 217.867 162.56 217.355C162.56 216.993 162.48 216.705 162.32 216.491C162.171 216.278 161.963 216.097 161.696 215.947C161.44 215.798 161.147 215.649 160.816 215.499L159.312 214.843C158.981 214.705 158.651 214.523 158.32 214.299C158 214.075 157.728 213.787 157.504 213.435C157.291 213.083 157.184 212.651 157.184 212.139C157.184 211.606 157.323 211.131 157.6 210.715C157.888 210.289 158.283 209.958 158.784 209.723C159.285 209.478 159.851 209.355 160.48 209.355C161.109 209.355 161.691 209.478 162.224 209.723C162.757 209.958 163.211 210.267 163.584 210.651L162.864 211.515C162.544 211.206 162.187 210.966 161.792 210.795C161.408 210.614 160.971 210.523 160.48 210.523C159.893 210.523 159.419 210.662 159.056 210.939C158.704 211.217 158.528 211.59 158.528 212.059C158.528 212.39 158.613 212.667 158.784 212.891C158.965 213.105 159.189 213.281 159.456 213.419C159.723 213.558 159.995 213.686 160.272 213.803L161.76 214.443C162.165 214.614 162.528 214.822 162.848 215.067C163.179 215.302 163.44 215.595 163.632 215.947C163.824 216.289 163.92 216.721 163.92 217.243C163.92 217.798 163.776 218.305 163.488 218.763C163.2 219.211 162.789 219.569 162.256 219.835C161.723 220.102 161.088 220.235 160.352 220.235ZM165.347 220.043V209.547H171.395V210.667H166.675V213.963H170.659V215.099H166.675V218.907H171.555V220.043H165.347ZM174.952 214.171L174.456 215.771H177.608L177.112 214.171C176.92 213.585 176.739 213.003 176.568 212.427C176.398 211.841 176.227 211.243 176.056 210.635H175.992C175.832 211.243 175.667 211.841 175.496 212.427C175.326 213.003 175.144 213.585 174.952 214.171ZM171.752 220.043L175.304 209.547H176.808L180.36 220.043H178.936L177.944 216.843H174.12L173.112 220.043H171.752ZM181.207 220.043V209.547H184.488C185.202 209.547 185.837 209.643 186.392 209.835C186.946 210.017 187.378 210.326 187.688 210.763C188.008 211.19 188.168 211.766 188.168 212.491C188.168 213.302 187.954 213.958 187.528 214.459C187.101 214.95 186.525 215.286 185.799 215.467L188.472 220.043H186.968L184.44 215.611H182.536V220.043H181.207ZM182.536 214.523H184.296C185.117 214.523 185.746 214.358 186.184 214.027C186.621 213.686 186.84 213.174 186.84 212.491C186.84 211.798 186.621 211.313 186.184 211.035C185.746 210.758 185.117 210.619 184.296 210.619H182.536V214.523ZM193.645 220.235C192.77 220.235 191.986 220.022 191.293 219.595C190.61 219.158 190.066 218.534 189.661 217.723C189.266 216.913 189.069 215.937 189.069 214.795C189.069 213.665 189.272 212.694 189.677 211.883C190.082 211.073 190.637 210.449 191.341 210.011C192.045 209.574 192.84 209.355 193.725 209.355C194.365 209.355 194.93 209.489 195.421 209.755C195.912 210.011 196.306 210.31 196.605 210.651L195.885 211.515C195.608 211.217 195.293 210.977 194.941 210.795C194.589 210.614 194.189 210.523 193.741 210.523C193.08 210.523 192.498 210.699 191.997 211.051C191.506 211.393 191.122 211.878 190.845 212.507C190.578 213.137 190.445 213.889 190.445 214.763C190.445 215.638 190.578 216.401 190.845 217.051C191.112 217.691 191.485 218.187 191.965 218.539C192.456 218.891 193.032 219.067 193.693 219.067C194.194 219.067 194.642 218.961 195.037 218.747C195.432 218.534 195.794 218.246 196.125 217.883L196.861 218.715C196.445 219.195 195.976 219.569 195.453 219.835C194.93 220.102 194.328 220.235 193.645 220.235ZM198.177 220.043V209.547H199.505V213.947H204.385V209.547H205.729V220.043H204.385V215.099H199.505V220.043H198.177Z" fill="#1991EB"/>
<circle cx="143.715" cy="213.258" r="4.21473" stroke="#1991EB"/>
<line x1="147.211" y1="216.048" x2="150.353" y2="219.19" stroke="#1991EB"/>
<mask id="path-28-inside-7_775_3058" fill="white">
<path d="M441 227.043L334 227.043L334 201.043L441 201.043L441 227.043Z"/>
</mask>
<path d="M441 227.043L334 227.043L334 201.043L441 201.043L441 227.043Z" fill="white"/>
<path d="M441 227.043L441 227.543L441.25 227.543L441.25 227.043L441 227.043ZM334 227.043L333.75 227.043L333.75 227.543L334 227.543L334 227.043ZM334 201.043L334 200.543L333.75 200.543L333.75 201.043L334 201.043ZM441 201.043L441.25 201.043L441.25 200.543L441 200.543L441 201.043ZM441 226.543L334 226.543L334 227.543L441 227.543L441 226.543ZM334.25 227.043L334.25 201.043L333.75 201.043L333.75 227.043L334.25 227.043ZM334 201.543L441 201.543L441 200.543L334 200.543L334 201.543ZM440.75 201.043L440.75 227.043L441.25 227.043L441.25 201.043L440.75 201.043Z" fill="#B9BDC5" mask="url(#path-28-inside-7_775_3058)"/>
<path d="M371.592 220.043L369.368 209.547H370.744L371.848 215.259C371.944 215.825 372.045 216.39 372.152 216.955C372.259 217.521 372.36 218.086 372.456 218.651H372.52C372.637 218.086 372.76 217.521 372.888 216.955C373.016 216.379 373.139 215.814 373.256 215.259L374.712 209.547H375.928L377.384 215.259C377.512 215.814 377.64 216.379 377.768 216.955C377.896 217.521 378.024 218.086 378.152 218.651H378.216C378.312 218.086 378.408 217.521 378.504 216.955C378.6 216.379 378.701 215.814 378.808 215.259L379.912 209.547H381.192L379.016 220.043H377.416L375.832 213.723C375.736 213.318 375.645 212.923 375.56 212.539C375.485 212.145 375.405 211.745 375.32 211.339H375.256C375.181 211.745 375.096 212.145 375 212.539C374.904 212.923 374.813 213.318 374.728 213.723L373.176 220.043H371.592ZM382.378 220.043V209.547H388.426V210.667H383.706V213.963H387.69V215.099H383.706V218.907H388.586V220.043H382.378ZM390.176 220.043V209.547H396.224V210.667H391.504V213.963H395.488V215.099H391.504V218.907H396.384V220.043H390.176ZM397.973 220.043V209.547H399.301V214.811H399.349L403.717 209.547H405.221L401.941 213.547L405.733 220.043H404.245L401.109 214.587L399.301 216.715V220.043H397.973Z" fill="#1991EB"/>
<mask id="path-31-inside-8_775_3058" fill="white">
<path d="M334 227.043L227 227.043L227 201.043L334 201.043L334 227.043Z"/>
</mask>
<path d="M334 227.043L227 227.043L227 201.043L334 201.043L334 227.043Z" fill="white"/>
<path d="M334 227.043L334 227.543L334.25 227.543L334.25 227.043L334 227.043ZM227 227.043L226.75 227.043L226.75 227.543L227 227.543L227 227.043ZM227 201.043L227 200.543L226.75 200.543L226.75 201.043L227 201.043ZM334 201.043L334.25 201.043L334.25 200.543L334 200.543L334 201.043ZM334 226.543L227 226.543L227 227.543L334 227.543L334 226.543ZM227.25 227.043L227.25 201.043L226.75 201.043L226.75 227.043L227.25 227.043ZM227 201.543L334 201.543L334 200.543L227 200.543L227 201.543ZM333.75 201.043L333.75 227.043L334.25 227.043L334.25 201.043L333.75 201.043Z" fill="#B9BDC5" mask="url(#path-31-inside-8_775_3058)"/>
<path d="M269.44 220.043V209.547H272.064C273.685 209.547 274.917 210.001 275.76 210.907C276.603 211.803 277.024 213.083 277.024 214.747C277.024 216.422 276.603 217.723 275.76 218.651C274.928 219.579 273.717 220.043 272.128 220.043H269.44ZM270.768 218.955H271.968C273.195 218.955 274.112 218.587 274.72 217.851C275.339 217.105 275.648 216.07 275.648 214.747C275.648 213.425 275.339 212.411 274.72 211.707C274.112 210.993 273.195 210.635 271.968 210.635H270.768V218.955ZM280.295 214.171L279.799 215.771H282.951L282.456 214.171C282.264 213.585 282.082 213.003 281.911 212.427C281.741 211.841 281.57 211.243 281.399 210.635H281.335C281.175 211.243 281.01 211.841 280.839 212.427C280.669 213.003 280.487 213.585 280.295 214.171ZM277.095 220.043L280.647 209.547H282.151L285.703 220.043H284.28L283.287 216.843H279.463L278.455 220.043H277.095ZM288.028 220.043V215.979L284.876 209.547H286.3L287.66 212.507C287.831 212.891 287.996 213.27 288.156 213.643C288.327 214.017 288.497 214.401 288.668 214.795H288.732C288.913 214.401 289.095 214.017 289.276 213.643C289.457 213.27 289.628 212.891 289.788 212.507L291.132 209.547H292.524L289.372 215.979V220.043H288.028Z" fill="#1991EB"/>
<mask id="path-34-inside-9_775_3058" fill="white">
<path d="M441 151.043H544C546.209 151.043 548 152.834 548 155.043V173.043C548 175.252 546.209 177.043 544 177.043H441V151.043Z"/>
</mask>
<path d="M441 151.043H544C546.209 151.043 548 152.834 548 155.043V173.043C548 175.252 546.209 177.043 544 177.043H441V151.043Z" fill="white"/>
<path d="M440.75 150.543H544C546.485 150.543 548.5 152.558 548.5 155.043H547.5C547.5 153.11 545.933 151.543 544 151.543H441.25L440.75 150.543ZM548.5 173.043C548.5 175.528 546.485 177.543 544 177.543H440.75L441.25 176.543H544C545.933 176.543 547.5 174.976 547.5 173.043H548.5ZM440.75 177.543V150.543L441.25 151.543V176.543L440.75 177.543ZM544 150.543C546.485 150.543 548.5 152.558 548.5 155.043V173.043C548.5 175.528 546.485 177.543 544 177.543V176.543C545.933 176.543 547.5 174.976 547.5 173.043V155.043C547.5 153.11 545.933 151.543 544 151.543V150.543Z" fill="#B9BDC5" mask="url(#path-34-inside-9_775_3058)"/>
<path d="M471.44 170.043V159.547H473.04L475.056 165.147C475.184 165.51 475.307 165.878 475.424 166.251C475.552 166.614 475.68 166.977 475.808 167.339H475.872C476 166.977 476.117 166.614 476.224 166.251C476.341 165.878 476.464 165.51 476.592 165.147L478.576 159.547H480.192V170.043H478.944V164.267C478.944 163.798 478.965 163.281 479.008 162.715C479.051 162.139 479.088 161.622 479.12 161.163H479.056L478.224 163.547L476.24 168.987H475.36L473.376 163.547L472.544 161.163H472.48C472.512 161.622 472.544 162.139 472.576 162.715C472.619 163.281 472.64 163.798 472.64 164.267V170.043H471.44ZM486.297 170.235C485.422 170.235 484.644 170.011 483.961 169.563C483.289 169.115 482.761 168.481 482.377 167.659C482.004 166.838 481.817 165.867 481.817 164.747C481.817 163.627 482.004 162.667 482.377 161.867C482.761 161.057 483.289 160.438 483.961 160.011C484.644 159.574 485.422 159.355 486.297 159.355C487.182 159.355 487.961 159.574 488.633 160.011C489.305 160.438 489.833 161.057 490.217 161.867C490.601 162.667 490.793 163.627 490.793 164.747C490.793 165.867 490.601 166.838 490.217 167.659C489.833 168.481 489.305 169.115 488.633 169.563C487.961 170.011 487.182 170.235 486.297 170.235ZM486.297 169.067C486.926 169.067 487.47 168.891 487.929 168.539C488.398 168.177 488.761 167.675 489.017 167.035C489.273 166.385 489.401 165.622 489.401 164.747C489.401 163.446 489.118 162.417 488.553 161.659C487.988 160.902 487.236 160.523 486.297 160.523C485.358 160.523 484.606 160.902 484.041 161.659C483.476 162.417 483.193 163.446 483.193 164.747C483.193 165.622 483.321 166.385 483.577 167.035C483.833 167.675 484.196 168.177 484.665 168.539C485.134 168.891 485.678 169.067 486.297 169.067ZM492.41 170.043V159.547H493.786L497.578 166.139L498.714 168.315H498.778C498.746 167.782 498.709 167.233 498.666 166.667C498.634 166.091 498.618 165.526 498.618 164.971V159.547H499.882V170.043H498.506L494.698 163.435L493.562 161.275H493.498C493.541 161.798 493.578 162.337 493.61 162.891C493.653 163.446 493.674 164.001 493.674 164.555V170.043H492.41ZM504.305 170.043V160.667H501.137V159.547H508.817V160.667H505.649V170.043H504.305ZM510.067 170.043V159.547H511.395V163.947H516.275V159.547H517.619V170.043H516.275V165.099H511.395V170.043H510.067Z" fill="#1991EB"/>
<mask id="path-37-inside-10_775_3058" fill="white">
<path d="M227 177.043L124 177.043C121.791 177.043 120 175.252 120 173.043L120 155.043C120 152.834 121.791 151.043 124 151.043L227 151.043L227 177.043Z"/>
</mask>
<path d="M227 177.043L124 177.043C121.791 177.043 120 175.252 120 173.043L120 155.043C120 152.834 121.791 151.043 124 151.043L227 151.043L227 177.043Z" fill="white"/>
<path d="M227.25 177.543L124 177.543C121.515 177.543 119.5 175.528 119.5 173.043L120.5 173.043C120.5 174.976 122.067 176.543 124 176.543L226.75 176.543L227.25 177.543ZM119.5 155.043C119.5 152.558 121.515 150.543 124 150.543L227.25 150.543L226.75 151.543L124 151.543C122.067 151.543 120.5 153.11 120.5 155.043L119.5 155.043ZM227.25 150.543L227.25 177.543L226.75 176.543L226.75 151.543L227.25 150.543ZM124 177.543C121.515 177.543 119.5 175.528 119.5 173.043L119.5 155.043C119.5 152.558 121.515 150.543 124 150.543L124 151.543C122.067 151.543 120.5 153.11 120.5 155.043L120.5 173.043C120.5 174.976 122.067 176.543 124 176.543L124 177.543Z" fill="#B9BDC5" mask="url(#path-37-inside-10_775_3058)"/>
<path d="M160.352 170.235C159.616 170.235 158.933 170.097 158.304 169.819C157.675 169.531 157.131 169.153 156.672 168.683L157.472 167.755C157.845 168.15 158.283 168.47 158.784 168.715C159.296 168.95 159.824 169.067 160.368 169.067C161.061 169.067 161.6 168.913 161.984 168.603C162.368 168.283 162.56 167.867 162.56 167.355C162.56 166.993 162.48 166.705 162.32 166.491C162.171 166.278 161.963 166.097 161.696 165.947C161.44 165.798 161.147 165.649 160.816 165.499L159.312 164.843C158.981 164.705 158.651 164.523 158.32 164.299C158 164.075 157.728 163.787 157.504 163.435C157.291 163.083 157.184 162.651 157.184 162.139C157.184 161.606 157.323 161.131 157.6 160.715C157.888 160.289 158.283 159.958 158.784 159.723C159.285 159.478 159.851 159.355 160.48 159.355C161.109 159.355 161.691 159.478 162.224 159.723C162.757 159.958 163.211 160.267 163.584 160.651L162.864 161.515C162.544 161.206 162.187 160.966 161.792 160.795C161.408 160.614 160.971 160.523 160.48 160.523C159.893 160.523 159.419 160.662 159.056 160.939C158.704 161.217 158.528 161.59 158.528 162.059C158.528 162.39 158.613 162.667 158.784 162.891C158.965 163.105 159.189 163.281 159.456 163.419C159.723 163.558 159.995 163.686 160.272 163.803L161.76 164.443C162.165 164.614 162.528 164.822 162.848 165.067C163.179 165.302 163.44 165.595 163.632 165.947C163.824 166.289 163.92 166.721 163.92 167.243C163.92 167.798 163.776 168.305 163.488 168.763C163.2 169.211 162.789 169.569 162.256 169.835C161.723 170.102 161.088 170.235 160.352 170.235ZM165.347 170.043V159.547H171.395V160.667H166.675V163.963H170.659V165.099H166.675V168.907H171.555V170.043H165.347ZM174.952 164.171L174.456 165.771H177.608L177.112 164.171C176.92 163.585 176.739 163.003 176.568 162.427C176.398 161.841 176.227 161.243 176.056 160.635H175.992C175.832 161.243 175.667 161.841 175.496 162.427C175.326 163.003 175.144 163.585 174.952 164.171ZM171.752 170.043L175.304 159.547H176.808L180.36 170.043H178.936L177.944 166.843H174.12L173.112 170.043H171.752ZM181.207 170.043V159.547H184.488C185.202 159.547 185.837 159.643 186.392 159.835C186.946 160.017 187.378 160.326 187.688 160.763C188.008 161.19 188.168 161.766 188.168 162.491C188.168 163.302 187.954 163.958 187.528 164.459C187.101 164.95 186.525 165.286 185.799 165.467L188.472 170.043H186.968L184.44 165.611H182.536V170.043H181.207ZM182.536 164.523H184.296C185.117 164.523 185.746 164.358 186.184 164.027C186.621 163.686 186.84 163.174 186.84 162.491C186.84 161.798 186.621 161.313 186.184 161.035C185.746 160.758 185.117 160.619 184.296 160.619H182.536V164.523ZM193.645 170.235C192.77 170.235 191.986 170.022 191.293 169.595C190.61 169.158 190.066 168.534 189.661 167.723C189.266 166.913 189.069 165.937 189.069 164.795C189.069 163.665 189.272 162.694 189.677 161.883C190.082 161.073 190.637 160.449 191.341 160.011C192.045 159.574 192.84 159.355 193.725 159.355C194.365 159.355 194.93 159.489 195.421 159.755C195.912 160.011 196.306 160.31 196.605 160.651L195.885 161.515C195.608 161.217 195.293 160.977 194.941 160.795C194.589 160.614 194.189 160.523 193.741 160.523C193.08 160.523 192.498 160.699 191.997 161.051C191.506 161.393 191.122 161.878 190.845 162.507C190.578 163.137 190.445 163.889 190.445 164.763C190.445 165.638 190.578 166.401 190.845 167.051C191.112 167.691 191.485 168.187 191.965 168.539C192.456 168.891 193.032 169.067 193.693 169.067C194.194 169.067 194.642 168.961 195.037 168.747C195.432 168.534 195.794 168.246 196.125 167.883L196.861 168.715C196.445 169.195 195.976 169.569 195.453 169.835C194.93 170.102 194.328 170.235 193.645 170.235ZM198.177 170.043V159.547H199.505V163.947H204.385V159.547H205.729V170.043H204.385V165.099H199.505V170.043H198.177Z" fill="#1991EB"/>
<circle cx="143.715" cy="163.258" r="4.21473" stroke="#1991EB"/>
<line x1="147.211" y1="166.048" x2="150.353" y2="169.19" stroke="#1991EB"/>
<mask id="path-42-inside-11_775_3058" fill="white">
<path d="M441 177.043L334 177.043L334 151.043L441 151.043L441 177.043Z"/>
</mask>
<path d="M441 177.043L334 177.043L334 151.043L441 151.043L441 177.043Z" fill="#1991EB"/>
<path d="M441 177.043L441 177.543L441.25 177.543L441.25 177.043L441 177.043ZM334 177.043L333.75 177.043L333.75 177.543L334 177.543L334 177.043ZM334 151.043L334 150.543L333.75 150.543L333.75 151.043L334 151.043ZM441 151.043L441.25 151.043L441.25 150.543L441 150.543L441 151.043ZM441 176.543L334 176.543L334 177.543L441 177.543L441 176.543ZM334.25 177.043L334.25 151.043L333.75 151.043L333.75 177.043L334.25 177.043ZM334 151.543L441 151.543L441 150.543L334 150.543L334 151.543ZM440.75 151.043L440.75 177.043L441.25 177.043L441.25 151.043L440.75 151.043Z" fill="#B9BDC5" mask="url(#path-42-inside-11_775_3058)"/>
<path d="M371.592 170.043L369.368 159.547H370.744L371.848 165.259C371.944 165.825 372.045 166.39 372.152 166.955C372.259 167.521 372.36 168.086 372.456 168.651H372.52C372.637 168.086 372.76 167.521 372.888 166.955C373.016 166.379 373.139 165.814 373.256 165.259L374.712 159.547H375.928L377.384 165.259C377.512 165.814 377.64 166.379 377.768 166.955C377.896 167.521 378.024 168.086 378.152 168.651H378.216C378.312 168.086 378.408 167.521 378.504 166.955C378.6 166.379 378.701 165.814 378.808 165.259L379.912 159.547H381.192L379.016 170.043H377.416L375.832 163.723C375.736 163.318 375.645 162.923 375.56 162.539C375.485 162.145 375.405 161.745 375.32 161.339H375.256C375.181 161.745 375.096 162.145 375 162.539C374.904 162.923 374.813 163.318 374.728 163.723L373.176 170.043H371.592ZM382.378 170.043V159.547H388.426V160.667H383.706V163.963H387.69V165.099H383.706V168.907H388.586V170.043H382.378ZM390.176 170.043V159.547H396.224V160.667H391.504V163.963H395.488V165.099H391.504V168.907H396.384V170.043H390.176ZM397.973 170.043V159.547H399.301V164.811H399.349L403.717 159.547H405.221L401.941 163.547L405.733 170.043H404.245L401.109 164.587L399.301 166.715V170.043H397.973Z" fill="white"/>
<mask id="path-45-inside-12_775_3058" fill="white">
<path d="M334 177.043L227 177.043L227 151.043L334 151.043L334 177.043Z"/>
</mask>
<path d="M334 177.043L227 177.043L227 151.043L334 151.043L334 177.043Z" fill="white"/>
<path d="M334 177.043L334 177.543L334.25 177.543L334.25 177.043L334 177.043ZM227 177.043L226.75 177.043L226.75 177.543L227 177.543L227 177.043ZM227 151.043L227 150.543L226.75 150.543L226.75 151.043L227 151.043ZM334 151.043L334.25 151.043L334.25 150.543L334 150.543L334 151.043ZM334 176.543L227 176.543L227 177.543L334 177.543L334 176.543ZM227.25 177.043L227.25 151.043L226.75 151.043L226.75 177.043L227.25 177.043ZM227 151.543L334 151.543L334 150.543L227 150.543L227 151.543ZM333.75 151.043L333.75 177.043L334.25 177.043L334.25 151.043L333.75 151.043Z" fill="#B9BDC5" mask="url(#path-45-inside-12_775_3058)"/>
<path d="M269.44 170.043V159.547H272.064C273.685 159.547 274.917 160.001 275.76 160.907C276.603 161.803 277.024 163.083 277.024 164.747C277.024 166.422 276.603 167.723 275.76 168.651C274.928 169.579 273.717 170.043 272.128 170.043H269.44ZM270.768 168.955H271.968C273.195 168.955 274.112 168.587 274.72 167.851C275.339 167.105 275.648 166.07 275.648 164.747C275.648 163.425 275.339 162.411 274.72 161.707C274.112 160.993 273.195 160.635 271.968 160.635H270.768V168.955ZM280.295 164.171L279.799 165.771H282.951L282.456 164.171C282.264 163.585 282.082 163.003 281.911 162.427C281.741 161.841 281.57 161.243 281.399 160.635H281.335C281.175 161.243 281.01 161.841 280.839 162.427C280.669 163.003 280.487 163.585 280.295 164.171ZM277.095 170.043L280.647 159.547H282.151L285.703 170.043H284.28L283.287 166.843H279.463L278.455 170.043H277.095ZM288.028 170.043V165.979L284.876 159.547H286.3L287.66 162.507C287.831 162.891 287.996 163.27 288.156 163.643C288.327 164.017 288.497 164.401 288.668 164.795H288.732C288.913 164.401 289.095 164.017 289.276 163.643C289.457 163.27 289.628 162.891 289.788 162.507L291.132 159.547H292.524L289.372 165.979V170.043H288.028Z" fill="#1991EB"/>
<mask id="path-48-inside-13_775_3058" fill="white">
<path d="M441 95.0432H544C546.209 95.0432 548 96.8341 548 99.0432V117.043C548 119.252 546.209 121.043 544 121.043H441V95.0432Z"/>
</mask>
<path d="M441 95.0432H544C546.209 95.0432 548 96.8341 548 99.0432V117.043C548 119.252 546.209 121.043 544 121.043H441V95.0432Z" fill="white"/>
<path d="M440.75 94.5432H544C546.485 94.5432 548.5 96.5579 548.5 99.0432H547.5C547.5 97.1102 545.933 95.5432 544 95.5432H441.25L440.75 94.5432ZM548.5 117.043C548.5 119.528 546.485 121.543 544 121.543H440.75L441.25 120.543H544C545.933 120.543 547.5 118.976 547.5 117.043H548.5ZM440.75 121.543V94.5432L441.25 95.5432V120.543L440.75 121.543ZM544 94.5432C546.485 94.5432 548.5 96.5579 548.5 99.0432V117.043C548.5 119.528 546.485 121.543 544 121.543V120.543C545.933 120.543 547.5 118.976 547.5 117.043V99.0432C547.5 97.1102 545.933 95.5432 544 95.5432V94.5432Z" fill="#B9BDC5" mask="url(#path-48-inside-13_775_3058)"/>
<path d="M471.44 114.043V103.547H473.04L475.056 109.147C475.184 109.51 475.307 109.878 475.424 110.251C475.552 110.614 475.68 110.977 475.808 111.339H475.872C476 110.977 476.117 110.614 476.224 110.251C476.341 109.878 476.464 109.51 476.592 109.147L478.576 103.547H480.192V114.043H478.944V108.267C478.944 107.798 478.965 107.281 479.008 106.715C479.051 106.139 479.088 105.622 479.12 105.163H479.056L478.224 107.547L476.24 112.987H475.36L473.376 107.547L472.544 105.163H472.48C472.512 105.622 472.544 106.139 472.576 106.715C472.619 107.281 472.64 107.798 472.64 108.267V114.043H471.44ZM486.297 114.235C485.422 114.235 484.644 114.011 483.961 113.563C483.289 113.115 482.761 112.481 482.377 111.659C482.004 110.838 481.817 109.867 481.817 108.747C481.817 107.627 482.004 106.667 482.377 105.867C482.761 105.057 483.289 104.438 483.961 104.011C484.644 103.574 485.422 103.355 486.297 103.355C487.182 103.355 487.961 103.574 488.633 104.011C489.305 104.438 489.833 105.057 490.217 105.867C490.601 106.667 490.793 107.627 490.793 108.747C490.793 109.867 490.601 110.838 490.217 111.659C489.833 112.481 489.305 113.115 488.633 113.563C487.961 114.011 487.182 114.235 486.297 114.235ZM486.297 113.067C486.926 113.067 487.47 112.891 487.929 112.539C488.398 112.177 488.761 111.675 489.017 111.035C489.273 110.385 489.401 109.622 489.401 108.747C489.401 107.446 489.118 106.417 488.553 105.659C487.988 104.902 487.236 104.523 486.297 104.523C485.358 104.523 484.606 104.902 484.041 105.659C483.476 106.417 483.193 107.446 483.193 108.747C483.193 109.622 483.321 110.385 483.577 111.035C483.833 111.675 484.196 112.177 484.665 112.539C485.134 112.891 485.678 113.067 486.297 113.067ZM492.41 114.043V103.547H493.786L497.578 110.139L498.714 112.315H498.778C498.746 111.782 498.709 111.233 498.666 110.667C498.634 110.091 498.618 109.526 498.618 108.971V103.547H499.882V114.043H498.506L494.698 107.435L493.562 105.275H493.498C493.541 105.798 493.578 106.337 493.61 106.891C493.653 107.446 493.674 108.001 493.674 108.555V114.043H492.41ZM504.305 114.043V104.667H501.137V103.547H508.817V104.667H505.649V114.043H504.305ZM510.067 114.043V103.547H511.395V107.947H516.275V103.547H517.619V114.043H516.275V109.099H511.395V114.043H510.067Z" fill="#1991EB"/>
<mask id="path-51-inside-14_775_3058" fill="white">
<path d="M227 121.043L124 121.043C121.791 121.043 120 119.252 120 117.043L120 99.0432C120 96.8341 121.791 95.0432 124 95.0432L227 95.0432L227 121.043Z"/>
</mask>
<path d="M227 121.043L124 121.043C121.791 121.043 120 119.252 120 117.043L120 99.0432C120 96.8341 121.791 95.0432 124 95.0432L227 95.0432L227 121.043Z" fill="#1991EB"/>
<path d="M227.25 121.543L124 121.543C121.515 121.543 119.5 119.528 119.5 117.043L120.5 117.043C120.5 118.976 122.067 120.543 124 120.543L226.75 120.543L227.25 121.543ZM119.5 99.0432C119.5 96.5579 121.515 94.5432 124 94.5432L227.25 94.5432L226.75 95.5432L124 95.5432C122.067 95.5432 120.5 97.1102 120.5 99.0432L119.5 99.0432ZM227.25 94.5432L227.25 121.543L226.75 120.543L226.75 95.5432L227.25 94.5432ZM124 121.543C121.515 121.543 119.5 119.528 119.5 117.043L119.5 99.0432C119.5 96.5579 121.515 94.5432 124 94.5432L124 95.5432C122.067 95.5432 120.5 97.1102 120.5 99.0432L120.5 117.043C120.5 118.976 122.067 120.543 124 120.543L124 121.543Z" fill="#B9BDC5" mask="url(#path-51-inside-14_775_3058)"/>
<path d="M160.352 114.235C159.616 114.235 158.933 114.097 158.304 113.819C157.675 113.531 157.131 113.153 156.672 112.683L157.472 111.755C157.845 112.15 158.283 112.47 158.784 112.715C159.296 112.95 159.824 113.067 160.368 113.067C161.061 113.067 161.6 112.913 161.984 112.603C162.368 112.283 162.56 111.867 162.56 111.355C162.56 110.993 162.48 110.705 162.32 110.491C162.171 110.278 161.963 110.097 161.696 109.947C161.44 109.798 161.147 109.649 160.816 109.499L159.312 108.843C158.981 108.705 158.651 108.523 158.32 108.299C158 108.075 157.728 107.787 157.504 107.435C157.291 107.083 157.184 106.651 157.184 106.139C157.184 105.606 157.323 105.131 157.6 104.715C157.888 104.289 158.283 103.958 158.784 103.723C159.285 103.478 159.851 103.355 160.48 103.355C161.109 103.355 161.691 103.478 162.224 103.723C162.757 103.958 163.211 104.267 163.584 104.651L162.864 105.515C162.544 105.206 162.187 104.966 161.792 104.795C161.408 104.614 160.971 104.523 160.48 104.523C159.893 104.523 159.419 104.662 159.056 104.939C158.704 105.217 158.528 105.59 158.528 106.059C158.528 106.39 158.613 106.667 158.784 106.891C158.965 107.105 159.189 107.281 159.456 107.419C159.723 107.558 159.995 107.686 160.272 107.803L161.76 108.443C162.165 108.614 162.528 108.822 162.848 109.067C163.179 109.302 163.44 109.595 163.632 109.947C163.824 110.289 163.92 110.721 163.92 111.243C163.92 111.798 163.776 112.305 163.488 112.763C163.2 113.211 162.789 113.569 162.256 113.835C161.723 114.102 161.088 114.235 160.352 114.235ZM165.347 114.043V103.547H171.395V104.667H166.675V107.963H170.659V109.099H166.675V112.907H171.555V114.043H165.347ZM174.952 108.171L174.456 109.771H177.608L177.112 108.171C176.92 107.585 176.739 107.003 176.568 106.427C176.398 105.841 176.227 105.243 176.056 104.635H175.992C175.832 105.243 175.667 105.841 175.496 106.427C175.326 107.003 175.144 107.585 174.952 108.171ZM171.752 114.043L175.304 103.547H176.808L180.36 114.043H178.936L177.944 110.843H174.12L173.112 114.043H171.752ZM181.207 114.043V103.547H184.488C185.202 103.547 185.837 103.643 186.392 103.835C186.946 104.017 187.378 104.326 187.688 104.763C188.008 105.19 188.168 105.766 188.168 106.491C188.168 107.302 187.954 107.958 187.528 108.459C187.101 108.95 186.525 109.286 185.799 109.467L188.472 114.043H186.968L184.44 109.611H182.536V114.043H181.207ZM182.536 108.523H184.296C185.117 108.523 185.746 108.358 186.184 108.027C186.621 107.686 186.84 107.174 186.84 106.491C186.84 105.798 186.621 105.313 186.184 105.035C185.746 104.758 185.117 104.619 184.296 104.619H182.536V108.523ZM193.645 114.235C192.77 114.235 191.986 114.022 191.293 113.595C190.61 113.158 190.066 112.534 189.661 111.723C189.266 110.913 189.069 109.937 189.069 108.795C189.069 107.665 189.272 106.694 189.677 105.883C190.082 105.073 190.637 104.449 191.341 104.011C192.045 103.574 192.84 103.355 193.725 103.355C194.365 103.355 194.93 103.489 195.421 103.755C195.912 104.011 196.306 104.31 196.605 104.651L195.885 105.515C195.608 105.217 195.293 104.977 194.941 104.795C194.589 104.614 194.189 104.523 193.741 104.523C193.08 104.523 192.498 104.699 191.997 105.051C191.506 105.393 191.122 105.878 190.845 106.507C190.578 107.137 190.445 107.889 190.445 108.763C190.445 109.638 190.578 110.401 190.845 111.051C191.112 111.691 191.485 112.187 191.965 112.539C192.456 112.891 193.032 113.067 193.693 113.067C194.194 113.067 194.642 112.961 195.037 112.747C195.432 112.534 195.794 112.246 196.125 111.883L196.861 112.715C196.445 113.195 195.976 113.569 195.453 113.835C194.93 114.102 194.328 114.235 193.645 114.235ZM198.177 114.043V103.547H199.505V107.947H204.385V103.547H205.729V114.043H204.385V109.099H199.505V114.043H198.177Z" fill="white"/>
<circle cx="143.715" cy="107.258" r="4.21473" stroke="white"/>
<line x1="147.211" y1="110.048" x2="150.353" y2="113.19" stroke="white"/>
<mask id="path-56-inside-15_775_3058" fill="white">
<path d="M441 121.043L334 121.043L334 95.0432L441 95.0432L441 121.043Z"/>
</mask>
<path d="M441 121.043L334 121.043L334 95.0432L441 95.0432L441 121.043Z" fill="white"/>
<path d="M441 121.043L441 121.543L441.25 121.543L441.25 121.043L441 121.043ZM334 121.043L333.75 121.043L333.75 121.543L334 121.543L334 121.043ZM334 95.0432L334 94.5432L333.75 94.5432L333.75 95.0432L334 95.0432ZM441 95.0432L441.25 95.0432L441.25 94.5432L441 94.5432L441 95.0432ZM441 120.543L334 120.543L334 121.543L441 121.543L441 120.543ZM334.25 121.043L334.25 95.0432L333.75 95.0432L333.75 121.043L334.25 121.043ZM334 95.5432L441 95.5432L441 94.5432L334 94.5432L334 95.5432ZM440.75 95.0432L440.75 121.043L441.25 121.043L441.25 95.0432L440.75 95.0432Z" fill="#B9BDC5" mask="url(#path-56-inside-15_775_3058)"/>
<path d="M371.592 114.043L369.368 103.547H370.744L371.848 109.259C371.944 109.825 372.045 110.39 372.152 110.955C372.259 111.521 372.36 112.086 372.456 112.651H372.52C372.637 112.086 372.76 111.521 372.888 110.955C373.016 110.379 373.139 109.814 373.256 109.259L374.712 103.547H375.928L377.384 109.259C377.512 109.814 377.64 110.379 377.768 110.955C377.896 111.521 378.024 112.086 378.152 112.651H378.216C378.312 112.086 378.408 111.521 378.504 110.955C378.6 110.379 378.701 109.814 378.808 109.259L379.912 103.547H381.192L379.016 114.043H377.416L375.832 107.723C375.736 107.318 375.645 106.923 375.56 106.539C375.485 106.145 375.405 105.745 375.32 105.339H375.256C375.181 105.745 375.096 106.145 375 106.539C374.904 106.923 374.813 107.318 374.728 107.723L373.176 114.043H371.592ZM382.378 114.043V103.547H388.426V104.667H383.706V107.963H387.69V109.099H383.706V112.907H388.586V114.043H382.378ZM390.176 114.043V103.547H396.224V104.667H391.504V107.963H395.488V109.099H391.504V112.907H396.384V114.043H390.176ZM397.973 114.043V103.547H399.301V108.811H399.349L403.717 103.547H405.221L401.941 107.547L405.733 114.043H404.245L401.109 108.587L399.301 110.715V114.043H397.973Z" fill="#1991EB"/>
<mask id="path-59-inside-16_775_3058" fill="white">
<path d="M334 121.043L227 121.043L227 95.0432L334 95.0432L334 121.043Z"/>
</mask>
<path d="M334 121.043L227 121.043L227 95.0432L334 95.0432L334 121.043Z" fill="white"/>
<path d="M334 121.043L334 121.543L334.25 121.543L334.25 121.043L334 121.043ZM227 121.043L226.75 121.043L226.75 121.543L227 121.543L227 121.043ZM227 95.0432L227 94.5432L226.75 94.5432L226.75 95.0432L227 95.0432ZM334 95.0432L334.25 95.0432L334.25 94.5432L334 94.5432L334 95.0432ZM334 120.543L227 120.543L227 121.543L334 121.543L334 120.543ZM227.25 121.043L227.25 95.0432L226.75 95.0432L226.75 121.043L227.25 121.043ZM227 95.5432L334 95.5432L334 94.5432L227 94.5432L227 95.5432ZM333.75 95.0432L333.75 121.043L334.25 121.043L334.25 95.0432L333.75 95.0432Z" fill="#B9BDC5" mask="url(#path-59-inside-16_775_3058)"/>
<path d="M269.44 114.043V103.547H272.064C273.685 103.547 274.917 104.001 275.76 104.907C276.603 105.803 277.024 107.083 277.024 108.747C277.024 110.422 276.603 111.723 275.76 112.651C274.928 113.579 273.717 114.043 272.128 114.043H269.44ZM270.768 112.955H271.968C273.195 112.955 274.112 112.587 274.72 111.851C275.339 111.105 275.648 110.07 275.648 108.747C275.648 107.425 275.339 106.411 274.72 105.707C274.112 104.993 273.195 104.635 271.968 104.635H270.768V112.955ZM280.295 108.171L279.799 109.771H282.951L282.456 108.171C282.264 107.585 282.082 107.003 281.911 106.427C281.741 105.841 281.57 105.243 281.399 104.635H281.335C281.175 105.243 281.01 105.841 280.839 106.427C280.669 107.003 280.487 107.585 280.295 108.171ZM277.095 114.043L280.647 103.547H282.151L285.703 114.043H284.28L283.287 110.843H279.463L278.455 114.043H277.095ZM288.028 114.043V109.979L284.876 103.547H286.3L287.66 106.507C287.831 106.891 287.996 107.27 288.156 107.643C288.327 108.017 288.497 108.401 288.668 108.795H288.732C288.913 108.401 289.095 108.017 289.276 107.643C289.457 107.27 289.628 106.891 289.788 106.507L291.132 103.547H292.524L289.372 109.979V114.043H288.028Z" fill="#1991EB"/>
<rect y="307" width="649" height="215" rx="5" fill="#FAFAFA"/>
<rect width="580" height="158" transform="translate(32 339)" fill="#FAFAFA"/>
<path d="M33.26 370.043V360.859H35.556C36.9747 360.859 38.0527 361.256 38.79 362.049C39.5273 362.833 39.896 363.953 39.896 365.409C39.896 366.875 39.5273 368.013 38.79 368.825C38.062 369.637 37.0027 370.043 35.612 370.043H33.26ZM34.422 369.091H35.472C36.5453 369.091 37.348 368.769 37.88 368.125C38.4213 367.472 38.692 366.567 38.692 365.409C38.692 364.252 38.4213 363.365 37.88 362.749C37.348 362.124 36.5453 361.811 35.472 361.811H34.422V369.091ZM43.3293 370.211C42.7599 370.211 42.2839 370.043 41.9013 369.707C41.5279 369.362 41.3413 368.886 41.3413 368.279C41.3413 367.533 41.6726 366.963 42.3353 366.571C43.0073 366.17 44.0666 365.89 45.5133 365.731C45.5133 365.442 45.4713 365.167 45.3873 364.905C45.3126 364.644 45.1726 364.434 44.9673 364.275C44.7713 364.107 44.4866 364.023 44.1133 364.023C43.7213 364.023 43.3526 364.098 43.0073 364.247C42.6619 364.397 42.3539 364.565 42.0833 364.751L41.6353 363.953C41.9526 363.748 42.3399 363.552 42.7973 363.365C43.2639 363.169 43.7679 363.071 44.3093 363.071C45.1399 363.071 45.7419 363.328 46.1153 363.841C46.4886 364.345 46.6753 365.022 46.6753 365.871V370.043H45.7233L45.6253 369.231H45.5833C45.2659 369.493 44.9159 369.721 44.5333 369.917C44.1599 370.113 43.7586 370.211 43.3293 370.211ZM43.6653 369.287C43.9919 369.287 44.2999 369.208 44.5893 369.049C44.8786 368.891 45.1866 368.667 45.5133 368.377V366.487C44.3839 366.627 43.5906 366.837 43.1333 367.117C42.6853 367.397 42.4613 367.757 42.4613 368.195C42.4613 368.578 42.5779 368.858 42.8113 369.035C43.0446 369.203 43.3293 369.287 43.6653 369.287ZM48.928 372.969C48.7786 372.969 48.634 372.955 48.494 372.927C48.3633 372.899 48.242 372.867 48.13 372.829L48.354 371.919C48.4286 371.938 48.5126 371.957 48.606 371.975C48.6993 372.003 48.788 372.017 48.872 372.017C49.2546 372.017 49.572 371.877 49.824 371.597C50.076 371.327 50.272 370.981 50.412 370.561L50.566 370.057L47.836 363.239H49.026L50.412 367.005C50.5146 367.295 50.622 367.607 50.734 367.943C50.8553 368.279 50.9673 368.606 51.07 368.923H51.126C51.2286 368.615 51.3266 368.293 51.42 367.957C51.5133 367.621 51.6066 367.304 51.7 367.005L52.918 363.239H54.038L51.476 370.603C51.3173 371.051 51.126 371.453 50.902 371.807C50.6873 372.162 50.4166 372.442 50.09 372.647C49.7726 372.862 49.3853 372.969 48.928 372.969Z" fill="black"/>
<path d="M34.268 420.043L32.322 410.859H33.526L34.492 415.857C34.576 416.352 34.6647 416.847 34.758 417.341C34.8513 417.836 34.94 418.331 35.024 418.825H35.08C35.1827 418.331 35.29 417.836 35.402 417.341C35.514 416.837 35.6213 416.343 35.724 415.857L36.998 410.859H38.062L39.336 415.857C39.448 416.343 39.56 416.837 39.672 417.341C39.784 417.836 39.896 418.331 40.008 418.825H40.064C40.148 418.331 40.232 417.836 40.316 417.341C40.4 416.837 40.4887 416.343 40.582 415.857L41.548 410.859H42.668L40.764 420.043H39.364L37.978 414.513C37.894 414.159 37.8147 413.813 37.74 413.477C37.6747 413.132 37.6047 412.782 37.53 412.427H37.474C37.4087 412.782 37.334 413.132 37.25 413.477C37.166 413.813 37.0867 414.159 37.012 414.513L35.654 420.043H34.268ZM46.9119 420.211C46.3052 420.211 45.7545 420.071 45.2599 419.791C44.7652 419.502 44.3732 419.091 44.0839 418.559C43.7945 418.027 43.6499 417.393 43.6499 416.655C43.6499 415.909 43.7945 415.269 44.0839 414.737C44.3825 414.205 44.7652 413.795 45.2319 413.505C45.6985 413.216 46.1885 413.071 46.7019 413.071C47.5699 413.071 48.2372 413.361 48.7039 413.939C49.1799 414.518 49.4179 415.293 49.4179 416.263C49.4179 416.385 49.4132 416.506 49.4039 416.627C49.4039 416.739 49.3945 416.837 49.3759 416.921H44.7839C44.8305 417.64 45.0545 418.214 45.4559 418.643C45.8665 419.073 46.3985 419.287 47.0519 419.287C47.3785 419.287 47.6772 419.241 47.9479 419.147C48.2279 419.045 48.4939 418.914 48.7459 418.755L49.1519 419.511C48.8625 419.698 48.5312 419.861 48.1579 420.001C47.7939 420.141 47.3785 420.211 46.9119 420.211ZM44.7699 416.095H48.4099C48.4099 415.405 48.2605 414.882 47.9619 414.527C47.6725 414.163 47.2619 413.981 46.7299 413.981C46.2539 413.981 45.8245 414.168 45.4419 414.541C45.0685 414.905 44.8445 415.423 44.7699 416.095ZM53.8572 420.211C53.2505 420.211 52.6998 420.071 52.2052 419.791C51.7105 419.502 51.3185 419.091 51.0292 418.559C50.7398 418.027 50.5952 417.393 50.5952 416.655C50.5952 415.909 50.7398 415.269 51.0292 414.737C51.3278 414.205 51.7105 413.795 52.1772 413.505C52.6438 413.216 53.1338 413.071 53.6472 413.071C54.5152 413.071 55.1825 413.361 55.6492 413.939C56.1252 414.518 56.3632 415.293 56.3632 416.263C56.3632 416.385 56.3585 416.506 56.3492 416.627C56.3492 416.739 56.3398 416.837 56.3212 416.921H51.7292C51.7758 417.64 51.9998 418.214 52.4012 418.643C52.8118 419.073 53.3438 419.287 53.9972 419.287C54.3238 419.287 54.6225 419.241 54.8932 419.147C55.1732 419.045 55.4392 418.914 55.6912 418.755L56.0972 419.511C55.8078 419.698 55.4765 419.861 55.1032 420.001C54.7392 420.141 54.3238 420.211 53.8572 420.211ZM51.7152 416.095H55.3552C55.3552 415.405 55.2058 414.882 54.9072 414.527C54.6178 414.163 54.2072 413.981 53.6752 413.981C53.1992 413.981 52.7698 414.168 52.3872 414.541C52.0138 414.905 51.7898 415.423 51.7152 416.095ZM58.0445 420.043V410.075H59.1785V416.823H59.2205L62.1185 413.239H63.3925L61.1105 415.969L63.7005 420.043H62.4405L60.4525 416.767L59.1785 418.251V420.043H58.0445Z" fill="black"/>
<path d="M33.26 476.043V466.859H34.66L36.424 471.759C36.536 472.077 36.6433 472.399 36.746 472.725C36.858 473.043 36.97 473.36 37.082 473.677H37.138C37.25 473.36 37.3527 473.043 37.446 472.725C37.5487 472.399 37.656 472.077 37.768 471.759L39.504 466.859H40.918V476.043H39.826V470.989C39.826 470.579 39.8447 470.126 39.882 469.631C39.9193 469.127 39.952 468.675 39.98 468.273H39.924L39.196 470.359L37.46 475.119H36.69L34.954 470.359L34.226 468.273H34.17C34.198 468.675 34.226 469.127 34.254 469.631C34.2913 470.126 34.31 470.579 34.31 470.989V476.043H33.26ZM45.9659 476.211C45.4152 476.211 44.8972 476.071 44.4119 475.791C43.9359 475.511 43.5485 475.105 43.2499 474.573C42.9605 474.041 42.8159 473.402 42.8159 472.655C42.8159 471.89 42.9605 471.241 43.2499 470.709C43.5485 470.177 43.9359 469.771 44.4119 469.491C44.8972 469.211 45.4152 469.071 45.9659 469.071C46.5259 469.071 47.0439 469.211 47.5199 469.491C47.9959 469.771 48.3785 470.177 48.6679 470.709C48.9665 471.241 49.1159 471.89 49.1159 472.655C49.1159 473.402 48.9665 474.041 48.6679 474.573C48.3785 475.105 47.9959 475.511 47.5199 475.791C47.0439 476.071 46.5259 476.211 45.9659 476.211ZM45.9659 475.259C46.5539 475.259 47.0252 475.021 47.3799 474.545C47.7439 474.06 47.9259 473.43 47.9259 472.655C47.9259 471.871 47.7439 471.237 47.3799 470.751C47.0252 470.266 46.5539 470.023 45.9659 470.023C45.3872 470.023 44.9159 470.266 44.5519 470.751C44.1879 471.237 44.0059 471.871 44.0059 472.655C44.0059 473.43 44.1879 474.06 44.5519 474.545C44.9159 475.021 45.3872 475.259 45.9659 475.259ZM50.9078 476.043V469.239H51.8598L51.9578 470.219H51.9998C52.3264 469.893 52.6718 469.622 53.0358 469.407C53.3998 469.183 53.8151 469.071 54.2818 469.071C55.0004 469.071 55.5231 469.3 55.8498 469.757C56.1858 470.205 56.3538 470.863 56.3538 471.731V476.043H55.2058V471.885C55.2058 471.251 55.1031 470.789 54.8978 470.499C54.6924 470.21 54.3658 470.065 53.9178 470.065C53.5724 470.065 53.2598 470.154 52.9798 470.331C52.7091 470.509 52.4011 470.77 52.0558 471.115V476.043H50.9078ZM60.706 476.211C59.978 476.211 59.4693 476.001 59.18 475.581C58.9 475.161 58.76 474.615 58.76 473.943V470.177H57.752V469.309L58.816 469.239L58.956 467.335H59.922V469.239H61.756V470.177H59.922V473.957C59.922 474.377 59.9967 474.704 60.146 474.937C60.3047 475.161 60.58 475.273 60.972 475.273C61.0933 475.273 61.224 475.255 61.364 475.217C61.504 475.171 61.63 475.129 61.742 475.091L61.966 475.959C61.7793 476.025 61.574 476.081 61.35 476.127C61.1353 476.183 60.9207 476.211 60.706 476.211ZM63.2945 476.043V466.075H64.4425V468.791L64.4005 470.191C64.7272 469.883 65.0678 469.622 65.4225 469.407C65.7865 469.183 66.2018 469.071 66.6685 469.071C67.3872 469.071 67.9098 469.3 68.2365 469.757C68.5725 470.205 68.7405 470.863 68.7405 471.731V476.043H67.5925V471.885C67.5925 471.251 67.4898 470.789 67.2845 470.499C67.0792 470.21 66.7525 470.065 66.3045 470.065C65.9592 470.065 65.6465 470.154 65.3665 470.331C65.0958 470.509 64.7878 470.77 64.4425 471.115V476.043H63.2945Z" fill="black"/>
<mask id="path-66-inside-17_775_3058" fill="white">
<path d="M331 458.043H434C436.209 458.043 438 459.834 438 462.043V480.043C438 482.252 436.209 484.043 434 484.043H331V458.043Z"/>
</mask>
<path d="M331 458.043H434C436.209 458.043 438 459.834 438 462.043V480.043C438 482.252 436.209 484.043 434 484.043H331V458.043Z" fill="#1991EB"/>
<path d="M330.75 457.543H434C436.485 457.543 438.5 459.558 438.5 462.043H437.5C437.5 460.11 435.933 458.543 434 458.543H331.25L330.75 457.543ZM438.5 480.043C438.5 482.528 436.485 484.543 434 484.543H330.75L331.25 483.543H434C435.933 483.543 437.5 481.976 437.5 480.043H438.5ZM330.75 484.543V457.543L331.25 458.543V483.543L330.75 484.543ZM434 457.543C436.485 457.543 438.5 459.558 438.5 462.043V480.043C438.5 482.528 436.485 484.543 434 484.543V483.543C435.933 483.543 437.5 481.976 437.5 480.043V462.043C437.5 460.11 435.933 458.543 434 458.543V457.543Z" fill="#B9BDC5" mask="url(#path-66-inside-17_775_3058)"/>
<path d="M362.44 477.043V466.547H364.04L366.056 472.147C366.184 472.51 366.307 472.878 366.424 473.251C366.552 473.614 366.68 473.977 366.808 474.339H366.872C367 473.977 367.117 473.614 367.224 473.251C367.341 472.878 367.464 472.51 367.592 472.147L369.576 466.547H371.192V477.043H369.944V471.267C369.944 470.798 369.965 470.281 370.008 469.715C370.051 469.139 370.088 468.622 370.12 468.163H370.056L369.224 470.547L367.24 475.987H366.36L364.376 470.547L363.544 468.163H363.48C363.512 468.622 363.544 469.139 363.576 469.715C363.619 470.281 363.64 470.798 363.64 471.267V477.043H362.44ZM377.297 477.235C376.422 477.235 375.644 477.011 374.961 476.563C374.289 476.115 373.761 475.481 373.377 474.659C373.004 473.838 372.817 472.867 372.817 471.747C372.817 470.627 373.004 469.667 373.377 468.867C373.761 468.057 374.289 467.438 374.961 467.011C375.644 466.574 376.422 466.355 377.297 466.355C378.182 466.355 378.961 466.574 379.633 467.011C380.305 467.438 380.833 468.057 381.217 468.867C381.601 469.667 381.793 470.627 381.793 471.747C381.793 472.867 381.601 473.838 381.217 474.659C380.833 475.481 380.305 476.115 379.633 476.563C378.961 477.011 378.182 477.235 377.297 477.235ZM377.297 476.067C377.926 476.067 378.47 475.891 378.929 475.539C379.398 475.177 379.761 474.675 380.017 474.035C380.273 473.385 380.401 472.622 380.401 471.747C380.401 470.446 380.118 469.417 379.553 468.659C378.988 467.902 378.236 467.523 377.297 467.523C376.358 467.523 375.606 467.902 375.041 468.659C374.476 469.417 374.193 470.446 374.193 471.747C374.193 472.622 374.321 473.385 374.577 474.035C374.833 474.675 375.196 475.177 375.665 475.539C376.134 475.891 376.678 476.067 377.297 476.067ZM383.41 477.043V466.547H384.786L388.578 473.139L389.714 475.315H389.778C389.746 474.782 389.709 474.233 389.666 473.667C389.634 473.091 389.618 472.526 389.618 471.971V466.547H390.882V477.043H389.506L385.698 470.435L384.562 468.275H384.498C384.541 468.798 384.578 469.337 384.61 469.891C384.653 470.446 384.674 471.001 384.674 471.555V477.043H383.41ZM395.305 477.043V467.667H392.137V466.547H399.817V467.667H396.649V477.043H395.305ZM401.067 477.043V466.547H402.395V470.947H407.275V466.547H408.619V477.043H407.275V472.099H402.395V477.043H401.067Z" fill="white"/>
<mask id="path-69-inside-18_775_3058" fill="white">
<path d="M224 484.043L121 484.043C118.791 484.043 117 482.252 117 480.043L117 462.043C117 459.834 118.791 458.043 121 458.043L224 458.043L224 484.043Z"/>
</mask>
<path d="M224 484.043L121 484.043C118.791 484.043 117 482.252 117 480.043L117 462.043C117 459.834 118.791 458.043 121 458.043L224 458.043L224 484.043Z" fill="white"/>
<path d="M224.25 484.543L121 484.543C118.515 484.543 116.5 482.528 116.5 480.043L117.5 480.043C117.5 481.976 119.067 483.543 121 483.543L223.75 483.543L224.25 484.543ZM116.5 462.043C116.5 459.558 118.515 457.543 121 457.543L224.25 457.543L223.75 458.543L121 458.543C119.067 458.543 117.5 460.11 117.5 462.043L116.5 462.043ZM224.25 457.543L224.25 484.543L223.75 483.543L223.75 458.543L224.25 457.543ZM121 484.543C118.515 484.543 116.5 482.528 116.5 480.043L116.5 462.043C116.5 459.558 118.515 457.543 121 457.543L121 458.543C119.067 458.543 117.5 460.11 117.5 462.043L117.5 480.043C117.5 481.976 119.067 483.543 121 483.543L121 484.543Z" fill="#B9BDC5" mask="url(#path-69-inside-18_775_3058)"/>
<path d="M159.44 477.043V466.547H162.064C163.685 466.547 164.917 467.001 165.76 467.907C166.603 468.803 167.024 470.083 167.024 471.747C167.024 473.422 166.603 474.723 165.76 475.651C164.928 476.579 163.717 477.043 162.128 477.043H159.44ZM160.768 475.955H161.968C163.195 475.955 164.112 475.587 164.72 474.851C165.339 474.105 165.648 473.07 165.648 471.747C165.648 470.425 165.339 469.411 164.72 468.707C164.112 467.993 163.195 467.635 161.968 467.635H160.768V475.955ZM170.295 471.171L169.799 472.771H172.951L172.456 471.171C172.264 470.585 172.082 470.003 171.911 469.427C171.741 468.841 171.57 468.243 171.399 467.635H171.335C171.175 468.243 171.01 468.841 170.839 469.427C170.669 470.003 170.487 470.585 170.295 471.171ZM167.095 477.043L170.647 466.547H172.151L175.703 477.043H174.28L173.287 473.843H169.463L168.455 477.043H167.095ZM178.028 477.043V472.979L174.876 466.547H176.3L177.66 469.507C177.831 469.891 177.996 470.27 178.156 470.643C178.327 471.017 178.497 471.401 178.668 471.795H178.732C178.913 471.401 179.095 471.017 179.276 470.643C179.457 470.27 179.628 469.891 179.788 469.507L181.132 466.547H182.524L179.372 472.979V477.043H178.028Z" fill="#1991EB"/>
<mask id="path-72-inside-19_775_3058" fill="white">
<path d="M331 484.043L224 484.043L224 458.043L331 458.043L331 484.043Z"/>
</mask>
<path d="M331 484.043L224 484.043L224 458.043L331 458.043L331 484.043Z" fill="white"/>
<path d="M331 484.043L331 484.543L331.25 484.543L331.25 484.043L331 484.043ZM224 484.043L223.75 484.043L223.75 484.543L224 484.543L224 484.043ZM224 458.043L224 457.543L223.75 457.543L223.75 458.043L224 458.043ZM331 458.043L331.25 458.043L331.25 457.543L331 457.543L331 458.043ZM331 483.543L224 483.543L224 484.543L331 484.543L331 483.543ZM224.25 484.043L224.25 458.043L223.75 458.043L223.75 484.043L224.25 484.043ZM224 458.543L331 458.543L331 457.543L224 457.543L224 458.543ZM330.75 458.043L330.75 484.043L331.25 484.043L331.25 458.043L330.75 458.043Z" fill="#B9BDC5" mask="url(#path-72-inside-19_775_3058)"/>
<path d="M262.592 477.043L260.368 466.547H261.744L262.848 472.259C262.944 472.825 263.045 473.39 263.152 473.955C263.259 474.521 263.36 475.086 263.456 475.651H263.52C263.637 475.086 263.76 474.521 263.888 473.955C264.016 473.379 264.139 472.814 264.256 472.259L265.712 466.547H266.928L268.384 472.259C268.512 472.814 268.64 473.379 268.768 473.955C268.896 474.521 269.024 475.086 269.152 475.651H269.216C269.312 475.086 269.408 474.521 269.504 473.955C269.6 473.379 269.701 472.814 269.808 472.259L270.912 466.547H272.192L270.016 477.043H268.416L266.832 470.723C266.736 470.318 266.645 469.923 266.56 469.539C266.485 469.145 266.405 468.745 266.32 468.339H266.256C266.181 468.745 266.096 469.145 266 469.539C265.904 469.923 265.813 470.318 265.728 470.723L264.176 477.043H262.592ZM273.378 477.043V466.547H279.426V467.667H274.706V470.963H278.69V472.099H274.706V475.907H279.586V477.043H273.378ZM281.176 477.043V466.547H287.224V467.667H282.504V470.963H286.488V472.099H282.504V475.907H287.384V477.043H281.176ZM288.973 477.043V466.547H290.301V471.811H290.349L294.717 466.547H296.221L292.941 470.547L296.733 477.043H295.245L292.109 471.587L290.301 473.715V477.043H288.973Z" fill="#1991EB"/>
<mask id="path-75-inside-20_775_3058" fill="white">
<path d="M331 405.043H434C436.209 405.043 438 406.834 438 409.043V427.043C438 429.252 436.209 431.043 434 431.043H331V405.043Z"/>
</mask>
<path d="M331 405.043H434C436.209 405.043 438 406.834 438 409.043V427.043C438 429.252 436.209 431.043 434 431.043H331V405.043Z" fill="white"/>
<path d="M330.75 404.543H434C436.485 404.543 438.5 406.558 438.5 409.043H437.5C437.5 407.11 435.933 405.543 434 405.543H331.25L330.75 404.543ZM438.5 427.043C438.5 429.528 436.485 431.543 434 431.543H330.75L331.25 430.543H434C435.933 430.543 437.5 428.976 437.5 427.043H438.5ZM330.75 431.543V404.543L331.25 405.543V430.543L330.75 431.543ZM434 404.543C436.485 404.543 438.5 406.558 438.5 409.043V427.043C438.5 429.528 436.485 431.543 434 431.543V430.543C435.933 430.543 437.5 428.976 437.5 427.043V409.043C437.5 407.11 435.933 405.543 434 405.543V404.543Z" fill="#B9BDC5" mask="url(#path-75-inside-20_775_3058)"/>
<path d="M362.44 424.043V413.547H364.04L366.056 419.147C366.184 419.51 366.307 419.878 366.424 420.251C366.552 420.614 366.68 420.977 366.808 421.339H366.872C367 420.977 367.117 420.614 367.224 420.251C367.341 419.878 367.464 419.51 367.592 419.147L369.576 413.547H371.192V424.043H369.944V418.267C369.944 417.798 369.965 417.281 370.008 416.715C370.051 416.139 370.088 415.622 370.12 415.163H370.056L369.224 417.547L367.24 422.987H366.36L364.376 417.547L363.544 415.163H363.48C363.512 415.622 363.544 416.139 363.576 416.715C363.619 417.281 363.64 417.798 363.64 418.267V424.043H362.44ZM377.297 424.235C376.422 424.235 375.644 424.011 374.961 423.563C374.289 423.115 373.761 422.481 373.377 421.659C373.004 420.838 372.817 419.867 372.817 418.747C372.817 417.627 373.004 416.667 373.377 415.867C373.761 415.057 374.289 414.438 374.961 414.011C375.644 413.574 376.422 413.355 377.297 413.355C378.182 413.355 378.961 413.574 379.633 414.011C380.305 414.438 380.833 415.057 381.217 415.867C381.601 416.667 381.793 417.627 381.793 418.747C381.793 419.867 381.601 420.838 381.217 421.659C380.833 422.481 380.305 423.115 379.633 423.563C378.961 424.011 378.182 424.235 377.297 424.235ZM377.297 423.067C377.926 423.067 378.47 422.891 378.929 422.539C379.398 422.177 379.761 421.675 380.017 421.035C380.273 420.385 380.401 419.622 380.401 418.747C380.401 417.446 380.118 416.417 379.553 415.659C378.988 414.902 378.236 414.523 377.297 414.523C376.358 414.523 375.606 414.902 375.041 415.659C374.476 416.417 374.193 417.446 374.193 418.747C374.193 419.622 374.321 420.385 374.577 421.035C374.833 421.675 375.196 422.177 375.665 422.539C376.134 422.891 376.678 423.067 377.297 423.067ZM383.41 424.043V413.547H384.786L388.578 420.139L389.714 422.315H389.778C389.746 421.782 389.709 421.233 389.666 420.667C389.634 420.091 389.618 419.526 389.618 418.971V413.547H390.882V424.043H389.506L385.698 417.435L384.562 415.275H384.498C384.541 415.798 384.578 416.337 384.61 416.891C384.653 417.446 384.674 418.001 384.674 418.555V424.043H383.41ZM395.305 424.043V414.667H392.137V413.547H399.817V414.667H396.649V424.043H395.305ZM401.067 424.043V413.547H402.395V417.947H407.275V413.547H408.619V424.043H407.275V419.099H402.395V424.043H401.067Z" fill="#1991EB"/>
<mask id="path-78-inside-21_775_3058" fill="white">
<path d="M224 431.043L121 431.043C118.791 431.043 117 429.252 117 427.043L117 409.043C117 406.834 118.791 405.043 121 405.043L224 405.043L224 431.043Z"/>
</mask>
<path d="M224 431.043L121 431.043C118.791 431.043 117 429.252 117 427.043L117 409.043C117 406.834 118.791 405.043 121 405.043L224 405.043L224 431.043Z" fill="white"/>
<path d="M224.25 431.543L121 431.543C118.515 431.543 116.5 429.528 116.5 427.043L117.5 427.043C117.5 428.976 119.067 430.543 121 430.543L223.75 430.543L224.25 431.543ZM116.5 409.043C116.5 406.558 118.515 404.543 121 404.543L224.25 404.543L223.75 405.543L121 405.543C119.067 405.543 117.5 407.11 117.5 409.043L116.5 409.043ZM224.25 404.543L224.25 431.543L223.75 430.543L223.75 405.543L224.25 404.543ZM121 431.543C118.515 431.543 116.5 429.528 116.5 427.043L116.5 409.043C116.5 406.558 118.515 404.543 121 404.543L121 405.543C119.067 405.543 117.5 407.11 117.5 409.043L117.5 427.043C117.5 428.976 119.067 430.543 121 430.543L121 431.543Z" fill="#B9BDC5" mask="url(#path-78-inside-21_775_3058)"/>
<path d="M159.44 424.043V413.547H162.064C163.685 413.547 164.917 414.001 165.76 414.907C166.603 415.803 167.024 417.083 167.024 418.747C167.024 420.422 166.603 421.723 165.76 422.651C164.928 423.579 163.717 424.043 162.128 424.043H159.44ZM160.768 422.955H161.968C163.195 422.955 164.112 422.587 164.72 421.851C165.339 421.105 165.648 420.07 165.648 418.747C165.648 417.425 165.339 416.411 164.72 415.707C164.112 414.993 163.195 414.635 161.968 414.635H160.768V422.955ZM170.295 418.171L169.799 419.771H172.951L172.456 418.171C172.264 417.585 172.082 417.003 171.911 416.427C171.741 415.841 171.57 415.243 171.399 414.635H171.335C171.175 415.243 171.01 415.841 170.839 416.427C170.669 417.003 170.487 417.585 170.295 418.171ZM167.095 424.043L170.647 413.547H172.151L175.703 424.043H174.28L173.287 420.843H169.463L168.455 424.043H167.095ZM178.028 424.043V419.979L174.876 413.547H176.3L177.66 416.507C177.831 416.891 177.996 417.27 178.156 417.643C178.327 418.017 178.497 418.401 178.668 418.795H178.732C178.913 418.401 179.095 418.017 179.276 417.643C179.457 417.27 179.628 416.891 179.788 416.507L181.132 413.547H182.524L179.372 419.979V424.043H178.028Z" fill="#1991EB"/>
<mask id="path-81-inside-22_775_3058" fill="white">
<path d="M331 431.043L224 431.043L224 405.043L331 405.043L331 431.043Z"/>
</mask>
<path d="M331 431.043L224 431.043L224 405.043L331 405.043L331 431.043Z" fill="#1991EB"/>
<path d="M331 431.043L331 431.543L331.25 431.543L331.25 431.043L331 431.043ZM224 431.043L223.75 431.043L223.75 431.543L224 431.543L224 431.043ZM224 405.043L224 404.543L223.75 404.543L223.75 405.043L224 405.043ZM331 405.043L331.25 405.043L331.25 404.543L331 404.543L331 405.043ZM331 430.543L224 430.543L224 431.543L331 431.543L331 430.543ZM224.25 431.043L224.25 405.043L223.75 405.043L223.75 431.043L224.25 431.043ZM224 405.543L331 405.543L331 404.543L224 404.543L224 405.543ZM330.75 405.043L330.75 431.043L331.25 431.043L331.25 405.043L330.75 405.043Z" fill="#B9BDC5" mask="url(#path-81-inside-22_775_3058)"/>
<path d="M262.592 424.043L260.368 413.547H261.744L262.848 419.259C262.944 419.825 263.045 420.39 263.152 420.955C263.259 421.521 263.36 422.086 263.456 422.651H263.52C263.637 422.086 263.76 421.521 263.888 420.955C264.016 420.379 264.139 419.814 264.256 419.259L265.712 413.547H266.928L268.384 419.259C268.512 419.814 268.64 420.379 268.768 420.955C268.896 421.521 269.024 422.086 269.152 422.651H269.216C269.312 422.086 269.408 421.521 269.504 420.955C269.6 420.379 269.701 419.814 269.808 419.259L270.912 413.547H272.192L270.016 424.043H268.416L266.832 417.723C266.736 417.318 266.645 416.923 266.56 416.539C266.485 416.145 266.405 415.745 266.32 415.339H266.256C266.181 415.745 266.096 416.145 266 416.539C265.904 416.923 265.813 417.318 265.728 417.723L264.176 424.043H262.592ZM273.378 424.043V413.547H279.426V414.667H274.706V417.963H278.69V419.099H274.706V422.907H279.586V424.043H273.378ZM281.176 424.043V413.547H287.224V414.667H282.504V417.963H286.488V419.099H282.504V422.907H287.384V424.043H281.176ZM288.973 424.043V413.547H290.301V418.811H290.349L294.717 413.547H296.221L292.941 417.547L296.733 424.043H295.245L292.109 418.587L290.301 420.715V424.043H288.973Z" fill="white"/>
<mask id="path-84-inside-23_775_3058" fill="white">
<path d="M331 352.043H434C436.209 352.043 438 353.834 438 356.043V374.043C438 376.252 436.209 378.043 434 378.043H331V352.043Z"/>
</mask>
<path d="M331 352.043H434C436.209 352.043 438 353.834 438 356.043V374.043C438 376.252 436.209 378.043 434 378.043H331V352.043Z" fill="white"/>
<path d="M330.75 351.543H434C436.485 351.543 438.5 353.558 438.5 356.043H437.5C437.5 354.11 435.933 352.543 434 352.543H331.25L330.75 351.543ZM438.5 374.043C438.5 376.528 436.485 378.543 434 378.543H330.75L331.25 377.543H434C435.933 377.543 437.5 375.976 437.5 374.043H438.5ZM330.75 378.543V351.543L331.25 352.543V377.543L330.75 378.543ZM434 351.543C436.485 351.543 438.5 353.558 438.5 356.043V374.043C438.5 376.528 436.485 378.543 434 378.543V377.543C435.933 377.543 437.5 375.976 437.5 374.043V356.043C437.5 354.11 435.933 352.543 434 352.543V351.543Z" fill="#B9BDC5" mask="url(#path-84-inside-23_775_3058)"/>
<path d="M362.44 371.043V360.547H364.04L366.056 366.147C366.184 366.51 366.307 366.878 366.424 367.251C366.552 367.614 366.68 367.977 366.808 368.339H366.872C367 367.977 367.117 367.614 367.224 367.251C367.341 366.878 367.464 366.51 367.592 366.147L369.576 360.547H371.192V371.043H369.944V365.267C369.944 364.798 369.965 364.281 370.008 363.715C370.051 363.139 370.088 362.622 370.12 362.163H370.056L369.224 364.547L367.24 369.987H366.36L364.376 364.547L363.544 362.163H363.48C363.512 362.622 363.544 363.139 363.576 363.715C363.619 364.281 363.64 364.798 363.64 365.267V371.043H362.44ZM377.297 371.235C376.422 371.235 375.644 371.011 374.961 370.563C374.289 370.115 373.761 369.481 373.377 368.659C373.004 367.838 372.817 366.867 372.817 365.747C372.817 364.627 373.004 363.667 373.377 362.867C373.761 362.057 374.289 361.438 374.961 361.011C375.644 360.574 376.422 360.355 377.297 360.355C378.182 360.355 378.961 360.574 379.633 361.011C380.305 361.438 380.833 362.057 381.217 362.867C381.601 363.667 381.793 364.627 381.793 365.747C381.793 366.867 381.601 367.838 381.217 368.659C380.833 369.481 380.305 370.115 379.633 370.563C378.961 371.011 378.182 371.235 377.297 371.235ZM377.297 370.067C377.926 370.067 378.47 369.891 378.929 369.539C379.398 369.177 379.761 368.675 380.017 368.035C380.273 367.385 380.401 366.622 380.401 365.747C380.401 364.446 380.118 363.417 379.553 362.659C378.988 361.902 378.236 361.523 377.297 361.523C376.358 361.523 375.606 361.902 375.041 362.659C374.476 363.417 374.193 364.446 374.193 365.747C374.193 366.622 374.321 367.385 374.577 368.035C374.833 368.675 375.196 369.177 375.665 369.539C376.134 369.891 376.678 370.067 377.297 370.067ZM383.41 371.043V360.547H384.786L388.578 367.139L389.714 369.315H389.778C389.746 368.782 389.709 368.233 389.666 367.667C389.634 367.091 389.618 366.526 389.618 365.971V360.547H390.882V371.043H389.506L385.698 364.435L384.562 362.275H384.498C384.541 362.798 384.578 363.337 384.61 363.891C384.653 364.446 384.674 365.001 384.674 365.555V371.043H383.41ZM395.305 371.043V361.667H392.137V360.547H399.817V361.667H396.649V371.043H395.305ZM401.067 371.043V360.547H402.395V364.947H407.275V360.547H408.619V371.043H407.275V366.099H402.395V371.043H401.067Z" fill="#1991EB"/>
<mask id="path-87-inside-24_775_3058" fill="white">
<path d="M224 378.043L121 378.043C118.791 378.043 117 376.252 117 374.043L117 356.043C117 353.834 118.791 352.043 121 352.043L224 352.043L224 378.043Z"/>
</mask>
<path d="M224 378.043L121 378.043C118.791 378.043 117 376.252 117 374.043L117 356.043C117 353.834 118.791 352.043 121 352.043L224 352.043L224 378.043Z" fill="#1991EB"/>
<path d="M224.25 378.543L121 378.543C118.515 378.543 116.5 376.528 116.5 374.043L117.5 374.043C117.5 375.976 119.067 377.543 121 377.543L223.75 377.543L224.25 378.543ZM116.5 356.043C116.5 353.558 118.515 351.543 121 351.543L224.25 351.543L223.75 352.543L121 352.543C119.067 352.543 117.5 354.11 117.5 356.043L116.5 356.043ZM224.25 351.543L224.25 378.543L223.75 377.543L223.75 352.543L224.25 351.543ZM121 378.543C118.515 378.543 116.5 376.528 116.5 374.043L116.5 356.043C116.5 353.558 118.515 351.543 121 351.543L121 352.543C119.067 352.543 117.5 354.11 117.5 356.043L117.5 374.043C117.5 375.976 119.067 377.543 121 377.543L121 378.543Z" fill="#B9BDC5" mask="url(#path-87-inside-24_775_3058)"/>
<path d="M159.44 371.043V360.547H162.064C163.685 360.547 164.917 361.001 165.76 361.907C166.603 362.803 167.024 364.083 167.024 365.747C167.024 367.422 166.603 368.723 165.76 369.651C164.928 370.579 163.717 371.043 162.128 371.043H159.44ZM160.768 369.955H161.968C163.195 369.955 164.112 369.587 164.72 368.851C165.339 368.105 165.648 367.07 165.648 365.747C165.648 364.425 165.339 363.411 164.72 362.707C164.112 361.993 163.195 361.635 161.968 361.635H160.768V369.955ZM170.295 365.171L169.799 366.771H172.951L172.456 365.171C172.264 364.585 172.082 364.003 171.911 363.427C171.741 362.841 171.57 362.243 171.399 361.635H171.335C171.175 362.243 171.01 362.841 170.839 363.427C170.669 364.003 170.487 364.585 170.295 365.171ZM167.095 371.043L170.647 360.547H172.151L175.703 371.043H174.28L173.287 367.843H169.463L168.455 371.043H167.095ZM178.028 371.043V366.979L174.876 360.547H176.3L177.66 363.507C177.831 363.891 177.996 364.27 178.156 364.643C178.327 365.017 178.497 365.401 178.668 365.795H178.732C178.913 365.401 179.095 365.017 179.276 364.643C179.457 364.27 179.628 363.891 179.788 363.507L181.132 360.547H182.524L179.372 366.979V371.043H178.028Z" fill="white"/>
<mask id="path-90-inside-25_775_3058" fill="white">
<path d="M331 378.043L224 378.043L224 352.043L331 352.043L331 378.043Z"/>
</mask>
<path d="M331 378.043L224 378.043L224 352.043L331 352.043L331 378.043Z" fill="white"/>
<path d="M331 378.043L331 378.543L331.25 378.543L331.25 378.043L331 378.043ZM224 378.043L223.75 378.043L223.75 378.543L224 378.543L224 378.043ZM224 352.043L224 351.543L223.75 351.543L223.75 352.043L224 352.043ZM331 352.043L331.25 352.043L331.25 351.543L331 351.543L331 352.043ZM331 377.543L224 377.543L224 378.543L331 378.543L331 377.543ZM224.25 378.043L224.25 352.043L223.75 352.043L223.75 378.043L224.25 378.043ZM224 352.543L331 352.543L331 351.543L224 351.543L224 352.543ZM330.75 352.043L330.75 378.043L331.25 378.043L331.25 352.043L330.75 352.043Z" fill="#B9BDC5" mask="url(#path-90-inside-25_775_3058)"/>
<path d="M262.592 371.043L260.368 360.547H261.744L262.848 366.259C262.944 366.825 263.045 367.39 263.152 367.955C263.259 368.521 263.36 369.086 263.456 369.651H263.52C263.637 369.086 263.76 368.521 263.888 367.955C264.016 367.379 264.139 366.814 264.256 366.259L265.712 360.547H266.928L268.384 366.259C268.512 366.814 268.64 367.379 268.768 367.955C268.896 368.521 269.024 369.086 269.152 369.651H269.216C269.312 369.086 269.408 368.521 269.504 367.955C269.6 367.379 269.701 366.814 269.808 366.259L270.912 360.547H272.192L270.016 371.043H268.416L266.832 364.723C266.736 364.318 266.645 363.923 266.56 363.539C266.485 363.145 266.405 362.745 266.32 362.339H266.256C266.181 362.745 266.096 363.145 266 363.539C265.904 363.923 265.813 364.318 265.728 364.723L264.176 371.043H262.592ZM273.378 371.043V360.547H279.426V361.667H274.706V364.963H278.69V366.099H274.706V369.907H279.586V371.043H273.378ZM281.176 371.043V360.547H287.224V361.667H282.504V364.963H286.488V366.099H282.504V369.907H287.384V371.043H281.176ZM288.973 371.043V360.547H290.301V365.811H290.349L294.717 360.547H296.221L292.941 364.547L296.733 371.043H295.245L292.109 365.587L290.301 367.715V371.043H288.973Z" fill="#1991EB"/>
</svg>
