<svg width="376" height="152" viewBox="0 0 376 152" fill="none" xmlns="http://www.w3.org/2000/svg">
<mask id="path-1-inside-1_1468_1255" fill="white">
<path d="M0 5C0 2.23858 2.23858 0 5 0H189V76H0V5Z"/>
</mask>
<path d="M0 5C0 2.23858 2.23858 0 5 0H189V76H0V5Z" fill="white"/>
<path d="M-1 5C-1 1.68629 1.68629 -1 5 -1H189V1H5C2.79086 1 1 2.79086 1 5H-1ZM189 76H0H189ZM-1 76V5C-1 1.68629 1.68629 -1 5 -1V1C2.79086 1 1 2.79086 1 5V76H-1ZM189 0V76V0Z" fill="#80BCFF" mask="url(#path-1-inside-1_1468_1255)"/>
<mask id="path-3-inside-2_1468_1255" fill="white">
<path d="M0 76H187.5V152H5C2.23857 152 0 149.761 0 147V76Z"/>
</mask>
<path d="M0 76H187.5V152H5C2.23857 152 0 149.761 0 147V76Z" fill="white"/>
<path d="M0 76H187.5H0ZM187.5 153H5C1.68629 153 -1 150.314 -1 147H1C1 149.209 2.79086 151 5 151H187.5V153ZM5 153C1.68629 153 -1 150.314 -1 147V76H1V147C1 149.209 2.79086 151 5 151V153ZM187.5 76V152V76Z" fill="#80BCFF" mask="url(#path-3-inside-2_1468_1255)"/>
<path d="M1 6C1 3.23858 3.23858 1 6 1H94V76H1V6Z" fill="#D8DDE1"/>
<mask id="path-6-inside-3_1468_1255" fill="white">
<path d="M188 76H375.5V147C375.5 149.761 373.261 152 370.5 152H188V76Z"/>
</mask>
<path d="M188 76H375.5V147C375.5 149.761 373.261 152 370.5 152H188V76Z" fill="white"/>
<path d="M188 76H375.5H188ZM376.5 147C376.5 150.314 373.814 153 370.5 153H188V151H370.5C372.709 151 374.5 149.209 374.5 147H376.5ZM188 152V76V152ZM376.5 76V147C376.5 150.314 373.814 153 370.5 153V151C372.709 151 374.5 149.209 374.5 147V76H376.5Z" fill="#80BCFF" mask="url(#path-6-inside-3_1468_1255)"/>
<path d="M94 76H188V151H94V76Z" fill="#CBD2D7"/>
<circle cx="139.5" cy="114.5" r="35.5" fill="#007AFF"/>
<path d="M255.25 116.25L254.05 120.75H264.475L263.35 116.25C262.7 113.8 262.025 111.2 261.325 108.45C260.675 105.7 260.025 103.05 259.375 100.5H259.075C258.475 103.1 257.85 105.775 257.2 108.525C256.6 111.225 255.95 113.8 255.25 116.25ZM237.55 141L252.85 92.1H266.125L281.425 141H269.725L266.725 129.375H251.8L248.8 141H237.55ZM296.269 141.9C292.869 141.9 290.169 140.825 288.169 138.675C286.169 136.475 285.169 133.8 285.169 130.65C285.169 126.75 286.819 123.7 290.119 121.5C293.419 119.3 298.744 117.825 306.094 117.075C305.994 115.425 305.494 114.125 304.594 113.175C303.744 112.175 302.294 111.675 300.244 111.675C298.694 111.675 297.119 111.975 295.519 112.575C293.919 113.175 292.219 114 290.419 115.05L286.444 107.775C288.794 106.325 291.294 105.15 293.944 104.25C296.644 103.35 299.444 102.9 302.344 102.9C307.094 102.9 310.744 104.275 313.294 107.025C315.844 109.775 317.119 114 317.119 119.7V141H308.119L307.369 137.175H307.069C305.519 138.575 303.844 139.725 302.044 140.625C300.294 141.475 298.369 141.9 296.269 141.9ZM300.019 133.35C301.269 133.35 302.344 133.075 303.244 132.525C304.194 131.925 305.144 131.15 306.094 130.2V123.675C302.194 124.175 299.494 124.975 297.994 126.075C296.494 127.125 295.744 128.375 295.744 129.825C295.744 131.025 296.119 131.925 296.869 132.525C297.669 133.075 298.719 133.35 300.019 133.35Z" fill="black"/>
<g clip-path="url(#clip0_1468_1255)">
<mask id="path-11-inside-4_1468_1255" fill="white">
<path d="M188 0H370.5C373.261 0 375.5 2.23858 375.5 5V76H188V0Z"/>
</mask>
<path d="M188 0H370.5C373.261 0 375.5 2.23858 375.5 5V76H188V0Z" fill="white"/>
<rect x="188.5" y="46.5" width="29" height="29" stroke="black"/>
<rect x="217.5" y="46.5" width="29" height="29" stroke="black"/>
<rect x="362.5" y="46.5" width="29" height="29" stroke="black"/>
<rect x="304.5" y="46.5" width="29" height="29" stroke="black"/>
<rect x="333.5" y="46.5" width="29" height="29" stroke="black"/>
<rect x="246.5" y="46.5" width="29" height="29" stroke="black"/>
<rect x="275.5" y="46.5" width="29" height="29" stroke="black"/>
<rect x="188.5" y="-11.5" width="29" height="29" stroke="black"/>
<rect x="217.5" y="-11.5" width="29" height="29" stroke="black"/>
<rect x="362.5" y="-11.5" width="29" height="29" stroke="black"/>
<rect x="304.5" y="-11.5" width="29" height="29" stroke="black"/>
<rect x="333.5" y="-11.5" width="29" height="29" stroke="black"/>
<rect x="246.5" y="-11.5" width="29" height="29" stroke="black"/>
<rect x="275.5" y="-11.5" width="29" height="29" stroke="black"/>
<rect x="188.5" y="17.5" width="29" height="29" stroke="black"/>
<rect x="217.5" y="17.5" width="29" height="29" stroke="black"/>
<rect x="362.5" y="17.5" width="29" height="29" stroke="black"/>
<rect x="304.5" y="17.5" width="29" height="29" stroke="black"/>
<rect x="333.5" y="17.5" width="29" height="29" stroke="black"/>
<rect x="246.5" y="17.5" width="29" height="29" stroke="black"/>
<rect x="275.5" y="17.5" width="29" height="29" stroke="black"/>
<path d="M140.25 18.25H309C322.117 18.25 332.75 28.8832 332.75 42V132.75H140.25V18.25Z" stroke="#FF0000" stroke-width="2.5"/>
</g>
<path d="M188 -1H370.5C373.814 -1 376.5 1.68629 376.5 5H374.5C374.5 2.79086 372.709 1 370.5 1H188V-1ZM375.5 76H188H375.5ZM188 76V0V76ZM370.5 -1C373.814 -1 376.5 1.68629 376.5 5V76H374.5V5C374.5 2.79086 372.709 1 370.5 1V-1Z" fill="#80BCFF" mask="url(#path-11-inside-4_1468_1255)"/>
<path d="M1 76H94V151H6C3.23858 151 1 148.761 1 146V76Z" fill="#E3E9EB"/>
<defs>
<clipPath id="clip0_1468_1255">
<path d="M188 0H370.5C373.261 0 375.5 2.23858 375.5 5V76H188V0Z" fill="white"/>
</clipPath>
</defs>
</svg>
