<svg width="347" height="141" viewBox="0 0 347 141" fill="none" xmlns="http://www.w3.org/2000/svg">
<mask id="path-1-inside-1_1689_1224" fill="white">
<path d="M0 5C0 2.23858 2.23858 0 5 0H174.53V70.1814H0V5Z"/>
</mask>
<path d="M0 5C0 2.23858 2.23858 0 5 0H174.53V70.1814H0V5Z" fill="white"/>
<path d="M-1 5C-1 1.68629 1.68629 -1 5 -1H174.53V1H5C2.79086 1 1 2.79086 1 5H-1ZM174.53 70.1814H0H174.53ZM-1 70.1814V5C-1 1.68629 1.68629 -1 5 -1V1C2.79086 1 1 2.79086 1 5V70.1814H-1ZM174.53 0V70.1814V0Z" fill="#80BCFF" mask="url(#path-1-inside-1_1689_1224)"/>
<mask id="path-3-inside-2_1689_1224" fill="white">
<path d="M0 70.1814H173.145V140.363H5C2.23858 140.363 0 138.124 0 135.363V70.1814Z"/>
</mask>
<path d="M0 70.1814H173.145V140.363H5C2.23858 140.363 0 138.124 0 135.363V70.1814Z" fill="white"/>
<path d="M0 70.1814H173.145H0ZM173.145 141.363H5C1.68629 141.363 -1 138.676 -1 135.363H1C1 137.572 2.79086 139.363 5 139.363H173.145V141.363ZM5 141.363C1.68629 141.363 -1 138.676 -1 135.363V70.1814H1V135.363C1 137.572 2.79086 139.363 5 139.363V141.363ZM173.145 70.1814V140.363V70.1814Z" fill="#80BCFF" mask="url(#path-3-inside-2_1689_1224)"/>
<path d="M0.923828 5.92343C0.923828 3.16201 3.1624 0.923439 5.92383 0.923439H86.8037V70.1814H0.923828V5.92343Z" fill="#D8DDE1"/>
<mask id="path-6-inside-3_1689_1224" fill="white">
<path d="M173.606 70.1814H346.751V135.363C346.751 138.124 344.513 140.363 341.751 140.363H173.606V70.1814Z"/>
</mask>
<path d="M173.606 70.1814H346.751V135.363C346.751 138.124 344.513 140.363 341.751 140.363H173.606V70.1814Z" fill="white"/>
<path d="M173.606 70.1814H346.751H173.606ZM347.751 135.363C347.751 138.676 345.065 141.363 341.751 141.363H173.606V139.363H341.751C343.96 139.363 345.751 137.572 345.751 135.363H347.751ZM173.606 140.363V70.1814V140.363ZM347.751 70.1814V135.363C347.751 138.676 345.065 141.363 341.751 141.363V139.363C343.96 139.363 345.751 137.572 345.751 135.363V70.1814H347.751Z" fill="#80BCFF" mask="url(#path-6-inside-3_1689_1224)"/>
<path d="M86.8037 70.1814H173.607V139.439H86.8037V70.1814Z" fill="#CBD2D7"/>
<circle cx="128.82" cy="105.734" r="32.7821" fill="#007AFF"/>
<path d="M236.1 106.9L234.98 111.1H244.71L243.66 106.9C243.053 104.613 242.423 102.187 241.77 99.62C241.163 97.0533 240.557 94.58 239.95 92.2H239.67C239.11 94.6267 238.527 97.1233 237.92 99.69C237.36 102.21 236.753 104.613 236.1 106.9ZM219.58 130L233.86 84.36H246.25L260.53 130H249.61L246.81 119.15H232.88L230.08 130H219.58ZM274.384 130.84C271.211 130.84 268.691 129.837 266.824 127.83C264.957 125.777 264.024 123.28 264.024 120.34C264.024 116.7 265.564 113.853 268.644 111.8C271.724 109.747 276.694 108.37 283.554 107.67C283.461 106.13 282.994 104.917 282.154 104.03C281.361 103.097 280.007 102.63 278.094 102.63C276.647 102.63 275.177 102.91 273.684 103.47C272.191 104.03 270.604 104.8 268.924 105.78L265.214 98.99C267.407 97.6367 269.741 96.54 272.214 95.7C274.734 94.86 277.347 94.44 280.054 94.44C284.487 94.44 287.894 95.7233 290.274 98.29C292.654 100.857 293.844 104.8 293.844 110.12V130H285.444L284.744 126.43H284.464C283.017 127.737 281.454 128.81 279.774 129.65C278.141 130.443 276.344 130.84 274.384 130.84ZM277.884 122.86C279.051 122.86 280.054 122.603 280.894 122.09C281.781 121.53 282.667 120.807 283.554 119.92V113.83C279.914 114.297 277.394 115.043 275.994 116.07C274.594 117.05 273.894 118.217 273.894 119.57C273.894 120.69 274.244 121.53 274.944 122.09C275.691 122.603 276.671 122.86 277.884 122.86Z" fill="black"/>
<g clip-path="url(#clip0_1689_1224)">
<mask id="path-11-inside-4_1689_1224" fill="white">
<path d="M173.606 0H341.751C344.513 0 346.751 2.23858 346.751 5V70.1814H173.606V0Z"/>
</mask>
<path d="M173.606 0H341.751C344.513 0 346.751 2.23858 346.751 5V70.1814H173.606V0Z" fill="white"/>
<rect x="174.106" y="46.5" width="29" height="29" stroke="black"/>
<rect x="203.106" y="46.5" width="29" height="29" stroke="black"/>
<rect x="290.106" y="46.5" width="29" height="29" stroke="black"/>
<rect x="319.106" y="46.5" width="29" height="29" stroke="black"/>
<rect x="232.106" y="46.5" width="29" height="29" stroke="black"/>
<rect x="261.106" y="46.5" width="29" height="29" stroke="black"/>
<rect x="174.106" y="-11.5" width="29" height="29" stroke="black"/>
<rect x="203.106" y="-11.5" width="29" height="29" stroke="black"/>
<rect x="290.106" y="-11.5" width="29" height="29" stroke="black"/>
<rect x="319.106" y="-11.5" width="29" height="29" stroke="black"/>
<rect x="232.106" y="-11.5" width="29" height="29" stroke="black"/>
<rect x="261.106" y="-11.5" width="29" height="29" stroke="black"/>
<rect x="174.106" y="17.5" width="29" height="29" stroke="black"/>
<rect x="203.106" y="17.5" width="29" height="29" stroke="black"/>
<rect x="290.106" y="17.5" width="29" height="29" stroke="black"/>
<rect x="319.106" y="17.5" width="29" height="29" stroke="black"/>
<rect x="232.106" y="17.5" width="29" height="29" stroke="black"/>
<rect x="261.106" y="17.5" width="29" height="29" stroke="black"/>
<path d="M125.856 18.25H294.606C307.723 18.25 318.356 28.8832 318.356 42V132.75H125.856V18.25Z" stroke="#FF0000" stroke-width="2.5"/>
</g>
<path d="M173.606 -1H341.751C345.065 -1 347.751 1.68629 347.751 5H345.751C345.751 2.79086 343.96 1 341.751 1H173.606V-1ZM346.751 70.1814H173.606H346.751ZM173.606 70.1814V0V70.1814ZM341.751 -1C345.065 -1 347.751 1.68629 347.751 5V70.1814H345.751V5C345.751 2.79086 343.96 1 341.751 1V-1Z" fill="#80BCFF" mask="url(#path-11-inside-4_1689_1224)"/>
<path d="M0.923828 70.1814H86.8037V139.439H5.92383C3.1624 139.439 0.923828 137.201 0.923828 134.439V70.1814Z" fill="#E3E9EB"/>
<defs>
<clipPath id="clip0_1689_1224">
<path d="M173.606 0H341.751C344.513 0 346.751 2.23858 346.751 5V70.1814H173.606V0Z" fill="white"/>
</clipPath>
</defs>
</svg>
