<svg width="357" height="146" viewBox="0 0 357 146" fill="none" xmlns="http://www.w3.org/2000/svg">
<mask id="path-1-inside-1_1713_2877" fill="white">
<path d="M0 5.8492C0 3.08778 2.23858 0.849213 5 0.849213H179.428V73H0V5.8492Z"/>
</mask>
<path d="M0 5.8492C0 3.08778 2.23858 0.849213 5 0.849213H179.428V73H0V5.8492Z" fill="white"/>
<path d="M-1 5.84921C-1 2.5355 1.68629 -0.150787 5 -0.150787H179.428V1.84921H5C2.79086 1.84921 1 3.64007 1 5.84921H-1ZM179.428 73H0H179.428ZM-1 73V5.84921C-1 2.5355 1.68629 -0.150787 5 -0.150787V1.84921C2.79086 1.84921 1 3.64007 1 5.84921V73H-1ZM179.428 0.849213V73V0.849213Z" fill="#80BCFF" mask="url(#path-1-inside-1_1713_2877)"/>
<mask id="path-3-inside-2_1713_2877" fill="white">
<path d="M0 73H178.004V145.151H5C2.23858 145.151 0 142.912 0 140.151V73Z"/>
</mask>
<path d="M0 73H178.004V145.151H5C2.23858 145.151 0 142.912 0 140.151V73Z" fill="white"/>
<path d="M0 73H178.004H0ZM178.004 146.151H5C1.68629 146.151 -1 143.464 -1 140.151H1C1 142.36 2.79086 144.151 5 144.151H178.004V146.151ZM5 146.151C1.68629 146.151 -1 143.464 -1 140.151V73H1V140.151C1 142.36 2.79086 144.151 5 144.151V146.151ZM178.004 73V145.151V73Z" fill="#80BCFF" mask="url(#path-3-inside-2_1713_2877)"/>
<path d="M0.949219 6.79855C0.949219 4.03713 3.18779 1.79855 5.94922 1.79855H89.239V73H0.949219V6.79855Z" fill="#D8DDE1"/>
<mask id="path-6-inside-3_1713_2877" fill="white">
<path d="M178.478 73H356.482V140.151C356.482 142.912 354.243 145.151 351.482 145.151H178.478V73Z"/>
</mask>
<path d="M178.478 73H356.482V140.151C356.482 142.912 354.243 145.151 351.482 145.151H178.478V73Z" fill="white"/>
<path d="M178.478 73H356.482H178.478ZM357.482 140.151C357.482 143.464 354.795 146.151 351.482 146.151H178.478V144.151H351.482C353.691 144.151 355.482 142.36 355.482 140.151H357.482ZM178.478 145.151V73V145.151ZM357.482 73V140.151C357.482 143.464 354.795 146.151 351.482 146.151V144.151C353.691 144.151 355.482 142.36 355.482 140.151V73H357.482Z" fill="#80BCFF" mask="url(#path-6-inside-3_1713_2877)"/>
<path d="M89.2393 73H178.478V144.201H89.2393V73Z" fill="#CBD2D7"/>
<circle cx="132.434" cy="109.55" r="33.702" fill="#007AFF"/>
<path d="M245.95 111.55L244.91 115.45H253.945L252.97 111.55C252.407 109.427 251.822 107.173 251.215 104.79C250.652 102.407 250.088 100.11 249.525 97.9H249.265C248.745 100.153 248.203 102.472 247.64 104.855C247.12 107.195 246.557 109.427 245.95 111.55ZM230.61 133L243.87 90.62H255.375L268.635 133H258.495L255.895 122.925H242.96L240.36 133H230.61ZM281.499 133.78C278.553 133.78 276.213 132.848 274.479 130.985C272.746 129.078 271.879 126.76 271.879 124.03C271.879 120.65 273.309 118.007 276.169 116.1C279.029 114.193 283.644 112.915 290.014 112.265C289.928 110.835 289.494 109.708 288.714 108.885C287.978 108.018 286.721 107.585 284.944 107.585C283.601 107.585 282.236 107.845 280.849 108.365C279.463 108.885 277.989 109.6 276.429 110.51L272.984 104.205C275.021 102.948 277.188 101.93 279.484 101.15C281.824 100.37 284.251 99.98 286.764 99.98C290.881 99.98 294.044 101.172 296.254 103.555C298.464 105.938 299.569 109.6 299.569 114.54V133H291.769L291.119 129.685H290.859C289.516 130.898 288.064 131.895 286.504 132.675C284.988 133.412 283.319 133.78 281.499 133.78ZM284.749 126.37C285.833 126.37 286.764 126.132 287.544 125.655C288.368 125.135 289.191 124.463 290.014 123.64V117.985C286.634 118.418 284.294 119.112 282.994 120.065C281.694 120.975 281.044 122.058 281.044 123.315C281.044 124.355 281.369 125.135 282.019 125.655C282.713 126.132 283.623 126.37 284.749 126.37Z" fill="black"/>
<g clip-path="url(#clip0_1713_2877)">
<mask id="path-11-inside-4_1713_2877" fill="white">
<path d="M178.478 0.849213H351.482C354.243 0.849213 356.482 3.08779 356.482 5.84921V73H178.478V0.849213Z"/>
</mask>
<path d="M178.478 0.849213H351.482C354.243 0.849213 356.482 3.08779 356.482 5.84921V73H178.478V0.849213Z" fill="white"/>
<rect x="178.978" y="47.3492" width="29" height="29" stroke="black"/>
<rect x="207.978" y="47.3492" width="29" height="29" stroke="black"/>
<rect x="352.978" y="47.3492" width="29" height="29" stroke="black"/>
<rect x="294.978" y="47.3492" width="29" height="29" stroke="black"/>
<rect x="323.978" y="47.3492" width="29" height="29" stroke="black"/>
<rect x="236.978" y="47.3492" width="29" height="29" stroke="black"/>
<rect x="265.978" y="47.3492" width="29" height="29" stroke="black"/>
<rect x="178.978" y="-10.6508" width="29" height="29" stroke="black"/>
<rect x="207.978" y="-10.6508" width="29" height="29" stroke="black"/>
<rect x="352.978" y="-10.6508" width="29" height="29" stroke="black"/>
<rect x="294.978" y="-10.6508" width="29" height="29" stroke="black"/>
<rect x="323.978" y="-10.6508" width="29" height="29" stroke="black"/>
<rect x="236.978" y="-10.6508" width="29" height="29" stroke="black"/>
<rect x="265.978" y="-10.6508" width="29" height="29" stroke="black"/>
<rect x="178.978" y="18.3492" width="29" height="29" stroke="black"/>
<rect x="207.978" y="18.3492" width="29" height="29" stroke="black"/>
<rect x="352.978" y="18.3492" width="29" height="29" stroke="black"/>
<rect x="294.978" y="18.3492" width="29" height="29" stroke="black"/>
<rect x="323.978" y="18.3492" width="29" height="29" stroke="black"/>
<rect x="236.978" y="18.3492" width="29" height="29" stroke="black"/>
<rect x="265.978" y="18.3492" width="29" height="29" stroke="black"/>
<path d="M130.728 19.0992H299.478C312.595 19.0992 323.228 29.7325 323.228 42.8492V133.599H130.728V19.0992Z" stroke="#FF0000" stroke-width="2.5"/>
</g>
<path d="M178.478 -0.150787H351.482C354.795 -0.150787 357.482 2.5355 357.482 5.84921H355.482C355.482 3.64007 353.691 1.84921 351.482 1.84921H178.478V-0.150787ZM356.482 73H178.478H356.482ZM178.478 73V0.849213V73ZM351.482 -0.150787C354.795 -0.150787 357.482 2.5355 357.482 5.84921V73H355.482V5.84921C355.482 3.64007 353.691 1.84921 351.482 1.84921V-0.150787Z" fill="#80BCFF" mask="url(#path-11-inside-4_1713_2877)"/>
<path d="M0.949219 73H89.239V144.201H5.94922C3.18779 144.201 0.949219 141.963 0.949219 139.201V73Z" fill="#E3E9EB"/>
<defs>
<clipPath id="clip0_1713_2877">
<path d="M178.478 0.849213H351.482C354.243 0.849213 356.482 3.08779 356.482 5.84921V73H178.478V0.849213Z" fill="white"/>
</clipPath>
</defs>
</svg>
