<svg width="34" height="22" viewBox="0 0 34 22" fill="none" xmlns="http://www.w3.org/2000/svg">
<rect width="34" height="22" rx="2.5" fill="#0092E1"/>
<path d="M15 10.5C14.7239 10.5 14.5 10.7239 14.5 11C14.5 11.2761 14.7239 11.5 15 11.5L15 10.5ZM29.3536 11.3536C29.5488 11.1583 29.5488 10.8417 29.3536 10.6464L26.1716 7.46447C25.9763 7.2692 25.6597 7.2692 25.4645 7.46447C25.2692 7.65973 25.2692 7.97631 25.4645 8.17157L28.2929 11L25.4645 13.8284C25.2692 14.0237 25.2692 14.3403 25.4645 14.5355C25.6597 14.7308 25.9763 14.7308 26.1716 14.5355L29.3536 11.3536ZM15 11.5L29 11.5L29 10.5L15 10.5L15 11.5Z" fill="#FCFCFC"/>
<path d="M8 3L8 18" stroke="white" stroke-linecap="round"/>
</svg>
