<svg width="410" height="373" viewBox="0 0 410 373" fill="none" xmlns="http://www.w3.org/2000/svg">
<path d="M399.408 262.16L205.438 373V350.83L399.408 239.994V262.16Z" fill="url(#paint0_linear_1120_172)"/>
<path d="M11.4688 262.16L205.438 373V350.83L11.4688 239.994V262.16Z" fill="url(#paint1_linear_1120_172)"/>
<path d="M205.438 350.83L399.408 239.994L205.438 129.154L11.4688 239.994L205.438 350.83Z" fill="url(#paint2_linear_1120_172)"/>
<g filter="url(#filter0_d_1120_172)">
<g opacity="0.9">
<path d="M277.713 120.31L83.7393 231.15V208.98L277.713 98.1399V120.31Z" fill="url(#paint3_linear_1120_172)" stroke="#0074FF" stroke-linejoin="round"/>
<path d="M11 189.585L83.7391 231.15V208.98L11 167.416V189.585Z" fill="url(#paint4_linear_1120_172)" stroke="#0074FF" stroke-linejoin="round"/>
<path d="M83.7391 208.98L277.713 98.1399L204.974 56.5753L11 167.416L83.7391 208.98Z" fill="url(#paint5_linear_1120_172)" stroke="#0074FF" stroke-linejoin="round"/>
</g>
<g opacity="0.9">
<path d="M360.149 167.416L301.956 200.668V178.498L360.149 145.25V167.416Z" fill="url(#paint6_linear_1120_172)" stroke="#0074FF" stroke-linejoin="round"/>
<path d="M229.217 159.104L301.956 200.668V178.498L229.217 136.934V159.104Z" fill="url(#paint7_linear_1120_172)" stroke="#0074FF" stroke-linejoin="round"/>
<path d="M301.956 178.498L360.149 145.25L287.41 103.681L229.217 136.934L301.956 178.498Z" fill="url(#paint8_linear_1120_172)" stroke="#0074FF" stroke-linejoin="round"/>
</g>
<path d="M292.259 206.209L234.066 239.462V217.292L292.259 184.044V206.209Z" fill="url(#paint9_linear_1120_172)" stroke="#0074FF" stroke-linejoin="round"/>
<path d="M161.331 197.897L234.066 239.462V217.292L161.331 175.728V197.897Z" fill="url(#paint10_linear_1120_172)" stroke="#0074FF" stroke-linejoin="round"/>
<path d="M234.066 217.292L292.259 184.044L219.52 142.475L161.331 175.728L234.066 217.292Z" fill="url(#paint11_linear_1120_172)" stroke="#0074FF" stroke-linejoin="round"/>
<g opacity="0.9">
<path d="M224.368 245.003L166.18 278.256V256.09L224.368 222.838V245.003Z" fill="url(#paint12_linear_1120_172)" stroke="#0074FF" stroke-linejoin="round"/>
<path d="M93.4404 236.691L166.179 278.256V256.09L93.4404 214.522V236.691Z" fill="url(#paint13_linear_1120_172)" stroke="#0074FF" stroke-linejoin="round"/>
<path d="M166.179 256.09L224.368 222.838L151.629 181.273L93.4404 214.522L166.179 256.09Z" fill="url(#paint14_linear_1120_172)" stroke="#0074FF" stroke-linejoin="round"/>
</g>
<g opacity="0.9">
<path d="M398.943 189.585L306.805 242.233V220.067L398.943 167.416V189.585Z" fill="url(#paint15_linear_1120_172)" stroke="#0074FF" stroke-linejoin="round"/>
<path d="M277.713 225.609L306.805 242.233V220.067L277.713 203.439V225.609Z" fill="url(#paint16_linear_1120_172)" stroke="#0074FF" stroke-linejoin="round"/>
<path d="M306.805 220.067L398.952 167.416L369.526 150.601L277.713 203.439L306.805 220.067Z" fill="url(#paint17_linear_1120_172)" stroke="#0074FF" stroke-linejoin="round"/>
</g>
<g opacity="0.9">
<path d="M175.543 283.662L204.974 300.426V278.256L175.543 261.492V283.662Z" fill="url(#paint18_linear_1120_172)" stroke="#0074FF" stroke-linejoin="round"/>
<path d="M297.108 247.774L204.974 300.426V278.256L297.108 225.608V247.774Z" fill="url(#paint19_linear_1120_172)" stroke="#0074FF" stroke-linejoin="round"/>
<path d="M204.974 278.256L297.107 225.735L267.682 208.917L175.543 261.442L204.974 278.256Z" fill="url(#paint20_linear_1120_172)" stroke="#0074FF" stroke-linejoin="round"/>
</g>
</g>
<path d="M278.177 47.1102L84.208 157.946V152.405L278.177 41.5646V47.1102Z" fill="url(#paint21_linear_1120_172)"/>
<path d="M11.4688 116.382L84.2078 157.946V152.405L11.4688 110.84V116.382Z" fill="url(#paint22_linear_1120_172)"/>
<path d="M84.2078 152.405L278.177 41.5646L205.438 0L11.4688 110.84L84.2078 152.405Z" fill="url(#paint23_linear_1120_172)"/>
<path d="M224.833 171.804L166.645 205.056V199.515L224.833 166.263V171.804Z" fill="url(#paint24_linear_1120_172)"/>
<path d="M93.9053 163.492L166.644 205.056V199.515L93.9053 157.946V163.492Z" fill="url(#paint25_linear_1120_172)"/>
<path d="M166.644 199.515L224.833 166.263L152.094 124.698L93.9053 157.946L166.644 199.515Z" fill="url(#paint26_linear_1120_172)"/>
<path d="M292.723 133.01L234.535 166.263V160.721L292.723 127.469V133.01Z" fill="url(#paint27_linear_1120_172)"/>
<path d="M161.796 124.698L234.535 166.263V160.721L161.796 119.152V124.698Z" fill="url(#paint28_linear_1120_172)"/>
<path d="M360.614 94.2162L302.421 127.469V121.927L360.614 88.6748V94.2162Z" fill="url(#paint29_linear_1120_172)"/>
<path d="M229.686 85.9041L302.421 127.469V121.927L229.686 80.3585V85.9041Z" fill="url(#paint30_linear_1120_172)"/>
<path d="M399.407 116.382L307.273 169.033V163.492L399.407 110.84V116.382Z" fill="url(#paint31_linear_1120_172)"/>
<path d="M278.177 152.405L307.274 169.033V163.492L278.177 146.864V152.405Z" fill="url(#paint32_linear_1120_172)"/>
<path d="M307.274 163.492L399.408 110.84L370.311 94.2162L278.177 146.864L307.274 163.492Z" fill="url(#paint33_linear_1120_172)"/>
<path d="M297.572 174.575L205.438 227.222V221.681L297.572 169.033V174.575Z" fill="url(#paint34_linear_1120_172)"/>
<path d="M176.342 210.598L205.438 227.222V221.681L176.342 205.056V210.598Z" fill="url(#paint35_linear_1120_172)"/>
<path d="M205.438 221.681L297.572 169.033L268.48 152.405L176.342 205.056L205.438 221.681Z" fill="url(#paint36_linear_1120_172)"/>
<path d="M234.809 160.455L293.002 127.203L220.263 85.638L162.07 118.886L234.809 160.455Z" fill="url(#paint37_linear_1120_172)"/>
<path d="M208.42 217.571L207.555 218.065L207.31 212.507L210.393 210.75L210.431 211.59L208.213 212.853L208.285 214.496L210.313 213.343L210.346 214.154L208.319 215.307L208.42 217.575V217.571Z" fill="white"/>
<path d="M212.035 213.364L212.128 215.455L211.263 215.949L211.018 210.391L212.939 209.297C213.459 209.001 213.877 208.921 214.185 209.06C214.498 209.2 214.663 209.538 214.688 210.074C214.705 210.446 214.637 210.822 214.489 211.198C214.342 211.573 214.126 211.903 213.847 212.182L215 213.825L214.016 214.386L212.973 212.836L212.04 213.368L212.035 213.364ZM211.917 210.703L212.002 212.604L212.977 212.046C213.252 211.89 213.463 211.683 213.607 211.43C213.75 211.176 213.818 210.898 213.805 210.598C213.792 210.306 213.704 210.121 213.539 210.04C213.374 209.96 213.155 209.998 212.88 210.154L211.921 210.699L211.917 210.703Z" fill="white"/>
<path d="M218.713 211.704L218.236 210.501L216.458 211.514L216.107 213.187L215.216 213.694L216.686 207.156L217.662 206.598L219.622 211.181L218.709 211.7L218.713 211.704ZM217.201 207.874L216.627 210.632L218 209.85L217.223 207.861L217.201 207.874Z" fill="white"/>
<path d="M225.129 208.051L224.351 208.494L224.178 204.55L224.153 204.562L222.928 209.259L222.337 209.593L220.77 206.488L220.749 206.501L220.922 210.446L220.14 210.889L219.896 205.331L220.897 204.761L222.561 208.114L222.586 208.097L223.883 203.059L224.879 202.488L225.124 208.047L225.129 208.051Z" fill="white"/>
<path d="M229.078 204.942L229.116 205.783L225.986 207.565L225.741 202.007L228.871 200.225L228.909 201.065L226.645 202.353L226.713 203.857L228.854 202.636L228.888 203.426L226.746 204.647L226.818 206.235L229.082 204.947L229.078 204.942Z" fill="white"/>
<path d="M229.597 203.903L230.434 203.426C230.472 203.667 230.594 203.806 230.801 203.844C231.008 203.886 231.261 203.823 231.557 203.65C231.849 203.485 232.081 203.274 232.258 203.021C232.436 202.767 232.52 202.526 232.507 202.294C232.499 202.096 232.423 201.969 232.284 201.923C232.144 201.876 231.92 201.897 231.612 201.986L230.978 202.172C230.527 202.307 230.189 202.311 229.965 202.184C229.737 202.058 229.614 201.796 229.597 201.399C229.576 200.909 229.724 200.415 230.049 199.916C230.374 199.418 230.797 199.021 231.325 198.721C231.857 198.417 232.292 198.324 232.63 198.442C232.968 198.561 233.154 198.86 233.187 199.342L232.364 199.811C232.33 199.562 232.224 199.414 232.047 199.367C231.865 199.321 231.637 199.376 231.359 199.532C231.084 199.688 230.869 199.883 230.704 200.119C230.543 200.356 230.467 200.592 230.476 200.824C230.484 201.01 230.556 201.12 230.691 201.162C230.826 201.204 231.046 201.179 231.346 201.095L231.908 200.926C232.402 200.774 232.765 200.761 232.997 200.879C233.23 201.002 233.356 201.268 233.373 201.682C233.394 202.21 233.242 202.725 232.913 203.228C232.583 203.734 232.127 204.153 231.54 204.486C230.983 204.803 230.527 204.913 230.176 204.807C229.825 204.702 229.627 204.402 229.589 203.899L229.597 203.903Z" fill="white"/>
<path d="M211.166 356.076L212.906 355.083C213.619 354.678 214.185 354.598 214.604 354.847C215.022 355.096 215.25 355.654 215.288 356.519C215.326 357.385 215.157 358.175 214.781 358.885C214.405 359.594 213.86 360.152 213.146 360.557L211.406 361.55L211.166 356.076ZM212.052 356.418L212.221 360.236L213.02 359.78C213.497 359.506 213.86 359.134 214.101 358.661C214.342 358.188 214.447 357.639 214.422 357.018C214.397 356.405 214.245 356.008 213.974 355.827C213.704 355.645 213.328 355.692 212.855 355.962L212.057 356.418H212.052Z" fill="white"/>
<path d="M219.127 356.304L219.165 357.132L216.082 358.889L215.841 353.415L218.925 351.658L218.963 352.486L216.733 353.757L216.796 355.235L218.903 354.036L218.937 354.813L216.83 356.013L216.897 357.575L219.127 356.304Z" fill="white"/>
<path d="M219.638 355.282L220.462 354.813C220.5 355.05 220.622 355.185 220.825 355.227C221.028 355.265 221.277 355.206 221.568 355.037C221.856 354.872 222.084 354.665 222.261 354.416C222.438 354.167 222.519 353.926 222.51 353.698C222.502 353.5 222.43 353.377 222.291 353.331C222.151 353.284 221.932 353.305 221.632 353.394L221.007 353.58C220.563 353.711 220.229 353.719 220.01 353.592C219.786 353.47 219.668 353.208 219.651 352.82C219.63 352.338 219.778 351.852 220.094 351.362C220.411 350.872 220.829 350.48 221.353 350.184C221.877 349.884 222.303 349.795 222.637 349.909C222.971 350.024 223.152 350.319 223.186 350.796L222.375 351.257C222.346 351.012 222.24 350.868 222.063 350.818C221.885 350.771 221.657 350.826 221.383 350.982C221.116 351.134 220.901 351.329 220.741 351.561C220.58 351.793 220.504 352.026 220.517 352.254C220.525 352.435 220.597 352.545 220.728 352.587C220.859 352.629 221.074 352.604 221.374 352.52L221.927 352.351C222.413 352.203 222.772 352.186 223 352.309C223.228 352.427 223.351 352.689 223.372 353.098C223.393 353.618 223.245 354.125 222.92 354.623C222.595 355.121 222.147 355.531 221.568 355.861C221.019 356.173 220.572 356.279 220.225 356.177C219.879 356.076 219.685 355.776 219.647 355.282H219.638Z" fill="white"/>
<path d="M224.926 353.85L224.077 354.336L223.836 348.862L224.685 348.376L224.926 353.85Z" fill="white"/>
<path d="M229.83 348.714C229.863 349.458 229.703 350.142 229.357 350.771C229.01 351.4 228.508 351.899 227.857 352.271C227.16 352.668 226.603 352.727 226.176 352.444C225.75 352.161 225.517 351.582 225.479 350.704C225.441 349.838 225.61 349.035 225.99 348.305C226.371 347.574 226.903 347.012 227.591 346.619C228.132 346.311 228.596 346.218 228.989 346.341C229.382 346.463 229.627 346.776 229.728 347.282L228.862 347.777C228.765 347.51 228.613 347.346 228.394 347.287C228.178 347.228 227.921 347.287 227.629 347.451C227.198 347.696 226.873 348.06 226.645 348.545C226.417 349.031 226.32 349.58 226.345 350.197C226.375 350.826 226.518 351.253 226.784 351.468C227.051 351.688 227.397 351.675 227.828 351.43C228.187 351.227 228.474 350.94 228.689 350.573C228.905 350.205 229.01 349.829 228.998 349.441V349.348L227.849 350.002L227.815 349.255L229.796 348.127L229.821 348.71L229.83 348.714Z" fill="white"/>
<path d="M231.447 350.133L230.624 350.602L230.383 345.128L231.122 344.706L233.652 347.194L233.681 347.177L233.513 343.342L234.332 342.877L234.573 348.351L233.842 348.769L231.308 346.277L231.278 346.294L231.447 350.133Z" fill="white"/>
<path d="M236.503 345.673L237.327 345.204C237.365 345.441 237.483 345.576 237.69 345.618C237.893 345.656 238.142 345.597 238.433 345.428C238.72 345.264 238.948 345.057 239.126 344.807C239.303 344.558 239.383 344.317 239.375 344.089C239.367 343.891 239.295 343.768 239.155 343.722C239.016 343.675 238.796 343.697 238.496 343.785L237.871 343.971C237.428 344.102 237.094 344.11 236.875 343.984C236.651 343.861 236.533 343.599 236.516 343.211C236.494 342.729 236.642 342.244 236.959 341.754C237.276 341.264 237.694 340.871 238.218 340.575C238.741 340.275 239.168 340.187 239.502 340.301C239.835 340.415 240.017 340.71 240.051 341.188L239.24 341.652C239.21 341.407 239.105 341.264 238.927 341.213C238.75 341.167 238.522 341.222 238.247 341.378C237.981 341.53 237.766 341.724 237.605 341.956C237.445 342.189 237.369 342.421 237.381 342.649C237.39 342.831 237.462 342.941 237.593 342.983C237.728 343.025 237.939 343 238.239 342.915L238.792 342.746C239.278 342.598 239.637 342.586 239.865 342.704C240.093 342.822 240.215 343.084 240.237 343.494C240.258 344.013 240.11 344.52 239.785 345.019C239.459 345.517 239.012 345.927 238.433 346.256C237.884 346.569 237.436 346.674 237.09 346.573C236.744 346.471 236.549 346.172 236.511 345.677L236.503 345.673Z" fill="white"/>
<path d="M243.046 343.528L242.197 344.009L242.104 341.851L240.288 339.486L241.221 338.953L242.48 340.677L242.501 340.664L243.548 337.627L244.477 337.099L242.953 341.365L243.046 343.523V343.528Z" fill="white"/>
<path d="M244.878 340.901L245.702 340.432C245.74 340.668 245.858 340.803 246.065 340.846C246.268 340.884 246.517 340.825 246.809 340.656C247.096 340.495 247.324 340.284 247.501 340.035C247.674 339.786 247.759 339.545 247.75 339.317C247.742 339.118 247.67 338.996 247.531 338.949C247.396 338.903 247.172 338.924 246.872 339.013L246.247 339.198C245.803 339.334 245.47 339.338 245.25 339.211C245.026 339.089 244.908 338.827 244.891 338.438C244.87 337.957 245.018 337.471 245.335 336.981C245.651 336.491 246.07 336.098 246.593 335.803C247.117 335.503 247.544 335.414 247.877 335.528C248.211 335.642 248.392 335.938 248.426 336.415L247.615 336.88C247.586 336.635 247.48 336.491 247.303 336.44C247.125 336.394 246.897 336.449 246.623 336.605C246.357 336.757 246.141 336.951 245.981 337.184C245.82 337.416 245.744 337.648 245.757 337.876C245.765 338.058 245.837 338.168 245.968 338.21C246.103 338.252 246.319 338.227 246.614 338.143L247.168 337.974C247.653 337.826 248.012 337.813 248.24 337.931C248.469 338.05 248.591 338.311 248.612 338.721C248.633 339.241 248.485 339.747 248.16 340.246C247.835 340.744 247.387 341.154 246.809 341.483C246.26 341.796 245.812 341.902 245.466 341.8C245.119 341.699 244.925 341.399 244.887 340.905L244.878 340.901Z" fill="white"/>
<path d="M251.328 338.81L250.479 339.291L250.276 334.645L248.853 335.456L248.815 334.628L252.511 332.525L252.549 333.353L251.125 334.164L251.328 338.81Z" fill="white"/>
<path d="M256.375 335.085L256.413 335.912L253.33 337.669L253.089 332.196L256.172 330.439L256.21 331.266L253.98 332.538L254.043 334.016L256.151 332.816L256.185 333.594L254.077 334.793L254.145 336.356L256.375 335.085Z" fill="white"/>
<path d="M262.064 332.69L261.3 333.125L261.131 329.239L261.11 329.252L259.902 333.877L259.323 334.206L257.777 331.152L257.756 331.165L257.925 335.051L257.156 335.49L256.916 330.016L257.904 329.455L259.543 332.753L259.568 332.736L260.844 327.774L261.828 327.212L262.068 332.686L262.064 332.69Z" fill="white"/>
<path d="M213.463 288.127C212.783 288.515 212.23 288.57 211.812 288.291C211.393 288.013 211.165 287.434 211.127 286.56C211.089 285.69 211.258 284.887 211.634 284.152C212.01 283.417 212.538 282.86 213.214 282.471C213.767 282.154 214.244 282.07 214.641 282.218C215.038 282.361 215.275 282.716 215.355 283.274L214.519 283.751C214.447 283.438 214.299 283.24 214.067 283.16C213.835 283.079 213.564 283.126 213.256 283.303C212.846 283.535 212.53 283.903 212.301 284.401C212.073 284.9 211.972 285.453 212.002 286.065C212.027 286.682 212.171 287.096 212.428 287.32C212.686 287.539 213.024 287.535 213.433 287.299C213.75 287.121 214.008 286.876 214.215 286.568C214.422 286.26 214.548 285.922 214.603 285.559L215.44 285.086C215.389 285.715 215.19 286.302 214.84 286.843C214.489 287.383 214.033 287.814 213.467 288.135L213.463 288.127Z" fill="white"/>
<path d="M218.007 279.738C218.7 279.346 219.262 279.286 219.689 279.561C220.115 279.84 220.352 280.41 220.39 281.28C220.428 282.15 220.254 282.953 219.87 283.692C219.486 284.431 218.949 284.997 218.257 285.39C217.564 285.787 217.002 285.846 216.572 285.571C216.145 285.297 215.908 284.722 215.87 283.852C215.832 282.982 216.006 282.175 216.39 281.436C216.774 280.697 217.315 280.127 218.007 279.734V279.738ZM219.08 280.537C218.814 280.317 218.468 280.33 218.046 280.575C217.623 280.815 217.289 281.187 217.057 281.69C216.825 282.192 216.719 282.75 216.745 283.362C216.77 283.97 216.918 284.384 217.184 284.6C217.45 284.815 217.796 284.803 218.219 284.562C218.641 284.321 218.975 283.949 219.207 283.447C219.444 282.944 219.545 282.391 219.52 281.778C219.494 281.17 219.346 280.756 219.08 280.537Z" fill="white"/>
<path d="M226.096 280.832L225.331 281.267L225.162 277.382L225.141 277.394L223.933 282.019L223.355 282.349L221.809 279.295L221.788 279.308L221.957 283.193L221.188 283.633L220.947 278.159L221.936 277.597L223.574 280.896L223.6 280.879L224.875 275.916L225.859 275.354L226.1 280.828L226.096 280.832Z" fill="white"/>
<path d="M226.7 274.881L228.55 273.825C229.023 273.555 229.42 273.504 229.728 273.673C230.041 273.842 230.21 274.197 230.231 274.746C230.256 275.291 230.121 275.819 229.834 276.33C229.542 276.841 229.158 277.238 228.672 277.513L227.709 278.062L227.789 279.869L226.94 280.355L226.7 274.881ZM227.587 275.198L227.68 277.272L228.453 276.833C228.757 276.659 228.993 276.431 229.154 276.153C229.314 275.874 229.39 275.57 229.373 275.236C229.361 274.907 229.263 274.7 229.086 274.619C228.909 274.535 228.668 274.581 228.364 274.755L227.587 275.198Z" fill="white"/>
<path d="M232.866 271.274C233.559 270.881 234.121 270.822 234.547 271.097C234.974 271.371 235.211 271.946 235.249 272.816C235.287 273.686 235.113 274.488 234.729 275.228C234.345 275.967 233.808 276.533 233.116 276.925C232.419 277.323 231.861 277.382 231.43 277.107C231.004 276.833 230.767 276.258 230.729 275.388C230.691 274.518 230.864 273.716 231.249 272.976C231.633 272.237 232.17 271.667 232.866 271.274ZM233.939 272.073C233.673 271.853 233.327 271.866 232.904 272.106C232.482 272.347 232.148 272.719 231.916 273.221C231.68 273.724 231.578 274.282 231.604 274.894C231.629 275.502 231.777 275.916 232.043 276.131C232.309 276.347 232.655 276.334 233.078 276.093C233.5 275.853 233.834 275.481 234.066 274.978C234.302 274.476 234.404 273.922 234.378 273.31C234.353 272.698 234.205 272.288 233.939 272.068V272.073Z" fill="white"/>
<path d="M236.866 274.7L236.047 275.169L235.806 269.695L236.545 269.272L239.075 271.76L239.105 271.743L238.936 267.908L239.755 267.444L239.996 272.917L239.265 273.335L236.731 270.844L236.702 270.86L236.871 274.7H236.866Z" fill="white"/>
<path d="M243.882 269.855L243.92 270.683L240.836 272.44L240.596 266.966L243.679 265.209L243.717 266.037L241.487 267.308L241.55 268.787L243.658 267.587L243.692 268.364L241.584 269.564L241.652 271.126L243.882 269.855Z" fill="white"/>
<path d="M245.478 269.792L244.654 270.261L244.414 264.787L245.153 264.364L247.683 266.852L247.712 266.835L247.543 263L248.363 262.536L248.603 268.009L247.873 268.428L245.339 265.936L245.309 265.953L245.478 269.792Z" fill="white"/>
<path d="M251.459 266.388L250.61 266.869L250.407 262.223L248.984 263.034L248.946 262.206L252.641 260.103L252.68 260.931L251.256 261.742L251.459 266.388Z" fill="white"/>
<path d="M253.199 263.815L254.023 263.347C254.061 263.583 254.183 263.718 254.386 263.761C254.589 263.799 254.838 263.739 255.129 263.57C255.417 263.406 255.645 263.199 255.822 262.95C255.995 262.7 256.08 262.46 256.067 262.232C256.059 262.033 255.987 261.911 255.847 261.864C255.708 261.818 255.488 261.839 255.189 261.927L254.563 262.113C254.12 262.244 253.786 262.253 253.567 262.126C253.343 262.004 253.225 261.742 253.208 261.353C253.187 260.872 253.334 260.386 253.651 259.896C253.968 259.406 254.386 259.013 254.91 258.718C255.433 258.418 255.86 258.329 256.194 258.443C256.527 258.557 256.709 258.853 256.743 259.33L255.932 259.79C255.902 259.545 255.797 259.402 255.619 259.351C255.442 259.305 255.214 259.36 254.939 259.516C254.673 259.668 254.458 259.862 254.297 260.094C254.137 260.327 254.061 260.559 254.073 260.787C254.082 260.969 254.154 261.079 254.285 261.121C254.416 261.163 254.635 261.138 254.931 261.053L255.484 260.884C255.97 260.736 256.329 260.72 256.557 260.842C256.785 260.96 256.908 261.222 256.929 261.632C256.95 262.151 256.802 262.658 256.477 263.157C256.152 263.655 255.704 264.065 255.125 264.394C254.576 264.707 254.128 264.812 253.782 264.711C253.436 264.609 253.241 264.31 253.203 263.815H253.199Z" fill="white"/>
<path d="M62.9211 247.93C62.9042 247.504 62.8408 247.174 62.372 246.904C61.6117 246.469 60.5347 246.651 59.7956 247.335C59.0564 248.019 59.0818 248.809 59.8505 249.248C60.3235 249.523 60.9022 249.514 61.4555 249.371L61.8736 250.853C60.5896 251.166 59.5126 251.098 58.4947 250.507C56.7588 249.501 56.6828 247.728 58.1484 246.384C59.6139 245.041 61.9834 244.678 63.6897 245.654C64.5894 246.169 64.9653 246.891 64.9737 247.715L62.9168 247.926L62.9211 247.93ZM67.4741 255.575L65.8185 254.616L66.1521 254.295C66.2324 254.215 66.3675 254.105 66.5323 253.983C65.6875 254.211 64.7668 254.19 63.9854 253.738C62.7901 253.045 62.6972 251.765 64.0319 250.502L66.9842 247.706L68.6314 248.648L65.772 251.377C65.0835 252.036 65.2356 252.669 65.7889 252.986C66.2831 253.273 67.1615 253.265 67.8627 252.644L70.7474 249.856L72.3862 250.794L67.4784 255.571L67.4741 255.575ZM75.6046 256.454C76.3184 255.736 76.4746 254.916 75.6172 254.426C74.857 253.987 73.8095 254.232 73.062 254.975C72.3946 255.638 72.2722 256.568 73.0282 257.007C73.8771 257.497 74.8992 257.163 75.6046 256.454ZM68.9862 256.454L76.5042 249.079L78.1303 250.004L75.0259 253.075C75.8707 252.935 76.652 253.07 77.2856 253.429C78.8652 254.333 78.5484 256.078 77.2602 257.374C75.972 258.671 73.8518 259.427 72.2341 258.489C71.5584 258.101 71.212 257.459 71.2247 256.745L70.5869 257.379L68.9904 256.454H68.9862ZM76.0396 260.542L77.729 261.522L82.5271 256.606L80.8545 255.651L76.0396 260.546V260.542ZM84.0983 253.691C84.6811 254.021 84.7572 254.722 84.263 255.224C83.7688 255.727 82.8692 255.871 82.2863 255.541C81.7035 255.212 81.6274 254.506 82.1216 254.004C82.6158 253.501 83.5154 253.362 84.0983 253.691ZM83.8491 261.805C84.4953 262.177 85.2217 262.105 85.775 261.522C86.3283 260.939 86.2397 260.348 85.5934 259.98C84.9472 259.613 84.1827 259.706 83.6252 260.289C83.0677 260.871 83.224 261.446 83.8491 261.805ZM79.4058 264.026C78.5865 264.356 78.4893 265.091 79.9126 265.923C82.0033 267.139 83.1226 265.855 82.0371 265.222C81.3994 264.85 80.5335 264.715 79.693 264.225C79.5874 264.162 79.4903 264.09 79.4058 264.026ZM87.6038 259.634L89.0188 259.321L89.23 260.66L87.9882 260.867C87.9882 261.404 87.7686 261.944 87.3209 262.417C86.1383 263.667 84.1743 263.82 82.7256 262.979C82.3835 262.781 82.1174 262.578 81.8935 262.358C81.0362 262.43 80.5589 262.848 81.336 263.3C81.8808 263.617 82.4173 263.625 83.2113 264.086C86.2228 265.83 82.7636 269.483 78.7512 267.139C75.7397 265.378 76.7323 263.363 78.8567 262.814C78.9792 261.999 80.0014 261.235 81.298 261.163C81.2515 260.584 81.5092 259.976 82.0667 259.402C83.262 258.168 85.2471 258.012 86.6831 258.836C87.0675 259.055 87.3842 259.33 87.5954 259.642L87.6038 259.634ZM92.1991 265.995C92.9045 265.226 92.8834 264.335 92.0513 263.858C91.2193 263.38 90.1253 263.625 89.4158 264.39C88.7062 265.154 88.7442 266.066 89.5678 266.544C90.3914 267.021 91.4853 266.776 92.2033 265.995H92.1991ZM87.815 263.469C89.2173 261.978 91.5782 261.602 93.2508 262.557C94.9233 263.511 95.1937 265.403 93.8126 266.92C92.4314 268.436 90.0705 268.808 88.3768 267.832C86.6831 266.856 86.4128 264.964 87.815 263.469ZM44.1893 248.196L36.2785 243.563C34.0991 242.288 33.9217 239.918 35.8857 238.288L43.0109 232.37C44.9749 230.74 48.2947 230.385 50.4149 231.581L58.0977 235.918C60.2179 237.114 60.3911 239.483 58.4905 241.194L51.5975 247.407C49.6969 249.117 46.3772 249.472 44.1936 248.196H44.1893ZM49.8954 242.482L49.3084 243.136C48.7889 243.719 47.7541 243.922 46.9981 243.597L42.4281 241.608C41.672 241.278 41.4862 240.547 42.0099 239.977L45.1988 236.535C45.7267 235.965 46.7657 235.766 47.5133 236.083L52.0326 238.009C52.7801 238.326 52.966 239.056 52.4422 239.635L51.8552 240.29L54.1106 241.253L55.1623 240.07C56.2815 238.812 55.8888 237.236 54.2753 236.56L48.4256 234.09C46.8122 233.405 44.561 233.84 43.4122 235.061L39.2519 239.504C38.1073 240.733 38.5128 242.317 40.1558 243.039L46.1068 245.645C47.7456 246.359 49.9841 245.911 51.0992 244.649L52.1466 243.462L49.8828 242.486L49.8954 242.482Z" fill="white"/>
<path d="M302.454 121.969L360.647 88.717L287.908 47.1524L229.715 80.4049L302.454 121.969Z" fill="url(#paint38_linear_1120_172)"/>
<defs>
<filter id="filter0_d_1120_172" x="0.5" y="46.0753" width="408.952" height="264.85" filterUnits="userSpaceOnUse" color-interpolation-filters="sRGB">
<feFlood flood-opacity="0" result="BackgroundImageFix"/>
<feColorMatrix in="SourceAlpha" type="matrix" values="0 0 0 0 0 0 0 0 0 0 0 0 0 0 0 0 0 0 127 0" result="hardAlpha"/>
<feOffset/>
<feGaussianBlur stdDeviation="5"/>
<feColorMatrix type="matrix" values="0 0 0 0 0.988235 0 0 0 0 0.976471 0 0 0 0 0.823529 0 0 0 0.75 0"/>
<feBlend mode="normal" in2="BackgroundImageFix" result="effect1_dropShadow_1120_172"/>
<feBlend mode="normal" in="SourceGraphic" in2="effect1_dropShadow_1120_172" result="shape"/>
</filter>
<linearGradient id="paint0_linear_1120_172" x1="207.276" y1="306.495" x2="394.965" y2="306.495" gradientUnits="userSpaceOnUse">
<stop stop-color="#0064E1"/>
<stop offset="1" stop-color="#80C8F0"/>
</linearGradient>
<linearGradient id="paint1_linear_1120_172" x1="19.236" y1="256.504" x2="195.58" y2="355.316" gradientUnits="userSpaceOnUse">
<stop offset="0.12" stop-color="#2D63D9"/>
<stop offset="1" stop-color="#0092E1"/>
</linearGradient>
<linearGradient id="paint2_linear_1120_172" x1="11.4688" y1="239.994" x2="399.408" y2="239.994" gradientUnits="userSpaceOnUse">
<stop offset="0.21" stop-color="#0092E1"/>
<stop offset="0.99" stop-color="#0092E1"/>
</linearGradient>
<linearGradient id="paint3_linear_1120_172" x1="83.7393" y1="164.645" x2="277.713" y2="164.645" gradientUnits="userSpaceOnUse">
<stop offset="0.36" stop-color="#0092E1"/>
<stop offset="0.81" stop-color="#3051CB"/>
</linearGradient>
<linearGradient id="paint4_linear_1120_172" x1="13.2554" y1="165.164" x2="81.4879" y2="233.401" gradientUnits="userSpaceOnUse">
<stop offset="0.36" stop-color="#0092E1"/>
<stop offset="0.81" stop-color="#3051CB"/>
</linearGradient>
<linearGradient id="paint5_linear_1120_172" x1="94.9992" y1="83.4206" x2="193.714" y2="182.139" gradientUnits="userSpaceOnUse">
<stop offset="0.14" stop-color="#0092E1"/>
<stop offset="0.58" stop-color="#3051CB"/>
<stop offset="0.93" stop-color="#3051CB"/>
</linearGradient>
<linearGradient id="paint6_linear_1120_172" x1="301.956" y1="172.957" x2="360.149" y2="172.957" gradientUnits="userSpaceOnUse">
<stop offset="0.36" stop-color="#0092E1"/>
<stop offset="0.81" stop-color="#3051CB"/>
</linearGradient>
<linearGradient id="paint7_linear_1120_172" x1="229.217" y1="168.801" x2="301.956" y2="168.801" gradientUnits="userSpaceOnUse">
<stop stop-color="#FFFEE1"/>
<stop offset="0.36" stop-color="#0092E1"/>
<stop offset="0.81" stop-color="#3051CB"/>
</linearGradient>
<linearGradient id="paint8_linear_1120_172" x1="229.217" y1="141.09" x2="360.149" y2="141.09" gradientUnits="userSpaceOnUse">
<stop stop-color="#FFFEE1"/>
<stop offset="0.36" stop-color="#0092E1"/>
<stop offset="0.81" stop-color="#3051CB"/>
</linearGradient>
<linearGradient id="paint9_linear_1120_172" x1="234.066" y1="211.751" x2="292.259" y2="211.751" gradientUnits="userSpaceOnUse">
<stop offset="0.62" stop-color="#3051CB"/>
<stop offset="1" stop-color="#0092E1"/>
</linearGradient>
<linearGradient id="paint10_linear_1120_172" x1="161.331" y1="207.595" x2="234.066" y2="207.595" gradientUnits="userSpaceOnUse">
<stop offset="0.62" stop-color="#3051CB"/>
<stop offset="1" stop-color="#0092E1"/>
</linearGradient>
<linearGradient id="paint11_linear_1120_172" x1="161.331" y1="179.884" x2="292.259" y2="179.884" gradientUnits="userSpaceOnUse">
<stop offset="0.62" stop-color="#3051CB"/>
<stop offset="1" stop-color="#0092E1"/>
</linearGradient>
<linearGradient id="paint12_linear_1120_172" x1="166.18" y1="250.545" x2="224.368" y2="250.545" gradientUnits="userSpaceOnUse">
<stop offset="0.62" stop-color="#3051CB"/>
<stop offset="1" stop-color="#0092E1"/>
</linearGradient>
<linearGradient id="paint13_linear_1120_172" x1="116.472" y1="259.727" x2="143.144" y2="233.055" gradientUnits="userSpaceOnUse">
<stop stop-color="#80C8F0"/>
<stop offset="0.62" stop-color="#3051CB"/>
<stop offset="1" stop-color="#0092E1"/>
</linearGradient>
<linearGradient id="paint14_linear_1120_172" x1="93.4404" y1="218.682" x2="224.368" y2="218.682" gradientUnits="userSpaceOnUse">
<stop offset="0.62" stop-color="#3051CB"/>
<stop offset="1" stop-color="#0092E1"/>
</linearGradient>
<linearGradient id="paint15_linear_1120_172" x1="306.805" y1="204.824" x2="398.943" y2="204.824" gradientUnits="userSpaceOnUse">
<stop offset="0.36" stop-color="#0092E1"/>
<stop offset="0.81" stop-color="#3051CB"/>
</linearGradient>
<linearGradient id="paint16_linear_1120_172" x1="277.713" y1="222.838" x2="306.805" y2="222.838" gradientUnits="userSpaceOnUse">
<stop offset="0.36" stop-color="#0092E1"/>
<stop offset="0.81" stop-color="#3051CB"/>
</linearGradient>
<linearGradient id="paint17_linear_1120_172" x1="277.713" y1="185.332" x2="398.952" y2="185.332" gradientUnits="userSpaceOnUse">
<stop offset="0.36" stop-color="#0092E1"/>
<stop offset="0.81" stop-color="#3051CB"/>
</linearGradient>
<linearGradient id="paint18_linear_1120_172" x1="181.549" y1="289.668" x2="198.968" y2="272.25" gradientUnits="userSpaceOnUse">
<stop offset="0.36" stop-color="#0092E1"/>
<stop offset="0.81" stop-color="#3051CB"/>
</linearGradient>
<linearGradient id="paint19_linear_1120_172" x1="204.974" y1="263.017" x2="297.108" y2="263.017" gradientUnits="userSpaceOnUse">
<stop offset="0.36" stop-color="#0092E1"/>
<stop offset="0.81" stop-color="#3051CB"/>
</linearGradient>
<linearGradient id="paint20_linear_1120_172" x1="175.543" y1="243.588" x2="297.107" y2="243.588" gradientUnits="userSpaceOnUse">
<stop offset="0.36" stop-color="#0092E1"/>
<stop offset="0.81" stop-color="#3051CB"/>
</linearGradient>
<linearGradient id="paint21_linear_1120_172" x1="84.208" y1="99.7575" x2="278.177" y2="99.7575" gradientUnits="userSpaceOnUse">
<stop offset="0.23" stop-color="#80C8F0"/>
<stop offset="1" stop-color="#0092E1"/>
</linearGradient>
<linearGradient id="paint22_linear_1120_172" x1="11.4688" y1="134.395" x2="84.2078" y2="134.395" gradientUnits="userSpaceOnUse">
<stop stop-color="#80C8F0"/>
<stop offset="1" stop-color="#0092E1"/>
</linearGradient>
<linearGradient id="paint23_linear_1120_172" x1="11.4688" y1="76.2024" x2="278.177" y2="76.2024" gradientUnits="userSpaceOnUse">
<stop stop-color="#A3D3ED"/>
<stop offset="1" stop-color="#0092E1"/>
</linearGradient>
<linearGradient id="paint24_linear_1120_172" x1="166.645" y1="185.657" x2="224.833" y2="185.657" gradientUnits="userSpaceOnUse">
<stop offset="0.23" stop-color="#80C8F0"/>
<stop offset="1" stop-color="#0092E1"/>
</linearGradient>
<linearGradient id="paint25_linear_1120_172" x1="93.9053" y1="181.501" x2="166.644" y2="181.501" gradientUnits="userSpaceOnUse">
<stop stop-color="#80C8F0"/>
<stop offset="1" stop-color="#0092E1"/>
</linearGradient>
<linearGradient id="paint26_linear_1120_172" x1="93.9053" y1="162.106" x2="224.833" y2="162.106" gradientUnits="userSpaceOnUse">
<stop stop-color="#5283E6"/>
<stop offset="0.36" stop-color="#32A7E5"/>
</linearGradient>
<linearGradient id="paint27_linear_1120_172" x1="234.535" y1="146.864" x2="292.723" y2="146.864" gradientUnits="userSpaceOnUse">
<stop offset="0.23" stop-color="#80C8F0"/>
<stop offset="1" stop-color="#0092E1"/>
</linearGradient>
<linearGradient id="paint28_linear_1120_172" x1="161.796" y1="142.707" x2="234.535" y2="142.707" gradientUnits="userSpaceOnUse">
<stop stop-color="#80C8F0"/>
<stop offset="1" stop-color="#0092E1"/>
</linearGradient>
<linearGradient id="paint29_linear_1120_172" x1="302.421" y1="108.07" x2="360.614" y2="108.07" gradientUnits="userSpaceOnUse">
<stop offset="0.23" stop-color="#80C8F0"/>
<stop offset="1" stop-color="#0092E1"/>
</linearGradient>
<linearGradient id="paint30_linear_1120_172" x1="229.686" y1="103.914" x2="302.421" y2="103.914" gradientUnits="userSpaceOnUse">
<stop stop-color="#80C8F0"/>
<stop offset="1" stop-color="#0092E1"/>
</linearGradient>
<linearGradient id="paint31_linear_1120_172" x1="308.08" y1="165.701" x2="397.283" y2="114.925" gradientUnits="userSpaceOnUse">
<stop offset="0.23" stop-color="#80C8F0"/>
<stop offset="1" stop-color="#0092E1"/>
</linearGradient>
<linearGradient id="paint32_linear_1120_172" x1="279.63" y1="149.436" x2="307.079" y2="167.276" gradientUnits="userSpaceOnUse">
<stop stop-color="#80C8F0"/>
<stop offset="1" stop-color="#0092E1"/>
</linearGradient>
<linearGradient id="paint33_linear_1120_172" x1="279.926" y1="147.294" x2="399.834" y2="109.73" gradientUnits="userSpaceOnUse">
<stop offset="0.23" stop-color="#80C8F0"/>
<stop offset="1" stop-color="#0092E1"/>
</linearGradient>
<linearGradient id="paint34_linear_1120_172" x1="205.438" y1="198.13" x2="297.572" y2="198.13" gradientUnits="userSpaceOnUse">
<stop offset="0.23" stop-color="#80C8F0"/>
<stop offset="1" stop-color="#0092E1"/>
</linearGradient>
<linearGradient id="paint35_linear_1120_172" x1="176.342" y1="216.139" x2="205.438" y2="216.139" gradientUnits="userSpaceOnUse">
<stop stop-color="#80C8F0"/>
<stop offset="1" stop-color="#0092E1"/>
</linearGradient>
<linearGradient id="paint36_linear_1120_172" x1="176.342" y1="187.043" x2="297.572" y2="187.043" gradientUnits="userSpaceOnUse">
<stop offset="0.23" stop-color="#80C8F0"/>
<stop offset="1" stop-color="#0092E1"/>
</linearGradient>
<linearGradient id="paint37_linear_1120_172" x1="162.07" y1="123.047" x2="293.002" y2="123.047" gradientUnits="userSpaceOnUse">
<stop stop-color="#5283E6"/>
<stop offset="0.35" stop-color="#32A7E5"/>
</linearGradient>
<linearGradient id="paint38_linear_1120_172" x1="229.715" y1="84.561" x2="360.647" y2="84.561" gradientUnits="userSpaceOnUse">
<stop stop-color="#5283E6"/>
<stop offset="0.35" stop-color="#32A7E5"/>
</linearGradient>
</defs>
</svg>
