<svg width="796" height="475" viewBox="0 0 796 475" fill="none" xmlns="http://www.w3.org/2000/svg">
<g clip-path="url(#clip0_1756_2197)">
<rect width="796" height="475" rx="5" fill="#FAFAFA"/>
<rect width="866" height="411" transform="translate(-35 32)" fill="#FAFAFA"/>
<path fill-rule="evenodd" clip-rule="evenodd" d="M90 228C89.5568 228 89.1855 228.064 88.8699 228.215C88.5544 228.366 88.3097 228.617 88.1668 228.893C87.9361 229.338 87.9125 229.806 87.912 230.273C85.5482 230.703 83.5204 231.885 82.0231 233.81C80.1731 236.189 79.1339 239.662 79.0577 244.174H78V245.217H102V244.174H100.942C100.866 239.662 99.8269 236.189 97.9769 233.81C96.4796 231.885 94.4518 230.703 92.088 230.273C92.0875 229.806 92.0639 229.338 91.8332 228.893C91.6903 228.617 91.4456 228.366 91.1301 228.215C90.8145 228.064 90.4432 228 90 228ZM90 229.043C90.3394 229.043 90.555 229.097 90.6797 229.157C90.8044 229.216 90.8532 229.271 90.9059 229.373C90.9782 229.512 91.0085 229.798 91.0251 230.133C90.6888 230.104 90.3475 230.087 90 230.087C89.6525 230.087 89.3112 230.104 88.9749 230.133C88.9915 229.798 89.0218 229.512 89.0941 229.373C89.1468 229.271 89.1956 229.216 89.3203 229.157C89.445 229.097 89.6606 229.043 90 229.043ZM97.1535 234.45C95.4235 232.226 93 231.13 90 231.13C87 231.13 84.5765 232.226 82.8465 234.45C81.1838 236.588 80.1788 239.826 80.1022 244.174H99.8978C99.8212 239.826 98.8162 236.588 97.1535 234.45ZM90 232.749L88.4878 234.261H86.3478V236.401L84.8356 237.913L86.3478 239.425V241.565H88.4878L90 243.077L91.5122 241.565H93.6522V239.425L95.1644 237.913L93.6522 236.401V234.261H91.5122L90 232.749ZM91.0802 235.304L90 234.224L88.9198 235.304H87.3913V236.833L86.3111 237.913L87.3913 238.993V240.522H88.9198L90 241.602L91.0802 240.522H92.6087V239.209V238.993L93.6889 237.913L92.6087 236.833V235.304H91.0802Z" fill="black"/>
<g clip-path="url(#clip1_1756_2197)">
<path fill-rule="evenodd" clip-rule="evenodd" d="M98.254 393.5H100.5C101.052 393.5 101.5 393.052 101.5 392.5V391.5C101.5 390.948 101.052 390.5 100.5 390.5H98.253C98.0491 389.486 97.7129 388.504 97.253 387.578L98.842 385.99C99.2324 385.599 99.2324 384.967 98.842 384.576L97.424 383.162C97.0335 382.772 96.4005 382.772 96.01 383.162L94.42 384.751C93.4948 384.291 92.513 383.955 91.5 383.751V381.5C91.5 380.948 91.0523 380.5 90.5 380.5H89.5C88.9477 380.5 88.5 380.948 88.5 381.5V383.749C87.4867 383.953 86.5046 384.289 85.579 384.749L83.989 383.162C83.5985 382.772 82.9655 382.772 82.575 383.162L81.16 384.577C80.7696 384.968 80.7696 385.601 81.16 385.991L82.75 387.58C82.2904 388.506 81.9542 389.488 81.75 390.501H79.5C78.9477 390.501 78.5 390.949 78.5 391.501V392.501C78.5 393.053 78.9477 393.501 79.5 393.501H81.746C81.9502 394.514 82.2864 395.496 82.746 396.422L81.156 398.012C80.7656 398.402 80.7656 399.036 81.156 399.426L82.575 400.84C82.9655 401.23 83.5985 401.23 83.989 400.84L85.578 399.25C86.504 399.71 87.4864 400.046 88.5 400.25V402.5C88.5 403.052 88.9477 403.5 89.5 403.5H90.5C91.0523 403.5 91.5 403.052 91.5 402.5V400.255C92.5129 400.051 93.4946 399.715 94.42 399.255L96.011 400.844C96.4015 401.234 97.0345 401.234 97.425 400.844L98.839 399.43C99.2294 399.04 99.2294 398.407 98.839 398.016L97.25 396.426C97.7114 395.499 98.0489 394.515 98.254 393.5Z" stroke="black" stroke-linecap="round" stroke-linejoin="round"/>
<path fill-rule="evenodd" clip-rule="evenodd" d="M90 396.501C92.4853 396.501 94.5 394.486 94.5 392.001C94.5 389.516 92.4853 387.501 90 387.501C87.5147 387.501 85.5 389.516 85.5 392.001C85.5 394.486 87.5147 396.501 90 396.501Z" stroke="black" stroke-linecap="round" stroke-linejoin="round"/>
</g>
<g clip-path="url(#clip2_1756_2197)">
<path d="M561 230.5L559.188 247.709C559.081 248.727 558.223 249.499 557.2 249.5H546.8C545.776 249.5 544.918 248.727 544.811 247.709L543 230.5" stroke="black" stroke-linecap="round" stroke-linejoin="round"/>
<path d="M540.5 230.5H563.5" stroke="black" stroke-linecap="round" stroke-linejoin="round"/>
<path d="M547.5 230.5V227.5C547.5 226.948 547.948 226.5 548.5 226.5H555.5C556.052 226.5 556.5 226.948 556.5 227.5V230.5" stroke="black" stroke-linecap="round" stroke-linejoin="round"/>
<path d="M552 235V245.5" stroke="black" stroke-linecap="round" stroke-linejoin="round"/>
<path d="M556.5 235L556 245.5" stroke="black" stroke-linecap="round" stroke-linejoin="round"/>
<path d="M547.5 235L548 245.5" stroke="black" stroke-linecap="round" stroke-linejoin="round"/>
</g>
<g clip-path="url(#clip3_1756_2197)">
<path d="M554.53 84.5531C554.828 83.9234 555.329 83.4119 555.952 83.1001" stroke="black" stroke-linecap="round" stroke-linejoin="round"/>
<path fill-rule="evenodd" clip-rule="evenodd" d="M550.562 85.4381C548.605 83.6879 548.427 80.687 550.162 78.7171C552.132 76.9812 555.133 77.1598 556.883 79.1171C558.841 80.8668 559.019 83.8686 557.283 85.8381C555.313 87.5734 552.312 87.3948 550.562 85.4381V85.4381Z" stroke="black" stroke-linecap="round" stroke-linejoin="round"/>
<path d="M548.166 90.916C548.464 90.2878 548.965 89.7782 549.588 89.469" stroke="black" stroke-linecap="round" stroke-linejoin="round"/>
<path fill-rule="evenodd" clip-rule="evenodd" d="M544.2 91.8C542.242 90.0509 542.063 87.049 543.8 85.08C545.769 83.3436 548.771 83.5223 550.52 85.48C552.477 87.2299 552.656 90.2312 550.92 92.201C548.95 93.9365 545.949 93.7574 544.2 91.8Z" stroke="black" stroke-linecap="round" stroke-linejoin="round"/>
<path d="M560.939 75.061L556.887 79.113" stroke="black" stroke-linecap="round" stroke-linejoin="round"/>
<path d="M544.197 91.8L540.5 95.5" stroke="black" stroke-linecap="round" stroke-linejoin="round"/>
<path fill-rule="evenodd" clip-rule="evenodd" d="M563.06 75.061C562.631 75.4901 561.986 75.6185 561.425 75.3864C560.865 75.1542 560.499 74.6073 560.499 74.0005C560.499 73.3938 560.865 72.8468 561.425 72.6147C561.986 72.3825 562.631 72.5109 563.06 72.94C563.646 73.5258 563.646 74.4753 563.06 75.061V75.061Z" stroke="black" stroke-linecap="round" stroke-linejoin="round"/>
</g>
<path fill-rule="evenodd" clip-rule="evenodd" d="M709.118 72.044C708.774 72.044 708.397 72.1635 708.103 72.4263C707.857 72.6469 707.662 72.9539 707.456 73.3528C707.208 73.4024 706.949 73.509 706.779 73.7057L706.76 73.7041C706.681 73.6973 706.608 73.691 706.529 73.691C706.121 73.691 705.733 73.7977 705.426 74.0293C705.119 74.2609 704.904 74.6101 704.765 74.9999V75.0146C703.886 77.8565 702.801 79.6083 701.809 80.7352C700.857 81.816 700.013 82.3032 699.426 82.6322H699.382L699.25 82.7204C699.169 82.7738 699.083 82.805 698.941 82.8528L698.882 82.8675L698.838 82.8969C698.752 82.9551 698.692 82.9893 698.643 83.0175L698.643 83.0175C698.618 83.032 698.595 83.0449 698.574 83.0587L698.561 83.0661C698.53 83.0846 698.49 83.1084 698.426 83.1763C698.355 83.2535 698.294 83.4392 698.294 83.5293C698.294 83.669 698.362 83.8179 698.441 83.9116C698.52 84.0054 698.601 84.0513 698.676 84.0881C698.827 84.1598 698.963 84.1874 699.103 84.2057C699.343 84.2373 699.598 84.2363 699.83 84.2354H699.83L699.941 84.2352C701.463 84.2352 703.564 83.8142 705.5 82.6175C707.432 81.4245 709.18 79.4374 709.941 76.3675C709.941 76.3664 709.941 76.3648 709.94 76.363C709.94 76.3589 709.939 76.3541 709.941 76.3528C710.074 75.8675 710.097 75.3951 709.941 74.9851C709.783 74.5697 709.439 74.2407 709.015 74.0587H709L708.985 74.044C708.91 74.0182 708.798 73.9943 708.676 73.9704C708.61 73.8234 708.518 73.6837 708.397 73.5734C708.528 73.3601 708.643 73.2131 708.735 73.1322C708.875 73.0072 708.945 72.9851 709.118 72.9851C709.287 72.987 709.445 72.8988 709.531 72.7517C709.616 72.6046 709.616 72.4245 709.531 72.2774C709.445 72.1304 709.287 72.0421 709.118 72.044ZM706.529 74.6322C706.759 74.6322 706.952 74.7002 707 74.7351C707.016 74.7529 707.028 74.7769 707.039 74.7999C707.054 74.8294 707.068 74.8572 707.088 74.8675C707.179 74.9138 707.237 74.9125 707.27 74.9118L707.279 74.9116C707.288 74.9142 707.295 74.9189 707.304 74.9245C707.333 74.9426 707.377 74.9704 707.515 74.9704L707.533 74.9705C707.674 74.9706 707.868 74.9708 708.088 74.8969C708.169 74.8693 708.182 74.8675 708.324 74.8675C708.474 74.8675 708.538 74.8893 708.645 74.9258L708.647 74.9263C708.65 74.9272 708.652 74.9305 708.654 74.9337C708.657 74.9369 708.659 74.9401 708.662 74.941C708.879 75.0403 708.994 75.1561 709.059 75.3234C709.125 75.4962 709.143 75.7462 709.044 76.1028V76.1175C708.344 78.9649 706.757 80.737 705 81.8234C703.34 82.8491 701.54 83.2241 700.206 83.2646C700.813 82.9079 701.614 82.3896 702.515 81.3675C703.603 80.1322 704.752 78.2462 705.662 75.3087C705.663 75.3059 705.662 75.3036 705.662 75.3013C705.661 75.299 705.661 75.2967 705.662 75.294C705.757 75.0348 705.875 74.8896 706 74.794C706.129 74.6965 706.278 74.6322 706.529 74.6322ZM705.912 83.9999C707.088 83.0109 708.835 82.3528 710.765 82.3528C714.294 82.3528 717.118 84.4704 717.118 87.0587V90.3528C717.118 92.9888 714.388 94.4447 710.765 95.1028C710.758 95.1028 710.694 95.1108 710.582 95.1246L710.581 95.1247L710.581 95.1248C709.831 95.2177 706.959 95.5734 705.118 95.5734C703.277 95.5734 700.405 95.2177 699.654 95.1248L699.654 95.1247L699.653 95.1246L699.652 95.1245L699.652 95.1245C699.541 95.1107 699.477 95.1028 699.471 95.1028C696.882 94.68 695 93.6432 695 91.8087V88.5146V88.4704C695 86.6818 697.024 85.1763 699.471 85.1763C699.821 85.1763 700.153 85.2665 700.526 85.368C701.006 85.4982 701.553 85.6469 702.294 85.6469C704.035 85.6469 705.724 84.2351 705.912 83.9999ZM710.765 83.294C713.73 83.294 716.176 84.9888 716.176 87.0587C716.176 87.2113 716.158 87.3583 716.132 87.4999V87.5146C716.107 87.6506 716.077 87.7848 716.029 87.9116C716.029 87.9125 716.029 87.9136 716.029 87.9147C716.029 87.9161 716.029 87.9175 716.029 87.919C716.03 87.9217 716.03 87.9245 716.029 87.9263C715.93 88.1837 715.779 88.4153 715.603 88.6322C715.602 88.634 715.602 88.6368 715.603 88.6396L715.603 88.6409C715.603 88.6421 715.603 88.6433 715.603 88.6443L715.603 88.6453C715.603 88.6459 715.603 88.6464 715.603 88.6469C715.347 88.9594 715.017 89.2333 714.647 89.4704L714.632 89.4557L708.735 83.5734C709.368 83.3914 710.053 83.294 710.765 83.294ZM713.765 89.9263L707.779 83.941C707.336 84.1506 706.923 84.4043 706.574 84.7057C706.454 84.8252 706.276 84.9815 706.059 85.1469L711.618 90.5734C711.634 90.5863 711.649 90.601 711.662 90.6175C712.351 90.4594 713.083 90.2352 713.765 89.9263ZM705.25 85.6763L710.529 90.8381C710.246 90.873 709.101 91.0109 707.779 91.1322C707.757 91.1046 707.733 91.0807 707.706 91.0587L703.147 86.4999C703.932 86.3528 704.653 86.0256 705.25 85.6763ZM700.265 86.2646C699.936 86.1708 699.706 86.1175 699.471 86.1175C699.182 86.1175 698.903 86.1451 698.632 86.191L703.618 91.191C703.634 91.2039 703.649 91.2186 703.662 91.2351C704.178 91.2682 704.676 91.294 705.118 91.294C705.542 91.294 706.044 91.2682 706.559 91.2351L701.912 86.5881L701.897 86.5734C701.241 86.5274 700.697 86.3822 700.265 86.2646ZM697.618 86.4851L697.632 86.4999L702.191 91.1175C701.124 91.0147 700.178 90.8941 699.796 90.8454C699.687 90.8314 699.624 90.8234 699.618 90.8234C699.107 90.7535 698.458 90.6285 697.853 90.4116C697.653 90.3381 697.45 90.2535 697.265 90.1616L697.234 90.146C697.159 90.1078 697.088 90.0714 697.015 90.0293C697.012 90.0274 697.01 90.0247 697.007 90.0219C697.005 90.0192 697.003 90.0164 697 90.0146L696.982 90.0041C696.908 89.96 696.835 89.9169 696.765 89.8675C696.762 89.8657 696.76 89.8629 696.757 89.8602C696.755 89.8574 696.753 89.8546 696.75 89.8528C696.599 89.7443 696.452 89.6304 696.338 89.4999C696.334 89.496 696.333 89.4908 696.331 89.4853C696.329 89.4802 696.327 89.4749 696.324 89.4704C696.086 89.191 695.941 88.8583 695.941 88.4704C695.941 87.6451 696.616 86.9061 697.618 86.4851ZM716.176 90.3528V89.4116C715.82 89.8013 715.379 90.1414 714.853 90.441C714.84 90.4485 714.828 90.456 714.815 90.4634C714.77 90.4908 714.724 90.518 714.676 90.544C714.657 90.5541 714.637 90.5637 714.618 90.5734C714.598 90.583 714.578 90.5927 714.559 90.6028C714.186 90.7977 713.787 90.9741 713.338 91.1322C713.329 91.1359 713.319 91.1377 713.309 91.1396C713.299 91.1414 713.289 91.1432 713.279 91.1469C712.8 91.3142 712.281 91.4631 711.721 91.5881C711.66 91.6019 711.599 91.6135 711.538 91.6252C711.501 91.6322 711.464 91.6393 711.426 91.6469C711.407 91.6506 711.387 91.6524 711.368 91.6543C711.348 91.6561 711.328 91.6579 711.309 91.6616C711.127 91.6984 710.95 91.7333 710.765 91.7646C710.759 91.7646 710.696 91.7724 710.588 91.7861C709.955 91.8659 707.751 92.1436 705.971 92.2204C705.959 92.2214 705.946 92.2209 705.934 92.2204C705.921 92.22 705.909 92.2195 705.897 92.2204C705.627 92.2315 705.36 92.2352 705.118 92.2352C704.862 92.2352 704.581 92.2333 704.294 92.2204H704.265C704.071 92.2118 703.876 92.1974 703.678 92.1828C703.58 92.1756 703.482 92.1683 703.382 92.1616H703.353C701.801 92.0521 700.183 91.8519 699.651 91.7861C699.54 91.7724 699.477 91.7646 699.471 91.7646C697.682 91.4815 696.599 90.9613 695.941 90.3969V91.7646C695.941 93.3179 698.254 93.93 699.618 94.1175C699.624 94.1175 699.688 94.1257 699.8 94.1399C700.535 94.2335 703.321 94.5881 705.118 94.5881C706.933 94.5881 710.011 94.195 710.566 94.124C710.587 94.1214 710.604 94.1192 710.618 94.1175C712.688 93.7885 716.176 92.7995 716.176 90.3528Z" fill="black"/>
<g clip-path="url(#clip4_1756_2197)">
<path fill-rule="evenodd" clip-rule="evenodd" d="M236.603 226.471C236.621 226.465 236.642 226.46 236.662 226.456C236.796 226.443 236.93 226.489 237.029 226.583C237.127 226.675 237.182 226.805 237.176 226.941C237.176 228.037 237.654 229.155 238.412 230.221C238.428 230.173 238.447 230.123 238.471 230.074C238.708 229.575 239.081 229.053 239.603 228.632C240.125 228.211 240.811 227.912 241.618 227.897C242.425 227.882 243.353 228.145 244.353 228.809C246.871 230.48 248.403 232.485 249.441 234.191C249.849 234.86 250.18 235.482 250.465 236.018C250.544 236.166 250.619 236.307 250.691 236.441C251.026 237.061 251.316 237.522 251.515 237.706C251.627 237.813 251.68 237.967 251.656 238.12C251.632 238.272 251.535 238.403 251.397 238.471C247.206 240.373 243.449 240.362 240.721 239.368C237.993 238.373 236.235 236.388 236.235 234.324C236.235 232.868 236.812 231.98 237.397 231.5C237.585 231.346 237.765 231.246 237.926 231.162C236.919 229.879 236.235 228.458 236.235 226.941C236.23 226.717 236.384 226.52 236.603 226.471ZM243.838 229.588C242.956 229.004 242.239 228.8 241.647 228.809C241.055 228.818 240.581 229.053 240.191 229.368C239.801 229.682 239.507 230.099 239.324 230.485C239.193 230.759 239.154 230.984 239.132 231.132C239.529 231.585 239.971 232.02 240.441 232.441C242.301 234.107 244.568 235.487 246.103 236.324C246.272 236.39 246.39 236.546 246.403 236.728C246.415 236.91 246.324 237.083 246.165 237.173C246.005 237.261 245.811 237.252 245.662 237.147C244.09 236.291 241.759 234.879 239.809 233.132C239.369 232.739 238.95 232.325 238.559 231.897L238.549 231.902C238.543 231.905 238.538 231.908 238.529 231.912C238.382 231.971 238.182 232.061 237.985 232.221C237.594 232.542 237.176 233.098 237.176 234.324C237.176 235.835 238.574 237.585 241.044 238.485C243.406 239.346 246.71 239.373 250.485 237.794C250.428 237.713 250.371 237.635 250.312 237.556L250.312 237.556C250.166 237.358 250.016 237.156 249.868 236.882C249.808 236.773 249.747 236.66 249.685 236.543L249.685 236.543C249.385 235.986 249.044 235.353 248.632 234.677C247.636 233.041 246.215 231.166 243.838 229.588ZM251.279 234.794C251.051 234.818 250.873 235.004 250.858 235.232C250.844 235.461 250.996 235.669 251.221 235.721C252.483 236.042 253.491 236.447 254.147 236.868C254.803 237.289 255.059 237.691 255.059 238C255.059 238.278 254.871 238.612 254.368 238.985C253.864 239.359 253.077 239.734 252.088 240.044C250.112 240.666 247.325 241.059 244.235 241.059C241.145 241.059 238.358 240.666 236.382 240.044C235.393 239.734 234.607 239.359 234.103 238.985C233.599 238.612 233.412 238.278 233.412 238C233.412 237.776 233.537 237.502 233.882 237.191C234.228 236.881 234.774 236.557 235.471 236.265C235.643 236.213 235.77 236.07 235.801 235.893C235.831 235.717 235.759 235.539 235.614 235.432C235.469 235.327 235.276 235.314 235.118 235.397C234.357 235.717 233.715 236.081 233.25 236.5C232.785 236.919 232.471 237.425 232.471 238C232.471 238.014 232.47 238.027 232.47 238.04C232.469 238.066 232.468 238.091 232.471 238.118C232.465 238.156 232.465 238.197 232.471 238.235C232.471 240.96 233.434 243.234 234.441 244.868C235.382 246.394 236.401 247.393 236.662 247.648C236.681 247.666 236.695 247.681 236.706 247.691C237.733 248.719 240.182 250 244.235 250C248.276 250 250.601 248.734 251.735 247.706H251.75C252.009 247.476 253.046 246.495 254.044 244.868C255.046 243.234 256 240.958 256 238.235C255.998 238.206 255.993 238.177 255.985 238.147C255.987 238.132 255.989 238.118 255.991 238.104C255.995 238.07 256 238.036 256 238C256 237.226 255.452 236.581 254.662 236.074C253.871 235.566 252.781 235.147 251.456 234.809C251.414 234.798 251.368 234.792 251.324 234.794H251.279ZM233.537 239.743C233.534 239.74 233.532 239.737 233.529 239.735C233.796 241.577 234.502 243.156 235.25 244.368C236.144 245.817 237.05 246.714 237.327 246.989C237.342 247.004 237.356 247.018 237.368 247.03C238.127 247.789 240.382 249.059 244.235 249.059C248.092 249.059 250.178 247.868 251.118 247.015C251.289 246.864 252.296 245.897 253.235 244.368C253.978 243.156 254.678 241.577 254.941 239.735C254.936 239.739 254.932 239.746 254.926 239.75C254.29 240.221 253.421 240.61 252.368 240.941C250.261 241.603 247.404 242 244.235 242C241.066 242 238.21 241.603 236.103 240.941C235.05 240.61 234.18 240.221 233.544 239.75C233.541 239.748 233.539 239.746 233.537 239.743Z" fill="black"/>
</g>
<path d="M405.279 89.3069L403.717 94.7749C403.594 95.2042 403.202 95.5001 402.755 95.4999H393.245C392.798 95.5001 392.406 95.2042 392.283 94.7749L390.721 89.3069" stroke="black" stroke-linecap="round" stroke-linejoin="round"/>
<path d="M396 95.5L395 88" stroke="black" stroke-linecap="round" stroke-linejoin="round"/>
<path d="M400 95.5L401 88" stroke="black" stroke-linecap="round" stroke-linejoin="round"/>
<path d="M402.905 80.4769C405.56 81.5999 407.51 83.5929 407.51 85.9999C407.556 86.9415 407.202 87.8587 406.535 88.5253C405.869 89.1919 404.952 89.5459 404.01 89.4999C402.826 89.504 401.71 88.9477 401 87.9999C400.304 88.9635 399.188 89.5343 398 89.5343C396.812 89.5343 395.696 88.9635 395 87.9999C394.292 88.9508 393.175 89.5101 391.99 89.5079C391.047 89.5541 390.128 89.1991 389.461 88.5306C388.795 87.8622 388.442 86.9429 388.49 85.9999C388.49 83.5889 390.44 81.5909 393.09 80.4729" stroke="black" stroke-linecap="round" stroke-linejoin="round"/>
<path fill-rule="evenodd" clip-rule="evenodd" d="M397.99 81.5C399.647 81.5 400.99 80.1569 400.99 78.5C400.99 76.8431 399.647 75.5 397.99 75.5C396.333 75.5 394.99 76.8431 394.99 78.5C394.99 80.1569 396.333 81.5 397.99 81.5Z" stroke="black" stroke-linecap="round" stroke-linejoin="round"/>
<path d="M397.99 75.5C397.99 73.8431 399.333 72.5 400.99 72.5" stroke="black" stroke-linecap="round" stroke-linejoin="round"/>
<g clip-path="url(#clip5_1756_2197)">
<path fill-rule="evenodd" clip-rule="evenodd" d="M80.795 72.3C80.855 72.1444 80.9919 72.03 81.155 72H81.2H81.245H97.955C98.1519 71.9981 98.3319 72.1163 98.405 72.3C98.915 73.5956 99.2 75.0281 99.2 76.53C99.2 76.9725 99.1737 77.4056 99.125 77.835V77.88C98.6712 81.8119 96.2619 85.0969 92.99 86.46C92.9619 86.4788 92.9319 86.4938 92.9 86.505C92.5437 86.6438 92.0487 86.8838 91.67 87.21C91.2913 87.5363 91.04 87.9113 91.04 88.395V91.98C91.04 92.1656 91.235 92.4469 91.7 92.76C92.165 93.0731 92.8288 93.3825 93.47 93.66C93.5905 93.7122 93.7103 93.7632 93.8283 93.8135L93.8284 93.8135L93.8284 93.8135C94.3385 94.0308 94.8161 94.2343 95.18 94.455L95.215 94.476C95.4263 94.6022 95.6185 94.717 95.75 94.98C95.8194 95.1188 95.8494 95.3288 95.795 95.505C95.7406 95.6813 95.6263 95.8031 95.51 95.895C95.4256 95.9625 95.3188 96 95.21 96H83.99C83.8813 96 83.7744 95.9625 83.69 95.895C83.5756 95.8013 83.4575 95.6644 83.405 95.49C83.3525 95.3156 83.3825 95.1188 83.45 94.98C83.5849 94.7046 83.7891 94.5804 84.0104 94.4458L84.02 94.44C84.3934 94.2129 84.8831 94.0051 85.4053 93.7834L85.4054 93.7834L85.4056 93.7833C85.5126 93.7379 85.621 93.6919 85.73 93.645C86.3713 93.3694 87.035 93.0713 87.5 92.76C87.965 92.4488 88.16 92.1656 88.16 91.98V88.395C88.16 87.9094 87.9125 87.5381 87.53 87.21C87.1475 86.8819 86.6394 86.6438 86.285 86.505C86.2362 86.4881 86.1913 86.4619 86.15 86.43C82.5406 84.8963 80 81.0263 80 76.53C80 75.0281 80.285 73.5956 80.795 72.3ZM97.595 72.96H81.605C81.2056 74.0681 80.96 75.2625 80.96 76.53C80.96 76.7944 80.9713 77.0513 80.99 77.31H98.21C98.2288 77.0513 98.24 76.7944 98.24 76.53C98.24 75.2625 97.9944 74.0681 97.595 72.96ZM98.09 78.27C97.3531 82.785 93.8206 86.175 89.6 86.175C85.3794 86.175 81.8469 82.785 81.11 78.27H98.09ZM90.08 88.395C90.08 87.8794 90.2581 87.4425 90.515 87.075C90.215 87.1069 89.9075 87.135 89.6 87.135C89.2981 87.135 88.9944 87.12 88.7 87.09C88.9494 87.4556 89.12 87.8906 89.12 88.395V91.98C89.12 92.6813 88.5969 93.1725 88.025 93.555C87.4531 93.9375 86.7575 94.2506 86.105 94.53C85.6629 94.7192 85.3462 94.8714 85.0246 95.0258L84.995 95.04H94.205C93.8731 94.8806 93.5506 94.7269 93.095 94.53C92.4425 94.2488 91.7319 93.9394 91.16 93.555C90.5881 93.1706 90.08 92.6813 90.08 91.98V88.395Z" fill="black"/>
</g>
<g clip-path="url(#clip6_1756_2197)">
<path d="M703.12 226V228.88L704.08 229.84V226.96H711.28V232.72H717.04V245.2H709.84V246.16H718V232.045L711.955 226H703.12ZM712.24 227.635L716.365 231.76H712.24V227.635ZM694 229.84V250H708.88V235.885L708.745 235.735L702.985 229.975L702.835 229.84H694ZM694.96 230.8H702.16V236.56H707.92V249.04H694.96V230.8ZM703.12 231.49L707.23 235.6H703.12V231.49Z" fill="#0F0F0F"/>
</g>
<g clip-path="url(#clip7_1756_2197)">
<g clip-path="url(#clip8_1756_2197)">
<path d="M255.4 81.24C255.04 80.86 254.53 80.55 253.94 80.29C253.8 80.23 253.65 80.19 253.5 80.13V73C253.5 72.45 253.05 72 252.5 72H237.5C236.95 72 236.5 72.45 236.5 73V74.5H235.75C235.45 74.5 235.15 74.62 234.94 74.84C234.72 75.05 234.6 75.34 234.6 75.65V77.6V78.02C234.6 78.16 234.56 78.29 234.5 78.41L233.11 80.9C232.38 82.05 232 83.39 232 84.75V92.84C232 93.24 232.13 93.63 232.38 93.95C232.63 94.27 232.98 94.49 233.37 94.59H233.38C235.8 95.14 238.32 95.14 240.74 94.59H240.75C241.1 94.5 241.42 94.29 241.67 94H243.38C243.45 94.1 243.53 94.19 243.62 94.28C243.98 94.65 244.48 94.96 245.06 95.21C246.22 95.71 247.79 96.01 249.5 96.01C251.21 96.01 252.78 95.71 253.94 95.21C254.52 94.96 255.02 94.65 255.38 94.28C255.74 93.91 256 93.45 256 92.92V82.58C256 82.08 255.77 81.62 255.4 81.24ZM235.6 75.65C235.6 75.61 235.62 75.57 235.64 75.54C235.66 75.51 235.71 75.5 235.75 75.5H236.5H237.5H238.35C238.39 75.5 238.43 75.52 238.46 75.54C238.49 75.56 238.5 75.61 238.5 75.65V77.1H237.5H236.5H235.6V75.65ZM241.1 92.84C241.1 92.9 241.09 92.95 241.08 93C241.06 93.12 241.02 93.24 240.94 93.33C240.83 93.47 240.68 93.57 240.51 93.61C239.49 93.84 238.45 93.95 237.41 93.98C236.13 94.01 234.86 93.9 233.6 93.61C233.43 93.57 233.28 93.47 233.17 93.33C233.06 93.19 233 93.02 233 92.84V84.75C233 83.57 233.33 82.42 233.96 81.42C233.96 81.41 233.97 81.41 233.97 81.4L235.37 78.9C235.51 78.65 235.58 78.38 235.59 78.1H236.5H237.5H238.51C238.52 78.38 238.59 78.66 238.73 78.9L240.12 81.39C240.12 81.4 240.13 81.41 240.13 81.41C240.76 82.41 241.09 83.56 241.09 84.74V92.84H241.1ZM243.6 81.24C243.24 81.62 243 82.07 243 82.58V92.91C243 92.94 243.01 92.96 243.01 92.99H242.07C242.07 92.93 242.1 92.88 242.1 92.83V84.74C242.1 83.38 241.72 82.04 240.99 80.89L239.6 78.41C239.54 78.29 239.5 78.16 239.5 78.02V75.65C239.5 75.34 239.38 75.05 239.16 74.84C238.95 74.62 238.66 74.5 238.35 74.5H237.5V73H252.5V79.85C252.3 79.8 252.1 79.75 251.88 79.71C251.12 79.58 250.31 79.51 249.5 79.51C248.69 79.51 247.87 79.58 247.12 79.71C246.36 79.84 245.66 80.04 245.06 80.3C244.47 80.55 243.96 80.87 243.6 81.24ZM255.03 92.92C255.03 93.1 254.95 93.32 254.7 93.57C254.45 93.82 254.07 94.07 253.56 94.29C252.55 94.72 251.11 95 249.5 95C247.89 95 246.45 94.72 245.43 94.28C245.22 94.19 245.05 94.09 244.89 94C244.65 93.86 244.44 93.71 244.3 93.57C244.09 93.36 244 93.17 243.98 93C243.98 92.97 243.97 92.94 243.97 92.92V84.26C244.03 84.31 244.1 84.34 244.17 84.39C244.22 84.43 244.28 84.46 244.34 84.5C244.56 84.64 244.8 84.77 245.07 84.88C245.08 84.88 245.08 84.88 245.09 84.89C245.38 85.01 245.7 85.13 246.03 85.22C246.12 85.25 246.22 85.26 246.31 85.29C246.57 85.36 246.83 85.42 247.11 85.47C247.24 85.49 247.38 85.5 247.51 85.52C247.77 85.56 248.02 85.6 248.28 85.62C248.68 85.65 249.09 85.67 249.51 85.67C249.93 85.67 250.34 85.65 250.74 85.62C251 85.6 251.26 85.56 251.51 85.52C251.64 85.5 251.78 85.49 251.91 85.47C252.12 85.43 252.31 85.38 252.51 85.33C252.58 85.31 252.64 85.3 252.71 85.28C252.8 85.26 252.9 85.24 252.99 85.21C253.17 85.16 253.34 85.09 253.51 85.03C253.65 84.98 253.8 84.94 253.93 84.88C253.94 84.88 253.94 84.88 253.95 84.87C254.21 84.76 254.45 84.63 254.68 84.49C254.74 84.45 254.79 84.42 254.85 84.38C254.91 84.34 254.99 84.3 255.05 84.25V92.92H255.03ZM255.01 82.72C255 82.76 254.98 82.81 254.96 82.86V82.87C254.91 82.98 254.83 83.1 254.7 83.23C254.61 83.32 254.48 83.42 254.34 83.51C254.3 83.54 254.28 83.57 254.23 83.59C254.04 83.71 253.82 83.83 253.56 83.94C253.54 83.95 253.51 83.96 253.49 83.96C253.25 84.06 252.99 84.15 252.71 84.24C252.65 84.26 252.59 84.27 252.53 84.28C252.52 84.28 252.51 84.29 252.5 84.29C252.25 84.35 252 84.42 251.73 84.47H251.72C251.62 84.49 251.51 84.5 251.4 84.51C251.15 84.55 250.91 84.59 250.65 84.61C250.27 84.64 249.89 84.66 249.5 84.66C249.11 84.66 248.73 84.64 248.35 84.61C248.09 84.59 247.84 84.55 247.6 84.51C247.49 84.49 247.38 84.49 247.28 84.47H247.27C246.99 84.42 246.72 84.35 246.47 84.29C246.41 84.27 246.34 84.26 246.29 84.25C245.98 84.16 245.7 84.06 245.44 83.95C245.18 83.84 244.96 83.72 244.77 83.6C244.73 83.57 244.7 83.54 244.66 83.52C244.53 83.43 244.4 83.33 244.3 83.24C244.17 83.11 244.09 82.99 244.04 82.88C244.04 82.87 244.04 82.87 244.03 82.86C244.01 82.81 243.99 82.77 243.98 82.73C243.97 82.68 243.96 82.63 243.96 82.59C243.96 82.42 244.04 82.2 244.28 81.95C244.52 81.7 244.9 81.45 245.43 81.22C245.95 81 246.58 80.82 247.28 80.69C247.98 80.57 248.74 80.5 249.5 80.5C250.26 80.5 251.02 80.56 251.72 80.69C252 80.74 252.25 80.8 252.5 80.87C252.86 80.96 253.2 81.07 253.5 81.2C253.52 81.21 253.55 81.21 253.57 81.22C254.09 81.44 254.47 81.7 254.72 81.95C254.96 82.2 255.04 82.42 255.04 82.59C255.03 82.63 255.02 82.67 255.01 82.72Z" fill="black"/>
</g>
</g>
<path fill-rule="evenodd" clip-rule="evenodd" d="M389.515 229.515C391.765 227.264 394.817 226 398 226C401.183 226 404.235 227.264 406.485 229.515C408.736 231.765 410 234.817 410 238C410 241.183 408.736 244.235 406.485 246.485C404.235 248.736 401.183 250 398 250C394.817 250 391.765 248.736 389.515 246.485C387.264 244.235 386 241.183 386 238C386 234.817 387.264 231.765 389.515 229.515ZM398 226.96C395.072 226.96 392.264 228.123 390.194 230.194C388.123 232.264 386.96 235.072 386.96 238C386.96 240.928 388.123 243.736 390.194 245.806C392.264 247.877 395.072 249.04 398 249.04C400.928 249.04 403.736 247.877 405.806 245.806C407.877 243.736 409.04 240.928 409.04 238C409.04 235.072 407.877 232.264 405.806 230.194C403.736 228.123 400.928 226.96 398 226.96Z" fill="black"/>
<path fill-rule="evenodd" clip-rule="evenodd" d="M390.608 235.693C390.608 235.428 390.823 235.213 391.088 235.213H401.072C402.218 235.213 403.316 235.668 404.127 236.478C404.937 237.288 405.392 238.387 405.392 239.533C405.392 240.679 404.937 241.777 404.127 242.588C403.316 243.398 402.218 243.853 401.072 243.853C400.807 243.853 400.592 243.638 400.592 243.373C400.592 243.108 400.807 242.893 401.072 242.893C401.963 242.893 402.818 242.539 403.448 241.909C404.078 241.279 404.432 240.424 404.432 239.533C404.432 238.642 404.078 237.787 403.448 237.157C402.818 236.527 401.963 236.173 401.072 236.173H391.088C390.823 236.173 390.608 235.958 390.608 235.693Z" fill="black"/>
<path fill-rule="evenodd" clip-rule="evenodd" d="M394.499 232.285C394.687 232.472 394.687 232.776 394.499 232.963L391.767 235.696L394.499 238.429C394.687 238.616 394.687 238.92 394.499 239.107C394.312 239.295 394.008 239.295 393.82 239.107L390.748 236.035C390.561 235.848 390.561 235.544 390.748 235.357L393.82 232.285C394.008 232.097 394.312 232.097 394.499 232.285Z" fill="black"/>
</g>
<defs>
<clipPath id="clip0_1756_2197">
<rect width="796" height="475" rx="5" fill="white"/>
</clipPath>
<clipPath id="clip1_1756_2197">
<rect width="24" height="24" fill="white" transform="translate(78 380)"/>
</clipPath>
<clipPath id="clip2_1756_2197">
<rect width="24" height="24" fill="white" transform="translate(540 226)"/>
</clipPath>
<clipPath id="clip3_1756_2197">
<rect width="24" height="24" fill="white" transform="translate(540 72)"/>
</clipPath>
<clipPath id="clip4_1756_2197">
<rect width="24" height="24" fill="white" transform="translate(232 226)"/>
</clipPath>
<clipPath id="clip5_1756_2197">
<rect width="24" height="24" fill="white" transform="translate(78 72)"/>
</clipPath>
<clipPath id="clip6_1756_2197">
<rect width="24" height="24" fill="white" transform="translate(694 226)"/>
</clipPath>
<clipPath id="clip7_1756_2197">
<rect width="24" height="24" fill="white" transform="translate(232 72)"/>
</clipPath>
<clipPath id="clip8_1756_2197">
<rect width="24" height="24" fill="white" transform="translate(232 72)"/>
</clipPath>
</defs>
</svg>
