<svg width="796" height="280" viewBox="0 0 796 280" fill="none" xmlns="http://www.w3.org/2000/svg">
<g clip-path="url(#clip0_1756_2629)">
<rect width="796" height="280" rx="5" fill="#FAFAFA"/>
<rect width="866" height="216" transform="translate(-35 32)" fill="#FAFAFA"/>
<g clip-path="url(#clip1_1756_2629)">
<path fill-rule="evenodd" clip-rule="evenodd" d="M89.9436 129.129C90.0249 129.066 90.1239 129.03 90.2267 129.027C90.342 129.022 90.4551 129.058 90.5462 129.129L95.1429 132.716V131.449H98.0816V135.01L101.812 137.92C101.95 138.027 102.02 138.2 101.996 138.374C101.971 138.547 101.857 138.695 101.694 138.76C101.532 138.826 101.347 138.8 101.209 138.693L100.531 138.164V151.041C100.531 151.311 100.311 151.531 100.041 151.531H93.2612C93.2083 151.539 93.1543 151.539 93.1014 151.531H87.3836C87.3307 151.539 87.2768 151.539 87.2239 151.531H80.449C80.1785 151.531 79.9592 151.311 79.9592 151.041V138.164L79.2809 138.693C79.0675 138.859 78.7595 138.821 78.5931 138.607C78.4267 138.394 78.4648 138.086 78.6783 137.92L89.9436 129.129ZM99.551 137.399L90.2449 130.137L80.9388 137.399V150.551H86.8163V141.245H93.6735V150.551H99.551V137.399ZM96.1225 132.429H97.102V134.245L96.1225 133.48V132.429ZM92.6939 150.551V142.224H87.7959V150.551H92.6939Z" fill="black"/>
</g>
<g clip-path="url(#clip2_1756_2629)">
<path fill-rule="evenodd" clip-rule="evenodd" d="M232 129.487C231.994 129.256 232.158 129.054 232.39 129.003C232.427 128.999 232.462 128.999 232.499 129.003H248.332C248.606 129.003 248.83 129.22 248.83 129.487V146.764C248.83 148.471 249.642 149.196 250.482 149.608C251.322 150.02 252.165 150.032 252.165 150.032C252.165 150.032 252.874 150.034 253.583 149.638C254.292 149.243 255.001 148.517 255.001 146.794V134.646H255.017C255.017 134.633 254.984 134.275 254.799 133.92C254.61 133.558 254.347 133.239 253.583 133.239C252.818 133.239 252.555 133.551 252.368 133.905C252.185 134.252 252.165 134.602 252.165 134.616V146.355C252.167 146.529 252.073 146.692 251.918 146.781C251.762 146.868 251.571 146.868 251.415 146.781C251.259 146.692 251.166 146.529 251.168 146.355V134.616C251.168 134.616 251.175 134.043 251.479 133.466C251.524 133.383 251.575 133.307 251.635 133.224H248.861V132.255H253.583V132.271C254.691 132.271 255.399 132.898 255.702 133.481C256.006 134.063 255.999 134.631 255.999 134.631V134.646V146.794C256 146.819 256 146.845 255.999 146.87V146.9C255.995 146.909 255.989 146.921 255.983 146.93C255.938 148.844 255.017 149.948 254.082 150.47C253.123 151.006 252.165 151 252.165 151C252.165 151 251.906 150.981 251.666 150.954V151H236.332C236.332 151 235.263 151.023 234.182 150.501C233.101 149.979 232 148.819 232 146.764V129.487ZM247.833 130.015H232.998V146.757C232.998 148.275 233.609 149.023 234.322 149.457C234.423 149.519 234.529 149.572 234.634 149.623C234.842 149.723 235.06 149.793 235.257 149.849C235.454 149.906 235.629 149.945 235.787 149.97C236.103 150.017 236.317 150.015 236.317 150.015H236.332H249.344C248.528 149.384 247.833 148.345 247.833 146.757V130.015ZM234.992 133.163C234.718 133.202 234.525 133.461 234.564 133.74C234.603 134.019 234.858 134.214 235.133 134.175H244.966C245.145 134.177 245.312 134.082 245.404 133.924C245.493 133.766 245.493 133.572 245.404 133.414C245.312 133.256 245.145 133.161 244.966 133.163H235.133H235.086H235.039H234.992ZM234.564 135.764C234.525 135.486 234.718 135.227 234.992 135.187H235.039H235.086H235.133H244.966C245.145 135.185 245.312 135.28 245.404 135.438C245.493 135.596 245.493 135.79 245.404 135.948C245.312 136.106 245.145 136.201 244.966 136.199H235.133C234.858 136.239 234.603 136.043 234.564 135.764ZM235.226 139.236C234.951 139.276 234.759 139.535 234.797 139.813C234.836 140.092 235.092 140.288 235.366 140.248H238.748C238.927 140.25 239.095 140.155 239.186 139.997C239.276 139.839 239.276 139.645 239.186 139.487C239.095 139.329 238.927 139.234 238.748 139.236H235.366H235.32H235.273H235.226ZM240.548 139.813C240.509 139.535 240.702 139.276 240.976 139.236H241.023H241.07H241.116H244.966C245.145 139.234 245.312 139.329 245.404 139.487C245.493 139.645 245.493 139.839 245.404 139.997C245.312 140.155 245.145 140.25 244.966 140.248H241.116C240.842 140.288 240.587 140.092 240.548 139.813ZM235.226 141.261C234.951 141.3 234.759 141.559 234.797 141.838C234.836 142.117 235.092 142.312 235.366 142.273H238.748C238.927 142.275 239.095 142.18 239.186 142.022C239.276 141.864 239.276 141.67 239.186 141.512C239.095 141.353 238.927 141.259 238.748 141.261H235.366H235.32H235.273H235.226ZM240.548 141.838C240.509 141.559 240.702 141.3 240.976 141.261H241.023H241.07H241.116H244.966C245.145 141.259 245.312 141.353 245.404 141.512C245.493 141.67 245.493 141.864 245.404 142.022C245.312 142.18 245.145 142.275 244.966 142.273H241.116C240.842 142.312 240.587 142.117 240.548 141.838ZM240.976 143.174C240.702 143.214 240.509 143.473 240.548 143.752C240.587 144.03 240.842 144.226 241.116 144.187H244.966C245.145 144.188 245.312 144.094 245.404 143.935C245.493 143.777 245.493 143.584 245.404 143.425C245.312 143.267 245.145 143.172 244.966 143.174H241.116C241.085 143.17 241.054 143.17 241.023 143.174H240.976ZM234.797 143.862C234.759 143.584 234.951 143.325 235.226 143.285H235.273H235.32H235.366H238.748C238.927 143.283 239.095 143.378 239.186 143.536C239.276 143.694 239.276 143.888 239.186 144.046C239.095 144.204 238.927 144.299 238.748 144.297H235.366C235.092 144.337 234.836 144.141 234.797 143.862ZM240.976 145.199C240.702 145.238 240.509 145.497 240.548 145.776C240.587 146.055 240.842 146.251 241.116 146.211H244.966C245.145 146.213 245.312 146.118 245.404 145.96C245.493 145.802 245.493 145.608 245.404 145.45C245.312 145.292 245.145 145.197 244.966 145.199H241.116C241.085 145.195 241.054 145.195 241.023 145.199H240.976ZM234.797 145.887C234.759 145.608 234.951 145.349 235.226 145.309H235.273H235.32H235.366H238.748C238.927 145.307 239.095 145.402 239.186 145.561C239.276 145.719 239.276 145.912 239.186 146.071C239.095 146.229 238.927 146.324 238.748 146.322H235.366C235.092 146.361 234.836 146.166 234.797 145.887ZM240.976 147.097C240.702 147.136 240.509 147.395 240.548 147.674C240.587 147.953 240.842 148.148 241.116 148.109H244.966C245.145 148.111 245.312 148.016 245.404 147.858C245.493 147.7 245.493 147.506 245.404 147.348C245.312 147.19 245.145 147.095 244.966 147.097H241.116H241.07H241.023H240.976ZM234.797 147.911C234.759 147.632 234.951 147.373 235.226 147.334H235.273H235.32H235.366H238.748C238.927 147.332 239.095 147.427 239.186 147.585C239.276 147.743 239.276 147.937 239.186 148.095C239.095 148.253 238.927 148.348 238.748 148.346H235.366C235.092 148.386 234.836 148.19 234.797 147.911Z" fill="black"/>
</g>
<g clip-path="url(#clip3_1756_2629)">
<path fill-rule="evenodd" clip-rule="evenodd" d="M395.5 144.5C395.5 148.788 400.5 152 405 150L409 151.5L407.5 148.5C408.76 147.556 409.501 146.074 409.5 144.5C409.5 141.346 406.366 138.5 402.5 138.5C398.634 138.5 395.5 141.346 395.5 144.5Z" stroke="black" stroke-linecap="round" stroke-linejoin="round"/>
<path d="M403.4 136.5C403.462 136.17 403.496 135.836 403.5 135.5C403.5 131.634 399.7 128.5 395 128.5C390.3 128.5 386.5 131.634 386.5 135.5C386.541 137.453 387.467 139.281 389.017 140.47L387 144L391.939 142.024C392.449 142.186 392.971 142.307 393.5 142.385" stroke="black" stroke-linecap="round" stroke-linejoin="round"/>
</g>
<path fill-rule="evenodd" clip-rule="evenodd" d="M550.16 129.92C550.16 128.864 551.024 128 552.08 128C553.136 128 554 128.864 554 129.92C554 130.168 553.951 130.408 553.865 130.625C556.561 131.33 558.32 133.674 558.32 136.64C558.32 140.399 559.243 142.111 560.12 143.075C560.503 143.496 560.882 143.772 561.22 144.019L561.221 144.019L561.222 144.02C561.271 144.056 561.318 144.09 561.365 144.125C561.552 144.262 561.723 144.399 561.875 144.575C562.027 144.751 562.16 145.003 562.16 145.28C562.16 145.94 561.755 146.501 561.185 146.87C560.615 147.239 559.867 147.478 558.965 147.665C557.795 147.907 556.351 148.034 554.765 148.1C554.887 148.417 554.96 148.76 554.96 149.12C554.96 150.704 553.664 152 552.08 152C550.496 152 549.2 150.704 549.2 149.12C549.2 148.762 549.275 148.419 549.395 148.1C547.809 148.034 546.365 147.907 545.195 147.665C544.293 147.478 543.545 147.239 542.975 146.87C542.405 146.501 542 145.94 542 145.28C542 145.003 542.133 144.751 542.285 144.575C542.437 144.399 542.608 144.262 542.795 144.125C542.842 144.09 542.89 144.055 542.939 144.019L542.94 144.019C543.278 143.772 543.657 143.496 544.04 143.075C544.918 142.111 545.84 140.399 545.84 136.64C545.84 133.672 547.595 131.326 550.295 130.625C550.209 130.408 550.16 130.168 550.16 129.92ZM553.04 129.92C553.04 129.384 552.616 128.96 552.08 128.96C551.544 128.96 551.12 129.384 551.12 129.92C551.12 130.456 551.544 130.88 552.08 130.88C552.616 130.88 553.04 130.456 553.04 129.92ZM553.205 131.45C555.764 131.906 557.36 133.884 557.36 136.64C557.36 140.561 558.358 142.574 559.4 143.72C559.863 144.228 560.33 144.567 560.671 144.815C560.715 144.846 560.756 144.876 560.795 144.905C560.968 145.032 561.097 145.139 561.155 145.205C561.203 145.26 561.202 145.265 561.201 145.274C561.2 145.276 561.2 145.277 561.2 145.28C561.2 145.58 561.061 145.799 560.66 146.06C560.259 146.321 559.606 146.562 558.77 146.735C557.097 147.082 554.716 147.2 552.08 147.2C549.444 147.2 547.062 147.082 545.39 146.735C544.554 146.562 543.901 146.321 543.5 146.06C543.099 145.799 542.96 145.58 542.96 145.28C542.96 145.277 542.96 145.276 542.959 145.274C542.958 145.265 542.957 145.26 543.005 145.205C543.063 145.139 543.192 145.032 543.365 144.905C543.404 144.876 543.445 144.846 543.488 144.815L543.489 144.815C543.83 144.567 544.297 144.228 544.76 143.72C545.803 142.574 546.8 140.561 546.8 136.64C546.8 133.886 548.398 131.923 550.955 131.465C551.274 131.699 551.658 131.84 552.08 131.84C552.506 131.84 552.886 131.688 553.205 131.45ZM550.876 148.14C550.727 148.137 550.578 148.133 550.43 148.13C550.256 148.419 550.16 148.756 550.16 149.12C550.16 150.187 551.013 151.04 552.08 151.04C553.147 151.04 554 150.187 554 149.12C554 148.76 553.901 148.419 553.73 148.13C553.582 148.133 553.433 148.137 553.284 148.14C552.889 148.15 552.489 148.16 552.08 148.16C551.671 148.16 551.271 148.15 550.876 148.14Z" fill="black"/>
<path fill-rule="evenodd" clip-rule="evenodd" d="M706 140.25C709.038 140.25 711.5 137.788 711.5 134.75C711.5 131.712 709.038 129.25 706 129.25C702.962 129.25 700.5 131.712 700.5 134.75C700.5 137.788 702.962 140.25 706 140.25Z" stroke="black" stroke-linecap="round" stroke-linejoin="round"/>
<path fill-rule="evenodd" clip-rule="evenodd" d="M697 150.75C697 145.779 701.029 141.75 706 141.75C710.971 141.75 715 145.779 715 150.75H697Z" stroke="black" stroke-linecap="round" stroke-linejoin="round"/>
</g>
<defs>
<clipPath id="clip0_1756_2629">
<rect width="796" height="280" rx="5" fill="white"/>
</clipPath>
<clipPath id="clip1_1756_2629">
<rect width="24" height="24" fill="white" transform="translate(78 128)"/>
</clipPath>
<clipPath id="clip2_1756_2629">
<rect width="24" height="24" fill="white" transform="translate(232 128)"/>
</clipPath>
<clipPath id="clip3_1756_2629">
<rect width="24" height="24" fill="white" transform="translate(386 128)"/>
</clipPath>
</defs>
</svg>
