<svg width="796" height="328" viewBox="0 0 796 328" fill="none" xmlns="http://www.w3.org/2000/svg">
<g clip-path="url(#clip0_1756_2887)">
<rect width="796" height="328" rx="5" fill="#FAFAFA"/>
<rect width="866" height="264" transform="translate(-35 32)" fill="#FAFAFA"/>
<path fill-rule="evenodd" clip-rule="evenodd" d="M89.2291 77.091C89.3101 77.03 89.4048 77 89.5 77C89.5952 77 89.6899 77.03 89.7709 77.091L99.8332 84.9044C100.021 85.0524 100.056 85.3259 99.9075 85.5174C99.82 85.6262 99.6936 85.6832 99.5623 85.6832C99.4661 85.6832 99.3746 85.6523 99.2915 85.5913L98.6873 85.1221V96.5647C98.6873 96.8041 98.4905 97 98.2498 97H92.125V89.1653H86.875V97H80.7502C80.5095 97 80.3127 96.8041 80.3127 96.5647V85.1221L79.7085 85.5913C79.516 85.7393 79.2412 85.7045 79.0925 85.5174C78.9437 85.3259 78.9787 85.0524 79.1668 84.9044L89.2291 77.091ZM93.8749 79.1763V78.7189H96.4999V81.2132L93.8749 79.1763Z" fill="black"/>
<path fill-rule="evenodd" clip-rule="evenodd" d="M233 77.4402C233 77.1977 233.205 77 233.457 77H247.943C248.196 77 248.4 77.1977 248.4 77.4402V93.1485C248.4 95.8548 250.463 96.7987 251.886 96.9724C251.683 97.0012 251.532 97.0002 251.493 96.9999L251.486 96.9999H236.957C236.796 96.9999 235.184 96.9724 234.057 95.8995C233.348 95.2255 233 94.2987 233 93.1485V77.4402ZM249.314 93.1485V79.9574H251.829C250.982 80.8428 251.027 82.0705 251.029 82.1032V92.7771C251.029 93.0213 251.232 93.2173 251.486 93.2173C251.739 93.2173 251.943 93.0213 251.943 92.7771V82.0894L251.943 82.0886C251.942 82.0565 251.931 81.1358 252.529 80.5351C252.763 80.2995 253.071 80.1396 253.443 80.0537C254.629 80.3597 254.984 81.479 255 82.1169V82.1307V93.176C255 93.3909 254.993 93.5904 254.971 93.7812C254.657 96.0285 252.618 96.1179 252.371 96.1196C252.246 96.1196 249.314 96.0732 249.314 93.1485ZM235.871 80.6176H244.886C245.139 80.6176 245.343 80.8153 245.343 81.0577C245.343 81.3002 245.139 81.4979 244.886 81.4979H235.871C235.62 81.4979 235.414 81.3002 235.414 81.0577C235.414 80.8153 235.62 80.6176 235.871 80.6176ZM244.886 82.3782H235.871C235.62 82.3782 235.414 82.576 235.414 82.8184C235.414 83.0608 235.62 83.2586 235.871 83.2586H244.886C245.139 83.2586 245.343 83.0608 245.343 82.8184C245.343 82.576 245.139 82.3782 244.886 82.3782ZM236.086 85.8995H239.186C239.438 85.8995 239.643 86.0972 239.643 86.3397C239.643 86.5821 239.438 86.7798 239.186 86.7798H236.086C235.834 86.7798 235.629 86.5821 235.629 86.3397C235.629 86.0972 235.834 85.8995 236.086 85.8995ZM244.886 85.8995H241.357C241.105 85.8995 240.9 86.0972 240.9 86.3397C240.9 86.5821 241.105 86.7798 241.357 86.7798H244.886C245.139 86.7798 245.343 86.5821 245.343 86.3397C245.343 86.0972 245.139 85.8995 244.886 85.8995ZM236.086 87.6602H239.186C239.438 87.6602 239.643 87.8562 239.643 88.1003C239.643 88.3445 239.438 88.5405 239.186 88.5405H236.086C235.834 88.5405 235.629 88.3445 235.629 88.1003C235.629 87.8562 235.834 87.6602 236.086 87.6602ZM244.886 87.6602H241.357C241.105 87.6602 240.9 87.8562 240.9 88.1003C240.9 88.3445 241.105 88.5405 241.357 88.5405H244.886C245.139 88.5405 245.343 88.3445 245.343 88.1003C245.343 87.8562 245.139 87.6602 244.886 87.6602ZM241.357 89.3245H244.886C245.139 89.3245 245.343 89.5206 245.343 89.7647C245.343 90.0089 245.139 90.2049 244.886 90.2049H241.357C241.105 90.2049 240.9 90.0089 240.9 89.7647C240.9 89.5206 241.105 89.3245 241.357 89.3245ZM239.186 89.4209H236.086C235.834 89.4209 235.629 89.6169 235.629 89.861C235.629 90.1052 235.834 90.3012 236.086 90.3012H239.186C239.438 90.3012 239.643 90.1052 239.643 89.861C239.643 89.6169 239.438 89.4209 239.186 89.4209ZM241.357 91.0852H244.886C245.139 91.0852 245.343 91.2812 245.343 91.5254C245.343 91.7695 245.139 91.9655 244.886 91.9655H241.357C241.105 91.9655 240.9 91.7695 240.9 91.5254C240.9 91.2812 241.105 91.0852 241.357 91.0852ZM239.186 91.1815H236.086C235.834 91.1815 235.629 91.3775 235.629 91.6217C235.629 91.8658 235.834 92.0618 236.086 92.0618H239.186C239.438 92.0618 239.643 91.8658 239.643 91.6217C239.643 91.3775 239.438 91.1815 239.186 91.1815ZM241.357 92.7358H244.886C245.139 92.7358 245.343 92.9318 245.343 93.176C245.343 93.4202 245.139 93.6162 244.886 93.6162H241.357C241.105 93.6162 240.9 93.4202 240.9 93.176C240.9 92.9318 241.105 92.7358 241.357 92.7358ZM239.186 92.9421H236.086C235.834 92.9421 235.629 93.1381 235.629 93.3823C235.629 93.6264 235.834 93.8224 236.086 93.8224H239.186C239.438 93.8224 239.643 93.6264 239.643 93.3823C239.643 93.1381 239.438 92.9421 239.186 92.9421Z" fill="black"/>
<path d="M402.119 83.6669C402.558 83.6674 402.997 83.701 403.43 83.7674C403.494 83.7766 403.559 83.7597 403.611 83.7204C403.662 83.6812 403.695 83.6229 403.703 83.5588C403.73 83.3531 403.744 83.146 403.746 82.9387C403.746 79.1138 399.99 76 395.373 76C390.756 76 387 79.1138 387 82.9387C387.025 84.7204 387.806 86.4075 389.149 87.5788L387.522 90.4286C387.421 90.6053 387.443 90.827 387.576 90.9809C387.71 91.1347 387.927 91.1869 388.116 91.1109L392.359 89.4123C392.804 89.5534 393.259 89.6622 393.72 89.7377C393.843 89.7583 393.961 89.6803 393.991 89.5587C394.804 86.2391 398.196 83.6669 402.119 83.6669Z" fill="black"/>
<path d="M402.119 85.1023C398.387 85.1023 395.229 87.8362 395.229 91.0726C395.271 93.0984 396.336 94.9651 398.06 96.0304C399.952 97.2632 402.329 97.4844 404.416 96.6218L407.847 97.9778C408.043 98.0366 408.256 97.9776 408.394 97.8259C408.532 97.6742 408.571 97.4568 408.493 97.2668L407.695 94.4429C408.543 93.5253 409.012 92.3215 409.009 91.0726C409.009 87.8362 405.851 85.1023 402.119 85.1023Z" fill="black"/>
<path fill-rule="evenodd" clip-rule="evenodd" d="M552 76C551.054 76 550.286 76.7889 550.286 77.76C550.286 78.7311 551.054 79.52 552 79.52C552.946 79.52 553.714 78.7311 553.714 77.76C553.714 76.7889 552.946 76 552 76ZM549.589 78.6812C547.631 79.5423 546.429 81.4811 546.429 83.92C546.429 88.7591 544.8 89.9747 543.831 90.6984L543.83 90.6987C543.4 91.0184 543 91.3158 543 91.84C543 93.6911 545.692 94.48 552 94.48C558.308 94.48 561 93.6911 561 91.84C561 91.3158 560.6 91.0184 560.17 90.6987L560.169 90.6984C559.2 89.9747 557.571 88.7591 557.571 83.92C557.571 81.4742 556.371 79.5406 554.411 78.6812C554.044 79.6815 553.1 80.4 552 80.4C550.9 80.4 549.956 79.6798 549.589 78.6812ZM549.429 95.36V95.305C550.235 95.3394 551.093 95.36 552 95.36C552.907 95.36 553.764 95.3394 554.571 95.305V95.36C554.571 96.8158 553.418 98 552 98C550.582 98 549.429 96.8158 549.429 95.36Z" fill="black"/>
<path d="M706 86.7555C708.878 86.7555 711.211 84.3478 711.211 81.3778C711.211 78.4077 708.878 76 706 76C703.122 76 700.79 78.4077 700.79 81.3778C700.79 84.3478 703.122 86.7555 706 86.7555Z" fill="black"/>
<path d="M706 88.2222C701.032 88.2281 697.006 92.3834 697 97.511C697 97.781 697.212 97.9999 697.474 97.9999H714.526C714.788 97.9999 715 97.781 715 97.511C714.994 92.3834 710.968 88.2281 706 88.2222Z" fill="black"/>
<path d="M89.8 230C83.8357 230 79 234.836 79 240.8C79 246.764 83.8357 251.6 89.8 251.6C95.7643 251.6 100.6 246.764 100.6 240.8C100.6 234.836 95.7643 230 89.8 230ZM89.8 247.55C89.0548 247.55 88.45 246.945 88.45 246.2C88.45 245.455 89.0548 244.85 89.8 244.85C90.5452 244.85 91.15 245.455 91.15 246.2C91.15 246.945 90.5452 247.55 89.8 247.55ZM91.6612 241.25C91.0654 241.8 90.7 242.161 90.7 242.6H88.9C88.9 241.35 89.7541 240.561 90.4399 239.927C91.159 239.263 91.6 238.819 91.6 238.1C91.6 237.107 90.7927 236.3 89.8 236.3C88.8073 236.3 88 237.107 88 238.1H86.2C86.2 236.115 87.8146 234.5 89.8 234.5C91.7854 234.5 93.4 236.115 93.4 238.1C93.4 239.643 92.4361 240.534 91.6612 241.25Z" fill="#0F0F0F"/>
<path d="M234 241H254.594" stroke="black" stroke-width="3" stroke-linecap="round"/>
<path d="M234 247.737H254.594" stroke="black" stroke-width="3" stroke-linecap="round"/>
<path d="M234 234.263H254.594" stroke="black" stroke-width="3" stroke-linecap="round"/>
<path d="M399.183 238.353C399.378 238.158 399.694 238.158 399.889 238.353V238.353C400.084 238.548 400.085 238.865 399.89 239.06L397.06 241.889C396.865 242.084 396.549 242.084 396.354 241.889V241.889C396.159 241.694 396.158 241.377 396.353 241.182L399.183 238.353Z" fill="black"/>
<rect width="1" height="5" rx="0.5" transform="matrix(-0.707109 0.707104 -0.707109 -0.707104 400.243 244.364)" fill="black"/>
</g>
<defs>
<clipPath id="clip0_1756_2887">
<rect width="796" height="328" rx="5" fill="white"/>
</clipPath>
</defs>
</svg>
