<svg width="796" height="1164" viewBox="0 0 796 1164" fill="none" xmlns="http://www.w3.org/2000/svg">
<g clip-path="url(#clip0_1755_2442)">
<rect width="796" height="1164" rx="5" fill="#FAFAFA"/>
<rect width="866" height="1100" transform="translate(-35 32)" fill="#FAFAFA"/>
<g clip-path="url(#clip1_1755_2442)">
<path d="M244 305.76C243.86 305.76 243.74 305.71 243.64 305.61C243.51 305.48 240.45 302.27 240.45 298.24C240.6 295.69 241.59 293.25 243.24 291.33C243.61 290.88 244.4 290.88 244.78 291.34C246.42 293.24 247.41 295.69 247.56 298.21C247.56 298.22 247.56 298.23 247.56 298.24C247.56 302.27 244.5 305.48 244.37 305.61C244.26 305.71 244.13 305.76 244 305.76ZM244.01 291.99C242.49 293.74 241.58 295.97 241.45 298.27C241.45 301.1 243.22 303.56 244 304.5C244.78 303.55 246.55 301.09 246.55 298.25C246.42 295.96 245.51 293.73 244.01 291.99Z" fill="black"/>
<path d="M244 305.76C243.78 305.76 243.58 305.62 243.52 305.4C243.44 305.13 243.6 304.86 243.86 304.78C243.9 304.77 247.64 303.67 249.1 300.5C250.28 297.94 249.69 294.76 249.38 293.51C248.38 293.9 247.45 294.43 246.61 295.11C246.4 295.28 246.08 295.25 245.91 295.03C245.74 294.82 245.77 294.5 245.98 294.33C246.9 293.59 247.92 293 249.02 292.58C249.29 292.48 249.59 292.49 249.84 292.63C250.1 292.76 250.28 293 250.35 293.28C250.68 294.63 251.32 298.08 250 300.93C248.34 304.52 244.3 305.71 244.12 305.75C244.09 305.76 244.04 305.76 244 305.76Z" fill="black"/>
<path d="M246.45 306.07C245.02 306.07 243.94 305.77 243.85 305.74C243.58 305.66 243.43 305.39 243.51 305.12C243.59 304.86 243.86 304.71 244.13 304.78C244.17 304.79 247.89 305.83 250.45 303.85C252.61 302.18 253.36 298.79 253.54 297.79C252.49 297.58 251.42 297.55 250.36 297.7C250.09 297.74 249.83 297.55 249.79 297.28C249.77 297 249.96 296.75 250.23 296.71C251.4 296.54 252.59 296.58 253.75 296.81C254.28 296.92 254.63 297.44 254.54 297.97C254.29 299.36 253.45 302.8 251.08 304.64C249.6 305.78 247.86 306.07 246.45 306.07Z" fill="black"/>
<path d="M244 305.76C243.96 305.76 243.91 305.75 243.86 305.74C243.69 305.69 239.64 304.51 237.98 300.92C236.67 298.08 237.3 294.62 237.64 293.27C237.71 292.99 237.89 292.76 238.15 292.62C238.4 292.49 238.7 292.47 238.97 292.58C240.11 293.02 241.17 293.64 242.11 294.42C242.32 294.6 242.35 294.91 242.18 295.12C242 295.33 241.68 295.36 241.47 295.19C240.61 294.47 239.65 293.91 238.61 293.51C238.3 294.76 237.71 297.94 238.89 300.5C240.35 303.67 244.1 304.77 244.14 304.78C244.41 304.86 244.56 305.13 244.48 305.4C244.42 305.62 244.22 305.76 244 305.76Z" fill="black"/>
<path d="M241.54 306.07C240.14 306.07 238.39 305.78 236.93 304.64C234.56 302.8 233.71 299.36 233.46 297.97C233.36 297.44 233.72 296.92 234.25 296.81C235.42 296.57 236.61 296.54 237.8 296.71C238.07 296.75 238.26 297 238.22 297.28C238.18 297.55 237.92 297.74 237.65 297.7C236.58 297.55 235.5 297.58 234.44 297.79C234.62 298.79 235.38 302.18 237.53 303.86C239.71 305.54 242.74 305.04 243.61 304.85C243.68 304.77 243.78 304.72 243.89 304.69C244.16 304.64 244.42 304.82 244.48 305.1C244.49 305.13 244.5 305.24 244.5 305.27C244.5 305.49 244.35 305.69 244.14 305.75C244.05 305.77 242.97 306.07 241.54 306.07Z" fill="black"/>
<path d="M244 312.72C237.27 312.72 232 310.3 232 307.22C232 305.54 233.5 304.04 236.22 303C236.47 302.9 236.77 303.03 236.87 303.29C236.97 303.55 236.84 303.84 236.58 303.93C234.3 304.81 233 306 233 307.22C233 309.66 238.04 311.72 244 311.72C245.23 311.72 246.48 311.63 247.69 311.45L247.05 310.03C246.88 309.66 246.96 309.23 247.23 308.93C247.51 308.64 247.93 308.54 248.31 308.68L252.21 310.17C254.01 309.33 255 308.28 255 307.22C255 306 253.7 304.8 251.42 303.94C251.16 303.84 251.03 303.55 251.13 303.3C251.23 303.04 251.52 302.91 251.77 303.01C254.5 304.04 256 305.54 256 307.22C256 308.69 254.8 310.06 252.64 311.07C252.4 311.18 252.11 311.19 251.86 311.1L247.96 309.61L248.6 311.03C248.73 311.32 248.72 311.65 248.57 311.92C248.42 312.19 248.15 312.38 247.84 312.43C246.57 312.63 245.28 312.72 244 312.72Z" fill="black"/>
</g>
<g clip-path="url(#clip2_1755_2442)">
<path d="M703.69 471.4C703.126 471.4 702.64 471.886 702.64 472.45V474.76H695.485C694.669 474.76 694 475.429 694 476.245V491.515C694 492.331 694.669 493 695.485 493H716.515C717.331 493 718 492.331 718 491.515V476.245C718 475.429 717.331 474.76 716.515 474.76H709.36V472.45C709.36 471.886 708.874 471.4 708.31 471.4H703.69ZM703.6 472.36C703.609 472.351 703.636 472.36 703.69 472.36H708.31C708.417 472.36 708.4 472.343 708.4 472.45V474.76H703.6V472.45C703.6 472.396 703.591 472.369 703.6 472.36ZM695.485 475.72H716.515C716.851 475.72 717.04 475.909 717.04 476.245V491.515C717.04 491.851 716.851 492.04 716.515 492.04H695.485C695.149 492.04 694.96 491.851 694.96 491.515V476.245C694.96 475.909 695.149 475.72 695.485 475.72ZM706.72 477.64C705.267 477.64 704.08 478.827 704.08 480.28C704.08 481.733 705.267 482.92 706.72 482.92C708.173 482.92 709.36 481.733 709.36 480.28C709.36 478.827 708.173 477.64 706.72 477.64ZM706.72 478.6C707.654 478.6 708.4 479.346 708.4 480.28C708.4 481.214 707.654 481.96 706.72 481.96C705.786 481.96 705.04 481.214 705.04 480.28C705.04 479.346 705.786 478.6 706.72 478.6ZM713.995 482.05C713.886 482.044 713.77 482.069 713.665 482.11L713.65 482.08L707.92 484.27L707.845 484.3L707.86 484.33C707.419 484.474 707.185 484.964 707.35 485.38L707.32 485.395L708.28 487.93L708.31 487.915C708.451 488.367 708.968 488.618 709.39 488.44V488.455L709.435 488.44L715.195 486.25L715.18 486.22C715.626 486.079 715.855 485.588 715.69 485.17L715.72 485.155L714.76 482.605L714.73 482.62C714.625 482.284 714.321 482.065 713.995 482.05ZM713.89 483.025L714.775 485.38L709.15 487.51L708.265 485.17L713.89 483.025Z" fill="#0F0F0F"/>
</g>
<path fill-rule="evenodd" clip-rule="evenodd" d="M84.1094 137.188C84.2043 137.069 84.3481 137 84.5 137H95.5C95.6519 137 95.7957 137.069 95.8906 137.188L101.849 144.636C101.931 144.716 101.983 144.821 101.996 144.935V144.936V144.937C101.997 144.948 101.998 144.959 101.999 144.971C102 144.979 102 144.987 102 144.995V145V157.5C102 157.776 101.776 158 101.5 158H95.0791C95.0251 158.009 94.97 158.009 94.916 158H85.0791C85.0251 158.009 84.97 158.009 84.916 158H78.5C78.2239 158 78 157.776 78 157.5V145.013V145C78.0001 144.991 78.0004 144.982 78.001 144.973V144.966V144.963L78.002 144.955C78.0113 144.835 78.0636 144.722 78.1494 144.638L84.1094 137.188ZM95.2598 138H84.7402L79.541 144.5H85.293L89.6465 140.146C89.8417 139.951 90.1583 139.951 90.3535 140.146L94.707 144.5H100.459L95.2598 138ZM90 141.207L94.1465 145.354C94.2402 145.447 94.3674 145.5 94.5 145.5H101V157H95.5V147C95.5 146.724 95.2761 146.5 95 146.5H94C93.8197 146.497 93.652 146.592 93.5611 146.748C93.4702 146.904 93.4702 147.096 93.5611 147.252C93.652 147.408 93.8197 147.503 94 147.5H94.5V157H92.5V153C92.5 151.625 91.3748 150.5 90 150.5C88.6252 150.5 87.5 151.625 87.5 153V157H85.5V147.5H86C86.1803 147.503 86.348 147.408 86.4389 147.252C86.5298 147.096 86.5298 146.904 86.4389 146.748C86.348 146.592 86.1803 146.497 86 146.5H85C84.7239 146.5 84.5 146.724 84.5 147V157H79V145.5H85.5C85.6326 145.5 85.7598 145.447 85.8535 145.354L90 141.207ZM88 147C88 145.901 88.9014 145 90 145C91.0986 145 92 145.901 92 147C92 148.099 91.0986 149 90 149C88.9014 149 88 148.099 88 147ZM90 146C90.5582 146 91 146.442 91 147C91 147.558 90.5582 148 90 148C89.4418 148 89 147.558 89 147C89 146.442 89.4418 146 90 146ZM80 147.5C80 147.224 80.2239 147 80.5 147H83C83.2761 147 83.5 147.224 83.5 147.5V150C83.5 150.276 83.2761 150.5 83 150.5H80.5C80.2239 150.5 80 150.276 80 150V147.5ZM97 147C96.7239 147 96.5 147.224 96.5 147.5V150C96.5 150.276 96.7239 150.5 97 150.5H99.5C99.7761 150.5 100 150.276 100 150V147.5C100 147.224 99.7761 147 99.5 147H97ZM82.5 148H81V149.5H82.5V148ZM97.5 148H99V149.5H97.5V148ZM91.5 153C91.5 152.166 90.8342 151.5 90 151.5C89.1658 151.5 88.5 152.166 88.5 153V157H91.5V153ZM80.5 152C80.2239 152 80 152.224 80 152.5V155C80 155.276 80.2239 155.5 80.5 155.5H83C83.2761 155.5 83.5 155.276 83.5 155V152.5C83.5 152.224 83.2761 152 83 152H80.5ZM96.5 152.5C96.5 152.224 96.7239 152 97 152H99.5C99.7761 152 100 152.224 100 152.5V155C100 155.276 99.7761 155.5 99.5 155.5H97C96.7239 155.5 96.5 155.276 96.5 155V152.5ZM81 153H82.5V154.5H81V153ZM99 153H97.5V154.5H99V153Z" fill="black"/>
<g clip-path="url(#clip3_1755_2442)">
<path fill-rule="evenodd" clip-rule="evenodd" d="M232 137.882C232 136.847 232.849 136 233.882 136H246.118C247.151 136 248 136.847 248 137.882V138.735L254.206 140.662C255.193 140.969 255.75 142.028 255.441 143.015L250.676 158.294C250.369 159.281 249.311 159.836 248.324 159.529L236.294 155.765H233.882C232.849 155.765 232 154.915 232 153.882V137.882ZM246.118 136.941H233.882C233.357 136.941 232.941 137.357 232.941 137.882V153.882C232.941 154.406 233.358 154.824 233.882 154.824H246.118C246.642 154.824 247.059 154.406 247.059 153.882V139.191C247.039 139.114 247.039 139.033 247.059 138.956V137.882C247.059 137.357 246.643 136.941 246.118 136.941ZM244.294 137.882C244.256 137.882 244.246 137.908 244.235 137.941L242.926 141.588C242.915 141.621 242.923 141.647 242.956 141.647H243.353C243.386 141.647 243.41 141.627 243.426 141.588L243.706 140.779H245.235L245.515 141.588C245.526 141.627 245.55 141.647 245.588 141.647H245.985C246.018 141.647 246.026 141.621 246.015 141.588L244.735 137.941C244.724 137.908 244.7 137.882 244.662 137.882H244.294ZM244.485 138.603H244.471L243.868 140.324H245.074L244.485 138.603ZM248 139.706L253.926 141.559C254.428 141.715 254.7 142.233 254.544 142.735L249.779 158.015C249.623 158.515 249.105 158.789 248.603 158.632L239.441 155.765H246.118C247.151 155.765 248 154.915 248 153.882V139.706ZM251.824 141.941C251.833 141.926 251.84 141.917 251.853 141.912C251.866 141.906 251.879 141.906 251.897 141.912L252.25 142.015C252.287 142.026 252.292 142.053 252.294 142.088L252.441 145.971C252.443 146.006 252.414 146.009 252.382 146L252.015 145.897C251.978 145.886 251.969 145.849 251.971 145.809L251.941 144.941L250.485 144.5L249.956 145.191C249.928 145.222 249.915 145.23 249.882 145.221L249.5 145.103C249.469 145.094 249.465 145.074 249.485 145.044L251.824 141.941ZM240 142.588C240 142.588 237.66 144.362 237.662 145.603C237.662 146.344 238.165 146.809 238.868 146.809C239.204 146.807 239.555 146.77 239.765 146.574C239.765 146.574 239.318 147.713 239.059 148.235C239.015 148.324 240.985 148.325 240.941 148.235C240.682 147.711 240.235 146.574 240.235 146.574C240.445 146.779 240.768 146.809 241.132 146.809C241.836 146.807 242.338 146.329 242.338 145.588C242.336 144.347 240 142.588 240 142.588ZM251.912 144.471L251.853 142.662L250.765 144.103L251.912 144.471ZM234.015 150.118C233.982 150.118 233.974 150.143 233.985 150.176L235.265 153.824C235.276 153.857 235.3 153.882 235.338 153.882H235.706C235.744 153.882 235.754 153.857 235.765 153.824L237.074 150.176C237.085 150.143 237.077 150.118 237.044 150.118H236.647C236.614 150.118 236.59 150.138 236.574 150.176L236.294 150.985H234.765L234.485 150.176C234.474 150.138 234.45 150.118 234.412 150.118H234.015ZM235.529 153.162L236.132 151.441H234.926L235.515 153.162H235.529Z" fill="black"/>
</g>
<g clip-path="url(#clip4_1755_2442)">
<path fill-rule="evenodd" clip-rule="evenodd" d="M557.813 136.447C557.951 136.431 558.094 136.422 558.231 136.418C558.64 136.406 559.029 136.451 559.399 136.577C559.551 136.629 559.662 136.755 559.698 136.91C559.733 137.067 559.686 137.23 559.572 137.341L557.149 139.764C556.976 139.961 556.983 140.248 557.12 140.385L559.543 142.808C559.548 142.811 559.553 142.813 559.558 142.815C559.563 142.817 559.568 142.819 559.572 142.822C559.767 142.97 560.034 142.952 560.164 142.822L562.615 140.385C562.727 140.271 562.889 140.224 563.046 140.258C563.201 140.295 563.328 140.406 563.38 140.558C563.713 141.558 563.499 142.741 563.091 143.832C562.684 144.923 562.066 145.925 561.418 146.572C560.717 147.273 559.853 147.594 558.981 147.582C558.22 147.571 557.466 147.291 556.716 146.889L556.197 147.409C556.013 147.587 555.719 147.585 555.541 147.401C555.362 147.218 555.364 146.924 555.548 146.745L556.284 146.01C556.433 145.86 556.664 145.829 556.846 145.938C557.607 146.394 558.344 146.65 558.995 146.659C559.646 146.668 560.225 146.468 560.769 145.923C561.276 145.416 561.862 144.475 562.226 143.5C562.457 142.883 562.543 142.29 562.558 141.74L560.813 143.486C560.302 143.996 559.478 143.974 558.938 143.5L558.923 143.486L556.471 141.034C555.961 140.523 555.983 139.7 556.457 139.159C556.46 139.15 556.466 139.139 556.471 139.13L558.216 137.399C557.676 137.415 557.088 137.502 556.471 137.731C555.49 138.097 554.539 138.683 554.034 139.188C553.489 139.732 553.264 140.322 553.269 140.976C553.275 141.63 553.532 142.352 554.005 143.082C554.124 143.264 554.1 143.504 553.947 143.659L552.649 144.957C552.537 145.094 552.359 145.157 552.186 145.117C552.014 145.078 551.879 144.942 551.84 144.771C551.8 144.598 551.863 144.42 552 144.308L553.053 143.24C552.636 142.505 552.352 141.737 552.346 140.976C552.339 140.096 552.683 139.24 553.385 138.538C554.034 137.889 555.043 137.273 556.139 136.865C556.688 136.662 557.259 136.51 557.813 136.447ZM541.745 136.591C541.816 136.521 541.907 136.476 542.005 136.462H542.048C542.138 136.454 542.228 136.474 542.308 136.519L545.683 138.466C545.841 138.564 545.926 138.744 545.899 138.928L545.74 139.938L552 146.197L552.231 145.966C552.485 145.712 552.819 145.577 553.154 145.577C553.489 145.577 553.823 145.712 554.077 145.966L554.409 146.284C554.776 146.651 554.775 147.158 554.625 147.611L555.389 148.389C555.993 148.357 556.612 148.501 557.077 148.966L562.716 154.591C563.825 155.7 563.811 157.552 562.716 158.702V158.716C561.577 159.856 559.731 159.856 558.591 158.716L552.966 153.077C552.519 152.63 552.337 152.011 552.389 151.389L551.611 150.625C551.158 150.775 550.651 150.776 550.284 150.409L549.966 150.077C549.456 149.567 549.456 148.741 549.966 148.231L550.197 148L543.938 141.74L542.928 141.899C542.744 141.926 542.564 141.841 542.466 141.683L540.519 138.308C540.411 138.126 540.442 137.895 540.591 137.745L541.745 136.591ZM542.164 137.5L544.947 139.101L544.803 140.038C544.783 140.181 544.832 140.325 544.933 140.428L551.351 146.846L550.846 147.351L544.428 140.933C544.325 140.832 544.181 140.783 544.039 140.803L543.101 140.947L541.5 138.163L542.164 137.5ZM553.428 146.615C553.359 146.547 553.257 146.514 553.154 146.514C553.051 146.514 552.948 146.547 552.88 146.615L550.615 148.88C550.478 149.017 550.478 149.291 550.615 149.428L550.947 149.745C551.099 149.897 551.324 149.895 551.466 149.774C551.652 149.614 551.932 149.626 552.101 149.803L553.154 150.856C553.275 150.971 553.325 151.141 553.284 151.303C553.188 151.687 553.309 152.121 553.615 152.428L559.255 158.053C560.054 158.852 561.254 158.852 562.053 158.053C562.796 157.263 562.789 155.99 562.053 155.255L556.428 149.615C556.134 149.322 555.687 149.213 555.26 149.284C555.112 149.309 554.962 149.26 554.856 149.154L553.803 148.101C553.626 147.932 553.614 147.652 553.774 147.466C553.895 147.324 553.897 147.099 553.745 146.947L553.428 146.615ZM548.625 147.899C548.52 147.913 548.423 147.966 548.351 148.043L546.159 150.236C545.845 150.174 545.537 150.12 545.221 150.12C542.62 150.12 540.505 152.235 540.505 154.837C540.505 157.438 542.62 159.538 545.221 159.538C547.823 159.538 549.923 157.438 549.923 154.837C549.923 154.499 549.847 154.166 549.764 153.841L551.351 152.255C551.535 152.076 551.537 151.782 551.358 151.599C551.18 151.415 550.886 151.413 550.702 151.591L548.957 153.351C548.825 153.477 548.78 153.67 548.841 153.841C548.957 154.148 549 154.456 549 154.837C549 156.942 547.327 158.615 545.221 158.615C543.115 158.615 541.428 156.942 541.428 154.837C541.428 152.731 543.115 151.043 545.221 151.043C545.551 151.043 545.883 151.09 546.216 151.173C546.373 151.207 546.537 151.159 546.649 151.043L549 148.692C549.137 148.561 549.179 148.357 549.105 148.182C549.032 148.007 548.858 147.895 548.668 147.899H548.625ZM554.438 151.101L555.101 150.438L560.639 155.976L559.976 156.639L554.438 151.101ZM545.712 152.154C545.686 152.157 545.663 152.161 545.639 152.168L543.476 152.774C543.323 152.817 543.202 152.938 543.159 153.091L542.553 155.255C542.502 155.419 542.548 155.596 542.668 155.716L544.284 157.332C544.401 157.447 544.572 157.492 544.731 157.447L546.952 156.841C547.114 156.8 547.242 156.672 547.284 156.51L547.832 154.346C547.877 154.188 547.832 154.016 547.716 153.899L546.101 152.284C545.998 152.183 545.854 152.134 545.712 152.154ZM546.865 154.375L545.625 153.135L543.966 153.582L543.519 155.24L544.76 156.481L546.447 156.034L546.865 154.375Z" fill="black"/>
</g>
<g clip-path="url(#clip5_1755_2442)">
<path fill-rule="evenodd" clip-rule="evenodd" d="M700.721 136.471C700.739 136.465 700.759 136.46 700.779 136.456C700.824 136.454 700.869 136.46 700.912 136.471H702.603C702.665 136.458 702.732 136.458 702.794 136.471H704.176C704.415 136.469 704.618 136.645 704.647 136.882C704.647 136.882 704.868 138.439 705.088 140.103C705.199 140.934 705.3 141.781 705.382 142.485L705.402 142.653L705.402 142.653L705.402 142.653C705.475 143.272 705.529 143.733 705.529 144C705.529 144.386 705.371 144.695 705.176 145.029C704.982 145.364 704.728 145.704 704.485 146.015C704.105 146.501 703.813 146.809 703.682 146.948L703.647 146.985L704.118 158.103V158.118C704.118 158.746 703.79 159.27 703.338 159.574C702.886 159.877 702.325 160 701.765 160C701.204 160 700.643 159.877 700.191 159.574C699.739 159.27 699.412 158.746 699.412 158.118V158.103L699.868 146.985L699.845 146.961L699.845 146.961C699.719 146.827 699.434 146.525 699.044 146.029C698.8 145.721 698.548 145.381 698.353 145.044C698.158 144.708 698 144.388 698 144C698 143.723 698.056 143.243 698.131 142.605L698.131 142.605L698.147 142.471C698.23 141.765 698.331 140.917 698.441 140.088C698.662 138.43 698.882 136.868 698.882 136.868C698.915 136.653 699.092 136.489 699.309 136.471H699.353H700.721ZM710.441 136.985C710.838 136.682 711.21 136.471 711.647 136.471C712.11 136.471 712.55 136.673 712.779 137.029C713.009 137.386 713.059 137.794 713.059 138.265V158.118C713.059 158.71 712.814 159.222 712.412 159.544C712.009 159.866 711.494 160 710.941 160C710.388 160 709.873 159.866 709.471 159.544C709.068 159.222 708.824 158.71 708.824 158.118C708.824 155.449 709.157 153.526 709.427 151.968L709.427 151.968C709.61 150.908 709.765 150.018 709.765 149.177C709.765 149.075 709.699 148.853 709.529 148.529C709.481 148.437 709.427 148.338 709.368 148.231C709.22 147.961 709.044 147.639 708.868 147.25C708.375 146.162 707.882 144.575 707.882 142.191C707.882 140.643 708.513 139.243 709.265 138.221C709.64 137.71 710.044 137.289 710.441 136.985ZM699.765 137.412H700.353V143.529C700.351 143.699 700.439 143.857 700.586 143.943C700.733 144.028 700.914 144.028 701.061 143.943C701.208 143.857 701.296 143.699 701.294 143.529V137.412H702.235V143.529C702.233 143.699 702.322 143.857 702.469 143.943C702.616 144.028 702.796 144.028 702.943 143.943C703.09 143.857 703.178 143.699 703.176 143.529V137.412H703.765C703.811 137.739 703.956 138.774 704.147 140.221L704.192 140.558C704.288 141.278 704.384 142 704.456 142.603C704.539 143.3 704.588 143.875 704.588 144C704.588 144.031 704.511 144.285 704.353 144.559C704.195 144.833 703.978 145.151 703.75 145.441C703.296 146.022 702.838 146.5 702.838 146.5C702.75 146.59 702.702 146.713 702.706 146.838L703.176 158.118V158.132C703.173 158.452 703.05 158.634 702.809 158.794C702.564 158.958 702.178 159.059 701.765 159.059C701.351 159.059 700.965 158.958 700.721 158.794C700.48 158.634 700.357 158.452 700.353 158.132V158.118L700.824 146.838C700.827 146.713 700.779 146.59 700.691 146.5C700.691 146.5 700.233 146.017 699.779 145.441C699.553 145.153 699.335 144.847 699.176 144.574C699.018 144.3 698.941 144.048 698.941 144C698.941 143.862 698.991 143.287 699.074 142.588C699.147 141.971 699.245 141.231 699.343 140.497L699.343 140.497L699.382 140.206C699.575 138.759 699.719 137.73 699.765 137.412ZM711.982 137.539C711.924 137.449 711.9 137.412 711.647 137.412C711.605 137.412 711.325 137.498 711.015 137.735C710.704 137.972 710.342 138.333 710.015 138.779C709.358 139.671 708.824 140.901 708.824 142.191C708.824 144.449 709.272 145.858 709.721 146.853C709.889 147.226 710.056 147.542 710.207 147.827C710.258 147.922 710.307 148.014 710.353 148.103L710.359 148.115C710.541 148.465 710.706 148.784 710.706 149.177C710.706 150.168 710.537 151.143 710.343 152.266C710.078 153.798 709.765 155.607 709.765 158.118C709.765 158.483 709.877 158.664 710.059 158.809C710.241 158.954 710.535 159.059 710.941 159.059C711.347 159.059 711.656 158.954 711.838 158.809C712.02 158.664 712.118 158.485 712.118 158.118V138.265C712.118 137.875 712.046 137.638 711.985 137.544L711.982 137.539Z" fill="black"/>
</g>
<g clip-path="url(#clip6_1755_2442)">
<path d="M87 297.5H83.167C82.7247 297.5 82.3006 297.676 81.9879 297.989C81.6752 298.301 81.4997 298.726 81.5 299.168V310.5" stroke="black" stroke-linecap="round" stroke-linejoin="round"/>
<path d="M98.5 310.501V304.001" stroke="black" stroke-linecap="round" stroke-linejoin="round"/>
<path fill-rule="evenodd" clip-rule="evenodd" d="M101.5 310.5C101.5 312.157 100.157 313.5 98.5 313.5H81.5C79.8431 313.5 78.5 312.157 78.5 310.5H101.5Z" stroke="black" stroke-linecap="round" stroke-linejoin="round"/>
<path d="M94 295.5C94 294.672 94.6716 294 95.5 294C96.3284 294 97 294.672 97 295.5C97 296.328 96.3284 297 95.5 297" stroke="black" stroke-linecap="round" stroke-linejoin="round"/>
<path d="M95.5 298.5C95.6381 298.5 95.75 298.612 95.75 298.75C95.75 298.888 95.6381 299 95.5 299C95.3619 299 95.25 298.888 95.25 298.75C95.25 298.612 95.3619 298.5 95.5 298.5" stroke="black" stroke-linecap="round" stroke-linejoin="round"/>
<path fill-rule="evenodd" clip-rule="evenodd" d="M95.433 290.5C93.8378 290.505 92.3114 291.151 91.1961 292.291C90.0807 293.432 89.4697 294.972 89.5 296.567C89.455 297.684 89.7257 298.79 90.281 299.76L88.5 303.5L92.241 301.718C94.4278 303.074 97.232 302.902 99.2368 301.289C101.242 299.676 102.011 296.974 101.155 294.548C100.3 292.121 98.0059 290.499 95.433 290.5V290.5Z" stroke="black" stroke-linecap="round" stroke-linejoin="round"/>
</g>
<g clip-path="url(#clip7_1755_2442)">
<path fill-rule="evenodd" clip-rule="evenodd" d="M397.326 470.301C397.396 470.12 397.57 470 397.765 470C397.959 470 398.133 470.12 398.203 470.301L401.105 477.781L409.083 478.188C409.277 478.198 409.445 478.327 409.506 478.512C409.567 478.697 409.507 478.9 409.357 479.023L403.144 484.102L405.185 491.809C405.235 491.997 405.164 492.196 405.007 492.31C404.85 492.424 404.639 492.431 404.475 492.325L397.765 488.018L391.054 492.325C390.891 492.431 390.68 492.424 390.522 492.31C390.365 492.196 390.295 491.997 390.345 491.809L392.385 484.102L386.173 479.023C386.022 478.9 385.963 478.697 386.023 478.512C386.084 478.327 386.252 478.198 386.447 478.188L394.425 477.781L397.326 470.301ZM400.337 478.405L397.765 471.771L395.192 478.405C395.125 478.578 394.962 478.696 394.777 478.705L387.713 479.066L393.215 483.565C393.358 483.682 393.419 483.871 393.372 484.05L391.564 490.88L397.51 487.062C397.665 486.963 397.864 486.963 398.019 487.062L403.965 490.88L402.157 484.05C402.11 483.871 402.172 483.682 402.314 483.565L407.816 479.066L400.753 478.705C400.567 478.696 400.404 478.578 400.337 478.405Z" fill="black"/>
</g>
<path fill-rule="evenodd" clip-rule="evenodd" d="M544 477C544 472.58 547.58 469 552 469C556.42 469 560 472.58 560 477C560 480.584 558.068 484.502 556.172 487.562C554.275 490.623 552.375 492.828 552.375 492.828C552.279 492.936 552.143 492.998 552 492.998C551.857 492.998 551.721 492.936 551.625 492.828C551.625 492.828 549.727 490.668 547.828 487.625C545.93 484.582 544 480.654 544 477ZM559 477C559 473.119 555.881 470 552 470C548.119 470 545 473.119 545 477C545 480.295 546.82 484.125 548.672 487.094C550.221 489.576 551.535 491.154 552 491.703C552.461 491.15 553.775 489.537 555.328 487.031C557.182 484.041 559 480.217 559 477ZM552 474C550.072 474 548.5 475.572 548.5 477.5C548.5 479.428 550.072 481 552 481C553.928 481 555.5 479.428 555.5 477.5C555.5 475.572 553.928 474 552 474ZM554.5 477.5C554.5 476.113 553.387 475 552 475C550.613 475 549.5 476.113 549.5 477.5C549.5 478.887 550.613 480 552 480C553.387 480 554.5 478.887 554.5 477.5Z" fill="black"/>
<path d="M394.07 648C393.841 648.043 393.676 648.246 393.68 648.48V648.96H389.795C389.026 648.96 388.4 649.586 388.4 650.355V670.56C388.4 671.349 389.026 672 389.795 672H406.16C406.949 672 407.555 671.342 407.555 670.605V650.4C407.557 650.385 407.553 650.37 407.555 650.355C407.604 649.584 406.957 648.96 406.205 648.96H402.32V648.48C402.32 648.216 402.104 648 401.84 648H394.16C394.145 648 394.13 648 394.115 648C394.1 648 394.085 648 394.07 648ZM394.64 648.96H401.36V651.84H394.64V648.96ZM389.795 649.92H393.68V650.88H390.32V670.08H405.68V650.88H402.32V649.92H406.205C406.396 649.92 406.612 650.141 406.595 650.31C406.595 650.325 406.595 650.34 406.595 650.355V670.605C406.595 670.828 406.426 671.04 406.16 671.04H389.795C389.604 671.04 389.36 670.826 389.36 670.56V650.355C389.36 650.164 389.604 649.92 389.795 649.92ZM391.28 651.84H393.68V652.32C393.68 652.584 393.896 652.8 394.16 652.8H401.84C402.104 652.8 402.32 652.584 402.32 652.32V651.84H404.72V669.12H391.28V651.84ZM393.2 656.16V660H397.04V656.16H393.2ZM394.16 657.12H396.08V659.04H394.16V657.12ZM398.48 657.6V658.56H402.8V657.6H398.48ZM393.2 662.4V666.24H397.04V662.4H393.2ZM394.16 663.36H396.08V665.28H394.16V663.36ZM394.64 663.84V664.8H395.6V663.84H394.64ZM398.48 663.84V664.8H402.8V663.84H398.48Z" fill="#0F0F0F"/>
<path fill-rule="evenodd" clip-rule="evenodd" d="M543.147 651.866C543.042 651.864 542.951 651.918 542.904 651.995C542.858 652.071 542.858 652.162 542.904 652.238C542.951 652.315 543.042 652.369 543.147 652.367L543.153 652.367L544.484 652.367C544.829 652.367 545.136 652.582 545.238 652.92L548.256 662.823C548.464 663.503 549.122 663.987 549.878 663.987H557.651C558.418 663.987 559.085 663.486 559.282 662.791C559.282 662.791 559.282 662.791 559.282 662.791L561.122 656.281C561.142 656.21 561.127 656.133 561.078 656.071C561.029 656.008 560.948 655.967 560.857 655.967H546.735L545.86 653.093H545.858L545.765 652.786C545.601 652.25 545.081 651.866 544.484 651.866L543.147 651.866ZM543.156 651C542.751 650.996 542.369 651.201 542.159 651.549C541.947 651.899 541.947 652.334 542.159 652.684C542.369 653.032 542.751 653.237 543.156 653.233H544.425L547.424 663.074C547.424 663.074 547.424 663.074 547.424 663.074C547.747 664.133 548.754 664.853 549.878 664.853H557.651C558.793 664.853 559.812 664.108 560.119 663.026L561.959 656.515C562.055 656.175 561.981 655.812 561.761 655.535C561.543 655.259 561.208 655.101 560.857 655.101C560.857 655.101 560.857 655.101 560.857 655.101H547.38L546.505 652.227H546.476C546.114 651.484 545.337 651 544.484 651H543.156ZM550.528 666.296C549.95 666.296 549.492 666.754 549.492 667.306C549.492 667.858 549.95 668.316 550.528 668.316C551.107 668.316 551.565 667.858 551.565 667.306C551.565 666.754 551.107 666.296 550.528 666.296ZM548.622 667.306C548.622 666.264 549.482 665.43 550.528 665.43C551.575 665.43 552.435 666.264 552.435 667.306C552.435 668.348 551.575 669.182 550.528 669.182C549.482 669.182 548.622 668.348 548.622 667.306ZM555.244 667.306C555.244 666.264 556.104 665.43 557.15 665.43C558.197 665.43 559.057 666.264 559.057 667.306C559.057 668.348 558.197 669.182 557.15 669.182C556.104 669.182 555.244 668.348 555.244 667.306ZM557.15 666.296C556.572 666.296 556.114 666.754 556.114 667.306C556.114 667.858 556.572 668.316 557.15 668.316C557.729 668.316 558.187 667.858 558.187 667.306C558.187 666.754 557.729 666.296 557.15 666.296Z" fill="black"/>
<g clip-path="url(#clip8_1755_2442)">
<g clip-path="url(#clip9_1755_2442)">
<path d="M709.213 660.85L708.418 660.464C707.656 660.088 706.839 659.901 706.011 659.934C705.139 659.934 704.333 660.121 703.593 660.475L702.799 660.861V653.332C702.799 652.747 703.273 652.272 703.858 652.272H708.153C708.738 652.272 709.213 652.747 709.213 653.332V660.85V660.85ZM703.858 653.376L703.892 659.161C704.598 658.929 705.349 658.819 706.121 658.83C706.795 658.83 707.468 658.94 708.109 659.15V653.376H703.858Z" fill="black"/>
<mask id="mask0_1755_2442" style="mask-type:alpha" maskUnits="userSpaceOnUse" x="694" y="656" width="7" height="10">
<path d="M699.332 656.511H695.06C694.475 656.511 694 656.997 694 657.571V664.14C694 664.725 694.475 665.2 695.06 665.2H699.332C699.917 665.2 700.392 664.725 700.392 664.14V657.571C700.392 656.997 699.917 656.511 699.332 656.511Z" fill="white"/>
</mask>
<g mask="url(#mask0_1755_2442)">
<path d="M700.392 657.571H699.288H700.392ZM699.332 656.511H695.06V657.615H699.332V656.511ZM695.082 656.511C694.486 656.511 694 656.997 694 657.593H695.104V657.604H695.093V656.511H695.082ZM694 657.571V664.14H695.104V657.571H694ZM694 664.129C694 664.725 694.486 665.211 695.082 665.211V664.107H695.093V664.118H694V664.129ZM695.06 665.211H699.332V664.107H695.06V665.211ZM699.31 665.211C699.906 665.211 700.392 664.725 700.392 664.129H699.288V664.118H699.299V665.211H699.31ZM700.392 664.151V657.571H699.288V664.14H700.392V664.151ZM700.392 657.593C700.392 656.997 699.906 656.511 699.31 656.511V657.615C699.299 657.615 699.299 657.615 699.299 657.615V657.604L700.392 657.593Z" fill="black"/>
</g>
<mask id="mask1_1755_2442" style="mask-type:alpha" maskUnits="userSpaceOnUse" x="711" y="648" width="7" height="18">
<path d="M716.94 648H712.668C712.083 648 711.608 648.475 711.608 649.06V664.14C711.608 664.725 712.083 665.2 712.668 665.2H716.94C717.525 665.2 718 664.725 718 664.14V649.06C718 648.475 717.525 648 716.94 648Z" fill="white"/>
</mask>
<g mask="url(#mask1_1755_2442)">
<path d="M718 664.151H716.896H718ZM716.94 648H712.668V649.104H716.94V648ZM712.69 648C712.094 648 711.608 648.486 711.608 649.082H712.712C712.712 649.093 712.701 649.104 712.69 649.104V648ZM711.608 649.06V664.14H712.712V649.06H711.608ZM711.608 664.129C711.608 664.725 712.094 665.211 712.69 665.211V664.107C712.701 664.107 712.712 664.118 712.712 664.129H711.608ZM712.668 665.211H716.94V664.107H712.668V665.211ZM716.918 665.211C717.514 665.211 718 664.725 718 664.129H716.896C716.896 664.118 716.907 664.107 716.918 664.107V665.211ZM718 664.151V649.071H716.896V664.151H718ZM718 649.082C718 648.486 717.514 648 716.918 648V649.104C716.907 649.104 716.896 649.093 716.896 649.082H718Z" fill="black"/>
<path d="M711.034 668.258L710.184 667.419C710.328 666.988 710.405 666.535 710.405 666.083C710.405 663.676 708.451 661.722 706.044 661.722C703.638 661.722 701.684 663.676 701.684 666.083C701.684 668.489 703.638 670.443 706.044 670.443C706.486 670.443 706.938 670.366 707.38 670.223L708.23 671.073C708.605 671.448 709.102 671.647 709.632 671.647C710.173 671.647 710.67 671.448 711.034 671.073C711.796 670.333 711.807 669.075 711.034 668.258ZM710.261 670.311C709.941 670.631 709.323 670.631 709.014 670.311L707.645 668.942L707.303 669.086C705.073 670.013 702.788 668.313 702.788 666.094C702.788 664.294 704.245 662.837 706.044 662.837C707.844 662.837 709.301 664.294 709.301 666.094C709.301 666.524 709.213 666.933 709.036 667.341L708.881 667.695L710.261 669.063C710.593 669.406 710.593 669.969 710.261 670.311Z" fill="black"/>
</g>
</g>
<g clip-path="url(#clip10_1755_2442)">
<path d="M711.078 667.783L710.228 666.944C710.372 666.513 710.449 666.061 710.449 665.608C710.449 663.202 708.495 661.248 706.088 661.248C703.682 661.248 701.728 663.202 701.728 665.608C701.728 668.015 703.682 669.969 706.088 669.969C706.53 669.969 706.983 669.892 707.424 669.748L708.274 670.598C708.65 670.984 709.146 671.183 709.687 671.183C710.228 671.183 710.725 670.984 711.089 670.609C711.84 669.858 711.851 668.6 711.078 667.783ZM710.306 669.836C709.985 670.156 709.367 670.156 709.058 669.836L707.689 668.467L707.347 668.611C705.117 669.538 702.832 667.838 702.832 665.619C702.832 663.82 704.289 662.363 706.088 662.363C707.888 662.363 709.345 663.82 709.345 665.619C709.345 666.05 709.257 666.458 709.08 666.867L708.926 667.22L710.306 668.589C710.637 668.942 710.637 669.494 710.306 669.836Z" fill="black"/>
<path d="M706.044 664.184C705.194 664.184 704.499 664.88 704.499 665.73C704.499 666.58 705.194 667.275 706.044 667.275C706.894 667.275 707.59 666.58 707.59 665.73C707.59 664.88 706.894 664.184 706.044 664.184ZM706.044 666.171C705.801 666.171 705.603 665.972 705.603 665.73C705.603 665.487 705.801 665.288 706.044 665.288C706.287 665.288 706.486 665.487 706.486 665.73C706.486 665.972 706.298 666.171 706.044 666.171Z" fill="black"/>
</g>
</g>
<g clip-path="url(#clip11_1755_2442)">
<path fill-rule="evenodd" clip-rule="evenodd" d="M390.6 839.16C390.786 839.198 391.158 839.282 391.5 839.366C391.677 839.409 391.85 839.453 391.989 839.491C392.059 839.509 392.123 839.528 392.176 839.544C392.204 839.553 392.244 839.565 392.285 839.582C392.834 839.732 393.22 840.102 393.515 840.531C393.812 840.961 394.051 841.501 394.286 842.038L394.292 842.052C394.356 842.211 394.47 842.473 394.593 842.728C394.613 842.768 394.633 842.808 394.652 842.846C394.704 842.789 394.76 842.727 394.817 842.658C395.062 842.366 395.315 842.001 395.503 841.658L395.508 841.649C395.91 840.945 396.891 840.637 397.622 841.054C398.319 841.452 398.572 842.294 398.482 842.922C398.475 842.976 398.459 843.027 398.435 843.075C398.284 843.376 397.851 844.133 397.224 844.824C396.613 845.497 395.72 846.216 394.646 846.216C394.639 846.216 394.632 846.216 394.625 846.216C394.432 846.216 394.157 846.216 393.874 846.122C393.529 846.006 393.241 845.825 392.995 845.602L392.55 848.718C392.548 848.735 392.544 848.752 392.54 848.769C392.419 849.254 392.022 849.557 391.578 849.557C391.112 849.557 390.28 849.541 389.429 849.524L389.335 849.522C388.447 849.505 387.549 849.488 387.01 849.488C386.461 849.488 386.032 849.06 386.032 848.511C386.032 847.088 386.17 845.07 386.421 843.31C386.546 842.43 386.701 841.601 386.885 840.937C386.976 840.605 387.079 840.303 387.193 840.052C387.302 839.814 387.443 839.572 387.636 839.406C388.029 839.058 388.448 838.894 388.959 838.883C389.427 838.873 389.964 838.993 390.6 839.16ZM388.981 839.883C388.709 839.889 388.516 839.962 388.296 840.157L388.287 840.165C388.262 840.187 388.193 840.269 388.103 840.466C388.018 840.653 387.932 840.9 387.848 841.204C387.681 841.81 387.533 842.592 387.411 843.451C387.168 845.158 387.034 847.117 387.032 848.488C387.586 848.489 388.482 848.506 389.354 848.523L389.438 848.524C390.286 848.541 391.099 848.556 391.559 848.557C391.561 848.553 391.563 848.549 391.565 848.543L392.174 844.281C392.204 844.069 392.367 843.899 392.578 843.86C392.789 843.821 393.002 843.921 393.106 844.109C393.422 844.678 393.751 845.026 394.191 845.173C394.306 845.212 394.43 845.216 394.646 845.216C395.277 845.216 395.918 844.775 396.484 844.152C396.982 843.603 397.345 842.997 397.499 842.707C397.515 842.398 397.364 842.058 397.126 841.922C396.902 841.795 396.523 841.893 396.378 842.142C396.157 842.547 395.866 842.964 395.584 843.301C395.442 843.47 395.296 843.626 395.156 843.753C395.027 843.871 394.867 843.998 394.696 844.066C394.486 844.15 394.246 844.083 394.11 843.902C393.975 843.722 393.82 843.425 393.693 843.163C393.563 842.893 393.44 842.614 393.367 842.431C393.126 841.88 392.923 841.434 392.692 841.098C392.466 840.771 392.25 840.603 392.002 840.541C391.973 840.534 391.944 840.524 391.917 840.511C391.914 840.51 391.902 840.506 391.88 840.499C391.842 840.488 391.791 840.473 391.727 840.456C391.6 840.421 391.436 840.379 391.263 840.337C390.916 840.253 390.549 840.169 390.389 840.137C390.379 840.135 390.369 840.133 390.36 840.131C389.706 839.959 389.293 839.876 388.981 839.883Z" fill="#010202"/>
<path fill-rule="evenodd" clip-rule="evenodd" d="M391.797 833.423C390.564 833.142 389.268 833.931 388.987 835.223C388.704 836.524 389.491 837.756 390.787 838.038C392.088 838.321 393.32 837.534 393.601 836.238C393.884 834.937 393.098 833.705 391.802 833.424L391.797 833.423ZM392.016 832.447C390.25 832.047 388.411 833.168 388.01 835.011C387.611 836.846 388.734 838.615 390.574 839.015C392.41 839.414 394.178 838.291 394.578 836.451C394.977 834.616 393.856 832.848 392.016 832.447Z" fill="#010202"/>
<path fill-rule="evenodd" clip-rule="evenodd" d="M395.5 832.031C395.5 828.895 398.559 826.5 402.107 826.5C405.656 826.5 408.715 828.894 408.715 832.031C408.715 835.168 405.656 837.563 402.108 837.563C401.439 837.565 400.772 837.48 400.125 837.311L397.027 838.753C397.027 838.753 397.027 838.753 397.027 838.753C396.732 838.891 396.381 838.827 396.153 838.594C395.926 838.36 395.872 838.008 396.018 837.716C396.018 837.716 396.018 837.717 396.018 837.716L397.067 835.625C396.09 834.691 395.521 833.401 395.5 832.039L395.5 832.031ZM396.5 832.027C396.52 833.228 397.069 834.359 398.001 835.117L398.313 835.37L397.213 837.563L400.039 836.248L400.218 836.3C400.832 836.476 401.468 836.565 402.106 836.563L402.107 836.563C405.294 836.563 407.715 834.444 407.715 832.031C407.715 829.619 405.294 827.5 402.107 827.5C398.923 827.5 396.503 829.617 396.5 832.027ZM402.15 831.075L401.839 831.883L400.981 831.928L401.653 832.473L401.429 833.306L402.154 832.84L402.879 833.306L402.656 832.473L403.326 831.929L402.46 831.883L402.15 831.075ZM401.83 829.451C401.901 829.405 402.013 829.354 402.154 829.354C402.294 829.354 402.41 829.404 402.492 829.461C402.565 829.512 402.658 829.601 402.707 829.737L403.161 830.919L404.423 830.985C404.676 830.994 404.908 831.17 404.973 831.43C405.023 831.63 404.971 831.85 404.813 832.007L404.795 832.026L403.79 832.841L404.12 834.072C404.144 834.168 404.149 834.285 404.108 834.407C404.067 834.531 403.988 834.629 403.898 834.697L403.886 834.705L403.875 834.713C403.794 834.767 403.692 834.806 403.577 834.813C403.474 834.82 403.329 834.799 403.2 834.702L402.154 834.029L401.112 834.699C401.072 834.73 401.018 834.764 400.949 834.787C400.896 834.805 400.85 834.811 400.818 834.814C400.803 834.815 400.79 834.815 400.783 834.815L400.767 834.815C400.676 834.815 400.604 834.793 400.564 834.778C400.525 834.763 400.492 834.746 400.487 834.744L400.46 834.73L400.434 834.713C400.311 834.631 400.243 834.517 400.21 834.428C400.175 834.335 400.154 834.209 400.188 834.072L400.19 834.064L400.519 832.841L399.561 832.064C399.288 831.886 399.291 831.57 399.326 831.43C399.391 831.17 399.623 830.994 399.876 830.985L401.138 830.919L401.614 829.68L401.644 829.633C401.693 829.561 401.757 829.498 401.83 829.451Z" fill="black"/>
</g>
<g clip-path="url(#clip12_1755_2442)">
<path d="M243.999 850C237.384 850 232 844.616 232 837.999C232 831.382 237.384 826 243.999 826C250.614 826 255.998 831.384 255.998 837.999C255.998 844.614 250.616 850 243.999 850ZM243.999 827.049C237.961 827.049 233.049 831.961 233.049 837.999C233.049 844.037 237.961 848.949 243.999 848.949C250.037 848.949 254.949 844.037 254.949 837.999C254.951 831.961 250.039 827.049 243.999 827.049Z" fill="black"/>
<path d="M244.008 846.947C240.636 846.947 237.473 844.845 236.291 841.491C236.242 841.353 236.218 841.208 236.218 841.061C236.218 840.716 236.352 840.393 236.595 840.15C236.838 839.907 237.164 839.772 237.508 839.772H250.495C250.642 839.772 250.786 839.797 250.925 839.846C251.251 839.961 251.511 840.195 251.66 840.507C251.808 840.818 251.828 841.168 251.712 841.493C250.885 843.838 249.067 845.656 246.722 846.483C245.823 846.796 244.908 846.947 244.008 846.947ZM237.506 840.82C237.419 840.82 237.363 840.863 237.337 840.89C237.311 840.916 237.267 840.974 237.267 841.059C237.267 841.087 237.272 841.113 237.281 841.14C238.589 844.845 242.667 846.796 246.37 845.49C248.414 844.77 249.999 843.184 250.721 841.14C250.751 841.057 250.728 840.989 250.712 840.956C250.696 840.923 250.656 840.862 250.576 840.834C250.549 840.825 250.523 840.82 250.495 840.82H237.506Z" fill="black"/>
<path d="M246.295 836.995C246.237 836.995 246.178 836.985 246.12 836.966C245.847 836.87 245.704 836.569 245.8 836.296C246.085 835.488 246.711 834.862 247.519 834.577C248.984 834.06 250.598 834.831 251.118 836.296C251.214 836.569 251.071 836.87 250.798 836.966C250.525 837.062 250.224 836.919 250.128 836.646C249.803 835.726 248.79 835.242 247.869 835.567C247.362 835.745 246.968 836.139 246.79 836.646C246.713 836.861 246.512 836.995 246.295 836.995Z" fill="black"/>
<path d="M241.705 836.995C241.488 836.995 241.287 836.861 241.21 836.646C241.053 836.2 240.731 835.841 240.304 835.639C239.878 835.434 239.397 835.409 238.951 835.567C238.444 835.745 238.05 836.139 237.872 836.646C237.776 836.919 237.475 837.062 237.202 836.966C236.929 836.87 236.786 836.569 236.882 836.296C237.167 835.488 237.795 834.862 238.601 834.577C240.066 834.06 241.68 834.831 242.2 836.296C242.296 836.569 242.153 836.87 241.88 836.966C241.822 836.985 241.763 836.995 241.705 836.995Z" fill="black"/>
</g>
<g clip-path="url(#clip13_1755_2442)">
<path d="M90.372 828.708C90.2836 828.677 90.1912 828.661 90.0976 828.661H88.2953C88.0115 828.661 87.7497 828.806 87.5972 829.042L86.8225 828.267C86.4965 827.943 86.063 827.764 85.6024 827.764C85.1407 827.764 84.7067 827.944 84.3803 828.27L78.3348 834.316C78.0519 834.526 77.9326 834.893 78.0378 835.23C78.1467 835.579 78.4653 835.814 78.8311 835.814H79.8356V840.262C79.8356 841.215 80.6109 841.991 81.564 841.991H82.5926L83.5366 841.047H81.564C81.1315 841.047 80.7795 840.695 80.7795 840.263V834.87H79.1164L85.0479 828.937C85.196 828.789 85.393 828.708 85.6027 828.708C85.8116 828.708 86.0066 828.787 86.1518 828.932L88.3007 831.033L88.4006 829.606H89.7283L90.5597 828.774L90.372 828.708Z" fill="black"/>
<path d="M101.704 832.583L100.169 831.052V827.729C100.169 827.271 99.7963 826.898 99.3382 826.898H97.0944C96.8106 826.898 96.5489 827.042 96.3963 827.278L95.6217 826.504C95.2955 826.179 94.8622 826 94.4014 826C93.9397 826 93.5057 826.18 93.1793 826.507L87.134 832.553C86.851 832.763 86.7317 833.13 86.8371 833.467C86.9459 833.816 87.2648 834.05 87.6304 834.05H88.6348V835.97L89.0119 835.715C89.1218 835.64 89.2189 835.605 89.3318 835.565C89.3855 835.545 89.441 835.525 89.5023 835.5L89.579 835.467V833.106H87.9155L93.847 827.174C93.9952 827.026 94.1923 826.944 94.402 826.944C94.6109 826.944 94.8056 827.023 94.95 827.167L97.2074 829.425V827.842H99.2252V831.443L100.892 833.106H99.2252V838.499C99.2252 838.931 98.8732 839.283 98.4407 839.283H96.1369V840.227H98.4407C99.3938 840.227 100.169 839.452 100.169 838.499V834.05H101.17C101.526 834.05 101.842 833.823 101.957 833.486C102.066 833.164 101.964 832.802 101.704 832.583Z" fill="black"/>
<path d="M93.0247 842.835H90.3481C89.8692 842.835 89.4796 843.199 89.4796 843.647V845.941C89.4796 846.389 89.8692 846.753 90.3481 846.753H93.0247C93.5036 846.753 93.8932 846.389 93.8932 845.941V843.647C93.8932 843.199 93.5036 842.835 93.0247 842.835ZM92.949 843.779V845.809H90.4236V843.779H92.949Z" fill="black"/>
<path d="M97.3191 842.321L95.7837 840.789V837.467C95.7837 837.009 95.4108 836.636 94.9527 836.636H92.709C92.4252 836.636 92.1634 836.78 92.0108 837.016L91.2362 836.242C91.0856 836.092 90.9117 835.972 90.7195 835.887C90.4981 835.788 90.2615 835.738 90.0159 835.738C89.7835 835.738 89.5581 835.783 89.3462 835.872C89.1398 835.959 88.954 836.084 88.7939 836.245L82.7485 842.291C82.4656 842.501 82.3463 842.868 82.4515 843.205C82.5604 843.554 82.879 843.788 83.2448 843.788H84.2492V848.237C84.2492 849.19 85.0246 849.965 85.9777 849.965H94.055C95.0081 849.965 95.7835 849.19 95.7835 848.237V843.788H96.784C97.14 843.788 97.4564 843.562 97.571 843.224C97.6803 842.902 97.5791 842.54 97.3191 842.321ZM94.8398 842.844V848.237C94.8398 848.669 94.4879 849.021 94.0553 849.021H85.978C85.5454 849.021 85.1935 848.669 85.1935 848.237V842.844H83.5302L89.4616 836.912C89.4663 836.907 89.4711 836.903 89.4766 836.898L89.4804 836.894C89.6262 836.757 89.8166 836.682 90.0165 836.682C90.2254 836.682 90.4201 836.761 90.5646 836.905L92.822 839.163V837.58H94.8397V841.181L96.5066 842.844H94.8398Z" fill="black"/>
</g>
<path fill-rule="evenodd" clip-rule="evenodd" d="M543.574 832.626C542.897 832.626 542.248 832.895 541.769 833.373C541.29 833.852 541.021 834.502 541.021 835.179V845.902C541.021 846.579 541.29 847.229 541.769 847.707C542.248 848.186 542.897 848.455 543.574 848.455H558.894C559.571 848.455 560.22 848.186 560.699 847.707C561.178 847.229 561.447 846.579 561.447 845.902V843.37C561.447 843.088 561.675 842.86 561.957 842.86C562.239 842.86 562.468 843.088 562.468 843.37V845.902C562.468 846.85 562.091 847.759 561.421 848.43C560.751 849.1 559.842 849.477 558.894 849.477H543.574C542.626 849.477 541.717 849.1 541.047 848.43C540.377 847.759 540 846.85 540 845.902V835.179C540 834.231 540.377 833.322 541.047 832.651C541.717 831.981 542.626 831.604 543.574 831.604H558.894C559.842 831.604 560.751 831.981 561.421 832.651C562.091 833.322 562.468 834.231 562.468 835.179V837.711C562.468 837.993 562.239 838.221 561.957 838.221C561.675 838.221 561.447 837.993 561.447 837.711V835.179C561.447 834.502 561.178 833.852 560.699 833.373C560.22 832.895 559.571 832.626 558.894 832.626H543.574Z" fill="black"/>
<path fill-rule="evenodd" clip-rule="evenodd" d="M555 826.005C555.267 825.986 555.536 826.02 555.791 826.105C556.045 826.19 556.281 826.324 556.483 826.5C556.686 826.676 556.852 826.89 556.972 827.13L559.35 831.887C559.476 832.139 559.374 832.446 559.122 832.572C558.87 832.698 558.563 832.596 558.437 832.343L556.058 827.586L556.058 827.586C555.998 827.466 555.915 827.359 555.814 827.271C555.713 827.183 555.595 827.116 555.468 827.074C555.34 827.031 555.206 827.014 555.072 827.024C554.938 827.033 554.808 827.069 554.688 827.129L554.688 827.129L543.803 832.572C543.551 832.698 543.244 832.596 543.118 832.343C542.992 832.091 543.094 831.784 543.346 831.658L554.231 826.216C554.231 826.216 554.231 826.216 554.231 826.216C554.471 826.096 554.732 826.024 555 826.005Z" fill="black"/>
<path fill-rule="evenodd" clip-rule="evenodd" d="M557.394 839.647C557.157 839.647 556.929 839.741 556.762 839.909C556.594 840.076 556.5 840.304 556.5 840.541C556.5 840.717 556.552 840.89 556.651 841.037C556.749 841.184 556.888 841.299 557.052 841.366C557.215 841.434 557.395 841.452 557.568 841.417C557.741 841.383 557.901 841.297 558.025 841.172C558.15 841.047 558.236 840.888 558.27 840.715C558.305 840.542 558.287 840.362 558.219 840.199C558.152 840.035 558.037 839.896 557.89 839.798C557.743 839.699 557.57 839.647 557.394 839.647Z" fill="black"/>
<path fill-rule="evenodd" clip-rule="evenodd" d="M554.5 839C554.5 838.172 555.172 837.5 556 837.5H563C563.828 837.5 564.5 838.172 564.5 839V842C564.5 842.828 563.828 843.5 563 843.5H556C555.172 843.5 554.5 842.828 554.5 842V839ZM556 838.5C555.724 838.5 555.5 838.724 555.5 839V842C555.5 842.276 555.724 842.5 556 842.5H563C563.276 842.5 563.5 842.276 563.5 842V839C563.5 838.724 563.276 838.5 563 838.5H556Z" fill="black"/>
<path fill-rule="evenodd" clip-rule="evenodd" d="M714.887 846.707H697.113C696.546 846.707 696.045 847.001 695.743 847.45H716.257C715.955 847.001 715.454 846.707 714.887 846.707ZM717.34 847.45C716.956 846.43 716.002 845.707 714.887 845.707H697.113C695.998 845.707 695.044 846.43 694.66 847.45C694.544 847.76 694.48 848.097 694.48 848.45H717.52C717.52 848.097 717.456 847.76 717.34 847.45Z" fill="black"/>
<path fill-rule="evenodd" clip-rule="evenodd" d="M702.948 828.75C702.948 828.336 703.271 828 703.668 828H708.334C708.732 828 709.054 828.336 709.054 828.75C709.054 829.164 708.732 829.5 708.334 829.5H703.668C703.271 829.5 702.948 829.164 702.948 828.75Z" fill="black"/>
<path fill-rule="evenodd" clip-rule="evenodd" d="M706 831.856C703.319 831.856 700.728 832.863 698.702 834.692C696.676 836.52 695.351 839.048 694.97 841.812C694.95 841.956 694.96 842.102 695 842.242C695.039 842.381 695.107 842.51 695.199 842.619C695.29 842.729 695.403 842.817 695.53 842.878C695.657 842.938 695.795 842.969 695.934 842.969L716.067 842.971V842.971C716.206 842.971 716.345 842.939 716.471 842.879C716.598 842.819 716.711 842.73 716.802 842.621C716.893 842.511 716.961 842.382 717 842.242C717.04 842.103 717.05 841.956 717.03 841.812C716.649 839.048 715.324 836.52 713.298 834.692C711.272 832.863 708.681 831.856 706 831.856ZM698.073 833.936C700.274 831.949 703.088 830.856 706 830.856C708.912 830.856 711.726 831.949 713.927 833.936C716.127 835.922 717.566 838.668 717.981 841.671C718.02 841.956 718 842.248 717.921 842.524C717.843 842.801 717.709 843.057 717.528 843.275C717.347 843.493 717.123 843.668 716.871 843.788C716.619 843.908 716.346 843.971 716.069 843.971L716.068 843.971L695.934 843.969C695.657 843.969 695.383 843.907 695.131 843.787C694.879 843.667 694.655 843.493 694.474 843.275C694.292 843.057 694.158 842.801 694.079 842.525C694.001 842.248 693.98 841.957 694.019 841.672L694.019 841.671C694.433 838.668 695.873 835.922 698.073 833.936Z" fill="black"/>
<path fill-rule="evenodd" clip-rule="evenodd" d="M708.894 834.129C708.83 834.397 708.986 834.668 709.243 834.735C709.907 834.908 710.64 835.392 711.309 835.972C711.97 836.545 712.524 837.17 712.825 837.562C712.991 837.778 713.293 837.813 713.5 837.641C713.707 837.468 713.74 837.153 713.575 836.938C713.236 836.497 712.638 835.822 711.923 835.203C711.216 834.591 710.349 833.992 709.476 833.765C709.219 833.698 708.959 833.861 708.894 834.129Z" fill="black"/>
<path fill-rule="evenodd" clip-rule="evenodd" d="M395 140.516C395 139.688 395.672 139 396.5 139H399.5C400.328 139 401 139.688 401 140.516V141.156C401.252 141.188 401.48 141.217 401.672 141.25C402.307 141.364 402.598 141.492 402.674 141.525L402.688 141.531V141.516C402.697 141.518 402.71 141.524 402.723 141.53C402.738 141.537 402.754 141.544 402.766 141.547L402.787 141.553C403.458 141.742 404.667 142.082 405.141 143.156C405.326 143.582 405.85 144.914 406.391 146.312C406.402 146.343 406.422 146.391 406.445 146.443L406.445 146.443L406.469 146.5H407.953C408.695 146.5 409.246 146.748 409.578 147.125C409.91 147.502 410 147.949 410 148.297C410 148.686 409.797 149.074 409.484 149.266C409.172 149.457 408.822 149.5 408.453 149.5H407.625C407.707 149.711 407.969 150.406 407.969 150.406L408 150.5V156.5C408 157.322 407.322 158 406.5 158H404.5C403.678 158 403 157.322 403 156.5V156H393V156.5C393 157.322 392.322 158 391.5 158H389.5C388.678 158 388 157.322 388 156.5V150.5L388.031 150.406C388.031 150.406 388.297 149.709 388.375 149.5H387.547C387.178 149.5 386.828 149.457 386.516 149.266C386.203 149.074 386 148.686 386 148.297C386 147.949 386.09 147.502 386.422 147.125C386.754 146.748 387.305 146.5 388.047 146.5H389.531C389.652 146.188 389.771 145.872 389.885 145.567C390.014 145.224 390.137 144.897 390.25 144.609L390.265 144.572C390.534 143.885 390.719 143.414 390.844 143.172V143.156C391.346 142.181 392.406 141.825 393.145 141.577L393.234 141.547C393.234 141.547 393.295 141.533 393.297 141.531L393.306 141.527C393.369 141.5 393.674 141.366 394.328 141.25C394.52 141.217 394.748 141.188 395 141.156V140.516ZM399.5 140H396.5C396.225 140 396 140.219 396 140.516V141.062C396.564 141.025 397.211 141 398 141C398.789 141 399.436 141.025 400 141.062V140.516C400 140.219 399.775 140 399.5 140ZM398 142C399.727 142 400.836 142.131 401.5 142.25C402.164 142.369 402.328 142.453 402.328 142.453L402.375 142.469L402.406 142.484C403.016 142.658 403.998 143.059 404.219 143.562C404.344 143.849 404.789 144.989 405.246 146.157L405.453 146.688L405.462 146.711C405.588 147.031 405.785 147.533 405.719 147.844C405.684 148.004 405.623 148.119 405.391 148.25C405.158 148.381 404.721 148.5 404 148.5H392C391.279 148.5 390.842 148.381 390.609 148.25C390.377 148.119 390.316 148.004 390.281 147.844C390.215 147.533 390.412 147.031 390.538 146.711L390.547 146.688L390.516 146.672L390.679 146.245C390.853 145.79 391.025 145.342 391.172 144.969C391.447 144.268 391.693 143.705 391.734 143.625C392.012 143.086 392.877 142.719 393.609 142.469H393.641L393.672 142.453C393.672 142.453 393.836 142.369 394.5 142.25C395.164 142.131 396.273 142 398 142ZM389.125 147.5H388.047C387.504 147.5 387.293 147.645 387.172 147.781C387.051 147.918 387 148.115 387 148.297C387 148.379 387 148.398 387.009 148.405C387.012 148.407 387.016 148.408 387.02 148.41C387.027 148.412 387.036 148.415 387.047 148.422C387.094 148.451 387.268 148.5 387.547 148.5H388.75C388.813 148.334 388.855 148.22 388.896 148.108L388.896 148.108L388.896 148.108L388.896 148.108L388.896 148.108L388.897 148.108L388.897 148.108L388.897 148.108C388.956 147.948 389.013 147.793 389.125 147.5ZM406.844 147.5H407.953C408.496 147.5 408.707 147.645 408.828 147.781C408.949 147.918 409 148.115 409 148.297C409 148.379 409 148.398 408.991 148.405C408.988 148.407 408.984 148.408 408.98 148.41C408.973 148.412 408.964 148.415 408.953 148.422C408.906 148.451 408.73 148.5 408.453 148.5H407.234C407.176 148.351 407.134 148.245 407.096 148.146C407.027 147.973 406.968 147.822 406.844 147.5ZM390.125 149.125C389.967 149.035 389.834 148.918 389.719 148.797C389.509 149.358 389.227 150.094 389.087 150.461L389.086 150.461L389.086 150.461L389.086 150.463L389.086 150.464C389.036 150.593 389.004 150.676 389 150.688V154.578C389 154.812 389.195 155 389.453 155H406.547C406.805 155 407 154.811 407 154.578V150.688C406.99 150.664 406.865 150.333 406.705 149.912L406.703 149.906L406.702 149.905L406.701 149.901C406.568 149.552 406.413 149.143 406.281 148.797C406.166 148.918 406.033 149.035 405.875 149.125C405.424 149.379 404.826 149.5 404 149.5H392C391.174 149.5 390.576 149.379 390.125 149.125ZM391 150C390.178 150 389.5 150.678 389.5 151.5C389.5 151.943 389.684 152.338 389.938 152.609C390.191 152.881 390.498 153.064 390.797 153.234C390.895 153.29 390.986 153.342 391.071 153.392L391.071 153.392L391.071 153.392L391.071 153.392L391.071 153.392C391.357 153.557 391.587 153.69 391.844 153.797C392.178 153.936 392.537 154 393 154C394.098 154 395 153.1 395 152C395 150.9 394.098 150 393 150H391ZM401 152C401 150.9 401.902 150 403 150H405C405.822 150 406.5 150.678 406.5 151.5C406.5 151.943 406.316 152.338 406.062 152.609C405.809 152.881 405.502 153.064 405.203 153.234C405.106 153.29 405.016 153.342 404.93 153.391L404.93 153.391L404.929 153.392L404.929 153.392L404.929 153.392C404.643 153.557 404.413 153.69 404.156 153.797C403.822 153.936 403.463 154 403 154C401.902 154 401 153.1 401 152ZM393 151C393.559 151 394 151.441 394 152C394 152.559 393.559 153 393 153C392.625 153 392.439 152.967 392.219 152.875C392.065 152.811 391.885 152.707 391.639 152.564L391.639 152.564L391.639 152.564L391.639 152.564L391.639 152.564C391.533 152.503 391.415 152.435 391.281 152.359C391 152.201 390.793 152.051 390.672 151.922C390.551 151.793 390.5 151.709 390.5 151.5C390.5 151.219 390.719 151 391 151H393ZM405.5 151.5C405.5 151.219 405.281 151 405 151H403C402.441 151 402 151.441 402 152C402 152.559 402.441 153 403 153C403.375 153 403.561 152.967 403.781 152.875C403.935 152.811 404.115 152.707 404.361 152.564L404.361 152.564L404.361 152.564L404.361 152.564C404.467 152.503 404.585 152.435 404.719 152.359C405 152.201 405.207 152.051 405.328 151.922C405.449 151.793 405.5 151.709 405.5 151.5ZM389 155.922C389.145 155.969 389.295 156 389.453 156H392V156.5C392 156.781 391.781 157 391.5 157H389.5C389.219 157 389 156.781 389 156.5V155.922ZM407 156.5V155.922C406.855 155.969 406.705 156 406.547 156H404V156.5C404 156.781 404.219 157 404.5 157H406.5C406.781 157 407 156.781 407 156.5Z" fill="black"/>
<g clip-path="url(#clip14_1755_2442)">
<path fill-rule="evenodd" clip-rule="evenodd" d="M387.565 294.087C387.565 292.94 388.505 292 389.652 292C390.8 292 391.739 292.94 391.739 294.087C391.739 295.234 390.8 296.174 389.652 296.174C388.505 296.174 387.565 295.234 387.565 294.087ZM404.261 294.087C404.261 292.94 405.2 292 406.348 292C407.495 292 408.435 292.94 408.435 294.087C408.435 295.234 407.495 296.174 406.348 296.174C405.2 296.174 404.261 295.234 404.261 294.087ZM389.652 293.043C390.235 293.043 390.696 293.504 390.696 294.087C390.696 294.67 390.235 295.13 389.652 295.13C389.069 295.13 388.609 294.67 388.609 294.087C388.609 293.504 389.069 293.043 389.652 293.043ZM407.391 294.087C407.391 293.504 406.931 293.043 406.348 293.043C405.765 293.043 405.304 293.504 405.304 294.087C405.304 294.67 405.765 295.13 406.348 295.13C406.931 295.13 407.391 294.67 407.391 294.087ZM389.652 296.696C388.505 296.696 387.565 297.635 387.565 298.783L387.569 303.609C387.57 303.616 387.571 303.623 387.571 303.63C387.572 303.637 387.572 303.644 387.573 303.651C387.663 304.728 388.572 305.565 389.652 305.565H391.994L391.916 306.087H388.05C387.512 306.087 387.076 305.677 387.044 305.139V297.739C387.046 297.599 386.991 297.462 386.891 297.362C386.791 297.262 386.654 297.207 386.514 297.209C386.226 297.215 385.996 297.452 386 297.739V305.168V305.198C386.043 305.901 386.442 306.503 387.015 306.841L386.526 311.247C386.493 311.533 386.699 311.791 386.986 311.822C387.272 311.855 387.531 311.649 387.561 311.361L388.034 307.128C388.036 307.128 388.038 307.129 388.041 307.129C388.044 307.13 388.047 307.13 388.05 307.13H391.76L391.224 310.705C391.197 310.88 391.26 311.056 391.393 311.174C391.393 311.174 391.635 311.376 392.031 311.531C392.426 311.683 393.015 311.826 393.826 311.826C394.637 311.826 395.226 311.683 395.622 311.531C395.749 311.48 395.787 311.453 395.837 311.418L395.837 311.418C395.857 311.403 395.88 311.387 395.911 311.368C395.943 311.388 395.965 311.404 395.985 311.419C396.032 311.453 396.069 311.48 396.19 311.529C396.584 311.683 397.175 311.826 398 311.826C398.825 311.826 399.416 311.683 399.81 311.529C399.928 311.483 399.965 311.456 400.01 311.422L400.01 311.422C400.031 311.407 400.054 311.39 400.087 311.37C400.121 311.39 400.143 311.407 400.164 311.422C400.209 311.456 400.246 311.483 400.364 311.529C400.758 311.683 401.349 311.826 402.174 311.826C402.999 311.826 403.59 311.683 403.984 311.529C404.377 311.374 404.62 311.164 404.62 311.164C404.744 311.046 404.803 310.874 404.777 310.705L404.241 307.13H407.95L407.954 307.13L407.957 307.13L407.959 307.129C407.962 307.129 407.965 307.128 407.968 307.128L408.437 311.361C408.469 311.649 408.728 311.855 409.016 311.824C409.301 311.791 409.507 311.533 409.476 311.247L408.987 306.841C409.558 306.503 409.957 305.901 410 305.198V305.168V297.739C410.002 297.599 409.947 297.462 409.847 297.362C409.747 297.262 409.611 297.207 409.47 297.209C409.183 297.215 408.952 297.452 408.957 297.739V305.139C408.924 305.677 408.488 306.087 407.95 306.087H404.084L404.006 305.565H406.348C407.428 305.565 408.337 304.728 408.427 303.651C408.429 303.637 408.429 303.623 408.429 303.609L408.435 298.783C408.435 297.635 407.495 296.696 406.348 296.696C405.209 296.696 404.385 297.639 404.263 298.726C404.261 298.744 404.261 298.762 404.261 298.783V302.435H403.535L403.211 300.27C403.173 300.016 402.955 299.826 402.696 299.826H393.304C393.046 299.826 392.827 300.016 392.789 300.27L392.465 302.435H392.424H391.739V298.783C391.739 298.762 391.739 298.744 391.737 298.726C391.615 297.639 390.791 296.696 389.652 296.696ZM390.696 298.834C390.618 298.163 390.239 297.739 389.652 297.739C389.069 297.739 388.609 298.2 388.609 298.783L388.613 303.568C388.662 304.112 389.106 304.522 389.652 304.522H392.151L392.308 303.478H391.217C390.93 303.478 390.696 303.244 390.696 302.957V298.834ZM406.348 297.739C406.931 297.739 407.391 298.2 407.391 298.783L407.385 303.568C407.338 304.112 406.894 304.522 406.348 304.522H403.849L403.692 303.478H404.783C405.07 303.478 405.304 303.244 405.304 302.957V298.834C405.382 298.163 405.761 297.739 406.348 297.739ZM402.247 300.87H393.753L392.308 310.505C392.325 310.514 392.331 310.519 392.337 310.523C392.348 310.53 392.355 310.535 392.41 310.556C392.683 310.664 393.137 310.783 393.826 310.783C394.515 310.783 394.969 310.664 395.243 310.556C395.295 310.537 395.325 310.522 395.352 310.508C395.365 310.502 395.377 310.496 395.391 310.489V307.652C395.387 307.365 395.618 307.128 395.905 307.122C396.046 307.12 396.182 307.175 396.282 307.275C396.382 307.375 396.437 307.512 396.435 307.652V310.493C396.448 310.5 396.46 310.506 396.471 310.512C396.497 310.525 396.523 310.539 396.573 310.558C396.838 310.664 397.293 310.783 398 310.783C398.707 310.783 399.16 310.664 399.427 310.558C399.477 310.539 399.503 310.525 399.529 310.512C399.54 310.506 399.552 310.5 399.565 310.493V308.696C399.561 308.408 399.791 308.172 400.079 308.166C400.219 308.164 400.356 308.219 400.456 308.319C400.556 308.418 400.611 308.555 400.609 308.696V310.493C400.622 310.5 400.634 310.506 400.645 310.512C400.671 310.525 400.697 310.539 400.747 310.558C401.012 310.664 401.467 310.783 402.174 310.783C402.881 310.783 403.334 310.664 403.601 310.558C403.65 310.539 403.658 310.533 403.665 310.527C403.67 310.523 403.676 310.52 403.692 310.512L402.247 300.87Z" fill="black"/>
</g>
<g clip-path="url(#clip15_1755_2442)">
<path d="M557 309.7C560.848 310.025 563.5 310.71 563.5 311.5C563.5 312.6 558.352 313.5 552 313.5C545.648 313.5 540.5 312.6 540.5 311.5C540.5 310.71 543.135 310.027 546.958 309.7" stroke="black" stroke-linecap="round" stroke-linejoin="round"/>
<path fill-rule="evenodd" clip-rule="evenodd" d="M560.5 297C561.743 297 562.75 295.993 562.75 294.75C562.75 293.507 561.743 292.5 560.5 292.5C559.257 292.5 558.25 293.507 558.25 294.75C558.25 295.993 559.257 297 560.5 297Z" stroke="black" stroke-linecap="round" stroke-linejoin="round"/>
<path fill-rule="evenodd" clip-rule="evenodd" d="M560.5 298C558.843 298 557.5 299.343 557.5 301V303.5H559L559.5 308H561.5L562 303.5H563.5V301C563.5 299.343 562.157 298 560.5 298Z" stroke="black" stroke-linecap="round" stroke-linejoin="round"/>
<path fill-rule="evenodd" clip-rule="evenodd" d="M543.5 297C544.743 297 545.75 295.993 545.75 294.75C545.75 293.507 544.743 292.5 543.5 292.5C542.257 292.5 541.25 293.507 541.25 294.75C541.25 295.993 542.257 297 543.5 297Z" stroke="black" stroke-linecap="round" stroke-linejoin="round"/>
<path fill-rule="evenodd" clip-rule="evenodd" d="M543.5 298C541.843 298 540.5 299.343 540.5 301V303.5H542L542.5 308H544.5L545 303.5H546.5V301C546.5 299.343 545.157 298 543.5 298Z" stroke="black" stroke-linecap="round" stroke-linejoin="round"/>
<path fill-rule="evenodd" clip-rule="evenodd" d="M552 296C553.519 296 554.75 294.769 554.75 293.25C554.75 291.731 553.519 290.5 552 290.5C550.481 290.5 549.25 291.731 549.25 293.25C549.25 294.769 550.481 296 552 296Z" stroke="black" stroke-linecap="round" stroke-linejoin="round"/>
<path fill-rule="evenodd" clip-rule="evenodd" d="M555.5 300.5C555.5 298.567 553.933 297 552 297C550.067 297 548.5 298.567 548.5 300.5V303.5H550.083L550.5 308.5H553.5L553.917 303.5H555.5V300.5Z" stroke="black" stroke-linecap="round" stroke-linejoin="round"/>
</g>
<g clip-path="url(#clip16_1755_2442)">
<path fill-rule="evenodd" clip-rule="evenodd" d="M706 291C699.649 291 694.5 295.253 694.5 300.5C694.554 303.146 695.804 305.625 697.9 307.241L695.5 313L701.872 309.359C703.207 309.784 704.599 310 706 310C712.351 310 717.5 305.747 717.5 300.5C717.5 295.253 712.351 291 706 291Z" stroke="black" stroke-linecap="round" stroke-linejoin="round"/>
</g>
<g clip-path="url(#clip17_1755_2442)">
<path fill-rule="evenodd" clip-rule="evenodd" d="M94 469.471C93.9963 469.241 94.1581 469.042 94.3824 469H94.4265H94.4706H99.1765C99.4357 469 99.6471 469.211 99.6471 469.471V471.353C99.6507 471.403 99.6452 471.452 99.6324 471.5C99.6452 471.607 99.6471 471.711 99.6471 471.824C99.6471 473.377 98.3768 474.647 96.8235 474.647C95.2702 474.647 94 473.377 94 471.824C94 471.732 94.011 471.645 94.0221 471.558L94.0294 471.5C94.011 471.452 94.0018 471.403 94 471.353V469.471ZM98.7059 469.941H94.9412V470.882H98.7059V469.941ZM98.7059 471.824C98.7059 472.868 97.8695 473.706 96.8235 473.706C95.7776 473.706 94.9412 472.868 94.9412 471.824H98.7059ZM78 474.176V473.235H84.1471C85.1728 473.235 86.0901 473.903 86.3971 474.882L88.6765 482.176C88.7757 482.494 88.8235 482.829 88.8235 483.162V491.118C88.8235 491.892 88.1857 492.529 87.4118 492.529H85.5294C84.7555 492.529 84.1176 491.892 84.1176 491.118V490.176H78V489.235H85.0588V491.118C85.0588 491.384 85.2629 491.588 85.5294 491.588H87.4118C87.6783 491.588 87.8824 491.384 87.8824 491.118V483.162C87.8824 482.923 87.8511 482.684 87.7794 482.456L87.2941 480.897C86.8915 481.379 86.1783 481.706 85.1765 481.706H78V480.765H85.1765C86.1801 480.765 86.5 480.476 86.6618 480.147C86.8217 479.822 86.7923 479.333 86.6912 478.985L85.5 475.162C85.3162 474.572 84.7665 474.176 84.1471 474.176H78ZM94.7059 475.118C93.2831 475.118 92.1176 476.283 92.1176 477.706V483.971C92.114 484 92.114 484.029 92.1176 484.059C92.1158 484.103 92.1213 484.149 92.1324 484.191C92.2022 484.903 92.8015 485.471 93.5294 485.471C93.6949 485.471 93.8511 485.436 94 485.382V490.882C94 491.787 94.7426 492.529 95.6471 492.529C96.1066 492.529 96.5239 492.336 96.8235 492.029C97.1232 492.336 97.5404 492.529 98 492.529C98.9044 492.529 99.6471 491.787 99.6471 490.882V485.382C99.796 485.436 99.9522 485.471 100.118 485.471C100.846 485.471 101.445 484.903 101.515 484.191C101.516 484.181 101.519 484.171 101.522 484.162C101.525 484.152 101.528 484.142 101.529 484.132C101.531 484.108 101.531 484.083 101.529 484.059V484.015V477.706C101.529 476.283 100.364 475.118 98.9412 475.118H98.5147C98.318 475.118 98.1415 475.241 98.0735 475.426L96.8235 478.912L95.5735 475.426C95.5055 475.241 95.329 475.118 95.1324 475.118H94.7059ZM94.8088 476.059H94.7059C93.7923 476.059 93.0588 476.794 93.0588 477.706V483.971C93.0625 484 93.0625 484.029 93.0588 484.059V484.088C93.0735 484.34 93.2739 484.529 93.5294 484.529C93.796 484.529 94 484.325 94 484.059V484.029V483.985V479.824C93.9945 479.599 94.1489 479.403 94.3676 479.353C94.5092 479.322 94.6581 479.357 94.7684 479.449C94.8805 479.54 94.9449 479.678 94.9412 479.824V490.882C94.9412 491.278 95.2518 491.588 95.6471 491.588C96.0184 491.588 96.318 491.316 96.3529 490.956V490.853C96.3511 490.833 96.3511 490.814 96.3529 490.794V485C96.3474 484.776 96.5018 484.579 96.7206 484.529C96.739 484.524 96.7592 484.518 96.7794 484.515C96.9136 484.502 97.0478 484.548 97.1471 484.642C97.2445 484.733 97.2996 484.864 97.2941 485V490.794V490.838V490.956C97.329 491.316 97.6287 491.588 98 491.588C98.3952 491.588 98.7059 491.278 98.7059 490.882V484.029C98.704 484.009 98.704 483.991 98.7059 483.971V479.824C98.7004 479.599 98.8548 479.403 99.0735 479.353C99.2151 479.322 99.364 479.357 99.4743 479.449C99.5864 479.54 99.6507 479.678 99.6471 479.824V483.971V484.015V484.059C99.6471 484.325 99.8511 484.529 100.118 484.529C100.368 484.529 100.566 484.347 100.588 484.103V484.059V484.029V483.985V477.706C100.588 476.794 99.8548 476.059 98.9412 476.059H98.8382L97.2647 480.456C97.1967 480.64 97.0202 480.763 96.8235 480.763C96.6268 480.763 96.4504 480.64 96.3824 480.456L94.8088 476.059ZM85.0588 483.588C84.6232 483.588 84.2849 483.649 83.9706 483.779C83.7289 483.88 83.5122 484.005 83.2436 484.16C83.1629 484.207 83.0775 484.257 82.9853 484.309C82.704 484.469 82.4154 484.642 82.1765 484.897C81.9375 485.153 81.7647 485.524 81.7647 485.941C81.7647 486.715 82.4026 487.353 83.1765 487.353H85.0588C86.0919 487.353 86.9412 486.506 86.9412 485.471C86.9412 484.436 86.0919 483.588 85.0588 483.588ZM86 485.471C86 484.945 85.5846 484.529 85.0588 484.529C84.7059 484.529 84.5312 484.561 84.3235 484.647C84.1784 484.707 84.009 484.805 83.7778 484.939C83.6781 484.997 83.5669 485.061 83.4412 485.132C83.1765 485.281 82.9816 485.423 82.8676 485.544C82.7537 485.665 82.7059 485.744 82.7059 485.941C82.7059 486.206 82.9118 486.412 83.1765 486.412H85.0588C85.5846 486.412 86 485.996 86 485.471Z" fill="black"/>
</g>
<g clip-path="url(#clip18_1755_2442)">
<path fill-rule="evenodd" clip-rule="evenodd" d="M253.735 469.795C253.874 469.339 254.275 469.06 254.71 469.03C254.854 469.021 255.001 469.043 255.145 469.09L255.16 469.06C255.167 469.062 255.171 469.068 255.175 469.075C255.179 469.081 255.182 469.088 255.19 469.09C255.197 469.093 255.205 469.091 255.212 469.09C255.22 469.089 255.227 469.087 255.235 469.09L255.22 469.12C255.826 469.324 256.139 469.964 255.91 470.545H255.925L255.91 470.575L251.17 484.945V484.975C250.602 486.417 250.615 487.527 250.915 488.425C251.215 489.323 251.822 490.026 252.52 490.57C253.915 491.659 255.625 492.055 255.625 492.055C255.857 492.115 256.009 492.334 255.983 492.572C255.957 492.811 255.76 492.992 255.52 493H246.355C245.046 493 244.088 492.647 243.46 492.07C242.832 491.492 242.56 490.705 242.56 489.97C242.56 488.254 243.632 486.865 244.885 485.815C246.061 484.829 247.412 484.129 248.38 483.715L253.72 469.84C253.727 469.832 253.731 469.821 253.735 469.81V469.795ZM254.92 469.99C254.894 469.986 254.869 469.982 254.845 469.975C254.789 469.951 254.657 469.988 254.635 470.08C254.631 470.095 254.626 470.11 254.62 470.125L249.37 483.79L250.42 484.18L255.01 470.245C255.014 470.23 255.019 470.215 255.025 470.2L255.025 470.2C255.049 470.144 255.012 470.012 254.92 469.99ZM239.725 470.965C238.236 470.965 236.896 471.741 236.08 472.99C235.791 472.99 235.6 473.029 235.36 473.125L236.035 473.89C236.107 473.866 236.165 473.855 236.222 473.845C236.28 473.835 236.338 473.824 236.41 473.8H236.65L236.755 473.605C237.331 472.549 238.48 471.88 239.68 471.88C241.216 471.88 242.566 472.941 242.95 474.43L243.04 474.805H243.52C244.431 474.805 245.155 475.429 245.395 476.245H246.4C246.16 474.949 245.101 473.941 243.805 473.845C243.181 472.116 241.596 470.965 239.725 470.965ZM232.855 471.88C232.874 471.874 232.894 471.869 232.915 471.865C232.966 471.861 233.016 471.867 233.065 471.88C233.095 471.887 233.127 471.897 233.155 471.91C233.166 471.919 233.176 471.929 233.185 471.94C233.217 471.951 233.247 471.966 233.275 471.985C233.286 472 233.296 472.015 233.305 472.03L233.305 472.03C233.316 472.039 233.326 472.049 233.335 472.06L239.53 479.575C239.579 479.566 239.629 479.56 239.68 479.56C240.209 479.56 240.64 479.991 240.64 480.52C240.64 481.049 240.209 481.48 239.68 481.48C239.151 481.48 238.72 481.049 238.72 480.52C238.72 480.4 238.739 480.291 238.78 480.19L236.68 477.64H233.05L235.315 492.04H242.8C243.089 492.424 243.471 492.76 244 493H234.88C234.64 493 234.449 492.801 234.4 492.61L232 477.25L232 477.227C232 477.092 231.999 476.967 232.09 476.83C232.186 476.734 232.336 476.68 232.48 476.68H235.9L234.49 474.97C234.233 475.326 234.049 475.746 233.965 476.2H233.005C233.106 475.459 233.431 474.799 233.89 474.25L232.585 472.66C232.476 472.531 232.442 472.352 232.499 472.193C232.553 472.034 232.69 471.914 232.855 471.88ZM238.285 476.68L239.05 477.64H246.31L245.155 484.99C245.539 484.701 245.866 484.461 246.25 484.27L247.36 477.25L247.36 477.227C247.36 477.091 247.361 476.965 247.27 476.875C247.174 476.731 247.024 476.68 246.88 476.68H238.285ZM250.105 485.08L248.77 484.585C247.87 484.969 246.574 485.648 245.5 486.55C244.364 487.504 243.52 488.661 243.52 489.97C243.52 490.484 243.691 490.982 244.105 491.365C244.394 491.629 244.814 491.854 245.425 491.965C245.089 491.536 244.936 491.007 244.93 490.495C244.915 489.188 245.659 487.857 246.445 487.045C246.527 486.957 246.64 486.904 246.76 486.895C246.962 486.876 247.156 486.989 247.24 487.174C247.324 487.36 247.283 487.579 247.135 487.72C246.527 488.348 245.881 489.578 245.89 490.48C245.896 490.93 246.032 491.273 246.355 491.545C246.677 491.817 247.257 492.04 248.23 492.04H248.53C248.335 491.854 248.17 491.657 248.05 491.44C247.622 490.675 247.641 489.835 247.81 489.19C247.857 488.982 248.033 488.83 248.245 488.815C248.402 488.804 248.554 488.869 248.654 488.993C248.753 489.115 248.785 489.278 248.74 489.43C248.62 489.889 248.62 490.478 248.89 490.96C249.16 491.442 249.694 491.886 250.885 492.04H253.225C253.105 491.978 252.986 491.922 252.868 491.867C252.553 491.718 252.243 491.572 251.92 491.32C251.117 490.694 250.375 489.848 250 488.725C249.662 487.714 249.644 486.486 250.105 485.08Z" fill="black"/>
</g>
<g clip-path="url(#clip19_1755_2442)">
<path d="M84.72 648C83.8031 648 82.9163 648.154 82.08 648.521C81.9188 648.585 81.8044 648.733 81.7838 648.907C81.7613 649.082 81.8363 649.252 81.9788 649.354C82.1194 649.457 82.3069 649.474 82.4644 649.399C83.1638 649.093 83.91 648.96 84.72 648.96C87.9188 648.96 90.48 651.521 90.48 654.72C90.48 657.919 87.9188 660.48 84.72 660.48C81.5213 660.48 78.96 657.919 78.96 654.72C78.96 653.261 79.5188 651.956 80.4 650.921V652.176C80.3981 652.348 80.4881 652.509 80.6381 652.597C80.7881 652.684 80.9719 652.684 81.1219 652.597C81.2719 652.509 81.3619 652.348 81.36 652.176V649.44H78.6244C78.4519 649.438 78.2906 649.528 78.2025 649.678C78.1163 649.828 78.1163 650.012 78.2025 650.162C78.2906 650.312 78.4519 650.402 78.6244 650.4H79.5806C78.6169 651.576 78 653.066 78 654.72C78 658.434 81.0056 661.44 84.72 661.44C88.4344 661.44 91.44 658.434 91.44 654.72C91.44 651.006 88.4344 648 84.72 648ZM96.24 648C95.715 648 95.28 648.435 95.28 648.96V649.92H90.705C90.9488 650.222 91.1663 650.544 91.3613 650.88H95.28V651.84C95.28 652.365 95.715 652.8 96.24 652.8H97.2C97.725 652.8 98.16 652.365 98.16 651.84V650.88H100.56V654.24H92.3756C92.385 654.399 92.4 654.557 92.4 654.72C92.4 654.883 92.385 655.041 92.3756 655.2H100.56V670.08H80.4V661.065C80.0569 660.831 79.74 660.566 79.44 660.283V670.08C79.44 670.637 79.8431 671.04 80.4 671.04H100.56C101.117 671.04 101.52 670.637 101.52 670.08V650.88C101.52 650.323 101.117 649.92 100.56 649.92H98.16V648.96C98.16 648.435 97.725 648 97.2 648H96.24ZM96.24 648.96H97.2V651.84H96.24V648.96ZM84.7125 650.392C84.4481 650.398 84.2363 650.616 84.24 650.88V654.643C84.225 654.746 84.2419 654.851 84.2925 654.943C84.3356 655.029 84.405 655.101 84.4894 655.147L86.3531 656.544C86.565 656.704 86.865 656.661 87.0244 656.447C87.1838 656.235 87.1406 655.935 86.9269 655.776L85.2 654.48V650.88C85.2019 650.751 85.1513 650.625 85.0594 650.533C84.9675 650.441 84.8419 650.391 84.7125 650.392ZM92.01 657.12C91.9013 657.452 91.7663 657.771 91.6144 658.08H93.36V660.48H90V663.84H87.6V661.836C87.2906 661.961 86.9681 662.062 86.64 662.147V663.84H84.24V662.376C83.9138 662.355 83.5931 662.319 83.28 662.259V668.16H97.68V657.12H92.01ZM94.32 658.08H96.72V660.48H94.32V658.08ZM90.96 661.44H93.36V663.84H90.96V661.44ZM94.32 661.44H96.72V663.84H94.32V661.44ZM84.24 664.8H86.64V667.2H84.24V664.8ZM87.6 664.8H90V667.2H87.6V664.8ZM90.96 664.8H93.36V667.2H90.96V664.8ZM94.32 664.8H96.72V667.2H94.32V664.8Z" fill="#0F0F0F"/>
</g>
<path d="M238.36 654.28V653.32H243.88V654.28H238.36Z" fill="black"/>
<path d="M238.36 661V660.04H240.28V661H238.36Z" fill="black"/>
<path d="M241.72 661V660.04H249.88V661H241.72Z" fill="black"/>
<path d="M238.36 663.88V662.92H240.28V663.88H238.36Z" fill="black"/>
<path d="M241.72 663.88V662.92H249.88V663.88H241.72Z" fill="black"/>
<path d="M238.36 666.76V665.8H240.28V666.76H238.36Z" fill="black"/>
<path d="M241.72 666.76V665.8H249.88V666.76H241.72Z" fill="black"/>
<path d="M246.12 651.04H247.12V655.04H251.12V656.04H246.12V651.04Z" fill="black"/>
<path fill-rule="evenodd" clip-rule="evenodd" d="M235 649H247.613L251.876 652.698L252.28 653.061V653.048L253.24 653.881V671.08H235V649ZM247.339 649.96H235.96V670.12H252.28V654.407L247.339 649.96Z" fill="black"/>
<path fill-rule="evenodd" clip-rule="evenodd" d="M401 1008H399.5H398.75H396.5H395.75H394.25V1014H389.75V1022.25H389V1023H407V1022.25H406.25V1012.74L401 1010.78V1008ZM395 1008.75H400.25V1022.25H399.5V1020.75H395.75V1022.25H395V1008.75ZM396.5 1021.5H398.75V1022.25H396.5V1021.5ZM405.5 1022.25H404.75V1020.75H401.75V1022.25H401V1011.58L405.5 1013.26V1022.25ZM390.5 1014.75H394.25V1022.25H393.5V1020.75H391.25V1022.25H390.5V1014.75ZM392 1021.5H392.75V1022.25H392V1021.5ZM402.5 1021.5H404V1022.25H402.5V1021.5ZM392 1019.25V1017.75H391.25V1019.25H392ZM393.5 1019.25V1017.75H392.75V1019.25H393.5ZM396.5 1019.25H397.25V1010.25H396.5V1019.25ZM404.75 1019.25V1018.5H401.75V1019.25H404.75ZM398 1019.25H398.75V1010.25H398V1019.25ZM404.75 1017.75V1017H401.75V1017.75H404.75ZM392 1017V1015.5H391.25V1017H392ZM393.5 1017V1015.5H392.75V1017H393.5ZM404.75 1016.25V1015.5H401.75V1016.25H404.75ZM404.75 1014.75V1014H401.75V1014.75H404.75Z" fill="black"/>
<path fill-rule="evenodd" clip-rule="evenodd" d="M248 1012H254V1009H248V1012ZM255 1008V1013H248V1017H247V1008H255ZM240.5 1012C239.152 1012 238 1013.15 238 1014.5C238 1015.85 239.152 1017 240.5 1017C241.848 1017 243 1015.85 243 1014.5C243 1013.15 241.848 1012 240.5 1012ZM235 1023.22C235.042 1023.14 235.102 1023.02 235.182 1022.89C235.376 1022.57 235.68 1022.14 236.115 1021.71C236.973 1020.86 238.356 1020 240.5 1020C242.644 1020 244.027 1020.86 244.885 1021.71C245.32 1022.14 245.624 1022.57 245.818 1022.89C245.898 1023.02 245.958 1023.14 246 1023.22V1024H235V1023.22ZM234 1025V1023C234 1023 235.6 1019 240.5 1019C245.4 1019 247 1023 247 1023V1025H234ZM237 1014.5C237 1012.6 238.6 1011 240.5 1011C242.4 1011 244 1012.6 244 1014.5C244 1016.4 242.4 1018 240.5 1018C238.6 1018 237 1016.4 237 1014.5Z" fill="black"/>
<path d="M82.8 1005.92C82.0106 1005.92 81.36 1006.57 81.36 1007.36V1025.6C81.36 1025.86 81.5756 1026.08 81.84 1026.08H98.16C98.4244 1026.08 98.64 1025.86 98.64 1025.6V1007.36C98.64 1006.57 97.9894 1005.92 97.2 1005.92H82.8ZM82.8 1006.88H97.2C97.4662 1006.88 97.68 1007.09 97.68 1007.36V1025.12H91.92V1021.28C91.92 1021.02 91.7044 1020.8 91.44 1020.8H88.56C88.545 1020.8 88.53 1020.8 88.515 1020.8C88.2675 1020.82 88.0781 1021.03 88.08 1021.28V1025.12H82.32V1007.36C82.32 1007.09 82.5337 1006.88 82.8 1006.88ZM83.67 1007.84C83.4412 1007.88 83.2762 1008.09 83.28 1008.32V1010.72C83.28 1010.98 83.4956 1011.2 83.76 1011.2H86.64C86.9044 1011.2 87.12 1010.98 87.12 1010.72V1008.32C87.12 1008.06 86.9044 1007.84 86.64 1007.84H83.76C83.745 1007.84 83.73 1007.84 83.715 1007.84C83.7 1007.84 83.685 1007.84 83.67 1007.84ZM88.47 1007.84C88.2412 1007.88 88.0762 1008.09 88.08 1008.32V1010.72C88.08 1010.98 88.2956 1011.2 88.56 1011.2H91.44C91.7044 1011.2 91.92 1010.98 91.92 1010.72V1008.32C91.92 1008.06 91.7044 1007.84 91.44 1007.84H88.56C88.545 1007.84 88.53 1007.84 88.515 1007.84C88.5 1007.84 88.485 1007.84 88.47 1007.84ZM93.27 1007.84C93.0412 1007.88 92.8762 1008.09 92.88 1008.32V1010.72C92.88 1010.98 93.0956 1011.2 93.36 1011.2H96.24C96.5044 1011.2 96.72 1010.98 96.72 1010.72V1008.32C96.72 1008.06 96.5044 1007.84 96.24 1007.84H93.36C93.345 1007.84 93.33 1007.84 93.315 1007.84C93.3 1007.84 93.285 1007.84 93.27 1007.84ZM84.24 1008.8H86.16V1010.24H84.24V1008.8ZM89.04 1008.8H90.96V1010.24H89.04V1008.8ZM93.84 1008.8H95.76V1010.24H93.84V1008.8ZM83.67 1012.16C83.4412 1012.2 83.2762 1012.41 83.28 1012.64V1015.04C83.28 1015.3 83.4956 1015.52 83.76 1015.52H86.64C86.9044 1015.52 87.12 1015.3 87.12 1015.04V1012.64C87.12 1012.38 86.9044 1012.16 86.64 1012.16H83.76C83.745 1012.16 83.73 1012.16 83.715 1012.16C83.7 1012.16 83.685 1012.16 83.67 1012.16ZM88.47 1012.16C88.2412 1012.2 88.0762 1012.41 88.08 1012.64V1015.04C88.08 1015.3 88.2956 1015.52 88.56 1015.52H91.44C91.7044 1015.52 91.92 1015.3 91.92 1015.04V1012.64C91.92 1012.38 91.7044 1012.16 91.44 1012.16H88.56C88.545 1012.16 88.53 1012.16 88.515 1012.16C88.5 1012.16 88.485 1012.16 88.47 1012.16ZM93.27 1012.16C93.0412 1012.2 92.8762 1012.41 92.88 1012.64V1015.04C92.88 1015.3 93.0956 1015.52 93.36 1015.52H96.24C96.5044 1015.52 96.72 1015.3 96.72 1015.04V1012.64C96.72 1012.38 96.5044 1012.16 96.24 1012.16H93.36C93.345 1012.16 93.33 1012.16 93.315 1012.16C93.3 1012.16 93.285 1012.16 93.27 1012.16ZM84.24 1013.12H86.16V1014.56H84.24V1013.12ZM89.04 1013.12H90.96V1014.56H89.04V1013.12ZM93.84 1013.12H95.76V1014.56H93.84V1013.12ZM83.67 1016.48C83.4412 1016.52 83.2762 1016.73 83.28 1016.96V1019.36C83.28 1019.62 83.4956 1019.84 83.76 1019.84H86.64C86.9044 1019.84 87.12 1019.62 87.12 1019.36V1016.96C87.12 1016.7 86.9044 1016.48 86.64 1016.48H83.76C83.745 1016.48 83.73 1016.48 83.715 1016.48C83.7 1016.48 83.685 1016.48 83.67 1016.48ZM88.47 1016.48C88.2412 1016.52 88.0762 1016.73 88.08 1016.96V1019.36C88.08 1019.62 88.2956 1019.84 88.56 1019.84H91.44C91.7044 1019.84 91.92 1019.62 91.92 1019.36V1016.96C91.92 1016.7 91.7044 1016.48 91.44 1016.48H88.56C88.545 1016.48 88.53 1016.48 88.515 1016.48C88.5 1016.48 88.485 1016.48 88.47 1016.48ZM93.27 1016.48C93.0412 1016.52 92.8762 1016.73 92.88 1016.96V1019.36C92.88 1019.62 93.0956 1019.84 93.36 1019.84H96.24C96.5044 1019.84 96.72 1019.62 96.72 1019.36V1016.96C96.72 1016.7 96.5044 1016.48 96.24 1016.48H93.36C93.345 1016.48 93.33 1016.48 93.315 1016.48C93.3 1016.48 93.285 1016.48 93.27 1016.48ZM84.24 1017.44H86.16V1018.88H84.24V1017.44ZM89.04 1017.44H90.96V1018.88H89.04V1017.44ZM93.84 1017.44H95.76V1018.88H93.84V1017.44ZM83.67 1020.8C83.4412 1020.84 83.2762 1021.05 83.28 1021.28V1023.68C83.28 1023.94 83.4956 1024.16 83.76 1024.16H86.64C86.9044 1024.16 87.12 1023.94 87.12 1023.68V1021.28C87.12 1021.02 86.9044 1020.8 86.64 1020.8H83.76C83.745 1020.8 83.73 1020.8 83.715 1020.8C83.7 1020.8 83.685 1020.8 83.67 1020.8ZM93.27 1020.8C93.0412 1020.84 92.8762 1021.05 92.88 1021.28V1023.68C92.88 1023.94 93.0956 1024.16 93.36 1024.16H96.24C96.5044 1024.16 96.72 1023.94 96.72 1023.68V1021.28C96.72 1021.02 96.5044 1020.8 96.24 1020.8H93.36C93.345 1020.8 93.33 1020.8 93.315 1020.8C93.3 1020.8 93.285 1020.8 93.27 1020.8ZM84.24 1021.76H86.16V1023.2H84.24V1021.76ZM89.04 1021.76H90.96V1025.12H89.04V1021.76ZM93.84 1021.76H95.76V1023.2H93.84V1021.76Z" fill="#0F0F0F"/>
</g>
<defs>
<clipPath id="clip0_1755_2442">
<rect width="796" height="1164" rx="5" fill="white"/>
</clipPath>
<clipPath id="clip1_1755_2442">
<rect width="24" height="21.72" fill="white" transform="translate(232 291)"/>
</clipPath>
<clipPath id="clip2_1755_2442">
<rect width="24" height="24" fill="white" transform="translate(694 469)"/>
</clipPath>
<clipPath id="clip3_1755_2442">
<rect width="24" height="24" fill="white" transform="translate(232 136)"/>
</clipPath>
<clipPath id="clip4_1755_2442">
<rect width="24" height="24" fill="white" transform="translate(540 136)"/>
</clipPath>
<clipPath id="clip5_1755_2442">
<rect width="24" height="24" fill="white" transform="translate(694 136)"/>
</clipPath>
<clipPath id="clip6_1755_2442">
<rect width="24" height="24" fill="white" transform="translate(78 290)"/>
</clipPath>
<clipPath id="clip7_1755_2442">
<rect width="24" height="24" fill="white" transform="translate(386 469)"/>
</clipPath>
<clipPath id="clip8_1755_2442">
<rect width="24" height="24" fill="white" transform="translate(694 648)"/>
</clipPath>
<clipPath id="clip9_1755_2442">
<rect width="24" height="23.6578" fill="white" transform="translate(694 648)"/>
</clipPath>
<clipPath id="clip10_1755_2442">
<rect width="9.92456" height="9.9356" fill="white" transform="translate(701.728 661.248)"/>
</clipPath>
<clipPath id="clip11_1755_2442">
<rect width="23.234" height="23.5" fill="white" transform="translate(386 826)"/>
</clipPath>
<clipPath id="clip12_1755_2442">
<rect width="24" height="24" fill="white" transform="translate(232 826)"/>
</clipPath>
<clipPath id="clip13_1755_2442">
<rect width="24" height="23.9651" fill="white" transform="translate(78 826)"/>
</clipPath>
<clipPath id="clip14_1755_2442">
<rect width="24" height="24" fill="white" transform="translate(386 290)"/>
</clipPath>
<clipPath id="clip15_1755_2442">
<rect width="24" height="24" fill="white" transform="translate(540 290)"/>
</clipPath>
<clipPath id="clip16_1755_2442">
<rect width="24" height="24" fill="white" transform="translate(694 290)"/>
</clipPath>
<clipPath id="clip17_1755_2442">
<rect width="24" height="24" fill="white" transform="translate(78 469)"/>
</clipPath>
<clipPath id="clip18_1755_2442">
<rect width="24" height="24" fill="white" transform="translate(232 469)"/>
</clipPath>
<clipPath id="clip19_1755_2442">
<rect width="24" height="24" fill="white" transform="translate(78 648)"/>
</clipPath>
</defs>
</svg>
