<svg width="796" height="1164" viewBox="0 0 796 1164" fill="none" xmlns="http://www.w3.org/2000/svg">
<g clip-path="url(#clip0_1755_1996)">
<rect width="796" height="1164" rx="5" fill="#FAFAFA"/>
<rect width="866" height="1100" transform="translate(-35 32)" fill="#FAFAFA"/>
<path d="M391.317 491.4C391.223 491.4 391.129 491.353 391.035 491.306C390.893 491.212 390.799 490.976 390.846 490.788L392.917 483.071L386.705 478.035C386.517 477.941 386.47 477.706 386.517 477.518C386.564 477.329 386.752 477.188 386.941 477.188L394.941 476.765L397.811 469.282C397.905 469.141 398.093 469 398.282 469C398.47 469 398.658 469.141 398.705 469.282L401.576 476.765L409.576 477.188C409.764 477.188 409.952 477.329 409.999 477.518C410.046 477.706 409.999 477.894 409.858 478.035L403.646 483.071L405.717 490.788C405.764 490.976 405.717 491.165 405.529 491.306C405.388 491.4 405.152 491.447 405.011 491.306L398.282 486.976L391.552 491.306C391.458 491.4 391.411 491.4 391.317 491.4Z" fill="black"/>
<path fill-rule="evenodd" clip-rule="evenodd" d="M544.5 477C544.5 472.59 548.314 469 553 469C557.686 469 561.5 472.59 561.5 477C561.5 483.906 553.728 492.467 553.398 492.828C553.297 492.938 553.164 492.99 553 493C552.846 493 552.703 492.938 552.602 492.828C552.272 492.473 544.5 484.057 544.5 477ZM556.4 477C556.4 475.233 554.877 473.8 553 473.8C551.123 473.8 549.6 475.233 549.6 477C549.6 478.767 551.123 480.2 553 480.2C554.877 480.2 556.4 478.767 556.4 477Z" fill="black"/>
<g clip-path="url(#clip1_1755_1996)">
<path d="M704.19 471.4C703.588 471.4 703.14 471.848 703.14 472.45V473.8H704.1V472.45C704.1 472.379 704.119 472.36 704.19 472.36H708.81C708.881 472.36 708.9 472.379 708.9 472.45V473.8H709.86V472.45C709.86 471.848 709.412 471.4 708.81 471.4H704.19ZM695.985 474.76C695.151 474.76 694.5 475.411 694.5 476.245V491.515C694.5 492.349 695.151 493 695.985 493H717.015C717.849 493 718.5 492.349 718.5 491.515V476.245C718.5 475.411 717.849 474.76 717.015 474.76H695.985ZM707.22 478.12C708.412 478.12 709.38 479.087 709.38 480.28C709.38 481.472 708.412 482.44 707.22 482.44C706.027 482.44 705.06 481.472 705.06 480.28C705.06 479.087 706.027 478.12 707.22 478.12ZM714.48 482.5C714.63 482.498 714.774 482.59 714.81 482.77L715.77 485.32C715.866 485.511 715.77 485.751 715.53 485.8L709.71 488.005C709.519 488.101 709.279 488.005 709.23 487.765L708.27 485.23C708.174 485.039 708.27 484.799 708.51 484.75L714.33 482.53C714.379 482.506 714.429 482.5 714.48 482.5Z" fill="#0F0F0F"/>
</g>
<g clip-path="url(#clip2_1755_1996)">
<path fill-rule="evenodd" clip-rule="evenodd" d="M84 138C83.848 138 83.7044 138.069 83.6094 138.188L77.7598 145.5H84.793L89.1465 141.146C89.342 140.951 89.658 140.951 89.8535 141.146L94.207 145.5H101.24L95.3906 138.188C95.2956 138.069 95.152 138 95 138H84ZM89.5 142.207L85.3535 146.354C85.26 146.448 85.133 146.5 85 146.5H77.5V158.5C77.5 158.776 77.7235 159 78 159H84V148C84 147.724 84.2235 147.5 84.5 147.5H85.5C85.7765 147.5 86 147.724 86 148C86 148.276 85.7765 148.5 85.5 148.5H85V159H87.5V154C87.5 152.895 88.3955 152 89.5 152C90.6045 152 91.5 152.895 91.5 154V159H94V148.5H93.5C93.2235 148.5 93 148.276 93 148C93 147.724 93.2235 147.5 93.5 147.5H94.5C94.7765 147.5 95 147.724 95 148V159H101C101.277 159 101.5 158.776 101.5 158.5V146.5H94C93.867 146.5 93.74 146.448 93.6465 146.354L89.5 142.207ZM91 148C91 147.172 90.3285 146.5 89.5 146.5C88.6715 146.5 88 147.172 88 148C88 148.828 88.6715 149.5 89.5 149.5C90.3285 149.5 91 148.828 91 148ZM79.5 149H82V151.5H79.5V149ZM99.5 149H97V151.5H99.5V149ZM79.5 154H82V156.5H79.5V154ZM99.5 154H97V156.5H99.5V154Z" fill="black"/>
</g>
<path fill-rule="evenodd" clip-rule="evenodd" d="M234.26 137C233.289 137 232.5 137.786 232.5 138.753V153.658C232.5 154.625 233.289 155.411 234.26 155.411H245.701C246.672 155.411 247.461 154.625 247.461 153.658V138.753C247.461 137.786 246.672 137 245.701 137H234.26ZM243.996 138.753H244.34C244.376 138.753 244.398 138.777 244.409 138.808L245.605 142.205C245.615 142.236 245.608 142.26 245.578 142.26H245.206C245.17 142.26 245.148 142.241 245.138 142.205L244.876 141.452H243.446L243.185 142.205C243.168 142.241 243.147 142.26 243.116 142.26H242.745C242.714 142.26 242.707 142.236 242.717 142.205L243.941 138.808C243.951 138.777 243.96 138.753 243.996 138.753ZM243.597 141.027L244.161 139.425H244.175L244.725 141.027H243.597ZM248.342 139.808V153.658C248.342 155.108 247.157 156.288 245.701 156.288H239.321L247.764 158.918C247.934 158.971 248.109 159 248.287 159C249.062 159 249.734 158.503 249.964 157.767L254.42 143.534C254.561 143.087 254.514 142.606 254.296 142.192C254.078 141.777 253.713 141.481 253.265 141.342L248.342 139.808ZM251.106 142.507C251.088 142.502 251.076 142.502 251.064 142.507C251.052 142.512 251.045 142.521 251.037 142.534L248.85 145.425C248.831 145.452 248.835 145.471 248.864 145.479L249.222 145.589C249.253 145.598 249.265 145.591 249.29 145.562L249.785 144.918L251.147 145.329L251.174 146.137C251.173 146.175 251.181 146.209 251.216 146.219L251.559 146.315C251.59 146.324 251.616 146.32 251.614 146.288L251.477 142.671C251.475 142.639 251.47 142.613 251.436 142.603L251.106 142.507ZM239.981 143.137C239.981 143.137 242.165 144.776 242.167 145.931C242.167 146.622 241.698 147.067 241.04 147.068C240.699 147.068 240.397 147.041 240.201 146.849C240.201 146.849 240.618 147.909 240.861 148.397C240.902 148.481 239.059 148.479 239.101 148.397C239.343 147.911 239.761 146.849 239.761 146.849C239.565 147.033 239.236 147.067 238.922 147.068C238.265 147.068 237.794 146.635 237.794 145.945C237.793 144.789 239.981 143.137 239.981 143.137ZM250.047 144.548L251.064 143.205L251.119 144.89L250.047 144.548ZM234.384 150.151H234.755C234.791 150.151 234.814 150.17 234.824 150.205L235.085 150.959H236.515L236.777 150.205C236.792 150.17 236.814 150.151 236.845 150.151H237.217C237.248 150.151 237.255 150.175 237.244 150.205L236.02 153.603C236.01 153.634 236.001 153.658 235.965 153.658H235.622C235.585 153.658 235.563 153.634 235.553 153.603L234.356 150.205C234.346 150.175 234.353 150.151 234.384 150.151ZM235.787 152.986L235.237 151.384H236.364L235.8 152.986H235.787Z" fill="black"/>
<g clip-path="url(#clip3_1755_1996)">
<path d="M101.5 310.5C101.5 310.224 101.276 310 101 310H99.25C99.1119 310 99 309.888 99 309.75V305.5C99 304.948 98.5523 304.5 98 304.5C97.4477 304.5 97 304.948 97 305.5V309.75C97 309.888 96.8881 310 96.75 310H82.25C82.1119 310 82 309.888 82 309.75V299.167C82 298.799 82.2986 298.5 82.667 298.5H85C85.5523 298.5 86 298.052 86 297.5C86 296.948 85.5523 296.5 85 296.5H82.667C81.1945 296.501 80.0011 297.695 80 299.167V309.751C80 309.889 79.8881 310.001 79.75 310.001H78C77.7239 310.001 77.5 310.225 77.5 310.501C77.5006 312.434 79.0674 314 81 314H98C99.933 314 101.5 312.433 101.5 310.5Z" fill="black"/>
<path fill-rule="evenodd" clip-rule="evenodd" d="M87.9999 304C88.0743 304 88.1476 303.983 88.2149 303.952L91.5999 302.34C91.6719 302.306 91.7559 302.308 91.8259 302.346C94.2351 303.641 97.1945 303.306 99.2535 301.506C101.313 299.706 102.04 296.817 101.078 294.257C100.117 291.696 97.6689 290 94.9339 290C93.2039 289.999 91.5464 290.695 90.3358 291.931C89.1251 293.167 88.4634 294.838 88.4999 296.568C88.4662 297.641 88.6923 298.707 89.1589 299.674C89.1935 299.744 89.1935 299.827 89.1589 299.897L87.5449 303.286C87.4713 303.441 87.4828 303.624 87.5752 303.769C87.6676 303.914 87.828 304.001 87.9999 304ZM97.2499 295.25C97.2483 296.492 96.2419 297.498 94.9999 297.5C94.5857 297.5 94.2499 297.164 94.2499 296.75C94.2499 296.336 94.5857 296 94.9999 296C95.4142 296 95.7499 295.664 95.7499 295.25C95.7499 294.836 95.4142 294.5 94.9999 294.5C94.5857 294.5 94.2499 294.836 94.2499 295.25C94.2499 295.664 93.9142 296 93.4999 296C93.0857 296 92.7499 295.664 92.7499 295.25C92.7499 294.007 93.7573 293 94.9999 293C96.2426 293 97.2499 294.007 97.2499 295.25ZM94.2499 299.25C94.2499 299.664 94.5857 300 94.9999 300C95.4142 300 95.7499 299.664 95.7499 299.25C95.7499 298.836 95.4142 298.5 94.9999 298.5C94.5857 298.5 94.2499 298.836 94.2499 299.25Z" fill="black"/>
</g>
<g clip-path="url(#clip4_1755_1996)">
<path d="M253.266 305.863C252.663 306.371 251.996 306.798 251.283 307.135C249.927 307.739 248.456 308.042 246.972 308.021C245.842 308.017 244.717 307.877 243.621 307.603C243.542 307.583 243.458 307.583 243.379 307.603C242.283 307.877 241.158 308.017 240.028 308.021C238.544 308.042 237.073 307.739 235.717 307.135C235.004 306.798 234.337 306.371 233.734 305.863C233.541 305.703 233.259 305.711 233.075 305.882C232.436 306.402 232.045 307.168 232 307.991C232 310.751 237.15 312.991 243.5 312.991C244.758 312.992 246.014 312.9 247.259 312.717C247.414 312.694 247.549 312.599 247.624 312.462C247.699 312.324 247.705 312.16 247.641 312.017L247 310.6C246.917 310.416 246.953 310.199 247.092 310.052C247.23 309.905 247.444 309.855 247.633 309.927L251.533 311.412C251.659 311.46 251.8 311.455 251.922 311.398C253.828 310.506 254.998 309.312 254.998 307.998C254.953 307.175 254.562 306.409 253.923 305.889C253.741 305.717 253.461 305.706 253.266 305.863Z" fill="black"/>
<path d="M255.291 300.016C255.171 299.758 254.942 299.567 254.667 299.495C254.206 299.377 253.739 299.284 253.267 299.219C253.012 299.184 252.772 299.348 252.712 299.598C252.422 300.884 251.878 302.1 251.112 303.174C250.222 304.351 249.087 305.321 247.785 306.017C247.681 306.074 247.632 306.196 247.667 306.309C247.701 306.422 247.81 306.496 247.928 306.485C248.87 306.406 249.792 306.165 250.653 305.774C252.7 304.679 254.329 302.941 255.289 300.828C255.411 300.571 255.411 300.273 255.291 300.016Z" fill="black"/>
<path d="M236.349 305.774C237.21 306.165 238.132 306.406 239.074 306.485C239.192 306.496 239.302 306.423 239.337 306.31C239.372 306.196 239.322 306.074 239.218 306.017C237.916 305.321 236.78 304.351 235.89 303.174C235.124 302.101 234.579 300.886 234.288 299.6C234.228 299.35 233.988 299.186 233.733 299.221C233.262 299.286 232.794 299.379 232.333 299.497C232.058 299.569 231.829 299.76 231.709 300.018C231.589 300.276 231.591 300.574 231.714 300.831C232.674 302.943 234.303 304.68 236.349 305.774Z" fill="black"/>
<path d="M248.552 298.253C248.489 300.442 247.827 302.572 246.637 304.411C246.578 304.507 246.59 304.632 246.668 304.714C246.746 304.796 246.87 304.816 246.969 304.762C248.117 304.163 249.118 303.318 249.9 302.287C251.165 300.342 251.753 298.033 251.573 295.72C251.557 295.436 251.414 295.174 251.185 295.006C250.955 294.838 250.663 294.781 250.387 294.851C249.772 295.01 249.171 295.216 248.587 295.466C248.364 295.561 248.241 295.801 248.295 296.037C248.464 296.764 248.55 297.507 248.552 298.253Z" fill="black"/>
<path d="M240.03 304.762C240.13 304.817 240.254 304.797 240.332 304.714C240.41 304.632 240.423 304.506 240.362 304.41C239.172 302.572 238.51 300.442 238.447 298.253C238.448 297.507 238.533 296.764 238.7 296.037C238.754 295.801 238.631 295.561 238.409 295.466C237.825 295.216 237.224 295.01 236.609 294.851C236.333 294.781 236.04 294.838 235.811 295.006C235.581 295.175 235.439 295.437 235.423 295.721C235.245 298.035 235.834 300.342 237.1 302.287C237.882 303.318 238.883 304.163 240.03 304.762V304.762Z" fill="black"/>
<path d="M243.5 305.776C243.635 305.776 243.764 305.721 243.858 305.624C243.989 305.489 247.052 302.287 247.052 298.253C246.909 295.71 245.932 293.285 244.271 291.353C244.075 291.133 243.794 291.006 243.5 291.006C243.205 291.006 242.924 291.133 242.728 291.353C241.068 293.285 240.09 295.71 239.947 298.253C239.947 302.287 243.01 305.489 243.141 305.624C243.235 305.721 243.365 305.776 243.5 305.776Z" fill="black"/>
</g>
<g clip-path="url(#clip5_1755_1996)">
<path fill-rule="evenodd" clip-rule="evenodd" d="M395.5 140.516C395.5 139.678 396.174 139 397 139H400C400.826 139 401.5 139.678 401.5 140.516V141.156C402.555 141.287 403.064 141.467 403.219 141.531C404.064 141.773 405.221 142.205 405.641 143.156C405.824 143.576 406.398 145.039 406.984 146.547C406.987 146.553 406.988 146.559 406.99 146.566L406.99 146.566C406.993 146.575 406.995 146.584 407 146.594C407.705 148.408 408.416 150.266 408.469 150.406L408.5 150.5V156.5C408.5 157.326 407.826 158 407 158H405C404.174 158 403.5 157.326 403.5 156.5V156H393.5V156.5C393.5 157.326 392.826 158 392 158H390C389.174 158 388.5 157.326 388.5 156.5V150.5L388.531 150.406C388.783 149.734 391.006 143.814 391.344 143.156C391.842 142.189 392.99 141.795 393.766 141.531C393.904 141.471 394.406 141.291 395.5 141.156V140.516ZM402.828 142.453C402.824 142.451 401.775 142 398.5 142C395.255 142 394.186 142.441 394.157 142.453L394.156 142.453L394.109 142.469C393.486 142.68 392.553 143.008 392.234 143.625C392.109 143.867 391.611 145.127 391.031 146.641L390.984 146.734L390.984 146.736C390.863 147.033 390.61 147.653 390.844 148C391.043 148.299 391.648 148.5 392.5 148.5H404.5C405.352 148.5 405.924 148.344 406.125 148.047C406.32 147.756 406.186 147.275 406.062 146.953C406.056 146.936 406.047 146.917 406.039 146.898C406.031 146.88 406.022 146.861 406.016 146.844C406.01 146.831 406.009 146.82 406.007 146.809C406.005 146.8 406.004 146.79 406 146.781L405.953 146.688C405.404 145.273 404.887 143.943 404.719 143.562C404.437 142.92 403.292 142.594 402.911 142.486L402.906 142.484L402.828 142.453ZM388.547 146.5C387.035 146.5 386.5 147.43 386.5 148.297C386.5 148.719 386.689 149.398 387.812 149.484C387.913 149.218 388.023 148.926 388.138 148.617C388.385 147.959 388.661 147.224 388.938 146.5H388.547ZM408.538 147.807L408.538 147.807L408.524 147.772C408.367 147.367 408.2 146.935 408.031 146.5H408.453C409.965 146.5 410.5 147.43 410.5 148.297C410.5 148.721 410.314 149.4 409.188 149.484C409.029 149.074 408.798 148.478 408.538 147.807ZM393.5 150.5C394.328 150.5 395 151.172 395 152C395 152.828 394.328 153.5 393.5 153.5C392.768 153.5 392.486 153.337 391.848 152.969L391.848 152.969C391.756 152.916 391.656 152.859 391.547 152.797C390.967 152.469 390.5 152.154 390.5 151.5C390.5 150.947 390.947 150.5 391.5 150.5H393.5ZM406.5 151.5C406.5 150.947 406.053 150.5 405.5 150.5H403.5C402.672 150.5 402 151.172 402 152C402 152.828 402.672 153.5 403.5 153.5C404.234 153.5 404.517 153.337 405.158 152.966C405.248 152.914 405.346 152.858 405.453 152.797C406.033 152.469 406.5 152.154 406.5 151.5Z" fill="black"/>
</g>
<path fill-rule="evenodd" clip-rule="evenodd" d="M558.271 137.001C556.534 137.034 554.425 138.082 553.443 139.032C552.195 140.239 552.086 141.898 553.128 143.62L551.5 145.195L552.086 145.748C552.393 145.499 552.789 145.361 553.214 145.361C553.687 145.361 554.141 145.527 554.457 145.831L554.771 146.148C555.187 146.551 555.366 147.119 555.257 147.668L555.571 147.986C555.605 147.986 555.64 147.99 555.674 147.994C555.697 147.996 555.72 147.999 555.743 148L556.714 147.06C557.532 147.485 558.319 147.696 559.042 147.696C559.933 147.696 560.735 147.371 561.399 146.729C562.628 145.54 563.965 142.77 563.342 140.967C563.292 140.821 563.169 140.711 563.013 140.676C562.858 140.64 562.697 140.692 562.585 140.801L560.156 143.136C560.008 143.279 559.73 143.271 559.571 143.136L557.142 140.801C556.994 140.657 557.003 140.39 557.142 140.234L559.571 137.885C559.681 137.778 559.735 137.619 559.699 137.471C559.664 137.322 559.548 137.203 559.399 137.153C559.057 137.039 558.673 136.994 558.271 137.001ZM542.6 137L541.5 138.099L543.343 141.315L544.54 141.136L551.404 147.993L550.882 148.515C550.577 148.819 550.577 149.366 550.882 149.67L551.184 149.972C551.401 150.187 551.766 150.259 552.051 150.151L552.326 150.054L553.289 151.016L553.262 151.222C553.212 151.69 553.396 152.181 553.743 152.528L559.521 158.313C559.968 158.76 560.554 159 561.171 159C561.789 159 562.384 158.751 562.836 158.299C563.718 157.377 563.725 155.903 562.836 155.015L557.044 149.23C556.716 148.902 556.245 148.728 555.738 148.763L555.531 148.776L554.568 147.814L554.665 147.54C554.782 147.239 554.713 146.901 554.486 146.674L554.183 146.372C553.905 146.093 553.306 146.093 553.028 146.372L552.505 146.894L545.641 140.037L545.819 138.841L542.6 137ZM546.986 150.771L549.694 148L550.253 148.586C549.691 149.266 549.712 150.318 550.336 150.957L550.657 151.271C551.05 151.673 551.647 151.863 552.193 151.757L552.486 152.057C552.485 152.107 552.49 152.159 552.495 152.21V152.21V152.21C552.497 152.231 552.498 152.251 552.5 152.271L550.504 154.314C550.584 154.62 550.615 154.955 550.615 155.343C550.615 157.914 548.577 160 546.065 160C543.552 160 541.5 157.914 541.5 155.343C541.5 152.771 543.552 150.671 546.065 150.671C546.374 150.671 546.677 150.709 546.986 150.771ZM555.142 151L560.5 156.358L559.858 157L554.5 151.642L555.142 151ZM548.5 154.474L547.026 153L545.053 153.553L544.5 155.526L545.974 157L548 156.447L548.5 154.474Z" fill="black"/>
<path fill-rule="evenodd" clip-rule="evenodd" d="M700.32 136.405C700.351 136.169 700.541 136 700.758 136H701.688V143.44C701.688 143.573 701.785 143.68 701.906 143.68C702.028 143.68 702.125 143.573 702.125 143.44V136H703.875V143.44C703.875 143.573 703.972 143.68 704.094 143.68C704.215 143.68 704.312 143.573 704.312 143.44V136H705.242C705.459 136 705.649 136.184 705.68 136.42C705.763 137.072 706.5 142.821 706.5 143.68C706.5 144.567 705.3 146.101 704.764 146.74L705.188 158.065C705.188 159.233 704.309 160 703 160C701.691 160 700.812 159.229 700.812 158.08L701.236 146.74C700.696 146.108 699.5 144.599 699.5 143.68C699.5 142.786 700.237 137.054 700.32 136.405ZM708.688 141.835C708.688 138.702 711.036 136 712.188 136C713.057 136 713.5 136.611 713.5 137.83V158.08C713.5 159.265 712.745 160 711.531 160C710.318 160 709.563 159.265 709.563 158.08C709.563 155.43 709.868 153.498 710.114 151.94L710.123 151.885C710.294 150.798 710.438 149.852 710.438 148.96C710.438 148.766 710.286 148.458 710.095 148.069C710.086 148.051 710.077 148.033 710.068 148.015C709.549 146.957 708.688 145.191 708.688 141.835Z" fill="black"/>
<g clip-path="url(#clip6_1755_1996)">
<path fill-rule="evenodd" clip-rule="evenodd" d="M389.891 292C388.885 292 388.065 292.819 388.065 293.826C388.065 294.833 388.885 295.652 389.891 295.652C390.898 295.652 391.717 294.833 391.717 293.826C391.717 292.819 390.898 292 389.891 292ZM407.109 292C406.102 292 405.283 292.819 405.283 293.826C405.283 294.833 406.102 295.652 407.109 295.652C408.116 295.652 408.935 294.833 408.935 293.826C408.935 292.819 408.116 292 407.109 292ZM388.065 298C388.065 296.993 388.885 296.174 389.891 296.174C390.849 296.174 391.597 296.914 391.715 297.971L391.717 302.435H391.832L391.44 305.043H389.891C388.948 305.043 388.151 304.308 388.073 303.368L388.065 298ZM407.109 296.174C406.151 296.174 405.403 296.914 405.285 297.971L405.283 302.435H405.169L405.56 305.043H407.109C408.052 305.043 408.849 304.308 408.927 303.368L408.935 298C408.935 296.993 408.116 296.174 407.109 296.174ZM386.5 297.217C386.496 296.93 386.726 296.694 387.014 296.688C387.154 296.685 387.291 296.74 387.391 296.84C387.491 296.94 387.546 297.077 387.544 297.217V304.618C387.576 305.156 388.012 305.565 388.55 305.565H392.416L393.289 299.749C393.327 299.494 393.546 299.304 393.804 299.304H403.196C403.455 299.304 403.673 299.494 403.711 299.749L404.584 305.565H408.45C408.988 305.565 409.424 305.156 409.457 304.618V297.217C409.452 296.93 409.683 296.694 409.97 296.688C410.111 296.685 410.247 296.74 410.347 296.84C410.447 296.94 410.502 297.077 410.5 297.217V304.646V304.677C410.457 305.38 410.058 305.981 409.487 306.319L409.976 310.726C410.007 311.011 409.801 311.27 409.516 311.302C409.228 311.333 408.969 311.127 408.937 310.84L408.468 306.607C408.465 306.607 408.462 306.607 408.459 306.608C408.456 306.608 408.453 306.609 408.45 306.609H404.741L405.277 310.183C405.301 310.342 405.25 310.503 405.138 310.62C405.073 310.691 404.447 311.304 402.969 311.304C402.061 311.304 401.455 311.074 401.109 310.882V308.174C401.109 307.887 400.876 307.652 400.587 307.652C400.298 307.652 400.065 307.887 400.065 308.174V310.94C399.758 311.125 399.266 311.304 398.5 311.304C397.734 311.304 397.243 311.125 396.935 310.94V307.13C396.935 306.843 396.702 306.609 396.413 306.609C396.124 306.609 395.891 306.843 395.891 307.13V310.903C395.577 311.092 395.033 311.304 394.075 311.304C392.376 311.304 391.895 310.707 391.789 310.524C391.73 310.422 391.707 310.302 391.724 310.183L392.26 306.609H388.55C388.547 306.609 388.544 306.608 388.541 306.608C388.538 306.607 388.536 306.607 388.534 306.607L388.061 310.84C388.031 311.127 387.772 311.333 387.486 311.3C387.199 311.27 386.993 311.011 387.026 310.726L387.515 306.319C386.942 305.981 386.543 305.38 386.5 304.677V304.646V297.217Z" fill="black"/>
</g>
<g clip-path="url(#clip7_1755_1996)">
<path d="M552.5 314C563.2 314 564.351 311.928 564.351 311.037C564.351 310.396 564.351 308.894 557.31 308.274C556.767 308.226 556.288 308.628 556.24 309.171C556.192 309.714 556.594 310.193 557.137 310.241C558.405 310.337 559.666 310.523 560.908 310.798C561.02 310.824 561.099 310.924 561.099 311.038C561.099 311.153 561.02 311.253 560.908 311.279C558.14 311.831 555.321 312.081 552.5 312.025C549.679 312.081 546.861 311.831 544.094 311.279C543.982 311.253 543.903 311.153 543.903 311.038C543.903 310.924 543.982 310.824 544.094 310.798C545.323 310.526 546.57 310.341 547.825 310.245C548.176 310.214 548.484 309.998 548.633 309.678C548.782 309.358 548.749 308.983 548.546 308.694C548.344 308.406 548.002 308.247 547.651 308.278C540.651 308.9 540.651 310.398 540.651 311.037C540.649 313.711 548.937 314 552.5 314Z" fill="black"/>
<path d="M553.773 296.63C553.675 296.596 553.608 296.506 553.605 296.403C553.601 296.3 553.661 296.205 553.756 296.164C555.16 295.567 555.95 294.064 555.645 292.569C555.341 291.074 554.026 290 552.5 290C550.974 290 549.659 291.074 549.354 292.569C549.05 294.064 549.84 295.567 551.244 296.164C551.339 296.205 551.399 296.3 551.395 296.403C551.391 296.506 551.324 296.596 551.227 296.63C549.627 297.177 548.552 298.679 548.55 300.37V303.333C548.55 303.605 548.771 303.826 549.043 303.826H549.925C550.054 303.826 550.161 303.925 550.171 304.053L550.527 308.312C550.548 308.568 550.762 308.764 551.019 308.764H553.981C554.237 308.764 554.451 308.568 554.473 308.312L554.829 304.053C554.839 303.925 554.946 303.826 555.075 303.826H555.957C556.229 303.826 556.45 303.605 556.45 303.333V300.37C556.448 298.679 555.372 297.177 553.773 296.63V296.63Z" fill="black"/>
<path d="M545.279 297.612C545.184 297.577 545.119 297.489 545.115 297.388C545.11 297.287 545.166 297.194 545.257 297.15C546.41 296.611 547.034 295.343 546.758 294.1C546.482 292.858 545.38 291.973 544.107 291.973C542.834 291.973 541.732 292.858 541.456 294.1C541.179 295.343 541.804 296.611 542.957 297.15C543.048 297.193 543.104 297.287 543.1 297.388C543.095 297.489 543.031 297.577 542.936 297.612C541.566 298.107 540.652 299.406 540.649 300.863V302.346C540.649 302.477 540.701 302.602 540.794 302.695C540.886 302.787 541.012 302.839 541.143 302.839H541.962C542.088 302.84 542.193 302.934 542.207 303.059L542.627 306.845C542.657 307.094 542.867 307.282 543.118 307.285H545.093C545.344 307.285 545.556 307.096 545.584 306.846L546.005 303.059C546.019 302.934 546.124 302.839 546.25 302.839H547.068C547.199 302.839 547.325 302.787 547.417 302.695C547.51 302.602 547.562 302.477 547.562 302.346V300.862C547.56 299.406 546.648 298.107 545.279 297.612Z" fill="black"/>
<path d="M562.067 297.612C561.972 297.577 561.908 297.489 561.903 297.388C561.899 297.287 561.955 297.193 562.046 297.15C563.199 296.611 563.823 295.343 563.547 294.1C563.271 292.858 562.169 291.973 560.896 291.973C559.623 291.973 558.521 292.858 558.245 294.1C557.968 295.343 558.593 296.611 559.746 297.15C559.837 297.193 559.893 297.287 559.889 297.388C559.884 297.489 559.82 297.577 559.725 297.612C558.355 298.107 557.442 299.407 557.441 300.863V302.346C557.441 302.477 557.493 302.602 557.586 302.695C557.678 302.787 557.804 302.839 557.935 302.839H558.753C558.879 302.839 558.985 302.934 558.999 303.059L559.419 306.845C559.449 307.094 559.659 307.282 559.91 307.285H561.885C562.136 307.285 562.348 307.096 562.376 306.846L562.797 303.059C562.811 302.934 562.916 302.839 563.042 302.839H563.86C563.991 302.839 564.116 302.787 564.209 302.695C564.302 302.602 564.354 302.477 564.354 302.346V300.862C564.352 299.405 563.437 298.106 562.067 297.612V297.612Z" fill="black"/>
<path d="M552.5 314C563.2 314 564.351 311.928 564.351 311.037C564.351 310.396 564.351 308.894 557.31 308.274C556.767 308.226 556.288 308.628 556.24 309.171C556.192 309.714 556.594 310.193 557.137 310.241C558.405 310.337 559.666 310.523 560.908 310.798C561.02 310.824 561.099 310.924 561.099 311.038C561.099 311.153 561.02 311.253 560.908 311.279C558.14 311.831 555.321 312.081 552.5 312.025C549.679 312.081 546.861 311.831 544.094 311.279C543.982 311.253 543.903 311.153 543.903 311.038C543.903 310.924 543.982 310.824 544.094 310.798C545.323 310.526 546.57 310.341 547.825 310.245C548.176 310.214 548.484 309.998 548.633 309.678C548.782 309.358 548.749 308.983 548.546 308.694C548.344 308.406 548.002 308.247 547.651 308.278C540.651 308.9 540.651 310.398 540.651 311.037C540.649 313.711 548.937 314 552.5 314Z" fill="black"/>
<path d="M553.773 296.63C553.675 296.596 553.608 296.506 553.605 296.403C553.601 296.3 553.661 296.205 553.756 296.164C555.16 295.567 555.95 294.064 555.645 292.569C555.341 291.074 554.026 290 552.5 290C550.974 290 549.659 291.074 549.354 292.569C549.05 294.064 549.84 295.567 551.244 296.164C551.339 296.205 551.399 296.3 551.395 296.403C551.391 296.506 551.324 296.596 551.227 296.63C549.627 297.177 548.552 298.679 548.55 300.37V303.333C548.55 303.605 548.771 303.826 549.043 303.826H549.925C550.054 303.826 550.161 303.925 550.171 304.053L550.527 308.312C550.548 308.568 550.762 308.764 551.019 308.764H553.981C554.237 308.764 554.451 308.568 554.473 308.312L554.829 304.053C554.839 303.925 554.946 303.826 555.075 303.826H555.957C556.229 303.826 556.45 303.605 556.45 303.333V300.37C556.448 298.679 555.372 297.177 553.773 296.63V296.63Z" fill="black"/>
<path d="M545.279 297.612C545.184 297.577 545.119 297.489 545.115 297.388C545.11 297.287 545.166 297.194 545.257 297.15C546.41 296.611 547.034 295.343 546.758 294.1C546.482 292.858 545.38 291.973 544.107 291.973C542.834 291.973 541.732 292.858 541.456 294.1C541.179 295.343 541.804 296.611 542.957 297.15C543.048 297.193 543.104 297.287 543.1 297.388C543.095 297.489 543.031 297.577 542.936 297.612C541.566 298.107 540.652 299.406 540.649 300.863V302.346C540.649 302.477 540.701 302.602 540.794 302.695C540.886 302.787 541.012 302.839 541.143 302.839H541.962C542.088 302.84 542.193 302.934 542.207 303.059L542.627 306.845C542.657 307.094 542.867 307.282 543.118 307.285H545.093C545.344 307.285 545.556 307.096 545.584 306.846L546.005 303.059C546.019 302.934 546.124 302.839 546.25 302.839H547.068C547.199 302.839 547.325 302.787 547.417 302.695C547.51 302.602 547.562 302.477 547.562 302.346V300.862C547.56 299.406 546.648 298.107 545.279 297.612Z" fill="black"/>
<path d="M562.067 297.612C561.972 297.577 561.908 297.489 561.903 297.388C561.899 297.287 561.955 297.193 562.046 297.15C563.199 296.611 563.823 295.343 563.547 294.1C563.271 292.858 562.169 291.973 560.896 291.973C559.623 291.973 558.521 292.858 558.245 294.1C557.968 295.343 558.593 296.611 559.746 297.15C559.837 297.193 559.893 297.287 559.889 297.388C559.884 297.489 559.82 297.577 559.725 297.612C558.355 298.107 557.442 299.407 557.441 300.863V302.346C557.441 302.477 557.493 302.602 557.586 302.695C557.678 302.787 557.804 302.839 557.935 302.839H558.753C558.879 302.839 558.985 302.934 558.999 303.059L559.419 306.845C559.449 307.094 559.659 307.282 559.91 307.285H561.885C562.136 307.285 562.348 307.096 562.376 306.846L562.797 303.059C562.811 302.934 562.916 302.839 563.042 302.839H563.86C563.991 302.839 564.116 302.787 564.209 302.695C564.302 302.602 564.354 302.477 564.354 302.346V300.862C564.352 299.405 563.437 298.106 562.067 297.612V297.612Z" fill="black"/>
</g>
<path d="M706.5 291.337C700.159 291.337 695 295.587 695 300.811C695.04 303.353 696.202 305.747 698.175 307.351L695.875 311.938C695.779 312.128 695.815 312.358 695.964 312.511C696.112 312.664 696.341 312.705 696.534 312.615L702.683 309.753C703.924 310.109 705.209 310.289 706.5 310.286C712.841 310.286 718 306.036 718 300.811C718 295.586 712.841 291.337 706.5 291.337Z" fill="black"/>
<g clip-path="url(#clip8_1755_1996)">
<path fill-rule="evenodd" clip-rule="evenodd" d="M94.3 469C94.0338 469 93.82 469.216 93.82 469.48V470.92H99.58V469.48C99.58 469.216 99.3663 469 99.1 469H94.3ZM93.82 471.88C93.82 473.468 95.1119 474.76 96.7 474.76C98.2881 474.76 99.58 473.468 99.58 471.88H93.82ZM77.5 474.28V473.32H83.77C84.8256 473.32 85.75 473.993 86.065 475L87.28 478.885C87.2894 478.915 87.3006 478.954 87.31 478.99L88.39 482.44C88.4913 482.764 88.54 483.104 88.54 483.445V491.56C88.54 492.353 87.8931 493 87.1 493H85.18C84.3869 493 83.74 492.353 83.74 491.56V490.6H77.5V481H84.82C85.525 481 86.0031 480.831 86.245 480.505C86.5375 480.113 86.4625 479.552 86.395 479.275L85.15 475.285C84.9606 474.681 84.4038 474.28 83.77 474.28H77.5ZM94.06 475.24C92.605 475.24 91.42 476.425 91.42 477.88V484.84C91.42 485.371 91.8494 485.8 92.38 485.8C92.9106 485.8 93.34 485.371 93.34 484.84V479.08C93.34 478.951 93.4506 478.84 93.58 478.84C93.7094 478.84 93.82 478.951 93.82 479.08V491.71C93.82 492.46 94.2231 493 94.975 493C95.6856 493 96.22 492.449 96.22 491.71V485.17C96.22 485.037 96.3288 484.93 96.46 484.93C96.5912 484.93 96.7 485.037 96.7 485.17V491.845C96.7009 491.847 96.7042 491.846 96.7075 491.845C96.7108 491.844 96.7141 491.843 96.715 491.845C96.7806 492.509 97.2812 493 97.945 493C98.695 493 99.1 492.46 99.1 491.71V479.08C99.1 478.951 99.2106 478.84 99.34 478.84C99.4694 478.84 99.58 478.951 99.58 479.08V484.84C99.58 485.371 100.009 485.8 100.54 485.8C101.071 485.8 101.5 485.371 101.5 484.84V477.88C101.5 476.425 100.315 475.24 98.86 475.24H98.59L96.7 480.52L94.81 475.24H94.06ZM86.14 485.8C86.14 485.005 85.495 484.36 84.7 484.36C83.9971 484.36 83.7266 484.516 83.114 484.869C83.0256 484.92 82.93 484.976 82.825 485.035C82.2681 485.35 81.82 485.652 81.82 486.28C81.82 486.811 82.2494 487.24 82.78 487.24H84.7C85.495 487.24 86.14 486.595 86.14 485.8Z" fill="black"/>
</g>
<g clip-path="url(#clip9_1755_1996)">
<path fill-rule="evenodd" clip-rule="evenodd" d="M253.853 469C253.334 469 252.906 469.324 252.765 469.794L247.823 482.735L250.603 483.735L255.029 470.324C255.077 470.088 255.035 469.849 254.941 469.662C254.8 469.379 254.562 469.182 254.279 469.088C254.138 469.04 253.994 469 253.853 469ZM239.073 470.926C237.614 470.926 236.3 471.688 235.5 472.912C235.217 472.912 235.029 472.95 234.794 473.044L235.456 473.794C235.527 473.77 235.583 473.76 235.64 473.75C235.696 473.74 235.753 473.73 235.823 473.706H236.059L236.162 473.515C236.726 472.48 237.853 471.824 239.029 471.824C240.535 471.824 241.858 472.864 242.235 474.324L242.323 474.691H242.794C243.687 474.691 244.397 475.303 244.632 476.103H245.618C245.382 474.833 244.344 473.844 243.073 473.75C242.461 472.055 240.908 470.926 239.073 470.926ZM232.162 471.912C232.279 471.818 232.412 471.783 232.529 471.794C232.647 471.805 232.754 471.877 232.823 471.971L238.912 479.368C238.922 479.366 238.933 479.364 238.944 479.362L238.944 479.362L238.944 479.362L238.944 479.362C238.972 479.358 239 479.353 239.029 479.353C239.548 479.353 239.971 479.776 239.971 480.294C239.971 480.812 239.548 481.235 239.029 481.235C238.511 481.235 238.088 480.812 238.088 480.294C238.088 480.176 238.107 480.07 238.147 479.971L233.941 474.868C233.693 475.215 233.509 475.619 233.426 476.059H232.485C232.584 475.333 232.903 474.686 233.353 474.147L232.059 472.574C231.917 472.386 231.926 472.099 232.162 471.912ZM231.971 476.529C231.829 476.529 231.682 476.583 231.588 476.676C231.499 476.811 231.5 476.933 231.5 477.066L231.5 477.088L233.853 492.147C233.901 492.335 234.088 492.529 234.323 492.529H242.323C241.289 491.73 240.912 490.594 240.912 489.559C240.912 486.548 243.597 484.482 245.573 483.353L246.559 477.088L246.559 477.066C246.559 476.933 246.559 476.809 246.471 476.721C246.377 476.579 246.23 476.529 246.088 476.529H237.765L239.309 478.456C240.202 478.597 240.912 479.401 240.912 480.294C240.912 481.329 240.064 482.176 239.029 482.176C237.994 482.176 237.147 481.329 237.147 480.294V480.25L234.088 476.529H231.971ZM241.853 489.559C241.853 486.358 245.711 484.25 247.265 483.544L247.412 483.588L250.235 484.618H250.279C250.279 484.618 249.667 487.445 250.279 488.574C251.456 490.833 254.599 491.588 254.647 491.588C254.882 491.636 255.029 491.871 255.029 492.059C254.982 492.294 254.794 492.485 254.559 492.485H252.353C249.765 492.202 248.676 491.305 248.206 490.647C247.735 489.941 247.833 489.329 247.926 489C247.974 488.765 247.823 488.489 247.588 488.441C247.353 488.393 247.123 488.529 247.029 488.765C246.794 489.612 246.941 490.452 247.412 491.206C247.695 491.629 248.158 492.107 248.912 492.529H247.779C246.461 492.153 245.623 491.594 245.294 490.794C244.776 489.57 245.618 488.059 246.323 487.353C246.511 487.165 246.511 486.879 246.323 486.691C246.136 486.504 245.849 486.504 245.662 486.691C244.956 487.445 243.735 489.377 244.441 491.118C244.629 491.682 245.055 492.153 245.573 492.529C244.202 492.529 243.279 492.127 242.691 491.559C242.619 491.493 242.546 491.425 242.485 491.353C242.476 491.342 242.467 491.33 242.459 491.318C242.453 491.31 242.447 491.302 242.441 491.294C242.414 491.26 242.389 491.226 242.363 491.191C242.36 491.186 242.356 491.181 242.353 491.176C242.311 491.118 242.272 491.061 242.235 491C242.229 490.99 242.224 490.979 242.219 490.968C242.215 490.959 242.211 490.95 242.206 490.941C242.086 490.726 241.998 490.507 241.941 490.279C241.937 490.264 241.933 490.248 241.929 490.232C241.917 490.189 241.905 490.144 241.897 490.103C241.891 490.075 241.886 490.042 241.882 490.015C241.877 489.976 241.874 489.936 241.872 489.896C241.871 489.871 241.87 489.847 241.868 489.824C241.86 489.735 241.853 489.647 241.853 489.559Z" fill="black"/>
</g>
<g clip-path="url(#clip10_1755_1996)">
<path d="M84.22 648C83.3031 648 82.4163 648.154 81.58 648.521C81.4188 648.585 81.3044 648.733 81.2838 648.907C81.2613 649.082 81.3363 649.252 81.4788 649.354C81.6194 649.457 81.8069 649.474 81.9644 649.399C82.6638 649.093 83.41 648.96 84.22 648.96C87.4188 648.96 89.98 651.521 89.98 654.72C89.98 657.919 87.4188 660.48 84.22 660.48C81.0213 660.48 78.46 657.919 78.46 654.72C78.46 653.261 79.0188 651.956 79.9 650.921V652.176C79.8981 652.348 79.9881 652.509 80.1381 652.597C80.2881 652.684 80.4719 652.684 80.6219 652.597C80.7719 652.509 80.8619 652.348 80.86 652.176V649.44H78.1244C77.9519 649.438 77.7906 649.528 77.7025 649.678C77.6163 649.828 77.6163 650.012 77.7025 650.162C77.7906 650.312 77.9519 650.402 78.1244 650.4H79.0806C78.1169 651.576 77.5 653.066 77.5 654.72C77.5 656.552 78.2331 658.209 79.42 659.422V670.08C79.42 670.611 79.8494 671.04 80.38 671.04H99.58C100.111 671.04 100.54 670.611 100.54 670.08V655.2H90.9175C90.9306 655.041 90.94 654.881 90.94 654.72C90.94 654.559 90.9269 654.399 90.9156 654.24H100.54V650.88C100.54 650.323 100.137 649.92 99.58 649.92H97.18V648.96C97.18 648.435 96.745 648 96.22 648H95.26C94.735 648 94.3 648.435 94.3 648.96V649.92H88.9225C87.7094 648.733 86.0519 648 84.22 648ZM95.26 648.96H96.22V651.84H95.26V648.96ZM84.2125 650.392C83.9481 650.398 83.7363 650.616 83.74 650.88V654.643C83.725 654.746 83.7419 654.851 83.7925 654.943C83.8356 655.029 83.905 655.101 83.9894 655.147L85.8531 656.544C86.065 656.704 86.365 656.661 86.5244 656.447C86.6838 656.235 86.6406 655.935 86.4269 655.776L84.7 654.48V650.88C84.7019 650.751 84.6513 650.625 84.5594 650.533C84.4675 650.441 84.3419 650.391 84.2125 650.392ZM90.46 658.08H92.86V660.48H90.46V658.08ZM93.82 658.08H96.22V660.48H93.82V658.08ZM89.5 658.869V658.903L89.4325 658.959C89.4569 658.931 89.4775 658.899 89.5 658.869ZM83.74 661.44H86.14V663.84H83.74V661.44ZM87.1 661.44H89.5V663.84H87.1V661.44ZM90.46 661.44H92.86V663.84H90.46V661.44ZM93.82 661.44H96.22V663.84H93.82V661.44ZM83.74 664.8H86.14V667.2H83.74V664.8ZM87.1 664.8H89.5V667.2H87.1V664.8ZM90.46 664.8H92.86V667.2H90.46V664.8ZM93.82 664.8H96.22V667.2H93.82V664.8Z" fill="#0F0F0F"/>
</g>
<path fill-rule="evenodd" clip-rule="evenodd" d="M389.251 651C388.984 650.996 388.736 651.132 388.601 651.356C388.466 651.58 388.466 651.856 388.601 652.08C388.736 652.303 388.984 652.439 389.251 652.435H390.642C390.809 652.435 390.949 652.537 390.996 652.693L394.151 663.092C394.428 664.004 395.299 664.636 396.281 664.636H404.408C405.406 664.636 406.287 663.982 406.551 663.05L408.474 656.213C408.535 655.997 408.488 655.766 408.348 655.588C408.208 655.411 407.99 655.306 407.76 655.306H393.333L392.418 652.288H392.416C392.185 651.527 391.459 651 390.642 651H389.251ZM396.961 666.152C396.112 666.152 395.423 666.83 395.423 667.667C395.423 668.503 396.112 669.182 396.961 669.182C397.811 669.182 398.5 668.503 398.5 667.667C398.5 666.83 397.811 666.152 396.961 666.152ZM402.346 667.667C402.346 666.83 403.035 666.152 403.885 666.152C404.734 666.152 405.423 666.83 405.423 667.667C405.423 668.503 404.734 669.182 403.885 669.182C403.035 669.182 402.346 668.503 402.346 667.667Z" fill="black"/>
<g clip-path="url(#clip11_1755_1996)">
<path d="M249.5 662.5C248.592 662.5 247.696 662.708 246.881 663.108C246.754 663.17 246.66 663.283 246.621 663.418C246.581 663.553 246.601 663.699 246.675 663.819C247.541 665.227 248 666.847 248 668.5C248 668.776 248.224 669 248.5 669H255C255.276 669 255.5 668.776 255.5 668.5C255.5 665.186 252.814 662.5 249.5 662.5Z" fill="black"/>
<path d="M249.444 662C251.515 662 253.194 660.321 253.194 658.25C253.194 656.179 251.515 654.5 249.444 654.5C247.373 654.5 245.694 656.179 245.694 658.25C245.694 660.321 247.373 662 249.444 662Z" fill="black"/>
<path d="M239 660.5C241.623 660.5 243.75 658.373 243.75 655.75C243.75 653.127 241.623 651 239 651C236.377 651 234.25 653.127 234.25 655.75C234.25 658.373 236.377 660.5 239 660.5Z" fill="black"/>
<path d="M246.5 668.5C246.5 664.358 243.142 661 239 661C234.858 661 231.5 664.358 231.5 668.5C231.5 668.776 231.724 669 232 669H246C246.276 669 246.5 668.776 246.5 668.5Z" fill="black"/>
</g>
<path fill-rule="evenodd" clip-rule="evenodd" d="M543.5 649H556.901L561.74 654.04V671.08H543.5V649ZM546.86 666.76H548.78V665.8H546.86V666.76ZM546.86 663.88H548.78V662.92H546.86V663.88ZM546.86 661H548.78V660.04H546.86V661ZM550.22 666.76H558.38V665.8H550.22V666.76ZM550.22 663.88H558.38V662.92H550.22V663.88ZM550.22 661H558.38V660.04H550.22V661ZM551.5 654.28H546.86V653.32H551.5V654.28ZM555.5 650H556.5V654H560.5V655H555.5V650Z" fill="black"/>
<path d="M702.66 648C702.396 648 702.18 648.216 702.18 648.48V652.32C702.18 652.584 702.396 652.8 702.66 652.8H710.34C710.606 652.8 710.82 652.584 710.82 652.32V648.48C710.82 648.216 710.606 648 710.34 648H702.66ZM698.34 648.96C697.547 648.96 696.9 649.607 696.9 650.4V670.56C696.9 671.353 697.547 672 698.34 672H714.66C715.453 672 716.1 671.353 716.1 670.56V650.4C716.1 649.607 715.453 648.96 714.66 648.96H711.78V650.88H714.18V670.08H698.82V650.88H701.22V648.96H698.34ZM699.78 651.84V669.12H713.22V651.84H711.78V652.32C711.78 653.113 711.133 653.76 710.34 653.76H702.66C701.867 653.76 701.22 653.113 701.22 652.32V651.84H699.78ZM701.7 656.16H705.54V660H701.7V656.16ZM702.66 657.12V659.04H704.58V657.12H702.66ZM706.98 657.6H711.3V658.56H706.98V657.6ZM701.7 662.4H705.54V666.24H701.7V662.4ZM702.66 663.36V665.28H704.58V663.36H702.66ZM703.14 663.84H704.1V664.8H703.14V663.84ZM706.98 663.84H711.3V664.8H706.98V663.84Z" fill="#0F0F0F"/>
<path d="M91.668 827L85.084 833.596C84.71 833.971 84.5 834.478 84.5 835.008V845C84.5 846.105 85.395 847 86.5 847H95.4922C96.2912 847 97.0141 846.524 97.3301 845.789L100.338 838.787C100.445 838.538 100.5 838.269 100.5 837.998V836C100.5 834.895 99.605 834 98.5 834H92.1484L93.0859 829.703C93.2319 829.033 93.0222 828.334 92.5332 827.852L91.668 827ZM78.5 835V847H82.5V835H78.5Z" fill="#0F0F0F"/>
<path d="M246.278 838.718V831.828C246.278 831.302 245.844 830.867 245.317 830.867H241.426C240.9 830.867 240.465 831.302 240.465 831.828V838.718C241.289 838.123 242.296 837.803 243.372 837.803C244.447 837.78 245.455 838.123 246.278 838.718H246.278Z" fill="black"/>
<path d="M237.33 834.713H233.461C232.935 834.713 232.5 835.148 232.5 835.674V841.625C232.5 842.152 232.935 842.586 233.461 842.586H237.329C237.855 842.586 238.29 842.152 238.29 841.625V835.674C238.291 835.148 237.855 834.713 237.33 834.713H237.33Z" fill="black"/>
<path d="M253.282 827H249.414C248.887 827 248.453 827.435 248.453 827.961V841.625C248.453 842.152 248.887 842.586 249.414 842.586H253.282C253.808 842.586 254.243 842.152 254.243 841.625L254.244 827.961C254.244 827.435 253.809 827 253.282 827H253.282Z" fill="black"/>
<path d="M246.462 844.531C246.759 844.005 246.943 843.432 246.943 842.791C246.943 840.823 245.34 839.22 243.372 839.22C241.403 839.22 239.801 840.822 239.801 842.791C239.801 844.76 241.403 846.362 243.372 846.362C244.013 846.362 244.585 846.179 245.111 845.905L246.622 847.416C246.806 847.599 247.057 847.69 247.309 847.69C247.561 847.69 247.812 847.599 247.996 847.416C248.362 847.049 248.362 846.431 247.996 846.042L246.462 844.531ZM241.678 842.792C241.678 841.853 242.434 841.099 243.372 841.099C244.311 841.099 245.065 841.854 245.065 842.792C245.065 843.731 244.31 844.486 243.372 844.486C242.433 844.486 241.678 843.73 241.678 842.792Z" fill="black"/>
<path d="M395.83 835.5V834.31H395.58C394.93 834.31 394.36 833.89 394.17 833.27C393.98 832.69 394.18 832.05 394.65 831.67L397.5 828.82H396.23C395.96 828.82 395.72 828.95 395.57 829.18L394.83 828.45C394.69 828.31 394.53 828.2 394.35 828.12C394.14 828.02 393.91 827.98 393.68 827.98C393.46 827.98 393.25 828.02 393.05 828.11C392.86 828.19 392.68 828.3 392.53 828.46L392.11 828.87L386.81 834.17C386.54 834.37 386.43 834.71 386.53 835.03C386.63 835.36 386.93 835.58 387.28 835.58H388.23V839.78C388.23 840.68 388.96 841.41 389.86 841.41H390.07C390.16 841.19 390.29 840.99 390.49 840.84L395.83 835.5Z" fill="black"/>
<path d="M389.87 841.42C388.97 841.42 388.24 840.69 388.24 839.79V835.59H387.29C386.94 835.59 386.64 835.37 386.54 835.04C386.44 834.72 386.55 834.38 386.82 834.18L387.1 833.89L392.12 828.87L392.4 828.59L392.54 828.45C392.68 828.3 392.86 828.18 393.05 828.1C393.25 828.02 393.46 827.97 393.68 827.97C393.91 827.97 394.14 828.02 394.34 828.11C394.53 828.2 394.69 828.31 394.84 828.45L394.98 828.59L395.57 829.18C395.71 828.96 395.96 828.82 396.23 828.82H397.5H396.23C395.96 828.82 395.72 828.95 395.57 829.18L394.84 828.45C394.69 828.31 394.53 828.2 394.35 828.11C394.14 828.02 393.92 827.97 393.68 827.97C393.46 827.97 393.25 828.01 393.05 828.1C392.85 828.18 392.68 828.3 392.53 828.45L387.09 833.89L386.82 834.16C386.55 834.36 386.44 834.71 386.54 835.03C386.64 835.36 386.94 835.58 387.29 835.58H388.24V839.78C388.23 840.68 388.97 841.42 389.87 841.42H390.07H389.87Z" fill="white"/>
<path d="M389.87 841.41C388.97 841.41 388.24 840.68 388.24 839.78V835.58H387.29C386.95 835.58 386.64 835.36 386.54 835.03C386.44 834.71 386.55 834.37 386.82 834.17L392.12 828.87L392.54 828.45C392.68 828.3 392.86 828.19 393.05 828.1C393.25 828.02 393.46 827.97 393.68 827.97C393.91 827.97 394.13 828.02 394.34 828.11C394.53 828.2 394.69 828.31 394.83 828.45L395.56 829.18C395.71 828.96 395.95 828.82 396.22 828.82H397.49H396.23C395.96 828.82 395.71 828.96 395.57 829.18L394.98 828.59L394.84 828.45C394.69 828.31 394.53 828.2 394.35 828.12C394.14 828.02 393.92 827.98 393.68 827.98C393.46 827.98 393.25 828.02 393.05 828.11C392.85 828.19 392.68 828.31 392.53 828.46L392.39 828.59L392.11 828.87L387.1 833.89L386.82 834.17C386.55 834.37 386.44 834.72 386.54 835.03C386.64 835.36 386.94 835.58 387.29 835.58H388.24V839.78C388.24 840.68 388.97 841.42 389.87 841.41H390.07H389.87Z" fill="white"/>
<path d="M408.87 832.22L407.42 830.77V827.64C407.42 827.21 407.07 826.85 406.63 826.85H404.51C404.24 826.85 404 826.98 403.85 827.21L403.12 826.48C402.98 826.34 402.81 826.22 402.63 826.14C402.42 826.05 402.2 826 401.97 826C401.75 826 401.54 826.04 401.34 826.13C401.14 826.21 400.97 826.33 400.82 826.48L398.46 828.84L395.1 832.19C394.83 832.39 394.72 832.73 394.82 833.05C394.92 833.38 395.22 833.6 395.57 833.6H396.52V834.87C396.56 834.84 396.62 834.82 396.66 834.79C396.74 834.74 396.82 834.69 396.91 834.65C397.2 834.53 397.5 834.47 397.81 834.47C398.14 834.47 398.46 834.54 398.76 834.67C399.02 834.79 399.25 834.95 399.46 835.15L399.76 835.45C399.95 835.37 400.15 835.32 400.36 835.32H400.64H402.47C403.29 835.32 403.95 835.98 403.95 836.8V839.3V839.43H405.77C406.67 839.43 407.4 838.7 407.41 837.8V833.6H408.35C408.69 833.6 408.99 833.39 409.09 833.07C409.21 832.77 409.11 832.43 408.87 832.22Z" fill="#1D1D1B"/>
<path d="M390.07 841.41V841.42H390.9V841.41H390.07Z" fill="white"/>
<path d="M391.09 841.41H390.91L390.9 841.42H391.09V841.41Z" fill="black"/>
<path d="M396.67 835.65C396.82 835.5 397 835.38 397.19 835.3C397.39 835.22 397.6 835.17 397.82 835.17C398.05 835.17 398.28 835.22 398.48 835.31C398.66 835.39 398.83 835.5 398.97 835.65L399.11 835.79L399.12 835.8L398.97 835.65C398.83 835.51 398.66 835.39 398.48 835.31C398.27 835.22 398.05 835.17 397.81 835.17C397.59 835.17 397.38 835.21 397.18 835.3C396.99 835.38 396.82 835.49 396.67 835.65Z" fill="white"/>
<path d="M396.53 835.78L396.66 835.65L396.52 835.79L396.53 835.78Z" fill="white"/>
<path d="M390.91 841.41H390.9V841.42L390.91 841.41Z" fill="white"/>
<path d="M396.67 835.65C396.82 835.5 397 835.38 397.19 835.3C397.39 835.22 397.6 835.17 397.82 835.17C398.05 835.17 398.27 835.22 398.48 835.31C398.66 835.39 398.83 835.5 398.97 835.65L399.13 835.81L399.12 835.8L398.98 835.66C398.84 835.52 398.67 835.41 398.49 835.32C398.28 835.23 398.06 835.18 397.83 835.18C397.61 835.18 397.4 835.22 397.2 835.31C397 835.38 396.82 835.5 396.67 835.65Z" fill="white"/>
<path d="M396.66 835.65L396.53 835.78L396.52 835.79V835.8L396.66 835.65Z" fill="white"/>
<path d="M404.72 841.39L403.47 840.15L403.27 839.95V839.45V839.32V836.8C403.27 836.37 402.92 836.01 402.48 836.01H400.36C400.09 836.01 399.85 836.14 399.7 836.37L399.13 835.8L398.97 835.64C398.83 835.5 398.66 835.39 398.48 835.3C398.27 835.21 398.05 835.16 397.82 835.16C397.6 835.16 397.39 835.2 397.19 835.29C397 835.37 396.82 835.49 396.67 835.64L396.66 835.65L396.52 835.8L396.25 836.07L395.83 836.49L391.23 841.09L390.95 841.37C390.93 841.39 390.91 841.41 390.89 841.43H391.08H390.9C390.68 841.63 390.59 841.94 390.68 842.23C390.78 842.56 391.08 842.78 391.43 842.78H392.38V846.98C392.38 847.88 393.11 848.61 394.01 848.61H401.64C402.54 848.61 403.27 847.88 403.28 846.98V842.78H404.22C404.56 842.78 404.86 842.57 404.96 842.25C405.07 841.94 404.97 841.59 404.72 841.39ZM401.97 845.74C401.97 846.21 401.58 846.6 401.11 846.6H398.1C397.63 846.6 397.24 846.21 397.24 845.74V843.66C397.24 843.19 397.63 842.8 398.1 842.8H401.11C401.58 842.8 401.97 843.19 401.97 843.66V845.74Z" fill="#1D1D1B"/>
<path d="M398.11 846.05H401.12C401.29 846.05 401.42 845.91 401.42 845.75V843.67C401.42 843.5 401.28 843.37 401.12 843.37H398.11C397.94 843.37 397.81 843.51 397.81 843.67V845.75C397.8 845.91 397.94 846.05 398.11 846.05Z" fill="#1D1D1B"/>
<path d="M397.53 845.74C397.53 846.06 397.79 846.32 398.11 846.32C397.79 846.32 397.53 846.06 397.53 845.74Z" fill="white"/>
<g clip-path="url(#clip12_1755_1996)">
<path d="M552.5 826C545.873 826 540.5 831.373 540.5 838C540.5 844.627 545.873 850 552.5 850C559.127 850 564.5 844.627 564.5 838C564.493 831.376 559.124 826.007 552.5 826ZM548 832.999C549.33 833.032 550.499 833.886 550.935 835.144C551.132 835.66 550.871 836.238 550.355 836.435C549.839 836.632 549.262 836.371 549.065 835.855C548.921 835.377 548.497 835.038 548 835C547.503 835.038 547.079 835.377 546.935 835.855C546.738 836.371 546.161 836.63 545.645 836.435C545.129 836.238 544.87 835.66 545.065 835.144C545.501 833.887 546.67 833.032 548 832.999ZM547.559 841.71C547.638 841.574 547.782 841.49 547.94 841.49H557.062C557.303 841.49 557.501 841.687 557.501 841.929C557.501 842.006 557.48 842.082 557.442 842.147C555.867 844.876 552.377 845.81 549.647 844.233C548.78 843.733 548.062 843.013 547.561 842.147C547.481 842.011 547.481 841.845 547.559 841.71ZM559.001 836.5C558.586 836.5 558.214 836.245 558.066 835.855C557.922 835.377 557.499 835.038 557.002 835C556.505 835.038 556.081 835.377 555.937 835.855C555.74 836.371 555.162 836.63 554.646 836.435C554.13 836.238 553.871 835.66 554.067 835.144C554.585 833.522 556.318 832.629 557.939 833.147C558.889 833.45 559.633 834.194 559.937 835.144C560.134 835.66 559.875 836.238 559.359 836.435C559.242 836.478 559.122 836.5 559.001 836.5Z" fill="black"/>
</g>
<g clip-path="url(#clip13_1755_1996)">
<path d="M706.929 840.478C706.385 840.167 705.608 840.4 705.297 840.944C704.831 841.798 704.054 842.73 703.666 842.886C703.433 842.575 703.045 841.72 702.889 841.332C702.346 840.089 701.879 839.079 700.947 838.846C700.792 838.769 699.471 838.458 699.083 838.38C697.607 837.992 696.908 837.914 696.209 838.536C695.121 839.39 694.5 845.294 694.5 848.479C694.5 848.789 694.733 849.022 695.044 849.022C696.287 849.022 699.161 849.1 700.248 849.1C700.481 849.1 700.714 848.945 700.792 848.634L701.491 843.74C701.879 844.439 702.346 844.983 703.045 845.216C703.278 845.294 703.511 845.294 703.744 845.294C705.686 845.294 707.239 842.653 707.55 842.031C707.705 841.487 707.472 840.788 706.929 840.478Z" fill="#010202"/>
<path d="M700.637 831.079C702.423 831.467 703.511 833.176 703.122 834.962C702.734 836.749 701.025 837.837 699.239 837.448C697.452 837.06 696.364 835.351 696.753 833.564C697.141 831.778 698.928 830.69 700.637 831.079Z" fill="#010202"/>
<path fill-rule="evenodd" clip-rule="evenodd" d="M704.5 831.031C704.5 828.257 707.24 826 710.607 826C713.975 826 716.715 828.257 716.715 831.031C716.715 833.806 713.975 836.063 710.607 836.063C709.922 836.065 709.239 835.969 708.58 835.78L705.315 837.3C705.212 837.348 705.091 837.326 705.012 837.245C704.933 837.164 704.914 837.042 704.965 836.941L706.186 834.505C705.138 833.653 704.521 832.381 704.5 831.031ZM709.211 833.297C709.23 833.306 709.248 833.315 709.267 833.315C709.286 833.315 709.295 833.315 709.314 833.297L710.654 832.435L711.994 833.297C712.023 833.325 712.069 833.315 712.098 833.297C712.135 833.269 712.144 833.231 712.135 833.194L711.723 831.657L712.96 830.654C712.988 830.626 712.997 830.588 712.988 830.551C712.978 830.513 712.941 830.485 712.903 830.485L711.31 830.401L710.739 828.911C710.729 828.883 710.692 828.854 710.654 828.854C710.617 828.854 710.579 828.883 710.561 828.911L709.989 830.401L708.396 830.485C708.358 830.485 708.321 830.513 708.311 830.551C708.302 830.588 708.311 830.635 708.349 830.654L709.586 831.657L709.173 833.194C709.164 833.231 709.183 833.278 709.211 833.297Z" fill="black"/>
</g>
<path fill-rule="evenodd" clip-rule="evenodd" d="M99.72 1023.93C99.7215 1023.9 99.7222 1023.87 99.7222 1023.83V1021.42C99.7222 1021.41 99.7215 1021.4 99.72 1021.39V1020.5H93.5C92.6716 1020.5 92 1019.83 92 1019V1016C92 1015.17 92.6716 1014.5 93.5 1014.5H99.72V1013.73C99.7215 1013.72 99.7222 1013.71 99.7222 1013.69V1011.28C99.7222 1010.64 99.4561 1010.03 98.9826 1009.57C98.509 1009.12 97.8667 1008.87 97.1969 1008.87H80.0252C79.3563 1008.87 78.7156 1009.12 78.2426 1009.58C77.7696 1010.03 77.5027 1010.64 77.5 1011.28V1023.83C77.5027 1024.47 77.7696 1025.09 78.2426 1025.54C78.7156 1025.99 79.3563 1026.24 80.0252 1026.25H97.1969C97.8667 1026.25 98.509 1025.99 98.9826 1025.54C99.4148 1025.13 99.6742 1024.58 99.7162 1024H99.72V1023.93Z" fill="black"/>
<path d="M97.3888 1004.2C97.3508 1004.04 97.2811 1003.89 97.184 1003.75C97.0868 1003.62 96.9641 1003.51 96.8232 1003.42C96.5366 1003.25 96.1951 1003.21 95.8737 1003.29L82.8737 1006.83C82.8204 1006.85 82.7733 1006.88 82.7403 1006.92C82.7072 1006.97 82.6902 1007.02 82.6919 1007.08C82.6991 1007.14 82.7275 1007.2 82.772 1007.24C82.8164 1007.28 82.874 1007.3 82.9343 1007.3H97.8535C97.8911 1007.3 97.9281 1007.29 97.9614 1007.28C97.9947 1007.26 98.0235 1007.23 98.0454 1007.2C98.0735 1007.17 98.0911 1007.12 98.0959 1007.08L97.3888 1004.2Z" fill="black"/>
<path d="M93 1016C93 1015.72 93.2239 1015.5 93.5 1015.5H100.5C100.776 1015.5 101 1015.72 101 1016V1019C101 1019.28 100.776 1019.5 100.5 1019.5H93.5C93.2239 1019.5 93 1019.28 93 1019V1016Z" fill="black"/>
<path d="M231.98 1025.45C231.98 1023.94 233.159 1022.71 234.613 1022.71H252.387C253.841 1022.71 255.02 1023.94 255.02 1025.45H231.98Z" fill="black"/>
<path fill-rule="evenodd" clip-rule="evenodd" d="M252.387 1023.71H234.613C234.046 1023.71 233.545 1024 233.243 1024.45H253.757C253.455 1024 252.954 1023.71 252.387 1023.71ZM254.84 1024.45C254.456 1023.43 253.502 1022.71 252.387 1022.71H234.613C233.498 1022.71 232.544 1023.43 232.16 1024.45C232.044 1024.76 231.98 1025.1 231.98 1025.45H255.02C255.02 1025.1 254.956 1024.76 254.84 1024.45Z" fill="black"/>
<path fill-rule="evenodd" clip-rule="evenodd" d="M243.5 1007.86C240.588 1007.86 237.774 1008.95 235.573 1010.94C233.373 1012.92 231.933 1015.67 231.519 1018.67L231.519 1018.67C231.48 1018.96 231.501 1019.25 231.579 1019.52C231.658 1019.8 231.792 1020.06 231.974 1020.27C232.155 1020.49 232.379 1020.67 232.631 1020.79C232.883 1020.91 233.157 1020.97 233.434 1020.97L253.568 1020.97C253.845 1020.97 254.119 1020.91 254.371 1020.79C254.623 1020.67 254.847 1020.49 255.028 1020.28C255.209 1020.06 255.343 1019.8 255.421 1019.52C255.5 1019.25 255.52 1018.96 255.481 1018.67C255.066 1015.67 253.627 1012.92 251.427 1010.94C249.226 1008.95 246.412 1007.86 243.5 1007.86ZM246.394 1011.13C246.33 1011.4 246.486 1011.67 246.744 1011.74C247.407 1011.91 248.14 1012.39 248.809 1012.97C249.47 1013.54 250.024 1014.17 250.325 1014.56C250.491 1014.78 250.793 1014.81 251 1014.64C251.207 1014.47 251.24 1014.15 251.075 1013.94C250.736 1013.5 250.138 1012.82 249.423 1012.2C248.716 1011.59 247.849 1010.99 246.976 1010.76C246.719 1010.7 246.459 1010.86 246.394 1011.13Z" fill="black"/>
<path fill-rule="evenodd" clip-rule="evenodd" d="M240.38 1005.75C240.38 1005.34 240.702 1005 241.1 1005H245.766C246.163 1005 246.486 1005.34 246.486 1005.75C246.486 1006.16 246.163 1006.5 245.766 1006.5H241.1C240.702 1006.5 240.38 1006.16 240.38 1005.75Z" fill="black"/>
<path d="M404.34 1005H389.94C389.147 1005 388.5 1005.65 388.5 1006.44V1024.68C388.5 1024.95 388.716 1025.16 388.98 1025.16H405.3C405.566 1025.16 405.78 1024.95 405.78 1024.68V1006.44C405.78 1005.65 405.133 1005 404.34 1005ZM393.78 1022.76H390.9V1020.36H393.78V1022.76ZM393.78 1018.44H390.9V1016.04H393.78V1018.44ZM393.78 1014.12H390.9V1011.72H393.78V1014.12ZM393.78 1009.8H390.9V1007.4H393.78V1009.8ZM398.58 1024.2H395.7V1020.36H398.58V1024.2ZM398.58 1018.44H395.7V1016.04H398.58V1018.44ZM398.58 1014.12H395.7V1011.72H398.58V1014.12ZM398.58 1009.8H395.7V1007.4H398.58V1009.8ZM403.38 1022.76H400.5V1020.36H403.38V1022.76ZM403.38 1018.44H400.5V1016.04H403.38V1018.44ZM403.38 1014.12H400.5V1011.72H403.38V1014.12ZM403.38 1009.8H400.5V1007.4H403.38V1009.8Z" fill="#0F0F0F"/>
<path fill-rule="evenodd" clip-rule="evenodd" d="M703.25 1007V1021.25H702.5V1013H697.25V1021.25H696.5V1022H714.5V1021.25H713.75V1012.25L709.25 1010V1021.25H708.5V1007H707.75H706.25H705.5H704H703.25ZM712.25 1019.75V1021.25H710.75V1019.75H712.25ZM701 1019.75V1021.25H698.75V1019.75H701ZM707 1019.75V1021.25H704.75V1019.75H707ZM705.5 1008.5V1018.25H704.75V1008.5H705.5ZM712.25 1017.5V1018.25H710.75V1017.5H712.25ZM698.75 1016.75V1018.25H698V1016.75H698.75ZM701.75 1016.75V1018.25H701V1016.75H701.75ZM700.25 1016.75V1018.25H699.5V1016.75H700.25ZM707 1008.5V1018.25H706.25V1008.5H707ZM712.25 1016V1016.75H710.75V1016H712.25ZM698.75 1014.5V1016H698V1014.5H698.75ZM700.25 1014.5V1016H699.5V1014.5H700.25ZM701.75 1014.5V1016H701V1014.5H701.75ZM712.25 1014.5V1015.25H710.75V1014.5H712.25ZM712.25 1012.9V1013.65H710.75V1012.9H712.25Z" fill="black"/>
<path d="M554.5 1007V1016H556.5V1012H562.5V1007H556.5H555.5H554.5ZM548 1009C546.1 1009 544.5 1010.6 544.5 1012.5C544.5 1014.4 546.1 1016 548 1016C549.9 1016 551.5 1014.4 551.5 1012.5C551.5 1010.6 549.9 1009 548 1009ZM548 1018C543.1 1018 541.5 1022 541.5 1022V1024H554.5V1022C554.5 1022 552.9 1018 548 1018Z" fill="#0F0F0F"/>
</g>
<defs>
<clipPath id="clip0_1755_1996">
<rect width="796" height="1164" rx="5" fill="white"/>
</clipPath>
<clipPath id="clip1_1755_1996">
<rect width="24" height="24" fill="white" transform="translate(694.5 469)"/>
</clipPath>
<clipPath id="clip2_1755_1996">
<rect width="24" height="24" fill="white" transform="translate(77.5 136)"/>
</clipPath>
<clipPath id="clip3_1755_1996">
<rect width="24" height="24" fill="white" transform="translate(77.5 290)"/>
</clipPath>
<clipPath id="clip4_1755_1996">
<rect width="24" height="24" fill="white" transform="translate(231.5 290)"/>
</clipPath>
<clipPath id="clip5_1755_1996">
<rect width="24" height="24" fill="white" transform="translate(386.5 136)"/>
</clipPath>
<clipPath id="clip6_1755_1996">
<rect width="24" height="24" fill="white" transform="translate(386.5 290)"/>
</clipPath>
<clipPath id="clip7_1755_1996">
<rect width="24" height="24" fill="white" transform="translate(540.5 290)"/>
</clipPath>
<clipPath id="clip8_1755_1996">
<rect width="24" height="24" fill="white" transform="translate(77.5 469)"/>
</clipPath>
<clipPath id="clip9_1755_1996">
<rect width="24" height="24" fill="white" transform="translate(231.5 469)"/>
</clipPath>
<clipPath id="clip10_1755_1996">
<rect width="24" height="24" fill="white" transform="translate(77.5 648)"/>
</clipPath>
<clipPath id="clip11_1755_1996">
<rect width="24" height="24" fill="white" transform="translate(231.5 648)"/>
</clipPath>
<clipPath id="clip12_1755_1996">
<rect width="24" height="24" fill="white" transform="translate(540.5 826)"/>
</clipPath>
<clipPath id="clip13_1755_1996">
<rect width="22.923" height="23.1" fill="white" transform="translate(694.5 826)"/>
</clipPath>
</defs>
</svg>
