<svg width="1292" height="226" viewBox="0 0 1292 226" fill="none" xmlns="http://www.w3.org/2000/svg">
<rect width="1292" height="226" rx="5" fill="#FAFAFA"/>
<rect width="1228" height="162" transform="translate(32 32)" fill="#FAFAFA"/>
<mask id="path-2-inside-1_1165_9330" fill="white">
<path d="M39 63.0432H1252V162.043H39V63.0432Z"/>
</mask>
<path d="M39 63.0432H1252V162.043H39V63.0432Z" fill="white"/>
<path d="M1252 161.543H39V162.543H1252V161.543Z" fill="#E6EAEE" mask="url(#path-2-inside-1_1165_9330)"/>
<path d="M57.52 122.543V104.175H59.844V122.543H57.52ZM64.6515 122.543V108.935H66.5555L66.7515 110.895H66.8355C67.4888 110.242 68.1795 109.701 68.9075 109.271C69.6355 108.823 70.4661 108.599 71.3995 108.599C72.8368 108.599 73.8821 109.057 74.5355 109.971C75.2075 110.867 75.5435 112.183 75.5435 113.919V122.543H73.2475V114.227C73.2475 112.958 73.0421 112.034 72.6315 111.455C72.2208 110.877 71.5675 110.587 70.6715 110.587C69.9808 110.587 69.3555 110.765 68.7955 111.119C68.2541 111.474 67.6381 111.997 66.9475 112.687V122.543H64.6515ZM85.34 122.879C84.1453 122.879 83.0626 122.599 82.092 122.039C81.1213 121.479 80.356 120.667 79.796 119.603C79.236 118.539 78.956 117.261 78.956 115.767C78.956 114.237 79.2546 112.939 79.852 111.875C80.468 110.811 81.2706 109.999 82.26 109.439C83.268 108.879 84.3506 108.599 85.508 108.599C86.404 108.599 87.1693 108.758 87.804 109.075C88.4573 109.393 89.0173 109.766 89.484 110.195L88.308 111.707C87.916 111.353 87.496 111.063 87.048 110.839C86.6186 110.615 86.1333 110.503 85.592 110.503C84.7706 110.503 84.0333 110.727 83.38 111.175C82.7453 111.605 82.2413 112.221 81.868 113.023C81.5133 113.807 81.336 114.722 81.336 115.767C81.336 117.317 81.7186 118.577 82.484 119.547C83.268 120.499 84.2853 120.975 85.536 120.975C86.1706 120.975 86.7586 120.845 87.3 120.583C87.8413 120.303 88.3173 119.977 88.728 119.603L89.736 121.143C89.12 121.685 88.4386 122.114 87.692 122.431C86.9453 122.73 86.1613 122.879 85.34 122.879ZM97.4239 122.879C96.3226 122.879 95.2866 122.599 94.3159 122.039C93.3639 121.479 92.5893 120.667 91.9919 119.603C91.4133 118.539 91.1239 117.261 91.1239 115.767C91.1239 114.237 91.4133 112.939 91.9919 111.875C92.5893 110.811 93.3639 109.999 94.3159 109.439C95.2866 108.879 96.3226 108.599 97.4239 108.599C98.5439 108.599 99.5799 108.879 100.532 109.439C101.484 109.999 102.249 110.811 102.828 111.875C103.425 112.939 103.724 114.237 103.724 115.767C103.724 117.261 103.425 118.539 102.828 119.603C102.249 120.667 101.484 121.479 100.532 122.039C99.5799 122.599 98.5439 122.879 97.4239 122.879ZM97.4239 120.975C98.5999 120.975 99.5426 120.499 100.252 119.547C100.98 118.577 101.344 117.317 101.344 115.767C101.344 114.199 100.98 112.93 100.252 111.959C99.5426 110.989 98.5999 110.503 97.4239 110.503C96.2666 110.503 95.3239 110.989 94.5959 111.959C93.8679 112.93 93.5039 114.199 93.5039 115.767C93.5039 117.317 93.8679 118.577 94.5959 119.547C95.3239 120.499 96.2666 120.975 97.4239 120.975ZM107.308 122.543V108.935H109.212L109.408 110.895H109.492C110.089 110.242 110.742 109.701 111.452 109.271C112.161 108.823 112.917 108.599 113.72 108.599C114.765 108.599 115.577 108.833 116.156 109.299C116.753 109.747 117.192 110.382 117.472 111.203C118.181 110.438 118.9 109.813 119.628 109.327C120.356 108.842 121.13 108.599 121.952 108.599C123.352 108.599 124.388 109.057 125.06 109.971C125.75 110.867 126.096 112.183 126.096 113.919V122.543H123.8V114.227C123.8 112.958 123.594 112.034 123.184 111.455C122.773 110.877 122.138 110.587 121.28 110.587C120.272 110.587 119.133 111.287 117.864 112.687V122.543H115.568V114.227C115.568 112.958 115.362 112.034 114.952 111.455C114.541 110.877 113.897 110.587 113.02 110.587C112.012 110.587 110.873 111.287 109.604 112.687V122.543H107.308ZM130.523 122.543V108.935H132.819V122.543H130.523ZM131.699 106.135C131.251 106.135 130.877 106.005 130.579 105.743C130.299 105.463 130.159 105.09 130.159 104.623C130.159 104.175 130.299 103.811 130.579 103.531C130.877 103.251 131.251 103.111 131.699 103.111C132.147 103.111 132.511 103.251 132.791 103.531C133.089 103.811 133.239 104.175 133.239 104.623C133.239 105.09 133.089 105.463 132.791 105.743C132.511 106.005 132.147 106.135 131.699 106.135ZM137.413 122.543V108.935H139.317L139.513 110.895H139.597C140.251 110.242 140.941 109.701 141.669 109.271C142.397 108.823 143.228 108.599 144.161 108.599C145.599 108.599 146.644 109.057 147.297 109.971C147.969 110.867 148.305 112.183 148.305 113.919V122.543H146.009V114.227C146.009 112.958 145.804 112.034 145.393 111.455C144.983 110.877 144.329 110.587 143.433 110.587C142.743 110.587 142.117 110.765 141.557 111.119C141.016 111.474 140.4 111.997 139.709 112.687V122.543H137.413ZM157.318 128.815C155.656 128.815 154.303 128.498 153.258 127.863C152.212 127.229 151.69 126.323 151.69 125.147C151.69 124.569 151.867 124.009 152.222 123.467C152.576 122.945 153.062 122.478 153.678 122.067V121.955C153.342 121.75 153.052 121.461 152.81 121.087C152.586 120.714 152.474 120.266 152.474 119.743C152.474 119.165 152.632 118.661 152.95 118.231C153.267 117.802 153.603 117.466 153.958 117.223V117.111C153.51 116.738 153.099 116.234 152.726 115.599C152.371 114.965 152.194 114.246 152.194 113.443C152.194 112.454 152.427 111.595 152.894 110.867C153.36 110.139 153.986 109.579 154.77 109.187C155.554 108.795 156.403 108.599 157.318 108.599C157.691 108.599 158.046 108.637 158.382 108.711C158.718 108.767 159.007 108.842 159.25 108.935H163.982V110.699H161.182C161.499 110.998 161.76 111.399 161.966 111.903C162.19 112.389 162.302 112.921 162.302 113.499C162.302 114.47 162.078 115.31 161.63 116.019C161.182 116.729 160.584 117.279 159.838 117.671C159.091 118.045 158.251 118.231 157.318 118.231C156.59 118.231 155.908 118.073 155.274 117.755C155.031 117.961 154.826 118.194 154.658 118.455C154.49 118.698 154.406 119.006 154.406 119.379C154.406 119.809 154.574 120.163 154.91 120.443C155.264 120.723 155.899 120.863 156.814 120.863H159.446C161.032 120.863 162.218 121.125 163.002 121.647C163.804 122.151 164.206 122.973 164.206 124.111C164.206 124.951 163.926 125.726 163.366 126.435C162.806 127.145 162.012 127.714 160.986 128.143C159.959 128.591 158.736 128.815 157.318 128.815ZM157.318 116.691C158.102 116.691 158.774 116.402 159.334 115.823C159.912 115.226 160.202 114.433 160.202 113.443C160.202 112.454 159.922 111.679 159.362 111.119C158.802 110.559 158.12 110.279 157.318 110.279C156.515 110.279 155.834 110.559 155.274 111.119C154.714 111.679 154.434 112.454 154.434 113.443C154.434 114.433 154.714 115.226 155.274 115.823C155.852 116.402 156.534 116.691 157.318 116.691ZM157.654 127.219C158.96 127.219 160.006 126.93 160.79 126.351C161.574 125.791 161.966 125.157 161.966 124.447C161.966 123.813 161.723 123.374 161.238 123.131C160.771 122.889 160.099 122.767 159.222 122.767H156.87C156.608 122.767 156.319 122.749 156.002 122.711C155.703 122.674 155.404 122.618 155.106 122.543C154.62 122.898 154.266 123.271 154.042 123.663C153.818 124.055 153.706 124.447 153.706 124.839C153.706 125.567 154.051 126.146 154.742 126.575C155.451 127.005 156.422 127.219 157.654 127.219Z" fill="#354052"/>
<path d="M571.44 94.7932H733.44C735.511 94.7932 737.19 96.4721 737.19 98.5432V126.543C737.19 128.614 735.511 130.293 733.44 130.293H571.44C569.369 130.293 567.69 128.614 567.69 126.543V98.5432C567.69 96.4721 569.369 94.7932 571.44 94.7932Z" fill="white"/>
<path d="M571.44 94.7932H733.44C735.511 94.7932 737.19 96.4721 737.19 98.5432V126.543C737.19 128.614 735.511 130.293 733.44 130.293H571.44C569.369 130.293 567.69 128.614 567.69 126.543V98.5432C567.69 96.4721 569.369 94.7932 571.44 94.7932Z" stroke="#E6EAEE" stroke-width="0.5"/>
<g clip-path="url(#clip0_1165_9330)">
<path d="M587.2 100.543C586.675 100.543 586.24 100.978 586.24 101.503V102.463H583.36C583.109 102.463 582.854 102.555 582.674 102.737C582.492 102.917 582.4 103.172 582.4 103.423V122.623C582.4 122.874 582.492 123.129 582.674 123.311C582.854 123.491 583.109 123.583 583.36 123.583H603.52C603.771 123.583 604.026 123.491 604.208 123.311C604.388 123.129 604.48 122.874 604.48 122.623V103.423C604.48 103.172 604.388 102.917 604.208 102.737C604.026 102.555 603.771 102.463 603.52 102.463H600.64V101.503C600.64 100.978 600.205 100.543 599.68 100.543H598.72C598.195 100.543 597.76 100.978 597.76 101.503V102.463H589.12V101.503C589.12 100.978 588.685 100.543 588.16 100.543H587.2ZM587.2 101.503H588.16V104.383H587.2V101.503ZM598.72 101.503H599.68V104.383H598.72V101.503ZM583.36 103.423H586.24V104.383C586.24 104.908 586.675 105.343 587.2 105.343H588.16C588.685 105.343 589.12 104.908 589.12 104.383V103.423H597.76V104.383C597.76 104.908 598.195 105.343 598.72 105.343H599.68C600.205 105.343 600.64 104.908 600.64 104.383V103.423H603.52V106.783H583.36V103.423ZM583.36 107.743H603.52V122.623H583.36V107.743ZM586.24 109.663V120.703H600.64V109.663H586.24ZM587.2 110.623H589.6V113.023H587.2V110.623ZM590.56 110.623H592.96V113.023H590.56V110.623ZM593.92 110.623H596.32V113.023H593.92V110.623ZM597.28 110.623H599.68V113.023H597.28V110.623ZM587.2 113.983H589.6V116.383H587.2V113.983ZM590.56 113.983H592.96V116.383H590.56V113.983ZM593.92 113.983H596.32V116.383H593.92V113.983ZM597.28 113.983H599.68V116.383H597.28V113.983ZM587.2 117.343H589.6V119.743H587.2V117.343ZM590.56 117.343H592.96V119.743H590.56V117.343ZM593.92 117.343H596.32V119.743H593.92V117.343ZM597.28 117.343H599.68V119.743H597.28V117.343Z" fill="#9C9EA7"/>
</g>
<path d="M611.972 117.543V116.605C612.803 115.803 613.517 115.089 614.114 114.463C614.721 113.829 615.187 113.255 615.514 112.741C615.841 112.219 616.004 111.733 616.004 111.285C616.004 110.819 615.878 110.445 615.626 110.165C615.374 109.885 615.01 109.745 614.534 109.745C614.189 109.745 613.871 109.843 613.582 110.039C613.302 110.235 613.041 110.469 612.798 110.739L611.902 109.843C612.313 109.405 612.737 109.069 613.176 108.835C613.615 108.593 614.137 108.471 614.744 108.471C615.603 108.471 616.284 108.719 616.788 109.213C617.301 109.708 617.558 110.371 617.558 111.201C617.558 111.724 617.409 112.261 617.11 112.811C616.821 113.353 616.429 113.908 615.934 114.477C615.449 115.047 614.912 115.644 614.324 116.269C614.557 116.251 614.809 116.232 615.08 116.213C615.351 116.185 615.593 116.171 615.808 116.171H617.992V117.543H611.972ZM619.094 117.543V116.227H621.082V110.375H619.444V109.367C619.882 109.283 620.265 109.185 620.592 109.073C620.918 108.952 621.222 108.807 621.502 108.639H622.706V116.227H624.456V117.543H619.094ZM624.844 119.783L628.106 107.603H629.198L625.936 119.783H624.844ZM632.512 117.711C631.588 117.711 630.851 117.31 630.3 116.507C629.759 115.705 629.488 114.552 629.488 113.049C629.488 111.547 629.759 110.408 630.3 109.633C630.851 108.859 631.588 108.471 632.512 108.471C633.436 108.471 634.169 108.859 634.71 109.633C635.261 110.408 635.536 111.547 635.536 113.049C635.536 114.552 635.261 115.705 634.71 116.507C634.169 117.31 633.436 117.711 632.512 117.711ZM632.512 116.451C632.801 116.451 633.058 116.344 633.282 116.129C633.506 115.905 633.679 115.546 633.8 115.051C633.931 114.557 633.996 113.889 633.996 113.049C633.996 112.209 633.931 111.547 633.8 111.061C633.679 110.576 633.506 110.235 633.282 110.039C633.058 109.834 632.801 109.731 632.512 109.731C632.232 109.731 631.98 109.834 631.756 110.039C631.532 110.235 631.355 110.576 631.224 111.061C631.093 111.547 631.028 112.209 631.028 113.049C631.028 113.889 631.093 114.557 631.224 115.051C631.355 115.546 631.532 115.905 631.756 116.129C631.98 116.344 632.232 116.451 632.512 116.451ZM638.92 117.711C638.201 117.711 637.594 117.59 637.1 117.347C636.614 117.095 636.208 116.806 635.882 116.479L636.624 115.443C636.894 115.695 637.198 115.919 637.534 116.115C637.87 116.302 638.262 116.395 638.71 116.395C639.204 116.395 639.615 116.246 639.942 115.947C640.268 115.649 640.432 115.229 640.432 114.687C640.432 114.155 640.282 113.745 639.984 113.455C639.685 113.166 639.288 113.021 638.794 113.021C638.504 113.021 638.262 113.063 638.066 113.147C637.87 113.222 637.636 113.348 637.366 113.525L636.596 113.035L636.862 108.639H641.622V109.997H638.262L638.08 112.153C638.266 112.06 638.448 111.99 638.626 111.943C638.812 111.887 639.022 111.859 639.256 111.859C639.769 111.859 640.236 111.957 640.656 112.153C641.076 112.349 641.412 112.653 641.664 113.063C641.925 113.474 642.056 114.001 642.056 114.645C642.056 115.289 641.906 115.84 641.608 116.297C641.318 116.755 640.936 117.105 640.46 117.347C639.984 117.59 639.47 117.711 638.92 117.711ZM642.332 119.783L645.594 107.603H646.686L643.424 119.783H642.332ZM646.948 117.543V116.605C647.779 115.803 648.493 115.089 649.09 114.463C649.697 113.829 650.163 113.255 650.49 112.741C650.817 112.219 650.98 111.733 650.98 111.285C650.98 110.819 650.854 110.445 650.602 110.165C650.35 109.885 649.986 109.745 649.51 109.745C649.165 109.745 648.847 109.843 648.558 110.039C648.278 110.235 648.017 110.469 647.774 110.739L646.878 109.843C647.289 109.405 647.713 109.069 648.152 108.835C648.591 108.593 649.113 108.471 649.72 108.471C650.579 108.471 651.26 108.719 651.764 109.213C652.277 109.708 652.534 110.371 652.534 111.201C652.534 111.724 652.385 112.261 652.086 112.811C651.797 113.353 651.405 113.908 650.91 114.477C650.425 115.047 649.888 115.644 649.3 116.269C649.533 116.251 649.785 116.232 650.056 116.213C650.327 116.185 650.569 116.171 650.784 116.171H652.968V117.543H646.948ZM654.882 114.001H657.22V111.985C657.22 111.724 657.229 111.416 657.248 111.061C657.266 110.707 657.28 110.399 657.29 110.137H657.234C657.122 110.371 657.005 110.599 656.884 110.823C656.762 111.047 656.636 111.281 656.506 111.523L654.882 114.001ZM657.22 117.543V115.247H653.286V114.155L656.814 108.639H658.732V114.001H659.852V115.247H658.732V117.543H657.22Z" fill="#354052"/>
<path d="M716.793 111.361C716.598 111.166 716.599 110.849 716.794 110.654V110.654C716.989 110.459 717.305 110.459 717.5 110.654L720.33 113.483C720.525 113.678 720.524 113.995 720.329 114.19V114.19C720.134 114.385 719.817 114.385 719.622 114.19L716.793 111.361Z" fill="#354052"/>
<rect width="1" height="5" rx="0.5" transform="matrix(0.707104 0.707109 -0.707104 0.707109 722.804 110.301)" fill="#354052"/>
<path d="M750.196 115.263V113.751H754.48V115.263H750.196Z" fill="#354052"/>
<path d="M771.44 94.7932H933.44C935.511 94.7932 937.19 96.4721 937.19 98.5432V126.543C937.19 128.614 935.511 130.293 933.44 130.293H771.44C769.369 130.293 767.69 128.614 767.69 126.543V98.5432C767.69 96.4721 769.369 94.7932 771.44 94.7932Z" fill="white"/>
<path d="M771.44 94.7932H933.44C935.511 94.7932 937.19 96.4721 937.19 98.5432V126.543C937.19 128.614 935.511 130.293 933.44 130.293H771.44C769.369 130.293 767.69 128.614 767.69 126.543V98.5432C767.69 96.4721 769.369 94.7932 771.44 94.7932Z" stroke="#E6EAEE" stroke-width="0.5"/>
<g clip-path="url(#clip1_1165_9330)">
<path d="M787.2 100.543C786.675 100.543 786.24 100.978 786.24 101.503V102.463H783.36C783.109 102.463 782.854 102.555 782.674 102.737C782.492 102.917 782.4 103.172 782.4 103.423V122.623C782.4 122.874 782.492 123.129 782.674 123.311C782.854 123.491 783.109 123.583 783.36 123.583H803.52C803.771 123.583 804.026 123.491 804.208 123.311C804.388 123.129 804.48 122.874 804.48 122.623V103.423C804.48 103.172 804.388 102.917 804.208 102.737C804.026 102.555 803.771 102.463 803.52 102.463H800.64V101.503C800.64 100.978 800.205 100.543 799.68 100.543H798.72C798.195 100.543 797.76 100.978 797.76 101.503V102.463H789.12V101.503C789.12 100.978 788.685 100.543 788.16 100.543H787.2ZM787.2 101.503H788.16V104.383H787.2V101.503ZM798.72 101.503H799.68V104.383H798.72V101.503ZM783.36 103.423H786.24V104.383C786.24 104.908 786.675 105.343 787.2 105.343H788.16C788.685 105.343 789.12 104.908 789.12 104.383V103.423H797.76V104.383C797.76 104.908 798.195 105.343 798.72 105.343H799.68C800.205 105.343 800.64 104.908 800.64 104.383V103.423H803.52V106.783H783.36V103.423ZM783.36 107.743H803.52V122.623H783.36V107.743ZM786.24 109.663V120.703H800.64V109.663H786.24ZM787.2 110.623H789.6V113.023H787.2V110.623ZM790.56 110.623H792.96V113.023H790.56V110.623ZM793.92 110.623H796.32V113.023H793.92V110.623ZM797.28 110.623H799.68V113.023H797.28V110.623ZM787.2 113.983H789.6V116.383H787.2V113.983ZM790.56 113.983H792.96V116.383H790.56V113.983ZM793.92 113.983H796.32V116.383H793.92V113.983ZM797.28 113.983H799.68V116.383H797.28V113.983ZM787.2 117.343H789.6V119.743H787.2V117.343ZM790.56 117.343H792.96V119.743H790.56V117.343ZM793.92 117.343H796.32V119.743H793.92V117.343ZM797.28 117.343H799.68V119.743H797.28V117.343Z" fill="#9C9EA7"/>
</g>
<path d="M811.972 117.543V116.605C812.803 115.803 813.517 115.089 814.114 114.463C814.721 113.829 815.187 113.255 815.514 112.741C815.841 112.219 816.004 111.733 816.004 111.285C816.004 110.819 815.878 110.445 815.626 110.165C815.374 109.885 815.01 109.745 814.534 109.745C814.189 109.745 813.871 109.843 813.582 110.039C813.302 110.235 813.041 110.469 812.798 110.739L811.902 109.843C812.313 109.405 812.737 109.069 813.176 108.835C813.615 108.593 814.137 108.471 814.744 108.471C815.603 108.471 816.284 108.719 816.788 109.213C817.301 109.708 817.558 110.371 817.558 111.201C817.558 111.724 817.409 112.261 817.11 112.811C816.821 113.353 816.429 113.908 815.934 114.477C815.449 115.047 814.912 115.644 814.324 116.269C814.557 116.251 814.809 116.232 815.08 116.213C815.351 116.185 815.593 116.171 815.808 116.171H817.992V117.543H811.972ZM819.094 117.543V116.227H821.082V110.375H819.444V109.367C819.882 109.283 820.265 109.185 820.592 109.073C820.918 108.952 821.222 108.807 821.502 108.639H822.706V116.227H824.456V117.543H819.094ZM824.844 119.783L828.106 107.603H829.198L825.936 119.783H824.844ZM832.512 117.711C831.588 117.711 830.851 117.31 830.3 116.507C829.759 115.705 829.488 114.552 829.488 113.049C829.488 111.547 829.759 110.408 830.3 109.633C830.851 108.859 831.588 108.471 832.512 108.471C833.436 108.471 834.169 108.859 834.71 109.633C835.261 110.408 835.536 111.547 835.536 113.049C835.536 114.552 835.261 115.705 834.71 116.507C834.169 117.31 833.436 117.711 832.512 117.711ZM832.512 116.451C832.801 116.451 833.058 116.344 833.282 116.129C833.506 115.905 833.679 115.546 833.8 115.051C833.931 114.557 833.996 113.889 833.996 113.049C833.996 112.209 833.931 111.547 833.8 111.061C833.679 110.576 833.506 110.235 833.282 110.039C833.058 109.834 832.801 109.731 832.512 109.731C832.232 109.731 831.98 109.834 831.756 110.039C831.532 110.235 831.355 110.576 831.224 111.061C831.093 111.547 831.028 112.209 831.028 113.049C831.028 113.889 831.093 114.557 831.224 115.051C831.355 115.546 831.532 115.905 831.756 116.129C831.98 116.344 832.232 116.451 832.512 116.451ZM838.92 117.711C838.201 117.711 837.594 117.59 837.1 117.347C836.614 117.095 836.208 116.806 835.882 116.479L836.624 115.443C836.894 115.695 837.198 115.919 837.534 116.115C837.87 116.302 838.262 116.395 838.71 116.395C839.204 116.395 839.615 116.246 839.942 115.947C840.268 115.649 840.432 115.229 840.432 114.687C840.432 114.155 840.282 113.745 839.984 113.455C839.685 113.166 839.288 113.021 838.794 113.021C838.504 113.021 838.262 113.063 838.066 113.147C837.87 113.222 837.636 113.348 837.366 113.525L836.596 113.035L836.862 108.639H841.622V109.997H838.262L838.08 112.153C838.266 112.06 838.448 111.99 838.626 111.943C838.812 111.887 839.022 111.859 839.256 111.859C839.769 111.859 840.236 111.957 840.656 112.153C841.076 112.349 841.412 112.653 841.664 113.063C841.925 113.474 842.056 114.001 842.056 114.645C842.056 115.289 841.906 115.84 841.608 116.297C841.318 116.755 840.936 117.105 840.46 117.347C839.984 117.59 839.47 117.711 838.92 117.711ZM842.332 119.783L845.594 107.603H846.686L843.424 119.783H842.332ZM846.948 117.543V116.605C847.779 115.803 848.493 115.089 849.09 114.463C849.697 113.829 850.163 113.255 850.49 112.741C850.817 112.219 850.98 111.733 850.98 111.285C850.98 110.819 850.854 110.445 850.602 110.165C850.35 109.885 849.986 109.745 849.51 109.745C849.165 109.745 848.847 109.843 848.558 110.039C848.278 110.235 848.017 110.469 847.774 110.739L846.878 109.843C847.289 109.405 847.713 109.069 848.152 108.835C848.591 108.593 849.113 108.471 849.72 108.471C850.579 108.471 851.26 108.719 851.764 109.213C852.277 109.708 852.534 110.371 852.534 111.201C852.534 111.724 852.385 112.261 852.086 112.811C851.797 113.353 851.405 113.908 850.91 114.477C850.425 115.047 849.888 115.644 849.3 116.269C849.533 116.251 849.785 116.232 850.056 116.213C850.327 116.185 850.569 116.171 850.784 116.171H852.968V117.543H846.948ZM854.882 114.001H857.22V111.985C857.22 111.724 857.229 111.416 857.248 111.061C857.266 110.707 857.28 110.399 857.29 110.137H857.234C857.122 110.371 857.005 110.599 856.884 110.823C856.762 111.047 856.636 111.281 856.506 111.523L854.882 114.001ZM857.22 117.543V115.247H853.286V114.155L856.814 108.639H858.732V114.001H859.852V115.247H858.732V117.543H857.22Z" fill="#354052"/>
<path d="M916.793 111.361C916.598 111.166 916.599 110.849 916.794 110.654V110.654C916.989 110.459 917.305 110.459 917.5 110.654L920.33 113.483C920.525 113.678 920.524 113.995 920.329 114.19V114.19C920.134 114.385 919.817 114.385 919.622 114.19L916.793 111.361Z" fill="#354052"/>
<rect width="1" height="5" rx="0.5" transform="matrix(0.707104 0.707109 -0.707104 0.707109 922.804 110.301)" fill="#354052"/>
<path d="M953.44 95.0432H1117C1118.93 95.0432 1120.5 96.6102 1120.5 98.5432V126.543C1120.5 128.476 1118.93 130.043 1117 130.043H953.44C951.507 130.043 949.94 128.476 949.94 126.543V98.5432C949.94 96.6102 951.507 95.0432 953.44 95.0432Z" fill="white"/>
<path d="M953.44 95.0432H1117C1118.93 95.0432 1120.5 96.6102 1120.5 98.5432V126.543C1120.5 128.476 1118.93 130.043 1117 130.043H953.44C951.507 130.043 949.94 128.476 949.94 126.543V98.5432C949.94 96.6102 951.507 95.0432 953.44 95.0432Z" stroke="#E6EAEE"/>
<path d="M965.602 117.043V107.887H971.118V109.259H967.226V111.597H970.516V112.969H967.226V115.671H971.258V117.043H965.602ZM971.636 117.043L973.82 113.459L971.776 110.169H973.512L974.282 111.471C974.385 111.658 974.487 111.854 974.59 112.059C974.702 112.255 974.809 112.447 974.912 112.633H974.968C975.052 112.447 975.141 112.255 975.234 112.059C975.327 111.854 975.416 111.658 975.5 111.471L976.158 110.169H977.824L975.794 113.641L977.978 117.043H976.242L975.402 115.685C975.29 115.48 975.173 115.275 975.052 115.069C974.94 114.864 974.823 114.663 974.702 114.467H974.646C974.553 114.663 974.455 114.864 974.352 115.069C974.249 115.265 974.147 115.471 974.044 115.685L973.316 117.043H971.636ZM979.202 119.759V110.169H980.532L980.644 110.897H980.7C980.99 110.655 981.312 110.445 981.666 110.267C982.03 110.09 982.399 110.001 982.772 110.001C983.631 110.001 984.294 110.319 984.76 110.953C985.236 111.588 985.474 112.437 985.474 113.501C985.474 114.285 985.334 114.957 985.054 115.517C984.774 116.068 984.41 116.488 983.962 116.777C983.524 117.067 983.048 117.211 982.534 117.211C982.236 117.211 981.937 117.146 981.638 117.015C981.34 116.875 981.05 116.689 980.77 116.455L980.812 117.603V119.759H979.202ZM982.198 115.881C982.656 115.881 983.038 115.681 983.346 115.279C983.654 114.878 983.808 114.29 983.808 113.515C983.808 112.825 983.692 112.288 983.458 111.905C983.225 111.523 982.847 111.331 982.324 111.331C981.839 111.331 981.335 111.588 980.812 112.101V115.307C981.064 115.513 981.307 115.662 981.54 115.755C981.774 115.839 981.993 115.881 982.198 115.881ZM989.919 117.211C989.349 117.211 988.817 117.071 988.323 116.791C987.828 116.502 987.427 116.091 987.119 115.559C986.811 115.018 986.657 114.369 986.657 113.613C986.657 112.848 986.811 112.199 987.119 111.667C987.427 111.126 987.828 110.715 988.323 110.435C988.817 110.146 989.349 110.001 989.919 110.001C990.497 110.001 991.034 110.146 991.529 110.435C992.023 110.715 992.425 111.126 992.733 111.667C993.041 112.199 993.195 112.848 993.195 113.613C993.195 114.369 993.041 115.018 992.733 115.559C992.425 116.091 992.023 116.502 991.529 116.791C991.034 117.071 990.497 117.211 989.919 117.211ZM989.919 115.895C990.423 115.895 990.819 115.685 991.109 115.265C991.398 114.845 991.543 114.295 991.543 113.613C991.543 112.923 991.398 112.367 991.109 111.947C990.819 111.527 990.423 111.317 989.919 111.317C989.415 111.317 989.018 111.527 988.729 111.947C988.449 112.367 988.309 112.923 988.309 113.613C988.309 114.295 988.449 114.845 988.729 115.265C989.018 115.685 989.415 115.895 989.919 115.895ZM994.788 117.043V110.169H996.118L996.23 111.387H996.286C996.529 110.939 996.823 110.599 997.168 110.365C997.514 110.123 997.868 110.001 998.232 110.001C998.559 110.001 998.82 110.048 999.016 110.141L998.736 111.541C998.615 111.504 998.503 111.476 998.4 111.457C998.298 111.439 998.172 111.429 998.022 111.429C997.752 111.429 997.467 111.537 997.168 111.751C996.87 111.957 996.613 112.321 996.398 112.843V117.043H994.788ZM1002.43 117.211C1001.64 117.211 1001.07 116.983 1000.74 116.525C1000.41 116.059 1000.25 115.457 1000.25 114.719V111.443H999.269V110.239L1000.33 110.169L1000.53 108.293H1001.87V110.169H1003.62V111.443H1001.87V114.719C1001.87 115.522 1002.19 115.923 1002.84 115.923C1002.96 115.923 1003.09 115.909 1003.22 115.881C1003.35 115.844 1003.46 115.807 1003.55 115.769L1003.83 116.959C1003.65 117.025 1003.43 117.081 1003.19 117.127C1002.96 117.183 1002.7 117.211 1002.43 117.211Z" fill="#354052"/>
<path d="M1099.35 111.361C1099.16 111.166 1099.16 110.849 1099.35 110.654V110.654C1099.55 110.459 1099.87 110.459 1100.06 110.654L1102.89 113.483C1103.08 113.678 1103.08 113.995 1102.89 114.19V114.19C1102.69 114.385 1102.38 114.385 1102.18 114.19L1099.35 111.361Z" fill="#354052"/>
<rect width="1" height="5" rx="0.5" transform="matrix(0.707104 0.707109 -0.707104 0.707109 1105.36 110.301)" fill="#354052"/>
<path d="M1133 97.0432C1133 94.8341 1134.79 93.0432 1137 93.0432H1232C1234.21 93.0432 1236 94.8341 1236 97.0432V128.043C1236 130.252 1234.21 132.043 1232 132.043H1137C1134.79 132.043 1133 130.252 1133 128.043V97.0432Z" fill="#1991EB"/>
<path d="M1151.04 112.671L1150.72 113.791H1153.05L1152.73 112.671C1152.58 112.186 1152.44 111.687 1152.3 111.173C1152.17 110.66 1152.04 110.151 1151.91 109.647H1151.85C1151.73 110.161 1151.6 110.674 1151.46 111.187C1151.33 111.691 1151.19 112.186 1151.04 112.671ZM1147.97 117.543L1150.95 108.387H1152.86L1155.84 117.543H1154.13L1153.42 115.065H1150.34L1149.62 117.543H1147.97ZM1159.24 117.711C1158.38 117.711 1157.69 117.394 1157.18 116.759C1156.67 116.125 1156.41 115.243 1156.41 114.113C1156.41 113.367 1156.54 112.723 1156.81 112.181C1157.09 111.64 1157.46 111.225 1157.91 110.935C1158.35 110.646 1158.83 110.501 1159.32 110.501C1159.71 110.501 1160.04 110.571 1160.31 110.711C1160.59 110.842 1160.87 111.024 1161.13 111.257L1161.07 110.151V107.659H1162.68V117.543H1161.35L1161.24 116.801H1161.18C1160.93 117.053 1160.64 117.268 1160.3 117.445C1159.96 117.623 1159.61 117.711 1159.24 117.711ZM1159.63 116.381C1160.14 116.381 1160.62 116.125 1161.07 115.611V112.405C1160.84 112.191 1160.6 112.041 1160.37 111.957C1160.14 111.873 1159.9 111.831 1159.67 111.831C1159.23 111.831 1158.85 112.032 1158.54 112.433C1158.23 112.825 1158.07 113.381 1158.07 114.099C1158.07 114.837 1158.21 115.401 1158.48 115.793C1158.75 116.185 1159.13 116.381 1159.63 116.381ZM1167.14 117.711C1166.28 117.711 1165.59 117.394 1165.08 116.759C1164.57 116.125 1164.31 115.243 1164.31 114.113C1164.31 113.367 1164.45 112.723 1164.72 112.181C1165 111.64 1165.36 111.225 1165.81 110.935C1166.26 110.646 1166.73 110.501 1167.22 110.501C1167.61 110.501 1167.95 110.571 1168.22 110.711C1168.5 110.842 1168.77 111.024 1169.03 111.257L1168.97 110.151V107.659H1170.58V117.543H1169.25L1169.14 116.801H1169.08C1168.83 117.053 1168.54 117.268 1168.2 117.445C1167.87 117.623 1167.51 117.711 1167.14 117.711ZM1167.53 116.381C1168.04 116.381 1168.52 116.125 1168.97 115.611V112.405C1168.74 112.191 1168.51 112.041 1168.27 111.957C1168.04 111.873 1167.81 111.831 1167.57 111.831C1167.13 111.831 1166.76 112.032 1166.44 112.433C1166.13 112.825 1165.98 113.381 1165.98 114.099C1165.98 114.837 1166.11 115.401 1166.38 115.793C1166.65 116.185 1167.04 116.381 1167.53 116.381ZM1175.44 117.543V110.669H1176.77L1176.88 111.887H1176.93C1177.18 111.439 1177.47 111.099 1177.82 110.865C1178.16 110.623 1178.52 110.501 1178.88 110.501C1179.21 110.501 1179.47 110.548 1179.66 110.641L1179.38 112.041C1179.26 112.004 1179.15 111.976 1179.05 111.957C1178.95 111.939 1178.82 111.929 1178.67 111.929C1178.4 111.929 1178.11 112.037 1177.82 112.251C1177.52 112.457 1177.26 112.821 1177.05 113.343V117.543H1175.44ZM1183.46 117.711C1182.83 117.711 1182.25 117.571 1181.74 117.291C1181.23 117.002 1180.82 116.591 1180.52 116.059C1180.22 115.518 1180.07 114.869 1180.07 114.113C1180.07 113.367 1180.22 112.723 1180.52 112.181C1180.83 111.64 1181.23 111.225 1181.71 110.935C1182.2 110.646 1182.71 110.501 1183.24 110.501C1183.86 110.501 1184.39 110.641 1184.81 110.921C1185.23 111.192 1185.54 111.575 1185.76 112.069C1185.97 112.555 1186.08 113.119 1186.08 113.763C1186.08 114.099 1186.06 114.361 1186.01 114.547H1181.64C1181.72 115.154 1181.94 115.625 1182.3 115.961C1182.66 116.297 1183.12 116.465 1183.67 116.465C1183.97 116.465 1184.25 116.423 1184.5 116.339C1184.76 116.246 1185.02 116.12 1185.27 115.961L1185.81 116.969C1185.49 117.184 1185.12 117.361 1184.72 117.501C1184.32 117.641 1183.9 117.711 1183.46 117.711ZM1181.63 113.455H1184.68C1184.68 112.923 1184.56 112.508 1184.33 112.209C1184.1 111.901 1183.75 111.747 1183.28 111.747C1182.88 111.747 1182.52 111.897 1182.2 112.195C1181.89 112.485 1181.7 112.905 1181.63 113.455ZM1191.86 120.259V118.005L1191.92 116.857C1191.66 117.1 1191.37 117.305 1191.05 117.473C1190.72 117.632 1190.38 117.711 1190.03 117.711C1189.17 117.711 1188.48 117.394 1187.97 116.759C1187.45 116.125 1187.2 115.243 1187.2 114.113C1187.2 113.367 1187.33 112.723 1187.6 112.181C1187.88 111.64 1188.25 111.225 1188.7 110.935C1189.14 110.646 1189.62 110.501 1190.11 110.501C1190.49 110.501 1190.83 110.571 1191.13 110.711C1191.43 110.842 1191.72 111.047 1192.01 111.327H1192.06L1192.2 110.669H1193.47V120.259H1191.86ZM1190.42 116.381C1190.93 116.381 1191.41 116.125 1191.86 115.611V112.405C1191.63 112.191 1191.39 112.041 1191.16 111.957C1190.93 111.873 1190.69 111.831 1190.46 111.831C1190.02 111.831 1189.64 112.032 1189.33 112.433C1189.02 112.825 1188.86 113.381 1188.86 114.099C1188.86 114.837 1189 115.401 1189.27 115.793C1189.54 116.185 1189.92 116.381 1190.42 116.381ZM1197.56 117.711C1196.83 117.711 1196.29 117.473 1195.95 116.997C1195.62 116.521 1195.45 115.849 1195.45 114.981V110.669H1197.06V114.771C1197.06 115.341 1197.14 115.742 1197.31 115.975C1197.48 116.209 1197.75 116.325 1198.12 116.325C1198.42 116.325 1198.68 116.251 1198.91 116.101C1199.14 115.952 1199.39 115.709 1199.65 115.373V110.669H1201.26V117.543H1199.94L1199.82 116.535H1199.78C1199.48 116.89 1199.15 117.175 1198.8 117.389C1198.44 117.604 1198.03 117.711 1197.56 117.711ZM1206.24 117.711C1205.6 117.711 1205.03 117.571 1204.52 117.291C1204 117.002 1203.6 116.591 1203.3 116.059C1203 115.518 1202.85 114.869 1202.85 114.113C1202.85 113.367 1203 112.723 1203.3 112.181C1203.61 111.64 1204 111.225 1204.49 110.935C1204.97 110.646 1205.48 110.501 1206.02 110.501C1206.64 110.501 1207.16 110.641 1207.58 110.921C1208 111.192 1208.32 111.575 1208.54 112.069C1208.75 112.555 1208.86 113.119 1208.86 113.763C1208.86 114.099 1208.83 114.361 1208.79 114.547H1204.42C1204.49 115.154 1204.71 115.625 1205.08 115.961C1205.44 116.297 1205.9 116.465 1206.45 116.465C1206.75 116.465 1207.02 116.423 1207.28 116.339C1207.54 116.246 1207.79 116.12 1208.05 115.961L1208.59 116.969C1208.26 117.184 1207.9 117.361 1207.5 117.501C1207.1 117.641 1206.68 117.711 1206.24 117.711ZM1204.41 113.455H1207.46C1207.46 112.923 1207.34 112.508 1207.11 112.209C1206.87 111.901 1206.52 111.747 1206.06 111.747C1205.66 111.747 1205.3 111.897 1204.98 112.195C1204.67 112.485 1204.48 112.905 1204.41 113.455ZM1212.31 117.711C1211.85 117.711 1211.38 117.623 1210.91 117.445C1210.45 117.259 1210.05 117.03 1209.71 116.759L1210.47 115.723C1210.77 115.957 1211.08 116.143 1211.39 116.283C1211.7 116.423 1212.02 116.493 1212.37 116.493C1212.74 116.493 1213.02 116.414 1213.2 116.255C1213.37 116.097 1213.46 115.901 1213.46 115.667C1213.46 115.471 1213.39 115.313 1213.24 115.191C1213.1 115.061 1212.92 114.949 1212.69 114.855C1212.47 114.753 1212.23 114.655 1211.99 114.561C1211.69 114.449 1211.39 114.314 1211.1 114.155C1210.81 113.987 1210.57 113.777 1210.38 113.525C1210.19 113.264 1210.1 112.942 1210.1 112.559C1210.1 111.953 1210.33 111.458 1210.77 111.075C1211.22 110.693 1211.83 110.501 1212.59 110.501C1213.08 110.501 1213.51 110.585 1213.9 110.753C1214.28 110.921 1214.61 111.113 1214.89 111.327L1214.15 112.307C1213.9 112.13 1213.66 111.99 1213.41 111.887C1213.16 111.775 1212.91 111.719 1212.64 111.719C1212.29 111.719 1212.03 111.794 1211.87 111.943C1211.7 112.083 1211.61 112.261 1211.61 112.475C1211.61 112.746 1211.75 112.951 1212.03 113.091C1212.31 113.231 1212.64 113.367 1213.01 113.497C1213.33 113.609 1213.64 113.749 1213.94 113.917C1214.24 114.076 1214.48 114.286 1214.68 114.547C1214.88 114.809 1214.99 115.154 1214.99 115.583C1214.99 116.171 1214.76 116.675 1214.3 117.095C1213.84 117.506 1213.18 117.711 1212.31 117.711ZM1218.57 117.711C1217.78 117.711 1217.21 117.483 1216.88 117.025C1216.55 116.559 1216.39 115.957 1216.39 115.219V111.943H1215.41V110.739L1216.47 110.669L1216.67 108.793H1218.01V110.669H1219.76V111.943H1218.01V115.219C1218.01 116.022 1218.33 116.423 1218.98 116.423C1219.1 116.423 1219.23 116.409 1219.36 116.381C1219.49 116.344 1219.6 116.307 1219.69 116.269L1219.97 117.459C1219.79 117.525 1219.57 117.581 1219.33 117.627C1219.1 117.683 1218.84 117.711 1218.57 117.711Z" fill="white"/>
<defs>
<clipPath id="clip0_1165_9330">
<rect width="24" height="24" fill="white" transform="translate(581.44 100.543)"/>
</clipPath>
<clipPath id="clip1_1165_9330">
<rect width="24" height="24" fill="white" transform="translate(781.44 100.543)"/>
</clipPath>
</defs>
</svg>
