<svg width="672" height="279" viewBox="0 0 672 279" fill="none" xmlns="http://www.w3.org/2000/svg">
<rect width="672" height="279" rx="5" fill="#FAFAFA"/>
<path d="M173.703 60.8125H161.713V94.5H154.315V60.8125H142.325V54.735H173.703V60.8125ZM184.143 69.31C185.243 68.2833 186.453 67.4492 187.773 66.8075C189.093 66.1658 190.642 65.845 192.42 65.845C193.96 65.845 195.326 66.1108 196.518 66.6425C197.709 67.1558 198.699 67.8892 199.488 68.8425C200.294 69.7775 200.899 70.905 201.303 72.225C201.724 73.5267 201.935 74.9658 201.935 76.5425V94.5H195.143V76.5425C195.143 74.8192 194.748 73.49 193.96 72.555C193.172 71.6017 191.971 71.125 190.358 71.125C189.184 71.125 188.084 71.3908 187.058 71.9225C186.031 72.4542 185.059 73.1783 184.143 74.095V94.5H177.35V53.635H184.143V69.31ZM226.573 77.1475C226.573 76.2675 226.444 75.4425 226.188 74.6725C225.949 73.8842 225.583 73.1967 225.088 72.61C224.593 72.0233 223.96 71.565 223.19 71.235C222.438 70.8867 221.558 70.7125 220.55 70.7125C218.588 70.7125 217.039 71.2717 215.903 72.39C214.784 73.5083 214.069 75.0942 213.758 77.1475H226.573ZM213.62 81.245C213.73 82.6933 213.987 83.9492 214.39 85.0125C214.793 86.0575 215.325 86.9283 215.985 87.625C216.645 88.3033 217.424 88.8167 218.323 89.165C219.239 89.495 220.248 89.66 221.348 89.66C222.448 89.66 223.392 89.5317 224.18 89.275C224.987 89.0183 225.683 88.7342 226.27 88.4225C226.875 88.1108 227.398 87.8267 227.838 87.57C228.296 87.3133 228.736 87.185 229.158 87.185C229.726 87.185 230.148 87.3958 230.423 87.8175L232.375 90.2925C231.623 91.1725 230.78 91.915 229.845 92.52C228.91 93.1067 227.929 93.5833 226.903 93.95C225.894 94.2983 224.858 94.5458 223.795 94.6925C222.75 94.8392 221.733 94.9125 220.743 94.9125C218.781 94.9125 216.957 94.5917 215.27 93.95C213.583 93.29 212.117 92.3275 210.87 91.0625C209.623 89.7792 208.643 88.2025 207.928 86.3325C207.213 84.4442 206.855 82.2625 206.855 79.7875C206.855 77.8625 207.167 76.0567 207.79 74.37C208.413 72.665 209.303 71.1892 210.458 69.9425C211.631 68.6775 213.052 67.6783 214.72 66.945C216.407 66.2117 218.304 65.845 220.413 65.845C222.191 65.845 223.832 66.1292 225.335 66.6975C226.838 67.2658 228.131 68.1 229.213 69.2C230.294 70.2817 231.138 71.62 231.743 73.215C232.366 74.7917 232.678 76.5975 232.678 78.6325C232.678 79.6592 232.568 80.3558 232.348 80.7225C232.128 81.0708 231.706 81.245 231.083 81.245H213.62ZM257.941 87.185C258.711 88.12 259.546 88.78 260.444 89.165C261.361 89.55 262.351 89.7425 263.414 89.7425C264.441 89.7425 265.366 89.55 266.191 89.165C267.016 88.78 267.713 88.1933 268.281 87.405C268.868 86.6167 269.317 85.6267 269.629 84.435C269.941 83.225 270.096 81.8042 270.096 80.1725C270.096 78.5225 269.959 77.1292 269.684 75.9925C269.427 74.8375 269.051 73.9025 268.556 73.1875C268.061 72.4725 267.456 71.95 266.741 71.62C266.045 71.29 265.247 71.125 264.349 71.125C262.937 71.125 261.736 71.4275 260.746 72.0325C259.756 72.6192 258.821 73.4533 257.941 74.535V87.185ZM257.584 70.135C258.739 68.8333 260.05 67.7792 261.516 66.9725C262.983 66.1658 264.706 65.7625 266.686 65.7625C268.226 65.7625 269.629 66.0833 270.894 66.725C272.177 67.3667 273.277 68.3017 274.194 69.53C275.129 70.74 275.844 72.2433 276.339 74.04C276.852 75.8183 277.109 77.8625 277.109 80.1725C277.109 82.2808 276.825 84.2333 276.256 86.03C275.688 87.8267 274.872 89.385 273.809 90.705C272.764 92.025 271.49 93.0608 269.986 93.8125C268.501 94.5458 266.833 94.9125 264.981 94.9125C263.405 94.9125 262.057 94.6742 260.939 94.1975C259.821 93.7025 258.821 93.0242 257.941 92.1625V103.713H251.149V66.285H255.301C256.181 66.285 256.759 66.6975 257.034 67.5225L257.584 70.135ZM289.284 53.635V94.5H282.491V53.635H289.284ZM310.956 82.455C308.995 82.5467 307.345 82.7208 306.006 82.9775C304.668 83.2158 303.595 83.5275 302.789 83.9125C301.982 84.2975 301.405 84.7467 301.056 85.26C300.708 85.7733 300.534 86.3325 300.534 86.9375C300.534 88.1292 300.882 88.9817 301.579 89.495C302.294 90.0083 303.22 90.265 304.356 90.265C305.75 90.265 306.95 90.0175 307.959 89.5225C308.985 89.0092 309.985 88.2392 310.956 87.2125V82.455ZM295.391 70.2175C298.636 67.2475 302.541 65.7625 307.106 65.7625C308.756 65.7625 310.232 66.0375 311.534 66.5875C312.835 67.1192 313.935 67.8708 314.834 68.8425C315.732 69.7958 316.41 70.9417 316.869 72.28C317.345 73.6183 317.584 75.085 317.584 76.68V94.5H314.504C313.862 94.5 313.367 94.4083 313.019 94.225C312.67 94.0233 312.395 93.6292 312.194 93.0425L311.589 91.0075C310.874 91.6492 310.177 92.2175 309.499 92.7125C308.82 93.1892 308.115 93.5925 307.381 93.9225C306.648 94.2525 305.86 94.5 305.016 94.665C304.191 94.8483 303.275 94.94 302.266 94.94C301.075 94.94 299.975 94.7842 298.966 94.4725C297.958 94.1425 297.087 93.6567 296.354 93.015C295.62 92.3733 295.052 91.5758 294.649 90.6225C294.245 89.6692 294.044 88.56 294.044 87.295C294.044 86.58 294.163 85.8742 294.401 85.1775C294.64 84.4625 295.025 83.7842 295.556 83.1425C296.106 82.5008 296.812 81.8958 297.674 81.3275C298.535 80.7592 299.59 80.2642 300.836 79.8425C302.101 79.4208 303.568 79.0817 305.236 78.825C306.905 78.55 308.811 78.385 310.956 78.33V76.68C310.956 74.7917 310.553 73.3983 309.746 72.5C308.94 71.5833 307.775 71.125 306.254 71.125C305.154 71.125 304.237 71.2533 303.504 71.51C302.789 71.7667 302.156 72.06 301.606 72.39C301.056 72.7017 300.552 72.9858 300.094 73.2425C299.654 73.4992 299.159 73.6275 298.609 73.6275C298.132 73.6275 297.729 73.5083 297.399 73.27C297.069 73.0133 296.803 72.72 296.601 72.39L295.391 70.2175ZM344.478 94.5V71.3725H332.185V86.6625C332.185 87.5425 332.396 88.23 332.818 88.725C333.258 89.22 333.853 89.4675 334.605 89.4675C335.027 89.4675 335.375 89.4217 335.65 89.33C335.943 89.22 336.191 89.11 336.393 89C336.613 88.89 336.805 88.7892 336.97 88.6975C337.135 88.5875 337.3 88.5325 337.465 88.5325C337.667 88.5325 337.832 88.5875 337.96 88.6975C338.088 88.7892 338.226 88.9358 338.373 89.1375L340.408 92.4375C339.418 93.2625 338.281 93.8858 336.998 94.3075C335.714 94.7292 334.385 94.94 333.01 94.94C330.553 94.94 328.665 94.2525 327.345 92.8775C326.043 91.4842 325.393 89.5683 325.393 87.13V71.3725H322.505C322.138 71.3725 321.827 71.2533 321.57 71.015C321.313 70.7767 321.185 70.4192 321.185 69.9425V67.2475L325.723 66.505L327.153 58.805C327.244 58.4383 327.418 58.1542 327.675 57.9525C327.932 57.7508 328.262 57.65 328.665 57.65H332.185V66.5325H344.478V64.4425C344.478 62.8292 344.716 61.3808 345.193 60.0975C345.688 58.8142 346.384 57.7233 347.283 56.825C348.199 55.9267 349.308 55.2392 350.61 54.7625C351.912 54.2858 353.378 54.0475 355.01 54.0475C356.312 54.0475 357.522 54.2217 358.64 54.57L358.503 57.98C358.484 58.2367 358.411 58.4475 358.283 58.6125C358.154 58.7592 357.98 58.8783 357.76 58.97C357.558 59.0433 357.32 59.0983 357.045 59.135C356.77 59.1533 356.477 59.1625 356.165 59.1625C355.358 59.1625 354.634 59.2542 353.993 59.4375C353.369 59.6025 352.838 59.905 352.398 60.345C351.958 60.7667 351.618 61.335 351.38 62.05C351.16 62.7467 351.05 63.6175 351.05 64.6625V66.5325H358.393V71.3725H351.27V94.5H344.478ZM374.01 65.845C376.1 65.845 377.997 66.1842 379.702 66.8625C381.426 67.5408 382.892 68.5033 384.102 69.75C385.331 70.9967 386.275 72.5183 386.935 74.315C387.595 76.1117 387.925 78.1192 387.925 80.3375C387.925 82.5742 387.595 84.5908 386.935 86.3875C386.275 88.1842 385.331 89.715 384.102 90.98C382.892 92.245 381.426 93.2167 379.702 93.895C377.997 94.5733 376.1 94.9125 374.01 94.9125C371.902 94.9125 369.986 94.5733 368.262 93.895C366.539 93.2167 365.063 92.245 363.835 90.98C362.625 89.715 361.681 88.1842 361.002 86.3875C360.342 84.5908 360.012 82.5742 360.012 80.3375C360.012 78.1192 360.342 76.1117 361.002 74.315C361.681 72.5183 362.625 70.9967 363.835 69.75C365.063 68.5033 366.539 67.5408 368.262 66.8625C369.986 66.1842 371.902 65.845 374.01 65.845ZM374.01 89.6875C376.357 89.6875 378.089 88.8992 379.207 87.3225C380.344 85.7458 380.912 83.4358 380.912 80.3925C380.912 77.3492 380.344 75.03 379.207 73.435C378.089 71.84 376.357 71.0425 374.01 71.0425C371.627 71.0425 369.857 71.8492 368.702 73.4625C367.566 75.0575 366.997 77.3675 366.997 80.3925C366.997 83.4175 367.566 85.7275 368.702 87.3225C369.857 88.8992 371.627 89.6875 374.01 89.6875ZM399.514 71.18C400.394 69.4933 401.439 68.1733 402.649 67.22C403.859 66.2483 405.289 65.7625 406.939 65.7625C408.241 65.7625 409.286 66.0467 410.074 66.615L409.634 71.7025C409.543 72.0325 409.405 72.2708 409.222 72.4175C409.057 72.5458 408.828 72.61 408.534 72.61C408.259 72.61 407.847 72.5642 407.297 72.4725C406.765 72.3808 406.243 72.335 405.729 72.335C404.978 72.335 404.309 72.445 403.722 72.665C403.135 72.885 402.604 73.2058 402.127 73.6275C401.669 74.0308 401.256 74.5258 400.889 75.1125C400.541 75.6992 400.211 76.3683 399.899 77.12V94.5H393.107V66.285H397.094C397.791 66.285 398.277 66.4133 398.552 66.67C398.827 66.9083 399.01 67.3483 399.102 67.99L399.514 71.18ZM413.625 94.5V66.285H417.777C418.657 66.285 419.235 66.6975 419.51 67.5225L419.95 69.6125C420.445 69.0625 420.958 68.5583 421.49 68.1C422.04 67.6417 422.617 67.2475 423.222 66.9175C423.845 66.5875 424.505 66.3308 425.202 66.1475C425.917 65.9458 426.696 65.845 427.54 65.845C429.318 65.845 430.775 66.3308 431.912 67.3025C433.067 68.2558 433.929 69.53 434.497 71.125C434.937 70.19 435.487 69.3925 436.147 68.7325C436.807 68.0542 437.531 67.5042 438.32 67.0825C439.108 66.6608 439.942 66.3492 440.822 66.1475C441.72 65.9458 442.619 65.845 443.517 65.845C445.075 65.845 446.46 66.0833 447.67 66.56C448.88 67.0367 449.897 67.7333 450.722 68.65C451.547 69.5667 452.17 70.685 452.592 72.005C453.032 73.325 453.252 74.8375 453.252 76.5425V94.5H446.46V76.5425C446.46 74.7458 446.065 73.3983 445.277 72.5C444.489 71.5833 443.334 71.125 441.812 71.125C441.115 71.125 440.465 71.2442 439.86 71.4825C439.273 71.7208 438.75 72.0692 438.292 72.5275C437.852 72.9675 437.504 73.5267 437.247 74.205C436.99 74.8833 436.862 75.6625 436.862 76.5425V94.5H430.042V76.5425C430.042 74.6542 429.657 73.2792 428.887 72.4175C428.135 71.5558 427.026 71.125 425.56 71.125C424.57 71.125 423.644 71.3725 422.782 71.8675C421.939 72.3442 421.15 73.0042 420.417 73.8475V94.5H413.625ZM146.835 160.5V137.4L144.388 137.015C143.856 136.905 143.425 136.722 143.095 136.465C142.783 136.19 142.628 135.805 142.628 135.31V132.532H146.835V130.442C146.835 128.829 147.073 127.381 147.55 126.097C148.045 124.814 148.742 123.723 149.64 122.825C150.557 121.927 151.666 121.239 152.968 120.762C154.269 120.286 155.736 120.047 157.368 120.047C158.669 120.047 159.879 120.222 160.998 120.57L160.86 123.98C160.842 124.237 160.768 124.447 160.64 124.612C160.512 124.759 160.338 124.878 160.118 124.97C159.916 125.043 159.678 125.098 159.403 125.135C159.128 125.153 158.834 125.162 158.523 125.162C157.716 125.162 156.992 125.254 156.35 125.437C155.727 125.602 155.195 125.905 154.755 126.345C154.315 126.767 153.976 127.335 153.738 128.05C153.518 128.747 153.408 129.617 153.408 130.662V132.532H160.75V137.372H153.628V160.5H146.835ZM176.3 131.845C178.39 131.845 180.287 132.184 181.992 132.863C183.716 133.541 185.182 134.503 186.392 135.75C187.621 136.997 188.565 138.518 189.225 140.315C189.885 142.112 190.215 144.119 190.215 146.337C190.215 148.574 189.885 150.591 189.225 152.387C188.565 154.184 187.621 155.715 186.392 156.98C185.182 158.245 183.716 159.217 181.992 159.895C180.287 160.573 178.39 160.913 176.3 160.913C174.192 160.913 172.276 160.573 170.552 159.895C168.829 159.217 167.353 158.245 166.125 156.98C164.915 155.715 163.971 154.184 163.292 152.387C162.632 150.591 162.302 148.574 162.302 146.337C162.302 144.119 162.632 142.112 163.292 140.315C163.971 138.518 164.915 136.997 166.125 135.75C167.353 134.503 168.829 133.541 170.552 132.863C172.276 132.184 174.192 131.845 176.3 131.845ZM176.3 155.687C178.647 155.687 180.379 154.899 181.497 153.322C182.634 151.746 183.202 149.436 183.202 146.392C183.202 143.349 182.634 141.03 181.497 139.435C180.379 137.84 178.647 137.042 176.3 137.042C173.917 137.042 172.147 137.849 170.992 139.462C169.856 141.057 169.287 143.367 169.287 146.392C169.287 149.417 169.856 151.727 170.992 153.322C172.147 154.899 173.917 155.687 176.3 155.687ZM201.804 137.18C202.684 135.493 203.729 134.173 204.939 133.22C206.149 132.248 207.579 131.762 209.229 131.762C210.531 131.762 211.576 132.047 212.364 132.615L211.924 137.702C211.833 138.032 211.695 138.271 211.512 138.417C211.347 138.546 211.118 138.61 210.824 138.61C210.549 138.61 210.137 138.564 209.587 138.472C209.055 138.381 208.533 138.335 208.019 138.335C207.268 138.335 206.599 138.445 206.012 138.665C205.425 138.885 204.894 139.206 204.417 139.627C203.959 140.031 203.546 140.526 203.179 141.112C202.831 141.699 202.501 142.368 202.189 143.12V160.5H195.397V132.285H199.384C200.081 132.285 200.567 132.413 200.842 132.67C201.117 132.908 201.3 133.348 201.392 133.99L201.804 137.18ZM243.012 148.455C241.05 148.547 239.4 148.721 238.062 148.977C236.724 149.216 235.651 149.527 234.844 149.912C234.038 150.297 233.46 150.747 233.112 151.26C232.764 151.773 232.589 152.332 232.589 152.937C232.589 154.129 232.938 154.982 233.634 155.495C234.349 156.008 235.275 156.265 236.412 156.265C237.805 156.265 239.006 156.017 240.014 155.522C241.041 155.009 242.04 154.239 243.012 153.212V148.455ZM227.447 136.217C230.692 133.247 234.597 131.762 239.162 131.762C240.812 131.762 242.288 132.037 243.589 132.587C244.891 133.119 245.991 133.871 246.889 134.842C247.788 135.796 248.466 136.942 248.924 138.28C249.401 139.618 249.639 141.085 249.639 142.68V160.5H246.559C245.918 160.5 245.423 160.408 245.074 160.225C244.726 160.023 244.451 159.629 244.249 159.042L243.644 157.007C242.929 157.649 242.233 158.217 241.554 158.712C240.876 159.189 240.17 159.592 239.437 159.922C238.704 160.252 237.915 160.5 237.072 160.665C236.247 160.848 235.33 160.94 234.322 160.94C233.13 160.94 232.03 160.784 231.022 160.472C230.014 160.142 229.143 159.657 228.409 159.015C227.676 158.373 227.108 157.576 226.704 156.622C226.301 155.669 226.099 154.56 226.099 153.295C226.099 152.58 226.219 151.874 226.457 151.177C226.695 150.462 227.08 149.784 227.612 149.142C228.162 148.501 228.868 147.896 229.729 147.327C230.591 146.759 231.645 146.264 232.892 145.842C234.157 145.421 235.624 145.082 237.292 144.825C238.96 144.55 240.867 144.385 243.012 144.33V142.68C243.012 140.792 242.609 139.398 241.802 138.5C240.995 137.583 239.831 137.125 238.309 137.125C237.209 137.125 236.293 137.253 235.559 137.51C234.844 137.767 234.212 138.06 233.662 138.39C233.112 138.702 232.608 138.986 232.149 139.242C231.709 139.499 231.214 139.627 230.664 139.627C230.188 139.627 229.784 139.508 229.454 139.27C229.124 139.013 228.859 138.72 228.657 138.39L227.447 136.217ZM276.249 138.252C276.047 138.509 275.846 138.711 275.644 138.857C275.461 139.004 275.186 139.077 274.819 139.077C274.471 139.077 274.132 138.977 273.802 138.775C273.472 138.555 273.077 138.317 272.619 138.06C272.161 137.785 271.611 137.547 270.969 137.345C270.346 137.125 269.567 137.015 268.632 137.015C267.44 137.015 266.395 137.235 265.497 137.675C264.598 138.097 263.847 138.711 263.242 139.517C262.655 140.324 262.215 141.305 261.922 142.46C261.628 143.597 261.482 144.889 261.482 146.337C261.482 147.841 261.637 149.179 261.949 150.352C262.279 151.526 262.747 152.516 263.352 153.322C263.957 154.111 264.69 154.716 265.552 155.137C266.413 155.541 267.385 155.742 268.467 155.742C269.548 155.742 270.419 155.614 271.079 155.357C271.757 155.082 272.326 154.789 272.784 154.477C273.242 154.147 273.637 153.854 273.967 153.597C274.315 153.322 274.7 153.185 275.122 153.185C275.672 153.185 276.084 153.396 276.359 153.817L278.312 156.292C277.56 157.172 276.744 157.915 275.864 158.52C274.984 159.107 274.067 159.583 273.114 159.95C272.179 160.298 271.207 160.546 270.199 160.693C269.209 160.839 268.219 160.913 267.229 160.913C265.487 160.913 263.847 160.592 262.307 159.95C260.767 159.29 259.419 158.337 258.264 157.09C257.109 155.843 256.192 154.322 255.514 152.525C254.854 150.71 254.524 148.647 254.524 146.337C254.524 144.266 254.817 142.35 255.404 140.59C256.009 138.812 256.889 137.281 258.044 135.997C259.199 134.696 260.629 133.678 262.334 132.945C264.039 132.212 266.001 131.845 268.219 131.845C270.327 131.845 272.17 132.184 273.747 132.863C275.342 133.541 276.772 134.512 278.037 135.777L276.249 138.252ZM311.032 160.5H304.24V137.372H291.15V152.662C291.15 153.542 291.361 154.23 291.782 154.725C292.222 155.22 292.818 155.467 293.57 155.467C293.992 155.467 294.34 155.422 294.615 155.33C294.908 155.22 295.156 155.11 295.357 155C295.577 154.89 295.77 154.789 295.935 154.697C296.1 154.587 296.265 154.532 296.43 154.532C296.632 154.532 296.797 154.587 296.925 154.697C297.053 154.789 297.191 154.936 297.337 155.137L299.372 158.437C298.382 159.262 297.246 159.886 295.962 160.307C294.679 160.729 293.35 160.94 291.975 160.94C289.518 160.94 287.63 160.252 286.31 158.877C285.008 157.484 284.357 155.568 284.357 153.13V137.372H281.47C281.103 137.372 280.792 137.253 280.535 137.015C280.278 136.777 280.15 136.419 280.15 135.942V133.247L284.687 132.477L286.117 124.805C286.209 124.438 286.383 124.154 286.64 123.952C286.897 123.751 287.227 123.65 287.63 123.65H291.15V132.532H311.032V160.5ZM312.215 123.952C312.215 124.539 312.096 125.098 311.857 125.63C311.619 126.143 311.298 126.592 310.895 126.977C310.51 127.362 310.042 127.674 309.492 127.912C308.961 128.132 308.392 128.242 307.787 128.242C307.201 128.242 306.651 128.132 306.137 127.912C305.624 127.674 305.175 127.362 304.79 126.977C304.405 126.592 304.093 126.143 303.855 125.63C303.635 125.098 303.525 124.539 303.525 123.952C303.525 123.347 303.635 122.788 303.855 122.275C304.093 121.743 304.405 121.285 304.79 120.9C305.175 120.497 305.624 120.185 306.137 119.965C306.651 119.727 307.201 119.607 307.787 119.607C308.392 119.607 308.961 119.727 309.492 119.965C310.042 120.185 310.51 120.497 310.895 120.9C311.298 121.285 311.619 121.743 311.857 122.275C312.096 122.788 312.215 123.347 312.215 123.952ZM343.403 132.285L332.21 160.5H326.05L314.858 132.285H320.468C320.981 132.285 321.403 132.404 321.733 132.642C322.081 132.881 322.31 133.183 322.42 133.55L327.865 148.62C328.159 149.5 328.415 150.362 328.635 151.205C328.855 152.048 329.048 152.892 329.213 153.735C329.396 152.892 329.598 152.048 329.818 151.205C330.038 150.362 330.304 149.5 330.615 148.62L336.17 133.55C336.299 133.183 336.528 132.881 336.858 132.642C337.188 132.404 337.582 132.285 338.04 132.285H343.403ZM364.341 143.147C364.341 142.267 364.213 141.442 363.956 140.672C363.718 139.884 363.351 139.197 362.856 138.61C362.361 138.023 361.729 137.565 360.959 137.235C360.207 136.887 359.327 136.712 358.319 136.712C356.357 136.712 354.808 137.272 353.671 138.39C352.553 139.508 351.838 141.094 351.526 143.147H364.341ZM351.389 147.245C351.499 148.693 351.755 149.949 352.159 151.012C352.562 152.057 353.094 152.928 353.754 153.625C354.414 154.303 355.193 154.817 356.091 155.165C357.008 155.495 358.016 155.66 359.116 155.66C360.216 155.66 361.16 155.532 361.949 155.275C362.755 155.018 363.452 154.734 364.039 154.422C364.644 154.111 365.166 153.827 365.606 153.57C366.064 153.313 366.504 153.185 366.926 153.185C367.494 153.185 367.916 153.396 368.191 153.817L370.144 156.292C369.392 157.172 368.549 157.915 367.614 158.52C366.679 159.107 365.698 159.583 364.671 159.95C363.663 160.298 362.627 160.546 361.564 160.693C360.519 160.839 359.501 160.913 358.511 160.913C356.549 160.913 354.725 160.592 353.039 159.95C351.352 159.29 349.885 158.327 348.639 157.062C347.392 155.779 346.411 154.202 345.696 152.332C344.981 150.444 344.624 148.262 344.624 145.787C344.624 143.862 344.935 142.057 345.559 140.37C346.182 138.665 347.071 137.189 348.226 135.942C349.399 134.677 350.82 133.678 352.489 132.945C354.175 132.212 356.073 131.845 358.181 131.845C359.959 131.845 361.6 132.129 363.104 132.697C364.607 133.266 365.899 134.1 366.981 135.2C368.063 136.282 368.906 137.62 369.511 139.215C370.134 140.792 370.446 142.597 370.446 144.632C370.446 145.659 370.336 146.356 370.116 146.722C369.896 147.071 369.474 147.245 368.851 147.245H351.389ZM403.823 148.455C401.861 148.547 400.211 148.721 398.873 148.977C397.534 149.216 396.462 149.527 395.655 149.912C394.848 150.297 394.271 150.747 393.923 151.26C393.574 151.773 393.4 152.332 393.4 152.937C393.4 154.129 393.748 154.982 394.445 155.495C395.16 156.008 396.086 156.265 397.223 156.265C398.616 156.265 399.817 156.017 400.825 155.522C401.852 155.009 402.851 154.239 403.823 153.212V148.455ZM388.258 136.217C391.503 133.247 395.408 131.762 399.973 131.762C401.623 131.762 403.098 132.037 404.4 132.587C405.702 133.119 406.802 133.871 407.7 134.842C408.598 135.796 409.277 136.942 409.735 138.28C410.212 139.618 410.45 141.085 410.45 142.68V160.5H407.37C406.728 160.5 406.233 160.408 405.885 160.225C405.537 160.023 405.262 159.629 405.06 159.042L404.455 157.007C403.74 157.649 403.043 158.217 402.365 158.712C401.687 159.189 400.981 159.592 400.248 159.922C399.514 160.252 398.726 160.5 397.883 160.665C397.058 160.848 396.141 160.94 395.133 160.94C393.941 160.94 392.841 160.784 391.833 160.472C390.824 160.142 389.953 159.657 389.22 159.015C388.487 158.373 387.918 157.576 387.515 156.622C387.112 155.669 386.91 154.56 386.91 153.295C386.91 152.58 387.029 151.874 387.268 151.177C387.506 150.462 387.891 149.784 388.423 149.142C388.973 148.501 389.678 147.896 390.54 147.327C391.402 146.759 392.456 146.264 393.703 145.842C394.968 145.421 396.434 145.082 398.103 144.825C399.771 144.55 401.678 144.385 403.823 144.33V142.68C403.823 140.792 403.419 139.398 402.613 138.5C401.806 137.583 400.642 137.125 399.12 137.125C398.02 137.125 397.103 137.253 396.37 137.51C395.655 137.767 395.023 138.06 394.473 138.39C393.923 138.702 393.418 138.986 392.96 139.242C392.52 139.499 392.025 139.627 391.475 139.627C390.998 139.627 390.595 139.508 390.265 139.27C389.935 139.013 389.669 138.72 389.468 138.39L388.258 136.217ZM427.16 145.705C428.003 145.705 428.736 145.595 429.36 145.375C429.983 145.137 430.496 144.816 430.9 144.412C431.321 144.009 431.633 143.523 431.835 142.955C432.055 142.387 432.165 141.763 432.165 141.085C432.165 139.692 431.743 138.592 430.9 137.785C430.075 136.96 428.828 136.547 427.16 136.547C425.491 136.547 424.236 136.96 423.392 137.785C422.567 138.592 422.155 139.692 422.155 141.085C422.155 141.745 422.256 142.359 422.457 142.927C422.677 143.496 422.989 143.991 423.392 144.412C423.814 144.816 424.336 145.137 424.96 145.375C425.601 145.595 426.335 145.705 427.16 145.705ZM434.832 161.765C434.832 161.215 434.667 160.766 434.337 160.417C434.007 160.069 433.558 159.803 432.99 159.62C432.421 159.418 431.752 159.272 430.982 159.18C430.231 159.088 429.424 159.024 428.562 158.987C427.719 158.932 426.839 158.887 425.922 158.85C425.024 158.813 424.144 158.74 423.282 158.63C422.531 159.052 421.916 159.547 421.44 160.115C420.981 160.683 420.752 161.343 420.752 162.095C420.752 162.59 420.871 163.048 421.11 163.47C421.366 163.91 421.761 164.286 422.292 164.598C422.842 164.909 423.548 165.148 424.41 165.313C425.271 165.496 426.326 165.588 427.572 165.588C428.837 165.588 429.928 165.487 430.845 165.285C431.761 165.102 432.513 164.836 433.1 164.488C433.705 164.158 434.145 163.754 434.42 163.278C434.695 162.819 434.832 162.315 434.832 161.765ZM441.597 133.247V135.777C441.597 136.584 441.111 137.079 440.14 137.262L437.61 137.73C437.995 138.702 438.187 139.765 438.187 140.92C438.187 142.313 437.903 143.578 437.335 144.715C436.785 145.833 436.015 146.787 435.025 147.575C434.035 148.363 432.861 148.977 431.505 149.417C430.166 149.839 428.718 150.05 427.16 150.05C426.61 150.05 426.078 150.022 425.565 149.967C425.051 149.912 424.547 149.839 424.052 149.747C423.172 150.279 422.732 150.875 422.732 151.535C422.732 152.103 422.989 152.525 423.502 152.8C424.034 153.057 424.731 153.24 425.592 153.35C426.454 153.46 427.435 153.533 428.535 153.57C429.635 153.588 430.762 153.643 431.917 153.735C433.072 153.827 434.2 153.992 435.3 154.23C436.4 154.45 437.381 154.807 438.242 155.302C439.104 155.797 439.791 156.476 440.305 157.337C440.836 158.181 441.102 159.272 441.102 160.61C441.102 161.857 440.791 163.067 440.167 164.24C439.562 165.413 438.673 166.458 437.5 167.375C436.345 168.292 434.915 169.025 433.21 169.575C431.523 170.143 429.598 170.428 427.435 170.428C425.308 170.428 423.456 170.217 421.88 169.795C420.303 169.392 418.992 168.842 417.947 168.145C416.902 167.467 416.123 166.678 415.61 165.78C415.096 164.882 414.84 163.947 414.84 162.975C414.84 161.655 415.234 160.555 416.022 159.675C416.829 158.777 417.929 158.062 419.322 157.53C418.571 157.145 417.975 156.632 417.535 155.99C417.095 155.348 416.875 154.505 416.875 153.46C416.875 153.038 416.948 152.607 417.095 152.167C417.26 151.709 417.489 151.26 417.782 150.82C418.094 150.38 418.479 149.967 418.937 149.582C419.396 149.179 419.936 148.822 420.56 148.51C419.13 147.74 418.002 146.713 417.177 145.43C416.371 144.147 415.967 142.643 415.967 140.92C415.967 139.527 416.242 138.271 416.792 137.152C417.361 136.016 418.14 135.053 419.13 134.265C420.138 133.458 421.321 132.844 422.677 132.422C424.052 132.001 425.546 131.79 427.16 131.79C428.37 131.79 429.506 131.918 430.57 132.175C431.633 132.413 432.605 132.771 433.485 133.247H441.597ZM452.945 132.285V160.5H446.125V132.285H452.945ZM453.88 124.062C453.88 124.649 453.761 125.199 453.522 125.712C453.284 126.226 452.963 126.675 452.56 127.06C452.175 127.445 451.716 127.757 451.185 127.995C450.653 128.215 450.085 128.325 449.48 128.325C448.893 128.325 448.334 128.215 447.802 127.995C447.289 127.757 446.84 127.445 446.455 127.06C446.07 126.675 445.758 126.226 445.52 125.712C445.3 125.199 445.19 124.649 445.19 124.062C445.19 123.457 445.3 122.889 445.52 122.357C445.758 121.826 446.07 121.367 446.455 120.982C446.84 120.597 447.289 120.295 447.802 120.075C448.334 119.837 448.893 119.717 449.48 119.717C450.085 119.717 450.653 119.837 451.185 120.075C451.716 120.295 452.175 120.597 452.56 120.982C452.963 121.367 453.284 121.826 453.522 122.357C453.761 122.889 453.88 123.457 453.88 124.062ZM466.222 135.75C466.79 135.182 467.386 134.659 468.01 134.182C468.651 133.687 469.32 133.275 470.017 132.945C470.732 132.597 471.493 132.331 472.3 132.147C473.106 131.946 473.986 131.845 474.94 131.845C476.48 131.845 477.845 132.111 479.037 132.642C480.229 133.156 481.219 133.889 482.007 134.842C482.814 135.777 483.419 136.905 483.822 138.225C484.244 139.527 484.455 140.966 484.455 142.542V160.5H477.662V142.542C477.662 140.819 477.268 139.49 476.48 138.555C475.691 137.602 474.49 137.125 472.877 137.125C471.704 137.125 470.604 137.391 469.577 137.922C468.55 138.454 467.579 139.178 466.662 140.095V160.5H459.87V132.285H464.022C464.902 132.285 465.48 132.697 465.755 133.522L466.222 135.75ZM501.227 145.705C502.07 145.705 502.804 145.595 503.427 145.375C504.05 145.137 504.564 144.816 504.967 144.412C505.389 144.009 505.7 143.523 505.902 142.955C506.122 142.387 506.232 141.763 506.232 141.085C506.232 139.692 505.81 138.592 504.967 137.785C504.142 136.96 502.895 136.547 501.227 136.547C499.559 136.547 498.303 136.96 497.46 137.785C496.635 138.592 496.222 139.692 496.222 141.085C496.222 141.745 496.323 142.359 496.525 142.927C496.745 143.496 497.056 143.991 497.46 144.412C497.881 144.816 498.404 145.137 499.027 145.375C499.669 145.595 500.402 145.705 501.227 145.705ZM508.9 161.765C508.9 161.215 508.735 160.766 508.405 160.417C508.075 160.069 507.625 159.803 507.057 159.62C506.489 159.418 505.82 159.272 505.05 159.18C504.298 159.088 503.491 159.024 502.63 158.987C501.786 158.932 500.906 158.887 499.99 158.85C499.091 158.813 498.211 158.74 497.35 158.63C496.598 159.052 495.984 159.547 495.507 160.115C495.049 160.683 494.82 161.343 494.82 162.095C494.82 162.59 494.939 163.048 495.177 163.47C495.434 163.91 495.828 164.286 496.36 164.598C496.91 164.909 497.615 165.148 498.477 165.313C499.339 165.496 500.393 165.588 501.64 165.588C502.905 165.588 503.995 165.487 504.912 165.285C505.829 165.102 506.58 164.836 507.167 164.488C507.772 164.158 508.212 163.754 508.487 163.278C508.762 162.819 508.9 162.315 508.9 161.765ZM515.665 133.247V135.777C515.665 136.584 515.179 137.079 514.207 137.262L511.677 137.73C512.062 138.702 512.255 139.765 512.255 140.92C512.255 142.313 511.97 143.578 511.402 144.715C510.852 145.833 510.082 146.787 509.092 147.575C508.102 148.363 506.929 148.977 505.572 149.417C504.234 149.839 502.785 150.05 501.227 150.05C500.677 150.05 500.145 150.022 499.632 149.967C499.119 149.912 498.615 149.839 498.12 149.747C497.24 150.279 496.8 150.875 496.8 151.535C496.8 152.103 497.056 152.525 497.57 152.8C498.101 153.057 498.798 153.24 499.66 153.35C500.521 153.46 501.502 153.533 502.602 153.57C503.702 153.588 504.83 153.643 505.985 153.735C507.14 153.827 508.267 153.992 509.367 154.23C510.467 154.45 511.448 154.807 512.31 155.302C513.171 155.797 513.859 156.476 514.372 157.337C514.904 158.181 515.17 159.272 515.17 160.61C515.17 161.857 514.858 163.067 514.235 164.24C513.63 165.413 512.74 166.458 511.567 167.375C510.412 168.292 508.982 169.025 507.277 169.575C505.59 170.143 503.665 170.428 501.502 170.428C499.375 170.428 497.524 170.217 495.947 169.795C494.37 169.392 493.06 168.842 492.015 168.145C490.97 167.467 490.19 166.678 489.677 165.78C489.164 164.882 488.907 163.947 488.907 162.975C488.907 161.655 489.301 160.555 490.09 159.675C490.896 158.777 491.996 158.062 493.39 157.53C492.638 157.145 492.042 156.632 491.602 155.99C491.162 155.348 490.942 154.505 490.942 153.46C490.942 153.038 491.015 152.607 491.162 152.167C491.327 151.709 491.556 151.26 491.85 150.82C492.161 150.38 492.546 149.967 493.005 149.582C493.463 149.179 494.004 148.822 494.627 148.51C493.197 147.74 492.07 146.713 491.245 145.43C490.438 144.147 490.035 142.643 490.035 140.92C490.035 139.527 490.31 138.271 490.86 137.152C491.428 136.016 492.207 135.053 493.197 134.265C494.205 133.458 495.388 132.844 496.745 132.422C498.12 132.001 499.614 131.79 501.227 131.79C502.437 131.79 503.574 131.918 504.637 132.175C505.7 132.413 506.672 132.771 507.552 133.247H515.665ZM518.982 156.76C518.982 156.192 519.083 155.651 519.285 155.137C519.505 154.624 519.798 154.184 520.165 153.817C520.531 153.451 520.971 153.157 521.485 152.937C521.998 152.717 522.548 152.607 523.135 152.607C523.721 152.607 524.262 152.717 524.757 152.937C525.271 153.157 525.711 153.451 526.077 153.817C526.462 154.184 526.765 154.624 526.985 155.137C527.205 155.651 527.315 156.192 527.315 156.76C527.315 157.347 527.205 157.897 526.985 158.41C526.765 158.905 526.462 159.336 526.077 159.702C525.711 160.069 525.271 160.353 524.757 160.555C524.262 160.775 523.721 160.885 523.135 160.885C522.548 160.885 521.998 160.775 521.485 160.555C520.971 160.353 520.531 160.069 520.165 159.702C519.798 159.336 519.505 158.905 519.285 158.41C519.083 157.897 518.982 157.347 518.982 156.76ZM168.89 222.017V226.5H146.533V187.092H151.84V222.017H168.89ZM188.727 213.96C186.472 214.033 184.547 214.217 182.952 214.51C181.375 214.785 180.083 215.152 179.074 215.61C178.084 216.068 177.36 216.609 176.902 217.232C176.462 217.856 176.242 218.552 176.242 219.322C176.242 220.056 176.361 220.688 176.599 221.22C176.838 221.752 177.159 222.192 177.562 222.54C177.984 222.87 178.469 223.117 179.019 223.282C179.588 223.429 180.193 223.502 180.834 223.502C181.696 223.502 182.484 223.42 183.199 223.255C183.914 223.072 184.584 222.815 185.207 222.485C185.849 222.155 186.454 221.761 187.022 221.302C187.609 220.844 188.177 220.322 188.727 219.735V213.96ZM172.914 202.575C174.454 201.09 176.114 199.981 177.892 199.247C179.67 198.514 181.641 198.147 183.804 198.147C185.363 198.147 186.747 198.404 187.957 198.917C189.167 199.431 190.184 200.146 191.009 201.062C191.834 201.979 192.458 203.088 192.879 204.39C193.301 205.692 193.512 207.122 193.512 208.68V226.5H191.339C190.863 226.5 190.496 226.427 190.239 226.28C189.983 226.115 189.781 225.803 189.634 225.345L189.084 222.705C188.351 223.383 187.636 223.988 186.939 224.52C186.243 225.033 185.509 225.473 184.739 225.84C183.969 226.188 183.144 226.454 182.264 226.638C181.403 226.839 180.44 226.94 179.377 226.94C178.295 226.94 177.278 226.793 176.324 226.5C175.371 226.188 174.537 225.73 173.822 225.125C173.125 224.52 172.566 223.759 172.144 222.842C171.741 221.907 171.539 220.807 171.539 219.542C171.539 218.442 171.842 217.388 172.447 216.38C173.052 215.353 174.033 214.446 175.389 213.657C176.746 212.869 178.515 212.227 180.697 211.732C182.879 211.219 185.555 210.926 188.727 210.852V208.68C188.727 206.517 188.259 204.885 187.324 203.785C186.389 202.667 185.024 202.107 183.227 202.107C182.017 202.107 180.999 202.263 180.174 202.575C179.368 202.868 178.662 203.207 178.057 203.592C177.47 203.959 176.957 204.298 176.517 204.61C176.095 204.903 175.674 205.05 175.252 205.05C174.922 205.05 174.638 204.967 174.399 204.802C174.161 204.619 173.959 204.399 173.794 204.142L172.914 202.575ZM209.145 226.94C206.945 226.94 205.249 226.326 204.057 225.097C202.884 223.869 202.297 222.1 202.297 219.79V202.74H198.942C198.649 202.74 198.402 202.657 198.2 202.492C197.998 202.309 197.897 202.034 197.897 201.667V199.715L202.462 199.137L203.59 190.53C203.645 190.255 203.764 190.035 203.947 189.87C204.149 189.687 204.406 189.595 204.717 189.595H207.192V199.192H215.25V202.74H207.192V219.46C207.192 220.633 207.477 221.504 208.045 222.072C208.613 222.641 209.347 222.925 210.245 222.925C210.758 222.925 211.198 222.861 211.565 222.732C211.95 222.586 212.28 222.43 212.555 222.265C212.83 222.1 213.059 221.953 213.242 221.825C213.444 221.678 213.618 221.605 213.765 221.605C214.022 221.605 214.251 221.761 214.452 222.072L215.882 224.41C215.039 225.198 214.022 225.822 212.83 226.28C211.638 226.72 210.41 226.94 209.145 226.94ZM231.886 198.202C233.921 198.202 235.754 198.542 237.386 199.22C239.017 199.898 240.411 200.861 241.566 202.107C242.721 203.354 243.601 204.867 244.206 206.645C244.829 208.405 245.141 210.376 245.141 212.557C245.141 214.757 244.829 216.737 244.206 218.497C243.601 220.257 242.721 221.761 241.566 223.007C240.411 224.254 239.017 225.217 237.386 225.895C235.754 226.555 233.921 226.885 231.886 226.885C229.832 226.885 227.981 226.555 226.331 225.895C224.699 225.217 223.306 224.254 222.151 223.007C220.996 221.761 220.106 220.257 219.483 218.497C218.878 216.737 218.576 214.757 218.576 212.557C218.576 210.376 218.878 208.405 219.483 206.645C220.106 204.867 220.996 203.354 222.151 202.107C223.306 200.861 224.699 199.898 226.331 199.22C227.981 198.542 229.832 198.202 231.886 198.202ZM231.886 223.062C234.636 223.062 236.689 222.146 238.046 220.312C239.402 218.461 240.081 215.885 240.081 212.585C240.081 209.267 239.402 206.682 238.046 204.83C236.689 202.978 234.636 202.052 231.886 202.052C230.492 202.052 229.273 202.291 228.228 202.767C227.201 203.244 226.34 203.932 225.643 204.83C224.965 205.728 224.451 206.837 224.103 208.157C223.773 209.459 223.608 210.935 223.608 212.585C223.608 215.885 224.286 218.461 225.643 220.312C227.018 222.146 229.099 223.062 231.886 223.062ZM267.236 226.5V202.822L264.156 202.465C263.771 202.373 263.451 202.236 263.194 202.052C262.956 201.851 262.836 201.567 262.836 201.2V199.192H267.236V196.497C267.236 194.902 267.456 193.491 267.896 192.262C268.355 191.016 268.996 189.971 269.821 189.127C270.665 188.266 271.673 187.615 272.846 187.175C274.02 186.735 275.34 186.515 276.806 186.515C278.053 186.515 279.199 186.698 280.244 187.065L280.134 189.512C280.097 189.952 279.85 190.191 279.391 190.227C278.951 190.264 278.356 190.282 277.604 190.282C276.761 190.282 275.991 190.392 275.294 190.612C274.616 190.832 274.029 191.19 273.534 191.685C273.039 192.18 272.654 192.831 272.379 193.637C272.122 194.444 271.994 195.443 271.994 196.635V199.192H280.024V202.74H272.159V226.5H267.236ZM295.533 198.202C297.568 198.202 299.401 198.542 301.033 199.22C302.665 199.898 304.058 200.861 305.213 202.107C306.368 203.354 307.248 204.867 307.853 206.645C308.476 208.405 308.788 210.376 308.788 212.557C308.788 214.757 308.476 216.737 307.853 218.497C307.248 220.257 306.368 221.761 305.213 223.007C304.058 224.254 302.665 225.217 301.033 225.895C299.401 226.555 297.568 226.885 295.533 226.885C293.48 226.885 291.628 226.555 289.978 225.895C288.346 225.217 286.953 224.254 285.798 223.007C284.643 221.761 283.754 220.257 283.131 218.497C282.526 216.737 282.223 214.757 282.223 212.557C282.223 210.376 282.526 208.405 283.131 206.645C283.754 204.867 284.643 203.354 285.798 202.107C286.953 200.861 288.346 199.898 289.978 199.22C291.628 198.542 293.48 198.202 295.533 198.202ZM295.533 223.062C298.283 223.062 300.336 222.146 301.693 220.312C303.05 218.461 303.728 215.885 303.728 212.585C303.728 209.267 303.05 206.682 301.693 204.83C300.336 202.978 298.283 202.052 295.533 202.052C294.14 202.052 292.921 202.291 291.876 202.767C290.849 203.244 289.987 203.932 289.291 204.83C288.612 205.728 288.099 206.837 287.751 208.157C287.421 209.459 287.256 210.935 287.256 212.585C287.256 215.885 287.934 218.461 289.291 220.312C290.666 222.146 292.746 223.062 295.533 223.062ZM319.617 202.685C320.222 202.007 320.863 201.392 321.542 200.842C322.22 200.292 322.935 199.825 323.687 199.44C324.457 199.037 325.263 198.734 326.107 198.532C326.968 198.312 327.894 198.202 328.884 198.202C330.406 198.202 331.744 198.459 332.899 198.972C334.072 199.467 335.044 200.182 335.814 201.117C336.602 202.034 337.198 203.143 337.602 204.445C338.005 205.747 338.207 207.186 338.207 208.762V226.5H333.284V208.762C333.284 206.654 332.798 205.022 331.827 203.867C330.873 202.694 329.416 202.107 327.454 202.107C326.006 202.107 324.649 202.456 323.384 203.152C322.137 203.849 320.982 204.793 319.919 205.985V226.5H314.997V198.642H317.939C318.636 198.642 319.067 198.982 319.232 199.66L319.617 202.685ZM353.842 226.94C351.642 226.94 349.946 226.326 348.755 225.097C347.581 223.869 346.995 222.1 346.995 219.79V202.74H343.64C343.346 202.74 343.099 202.657 342.897 202.492C342.695 202.309 342.595 202.034 342.595 201.667V199.715L347.16 199.137L348.287 190.53C348.342 190.255 348.461 190.035 348.645 189.87C348.846 189.687 349.103 189.595 349.415 189.595H351.89V199.192H359.947V202.74H351.89V219.46C351.89 220.633 352.174 221.504 352.742 222.072C353.31 222.641 354.044 222.925 354.942 222.925C355.455 222.925 355.895 222.861 356.262 222.732C356.647 222.586 356.977 222.43 357.252 222.265C357.527 222.1 357.756 221.953 357.94 221.825C358.141 221.678 358.315 221.605 358.462 221.605C358.719 221.605 358.948 221.761 359.15 222.072L360.58 224.41C359.736 225.198 358.719 225.822 357.527 226.28C356.335 226.72 355.107 226.94 353.842 226.94Z" fill="black"/>
</svg>
