<svg width="909" height="627" viewBox="0 0 909 627" fill="none" xmlns="http://www.w3.org/2000/svg">
<g clip-path="url(#clip0_197_4323)">
<rect y="0.956787" width="909" height="626" rx="5" fill="#FAFAFA"/>
<rect width="866" height="723" transform="translate(32 32.9568)" fill="#FAFAFA"/>
<g filter="url(#filter0_di_197_4323)">
<path d="M40 449C40 446.791 41.7909 445 44 445H286C288.209 445 290 446.791 290 449V550C290 552.209 288.209 554 286 554H44C41.7909 554 40 552.209 40 550V449Z" fill="white"/>
<path d="M40.25 449C40.25 446.929 41.9289 445.25 44 445.25H286C288.071 445.25 289.75 446.929 289.75 449V550C289.75 552.071 288.071 553.75 286 553.75H44C41.9289 553.75 40.25 552.071 40.25 550V449Z" stroke="#66AFE9" stroke-width="0.5"/>
<line x1="277.646" y1="550.839" x2="286.839" y2="541.646" stroke="black"/>
<line x1="281.889" y1="550.839" x2="286.839" y2="545.889" stroke="black"/>
</g>
<g clip-path="url(#clip1_197_4323)">
<path d="M42.8 437L39.944 427.844H41.666L42.954 432.45C43.1033 432.963 43.2387 433.458 43.36 433.934C43.4813 434.41 43.6167 434.909 43.766 435.432H43.822C43.9807 434.909 44.116 434.41 44.228 433.934C44.3493 433.458 44.48 432.963 44.62 432.45L45.894 427.844H47.56L44.718 437H42.8ZM49.7837 437.168C49.1864 437.168 48.6964 436.981 48.3137 436.608C47.9404 436.235 47.7537 435.749 47.7537 435.152C47.7537 434.415 48.0757 433.845 48.7197 433.444C49.3637 433.033 50.3904 432.753 51.7997 432.604C51.7904 432.24 51.6924 431.927 51.5057 431.666C51.3284 431.395 51.0064 431.26 50.5397 431.26C50.2037 431.26 49.8724 431.325 49.5457 431.456C49.2284 431.587 48.9157 431.745 48.6077 431.932L48.0197 430.854C48.4024 430.611 48.8317 430.401 49.3077 430.224C49.793 430.047 50.3064 429.958 50.8477 429.958C51.7064 429.958 52.3457 430.215 52.7657 430.728C53.195 431.232 53.4097 431.965 53.4097 432.926V437H52.0797L51.9677 436.244H51.9117C51.6037 436.505 51.2724 436.725 50.9177 436.902C50.5724 437.079 50.1944 437.168 49.7837 437.168ZM50.3017 435.908C50.5817 435.908 50.8337 435.843 51.0577 435.712C51.291 435.572 51.5384 435.385 51.7997 435.152V433.612C50.8664 433.733 50.2177 433.915 49.8537 434.158C49.4897 434.391 49.3077 434.681 49.3077 435.026C49.3077 435.334 49.401 435.558 49.5877 435.698C49.7744 435.838 50.0124 435.908 50.3017 435.908ZM56.9045 437.168C56.3351 437.168 55.9291 436.995 55.6865 436.65C55.4531 436.305 55.3365 435.833 55.3365 435.236V427.116H56.9465V435.32C56.9465 435.516 56.9838 435.656 57.0585 435.74C57.1331 435.815 57.2125 435.852 57.2965 435.852C57.3338 435.852 57.3665 435.852 57.3945 435.852C57.4318 435.843 57.4831 435.833 57.5485 435.824L57.7585 437.028C57.6651 437.065 57.5438 437.098 57.3945 437.126C57.2545 437.154 57.0911 437.168 56.9045 437.168ZM61.1812 437.168C60.4439 437.168 59.9072 436.93 59.5712 436.454C59.2352 435.978 59.0672 435.306 59.0672 434.438V430.126H60.6772V434.228C60.6772 434.797 60.7612 435.199 60.9292 435.432C61.0972 435.665 61.3679 435.782 61.7412 435.782C62.0399 435.782 62.3012 435.707 62.5252 435.558C62.7586 435.409 63.0059 435.166 63.2672 434.83V430.126H64.8772V437H63.5612L63.4352 435.992H63.3932C63.0946 436.347 62.7679 436.631 62.4132 436.846C62.0586 437.061 61.6479 437.168 61.1812 437.168ZM69.8565 437.168C69.2219 437.168 68.6479 437.028 68.1345 436.748C67.6212 436.459 67.2152 436.048 66.9165 435.516C66.6179 434.975 66.4685 434.326 66.4685 433.57C66.4685 432.823 66.6179 432.179 66.9165 431.638C67.2245 431.097 67.6212 430.681 68.1065 430.392C68.5919 430.103 69.1005 429.958 69.6325 429.958C70.2579 429.958 70.7805 430.098 71.2005 430.378C71.6205 430.649 71.9379 431.031 72.1525 431.526C72.3672 432.011 72.4745 432.576 72.4745 433.22C72.4745 433.556 72.4512 433.817 72.4045 434.004H68.0365C68.1112 434.611 68.3305 435.082 68.6945 435.418C69.0585 435.754 69.5159 435.922 70.0665 435.922C70.3652 435.922 70.6405 435.88 70.8925 435.796C71.1539 435.703 71.4105 435.577 71.6625 435.418L72.2085 436.426C71.8819 436.641 71.5179 436.818 71.1165 436.958C70.7152 437.098 70.2952 437.168 69.8565 437.168ZM68.0225 432.912H71.0745C71.0745 432.38 70.9579 431.965 70.7245 431.666C70.4912 431.358 70.1412 431.204 69.6745 431.204C69.2732 431.204 68.9139 431.353 68.5965 431.652C68.2885 431.941 68.0972 432.361 68.0225 432.912Z" fill="#576372"/>
</g>
<path d="M507.038 563.128L506.716 564.248H509.054L508.732 563.128C508.583 562.643 508.438 562.143 508.298 561.63C508.167 561.117 508.037 560.608 507.906 560.104H507.85C507.729 560.617 507.598 561.131 507.458 561.644C507.327 562.148 507.187 562.643 507.038 563.128ZM503.972 568L506.954 558.844H508.858L511.84 568H510.132L509.418 565.522H506.338L505.624 568H503.972ZM518.963 568.168C518.31 568.168 517.685 567.869 517.087 567.272H517.045L516.905 568H515.631V558.116H517.241V560.664L517.199 561.812C517.489 561.56 517.806 561.355 518.151 561.196C518.497 561.037 518.842 560.958 519.187 560.958C520.046 560.958 520.713 561.275 521.189 561.91C521.665 562.545 521.903 563.389 521.903 564.444C521.903 565.228 521.763 565.9 521.483 566.46C521.203 567.011 520.839 567.435 520.391 567.734C519.953 568.023 519.477 568.168 518.963 568.168ZM518.627 566.838C519.085 566.838 519.467 566.637 519.775 566.236C520.083 565.835 520.237 565.247 520.237 564.472C520.237 563.781 520.121 563.245 519.887 562.862C519.654 562.479 519.276 562.288 518.753 562.288C518.268 562.288 517.764 562.545 517.241 563.058V566.264C517.484 566.469 517.722 566.619 517.955 566.712C518.198 566.796 518.422 566.838 518.627 566.838ZM525.564 568.168C524.827 568.168 524.29 567.93 523.954 567.454C523.618 566.978 523.45 566.306 523.45 565.438V561.126H525.06V565.228C525.06 565.797 525.144 566.199 525.312 566.432C525.48 566.665 525.751 566.782 526.124 566.782C526.423 566.782 526.684 566.707 526.908 566.558C527.141 566.409 527.389 566.166 527.65 565.83V561.126H529.26V568H527.944L527.818 566.992H527.776C527.477 567.347 527.151 567.631 526.796 567.846C526.441 568.061 526.031 568.168 525.564 568.168ZM531.299 568V561.126H532.629L532.741 562.05H532.797C533.105 561.751 533.441 561.495 533.805 561.28C534.169 561.065 534.585 560.958 535.051 560.958C535.789 560.958 536.325 561.196 536.661 561.672C536.997 562.148 537.165 562.82 537.165 563.688V568H535.555V563.898C535.555 563.329 535.471 562.927 535.303 562.694C535.135 562.461 534.86 562.344 534.477 562.344C534.179 562.344 533.913 562.419 533.679 562.568C533.455 562.708 533.199 562.918 532.909 563.198V568H531.299ZM542.003 568.168C541.378 568.168 540.813 568.028 540.309 567.748C539.815 567.459 539.418 567.048 539.119 566.516C538.83 565.975 538.685 565.326 538.685 564.57C538.685 563.805 538.844 563.156 539.161 562.624C539.479 562.083 539.899 561.672 540.421 561.392C540.953 561.103 541.523 560.958 542.129 560.958C542.568 560.958 542.951 561.033 543.277 561.182C543.604 561.331 543.893 561.513 544.145 561.728L543.361 562.778C543.184 562.619 543.002 562.498 542.815 562.414C542.629 562.321 542.428 562.274 542.213 562.274C541.663 562.274 541.21 562.484 540.855 562.904C540.51 563.324 540.337 563.879 540.337 564.57C540.337 565.251 540.505 565.802 540.841 566.222C541.187 566.642 541.63 566.852 542.171 566.852C542.442 566.852 542.694 566.796 542.927 566.684C543.17 566.563 543.389 566.423 543.585 566.264L544.243 567.328C543.926 567.608 543.571 567.818 543.179 567.958C542.787 568.098 542.395 568.168 542.003 568.168ZM545.6 568V558.116H547.21V560.664L547.154 561.994C547.443 561.723 547.765 561.485 548.12 561.28C548.475 561.065 548.885 560.958 549.352 560.958C550.089 560.958 550.626 561.196 550.962 561.672C551.298 562.148 551.466 562.82 551.466 563.688V568H549.856V563.898C549.856 563.329 549.772 562.927 549.604 562.694C549.436 562.461 549.161 562.344 548.778 562.344C548.479 562.344 548.213 562.419 547.98 562.568C547.756 562.708 547.499 562.918 547.21 563.198V568H545.6ZM559.024 568.168C558.454 568.168 557.922 568.028 557.428 567.748C556.933 567.459 556.532 567.048 556.224 566.516C555.916 565.975 555.762 565.326 555.762 564.57C555.762 563.805 555.916 563.156 556.224 562.624C556.532 562.083 556.933 561.672 557.428 561.392C557.922 561.103 558.454 560.958 559.024 560.958C559.602 560.958 560.139 561.103 560.634 561.392C561.128 561.672 561.53 562.083 561.838 562.624C562.146 563.156 562.3 563.805 562.3 564.57C562.3 565.326 562.146 565.975 561.838 566.516C561.53 567.048 561.128 567.459 560.634 567.748C560.139 568.028 559.602 568.168 559.024 568.168ZM559.024 566.852C559.528 566.852 559.924 566.642 560.214 566.222C560.503 565.802 560.648 565.251 560.648 564.57C560.648 563.879 560.503 563.324 560.214 562.904C559.924 562.484 559.528 562.274 559.024 562.274C558.52 562.274 558.123 562.484 557.834 562.904C557.554 563.324 557.414 563.879 557.414 564.57C557.414 565.251 557.554 565.802 557.834 566.222C558.123 566.642 558.52 566.852 559.024 566.852ZM564.118 568V562.4H563.194V561.196L564.118 561.126V560.412C564.118 559.693 564.296 559.105 564.65 558.648C565.005 558.181 565.588 557.948 566.4 557.948C566.643 557.948 566.876 557.971 567.1 558.018C567.324 558.065 567.511 558.121 567.66 558.186L567.352 559.39C567.1 559.278 566.848 559.222 566.596 559.222C566.018 559.222 565.728 559.609 565.728 560.384V561.126H567.072V562.4H565.728V568H564.118ZM573.507 568.168C572.713 568.168 572.149 567.939 571.812 567.482C571.486 567.015 571.323 566.413 571.323 565.676V562.4H570.343V561.196L571.407 561.126L571.603 559.25H572.947V561.126H574.697V562.4H572.947V565.676C572.947 566.479 573.269 566.88 573.913 566.88C574.034 566.88 574.16 566.866 574.291 566.838C574.421 566.801 574.533 566.763 574.627 566.726L574.907 567.916C574.72 567.981 574.505 568.037 574.263 568.084C574.029 568.14 573.777 568.168 573.507 568.168ZM578.864 568.168C578.23 568.168 577.656 568.028 577.142 567.748C576.629 567.459 576.223 567.048 575.924 566.516C575.626 565.975 575.476 565.326 575.476 564.57C575.476 563.823 575.626 563.179 575.924 562.638C576.232 562.097 576.629 561.681 577.114 561.392C577.6 561.103 578.108 560.958 578.64 560.958C579.266 560.958 579.788 561.098 580.208 561.378C580.628 561.649 580.946 562.031 581.16 562.526C581.375 563.011 581.482 563.576 581.482 564.22C581.482 564.556 581.459 564.817 581.412 565.004H577.044C577.119 565.611 577.338 566.082 577.702 566.418C578.066 566.754 578.524 566.922 579.074 566.922C579.373 566.922 579.648 566.88 579.9 566.796C580.162 566.703 580.418 566.577 580.67 566.418L581.216 567.426C580.89 567.641 580.526 567.818 580.124 567.958C579.723 568.098 579.303 568.168 578.864 568.168ZM577.03 563.912H580.082C580.082 563.38 579.966 562.965 579.732 562.666C579.499 562.358 579.149 562.204 578.682 562.204C578.281 562.204 577.922 562.353 577.604 562.652C577.296 562.941 577.105 563.361 577.03 563.912ZM582.03 568L584.214 564.416L582.17 561.126H583.906L584.676 562.428C584.779 562.615 584.881 562.811 584.984 563.016C585.096 563.212 585.203 563.403 585.306 563.59H585.362C585.446 563.403 585.535 563.212 585.628 563.016C585.721 562.811 585.81 562.615 585.894 562.428L586.552 561.126H588.218L586.188 564.598L588.372 568H586.636L585.796 566.642C585.684 566.437 585.567 566.231 585.446 566.026C585.334 565.821 585.217 565.62 585.096 565.424H585.04C584.947 565.62 584.849 565.821 584.746 566.026C584.643 566.222 584.541 566.427 584.438 566.642L583.71 568H582.03ZM591.649 568.168C590.856 568.168 590.291 567.939 589.955 567.482C589.628 567.015 589.465 566.413 589.465 565.676V562.4H588.485V561.196L589.549 561.126L589.745 559.25H591.089V561.126H592.839V562.4H591.089V565.676C591.089 566.479 591.411 566.88 592.055 566.88C592.176 566.88 592.302 566.866 592.433 566.838C592.564 566.801 592.676 566.763 592.769 566.726L593.049 567.916C592.862 567.981 592.648 568.037 592.405 568.084C592.172 568.14 591.92 568.168 591.649 568.168Z" fill="#576372"/>
<g filter="url(#filter1_di_197_4323)">
<path d="M343 449C343 446.791 344.791 445 347 445H589C591.209 445 593 446.791 593 449V550C593 552.209 591.209 554 589 554H347C344.791 554 343 552.209 343 550V449Z" fill="#FFF7E6"/>
<path d="M343.25 449C343.25 446.929 344.929 445.25 347 445.25H589C591.071 445.25 592.75 446.929 592.75 449V550C592.75 552.071 591.071 553.75 589 553.75H347C344.929 553.75 343.25 552.071 343.25 550V449Z" stroke="#66AFE9" stroke-width="0.5"/>
<line x1="580.646" y1="550.839" x2="589.839" y2="541.646" stroke="black"/>
<line x1="584.889" y1="550.839" x2="589.839" y2="545.889" stroke="black"/>
</g>
<path d="M345.8 437L342.944 427.844H344.666L345.954 432.45C346.103 432.963 346.239 433.458 346.36 433.934C346.481 434.41 346.617 434.909 346.766 435.432H346.822C346.981 434.909 347.116 434.41 347.228 433.934C347.349 433.458 347.48 432.963 347.62 432.45L348.894 427.844H350.56L347.718 437H345.8ZM352.784 437.168C352.186 437.168 351.696 436.981 351.314 436.608C350.94 436.235 350.754 435.749 350.754 435.152C350.754 434.415 351.076 433.845 351.72 433.444C352.364 433.033 353.39 432.753 354.8 432.604C354.79 432.24 354.692 431.927 354.506 431.666C354.328 431.395 354.006 431.26 353.54 431.26C353.204 431.26 352.872 431.325 352.546 431.456C352.228 431.587 351.916 431.745 351.608 431.932L351.02 430.854C351.402 430.611 351.832 430.401 352.308 430.224C352.793 430.047 353.306 429.958 353.848 429.958C354.706 429.958 355.346 430.215 355.766 430.728C356.195 431.232 356.41 431.965 356.41 432.926V437H355.08L354.968 436.244H354.912C354.604 436.505 354.272 436.725 353.918 436.902C353.572 437.079 353.194 437.168 352.784 437.168ZM353.302 435.908C353.582 435.908 353.834 435.843 354.058 435.712C354.291 435.572 354.538 435.385 354.8 435.152V433.612C353.866 433.733 353.218 433.915 352.854 434.158C352.49 434.391 352.308 434.681 352.308 435.026C352.308 435.334 352.401 435.558 352.588 435.698C352.774 435.838 353.012 435.908 353.302 435.908ZM359.904 437.168C359.335 437.168 358.929 436.995 358.686 436.65C358.453 436.305 358.336 435.833 358.336 435.236V427.116H359.946V435.32C359.946 435.516 359.984 435.656 360.058 435.74C360.133 435.815 360.212 435.852 360.296 435.852C360.334 435.852 360.366 435.852 360.394 435.852C360.432 435.843 360.483 435.833 360.548 435.824L360.758 437.028C360.665 437.065 360.544 437.098 360.394 437.126C360.254 437.154 360.091 437.168 359.904 437.168ZM364.181 437.168C363.444 437.168 362.907 436.93 362.571 436.454C362.235 435.978 362.067 435.306 362.067 434.438V430.126H363.677V434.228C363.677 434.797 363.761 435.199 363.929 435.432C364.097 435.665 364.368 435.782 364.741 435.782C365.04 435.782 365.301 435.707 365.525 435.558C365.759 435.409 366.006 435.166 366.267 434.83V430.126H367.877V437H366.561L366.435 435.992H366.393C366.095 436.347 365.768 436.631 365.413 436.846C365.059 437.061 364.648 437.168 364.181 437.168ZM372.857 437.168C372.222 437.168 371.648 437.028 371.135 436.748C370.621 436.459 370.215 436.048 369.917 435.516C369.618 434.975 369.469 434.326 369.469 433.57C369.469 432.823 369.618 432.179 369.917 431.638C370.225 431.097 370.621 430.681 371.107 430.392C371.592 430.103 372.101 429.958 372.633 429.958C373.258 429.958 373.781 430.098 374.201 430.378C374.621 430.649 374.938 431.031 375.153 431.526C375.367 432.011 375.475 432.576 375.475 433.22C375.475 433.556 375.451 433.817 375.405 434.004H371.037C371.111 434.611 371.331 435.082 371.695 435.418C372.059 435.754 372.516 435.922 373.067 435.922C373.365 435.922 373.641 435.88 373.893 435.796C374.154 435.703 374.411 435.577 374.663 435.418L375.209 436.426C374.882 436.641 374.518 436.818 374.117 436.958C373.715 437.098 373.295 437.168 372.857 437.168ZM371.023 432.912H374.075C374.075 432.38 373.958 431.965 373.725 431.666C373.491 431.358 373.141 431.204 372.675 431.204C372.273 431.204 371.914 431.353 371.597 431.652C371.289 431.941 371.097 432.361 371.023 432.912ZM377.582 431.624L376.868 431.106L377.68 429.734L376.252 429.104L376.518 428.264L378.044 428.614L378.198 427.032H379.08L379.234 428.614L380.774 428.264L381.04 429.104L379.598 429.734L380.41 431.106L379.696 431.624L378.646 430.406L377.582 431.624Z" fill="#576372"/>
<path d="M796.038 563.128L795.716 564.248H798.054L797.732 563.128C797.583 562.643 797.438 562.143 797.298 561.63C797.167 561.117 797.037 560.608 796.906 560.104H796.85C796.729 560.617 796.598 561.131 796.458 561.644C796.327 562.148 796.187 562.643 796.038 563.128ZM792.972 568L795.954 558.844H797.858L800.84 568H799.132L798.418 565.522H795.338L794.624 568H792.972ZM807.963 568.168C807.31 568.168 806.685 567.869 806.087 567.272H806.045L805.905 568H804.631V558.116H806.241V560.664L806.199 561.812C806.489 561.56 806.806 561.355 807.151 561.196C807.497 561.037 807.842 560.958 808.187 560.958C809.046 560.958 809.713 561.275 810.189 561.91C810.665 562.545 810.903 563.389 810.903 564.444C810.903 565.228 810.763 565.9 810.483 566.46C810.203 567.011 809.839 567.435 809.391 567.734C808.953 568.023 808.477 568.168 807.963 568.168ZM807.627 566.838C808.085 566.838 808.467 566.637 808.775 566.236C809.083 565.835 809.237 565.247 809.237 564.472C809.237 563.781 809.121 563.245 808.887 562.862C808.654 562.479 808.276 562.288 807.753 562.288C807.268 562.288 806.764 562.545 806.241 563.058V566.264C806.484 566.469 806.722 566.619 806.955 566.712C807.198 566.796 807.422 566.838 807.627 566.838ZM814.564 568.168C813.827 568.168 813.29 567.93 812.954 567.454C812.618 566.978 812.45 566.306 812.45 565.438V561.126H814.06V565.228C814.06 565.797 814.144 566.199 814.312 566.432C814.48 566.665 814.751 566.782 815.124 566.782C815.423 566.782 815.684 566.707 815.908 566.558C816.141 566.409 816.389 566.166 816.65 565.83V561.126H818.26V568H816.944L816.818 566.992H816.776C816.477 567.347 816.151 567.631 815.796 567.846C815.441 568.061 815.031 568.168 814.564 568.168ZM820.299 568V561.126H821.629L821.741 562.05H821.797C822.105 561.751 822.441 561.495 822.805 561.28C823.169 561.065 823.585 560.958 824.051 560.958C824.789 560.958 825.325 561.196 825.661 561.672C825.997 562.148 826.165 562.82 826.165 563.688V568H824.555V563.898C824.555 563.329 824.471 562.927 824.303 562.694C824.135 562.461 823.86 562.344 823.477 562.344C823.179 562.344 822.913 562.419 822.679 562.568C822.455 562.708 822.199 562.918 821.909 563.198V568H820.299ZM831.003 568.168C830.378 568.168 829.813 568.028 829.309 567.748C828.815 567.459 828.418 567.048 828.119 566.516C827.83 565.975 827.685 565.326 827.685 564.57C827.685 563.805 827.844 563.156 828.161 562.624C828.479 562.083 828.899 561.672 829.421 561.392C829.953 561.103 830.523 560.958 831.129 560.958C831.568 560.958 831.951 561.033 832.277 561.182C832.604 561.331 832.893 561.513 833.145 561.728L832.361 562.778C832.184 562.619 832.002 562.498 831.815 562.414C831.629 562.321 831.428 562.274 831.213 562.274C830.663 562.274 830.21 562.484 829.855 562.904C829.51 563.324 829.337 563.879 829.337 564.57C829.337 565.251 829.505 565.802 829.841 566.222C830.187 566.642 830.63 566.852 831.171 566.852C831.442 566.852 831.694 566.796 831.927 566.684C832.17 566.563 832.389 566.423 832.585 566.264L833.243 567.328C832.926 567.608 832.571 567.818 832.179 567.958C831.787 568.098 831.395 568.168 831.003 568.168ZM834.6 568V558.116H836.21V560.664L836.154 561.994C836.443 561.723 836.765 561.485 837.12 561.28C837.475 561.065 837.885 560.958 838.352 560.958C839.089 560.958 839.626 561.196 839.962 561.672C840.298 562.148 840.466 562.82 840.466 563.688V568H838.856V563.898C838.856 563.329 838.772 562.927 838.604 562.694C838.436 562.461 838.161 562.344 837.778 562.344C837.479 562.344 837.213 562.419 836.98 562.568C836.756 562.708 836.499 562.918 836.21 563.198V568H834.6ZM848.024 568.168C847.454 568.168 846.922 568.028 846.428 567.748C845.933 567.459 845.532 567.048 845.224 566.516C844.916 565.975 844.762 565.326 844.762 564.57C844.762 563.805 844.916 563.156 845.224 562.624C845.532 562.083 845.933 561.672 846.428 561.392C846.922 561.103 847.454 560.958 848.024 560.958C848.602 560.958 849.139 561.103 849.634 561.392C850.128 561.672 850.53 562.083 850.838 562.624C851.146 563.156 851.3 563.805 851.3 564.57C851.3 565.326 851.146 565.975 850.838 566.516C850.53 567.048 850.128 567.459 849.634 567.748C849.139 568.028 848.602 568.168 848.024 568.168ZM848.024 566.852C848.528 566.852 848.924 566.642 849.214 566.222C849.503 565.802 849.648 565.251 849.648 564.57C849.648 563.879 849.503 563.324 849.214 562.904C848.924 562.484 848.528 562.274 848.024 562.274C847.52 562.274 847.123 562.484 846.834 562.904C846.554 563.324 846.414 563.879 846.414 564.57C846.414 565.251 846.554 565.802 846.834 566.222C847.123 566.642 847.52 566.852 848.024 566.852ZM853.118 568V562.4H852.194V561.196L853.118 561.126V560.412C853.118 559.693 853.296 559.105 853.65 558.648C854.005 558.181 854.588 557.948 855.4 557.948C855.643 557.948 855.876 557.971 856.1 558.018C856.324 558.065 856.511 558.121 856.66 558.186L856.352 559.39C856.1 559.278 855.848 559.222 855.596 559.222C855.018 559.222 854.728 559.609 854.728 560.384V561.126H856.072V562.4H854.728V568H853.118ZM862.507 568.168C861.713 568.168 861.149 567.939 860.812 567.482C860.486 567.015 860.323 566.413 860.323 565.676V562.4H859.343V561.196L860.407 561.126L860.603 559.25H861.947V561.126H863.697V562.4H861.947V565.676C861.947 566.479 862.269 566.88 862.913 566.88C863.034 566.88 863.16 566.866 863.291 566.838C863.421 566.801 863.533 566.763 863.627 566.726L863.907 567.916C863.72 567.981 863.505 568.037 863.263 568.084C863.029 568.14 862.777 568.168 862.507 568.168ZM867.864 568.168C867.23 568.168 866.656 568.028 866.142 567.748C865.629 567.459 865.223 567.048 864.924 566.516C864.626 565.975 864.476 565.326 864.476 564.57C864.476 563.823 864.626 563.179 864.924 562.638C865.232 562.097 865.629 561.681 866.114 561.392C866.6 561.103 867.108 560.958 867.64 560.958C868.266 560.958 868.788 561.098 869.208 561.378C869.628 561.649 869.946 562.031 870.16 562.526C870.375 563.011 870.482 563.576 870.482 564.22C870.482 564.556 870.459 564.817 870.412 565.004H866.044C866.119 565.611 866.338 566.082 866.702 566.418C867.066 566.754 867.524 566.922 868.074 566.922C868.373 566.922 868.648 566.88 868.9 566.796C869.162 566.703 869.418 566.577 869.67 566.418L870.216 567.426C869.89 567.641 869.526 567.818 869.124 567.958C868.723 568.098 868.303 568.168 867.864 568.168ZM866.03 563.912H869.082C869.082 563.38 868.966 562.965 868.732 562.666C868.499 562.358 868.149 562.204 867.682 562.204C867.281 562.204 866.922 562.353 866.604 562.652C866.296 562.941 866.105 563.361 866.03 563.912ZM871.03 568L873.214 564.416L871.17 561.126H872.906L873.676 562.428C873.779 562.615 873.881 562.811 873.984 563.016C874.096 563.212 874.203 563.403 874.306 563.59H874.362C874.446 563.403 874.535 563.212 874.628 563.016C874.721 562.811 874.81 562.615 874.894 562.428L875.552 561.126H877.218L875.188 564.598L877.372 568H875.636L874.796 566.642C874.684 566.437 874.567 566.231 874.446 566.026C874.334 565.821 874.217 565.62 874.096 565.424H874.04C873.947 565.62 873.849 565.821 873.746 566.026C873.643 566.222 873.541 566.427 873.438 566.642L872.71 568H871.03ZM880.649 568.168C879.856 568.168 879.291 567.939 878.955 567.482C878.628 567.015 878.465 566.413 878.465 565.676V562.4H877.485V561.196L878.549 561.126L878.745 559.25H880.089V561.126H881.839V562.4H880.089V565.676C880.089 566.479 880.411 566.88 881.055 566.88C881.176 566.88 881.302 566.866 881.433 566.838C881.564 566.801 881.676 566.763 881.769 566.726L882.049 567.916C881.862 567.981 881.648 568.037 881.405 568.084C881.172 568.14 880.92 568.168 880.649 568.168Z" fill="#576372"/>
<g filter="url(#filter2_di_197_4323)">
<path d="M632 449C632 446.791 633.791 445 636 445H878C880.209 445 882 446.791 882 449V550C882 552.209 880.209 554 878 554H636C633.791 554 632 552.209 632 550V449Z" fill="#FFF7E6"/>
<path d="M632.25 449C632.25 446.929 633.929 445.25 636 445.25H878C880.071 445.25 881.75 446.929 881.75 449V550C881.75 552.071 880.071 553.75 878 553.75H636C633.929 553.75 632.25 552.071 632.25 550V449Z" stroke="#66AFE9" stroke-width="0.5"/>
<line x1="869.646" y1="550.839" x2="878.839" y2="541.646" stroke="black"/>
<line x1="873.889" y1="550.839" x2="878.839" y2="545.889" stroke="black"/>
<path d="M644.8 468L641.944 458.844H643.666L644.954 463.45C645.103 463.963 645.239 464.458 645.36 464.934C645.481 465.41 645.617 465.909 645.766 466.432H645.822C645.981 465.909 646.116 465.41 646.228 464.934C646.349 464.458 646.48 463.963 646.62 463.45L647.894 458.844H649.56L646.718 468H644.8ZM651.784 468.168C651.186 468.168 650.696 467.981 650.314 467.608C649.94 467.235 649.754 466.749 649.754 466.152C649.754 465.415 650.076 464.845 650.72 464.444C651.364 464.033 652.39 463.753 653.8 463.604C653.79 463.24 653.692 462.927 653.506 462.666C653.328 462.395 653.006 462.26 652.54 462.26C652.204 462.26 651.872 462.325 651.546 462.456C651.228 462.587 650.916 462.745 650.608 462.932L650.02 461.854C650.402 461.611 650.832 461.401 651.308 461.224C651.793 461.047 652.306 460.958 652.848 460.958C653.706 460.958 654.346 461.215 654.766 461.728C655.195 462.232 655.41 462.965 655.41 463.926V468H654.08L653.968 467.244H653.912C653.604 467.505 653.272 467.725 652.918 467.902C652.572 468.079 652.194 468.168 651.784 468.168ZM652.302 466.908C652.582 466.908 652.834 466.843 653.058 466.712C653.291 466.572 653.538 466.385 653.8 466.152V464.612C652.866 464.733 652.218 464.915 651.854 465.158C651.49 465.391 651.308 465.681 651.308 466.026C651.308 466.334 651.401 466.558 651.588 466.698C651.774 466.838 652.012 466.908 652.302 466.908ZM658.904 468.168C658.335 468.168 657.929 467.995 657.686 467.65C657.453 467.305 657.336 466.833 657.336 466.236V458.116H658.946V466.32C658.946 466.516 658.984 466.656 659.058 466.74C659.133 466.815 659.212 466.852 659.296 466.852C659.334 466.852 659.366 466.852 659.394 466.852C659.432 466.843 659.483 466.833 659.548 466.824L659.758 468.028C659.665 468.065 659.544 468.098 659.394 468.126C659.254 468.154 659.091 468.168 658.904 468.168ZM663.181 468.168C662.444 468.168 661.907 467.93 661.571 467.454C661.235 466.978 661.067 466.306 661.067 465.438V461.126H662.677V465.228C662.677 465.797 662.761 466.199 662.929 466.432C663.097 466.665 663.368 466.782 663.741 466.782C664.04 466.782 664.301 466.707 664.525 466.558C664.759 466.409 665.006 466.166 665.267 465.83V461.126H666.877V468H665.561L665.435 466.992H665.393C665.095 467.347 664.768 467.631 664.413 467.846C664.059 468.061 663.648 468.168 663.181 468.168ZM671.857 468.168C671.222 468.168 670.648 468.028 670.135 467.748C669.621 467.459 669.215 467.048 668.917 466.516C668.618 465.975 668.469 465.326 668.469 464.57C668.469 463.823 668.618 463.179 668.917 462.638C669.225 462.097 669.621 461.681 670.107 461.392C670.592 461.103 671.101 460.958 671.633 460.958C672.258 460.958 672.781 461.098 673.201 461.378C673.621 461.649 673.938 462.031 674.153 462.526C674.367 463.011 674.475 463.576 674.475 464.22C674.475 464.556 674.451 464.817 674.405 465.004H670.037C670.111 465.611 670.331 466.082 670.695 466.418C671.059 466.754 671.516 466.922 672.067 466.922C672.365 466.922 672.641 466.88 672.893 466.796C673.154 466.703 673.411 466.577 673.663 466.418L674.209 467.426C673.882 467.641 673.518 467.818 673.117 467.958C672.715 468.098 672.295 468.168 671.857 468.168ZM670.023 463.912H673.075C673.075 463.38 672.958 462.965 672.725 462.666C672.491 462.358 672.141 462.204 671.675 462.204C671.273 462.204 670.914 462.353 670.597 462.652C670.289 462.941 670.097 463.361 670.023 463.912Z" fill="#333F52"/>
</g>
<path d="M634.8 437L631.944 427.844H633.666L634.954 432.45C635.103 432.963 635.239 433.458 635.36 433.934C635.481 434.41 635.617 434.909 635.766 435.432H635.822C635.981 434.909 636.116 434.41 636.228 433.934C636.349 433.458 636.48 432.963 636.62 432.45L637.894 427.844H639.56L636.718 437H634.8ZM641.784 437.168C641.186 437.168 640.696 436.981 640.314 436.608C639.94 436.235 639.754 435.749 639.754 435.152C639.754 434.415 640.076 433.845 640.72 433.444C641.364 433.033 642.39 432.753 643.8 432.604C643.79 432.24 643.692 431.927 643.506 431.666C643.328 431.395 643.006 431.26 642.54 431.26C642.204 431.26 641.872 431.325 641.546 431.456C641.228 431.587 640.916 431.745 640.608 431.932L640.02 430.854C640.402 430.611 640.832 430.401 641.308 430.224C641.793 430.047 642.306 429.958 642.848 429.958C643.706 429.958 644.346 430.215 644.766 430.728C645.195 431.232 645.41 431.965 645.41 432.926V437H644.08L643.968 436.244H643.912C643.604 436.505 643.272 436.725 642.918 436.902C642.572 437.079 642.194 437.168 641.784 437.168ZM642.302 435.908C642.582 435.908 642.834 435.843 643.058 435.712C643.291 435.572 643.538 435.385 643.8 435.152V433.612C642.866 433.733 642.218 433.915 641.854 434.158C641.49 434.391 641.308 434.681 641.308 435.026C641.308 435.334 641.401 435.558 641.588 435.698C641.774 435.838 642.012 435.908 642.302 435.908ZM648.904 437.168C648.335 437.168 647.929 436.995 647.686 436.65C647.453 436.305 647.336 435.833 647.336 435.236V427.116H648.946V435.32C648.946 435.516 648.984 435.656 649.058 435.74C649.133 435.815 649.212 435.852 649.296 435.852C649.334 435.852 649.366 435.852 649.394 435.852C649.432 435.843 649.483 435.833 649.548 435.824L649.758 437.028C649.665 437.065 649.544 437.098 649.394 437.126C649.254 437.154 649.091 437.168 648.904 437.168ZM653.181 437.168C652.444 437.168 651.907 436.93 651.571 436.454C651.235 435.978 651.067 435.306 651.067 434.438V430.126H652.677V434.228C652.677 434.797 652.761 435.199 652.929 435.432C653.097 435.665 653.368 435.782 653.741 435.782C654.04 435.782 654.301 435.707 654.525 435.558C654.759 435.409 655.006 435.166 655.267 434.83V430.126H656.877V437H655.561L655.435 435.992H655.393C655.095 436.347 654.768 436.631 654.413 436.846C654.059 437.061 653.648 437.168 653.181 437.168ZM661.857 437.168C661.222 437.168 660.648 437.028 660.135 436.748C659.621 436.459 659.215 436.048 658.917 435.516C658.618 434.975 658.469 434.326 658.469 433.57C658.469 432.823 658.618 432.179 658.917 431.638C659.225 431.097 659.621 430.681 660.107 430.392C660.592 430.103 661.101 429.958 661.633 429.958C662.258 429.958 662.781 430.098 663.201 430.378C663.621 430.649 663.938 431.031 664.153 431.526C664.367 432.011 664.475 432.576 664.475 433.22C664.475 433.556 664.451 433.817 664.405 434.004H660.037C660.111 434.611 660.331 435.082 660.695 435.418C661.059 435.754 661.516 435.922 662.067 435.922C662.365 435.922 662.641 435.88 662.893 435.796C663.154 435.703 663.411 435.577 663.663 435.418L664.209 436.426C663.882 436.641 663.518 436.818 663.117 436.958C662.715 437.098 662.295 437.168 661.857 437.168ZM660.023 432.912H663.075C663.075 432.38 662.958 431.965 662.725 431.666C662.491 431.358 662.141 431.204 661.675 431.204C661.273 431.204 660.914 431.353 660.597 431.652C660.289 431.941 660.097 432.361 660.023 432.912ZM666.582 431.624L665.868 431.106L666.68 429.734L665.252 429.104L665.518 428.264L667.044 428.614L667.198 427.032H668.08L668.234 428.614L669.774 428.264L670.04 429.104L668.598 429.734L669.41 431.106L668.696 431.624L667.646 430.406L666.582 431.624Z" fill="#576372"/>
<path d="M40.25 258C40.25 255.929 41.9289 254.25 44 254.25H286C288.071 254.25 289.75 255.929 289.75 258V359C289.75 361.071 288.071 362.75 286 362.75H44C41.9289 362.75 40.25 361.071 40.25 359V258Z" fill="white"/>
<path d="M40.25 258C40.25 255.929 41.9289 254.25 44 254.25H286C288.071 254.25 289.75 255.929 289.75 258V359C289.75 361.071 288.071 362.75 286 362.75H44C41.9289 362.75 40.25 361.071 40.25 359V258Z" stroke="#576372" stroke-width="0.5"/>
<line x1="281.889" y1="359.839" x2="286.839" y2="354.889" stroke="black"/>
<line x1="277.646" y1="359.839" x2="286.839" y2="350.646" stroke="black"/>
<g clip-path="url(#clip2_197_4323)">
<path d="M42.8 246L39.944 236.844H41.666L42.954 241.45C43.1033 241.963 43.2387 242.458 43.36 242.934C43.4813 243.41 43.6167 243.909 43.766 244.432H43.822C43.9807 243.909 44.116 243.41 44.228 242.934C44.3493 242.458 44.48 241.963 44.62 241.45L45.894 236.844H47.56L44.718 246H42.8ZM49.7837 246.168C49.1864 246.168 48.6964 245.981 48.3137 245.608C47.9404 245.235 47.7537 244.749 47.7537 244.152C47.7537 243.415 48.0757 242.845 48.7197 242.444C49.3637 242.033 50.3904 241.753 51.7997 241.604C51.7904 241.24 51.6924 240.927 51.5057 240.666C51.3284 240.395 51.0064 240.26 50.5397 240.26C50.2037 240.26 49.8724 240.325 49.5457 240.456C49.2284 240.587 48.9157 240.745 48.6077 240.932L48.0197 239.854C48.4024 239.611 48.8317 239.401 49.3077 239.224C49.793 239.047 50.3064 238.958 50.8477 238.958C51.7064 238.958 52.3457 239.215 52.7657 239.728C53.195 240.232 53.4097 240.965 53.4097 241.926V246H52.0797L51.9677 245.244H51.9117C51.6037 245.505 51.2724 245.725 50.9177 245.902C50.5724 246.079 50.1944 246.168 49.7837 246.168ZM50.3017 244.908C50.5817 244.908 50.8337 244.843 51.0577 244.712C51.291 244.572 51.5384 244.385 51.7997 244.152V242.612C50.8664 242.733 50.2177 242.915 49.8537 243.158C49.4897 243.391 49.3077 243.681 49.3077 244.026C49.3077 244.334 49.401 244.558 49.5877 244.698C49.7744 244.838 50.0124 244.908 50.3017 244.908ZM56.9045 246.168C56.3351 246.168 55.9291 245.995 55.6865 245.65C55.4531 245.305 55.3365 244.833 55.3365 244.236V236.116H56.9465V244.32C56.9465 244.516 56.9838 244.656 57.0585 244.74C57.1331 244.815 57.2125 244.852 57.2965 244.852C57.3338 244.852 57.3665 244.852 57.3945 244.852C57.4318 244.843 57.4831 244.833 57.5485 244.824L57.7585 246.028C57.6651 246.065 57.5438 246.098 57.3945 246.126C57.2545 246.154 57.0911 246.168 56.9045 246.168ZM61.1812 246.168C60.4439 246.168 59.9072 245.93 59.5712 245.454C59.2352 244.978 59.0672 244.306 59.0672 243.438V239.126H60.6772V243.228C60.6772 243.797 60.7612 244.199 60.9292 244.432C61.0972 244.665 61.3679 244.782 61.7412 244.782C62.0399 244.782 62.3012 244.707 62.5252 244.558C62.7586 244.409 63.0059 244.166 63.2672 243.83V239.126H64.8772V246H63.5612L63.4352 244.992H63.3932C63.0946 245.347 62.7679 245.631 62.4132 245.846C62.0586 246.061 61.6479 246.168 61.1812 246.168ZM69.8565 246.168C69.2219 246.168 68.6479 246.028 68.1345 245.748C67.6212 245.459 67.2152 245.048 66.9165 244.516C66.6179 243.975 66.4685 243.326 66.4685 242.57C66.4685 241.823 66.6179 241.179 66.9165 240.638C67.2245 240.097 67.6212 239.681 68.1065 239.392C68.5919 239.103 69.1005 238.958 69.6325 238.958C70.2579 238.958 70.7805 239.098 71.2005 239.378C71.6205 239.649 71.9379 240.031 72.1525 240.526C72.3672 241.011 72.4745 241.576 72.4745 242.22C72.4745 242.556 72.4512 242.817 72.4045 243.004H68.0365C68.1112 243.611 68.3305 244.082 68.6945 244.418C69.0585 244.754 69.5159 244.922 70.0665 244.922C70.3652 244.922 70.6405 244.88 70.8925 244.796C71.1539 244.703 71.4105 244.577 71.6625 244.418L72.2085 245.426C71.8819 245.641 71.5179 245.818 71.1165 245.958C70.7152 246.098 70.2952 246.168 69.8565 246.168ZM68.0225 241.912H71.0745C71.0745 241.38 70.9579 240.965 70.7245 240.666C70.4912 240.358 70.1412 240.204 69.6745 240.204C69.2732 240.204 68.9139 240.353 68.5965 240.652C68.2885 240.941 68.0972 241.361 68.0225 241.912Z" fill="#576372"/>
</g>
<path d="M343.25 258C343.25 255.929 344.929 254.25 347 254.25H589C591.071 254.25 592.75 255.929 592.75 258V359C592.75 361.071 591.071 362.75 589 362.75H347C344.929 362.75 343.25 361.071 343.25 359V258Z" fill="#FFF7E6"/>
<path d="M343.25 258C343.25 255.929 344.929 254.25 347 254.25H589C591.071 254.25 592.75 255.929 592.75 258V359C592.75 361.071 591.071 362.75 589 362.75H347C344.929 362.75 343.25 361.071 343.25 359V258Z" stroke="#576372" stroke-width="0.5"/>
<line x1="584.889" y1="359.839" x2="589.839" y2="354.889" stroke="black"/>
<path d="M507.038 372.128L506.716 373.248H509.054L508.732 372.128C508.583 371.643 508.438 371.143 508.298 370.63C508.167 370.117 508.037 369.608 507.906 369.104H507.85C507.729 369.617 507.598 370.131 507.458 370.644C507.327 371.148 507.187 371.643 507.038 372.128ZM503.972 377L506.954 367.844H508.858L511.84 377H510.132L509.418 374.522H506.338L505.624 377H503.972ZM518.963 377.168C518.31 377.168 517.685 376.869 517.087 376.272H517.045L516.905 377H515.631V367.116H517.241V369.664L517.199 370.812C517.489 370.56 517.806 370.355 518.151 370.196C518.497 370.037 518.842 369.958 519.187 369.958C520.046 369.958 520.713 370.275 521.189 370.91C521.665 371.545 521.903 372.389 521.903 373.444C521.903 374.228 521.763 374.9 521.483 375.46C521.203 376.011 520.839 376.435 520.391 376.734C519.953 377.023 519.477 377.168 518.963 377.168ZM518.627 375.838C519.085 375.838 519.467 375.637 519.775 375.236C520.083 374.835 520.237 374.247 520.237 373.472C520.237 372.781 520.121 372.245 519.887 371.862C519.654 371.479 519.276 371.288 518.753 371.288C518.268 371.288 517.764 371.545 517.241 372.058V375.264C517.484 375.469 517.722 375.619 517.955 375.712C518.198 375.796 518.422 375.838 518.627 375.838ZM525.564 377.168C524.827 377.168 524.29 376.93 523.954 376.454C523.618 375.978 523.45 375.306 523.45 374.438V370.126H525.06V374.228C525.06 374.797 525.144 375.199 525.312 375.432C525.48 375.665 525.751 375.782 526.124 375.782C526.423 375.782 526.684 375.707 526.908 375.558C527.141 375.409 527.389 375.166 527.65 374.83V370.126H529.26V377H527.944L527.818 375.992H527.776C527.477 376.347 527.151 376.631 526.796 376.846C526.441 377.061 526.031 377.168 525.564 377.168ZM531.299 377V370.126H532.629L532.741 371.05H532.797C533.105 370.751 533.441 370.495 533.805 370.28C534.169 370.065 534.585 369.958 535.051 369.958C535.789 369.958 536.325 370.196 536.661 370.672C536.997 371.148 537.165 371.82 537.165 372.688V377H535.555V372.898C535.555 372.329 535.471 371.927 535.303 371.694C535.135 371.461 534.86 371.344 534.477 371.344C534.179 371.344 533.913 371.419 533.679 371.568C533.455 371.708 533.199 371.918 532.909 372.198V377H531.299ZM542.003 377.168C541.378 377.168 540.813 377.028 540.309 376.748C539.815 376.459 539.418 376.048 539.119 375.516C538.83 374.975 538.685 374.326 538.685 373.57C538.685 372.805 538.844 372.156 539.161 371.624C539.479 371.083 539.899 370.672 540.421 370.392C540.953 370.103 541.523 369.958 542.129 369.958C542.568 369.958 542.951 370.033 543.277 370.182C543.604 370.331 543.893 370.513 544.145 370.728L543.361 371.778C543.184 371.619 543.002 371.498 542.815 371.414C542.629 371.321 542.428 371.274 542.213 371.274C541.663 371.274 541.21 371.484 540.855 371.904C540.51 372.324 540.337 372.879 540.337 373.57C540.337 374.251 540.505 374.802 540.841 375.222C541.187 375.642 541.63 375.852 542.171 375.852C542.442 375.852 542.694 375.796 542.927 375.684C543.17 375.563 543.389 375.423 543.585 375.264L544.243 376.328C543.926 376.608 543.571 376.818 543.179 376.958C542.787 377.098 542.395 377.168 542.003 377.168ZM545.6 377V367.116H547.21V369.664L547.154 370.994C547.443 370.723 547.765 370.485 548.12 370.28C548.475 370.065 548.885 369.958 549.352 369.958C550.089 369.958 550.626 370.196 550.962 370.672C551.298 371.148 551.466 371.82 551.466 372.688V377H549.856V372.898C549.856 372.329 549.772 371.927 549.604 371.694C549.436 371.461 549.161 371.344 548.778 371.344C548.479 371.344 548.213 371.419 547.98 371.568C547.756 371.708 547.499 371.918 547.21 372.198V377H545.6ZM559.024 377.168C558.454 377.168 557.922 377.028 557.428 376.748C556.933 376.459 556.532 376.048 556.224 375.516C555.916 374.975 555.762 374.326 555.762 373.57C555.762 372.805 555.916 372.156 556.224 371.624C556.532 371.083 556.933 370.672 557.428 370.392C557.922 370.103 558.454 369.958 559.024 369.958C559.602 369.958 560.139 370.103 560.634 370.392C561.128 370.672 561.53 371.083 561.838 371.624C562.146 372.156 562.3 372.805 562.3 373.57C562.3 374.326 562.146 374.975 561.838 375.516C561.53 376.048 561.128 376.459 560.634 376.748C560.139 377.028 559.602 377.168 559.024 377.168ZM559.024 375.852C559.528 375.852 559.924 375.642 560.214 375.222C560.503 374.802 560.648 374.251 560.648 373.57C560.648 372.879 560.503 372.324 560.214 371.904C559.924 371.484 559.528 371.274 559.024 371.274C558.52 371.274 558.123 371.484 557.834 371.904C557.554 372.324 557.414 372.879 557.414 373.57C557.414 374.251 557.554 374.802 557.834 375.222C558.123 375.642 558.52 375.852 559.024 375.852ZM564.118 377V371.4H563.194V370.196L564.118 370.126V369.412C564.118 368.693 564.296 368.105 564.65 367.648C565.005 367.181 565.588 366.948 566.4 366.948C566.643 366.948 566.876 366.971 567.1 367.018C567.324 367.065 567.511 367.121 567.66 367.186L567.352 368.39C567.1 368.278 566.848 368.222 566.596 368.222C566.018 368.222 565.728 368.609 565.728 369.384V370.126H567.072V371.4H565.728V377H564.118ZM573.507 377.168C572.713 377.168 572.149 376.939 571.812 376.482C571.486 376.015 571.323 375.413 571.323 374.676V371.4H570.343V370.196L571.407 370.126L571.603 368.25H572.947V370.126H574.697V371.4H572.947V374.676C572.947 375.479 573.269 375.88 573.913 375.88C574.034 375.88 574.16 375.866 574.291 375.838C574.421 375.801 574.533 375.763 574.627 375.726L574.907 376.916C574.72 376.981 574.505 377.037 574.263 377.084C574.029 377.14 573.777 377.168 573.507 377.168ZM578.864 377.168C578.23 377.168 577.656 377.028 577.142 376.748C576.629 376.459 576.223 376.048 575.924 375.516C575.626 374.975 575.476 374.326 575.476 373.57C575.476 372.823 575.626 372.179 575.924 371.638C576.232 371.097 576.629 370.681 577.114 370.392C577.6 370.103 578.108 369.958 578.64 369.958C579.266 369.958 579.788 370.098 580.208 370.378C580.628 370.649 580.946 371.031 581.16 371.526C581.375 372.011 581.482 372.576 581.482 373.22C581.482 373.556 581.459 373.817 581.412 374.004H577.044C577.119 374.611 577.338 375.082 577.702 375.418C578.066 375.754 578.524 375.922 579.074 375.922C579.373 375.922 579.648 375.88 579.9 375.796C580.162 375.703 580.418 375.577 580.67 375.418L581.216 376.426C580.89 376.641 580.526 376.818 580.124 376.958C579.723 377.098 579.303 377.168 578.864 377.168ZM577.03 372.912H580.082C580.082 372.38 579.966 371.965 579.732 371.666C579.499 371.358 579.149 371.204 578.682 371.204C578.281 371.204 577.922 371.353 577.604 371.652C577.296 371.941 577.105 372.361 577.03 372.912ZM582.03 377L584.214 373.416L582.17 370.126H583.906L584.676 371.428C584.779 371.615 584.881 371.811 584.984 372.016C585.096 372.212 585.203 372.403 585.306 372.59H585.362C585.446 372.403 585.535 372.212 585.628 372.016C585.721 371.811 585.81 371.615 585.894 371.428L586.552 370.126H588.218L586.188 373.598L588.372 377H586.636L585.796 375.642C585.684 375.437 585.567 375.231 585.446 375.026C585.334 374.821 585.217 374.62 585.096 374.424H585.04C584.947 374.62 584.849 374.821 584.746 375.026C584.643 375.222 584.541 375.427 584.438 375.642L583.71 377H582.03ZM591.649 377.168C590.856 377.168 590.291 376.939 589.955 376.482C589.628 376.015 589.465 375.413 589.465 374.676V371.4H588.485V370.196L589.549 370.126L589.745 368.25H591.089V370.126H592.839V371.4H591.089V374.676C591.089 375.479 591.411 375.88 592.055 375.88C592.176 375.88 592.302 375.866 592.433 375.838C592.564 375.801 592.676 375.763 592.769 375.726L593.049 376.916C592.862 376.981 592.648 377.037 592.405 377.084C592.172 377.14 591.92 377.168 591.649 377.168Z" fill="#576372"/>
<line x1="580.646" y1="359.839" x2="589.839" y2="350.646" stroke="black"/>
<path d="M345.8 246L342.944 236.844H344.666L345.954 241.45C346.103 241.963 346.239 242.458 346.36 242.934C346.481 243.41 346.617 243.909 346.766 244.432H346.822C346.981 243.909 347.116 243.41 347.228 242.934C347.349 242.458 347.48 241.963 347.62 241.45L348.894 236.844H350.56L347.718 246H345.8ZM352.784 246.168C352.186 246.168 351.696 245.981 351.314 245.608C350.94 245.235 350.754 244.749 350.754 244.152C350.754 243.415 351.076 242.845 351.72 242.444C352.364 242.033 353.39 241.753 354.8 241.604C354.79 241.24 354.692 240.927 354.506 240.666C354.328 240.395 354.006 240.26 353.54 240.26C353.204 240.26 352.872 240.325 352.546 240.456C352.228 240.587 351.916 240.745 351.608 240.932L351.02 239.854C351.402 239.611 351.832 239.401 352.308 239.224C352.793 239.047 353.306 238.958 353.848 238.958C354.706 238.958 355.346 239.215 355.766 239.728C356.195 240.232 356.41 240.965 356.41 241.926V246H355.08L354.968 245.244H354.912C354.604 245.505 354.272 245.725 353.918 245.902C353.572 246.079 353.194 246.168 352.784 246.168ZM353.302 244.908C353.582 244.908 353.834 244.843 354.058 244.712C354.291 244.572 354.538 244.385 354.8 244.152V242.612C353.866 242.733 353.218 242.915 352.854 243.158C352.49 243.391 352.308 243.681 352.308 244.026C352.308 244.334 352.401 244.558 352.588 244.698C352.774 244.838 353.012 244.908 353.302 244.908ZM359.904 246.168C359.335 246.168 358.929 245.995 358.686 245.65C358.453 245.305 358.336 244.833 358.336 244.236V236.116H359.946V244.32C359.946 244.516 359.984 244.656 360.058 244.74C360.133 244.815 360.212 244.852 360.296 244.852C360.334 244.852 360.366 244.852 360.394 244.852C360.432 244.843 360.483 244.833 360.548 244.824L360.758 246.028C360.665 246.065 360.544 246.098 360.394 246.126C360.254 246.154 360.091 246.168 359.904 246.168ZM364.181 246.168C363.444 246.168 362.907 245.93 362.571 245.454C362.235 244.978 362.067 244.306 362.067 243.438V239.126H363.677V243.228C363.677 243.797 363.761 244.199 363.929 244.432C364.097 244.665 364.368 244.782 364.741 244.782C365.04 244.782 365.301 244.707 365.525 244.558C365.759 244.409 366.006 244.166 366.267 243.83V239.126H367.877V246H366.561L366.435 244.992H366.393C366.095 245.347 365.768 245.631 365.413 245.846C365.059 246.061 364.648 246.168 364.181 246.168ZM372.857 246.168C372.222 246.168 371.648 246.028 371.135 245.748C370.621 245.459 370.215 245.048 369.917 244.516C369.618 243.975 369.469 243.326 369.469 242.57C369.469 241.823 369.618 241.179 369.917 240.638C370.225 240.097 370.621 239.681 371.107 239.392C371.592 239.103 372.101 238.958 372.633 238.958C373.258 238.958 373.781 239.098 374.201 239.378C374.621 239.649 374.938 240.031 375.153 240.526C375.367 241.011 375.475 241.576 375.475 242.22C375.475 242.556 375.451 242.817 375.405 243.004H371.037C371.111 243.611 371.331 244.082 371.695 244.418C372.059 244.754 372.516 244.922 373.067 244.922C373.365 244.922 373.641 244.88 373.893 244.796C374.154 244.703 374.411 244.577 374.663 244.418L375.209 245.426C374.882 245.641 374.518 245.818 374.117 245.958C373.715 246.098 373.295 246.168 372.857 246.168ZM371.023 241.912H374.075C374.075 241.38 373.958 240.965 373.725 240.666C373.491 240.358 373.141 240.204 372.675 240.204C372.273 240.204 371.914 240.353 371.597 240.652C371.289 240.941 371.097 241.361 371.023 241.912ZM377.582 240.624L376.868 240.106L377.68 238.734L376.252 238.104L376.518 237.264L378.044 237.614L378.198 236.032H379.08L379.234 237.614L380.774 237.264L381.04 238.104L379.598 238.734L380.41 240.106L379.696 240.624L378.646 239.406L377.582 240.624Z" fill="#576372"/>
<path d="M796.038 372.128L795.716 373.248H798.054L797.732 372.128C797.583 371.643 797.438 371.143 797.298 370.63C797.167 370.117 797.037 369.608 796.906 369.104H796.85C796.729 369.617 796.598 370.131 796.458 370.644C796.327 371.148 796.187 371.643 796.038 372.128ZM792.972 377L795.954 367.844H797.858L800.84 377H799.132L798.418 374.522H795.338L794.624 377H792.972ZM807.963 377.168C807.31 377.168 806.685 376.869 806.087 376.272H806.045L805.905 377H804.631V367.116H806.241V369.664L806.199 370.812C806.489 370.56 806.806 370.355 807.151 370.196C807.497 370.037 807.842 369.958 808.187 369.958C809.046 369.958 809.713 370.275 810.189 370.91C810.665 371.545 810.903 372.389 810.903 373.444C810.903 374.228 810.763 374.9 810.483 375.46C810.203 376.011 809.839 376.435 809.391 376.734C808.953 377.023 808.477 377.168 807.963 377.168ZM807.627 375.838C808.085 375.838 808.467 375.637 808.775 375.236C809.083 374.835 809.237 374.247 809.237 373.472C809.237 372.781 809.121 372.245 808.887 371.862C808.654 371.479 808.276 371.288 807.753 371.288C807.268 371.288 806.764 371.545 806.241 372.058V375.264C806.484 375.469 806.722 375.619 806.955 375.712C807.198 375.796 807.422 375.838 807.627 375.838ZM814.564 377.168C813.827 377.168 813.29 376.93 812.954 376.454C812.618 375.978 812.45 375.306 812.45 374.438V370.126H814.06V374.228C814.06 374.797 814.144 375.199 814.312 375.432C814.48 375.665 814.751 375.782 815.124 375.782C815.423 375.782 815.684 375.707 815.908 375.558C816.141 375.409 816.389 375.166 816.65 374.83V370.126H818.26V377H816.944L816.818 375.992H816.776C816.477 376.347 816.151 376.631 815.796 376.846C815.441 377.061 815.031 377.168 814.564 377.168ZM820.299 377V370.126H821.629L821.741 371.05H821.797C822.105 370.751 822.441 370.495 822.805 370.28C823.169 370.065 823.585 369.958 824.051 369.958C824.789 369.958 825.325 370.196 825.661 370.672C825.997 371.148 826.165 371.82 826.165 372.688V377H824.555V372.898C824.555 372.329 824.471 371.927 824.303 371.694C824.135 371.461 823.86 371.344 823.477 371.344C823.179 371.344 822.913 371.419 822.679 371.568C822.455 371.708 822.199 371.918 821.909 372.198V377H820.299ZM831.003 377.168C830.378 377.168 829.813 377.028 829.309 376.748C828.815 376.459 828.418 376.048 828.119 375.516C827.83 374.975 827.685 374.326 827.685 373.57C827.685 372.805 827.844 372.156 828.161 371.624C828.479 371.083 828.899 370.672 829.421 370.392C829.953 370.103 830.523 369.958 831.129 369.958C831.568 369.958 831.951 370.033 832.277 370.182C832.604 370.331 832.893 370.513 833.145 370.728L832.361 371.778C832.184 371.619 832.002 371.498 831.815 371.414C831.629 371.321 831.428 371.274 831.213 371.274C830.663 371.274 830.21 371.484 829.855 371.904C829.51 372.324 829.337 372.879 829.337 373.57C829.337 374.251 829.505 374.802 829.841 375.222C830.187 375.642 830.63 375.852 831.171 375.852C831.442 375.852 831.694 375.796 831.927 375.684C832.17 375.563 832.389 375.423 832.585 375.264L833.243 376.328C832.926 376.608 832.571 376.818 832.179 376.958C831.787 377.098 831.395 377.168 831.003 377.168ZM834.6 377V367.116H836.21V369.664L836.154 370.994C836.443 370.723 836.765 370.485 837.12 370.28C837.475 370.065 837.885 369.958 838.352 369.958C839.089 369.958 839.626 370.196 839.962 370.672C840.298 371.148 840.466 371.82 840.466 372.688V377H838.856V372.898C838.856 372.329 838.772 371.927 838.604 371.694C838.436 371.461 838.161 371.344 837.778 371.344C837.479 371.344 837.213 371.419 836.98 371.568C836.756 371.708 836.499 371.918 836.21 372.198V377H834.6ZM848.024 377.168C847.454 377.168 846.922 377.028 846.428 376.748C845.933 376.459 845.532 376.048 845.224 375.516C844.916 374.975 844.762 374.326 844.762 373.57C844.762 372.805 844.916 372.156 845.224 371.624C845.532 371.083 845.933 370.672 846.428 370.392C846.922 370.103 847.454 369.958 848.024 369.958C848.602 369.958 849.139 370.103 849.634 370.392C850.128 370.672 850.53 371.083 850.838 371.624C851.146 372.156 851.3 372.805 851.3 373.57C851.3 374.326 851.146 374.975 850.838 375.516C850.53 376.048 850.128 376.459 849.634 376.748C849.139 377.028 848.602 377.168 848.024 377.168ZM848.024 375.852C848.528 375.852 848.924 375.642 849.214 375.222C849.503 374.802 849.648 374.251 849.648 373.57C849.648 372.879 849.503 372.324 849.214 371.904C848.924 371.484 848.528 371.274 848.024 371.274C847.52 371.274 847.123 371.484 846.834 371.904C846.554 372.324 846.414 372.879 846.414 373.57C846.414 374.251 846.554 374.802 846.834 375.222C847.123 375.642 847.52 375.852 848.024 375.852ZM853.118 377V371.4H852.194V370.196L853.118 370.126V369.412C853.118 368.693 853.296 368.105 853.65 367.648C854.005 367.181 854.588 366.948 855.4 366.948C855.643 366.948 855.876 366.971 856.1 367.018C856.324 367.065 856.511 367.121 856.66 367.186L856.352 368.39C856.1 368.278 855.848 368.222 855.596 368.222C855.018 368.222 854.728 368.609 854.728 369.384V370.126H856.072V371.4H854.728V377H853.118ZM862.507 377.168C861.713 377.168 861.149 376.939 860.812 376.482C860.486 376.015 860.323 375.413 860.323 374.676V371.4H859.343V370.196L860.407 370.126L860.603 368.25H861.947V370.126H863.697V371.4H861.947V374.676C861.947 375.479 862.269 375.88 862.913 375.88C863.034 375.88 863.16 375.866 863.291 375.838C863.421 375.801 863.533 375.763 863.627 375.726L863.907 376.916C863.72 376.981 863.505 377.037 863.263 377.084C863.029 377.14 862.777 377.168 862.507 377.168ZM867.864 377.168C867.23 377.168 866.656 377.028 866.142 376.748C865.629 376.459 865.223 376.048 864.924 375.516C864.626 374.975 864.476 374.326 864.476 373.57C864.476 372.823 864.626 372.179 864.924 371.638C865.232 371.097 865.629 370.681 866.114 370.392C866.6 370.103 867.108 369.958 867.64 369.958C868.266 369.958 868.788 370.098 869.208 370.378C869.628 370.649 869.946 371.031 870.16 371.526C870.375 372.011 870.482 372.576 870.482 373.22C870.482 373.556 870.459 373.817 870.412 374.004H866.044C866.119 374.611 866.338 375.082 866.702 375.418C867.066 375.754 867.524 375.922 868.074 375.922C868.373 375.922 868.648 375.88 868.9 375.796C869.162 375.703 869.418 375.577 869.67 375.418L870.216 376.426C869.89 376.641 869.526 376.818 869.124 376.958C868.723 377.098 868.303 377.168 867.864 377.168ZM866.03 372.912H869.082C869.082 372.38 868.966 371.965 868.732 371.666C868.499 371.358 868.149 371.204 867.682 371.204C867.281 371.204 866.922 371.353 866.604 371.652C866.296 371.941 866.105 372.361 866.03 372.912ZM871.03 377L873.214 373.416L871.17 370.126H872.906L873.676 371.428C873.779 371.615 873.881 371.811 873.984 372.016C874.096 372.212 874.203 372.403 874.306 372.59H874.362C874.446 372.403 874.535 372.212 874.628 372.016C874.721 371.811 874.81 371.615 874.894 371.428L875.552 370.126H877.218L875.188 373.598L877.372 377H875.636L874.796 375.642C874.684 375.437 874.567 375.231 874.446 375.026C874.334 374.821 874.217 374.62 874.096 374.424H874.04C873.947 374.62 873.849 374.821 873.746 375.026C873.643 375.222 873.541 375.427 873.438 375.642L872.71 377H871.03ZM880.649 377.168C879.856 377.168 879.291 376.939 878.955 376.482C878.628 376.015 878.465 375.413 878.465 374.676V371.4H877.485V370.196L878.549 370.126L878.745 368.25H880.089V370.126H881.839V371.4H880.089V374.676C880.089 375.479 880.411 375.88 881.055 375.88C881.176 375.88 881.302 375.866 881.433 375.838C881.564 375.801 881.676 375.763 881.769 375.726L882.049 376.916C881.862 376.981 881.648 377.037 881.405 377.084C881.172 377.14 880.92 377.168 880.649 377.168Z" fill="#576372"/>
<path d="M632.25 258C632.25 255.929 633.929 254.25 636 254.25H878C880.071 254.25 881.75 255.929 881.75 258V359C881.75 361.071 880.071 362.75 878 362.75H636C633.929 362.75 632.25 361.071 632.25 359V258Z" fill="#FFF7E6"/>
<path d="M632.25 258C632.25 255.929 633.929 254.25 636 254.25H878C880.071 254.25 881.75 255.929 881.75 258V359C881.75 361.071 880.071 362.75 878 362.75H636C633.929 362.75 632.25 361.071 632.25 359V258Z" stroke="#576372" stroke-width="0.5"/>
<line x1="869.646" y1="359.839" x2="878.839" y2="350.646" stroke="black"/>
<line x1="873.889" y1="359.839" x2="878.839" y2="354.889" stroke="black"/>
<path d="M644.8 277L641.944 267.844H643.666L644.954 272.45C645.103 272.963 645.239 273.458 645.36 273.934C645.481 274.41 645.617 274.909 645.766 275.432H645.822C645.981 274.909 646.116 274.41 646.228 273.934C646.349 273.458 646.48 272.963 646.62 272.45L647.894 267.844H649.56L646.718 277H644.8ZM651.784 277.168C651.186 277.168 650.696 276.981 650.314 276.608C649.94 276.235 649.754 275.749 649.754 275.152C649.754 274.415 650.076 273.845 650.72 273.444C651.364 273.033 652.39 272.753 653.8 272.604C653.79 272.24 653.692 271.927 653.506 271.666C653.328 271.395 653.006 271.26 652.54 271.26C652.204 271.26 651.872 271.325 651.546 271.456C651.228 271.587 650.916 271.745 650.608 271.932L650.02 270.854C650.402 270.611 650.832 270.401 651.308 270.224C651.793 270.047 652.306 269.958 652.848 269.958C653.706 269.958 654.346 270.215 654.766 270.728C655.195 271.232 655.41 271.965 655.41 272.926V277H654.08L653.968 276.244H653.912C653.604 276.505 653.272 276.725 652.918 276.902C652.572 277.079 652.194 277.168 651.784 277.168ZM652.302 275.908C652.582 275.908 652.834 275.843 653.058 275.712C653.291 275.572 653.538 275.385 653.8 275.152V273.612C652.866 273.733 652.218 273.915 651.854 274.158C651.49 274.391 651.308 274.681 651.308 275.026C651.308 275.334 651.401 275.558 651.588 275.698C651.774 275.838 652.012 275.908 652.302 275.908ZM658.904 277.168C658.335 277.168 657.929 276.995 657.686 276.65C657.453 276.305 657.336 275.833 657.336 275.236V267.116H658.946V275.32C658.946 275.516 658.984 275.656 659.058 275.74C659.133 275.815 659.212 275.852 659.296 275.852C659.334 275.852 659.366 275.852 659.394 275.852C659.432 275.843 659.483 275.833 659.548 275.824L659.758 277.028C659.665 277.065 659.544 277.098 659.394 277.126C659.254 277.154 659.091 277.168 658.904 277.168ZM663.181 277.168C662.444 277.168 661.907 276.93 661.571 276.454C661.235 275.978 661.067 275.306 661.067 274.438V270.126H662.677V274.228C662.677 274.797 662.761 275.199 662.929 275.432C663.097 275.665 663.368 275.782 663.741 275.782C664.04 275.782 664.301 275.707 664.525 275.558C664.759 275.409 665.006 275.166 665.267 274.83V270.126H666.877V277H665.561L665.435 275.992H665.393C665.095 276.347 664.768 276.631 664.413 276.846C664.059 277.061 663.648 277.168 663.181 277.168ZM671.857 277.168C671.222 277.168 670.648 277.028 670.135 276.748C669.621 276.459 669.215 276.048 668.917 275.516C668.618 274.975 668.469 274.326 668.469 273.57C668.469 272.823 668.618 272.179 668.917 271.638C669.225 271.097 669.621 270.681 670.107 270.392C670.592 270.103 671.101 269.958 671.633 269.958C672.258 269.958 672.781 270.098 673.201 270.378C673.621 270.649 673.938 271.031 674.153 271.526C674.367 272.011 674.475 272.576 674.475 273.22C674.475 273.556 674.451 273.817 674.405 274.004H670.037C670.111 274.611 670.331 275.082 670.695 275.418C671.059 275.754 671.516 275.922 672.067 275.922C672.365 275.922 672.641 275.88 672.893 275.796C673.154 275.703 673.411 275.577 673.663 275.418L674.209 276.426C673.882 276.641 673.518 276.818 673.117 276.958C672.715 277.098 672.295 277.168 671.857 277.168ZM670.023 272.912H673.075C673.075 272.38 672.958 271.965 672.725 271.666C672.491 271.358 672.141 271.204 671.675 271.204C671.273 271.204 670.914 271.353 670.597 271.652C670.289 271.941 670.097 272.361 670.023 272.912Z" fill="#333F52"/>
<path d="M634.8 246L631.944 236.844H633.666L634.954 241.45C635.103 241.963 635.239 242.458 635.36 242.934C635.481 243.41 635.617 243.909 635.766 244.432H635.822C635.981 243.909 636.116 243.41 636.228 242.934C636.349 242.458 636.48 241.963 636.62 241.45L637.894 236.844H639.56L636.718 246H634.8ZM641.784 246.168C641.186 246.168 640.696 245.981 640.314 245.608C639.94 245.235 639.754 244.749 639.754 244.152C639.754 243.415 640.076 242.845 640.72 242.444C641.364 242.033 642.39 241.753 643.8 241.604C643.79 241.24 643.692 240.927 643.506 240.666C643.328 240.395 643.006 240.26 642.54 240.26C642.204 240.26 641.872 240.325 641.546 240.456C641.228 240.587 640.916 240.745 640.608 240.932L640.02 239.854C640.402 239.611 640.832 239.401 641.308 239.224C641.793 239.047 642.306 238.958 642.848 238.958C643.706 238.958 644.346 239.215 644.766 239.728C645.195 240.232 645.41 240.965 645.41 241.926V246H644.08L643.968 245.244H643.912C643.604 245.505 643.272 245.725 642.918 245.902C642.572 246.079 642.194 246.168 641.784 246.168ZM642.302 244.908C642.582 244.908 642.834 244.843 643.058 244.712C643.291 244.572 643.538 244.385 643.8 244.152V242.612C642.866 242.733 642.218 242.915 641.854 243.158C641.49 243.391 641.308 243.681 641.308 244.026C641.308 244.334 641.401 244.558 641.588 244.698C641.774 244.838 642.012 244.908 642.302 244.908ZM648.904 246.168C648.335 246.168 647.929 245.995 647.686 245.65C647.453 245.305 647.336 244.833 647.336 244.236V236.116H648.946V244.32C648.946 244.516 648.984 244.656 649.058 244.74C649.133 244.815 649.212 244.852 649.296 244.852C649.334 244.852 649.366 244.852 649.394 244.852C649.432 244.843 649.483 244.833 649.548 244.824L649.758 246.028C649.665 246.065 649.544 246.098 649.394 246.126C649.254 246.154 649.091 246.168 648.904 246.168ZM653.181 246.168C652.444 246.168 651.907 245.93 651.571 245.454C651.235 244.978 651.067 244.306 651.067 243.438V239.126H652.677V243.228C652.677 243.797 652.761 244.199 652.929 244.432C653.097 244.665 653.368 244.782 653.741 244.782C654.04 244.782 654.301 244.707 654.525 244.558C654.759 244.409 655.006 244.166 655.267 243.83V239.126H656.877V246H655.561L655.435 244.992H655.393C655.095 245.347 654.768 245.631 654.413 245.846C654.059 246.061 653.648 246.168 653.181 246.168ZM661.857 246.168C661.222 246.168 660.648 246.028 660.135 245.748C659.621 245.459 659.215 245.048 658.917 244.516C658.618 243.975 658.469 243.326 658.469 242.57C658.469 241.823 658.618 241.179 658.917 240.638C659.225 240.097 659.621 239.681 660.107 239.392C660.592 239.103 661.101 238.958 661.633 238.958C662.258 238.958 662.781 239.098 663.201 239.378C663.621 239.649 663.938 240.031 664.153 240.526C664.367 241.011 664.475 241.576 664.475 242.22C664.475 242.556 664.451 242.817 664.405 243.004H660.037C660.111 243.611 660.331 244.082 660.695 244.418C661.059 244.754 661.516 244.922 662.067 244.922C662.365 244.922 662.641 244.88 662.893 244.796C663.154 244.703 663.411 244.577 663.663 244.418L664.209 245.426C663.882 245.641 663.518 245.818 663.117 245.958C662.715 246.098 662.295 246.168 661.857 246.168ZM660.023 241.912H663.075C663.075 241.38 662.958 240.965 662.725 240.666C662.491 240.358 662.141 240.204 661.675 240.204C661.273 240.204 660.914 240.353 660.597 240.652C660.289 240.941 660.097 241.361 660.023 241.912ZM666.582 240.624L665.868 240.106L666.68 238.734L665.252 238.104L665.518 237.264L667.044 237.614L667.198 236.032H668.08L668.234 237.614L669.774 237.264L670.04 238.104L668.598 238.734L669.41 240.106L668.696 240.624L667.646 239.406L666.582 240.624Z" fill="#576372"/>
<path d="M40.25 67C40.25 64.9289 41.9289 63.25 44 63.25H286C288.071 63.25 289.75 64.9289 289.75 67V168C289.75 170.071 288.071 171.75 286 171.75H44C41.9289 171.75 40.25 170.071 40.25 168V67Z" fill="white"/>
<path d="M40.25 67C40.25 64.9289 41.9289 63.25 44 63.25H286C288.071 63.25 289.75 64.9289 289.75 67V168C289.75 170.071 288.071 171.75 286 171.75H44C41.9289 171.75 40.25 170.071 40.25 168V67Z" stroke="#E6EAEE" stroke-width="0.5"/>
<line x1="277.646" y1="168.839" x2="286.839" y2="159.646" stroke="black"/>
<line x1="281.889" y1="168.839" x2="286.839" y2="163.889" stroke="black"/>
<g clip-path="url(#clip3_197_4323)">
<path d="M42.8 55L39.944 45.844H41.666L42.954 50.45C43.1033 50.9633 43.2387 51.458 43.36 51.934C43.4813 52.41 43.6167 52.9093 43.766 53.432H43.822C43.9807 52.9093 44.116 52.41 44.228 51.934C44.3493 51.458 44.48 50.9633 44.62 50.45L45.894 45.844H47.56L44.718 55H42.8ZM49.7837 55.168C49.1864 55.168 48.6964 54.9813 48.3137 54.608C47.9404 54.2347 47.7537 53.7493 47.7537 53.152C47.7537 52.4147 48.0757 51.8453 48.7197 51.444C49.3637 51.0333 50.3904 50.7533 51.7997 50.604C51.7904 50.24 51.6924 49.9273 51.5057 49.666C51.3284 49.3953 51.0064 49.26 50.5397 49.26C50.2037 49.26 49.8724 49.3253 49.5457 49.456C49.2284 49.5867 48.9157 49.7453 48.6077 49.932L48.0197 48.854C48.4024 48.6113 48.8317 48.4013 49.3077 48.224C49.793 48.0467 50.3064 47.958 50.8477 47.958C51.7064 47.958 52.3457 48.2147 52.7657 48.728C53.195 49.232 53.4097 49.9647 53.4097 50.926V55H52.0797L51.9677 54.244H51.9117C51.6037 54.5053 51.2724 54.7247 50.9177 54.902C50.5724 55.0793 50.1944 55.168 49.7837 55.168ZM50.3017 53.908C50.5817 53.908 50.8337 53.8427 51.0577 53.712C51.291 53.572 51.5384 53.3853 51.7997 53.152V51.612C50.8664 51.7333 50.2177 51.9153 49.8537 52.158C49.4897 52.3913 49.3077 52.6807 49.3077 53.026C49.3077 53.334 49.401 53.558 49.5877 53.698C49.7744 53.838 50.0124 53.908 50.3017 53.908ZM56.9045 55.168C56.3351 55.168 55.9291 54.9953 55.6865 54.65C55.4531 54.3047 55.3365 53.8333 55.3365 53.236V45.116H56.9465V53.32C56.9465 53.516 56.9838 53.656 57.0585 53.74C57.1331 53.8147 57.2125 53.852 57.2965 53.852C57.3338 53.852 57.3665 53.852 57.3945 53.852C57.4318 53.8427 57.4831 53.8333 57.5485 53.824L57.7585 55.028C57.6651 55.0653 57.5438 55.098 57.3945 55.126C57.2545 55.154 57.0911 55.168 56.9045 55.168ZM61.1812 55.168C60.4439 55.168 59.9072 54.93 59.5712 54.454C59.2352 53.978 59.0672 53.306 59.0672 52.438V48.126H60.6772V52.228C60.6772 52.7973 60.7612 53.1987 60.9292 53.432C61.0972 53.6653 61.3679 53.782 61.7412 53.782C62.0399 53.782 62.3012 53.7073 62.5252 53.558C62.7586 53.4087 63.0059 53.166 63.2672 52.83V48.126H64.8772V55H63.5612L63.4352 53.992H63.3932C63.0946 54.3467 62.7679 54.6313 62.4132 54.846C62.0586 55.0607 61.6479 55.168 61.1812 55.168ZM69.8565 55.168C69.2219 55.168 68.6479 55.028 68.1345 54.748C67.6212 54.4587 67.2152 54.048 66.9165 53.516C66.6179 52.9747 66.4685 52.326 66.4685 51.57C66.4685 50.8233 66.6179 50.1793 66.9165 49.638C67.2245 49.0967 67.6212 48.6813 68.1065 48.392C68.5919 48.1027 69.1005 47.958 69.6325 47.958C70.2579 47.958 70.7805 48.098 71.2005 48.378C71.6205 48.6487 71.9379 49.0313 72.1525 49.526C72.3672 50.0113 72.4745 50.576 72.4745 51.22C72.4745 51.556 72.4512 51.8173 72.4045 52.004H68.0365C68.1112 52.6107 68.3305 53.082 68.6945 53.418C69.0585 53.754 69.5159 53.922 70.0665 53.922C70.3652 53.922 70.6405 53.88 70.8925 53.796C71.1539 53.7027 71.4105 53.5767 71.6625 53.418L72.2085 54.426C71.8819 54.6407 71.5179 54.818 71.1165 54.958C70.7152 55.098 70.2952 55.168 69.8565 55.168ZM68.0225 50.912H71.0745C71.0745 50.38 70.9579 49.9647 70.7245 49.666C70.4912 49.358 70.1412 49.204 69.6745 49.204C69.2732 49.204 68.9139 49.3533 68.5965 49.652C68.2885 49.9413 68.0972 50.3613 68.0225 50.912Z" fill="#576372"/>
</g>
<path d="M507.038 181.128L506.716 182.248H509.054L508.732 181.128C508.583 180.643 508.438 180.143 508.298 179.63C508.167 179.117 508.037 178.608 507.906 178.104H507.85C507.729 178.617 507.598 179.131 507.458 179.644C507.327 180.148 507.187 180.643 507.038 181.128ZM503.972 186L506.954 176.844H508.858L511.84 186H510.132L509.418 183.522H506.338L505.624 186H503.972ZM518.963 186.168C518.31 186.168 517.685 185.869 517.087 185.272H517.045L516.905 186H515.631V176.116H517.241V178.664L517.199 179.812C517.489 179.56 517.806 179.355 518.151 179.196C518.497 179.037 518.842 178.958 519.187 178.958C520.046 178.958 520.713 179.275 521.189 179.91C521.665 180.545 521.903 181.389 521.903 182.444C521.903 183.228 521.763 183.9 521.483 184.46C521.203 185.011 520.839 185.435 520.391 185.734C519.953 186.023 519.477 186.168 518.963 186.168ZM518.627 184.838C519.085 184.838 519.467 184.637 519.775 184.236C520.083 183.835 520.237 183.247 520.237 182.472C520.237 181.781 520.121 181.245 519.887 180.862C519.654 180.479 519.276 180.288 518.753 180.288C518.268 180.288 517.764 180.545 517.241 181.058V184.264C517.484 184.469 517.722 184.619 517.955 184.712C518.198 184.796 518.422 184.838 518.627 184.838ZM525.564 186.168C524.827 186.168 524.29 185.93 523.954 185.454C523.618 184.978 523.45 184.306 523.45 183.438V179.126H525.06V183.228C525.06 183.797 525.144 184.199 525.312 184.432C525.48 184.665 525.751 184.782 526.124 184.782C526.423 184.782 526.684 184.707 526.908 184.558C527.141 184.409 527.389 184.166 527.65 183.83V179.126H529.26V186H527.944L527.818 184.992H527.776C527.477 185.347 527.151 185.631 526.796 185.846C526.441 186.061 526.031 186.168 525.564 186.168ZM531.299 186V179.126H532.629L532.741 180.05H532.797C533.105 179.751 533.441 179.495 533.805 179.28C534.169 179.065 534.585 178.958 535.051 178.958C535.789 178.958 536.325 179.196 536.661 179.672C536.997 180.148 537.165 180.82 537.165 181.688V186H535.555V181.898C535.555 181.329 535.471 180.927 535.303 180.694C535.135 180.461 534.86 180.344 534.477 180.344C534.179 180.344 533.913 180.419 533.679 180.568C533.455 180.708 533.199 180.918 532.909 181.198V186H531.299ZM542.003 186.168C541.378 186.168 540.813 186.028 540.309 185.748C539.815 185.459 539.418 185.048 539.119 184.516C538.83 183.975 538.685 183.326 538.685 182.57C538.685 181.805 538.844 181.156 539.161 180.624C539.479 180.083 539.899 179.672 540.421 179.392C540.953 179.103 541.523 178.958 542.129 178.958C542.568 178.958 542.951 179.033 543.277 179.182C543.604 179.331 543.893 179.513 544.145 179.728L543.361 180.778C543.184 180.619 543.002 180.498 542.815 180.414C542.629 180.321 542.428 180.274 542.213 180.274C541.663 180.274 541.21 180.484 540.855 180.904C540.51 181.324 540.337 181.879 540.337 182.57C540.337 183.251 540.505 183.802 540.841 184.222C541.187 184.642 541.63 184.852 542.171 184.852C542.442 184.852 542.694 184.796 542.927 184.684C543.17 184.563 543.389 184.423 543.585 184.264L544.243 185.328C543.926 185.608 543.571 185.818 543.179 185.958C542.787 186.098 542.395 186.168 542.003 186.168ZM545.6 186V176.116H547.21V178.664L547.154 179.994C547.443 179.723 547.765 179.485 548.12 179.28C548.475 179.065 548.885 178.958 549.352 178.958C550.089 178.958 550.626 179.196 550.962 179.672C551.298 180.148 551.466 180.82 551.466 181.688V186H549.856V181.898C549.856 181.329 549.772 180.927 549.604 180.694C549.436 180.461 549.161 180.344 548.778 180.344C548.479 180.344 548.213 180.419 547.98 180.568C547.756 180.708 547.499 180.918 547.21 181.198V186H545.6ZM559.024 186.168C558.454 186.168 557.922 186.028 557.428 185.748C556.933 185.459 556.532 185.048 556.224 184.516C555.916 183.975 555.762 183.326 555.762 182.57C555.762 181.805 555.916 181.156 556.224 180.624C556.532 180.083 556.933 179.672 557.428 179.392C557.922 179.103 558.454 178.958 559.024 178.958C559.602 178.958 560.139 179.103 560.634 179.392C561.128 179.672 561.53 180.083 561.838 180.624C562.146 181.156 562.3 181.805 562.3 182.57C562.3 183.326 562.146 183.975 561.838 184.516C561.53 185.048 561.128 185.459 560.634 185.748C560.139 186.028 559.602 186.168 559.024 186.168ZM559.024 184.852C559.528 184.852 559.924 184.642 560.214 184.222C560.503 183.802 560.648 183.251 560.648 182.57C560.648 181.879 560.503 181.324 560.214 180.904C559.924 180.484 559.528 180.274 559.024 180.274C558.52 180.274 558.123 180.484 557.834 180.904C557.554 181.324 557.414 181.879 557.414 182.57C557.414 183.251 557.554 183.802 557.834 184.222C558.123 184.642 558.52 184.852 559.024 184.852ZM564.118 186V180.4H563.194V179.196L564.118 179.126V178.412C564.118 177.693 564.296 177.105 564.65 176.648C565.005 176.181 565.588 175.948 566.4 175.948C566.643 175.948 566.876 175.971 567.1 176.018C567.324 176.065 567.511 176.121 567.66 176.186L567.352 177.39C567.1 177.278 566.848 177.222 566.596 177.222C566.018 177.222 565.728 177.609 565.728 178.384V179.126H567.072V180.4H565.728V186H564.118ZM573.507 186.168C572.713 186.168 572.149 185.939 571.812 185.482C571.486 185.015 571.323 184.413 571.323 183.676V180.4H570.343V179.196L571.407 179.126L571.603 177.25H572.947V179.126H574.697V180.4H572.947V183.676C572.947 184.479 573.269 184.88 573.913 184.88C574.034 184.88 574.16 184.866 574.291 184.838C574.421 184.801 574.533 184.763 574.627 184.726L574.907 185.916C574.72 185.981 574.505 186.037 574.263 186.084C574.029 186.14 573.777 186.168 573.507 186.168ZM578.864 186.168C578.23 186.168 577.656 186.028 577.142 185.748C576.629 185.459 576.223 185.048 575.924 184.516C575.626 183.975 575.476 183.326 575.476 182.57C575.476 181.823 575.626 181.179 575.924 180.638C576.232 180.097 576.629 179.681 577.114 179.392C577.6 179.103 578.108 178.958 578.64 178.958C579.266 178.958 579.788 179.098 580.208 179.378C580.628 179.649 580.946 180.031 581.16 180.526C581.375 181.011 581.482 181.576 581.482 182.22C581.482 182.556 581.459 182.817 581.412 183.004H577.044C577.119 183.611 577.338 184.082 577.702 184.418C578.066 184.754 578.524 184.922 579.074 184.922C579.373 184.922 579.648 184.88 579.9 184.796C580.162 184.703 580.418 184.577 580.67 184.418L581.216 185.426C580.89 185.641 580.526 185.818 580.124 185.958C579.723 186.098 579.303 186.168 578.864 186.168ZM577.03 181.912H580.082C580.082 181.38 579.966 180.965 579.732 180.666C579.499 180.358 579.149 180.204 578.682 180.204C578.281 180.204 577.922 180.353 577.604 180.652C577.296 180.941 577.105 181.361 577.03 181.912ZM582.03 186L584.214 182.416L582.17 179.126H583.906L584.676 180.428C584.779 180.615 584.881 180.811 584.984 181.016C585.096 181.212 585.203 181.403 585.306 181.59H585.362C585.446 181.403 585.535 181.212 585.628 181.016C585.721 180.811 585.81 180.615 585.894 180.428L586.552 179.126H588.218L586.188 182.598L588.372 186H586.636L585.796 184.642C585.684 184.437 585.567 184.231 585.446 184.026C585.334 183.821 585.217 183.62 585.096 183.424H585.04C584.947 183.62 584.849 183.821 584.746 184.026C584.643 184.222 584.541 184.427 584.438 184.642L583.71 186H582.03ZM591.649 186.168C590.856 186.168 590.291 185.939 589.955 185.482C589.628 185.015 589.465 184.413 589.465 183.676V180.4H588.485V179.196L589.549 179.126L589.745 177.25H591.089V179.126H592.839V180.4H591.089V183.676C591.089 184.479 591.411 184.88 592.055 184.88C592.176 184.88 592.302 184.866 592.433 184.838C592.564 184.801 592.676 184.763 592.769 184.726L593.049 185.916C592.862 185.981 592.648 186.037 592.405 186.084C592.172 186.14 591.92 186.168 591.649 186.168Z" fill="#576372"/>
<path d="M343.25 67C343.25 64.9289 344.929 63.25 347 63.25H589C591.071 63.25 592.75 64.9289 592.75 67V168C592.75 170.071 591.071 171.75 589 171.75H347C344.929 171.75 343.25 170.071 343.25 168V67Z" fill="#FFF7E6"/>
<path d="M343.25 67C343.25 64.9289 344.929 63.25 347 63.25H589C591.071 63.25 592.75 64.9289 592.75 67V168C592.75 170.071 591.071 171.75 589 171.75H347C344.929 171.75 343.25 170.071 343.25 168V67Z" stroke="#E6EAEE" stroke-width="0.5"/>
<line x1="580.646" y1="168.839" x2="589.839" y2="159.646" stroke="black"/>
<line x1="584.889" y1="168.839" x2="589.839" y2="163.889" stroke="black"/>
<path d="M345.8 55L342.944 45.844H344.666L345.954 50.45C346.103 50.9633 346.239 51.458 346.36 51.934C346.481 52.41 346.617 52.9093 346.766 53.432H346.822C346.981 52.9093 347.116 52.41 347.228 51.934C347.349 51.458 347.48 50.9633 347.62 50.45L348.894 45.844H350.56L347.718 55H345.8ZM352.784 55.168C352.186 55.168 351.696 54.9813 351.314 54.608C350.94 54.2347 350.754 53.7493 350.754 53.152C350.754 52.4147 351.076 51.8453 351.72 51.444C352.364 51.0333 353.39 50.7533 354.8 50.604C354.79 50.24 354.692 49.9273 354.506 49.666C354.328 49.3953 354.006 49.26 353.54 49.26C353.204 49.26 352.872 49.3253 352.546 49.456C352.228 49.5867 351.916 49.7453 351.608 49.932L351.02 48.854C351.402 48.6113 351.832 48.4013 352.308 48.224C352.793 48.0467 353.306 47.958 353.848 47.958C354.706 47.958 355.346 48.2147 355.766 48.728C356.195 49.232 356.41 49.9647 356.41 50.926V55H355.08L354.968 54.244H354.912C354.604 54.5053 354.272 54.7247 353.918 54.902C353.572 55.0793 353.194 55.168 352.784 55.168ZM353.302 53.908C353.582 53.908 353.834 53.8427 354.058 53.712C354.291 53.572 354.538 53.3853 354.8 53.152V51.612C353.866 51.7333 353.218 51.9153 352.854 52.158C352.49 52.3913 352.308 52.6807 352.308 53.026C352.308 53.334 352.401 53.558 352.588 53.698C352.774 53.838 353.012 53.908 353.302 53.908ZM359.904 55.168C359.335 55.168 358.929 54.9953 358.686 54.65C358.453 54.3047 358.336 53.8333 358.336 53.236V45.116H359.946V53.32C359.946 53.516 359.984 53.656 360.058 53.74C360.133 53.8147 360.212 53.852 360.296 53.852C360.334 53.852 360.366 53.852 360.394 53.852C360.432 53.8427 360.483 53.8333 360.548 53.824L360.758 55.028C360.665 55.0653 360.544 55.098 360.394 55.126C360.254 55.154 360.091 55.168 359.904 55.168ZM364.181 55.168C363.444 55.168 362.907 54.93 362.571 54.454C362.235 53.978 362.067 53.306 362.067 52.438V48.126H363.677V52.228C363.677 52.7973 363.761 53.1987 363.929 53.432C364.097 53.6653 364.368 53.782 364.741 53.782C365.04 53.782 365.301 53.7073 365.525 53.558C365.759 53.4087 366.006 53.166 366.267 52.83V48.126H367.877V55H366.561L366.435 53.992H366.393C366.095 54.3467 365.768 54.6313 365.413 54.846C365.059 55.0607 364.648 55.168 364.181 55.168ZM372.857 55.168C372.222 55.168 371.648 55.028 371.135 54.748C370.621 54.4587 370.215 54.048 369.917 53.516C369.618 52.9747 369.469 52.326 369.469 51.57C369.469 50.8233 369.618 50.1793 369.917 49.638C370.225 49.0967 370.621 48.6813 371.107 48.392C371.592 48.1027 372.101 47.958 372.633 47.958C373.258 47.958 373.781 48.098 374.201 48.378C374.621 48.6487 374.938 49.0313 375.153 49.526C375.367 50.0113 375.475 50.576 375.475 51.22C375.475 51.556 375.451 51.8173 375.405 52.004H371.037C371.111 52.6107 371.331 53.082 371.695 53.418C372.059 53.754 372.516 53.922 373.067 53.922C373.365 53.922 373.641 53.88 373.893 53.796C374.154 53.7027 374.411 53.5767 374.663 53.418L375.209 54.426C374.882 54.6407 374.518 54.818 374.117 54.958C373.715 55.098 373.295 55.168 372.857 55.168ZM371.023 50.912H374.075C374.075 50.38 373.958 49.9647 373.725 49.666C373.491 49.358 373.141 49.204 372.675 49.204C372.273 49.204 371.914 49.3533 371.597 49.652C371.289 49.9413 371.097 50.3613 371.023 50.912ZM377.582 49.624L376.868 49.106L377.68 47.734L376.252 47.104L376.518 46.264L378.044 46.614L378.198 45.032H379.08L379.234 46.614L380.774 46.264L381.04 47.104L379.598 47.734L380.41 49.106L379.696 49.624L378.646 48.406L377.582 49.624Z" fill="#576372"/>
<path d="M796.038 181.128L795.716 182.248H798.054L797.732 181.128C797.583 180.643 797.438 180.143 797.298 179.63C797.167 179.117 797.037 178.608 796.906 178.104H796.85C796.729 178.617 796.598 179.131 796.458 179.644C796.327 180.148 796.187 180.643 796.038 181.128ZM792.972 186L795.954 176.844H797.858L800.84 186H799.132L798.418 183.522H795.338L794.624 186H792.972ZM807.963 186.168C807.31 186.168 806.685 185.869 806.087 185.272H806.045L805.905 186H804.631V176.116H806.241V178.664L806.199 179.812C806.489 179.56 806.806 179.355 807.151 179.196C807.497 179.037 807.842 178.958 808.187 178.958C809.046 178.958 809.713 179.275 810.189 179.91C810.665 180.545 810.903 181.389 810.903 182.444C810.903 183.228 810.763 183.9 810.483 184.46C810.203 185.011 809.839 185.435 809.391 185.734C808.953 186.023 808.477 186.168 807.963 186.168ZM807.627 184.838C808.085 184.838 808.467 184.637 808.775 184.236C809.083 183.835 809.237 183.247 809.237 182.472C809.237 181.781 809.121 181.245 808.887 180.862C808.654 180.479 808.276 180.288 807.753 180.288C807.268 180.288 806.764 180.545 806.241 181.058V184.264C806.484 184.469 806.722 184.619 806.955 184.712C807.198 184.796 807.422 184.838 807.627 184.838ZM814.564 186.168C813.827 186.168 813.29 185.93 812.954 185.454C812.618 184.978 812.45 184.306 812.45 183.438V179.126H814.06V183.228C814.06 183.797 814.144 184.199 814.312 184.432C814.48 184.665 814.751 184.782 815.124 184.782C815.423 184.782 815.684 184.707 815.908 184.558C816.141 184.409 816.389 184.166 816.65 183.83V179.126H818.26V186H816.944L816.818 184.992H816.776C816.477 185.347 816.151 185.631 815.796 185.846C815.441 186.061 815.031 186.168 814.564 186.168ZM820.299 186V179.126H821.629L821.741 180.05H821.797C822.105 179.751 822.441 179.495 822.805 179.28C823.169 179.065 823.585 178.958 824.051 178.958C824.789 178.958 825.325 179.196 825.661 179.672C825.997 180.148 826.165 180.82 826.165 181.688V186H824.555V181.898C824.555 181.329 824.471 180.927 824.303 180.694C824.135 180.461 823.86 180.344 823.477 180.344C823.179 180.344 822.913 180.419 822.679 180.568C822.455 180.708 822.199 180.918 821.909 181.198V186H820.299ZM831.003 186.168C830.378 186.168 829.813 186.028 829.309 185.748C828.815 185.459 828.418 185.048 828.119 184.516C827.83 183.975 827.685 183.326 827.685 182.57C827.685 181.805 827.844 181.156 828.161 180.624C828.479 180.083 828.899 179.672 829.421 179.392C829.953 179.103 830.523 178.958 831.129 178.958C831.568 178.958 831.951 179.033 832.277 179.182C832.604 179.331 832.893 179.513 833.145 179.728L832.361 180.778C832.184 180.619 832.002 180.498 831.815 180.414C831.629 180.321 831.428 180.274 831.213 180.274C830.663 180.274 830.21 180.484 829.855 180.904C829.51 181.324 829.337 181.879 829.337 182.57C829.337 183.251 829.505 183.802 829.841 184.222C830.187 184.642 830.63 184.852 831.171 184.852C831.442 184.852 831.694 184.796 831.927 184.684C832.17 184.563 832.389 184.423 832.585 184.264L833.243 185.328C832.926 185.608 832.571 185.818 832.179 185.958C831.787 186.098 831.395 186.168 831.003 186.168ZM834.6 186V176.116H836.21V178.664L836.154 179.994C836.443 179.723 836.765 179.485 837.12 179.28C837.475 179.065 837.885 178.958 838.352 178.958C839.089 178.958 839.626 179.196 839.962 179.672C840.298 180.148 840.466 180.82 840.466 181.688V186H838.856V181.898C838.856 181.329 838.772 180.927 838.604 180.694C838.436 180.461 838.161 180.344 837.778 180.344C837.479 180.344 837.213 180.419 836.98 180.568C836.756 180.708 836.499 180.918 836.21 181.198V186H834.6ZM848.024 186.168C847.454 186.168 846.922 186.028 846.428 185.748C845.933 185.459 845.532 185.048 845.224 184.516C844.916 183.975 844.762 183.326 844.762 182.57C844.762 181.805 844.916 181.156 845.224 180.624C845.532 180.083 845.933 179.672 846.428 179.392C846.922 179.103 847.454 178.958 848.024 178.958C848.602 178.958 849.139 179.103 849.634 179.392C850.128 179.672 850.53 180.083 850.838 180.624C851.146 181.156 851.3 181.805 851.3 182.57C851.3 183.326 851.146 183.975 850.838 184.516C850.53 185.048 850.128 185.459 849.634 185.748C849.139 186.028 848.602 186.168 848.024 186.168ZM848.024 184.852C848.528 184.852 848.924 184.642 849.214 184.222C849.503 183.802 849.648 183.251 849.648 182.57C849.648 181.879 849.503 181.324 849.214 180.904C848.924 180.484 848.528 180.274 848.024 180.274C847.52 180.274 847.123 180.484 846.834 180.904C846.554 181.324 846.414 181.879 846.414 182.57C846.414 183.251 846.554 183.802 846.834 184.222C847.123 184.642 847.52 184.852 848.024 184.852ZM853.118 186V180.4H852.194V179.196L853.118 179.126V178.412C853.118 177.693 853.296 177.105 853.65 176.648C854.005 176.181 854.588 175.948 855.4 175.948C855.643 175.948 855.876 175.971 856.1 176.018C856.324 176.065 856.511 176.121 856.66 176.186L856.352 177.39C856.1 177.278 855.848 177.222 855.596 177.222C855.018 177.222 854.728 177.609 854.728 178.384V179.126H856.072V180.4H854.728V186H853.118ZM862.507 186.168C861.713 186.168 861.149 185.939 860.812 185.482C860.486 185.015 860.323 184.413 860.323 183.676V180.4H859.343V179.196L860.407 179.126L860.603 177.25H861.947V179.126H863.697V180.4H861.947V183.676C861.947 184.479 862.269 184.88 862.913 184.88C863.034 184.88 863.16 184.866 863.291 184.838C863.421 184.801 863.533 184.763 863.627 184.726L863.907 185.916C863.72 185.981 863.505 186.037 863.263 186.084C863.029 186.14 862.777 186.168 862.507 186.168ZM867.864 186.168C867.23 186.168 866.656 186.028 866.142 185.748C865.629 185.459 865.223 185.048 864.924 184.516C864.626 183.975 864.476 183.326 864.476 182.57C864.476 181.823 864.626 181.179 864.924 180.638C865.232 180.097 865.629 179.681 866.114 179.392C866.6 179.103 867.108 178.958 867.64 178.958C868.266 178.958 868.788 179.098 869.208 179.378C869.628 179.649 869.946 180.031 870.16 180.526C870.375 181.011 870.482 181.576 870.482 182.22C870.482 182.556 870.459 182.817 870.412 183.004H866.044C866.119 183.611 866.338 184.082 866.702 184.418C867.066 184.754 867.524 184.922 868.074 184.922C868.373 184.922 868.648 184.88 868.9 184.796C869.162 184.703 869.418 184.577 869.67 184.418L870.216 185.426C869.89 185.641 869.526 185.818 869.124 185.958C868.723 186.098 868.303 186.168 867.864 186.168ZM866.03 181.912H869.082C869.082 181.38 868.966 180.965 868.732 180.666C868.499 180.358 868.149 180.204 867.682 180.204C867.281 180.204 866.922 180.353 866.604 180.652C866.296 180.941 866.105 181.361 866.03 181.912ZM871.03 186L873.214 182.416L871.17 179.126H872.906L873.676 180.428C873.779 180.615 873.881 180.811 873.984 181.016C874.096 181.212 874.203 181.403 874.306 181.59H874.362C874.446 181.403 874.535 181.212 874.628 181.016C874.721 180.811 874.81 180.615 874.894 180.428L875.552 179.126H877.218L875.188 182.598L877.372 186H875.636L874.796 184.642C874.684 184.437 874.567 184.231 874.446 184.026C874.334 183.821 874.217 183.62 874.096 183.424H874.04C873.947 183.62 873.849 183.821 873.746 184.026C873.643 184.222 873.541 184.427 873.438 184.642L872.71 186H871.03ZM880.649 186.168C879.856 186.168 879.291 185.939 878.955 185.482C878.628 185.015 878.465 184.413 878.465 183.676V180.4H877.485V179.196L878.549 179.126L878.745 177.25H880.089V179.126H881.839V180.4H880.089V183.676C880.089 184.479 880.411 184.88 881.055 184.88C881.176 184.88 881.302 184.866 881.433 184.838C881.564 184.801 881.676 184.763 881.769 184.726L882.049 185.916C881.862 185.981 881.648 186.037 881.405 186.084C881.172 186.14 880.92 186.168 880.649 186.168Z" fill="#576372"/>
<path d="M632.25 67C632.25 64.9289 633.929 63.25 636 63.25H878C880.071 63.25 881.75 64.9289 881.75 67V168C881.75 170.071 880.071 171.75 878 171.75H636C633.929 171.75 632.25 170.071 632.25 168V67Z" fill="#FFF7E6"/>
<path d="M632.25 67C632.25 64.9289 633.929 63.25 636 63.25H878C880.071 63.25 881.75 64.9289 881.75 67V168C881.75 170.071 880.071 171.75 878 171.75H636C633.929 171.75 632.25 170.071 632.25 168V67Z" stroke="#E6EAEE" stroke-width="0.5"/>
<line x1="869.646" y1="168.839" x2="878.839" y2="159.646" stroke="black"/>
<line x1="873.889" y1="168.839" x2="878.839" y2="163.889" stroke="black"/>
<path d="M644.8 86L641.944 76.844H643.666L644.954 81.45C645.103 81.9633 645.239 82.458 645.36 82.934C645.481 83.41 645.617 83.9093 645.766 84.432H645.822C645.981 83.9093 646.116 83.41 646.228 82.934C646.349 82.458 646.48 81.9633 646.62 81.45L647.894 76.844H649.56L646.718 86H644.8ZM651.784 86.168C651.186 86.168 650.696 85.9813 650.314 85.608C649.94 85.2347 649.754 84.7493 649.754 84.152C649.754 83.4147 650.076 82.8453 650.72 82.444C651.364 82.0333 652.39 81.7533 653.8 81.604C653.79 81.24 653.692 80.9273 653.506 80.666C653.328 80.3953 653.006 80.26 652.54 80.26C652.204 80.26 651.872 80.3253 651.546 80.456C651.228 80.5867 650.916 80.7453 650.608 80.932L650.02 79.854C650.402 79.6113 650.832 79.4013 651.308 79.224C651.793 79.0467 652.306 78.958 652.848 78.958C653.706 78.958 654.346 79.2147 654.766 79.728C655.195 80.232 655.41 80.9647 655.41 81.926V86H654.08L653.968 85.244H653.912C653.604 85.5053 653.272 85.7247 652.918 85.902C652.572 86.0793 652.194 86.168 651.784 86.168ZM652.302 84.908C652.582 84.908 652.834 84.8427 653.058 84.712C653.291 84.572 653.538 84.3853 653.8 84.152V82.612C652.866 82.7333 652.218 82.9153 651.854 83.158C651.49 83.3913 651.308 83.6807 651.308 84.026C651.308 84.334 651.401 84.558 651.588 84.698C651.774 84.838 652.012 84.908 652.302 84.908ZM658.904 86.168C658.335 86.168 657.929 85.9953 657.686 85.65C657.453 85.3047 657.336 84.8333 657.336 84.236V76.116H658.946V84.32C658.946 84.516 658.984 84.656 659.058 84.74C659.133 84.8147 659.212 84.852 659.296 84.852C659.334 84.852 659.366 84.852 659.394 84.852C659.432 84.8427 659.483 84.8333 659.548 84.824L659.758 86.028C659.665 86.0653 659.544 86.098 659.394 86.126C659.254 86.154 659.091 86.168 658.904 86.168ZM663.181 86.168C662.444 86.168 661.907 85.93 661.571 85.454C661.235 84.978 661.067 84.306 661.067 83.438V79.126H662.677V83.228C662.677 83.7973 662.761 84.1987 662.929 84.432C663.097 84.6653 663.368 84.782 663.741 84.782C664.04 84.782 664.301 84.7073 664.525 84.558C664.759 84.4087 665.006 84.166 665.267 83.83V79.126H666.877V86H665.561L665.435 84.992H665.393C665.095 85.3467 664.768 85.6313 664.413 85.846C664.059 86.0607 663.648 86.168 663.181 86.168ZM671.857 86.168C671.222 86.168 670.648 86.028 670.135 85.748C669.621 85.4587 669.215 85.048 668.917 84.516C668.618 83.9747 668.469 83.326 668.469 82.57C668.469 81.8233 668.618 81.1793 668.917 80.638C669.225 80.0967 669.621 79.6813 670.107 79.392C670.592 79.1027 671.101 78.958 671.633 78.958C672.258 78.958 672.781 79.098 673.201 79.378C673.621 79.6487 673.938 80.0313 674.153 80.526C674.367 81.0113 674.475 81.576 674.475 82.22C674.475 82.556 674.451 82.8173 674.405 83.004H670.037C670.111 83.6107 670.331 84.082 670.695 84.418C671.059 84.754 671.516 84.922 672.067 84.922C672.365 84.922 672.641 84.88 672.893 84.796C673.154 84.7027 673.411 84.5767 673.663 84.418L674.209 85.426C673.882 85.6407 673.518 85.818 673.117 85.958C672.715 86.098 672.295 86.168 671.857 86.168ZM670.023 81.912H673.075C673.075 81.38 672.958 80.9647 672.725 80.666C672.491 80.358 672.141 80.204 671.675 80.204C671.273 80.204 670.914 80.3533 670.597 80.652C670.289 80.9413 670.097 81.3613 670.023 81.912Z" fill="#333F52"/>
<path d="M634.8 55L631.944 45.844H633.666L634.954 50.45C635.103 50.9633 635.239 51.458 635.36 51.934C635.481 52.41 635.617 52.9093 635.766 53.432H635.822C635.981 52.9093 636.116 52.41 636.228 51.934C636.349 51.458 636.48 50.9633 636.62 50.45L637.894 45.844H639.56L636.718 55H634.8ZM641.784 55.168C641.186 55.168 640.696 54.9813 640.314 54.608C639.94 54.2347 639.754 53.7493 639.754 53.152C639.754 52.4147 640.076 51.8453 640.72 51.444C641.364 51.0333 642.39 50.7533 643.8 50.604C643.79 50.24 643.692 49.9273 643.506 49.666C643.328 49.3953 643.006 49.26 642.54 49.26C642.204 49.26 641.872 49.3253 641.546 49.456C641.228 49.5867 640.916 49.7453 640.608 49.932L640.02 48.854C640.402 48.6113 640.832 48.4013 641.308 48.224C641.793 48.0467 642.306 47.958 642.848 47.958C643.706 47.958 644.346 48.2147 644.766 48.728C645.195 49.232 645.41 49.9647 645.41 50.926V55H644.08L643.968 54.244H643.912C643.604 54.5053 643.272 54.7247 642.918 54.902C642.572 55.0793 642.194 55.168 641.784 55.168ZM642.302 53.908C642.582 53.908 642.834 53.8427 643.058 53.712C643.291 53.572 643.538 53.3853 643.8 53.152V51.612C642.866 51.7333 642.218 51.9153 641.854 52.158C641.49 52.3913 641.308 52.6807 641.308 53.026C641.308 53.334 641.401 53.558 641.588 53.698C641.774 53.838 642.012 53.908 642.302 53.908ZM648.904 55.168C648.335 55.168 647.929 54.9953 647.686 54.65C647.453 54.3047 647.336 53.8333 647.336 53.236V45.116H648.946V53.32C648.946 53.516 648.984 53.656 649.058 53.74C649.133 53.8147 649.212 53.852 649.296 53.852C649.334 53.852 649.366 53.852 649.394 53.852C649.432 53.8427 649.483 53.8333 649.548 53.824L649.758 55.028C649.665 55.0653 649.544 55.098 649.394 55.126C649.254 55.154 649.091 55.168 648.904 55.168ZM653.181 55.168C652.444 55.168 651.907 54.93 651.571 54.454C651.235 53.978 651.067 53.306 651.067 52.438V48.126H652.677V52.228C652.677 52.7973 652.761 53.1987 652.929 53.432C653.097 53.6653 653.368 53.782 653.741 53.782C654.04 53.782 654.301 53.7073 654.525 53.558C654.759 53.4087 655.006 53.166 655.267 52.83V48.126H656.877V55H655.561L655.435 53.992H655.393C655.095 54.3467 654.768 54.6313 654.413 54.846C654.059 55.0607 653.648 55.168 653.181 55.168ZM661.857 55.168C661.222 55.168 660.648 55.028 660.135 54.748C659.621 54.4587 659.215 54.048 658.917 53.516C658.618 52.9747 658.469 52.326 658.469 51.57C658.469 50.8233 658.618 50.1793 658.917 49.638C659.225 49.0967 659.621 48.6813 660.107 48.392C660.592 48.1027 661.101 47.958 661.633 47.958C662.258 47.958 662.781 48.098 663.201 48.378C663.621 48.6487 663.938 49.0313 664.153 49.526C664.367 50.0113 664.475 50.576 664.475 51.22C664.475 51.556 664.451 51.8173 664.405 52.004H660.037C660.111 52.6107 660.331 53.082 660.695 53.418C661.059 53.754 661.516 53.922 662.067 53.922C662.365 53.922 662.641 53.88 662.893 53.796C663.154 53.7027 663.411 53.5767 663.663 53.418L664.209 54.426C663.882 54.6407 663.518 54.818 663.117 54.958C662.715 55.098 662.295 55.168 661.857 55.168ZM660.023 50.912H663.075C663.075 50.38 662.958 49.9647 662.725 49.666C662.491 49.358 662.141 49.204 661.675 49.204C661.273 49.204 660.914 49.3533 660.597 49.652C660.289 49.9413 660.097 50.3613 660.023 50.912ZM666.582 49.624L665.868 49.106L666.68 47.734L665.252 47.104L665.518 46.264L667.044 46.614L667.198 45.032H668.08L668.234 46.614L669.774 46.264L670.04 47.104L668.598 47.734L669.41 49.106L668.696 49.624L667.646 48.406L666.582 49.624Z" fill="#576372"/>
</g>
<defs>
<filter id="filter0_di_197_4323" x="36" y="441" width="258" height="117" filterUnits="userSpaceOnUse" color-interpolation-filters="sRGB">
<feFlood flood-opacity="0" result="BackgroundImageFix"/>
<feColorMatrix in="SourceAlpha" type="matrix" values="0 0 0 0 0 0 0 0 0 0 0 0 0 0 0 0 0 0 127 0" result="hardAlpha"/>
<feOffset/>
<feGaussianBlur stdDeviation="2"/>
<feComposite in2="hardAlpha" operator="out"/>
<feColorMatrix type="matrix" values="0 0 0 0 0.4 0 0 0 0 0.686275 0 0 0 0 0.913725 0 0 0 0.6 0"/>
<feBlend mode="normal" in2="BackgroundImageFix" result="effect1_dropShadow_197_4323"/>
<feBlend mode="normal" in="SourceGraphic" in2="effect1_dropShadow_197_4323" result="shape"/>
<feColorMatrix in="SourceAlpha" type="matrix" values="0 0 0 0 0 0 0 0 0 0 0 0 0 0 0 0 0 0 127 0" result="hardAlpha"/>
<feOffset dx="1" dy="1"/>
<feGaussianBlur stdDeviation="0.5"/>
<feComposite in2="hardAlpha" operator="arithmetic" k2="-1" k3="1"/>
<feColorMatrix type="matrix" values="0 0 0 0 0 0 0 0 0 0 0 0 0 0 0 0 0 0 0.07 0"/>
<feBlend mode="normal" in2="shape" result="effect2_innerShadow_197_4323"/>
</filter>
<filter id="filter1_di_197_4323" x="339" y="441" width="258" height="117" filterUnits="userSpaceOnUse" color-interpolation-filters="sRGB">
<feFlood flood-opacity="0" result="BackgroundImageFix"/>
<feColorMatrix in="SourceAlpha" type="matrix" values="0 0 0 0 0 0 0 0 0 0 0 0 0 0 0 0 0 0 127 0" result="hardAlpha"/>
<feOffset/>
<feGaussianBlur stdDeviation="2"/>
<feComposite in2="hardAlpha" operator="out"/>
<feColorMatrix type="matrix" values="0 0 0 0 0.4 0 0 0 0 0.686275 0 0 0 0 0.913725 0 0 0 0.6 0"/>
<feBlend mode="normal" in2="BackgroundImageFix" result="effect1_dropShadow_197_4323"/>
<feBlend mode="normal" in="SourceGraphic" in2="effect1_dropShadow_197_4323" result="shape"/>
<feColorMatrix in="SourceAlpha" type="matrix" values="0 0 0 0 0 0 0 0 0 0 0 0 0 0 0 0 0 0 127 0" result="hardAlpha"/>
<feOffset dx="1" dy="1"/>
<feGaussianBlur stdDeviation="0.5"/>
<feComposite in2="hardAlpha" operator="arithmetic" k2="-1" k3="1"/>
<feColorMatrix type="matrix" values="0 0 0 0 0 0 0 0 0 0 0 0 0 0 0 0 0 0 0.07 0"/>
<feBlend mode="normal" in2="shape" result="effect2_innerShadow_197_4323"/>
</filter>
<filter id="filter2_di_197_4323" x="628" y="441" width="258" height="117" filterUnits="userSpaceOnUse" color-interpolation-filters="sRGB">
<feFlood flood-opacity="0" result="BackgroundImageFix"/>
<feColorMatrix in="SourceAlpha" type="matrix" values="0 0 0 0 0 0 0 0 0 0 0 0 0 0 0 0 0 0 127 0" result="hardAlpha"/>
<feOffset/>
<feGaussianBlur stdDeviation="2"/>
<feComposite in2="hardAlpha" operator="out"/>
<feColorMatrix type="matrix" values="0 0 0 0 0.4 0 0 0 0 0.686275 0 0 0 0 0.913725 0 0 0 0.6 0"/>
<feBlend mode="normal" in2="BackgroundImageFix" result="effect1_dropShadow_197_4323"/>
<feBlend mode="normal" in="SourceGraphic" in2="effect1_dropShadow_197_4323" result="shape"/>
<feColorMatrix in="SourceAlpha" type="matrix" values="0 0 0 0 0 0 0 0 0 0 0 0 0 0 0 0 0 0 127 0" result="hardAlpha"/>
<feOffset dx="1" dy="1"/>
<feGaussianBlur stdDeviation="0.5"/>
<feComposite in2="hardAlpha" operator="arithmetic" k2="-1" k3="1"/>
<feColorMatrix type="matrix" values="0 0 0 0 0 0 0 0 0 0 0 0 0 0 0 0 0 0 0.07 0"/>
<feBlend mode="normal" in2="shape" result="effect2_innerShadow_197_4323"/>
</filter>
<clipPath id="clip0_197_4323">
<rect y="0.956787" width="909" height="626" rx="5" fill="white"/>
</clipPath>
<clipPath id="clip1_197_4323">
<rect width="33" height="22" fill="white" transform="translate(40 423)"/>
</clipPath>
<clipPath id="clip2_197_4323">
<rect width="33" height="22" fill="white" transform="translate(40 232)"/>
</clipPath>
<clipPath id="clip3_197_4323">
<rect width="33" height="22" fill="white" transform="translate(40 41)"/>
</clipPath>
</defs>
</svg>
