<svg width="649" height="142" viewBox="0 0 649 142" fill="none" xmlns="http://www.w3.org/2000/svg">
<rect width="649" height="142" rx="5" fill="#FAFAFA"/>
<rect width="597" height="102" transform="translate(32 32)" fill="#FAFAFA"/>
<path d="M36.732 78.2112C35.9667 78.2112 35.2807 78.0245 34.674 77.6512C34.0767 77.2685 33.6007 76.7225 33.246 76.0132C32.9007 75.3038 32.728 74.4498 32.728 73.4512C32.728 72.4618 32.9053 71.6125 33.26 70.9032C33.6147 70.1938 34.1 69.6478 34.716 69.2652C35.332 68.8825 36.0273 68.6912 36.802 68.6912C37.362 68.6912 37.8567 68.8078 38.286 69.0412C38.7153 69.2652 39.0607 69.5265 39.322 69.8252L38.692 70.5812C38.4493 70.3198 38.174 70.1098 37.866 69.9512C37.558 69.7925 37.208 69.7132 36.816 69.7132C36.2373 69.7132 35.7287 69.8672 35.29 70.1752C34.8607 70.4738 34.5247 70.8985 34.282 71.4492C34.0487 71.9998 33.932 72.6578 33.932 73.4232C33.932 74.1885 34.0487 74.8558 34.282 75.4252C34.5153 75.9852 34.842 76.4192 35.262 76.7272C35.6913 77.0352 36.1953 77.1892 36.774 77.1892C37.2127 77.1892 37.6047 77.0958 37.95 76.9092C38.2953 76.7225 38.6127 76.4705 38.902 76.1532L39.546 76.8812C39.182 77.3012 38.7713 77.6278 38.314 77.8612C37.8567 78.0945 37.3293 78.2112 36.732 78.2112ZM43.792 78.2112C43.2414 78.2112 42.7234 78.0712 42.238 77.7912C41.762 77.5112 41.3747 77.1052 41.076 76.5732C40.7867 76.0412 40.642 75.4018 40.642 74.6552C40.642 73.8898 40.7867 73.2412 41.076 72.7092C41.3747 72.1772 41.762 71.7712 42.238 71.4912C42.7234 71.2112 43.2414 71.0712 43.792 71.0712C44.352 71.0712 44.87 71.2112 45.346 71.4912C45.822 71.7712 46.2047 72.1772 46.494 72.7092C46.7927 73.2412 46.942 73.8898 46.942 74.6552C46.942 75.4018 46.7927 76.0412 46.494 76.5732C46.2047 77.1052 45.822 77.5112 45.346 77.7912C44.87 78.0712 44.352 78.2112 43.792 78.2112ZM43.792 77.2592C44.38 77.2592 44.8514 77.0212 45.206 76.5452C45.57 76.0598 45.752 75.4298 45.752 74.6552C45.752 73.8712 45.57 73.2365 45.206 72.7512C44.8514 72.2658 44.38 72.0232 43.792 72.0232C43.2134 72.0232 42.742 72.2658 42.378 72.7512C42.014 73.2365 41.832 73.8712 41.832 74.6552C41.832 75.4298 42.014 76.0598 42.378 76.5452C42.742 77.0212 43.2134 77.2592 43.792 77.2592ZM49.9519 78.2112C49.5226 78.2112 49.2099 78.0805 49.0139 77.8192C48.8273 77.5485 48.7339 77.1658 48.7339 76.6712V68.0752H49.8819V76.7552C49.8819 76.9325 49.9146 77.0632 49.9799 77.1472C50.0453 77.2218 50.1199 77.2592 50.2039 77.2592C50.2413 77.2592 50.2739 77.2592 50.3019 77.2592C50.3393 77.2498 50.3906 77.2405 50.4559 77.2312L50.6099 78.0992C50.5353 78.1365 50.4466 78.1645 50.3439 78.1832C50.2413 78.2018 50.1106 78.2112 49.9519 78.2112ZM54.9483 78.2112C54.3976 78.2112 53.8796 78.0712 53.3943 77.7912C52.9183 77.5112 52.531 77.1052 52.2323 76.5732C51.943 76.0412 51.7983 75.4018 51.7983 74.6552C51.7983 73.8898 51.943 73.2412 52.2323 72.7092C52.531 72.1772 52.9183 71.7712 53.3943 71.4912C53.8796 71.2112 54.3976 71.0712 54.9483 71.0712C55.5083 71.0712 56.0263 71.2112 56.5023 71.4912C56.9783 71.7712 57.361 72.1772 57.6503 72.7092C57.949 73.2412 58.0983 73.8898 58.0983 74.6552C58.0983 75.4018 57.949 76.0412 57.6503 76.5732C57.361 77.1052 56.9783 77.5112 56.5023 77.7912C56.0263 78.0712 55.5083 78.2112 54.9483 78.2112ZM54.9483 77.2592C55.5363 77.2592 56.0076 77.0212 56.3623 76.5452C56.7263 76.0598 56.9083 75.4298 56.9083 74.6552C56.9083 73.8712 56.7263 73.2365 56.3623 72.7512C56.0076 72.2658 55.5363 72.0232 54.9483 72.0232C54.3696 72.0232 53.8983 72.2658 53.5343 72.7512C53.1703 73.2365 52.9883 73.8712 52.9883 74.6552C52.9883 75.4298 53.1703 76.0598 53.5343 76.5452C53.8983 77.0212 54.3696 77.2592 54.9483 77.2592ZM59.8902 78.0432V71.2392H60.8422L60.9402 72.4712H60.9822C61.2155 72.0418 61.5002 71.7012 61.8362 71.4492C62.1722 71.1972 62.5315 71.0712 62.9142 71.0712C63.1849 71.0712 63.4275 71.1178 63.6422 71.2112L63.4182 72.2192C63.3062 72.1818 63.2035 72.1538 63.1102 72.1352C63.0169 72.1165 62.9002 72.1072 62.7602 72.1072C62.4709 72.1072 62.1675 72.2238 61.8502 72.4572C61.5422 72.6905 61.2715 73.0965 61.0382 73.6752V78.0432H59.8902Z" fill="black"/>
<path d="M93 67.0432C93 65.3863 94.3431 64.0432 96 64.0432H133C134.657 64.0432 136 65.3863 136 67.0432V80.0432C136 81.7 134.657 83.0432 133 83.0432H96C94.3431 83.0432 93 81.7 93 80.0432V67.0432Z" fill="#1991EB"/>
<path d="M101.4 78.0432L98.952 70.1952H100.428L101.532 74.1432C101.66 74.5832 101.776 75.0072 101.88 75.4152C101.984 75.8232 102.1 76.2512 102.228 76.6992H102.276C102.412 76.2512 102.528 75.8232 102.624 75.4152C102.728 75.0072 102.84 74.5832 102.96 74.1432L104.052 70.1952H105.48L103.044 78.0432H101.4ZM107.37 73.8672L107.094 74.8272H109.098L108.822 73.8672C108.694 73.4512 108.57 73.0232 108.45 72.5832C108.338 72.1432 108.226 71.7072 108.114 71.2752H108.066C107.962 71.7152 107.85 72.1552 107.73 72.5952C107.618 73.0272 107.498 73.4512 107.37 73.8672ZM104.742 78.0432L107.298 70.1952H108.93L111.486 78.0432H110.022L109.41 75.9192H106.77L106.158 78.0432H104.742ZM111.974 78.0432V70.1952H113.366V76.8672H116.63V78.0432H111.974ZM120.058 78.1872C119.458 78.1872 118.934 78.0672 118.486 77.8272C118.038 77.5872 117.69 77.2032 117.442 76.6752C117.202 76.1472 117.082 75.4552 117.082 74.5992V70.1952H118.474V74.7072C118.474 75.2752 118.538 75.7272 118.666 76.0632C118.802 76.3912 118.99 76.6272 119.23 76.7712C119.47 76.9072 119.746 76.9752 120.058 76.9752C120.378 76.9752 120.658 76.9072 120.898 76.7712C121.146 76.6272 121.338 76.3912 121.474 76.0632C121.618 75.7272 121.69 75.2752 121.69 74.7072V70.1952H123.023V74.5992C123.023 75.4552 122.902 76.1472 122.662 76.6752C122.422 77.2032 122.078 77.5872 121.63 77.8272C121.19 78.0672 120.666 78.1872 120.058 78.1872ZM124.502 78.0432V70.1952H129.23V71.3712H125.894V73.3752H128.714V74.5512H125.894V76.8672H129.35V78.0432H124.502Z" fill="white"/>
<path d="M172 67.0432C172 65.3863 173.343 64.0432 175 64.0432H212C213.657 64.0432 215 65.3863 215 67.0432V80.0432C215 81.7 213.657 83.0432 212 83.0432H175C173.343 83.0432 172 81.7 172 80.0432V67.0432Z" fill="#DE0015"/>
<path d="M180.4 78.0432L177.952 70.1952H179.428L180.532 74.1432C180.66 74.5832 180.776 75.0072 180.88 75.4152C180.984 75.8232 181.1 76.2512 181.228 76.6992H181.276C181.412 76.2512 181.528 75.8232 181.624 75.4152C181.728 75.0072 181.84 74.5832 181.96 74.1432L183.052 70.1952H184.48L182.044 78.0432H180.4ZM186.37 73.8672L186.094 74.8272H188.098L187.822 73.8672C187.694 73.4512 187.57 73.0232 187.45 72.5832C187.338 72.1432 187.226 71.7072 187.114 71.2752H187.066C186.962 71.7152 186.85 72.1552 186.73 72.5952C186.618 73.0272 186.498 73.4512 186.37 73.8672ZM183.742 78.0432L186.298 70.1952H187.93L190.486 78.0432H189.022L188.41 75.9192H185.77L185.158 78.0432H183.742ZM190.974 78.0432V70.1952H192.366V76.8672H195.63V78.0432H190.974ZM199.058 78.1872C198.458 78.1872 197.934 78.0672 197.486 77.8272C197.038 77.5872 196.69 77.2032 196.442 76.6752C196.202 76.1472 196.082 75.4552 196.082 74.5992V70.1952H197.474V74.7072C197.474 75.2752 197.538 75.7272 197.666 76.0632C197.802 76.3912 197.99 76.6272 198.23 76.7712C198.47 76.9072 198.746 76.9752 199.058 76.9752C199.378 76.9752 199.658 76.9072 199.898 76.7712C200.146 76.6272 200.338 76.3912 200.474 76.0632C200.618 75.7272 200.69 75.2752 200.69 74.7072V70.1952H202.023V74.5992C202.023 75.4552 201.902 76.1472 201.662 76.6752C201.422 77.2032 201.078 77.5872 200.63 77.8272C200.19 78.0672 199.666 78.1872 199.058 78.1872ZM203.502 78.0432V70.1952H208.23V71.3712H204.894V73.3752H207.714V74.5512H204.894V76.8672H208.35V78.0432H203.502Z" fill="white"/>
<path d="M251 67.0432C251 65.3863 252.343 64.0432 254 64.0432H291C292.657 64.0432 294 65.3863 294 67.0432V80.0432C294 81.7 292.657 83.0432 291 83.0432H254C252.343 83.0432 251 81.7 251 80.0432V67.0432Z" fill="white"/>
<path d="M259.4 78.0432L256.952 70.1952H258.428L259.532 74.1432C259.66 74.5832 259.776 75.0072 259.88 75.4152C259.984 75.8232 260.1 76.2512 260.228 76.6992H260.276C260.412 76.2512 260.528 75.8232 260.624 75.4152C260.728 75.0072 260.84 74.5832 260.96 74.1432L262.052 70.1952H263.48L261.044 78.0432H259.4ZM265.37 73.8672L265.094 74.8272H267.098L266.822 73.8672C266.694 73.4512 266.57 73.0232 266.45 72.5832C266.338 72.1432 266.226 71.7072 266.114 71.2752H266.066C265.962 71.7152 265.85 72.1552 265.73 72.5952C265.618 73.0272 265.498 73.4512 265.37 73.8672ZM262.742 78.0432L265.298 70.1952H266.93L269.486 78.0432H268.022L267.41 75.9192H264.77L264.158 78.0432H262.742ZM269.974 78.0432V70.1952H271.366V76.8672H274.63V78.0432H269.974ZM278.058 78.1872C277.458 78.1872 276.934 78.0672 276.486 77.8272C276.038 77.5872 275.69 77.2032 275.442 76.6752C275.202 76.1472 275.082 75.4552 275.082 74.5992V70.1952H276.474V74.7072C276.474 75.2752 276.538 75.7272 276.666 76.0632C276.802 76.3912 276.99 76.6272 277.23 76.7712C277.47 76.9072 277.746 76.9752 278.058 76.9752C278.378 76.9752 278.658 76.9072 278.898 76.7712C279.146 76.6272 279.338 76.3912 279.474 76.0632C279.618 75.7272 279.69 75.2752 279.69 74.7072V70.1952H281.023V74.5992C281.023 75.4552 280.902 76.1472 280.662 76.6752C280.422 77.2032 280.078 77.5872 279.63 77.8272C279.19 78.0672 278.666 78.1872 278.058 78.1872ZM282.502 78.0432V70.1952H287.23V71.3712H283.894V73.3752H286.714V74.5512H283.894V76.8672H287.35V78.0432H282.502Z" fill="#354052"/>
<path d="M330 67.0432C330 65.3863 331.343 64.0432 333 64.0432H370C371.657 64.0432 373 65.3863 373 67.0432V80.0432C373 81.7 371.657 83.0432 370 83.0432H333C331.343 83.0432 330 81.7 330 80.0432V67.0432Z" fill="#F5CB23"/>
<path d="M338.4 78.0432L335.952 70.1952H337.428L338.532 74.1432C338.66 74.5832 338.776 75.0072 338.88 75.4152C338.984 75.8232 339.1 76.2512 339.228 76.6992H339.276C339.412 76.2512 339.528 75.8232 339.624 75.4152C339.728 75.0072 339.84 74.5832 339.96 74.1432L341.052 70.1952H342.48L340.044 78.0432H338.4ZM344.37 73.8672L344.094 74.8272H346.098L345.822 73.8672C345.694 73.4512 345.57 73.0232 345.45 72.5832C345.338 72.1432 345.226 71.7072 345.114 71.2752H345.066C344.962 71.7152 344.85 72.1552 344.73 72.5952C344.618 73.0272 344.498 73.4512 344.37 73.8672ZM341.742 78.0432L344.298 70.1952H345.93L348.486 78.0432H347.022L346.41 75.9192H343.77L343.158 78.0432H341.742ZM348.974 78.0432V70.1952H350.366V76.8672H353.63V78.0432H348.974ZM357.058 78.1872C356.458 78.1872 355.934 78.0672 355.486 77.8272C355.038 77.5872 354.69 77.2032 354.442 76.6752C354.202 76.1472 354.082 75.4552 354.082 74.5992V70.1952H355.474V74.7072C355.474 75.2752 355.538 75.7272 355.666 76.0632C355.802 76.3912 355.99 76.6272 356.23 76.7712C356.47 76.9072 356.746 76.9752 357.058 76.9752C357.378 76.9752 357.658 76.9072 357.898 76.7712C358.146 76.6272 358.338 76.3912 358.474 76.0632C358.618 75.7272 358.69 75.2752 358.69 74.7072V70.1952H360.023V74.5992C360.023 75.4552 359.902 76.1472 359.662 76.6752C359.422 77.2032 359.078 77.5872 358.63 77.8272C358.19 78.0672 357.666 78.1872 357.058 78.1872ZM361.502 78.0432V70.1952H366.23V71.3712H362.894V73.3752H365.714V74.5512H362.894V76.8672H366.35V78.0432H361.502Z" fill="white"/>
<path d="M409 67.0432C409 65.3863 410.343 64.0432 412 64.0432H449C450.657 64.0432 452 65.3863 452 67.0432V80.0432C452 81.7 450.657 83.0432 449 83.0432H412C410.343 83.0432 409 81.7 409 80.0432V67.0432Z" fill="#FF7800"/>
<path d="M417.4 78.0432L414.952 70.1952H416.428L417.532 74.1432C417.66 74.5832 417.776 75.0072 417.88 75.4152C417.984 75.8232 418.1 76.2512 418.228 76.6992H418.276C418.412 76.2512 418.528 75.8232 418.624 75.4152C418.728 75.0072 418.84 74.5832 418.96 74.1432L420.052 70.1952H421.48L419.044 78.0432H417.4ZM423.37 73.8672L423.094 74.8272H425.098L424.822 73.8672C424.694 73.4512 424.57 73.0232 424.45 72.5832C424.338 72.1432 424.226 71.7072 424.114 71.2752H424.066C423.962 71.7152 423.85 72.1552 423.73 72.5952C423.618 73.0272 423.498 73.4512 423.37 73.8672ZM420.742 78.0432L423.298 70.1952H424.93L427.486 78.0432H426.022L425.41 75.9192H422.77L422.158 78.0432H420.742ZM427.974 78.0432V70.1952H429.366V76.8672H432.63V78.0432H427.974ZM436.058 78.1872C435.458 78.1872 434.934 78.0672 434.486 77.8272C434.038 77.5872 433.69 77.2032 433.442 76.6752C433.202 76.1472 433.082 75.4552 433.082 74.5992V70.1952H434.474V74.7072C434.474 75.2752 434.538 75.7272 434.666 76.0632C434.802 76.3912 434.99 76.6272 435.23 76.7712C435.47 76.9072 435.746 76.9752 436.058 76.9752C436.378 76.9752 436.658 76.9072 436.898 76.7712C437.146 76.6272 437.338 76.3912 437.474 76.0632C437.618 75.7272 437.69 75.2752 437.69 74.7072V70.1952H439.023V74.5992C439.023 75.4552 438.902 76.1472 438.662 76.6752C438.422 77.2032 438.078 77.5872 437.63 77.8272C437.19 78.0672 436.666 78.1872 436.058 78.1872ZM440.502 78.0432V70.1952H445.23V71.3712H441.894V73.3752H444.714V74.5512H441.894V76.8672H445.35V78.0432H440.502Z" fill="white"/>
<path d="M567 67.0432C567 65.3863 568.343 64.0432 570 64.0432H607C608.657 64.0432 610 65.3863 610 67.0432V80.0432C610 81.7 608.657 83.0432 607 83.0432H570C568.343 83.0432 567 81.7 567 80.0432V67.0432Z" fill="#00B800"/>
<path d="M575.4 78.0432L572.952 70.1952H574.428L575.532 74.1432C575.66 74.5832 575.776 75.0072 575.88 75.4152C575.984 75.8232 576.1 76.2512 576.228 76.6992H576.276C576.412 76.2512 576.528 75.8232 576.624 75.4152C576.728 75.0072 576.84 74.5832 576.96 74.1432L578.052 70.1952H579.48L577.044 78.0432H575.4ZM581.37 73.8672L581.094 74.8272H583.098L582.822 73.8672C582.694 73.4512 582.57 73.0232 582.45 72.5832C582.338 72.1432 582.226 71.7072 582.114 71.2752H582.066C581.962 71.7152 581.85 72.1552 581.73 72.5952C581.618 73.0272 581.498 73.4512 581.37 73.8672ZM578.742 78.0432L581.298 70.1952H582.93L585.486 78.0432H584.022L583.41 75.9192H580.77L580.158 78.0432H578.742ZM585.974 78.0432V70.1952H587.366V76.8672H590.63V78.0432H585.974ZM594.058 78.1872C593.458 78.1872 592.934 78.0672 592.486 77.8272C592.038 77.5872 591.69 77.2032 591.442 76.6752C591.202 76.1472 591.082 75.4552 591.082 74.5992V70.1952H592.474V74.7072C592.474 75.2752 592.538 75.7272 592.666 76.0632C592.802 76.3912 592.99 76.6272 593.23 76.7712C593.47 76.9072 593.746 76.9752 594.058 76.9752C594.378 76.9752 594.658 76.9072 594.898 76.7712C595.146 76.6272 595.338 76.3912 595.474 76.0632C595.618 75.7272 595.69 75.2752 595.69 74.7072V70.1952H597.023V74.5992C597.023 75.4552 596.902 76.1472 596.662 76.6752C596.422 77.2032 596.078 77.5872 595.63 77.8272C595.19 78.0672 594.666 78.1872 594.058 78.1872ZM598.502 78.0432V70.1952H603.23V71.3712H599.894V73.3752H602.714V74.5512H599.894V76.8672H603.35V78.0432H598.502Z" fill="white"/>
<path d="M488 67.0432C488 65.3863 489.343 64.0432 491 64.0432H528C529.657 64.0432 531 65.3863 531 67.0432V80.0432C531 81.7 529.657 83.0432 528 83.0432H491C489.343 83.0432 488 81.7 488 80.0432V67.0432Z" fill="#787D89"/>
<path d="M496.4 78.0432L493.952 70.1952H495.428L496.532 74.1432C496.66 74.5832 496.776 75.0072 496.88 75.4152C496.984 75.8232 497.1 76.2512 497.228 76.6992H497.276C497.412 76.2512 497.528 75.8232 497.624 75.4152C497.728 75.0072 497.84 74.5832 497.96 74.1432L499.052 70.1952H500.48L498.044 78.0432H496.4ZM502.37 73.8672L502.094 74.8272H504.098L503.822 73.8672C503.694 73.4512 503.57 73.0232 503.45 72.5832C503.338 72.1432 503.226 71.7072 503.114 71.2752H503.066C502.962 71.7152 502.85 72.1552 502.73 72.5952C502.618 73.0272 502.498 73.4512 502.37 73.8672ZM499.742 78.0432L502.298 70.1952H503.93L506.486 78.0432H505.022L504.41 75.9192H501.77L501.158 78.0432H499.742ZM506.974 78.0432V70.1952H508.366V76.8672H511.63V78.0432H506.974ZM515.058 78.1872C514.458 78.1872 513.934 78.0672 513.486 77.8272C513.038 77.5872 512.69 77.2032 512.442 76.6752C512.202 76.1472 512.082 75.4552 512.082 74.5992V70.1952H513.474V74.7072C513.474 75.2752 513.538 75.7272 513.666 76.0632C513.802 76.3912 513.99 76.6272 514.23 76.7712C514.47 76.9072 514.746 76.9752 515.058 76.9752C515.378 76.9752 515.658 76.9072 515.898 76.7712C516.146 76.6272 516.338 76.3912 516.474 76.0632C516.618 75.7272 516.69 75.2752 516.69 74.7072V70.1952H518.023V74.5992C518.023 75.4552 517.902 76.1472 517.662 76.6752C517.422 77.2032 517.078 77.5872 516.63 77.8272C516.19 78.0672 515.666 78.1872 515.058 78.1872ZM519.502 78.0432V70.1952H524.23V71.3712H520.894V73.3752H523.714V74.5512H520.894V76.8672H524.35V78.0432H519.502Z" fill="white"/>
</svg>
