<svg width="1148" height="269" viewBox="0 0 1148 269" fill="none" xmlns="http://www.w3.org/2000/svg">
<rect width="1148" height="269" rx="5" fill="#FAFAFA"/>
<rect width="1084" height="205" transform="translate(32 32)" fill="#FAFAFA"/>
<rect x="34.5" y="66.5432" width="1079" height="51" fill="#2DA1F8"/>
<rect x="34.5" y="66.5432" width="1079" height="51" stroke="#2DA1F8"/>
<rect x="53.5" y="80.5482" width="22.99" height="22.99" rx="11.495" fill="white" stroke="#3F3F3F"/>
<path d="M99.708 96.7112C98.9147 96.7112 98.2147 96.5199 97.608 96.1372C97.0013 95.7452 96.5253 95.1945 96.18 94.4852C95.844 93.7665 95.676 92.9125 95.676 91.9232C95.676 90.9339 95.844 90.0892 96.18 89.3892C96.5253 88.6892 97.0013 88.1525 97.608 87.7792C98.2147 87.4059 98.9147 87.2192 99.708 87.2192C100.511 87.2192 101.215 87.4059 101.822 87.7792C102.429 88.1525 102.9 88.6892 103.236 89.3892C103.581 90.0892 103.754 90.9339 103.754 91.9232C103.754 92.9125 103.581 93.7665 103.236 94.4852C102.9 95.1945 102.429 95.7452 101.822 96.1372C101.215 96.5199 100.511 96.7112 99.708 96.7112ZM99.708 95.2972C100.427 95.2972 101.001 94.9939 101.43 94.3872C101.859 93.7712 102.074 92.9499 102.074 91.9232C102.074 90.8965 101.859 90.0939 101.43 89.5152C101.001 88.9272 100.427 88.6332 99.708 88.6332C98.9893 88.6332 98.4153 88.9272 97.986 89.5152C97.5567 90.0939 97.342 90.8965 97.342 91.9232C97.342 92.9499 97.5567 93.7712 97.986 94.3872C98.4153 94.9939 98.9893 95.2972 99.708 95.2972ZM107.868 96.7112C107.074 96.7112 106.51 96.4825 106.174 96.0252C105.847 95.5585 105.684 94.9565 105.684 94.2192V90.9432H104.704V89.7392L105.768 89.6692L105.964 87.7932H107.308V89.6692H109.058V90.9432H107.308V94.2192C107.308 95.0219 107.63 95.4232 108.274 95.4232C108.395 95.4232 108.521 95.4092 108.652 95.3812C108.782 95.3439 108.894 95.3065 108.988 95.2692L109.268 96.4592C109.081 96.5245 108.866 96.5805 108.624 96.6272C108.39 96.6832 108.138 96.7112 107.868 96.7112ZM110.504 96.5432V86.6592H112.114V89.2072L112.058 90.5372C112.348 90.2665 112.67 90.0285 113.024 89.8232C113.379 89.6085 113.79 89.5012 114.256 89.5012C114.994 89.5012 115.53 89.7392 115.866 90.2152C116.202 90.6912 116.37 91.3632 116.37 92.2312V96.5432H114.76V92.4412C114.76 91.8719 114.676 91.4705 114.508 91.2372C114.34 91.0039 114.065 90.8872 113.682 90.8872C113.384 90.8872 113.118 90.9619 112.884 91.1112C112.66 91.2512 112.404 91.4612 112.114 91.7412V96.5432H110.504ZM121.251 96.7112C120.616 96.7112 120.042 96.5712 119.529 96.2912C119.015 96.0019 118.609 95.5912 118.311 95.0592C118.012 94.5179 117.863 93.8692 117.863 93.1132C117.863 92.3665 118.012 91.7225 118.311 91.1812C118.619 90.6399 119.015 90.2245 119.501 89.9352C119.986 89.6459 120.495 89.5012 121.027 89.5012C121.652 89.5012 122.175 89.6412 122.595 89.9212C123.015 90.1919 123.332 90.5745 123.547 91.0692C123.761 91.5545 123.869 92.1192 123.869 92.7632C123.869 93.0992 123.845 93.3605 123.799 93.5472H119.431C119.505 94.1539 119.725 94.6252 120.089 94.9612C120.453 95.2972 120.91 95.4652 121.461 95.4652C121.759 95.4652 122.035 95.4232 122.287 95.3392C122.548 95.2459 122.805 95.1199 123.057 94.9612L123.603 95.9692C123.276 96.1839 122.912 96.3612 122.511 96.5012C122.109 96.6412 121.689 96.7112 121.251 96.7112ZM119.417 92.4552H122.469C122.469 91.9232 122.352 91.5079 122.119 91.2092C121.885 90.9012 121.535 90.7472 121.069 90.7472C120.667 90.7472 120.308 90.8965 119.991 91.1952C119.683 91.4845 119.491 91.9045 119.417 92.4552ZM125.407 96.5432V89.6692H126.737L126.849 90.8872H126.905C127.147 90.4392 127.441 90.0985 127.787 89.8652C128.132 89.6225 128.487 89.5012 128.851 89.5012C129.177 89.5012 129.439 89.5479 129.635 89.6412L129.355 91.0412C129.233 91.0039 129.121 90.9759 129.019 90.9572C128.916 90.9385 128.79 90.9292 128.641 90.9292C128.37 90.9292 128.085 91.0365 127.787 91.2512C127.488 91.4565 127.231 91.8205 127.017 92.3432V96.5432H125.407Z" fill="white"/>
<rect x="61" y="88.0432" width="7.99" height="7.99" rx="3.995" fill="#3F3F3F"/>
<rect x="34.5" y="176.543" width="1079" height="51" fill="white"/>
<rect x="34.5" y="176.543" width="1079" height="51" stroke="#CFD2D8"/>
<rect x="53.5" y="190.548" width="22.99" height="22.99" rx="11.495" fill="white" stroke="#3F3F3F"/>
<path d="M99.708 206.711C98.9147 206.711 98.2147 206.52 97.608 206.137C97.0013 205.745 96.5253 205.195 96.18 204.485C95.844 203.767 95.676 202.913 95.676 201.923C95.676 200.934 95.844 200.089 96.18 199.389C96.5253 198.689 97.0013 198.153 97.608 197.779C98.2147 197.406 98.9147 197.219 99.708 197.219C100.511 197.219 101.215 197.406 101.822 197.779C102.429 198.153 102.9 198.689 103.236 199.389C103.581 200.089 103.754 200.934 103.754 201.923C103.754 202.913 103.581 203.767 103.236 204.485C102.9 205.195 102.429 205.745 101.822 206.137C101.215 206.52 100.511 206.711 99.708 206.711ZM99.708 205.297C100.427 205.297 101.001 204.994 101.43 204.387C101.859 203.771 102.074 202.95 102.074 201.923C102.074 200.897 101.859 200.094 101.43 199.515C101.001 198.927 100.427 198.633 99.708 198.633C98.9893 198.633 98.4153 198.927 97.986 199.515C97.5567 200.094 97.342 200.897 97.342 201.923C97.342 202.95 97.5567 203.771 97.986 204.387C98.4153 204.994 98.9893 205.297 99.708 205.297ZM107.868 206.711C107.074 206.711 106.51 206.483 106.174 206.025C105.847 205.559 105.684 204.957 105.684 204.219V200.943H104.704V199.739L105.768 199.669L105.964 197.793H107.308V199.669H109.058V200.943H107.308V204.219C107.308 205.022 107.63 205.423 108.274 205.423C108.395 205.423 108.521 205.409 108.652 205.381C108.782 205.344 108.894 205.307 108.988 205.269L109.268 206.459C109.081 206.525 108.866 206.581 108.624 206.627C108.39 206.683 108.138 206.711 107.868 206.711ZM110.504 206.543V196.659H112.114V199.207L112.058 200.537C112.348 200.267 112.67 200.029 113.024 199.823C113.379 199.609 113.79 199.501 114.256 199.501C114.994 199.501 115.53 199.739 115.866 200.215C116.202 200.691 116.37 201.363 116.37 202.231V206.543H114.76V202.441C114.76 201.872 114.676 201.471 114.508 201.237C114.34 201.004 114.065 200.887 113.682 200.887C113.384 200.887 113.118 200.962 112.884 201.111C112.66 201.251 112.404 201.461 112.114 201.741V206.543H110.504ZM121.251 206.711C120.616 206.711 120.042 206.571 119.529 206.291C119.015 206.002 118.609 205.591 118.311 205.059C118.012 204.518 117.863 203.869 117.863 203.113C117.863 202.367 118.012 201.723 118.311 201.181C118.619 200.64 119.015 200.225 119.501 199.935C119.986 199.646 120.495 199.501 121.027 199.501C121.652 199.501 122.175 199.641 122.595 199.921C123.015 200.192 123.332 200.575 123.547 201.069C123.761 201.555 123.869 202.119 123.869 202.763C123.869 203.099 123.845 203.361 123.799 203.547H119.431C119.505 204.154 119.725 204.625 120.089 204.961C120.453 205.297 120.91 205.465 121.461 205.465C121.759 205.465 122.035 205.423 122.287 205.339C122.548 205.246 122.805 205.12 123.057 204.961L123.603 205.969C123.276 206.184 122.912 206.361 122.511 206.501C122.109 206.641 121.689 206.711 121.251 206.711ZM119.417 202.455H122.469C122.469 201.923 122.352 201.508 122.119 201.209C121.885 200.901 121.535 200.747 121.069 200.747C120.667 200.747 120.308 200.897 119.991 201.195C119.683 201.485 119.491 201.905 119.417 202.455ZM125.407 206.543V199.669H126.737L126.849 200.887H126.905C127.147 200.439 127.441 200.099 127.787 199.865C128.132 199.623 128.487 199.501 128.851 199.501C129.177 199.501 129.439 199.548 129.635 199.641L129.355 201.041C129.233 201.004 129.121 200.976 129.019 200.957C128.916 200.939 128.79 200.929 128.641 200.929C128.37 200.929 128.085 201.037 127.787 201.251C127.488 201.457 127.231 201.821 127.017 202.343V206.543H125.407Z" fill="#576372"/>
</svg>
