<svg width="649" height="374" viewBox="0 0 649 374" fill="none" xmlns="http://www.w3.org/2000/svg">
<rect width="649" height="170" rx="5" fill="#FAFAFA"/>
<rect width="580" height="108" transform="translate(32 32)" fill="#FAFAFA"/>
<path d="M33.26 111.043V101.859H35.556C36.9747 101.859 38.0527 102.256 38.79 103.049C39.5273 103.833 39.896 104.953 39.896 106.409C39.896 107.875 39.5273 109.013 38.79 109.825C38.062 110.637 37.0027 111.043 35.612 111.043H33.26ZM34.422 110.091H35.472C36.5453 110.091 37.348 109.769 37.88 109.125C38.4213 108.472 38.692 107.567 38.692 106.409C38.692 105.252 38.4213 104.365 37.88 103.749C37.348 103.124 36.5453 102.811 35.472 102.811H34.422V110.091ZM44.5193 111.211C43.9126 111.211 43.3619 111.071 42.8673 110.791C42.3726 110.502 41.9806 110.091 41.6913 109.559C41.4019 109.027 41.2573 108.393 41.2573 107.655C41.2573 106.909 41.4019 106.269 41.6913 105.737C41.9899 105.205 42.3726 104.795 42.8393 104.505C43.3059 104.216 43.7959 104.071 44.3093 104.071C45.1773 104.071 45.8446 104.361 46.3113 104.939C46.7873 105.518 47.0253 106.293 47.0253 107.263C47.0253 107.385 47.0206 107.506 47.0113 107.627C47.0113 107.739 47.0019 107.837 46.9833 107.921H42.3913C42.4379 108.64 42.6619 109.214 43.0633 109.643C43.4739 110.073 44.0059 110.287 44.6593 110.287C44.9859 110.287 45.2846 110.241 45.5553 110.147C45.8353 110.045 46.1013 109.914 46.3533 109.755L46.7593 110.511C46.4699 110.698 46.1386 110.861 45.7653 111.001C45.4013 111.141 44.9859 111.211 44.5193 111.211ZM42.3773 107.095H46.0173C46.0173 106.405 45.8679 105.882 45.5693 105.527C45.2799 105.163 44.8693 104.981 44.3373 104.981C43.8613 104.981 43.4319 105.168 43.0493 105.541C42.6759 105.905 42.4519 106.423 42.3773 107.095ZM48.9026 111.043V105.177H47.9786V104.309L48.9026 104.239V103.161C48.9026 102.471 49.0613 101.925 49.3786 101.523C49.7053 101.113 50.2093 100.907 50.8906 100.907C51.1053 100.907 51.3106 100.931 51.5066 100.977C51.7026 101.015 51.8753 101.066 52.0246 101.131L51.7726 102.013C51.5206 101.901 51.2639 101.845 51.0026 101.845C50.3679 101.845 50.0506 102.284 50.0506 103.161V104.239H51.4926V105.177H50.0506V111.043H48.9026ZM54.089 111.211C53.5197 111.211 53.0437 111.043 52.661 110.707C52.2877 110.362 52.101 109.886 52.101 109.279C52.101 108.533 52.4324 107.963 53.095 107.571C53.767 107.17 54.8264 106.89 56.273 106.731C56.273 106.442 56.231 106.167 56.147 105.905C56.0724 105.644 55.9324 105.434 55.727 105.275C55.531 105.107 55.2464 105.023 54.873 105.023C54.481 105.023 54.1124 105.098 53.767 105.247C53.4217 105.397 53.1137 105.565 52.843 105.751L52.395 104.953C52.7124 104.748 53.0997 104.552 53.557 104.365C54.0237 104.169 54.5277 104.071 55.069 104.071C55.8997 104.071 56.5017 104.328 56.875 104.841C57.2484 105.345 57.435 106.022 57.435 106.871V111.043H56.483L56.385 110.231H56.343C56.0257 110.493 55.6757 110.721 55.293 110.917C54.9197 111.113 54.5184 111.211 54.089 111.211ZM54.425 110.287C54.7517 110.287 55.0597 110.208 55.349 110.049C55.6384 109.891 55.9464 109.667 56.273 109.377V107.487C55.1437 107.627 54.3504 107.837 53.893 108.117C53.445 108.397 53.221 108.757 53.221 109.195C53.221 109.578 53.3377 109.858 53.571 110.035C53.8044 110.203 54.089 110.287 54.425 110.287ZM61.5637 111.211C60.8451 111.211 60.3177 110.987 59.9817 110.539C59.6457 110.082 59.4777 109.419 59.4777 108.551V104.239H60.6397V108.397C60.6397 109.032 60.7377 109.494 60.9337 109.783C61.1391 110.073 61.4657 110.217 61.9137 110.217C62.2684 110.217 62.5811 110.129 62.8517 109.951C63.1317 109.765 63.4304 109.471 63.7477 109.069V104.239H64.8957V111.043H63.9437L63.8457 109.979H63.8037C63.4864 110.353 63.1504 110.651 62.7957 110.875C62.4411 111.099 62.0304 111.211 61.5637 111.211ZM68.409 111.211C67.9796 111.211 67.667 111.081 67.471 110.819C67.2843 110.549 67.191 110.166 67.191 109.671V101.075H68.339V109.755C68.339 109.933 68.3716 110.063 68.437 110.147C68.5023 110.222 68.577 110.259 68.661 110.259C68.6983 110.259 68.731 110.259 68.759 110.259C68.7963 110.25 68.8476 110.241 68.913 110.231L69.067 111.099C68.9923 111.137 68.9036 111.165 68.801 111.183C68.6983 111.202 68.5676 111.211 68.409 111.211ZM72.9013 111.211C72.1733 111.211 71.6647 111.001 71.3753 110.581C71.0953 110.161 70.9553 109.615 70.9553 108.943V105.177H69.9473V104.309L71.0113 104.239L71.1513 102.335H72.1173V104.239H73.9513V105.177H72.1173V108.957C72.1173 109.377 72.192 109.704 72.3413 109.937C72.5 110.161 72.7753 110.273 73.1673 110.273C73.2887 110.273 73.4193 110.255 73.5593 110.217C73.6993 110.171 73.8253 110.129 73.9373 110.091L74.1613 110.959C73.9747 111.025 73.7693 111.081 73.5453 111.127C73.3307 111.183 73.116 111.211 72.9013 111.211Z" fill="black"/>
<path d="M119.26 46V36.816H121.878C122.569 36.816 123.171 36.9 123.684 37.068C124.197 37.236 124.599 37.5207 124.888 37.922C125.177 38.314 125.322 38.846 125.322 39.518C125.322 40.4793 125.009 41.1933 124.384 41.66C123.759 42.1267 122.942 42.36 121.934 42.36H120.422V46H119.26ZM120.422 41.408H121.794C122.597 41.408 123.189 41.2587 123.572 40.96C123.964 40.652 124.16 40.1713 124.16 39.518C124.16 38.8553 123.955 38.398 123.544 38.146C123.143 37.8847 122.541 37.754 121.738 37.754H120.422V41.408ZM127.078 46V39.196H128.03L128.128 40.428H128.17C128.403 39.9987 128.688 39.658 129.024 39.406C129.36 39.154 129.719 39.028 130.102 39.028C130.372 39.028 130.615 39.0747 130.83 39.168L130.606 40.176C130.494 40.1387 130.391 40.1107 130.298 40.092C130.204 40.0733 130.088 40.064 129.948 40.064C129.658 40.064 129.355 40.1807 129.038 40.414C128.73 40.6473 128.459 41.0533 128.226 41.632V46H127.078ZM134.552 46.168C133.946 46.168 133.395 46.028 132.9 45.748C132.406 45.4587 132.014 45.048 131.724 44.516C131.435 43.984 131.29 43.3493 131.29 42.612C131.29 41.8653 131.435 41.226 131.724 40.694C132.023 40.162 132.406 39.7513 132.872 39.462C133.339 39.1727 133.829 39.028 134.342 39.028C135.21 39.028 135.878 39.3173 136.344 39.896C136.82 40.4747 137.058 41.2493 137.058 42.22C137.058 42.3413 137.054 42.4627 137.044 42.584C137.044 42.696 137.035 42.794 137.016 42.878H132.424C132.471 43.5967 132.695 44.1707 133.096 44.6C133.507 45.0293 134.039 45.244 134.692 45.244C135.019 45.244 135.318 45.1973 135.588 45.104C135.868 45.0013 136.134 44.8707 136.386 44.712L136.792 45.468C136.503 45.6547 136.172 45.818 135.798 45.958C135.434 46.098 135.019 46.168 134.552 46.168ZM132.41 42.052H136.05C136.05 41.3613 135.901 40.8387 135.602 40.484C135.313 40.12 134.902 39.938 134.37 39.938C133.894 39.938 133.465 40.1247 133.082 40.498C132.709 40.862 132.485 41.38 132.41 42.052ZM140.278 46L137.828 39.196H139.018L140.306 43.06C140.409 43.396 140.511 43.732 140.614 44.068C140.726 44.404 140.833 44.7353 140.936 45.062H140.992C141.095 44.7353 141.197 44.404 141.3 44.068C141.412 43.732 141.515 43.396 141.608 43.06L142.896 39.196H144.03L141.622 46H140.278ZM145.343 46V39.196H146.491V46H145.343ZM145.931 37.796C145.707 37.796 145.521 37.7307 145.371 37.6C145.231 37.46 145.161 37.2733 145.161 37.04C145.161 36.816 145.231 36.634 145.371 36.494C145.521 36.354 145.707 36.284 145.931 36.284C146.155 36.284 146.337 36.354 146.477 36.494C146.627 36.634 146.701 36.816 146.701 37.04C146.701 37.2733 146.627 37.46 146.477 37.6C146.337 37.7307 146.155 37.796 145.931 37.796ZM151.435 46.168C150.884 46.168 150.366 46.028 149.881 45.748C149.405 45.468 149.017 45.062 148.719 44.53C148.429 43.998 148.285 43.3587 148.285 42.612C148.285 41.8467 148.429 41.198 148.719 40.666C149.017 40.134 149.405 39.728 149.881 39.448C150.366 39.168 150.884 39.028 151.435 39.028C151.995 39.028 152.513 39.168 152.989 39.448C153.465 39.728 153.847 40.134 154.137 40.666C154.435 41.198 154.585 41.8467 154.585 42.612C154.585 43.3587 154.435 43.998 154.137 44.53C153.847 45.062 153.465 45.468 152.989 45.748C152.513 46.028 151.995 46.168 151.435 46.168ZM151.435 45.216C152.023 45.216 152.494 44.978 152.849 44.502C153.213 44.0167 153.395 43.3867 153.395 42.612C153.395 41.828 153.213 41.1933 152.849 40.708C152.494 40.2227 152.023 39.98 151.435 39.98C150.856 39.98 150.385 40.2227 150.021 40.708C149.657 41.1933 149.475 41.828 149.475 42.612C149.475 43.3867 149.657 44.0167 150.021 44.502C150.385 44.978 150.856 45.216 151.435 45.216ZM158.365 46.168C157.646 46.168 157.119 45.944 156.783 45.496C156.447 45.0387 156.279 44.376 156.279 43.508V39.196H157.441V43.354C157.441 43.9887 157.539 44.4507 157.735 44.74C157.94 45.0293 158.267 45.174 158.715 45.174C159.069 45.174 159.382 45.0853 159.653 44.908C159.933 44.7213 160.231 44.4273 160.549 44.026V39.196H161.697V46H160.745L160.647 44.936H160.605C160.287 45.3093 159.951 45.608 159.597 45.832C159.242 46.056 158.831 46.168 158.365 46.168ZM165.77 46.168C165.284 46.168 164.822 46.0793 164.384 45.902C163.945 45.7153 163.562 45.4913 163.236 45.23L163.81 44.46C164.108 44.6933 164.416 44.8893 164.734 45.048C165.051 45.1973 165.41 45.272 165.812 45.272C166.26 45.272 166.596 45.1693 166.82 44.964C167.044 44.7493 167.156 44.4973 167.156 44.208C167.156 43.9747 167.076 43.7787 166.918 43.62C166.768 43.4613 166.572 43.3307 166.33 43.228C166.096 43.116 165.854 43.0133 165.602 42.92C165.284 42.7987 164.972 42.6633 164.664 42.514C164.356 42.3553 164.104 42.1547 163.908 41.912C163.712 41.66 163.614 41.3427 163.614 40.96C163.614 40.4093 163.819 39.952 164.23 39.588C164.65 39.2147 165.228 39.028 165.966 39.028C166.386 39.028 166.778 39.1027 167.142 39.252C167.506 39.4013 167.818 39.5833 168.08 39.798L167.52 40.526C167.286 40.3487 167.044 40.204 166.792 40.092C166.54 39.98 166.264 39.924 165.966 39.924C165.536 39.924 165.219 40.022 165.014 40.218C164.818 40.414 164.72 40.6427 164.72 40.904C164.72 41.1187 164.79 41.296 164.93 41.436C165.07 41.5667 165.252 41.6833 165.476 41.786C165.7 41.8793 165.938 41.9773 166.19 42.08C166.516 42.2013 166.838 42.3413 167.156 42.5C167.473 42.6493 167.734 42.8547 167.94 43.116C168.154 43.368 168.262 43.7087 168.262 44.138C168.262 44.502 168.164 44.838 167.968 45.146C167.781 45.454 167.501 45.7013 167.128 45.888C166.764 46.0747 166.311 46.168 165.77 46.168Z" fill="black"/>
<path d="M357.26 46V36.816H358.464L361.782 42.584L362.776 44.488H362.832C362.804 44.0213 362.771 43.5407 362.734 43.046C362.706 42.542 362.692 42.0473 362.692 41.562V36.816H363.798V46H362.594L359.262 40.218L358.268 38.328H358.212C358.249 38.7853 358.282 39.2567 358.31 39.742C358.347 40.2273 358.366 40.7127 358.366 41.198V46H357.26ZM368.97 46.168C368.364 46.168 367.813 46.028 367.318 45.748C366.824 45.4587 366.432 45.048 366.142 44.516C365.853 43.984 365.708 43.3493 365.708 42.612C365.708 41.8653 365.853 41.226 366.142 40.694C366.441 40.162 366.824 39.7513 367.29 39.462C367.757 39.1727 368.247 39.028 368.76 39.028C369.628 39.028 370.296 39.3173 370.762 39.896C371.238 40.4747 371.476 41.2493 371.476 42.22C371.476 42.3413 371.472 42.4627 371.462 42.584C371.462 42.696 371.453 42.794 371.434 42.878H366.842C366.889 43.5967 367.113 44.1707 367.514 44.6C367.925 45.0293 368.457 45.244 369.11 45.244C369.437 45.244 369.736 45.1973 370.006 45.104C370.286 45.0013 370.552 44.8707 370.804 44.712L371.21 45.468C370.921 45.6547 370.59 45.818 370.216 45.958C369.852 46.098 369.437 46.168 368.97 46.168ZM366.828 42.052H370.468C370.468 41.3613 370.319 40.8387 370.02 40.484C369.731 40.12 369.32 39.938 368.788 39.938C368.312 39.938 367.883 40.1247 367.5 40.498C367.127 40.862 366.903 41.38 366.828 42.052ZM372.11 46L374.336 42.444L372.278 39.196H373.524L374.434 40.694C374.537 40.8713 374.644 41.058 374.756 41.254C374.868 41.45 374.985 41.6413 375.106 41.828H375.162C375.265 41.6413 375.367 41.45 375.47 41.254C375.573 41.058 375.675 40.8713 375.778 40.694L376.604 39.196H377.808L375.75 42.57L377.962 46H376.716L375.722 44.418C375.601 44.2127 375.479 44.0073 375.358 43.802C375.237 43.5967 375.111 43.396 374.98 43.2H374.924C374.803 43.396 374.686 43.5967 374.574 43.802C374.462 43.998 374.35 44.2033 374.238 44.418L373.314 46H372.11ZM381.11 46.168C380.382 46.168 379.874 45.958 379.584 45.538C379.304 45.118 379.164 44.572 379.164 43.9V40.134H378.156V39.266L379.22 39.196L379.36 37.292H380.326V39.196H382.16V40.134H380.326V43.914C380.326 44.334 380.401 44.6607 380.55 44.894C380.709 45.118 380.984 45.23 381.376 45.23C381.498 45.23 381.628 45.2113 381.768 45.174C381.908 45.1273 382.034 45.0853 382.146 45.048L382.37 45.916C382.184 45.9813 381.978 46.0373 381.754 46.084C381.54 46.14 381.325 46.168 381.11 46.168Z" fill="black"/>
<rect x="118.5" y="83.5432" width="44" height="44" rx="22" fill="white"/>
<rect x="118.5" y="83.5432" width="44" height="44" rx="22" stroke="#E6EAEE"/>
<mask id="path-6-inside-1_775_2895" fill="white">
<path d="M136.5 94.0432L147.75 105.293L136.5 116.544L125.25 105.293L136.5 94.0432Z"/>
</mask>
<path d="M147.75 105.293L148.457 106.001L149.164 105.293L148.457 104.586L147.75 105.293ZM135.793 94.7503L147.043 106.001L148.457 104.586L137.207 93.3361L135.793 94.7503ZM147.043 104.586L135.793 115.837L137.207 117.251L148.457 106.001L147.043 104.586Z" fill="#1991EB" mask="url(#path-6-inside-1_775_2895)"/>
<rect x="356.5" y="83.5432" width="44" height="44" rx="22" fill="white"/>
<rect x="356.5" y="83.5432" width="44" height="44" rx="22" stroke="#E6EAEE"/>
<mask id="path-9-inside-2_775_2895" fill="white">
<path d="M382.25 116.544L371 105.293L382.25 94.0433L393.5 105.293L382.25 116.544Z"/>
</mask>
<path d="M371 105.293L370.293 104.586L369.586 105.293L370.293 106.001L371 105.293ZM382.957 115.837L371.707 104.586L370.293 106.001L381.543 117.251L382.957 115.837ZM371.707 106.001L382.957 94.7504L381.543 93.3361L370.293 104.586L371.707 106.001Z" fill="#1991EB" mask="url(#path-9-inside-2_775_2895)"/>
<rect y="204" width="649" height="170" rx="5" fill="#FAFAFA"/>
<rect width="580" height="108" transform="translate(32 236)" fill="#FAFAFA"/>
<path d="M33.26 295.043V285.859H35.556C36.9747 285.859 38.0527 286.256 38.79 287.049C39.5273 287.833 39.896 288.953 39.896 290.409C39.896 291.875 39.5273 293.013 38.79 293.825C38.062 294.637 37.0027 295.043 35.612 295.043H33.26ZM34.422 294.091H35.472C36.5453 294.091 37.348 293.769 37.88 293.125C38.4213 292.472 38.692 291.567 38.692 290.409C38.692 289.252 38.4213 288.365 37.88 287.749C37.348 287.124 36.5453 286.811 35.472 286.811H34.422V294.091ZM44.5193 295.211C43.9126 295.211 43.3619 295.071 42.8673 294.791C42.3726 294.502 41.9806 294.091 41.6913 293.559C41.4019 293.027 41.2573 292.393 41.2573 291.655C41.2573 290.909 41.4019 290.269 41.6913 289.737C41.9899 289.205 42.3726 288.795 42.8393 288.505C43.3059 288.216 43.7959 288.071 44.3093 288.071C45.1773 288.071 45.8446 288.361 46.3113 288.939C46.7873 289.518 47.0253 290.293 47.0253 291.263C47.0253 291.385 47.0206 291.506 47.0113 291.627C47.0113 291.739 47.0019 291.837 46.9833 291.921H42.3913C42.4379 292.64 42.6619 293.214 43.0633 293.643C43.4739 294.073 44.0059 294.287 44.6593 294.287C44.9859 294.287 45.2846 294.241 45.5553 294.147C45.8353 294.045 46.1013 293.914 46.3533 293.755L46.7593 294.511C46.4699 294.698 46.1386 294.861 45.7653 295.001C45.4013 295.141 44.9859 295.211 44.5193 295.211ZM42.3773 291.095H46.0173C46.0173 290.405 45.8679 289.882 45.5693 289.527C45.2799 289.163 44.8693 288.981 44.3373 288.981C43.8613 288.981 43.4319 289.168 43.0493 289.541C42.6759 289.905 42.4519 290.423 42.3773 291.095ZM48.9026 295.043V289.177H47.9786V288.309L48.9026 288.239V287.161C48.9026 286.471 49.0613 285.925 49.3786 285.523C49.7053 285.113 50.2093 284.907 50.8906 284.907C51.1053 284.907 51.3106 284.931 51.5066 284.977C51.7026 285.015 51.8753 285.066 52.0246 285.131L51.7726 286.013C51.5206 285.901 51.2639 285.845 51.0026 285.845C50.3679 285.845 50.0506 286.284 50.0506 287.161V288.239H51.4926V289.177H50.0506V295.043H48.9026ZM54.089 295.211C53.5197 295.211 53.0437 295.043 52.661 294.707C52.2877 294.362 52.101 293.886 52.101 293.279C52.101 292.533 52.4324 291.963 53.095 291.571C53.767 291.17 54.8264 290.89 56.273 290.731C56.273 290.442 56.231 290.167 56.147 289.905C56.0724 289.644 55.9324 289.434 55.727 289.275C55.531 289.107 55.2464 289.023 54.873 289.023C54.481 289.023 54.1124 289.098 53.767 289.247C53.4217 289.397 53.1137 289.565 52.843 289.751L52.395 288.953C52.7124 288.748 53.0997 288.552 53.557 288.365C54.0237 288.169 54.5277 288.071 55.069 288.071C55.8997 288.071 56.5017 288.328 56.875 288.841C57.2484 289.345 57.435 290.022 57.435 290.871V295.043H56.483L56.385 294.231H56.343C56.0257 294.493 55.6757 294.721 55.293 294.917C54.9197 295.113 54.5184 295.211 54.089 295.211ZM54.425 294.287C54.7517 294.287 55.0597 294.208 55.349 294.049C55.6384 293.891 55.9464 293.667 56.273 293.377V291.487C55.1437 291.627 54.3504 291.837 53.893 292.117C53.445 292.397 53.221 292.757 53.221 293.195C53.221 293.578 53.3377 293.858 53.571 294.035C53.8044 294.203 54.089 294.287 54.425 294.287ZM61.5637 295.211C60.8451 295.211 60.3177 294.987 59.9817 294.539C59.6457 294.082 59.4777 293.419 59.4777 292.551V288.239H60.6397V292.397C60.6397 293.032 60.7377 293.494 60.9337 293.783C61.1391 294.073 61.4657 294.217 61.9137 294.217C62.2684 294.217 62.5811 294.129 62.8517 293.951C63.1317 293.765 63.4304 293.471 63.7477 293.069V288.239H64.8957V295.043H63.9437L63.8457 293.979H63.8037C63.4864 294.353 63.1504 294.651 62.7957 294.875C62.4411 295.099 62.0304 295.211 61.5637 295.211ZM68.409 295.211C67.9796 295.211 67.667 295.081 67.471 294.819C67.2843 294.549 67.191 294.166 67.191 293.671V285.075H68.339V293.755C68.339 293.933 68.3716 294.063 68.437 294.147C68.5023 294.222 68.577 294.259 68.661 294.259C68.6983 294.259 68.731 294.259 68.759 294.259C68.7963 294.25 68.8476 294.241 68.913 294.231L69.067 295.099C68.9923 295.137 68.9036 295.165 68.801 295.183C68.6983 295.202 68.5676 295.211 68.409 295.211ZM72.9013 295.211C72.1733 295.211 71.6647 295.001 71.3753 294.581C71.0953 294.161 70.9553 293.615 70.9553 292.943V289.177H69.9473V288.309L71.0113 288.239L71.1513 286.335H72.1173V288.239H73.9513V289.177H72.1173V292.957C72.1173 293.377 72.192 293.704 72.3413 293.937C72.5 294.161 72.7753 294.273 73.1673 294.273C73.2887 294.273 73.4193 294.255 73.5593 294.217C73.6993 294.171 73.8253 294.129 73.9373 294.091L74.1613 294.959C73.9747 295.025 73.7693 295.081 73.5453 295.127C73.3307 295.183 73.116 295.211 72.9013 295.211Z" fill="black"/>
<path d="M313.842 244.862L313.408 246.262H316.166L315.732 244.862C315.564 244.349 315.405 243.84 315.256 243.336C315.107 242.823 314.957 242.3 314.808 241.768H314.752C314.612 242.3 314.467 242.823 314.318 243.336C314.169 243.84 314.01 244.349 313.842 244.862ZM311.042 250L314.15 240.816H315.466L318.574 250H317.328L316.46 247.2H313.114L312.232 250H311.042ZM322.087 250.168C321.238 250.168 320.557 249.86 320.043 249.244C319.53 248.619 319.273 247.741 319.273 246.612C319.273 245.875 319.409 245.24 319.679 244.708C319.959 244.167 320.323 243.751 320.771 243.462C321.229 243.173 321.714 243.028 322.227 243.028C322.619 243.028 322.96 243.098 323.249 243.238C323.539 243.378 323.833 243.569 324.131 243.812L324.075 242.65V240.032H325.237V250H324.285L324.187 249.202H324.145C323.884 249.463 323.576 249.692 323.221 249.888C322.867 250.075 322.489 250.168 322.087 250.168ZM322.339 249.202C322.937 249.202 323.515 248.889 324.075 248.264V244.708C323.786 244.447 323.506 244.265 323.235 244.162C322.974 244.05 322.703 243.994 322.423 243.994C322.059 243.994 321.728 244.106 321.429 244.33C321.14 244.545 320.907 244.848 320.729 245.24C320.552 245.623 320.463 246.075 320.463 246.598C320.463 247.41 320.627 248.049 320.953 248.516C321.28 248.973 321.742 249.202 322.339 249.202ZM329.853 250.168C329.004 250.168 328.322 249.86 327.809 249.244C327.296 248.619 327.039 247.741 327.039 246.612C327.039 245.875 327.174 245.24 327.445 244.708C327.725 244.167 328.089 243.751 328.537 243.462C328.994 243.173 329.48 243.028 329.993 243.028C330.385 243.028 330.726 243.098 331.015 243.238C331.304 243.378 331.598 243.569 331.897 243.812L331.841 242.65V240.032H333.003V250H332.051L331.953 249.202H331.911C331.65 249.463 331.342 249.692 330.987 249.888C330.632 250.075 330.254 250.168 329.853 250.168ZM330.105 249.202C330.702 249.202 331.281 248.889 331.841 248.264V244.708C331.552 244.447 331.272 244.265 331.001 244.162C330.74 244.05 330.469 243.994 330.189 243.994C329.825 243.994 329.494 244.106 329.195 244.33C328.906 244.545 328.672 244.848 328.495 245.24C328.318 245.623 328.229 246.075 328.229 246.598C328.229 247.41 328.392 248.049 328.719 248.516C329.046 248.973 329.508 249.202 330.105 249.202Z" fill="black"/>
<rect x="301" y="268.043" width="44" height="44" rx="22" fill="#1991EB"/>
<line x1="323.25" y1="282.043" x2="323.25" y2="298.043" stroke="white" stroke-width="2.5"/>
<line x1="331" y1="290.293" x2="315" y2="290.293" stroke="white" stroke-width="2.5"/>
</svg>
