<svg width="672" height="279" viewBox="0 0 672 279" fill="none" xmlns="http://www.w3.org/2000/svg">
<rect width="672" height="279" rx="5" fill="#FAFAFA"/>
<path d="M109.825 90V59.42H99.43V54.03H126.6V59.42H116.205V90H109.825ZM132.039 90V51.17H138.364V61.18L138.144 66.405C139.281 65.3417 140.546 64.4067 141.939 63.6C143.333 62.7567 144.946 62.335 146.779 62.335C149.676 62.335 151.784 63.27 153.104 65.14C154.424 67.01 155.084 69.65 155.084 73.06V90H148.759V73.885C148.759 71.6483 148.429 70.0717 147.769 69.155C147.109 68.2383 146.028 67.78 144.524 67.78C143.351 67.78 142.306 68.0733 141.389 68.66C140.509 69.21 139.501 70.035 138.364 71.135V90H132.039ZM174.258 90.66C171.765 90.66 169.51 90.11 167.493 89.01C165.477 87.8733 163.882 86.26 162.708 84.17C161.535 82.0433 160.948 79.495 160.948 76.525C160.948 73.5917 161.535 71.0617 162.708 68.935C163.918 66.8083 165.477 65.1767 167.383 64.04C169.29 62.9033 171.288 62.335 173.378 62.335C175.835 62.335 177.888 62.885 179.538 63.985C181.188 65.0483 182.435 66.5517 183.278 68.495C184.122 70.4017 184.543 72.62 184.543 75.15C184.543 76.47 184.452 77.4967 184.268 78.23H167.108C167.402 80.6133 168.263 82.465 169.693 83.785C171.123 85.105 172.92 85.765 175.083 85.765C176.257 85.765 177.338 85.6 178.328 85.27C179.355 84.9033 180.363 84.4083 181.353 83.785L183.498 87.745C182.215 88.5883 180.785 89.285 179.208 89.835C177.632 90.385 175.982 90.66 174.258 90.66ZM167.053 73.94H179.043C179.043 71.85 178.585 70.2183 177.668 69.045C176.752 67.835 175.377 67.23 173.543 67.23C171.967 67.23 170.555 67.8167 169.308 68.99C168.098 70.1267 167.347 71.7767 167.053 73.94ZM201.595 100.67V62.995H206.82L207.26 65.855H207.48C208.617 64.9017 209.882 64.0767 211.275 63.38C212.705 62.6833 214.153 62.335 215.62 62.335C218.993 62.335 221.597 63.5817 223.43 66.075C225.3 68.5683 226.235 71.905 226.235 76.085C226.235 79.165 225.685 81.805 224.585 84.005C223.485 86.1683 222.055 87.8183 220.295 88.955C218.572 90.0917 216.702 90.66 214.685 90.66C213.512 90.66 212.338 90.4033 211.165 89.89C209.992 89.34 208.855 88.6067 207.755 87.69L207.92 92.2V100.67H201.595ZM213.365 85.435C215.162 85.435 216.665 84.6467 217.875 83.07C219.085 81.4933 219.69 79.1833 219.69 76.14C219.69 73.4267 219.232 71.3183 218.315 69.815C217.398 68.3117 215.913 67.56 213.86 67.56C211.953 67.56 209.973 68.5683 207.92 70.585V83.18C208.91 83.9867 209.863 84.5733 210.78 84.94C211.697 85.27 212.558 85.435 213.365 85.435ZM238.8 90.66C236.563 90.66 234.968 89.9817 234.015 88.625C233.098 87.2683 232.64 85.4167 232.64 83.07V51.17H238.965V83.4C238.965 84.17 239.112 84.72 239.405 85.05C239.698 85.3433 240.01 85.49 240.34 85.49C240.487 85.49 240.615 85.49 240.725 85.49C240.872 85.4533 241.073 85.4167 241.33 85.38L242.155 90.11C241.788 90.2567 241.312 90.385 240.725 90.495C240.175 90.605 239.533 90.66 238.8 90.66ZM254.117 90.66C251.77 90.66 249.845 89.9267 248.342 88.46C246.875 86.9933 246.142 85.0867 246.142 82.74C246.142 79.8433 247.407 77.6067 249.937 76.03C252.467 74.4167 256.5 73.3167 262.037 72.73C262 71.3 261.615 70.0717 260.882 69.045C260.185 67.9817 258.92 67.45 257.087 67.45C255.767 67.45 254.465 67.7067 253.182 68.22C251.935 68.7333 250.707 69.3567 249.497 70.09L247.187 65.855C248.69 64.9017 250.377 64.0767 252.247 63.38C254.153 62.6833 256.17 62.335 258.297 62.335C261.67 62.335 264.182 63.3433 265.832 65.36C267.518 67.34 268.362 70.2183 268.362 73.995V90H263.137L262.697 87.03H262.477C261.267 88.0567 259.965 88.9183 258.572 89.615C257.215 90.3117 255.73 90.66 254.117 90.66ZM256.152 85.71C257.252 85.71 258.242 85.4533 259.122 84.94C260.038 84.39 261.01 83.6567 262.037 82.74V76.69C258.37 77.1667 255.822 77.8817 254.392 78.835C252.962 79.7517 252.247 80.8883 252.247 82.245C252.247 83.455 252.613 84.335 253.347 84.885C254.08 85.435 255.015 85.71 256.152 85.71ZM284.587 90.66C281.47 90.66 279.252 89.7617 277.932 87.965C276.648 86.1317 276.007 83.7667 276.007 80.87V68H272.157V63.27L276.337 62.995L277.107 55.625H282.387V62.995H289.262V68H282.387V80.87C282.387 84.0233 283.652 85.6 286.182 85.6C286.658 85.6 287.153 85.545 287.667 85.435C288.18 85.2883 288.62 85.1417 288.987 84.995L290.087 89.67C289.353 89.9267 288.51 90.1467 287.557 90.33C286.64 90.55 285.65 90.66 284.587 90.66ZM296.045 90V68H292.415V63.27L296.045 62.995V60.19C296.045 57.3667 296.741 55.0567 298.135 53.26C299.528 51.4267 301.82 50.51 305.01 50.51C305.963 50.51 306.88 50.6017 307.76 50.785C308.64 50.9683 309.373 51.1883 309.96 51.445L308.75 56.175C307.76 55.735 306.77 55.515 305.78 55.515C303.506 55.515 302.37 57.0367 302.37 60.08V62.995H307.65V68H302.37V90H296.045ZM322.919 90.66C320.682 90.66 318.592 90.11 316.649 89.01C314.705 87.8733 313.129 86.26 311.919 84.17C310.709 82.0433 310.104 79.495 310.104 76.525C310.104 73.5183 310.709 70.97 311.919 68.88C313.129 66.7533 314.705 65.14 316.649 64.04C318.592 62.9033 320.682 62.335 322.919 62.335C325.192 62.335 327.3 62.9033 329.244 64.04C331.187 65.14 332.764 66.7533 333.974 68.88C335.184 70.97 335.789 73.5183 335.789 76.525C335.789 79.495 335.184 82.0433 333.974 84.17C332.764 86.26 331.187 87.8733 329.244 89.01C327.3 90.11 325.192 90.66 322.919 90.66ZM322.919 85.49C324.899 85.49 326.457 84.665 327.594 83.015C328.73 81.365 329.299 79.2017 329.299 76.525C329.299 73.8117 328.73 71.63 327.594 69.98C326.457 68.33 324.899 67.505 322.919 67.505C320.939 67.505 319.38 68.33 318.244 69.98C317.144 71.63 316.594 73.8117 316.594 76.525C316.594 79.2017 317.144 81.365 318.244 83.015C319.38 84.665 320.939 85.49 322.919 85.49ZM342.049 90V62.995H347.274L347.714 67.78H347.934C348.888 66.02 350.043 64.6817 351.399 63.765C352.756 62.8117 354.149 62.335 355.579 62.335C356.863 62.335 357.889 62.5183 358.659 62.885L357.559 68.385C357.083 68.2383 356.643 68.1283 356.239 68.055C355.836 67.9817 355.341 67.945 354.754 67.945C353.691 67.945 352.573 68.3667 351.399 69.21C350.226 70.0167 349.218 71.4467 348.374 73.5V90H342.049ZM362.567 90V62.995H367.792L368.232 66.68H368.452C369.588 65.47 370.817 64.4433 372.137 63.6C373.493 62.7567 375.015 62.335 376.702 62.335C378.682 62.335 380.258 62.775 381.432 63.655C382.642 64.4983 383.558 65.6717 384.182 67.175C385.465 65.7817 386.803 64.6267 388.197 63.71C389.627 62.7933 391.185 62.335 392.872 62.335C395.732 62.335 397.84 63.27 399.197 65.14C400.553 67.01 401.232 69.65 401.232 73.06V90H394.852V73.885C394.852 71.6483 394.503 70.0717 393.807 69.155C393.147 68.2383 392.12 67.78 390.727 67.78C389.04 67.78 387.152 68.8983 385.062 71.135V90H378.737V73.885C378.737 71.6483 378.388 70.0717 377.692 69.155C377.032 68.2383 375.987 67.78 374.557 67.78C372.87 67.78 370.982 68.8983 368.892 71.135V90H362.567ZM103.115 159V137H99.485V132.27L103.115 131.995V129.19C103.115 126.367 103.812 124.057 105.205 122.26C106.598 120.427 108.89 119.51 112.08 119.51C113.033 119.51 113.95 119.602 114.83 119.785C115.71 119.968 116.443 120.188 117.03 120.445L115.82 125.175C114.83 124.735 113.84 124.515 112.85 124.515C110.577 124.515 109.44 126.037 109.44 129.08V131.995H114.72V137H109.44V159H103.115ZM129.989 159.66C127.752 159.66 125.662 159.11 123.719 158.01C121.776 156.873 120.199 155.26 118.989 153.17C117.779 151.043 117.174 148.495 117.174 145.525C117.174 142.518 117.779 139.97 118.989 137.88C120.199 135.753 121.776 134.14 123.719 133.04C125.662 131.903 127.752 131.335 129.989 131.335C132.262 131.335 134.371 131.903 136.314 133.04C138.257 134.14 139.834 135.753 141.044 137.88C142.254 139.97 142.859 142.518 142.859 145.525C142.859 148.495 142.254 151.043 141.044 153.17C139.834 155.26 138.257 156.873 136.314 158.01C134.371 159.11 132.262 159.66 129.989 159.66ZM129.989 154.49C131.969 154.49 133.527 153.665 134.664 152.015C135.801 150.365 136.369 148.202 136.369 145.525C136.369 142.812 135.801 140.63 134.664 138.98C133.527 137.33 131.969 136.505 129.989 136.505C128.009 136.505 126.451 137.33 125.314 138.98C124.214 140.63 123.664 142.812 123.664 145.525C123.664 148.202 124.214 150.365 125.314 152.015C126.451 153.665 128.009 154.49 129.989 154.49ZM149.119 159V131.995H154.344L154.784 136.78H155.004C155.958 135.02 157.113 133.682 158.469 132.765C159.826 131.812 161.219 131.335 162.649 131.335C163.933 131.335 164.959 131.518 165.729 131.885L164.629 137.385C164.153 137.238 163.713 137.128 163.309 137.055C162.906 136.982 162.411 136.945 161.824 136.945C160.761 136.945 159.643 137.367 158.469 138.21C157.296 139.017 156.288 140.447 155.444 142.5V159H149.119ZM187.193 159.66C184.846 159.66 182.921 158.927 181.418 157.46C179.951 155.993 179.218 154.087 179.218 151.74C179.218 148.843 180.483 146.607 183.013 145.03C185.543 143.417 189.576 142.317 195.113 141.73C195.076 140.3 194.691 139.072 193.958 138.045C193.261 136.982 191.996 136.45 190.163 136.45C188.843 136.45 187.541 136.707 186.258 137.22C185.011 137.733 183.783 138.357 182.573 139.09L180.263 134.855C181.766 133.902 183.453 133.077 185.323 132.38C187.229 131.683 189.246 131.335 191.373 131.335C194.746 131.335 197.258 132.343 198.908 134.36C200.594 136.34 201.438 139.218 201.438 142.995V159H196.213L195.773 156.03H195.553C194.343 157.057 193.041 157.918 191.648 158.615C190.291 159.312 188.806 159.66 187.193 159.66ZM189.228 154.71C190.328 154.71 191.318 154.453 192.198 153.94C193.114 153.39 194.086 152.657 195.113 151.74V145.69C191.446 146.167 188.898 146.882 187.468 147.835C186.038 148.752 185.323 149.888 185.323 151.245C185.323 152.455 185.689 153.335 186.423 153.885C187.156 154.435 188.091 154.71 189.228 154.71ZM220.282 159.66C217.826 159.66 215.607 159.11 213.627 158.01C211.684 156.873 210.126 155.26 208.952 153.17C207.816 151.043 207.247 148.495 207.247 145.525C207.247 142.518 207.871 139.97 209.117 137.88C210.364 135.753 212.014 134.14 214.067 133.04C216.157 131.903 218.394 131.335 220.777 131.335C222.501 131.335 224.004 131.628 225.287 132.215C226.571 132.802 227.707 133.517 228.697 134.36L225.617 138.485C224.921 137.862 224.206 137.385 223.472 137.055C222.739 136.688 221.951 136.505 221.107 136.505C218.944 136.505 217.166 137.33 215.772 138.98C214.416 140.63 213.737 142.812 213.737 145.525C213.737 148.202 214.397 150.365 215.717 152.015C217.074 153.665 218.816 154.49 220.942 154.49C222.006 154.49 222.996 154.27 223.912 153.83C224.866 153.353 225.727 152.803 226.497 152.18L229.082 156.36C227.836 157.46 226.442 158.285 224.902 158.835C223.362 159.385 221.822 159.66 220.282 159.66ZM243.39 159.66C240.274 159.66 238.055 158.762 236.735 156.965C235.452 155.132 234.81 152.767 234.81 149.87V137H230.96V132.27L235.14 131.995L235.91 124.625H241.19V131.995H248.065V137H241.19V149.87C241.19 153.023 242.455 154.6 244.985 154.6C245.462 154.6 245.957 154.545 246.47 154.435C246.984 154.288 247.424 154.142 247.79 153.995L248.89 158.67C248.157 158.927 247.314 159.147 246.36 159.33C245.444 159.55 244.454 159.66 243.39 159.66ZM253.748 159V131.995H260.073V159H253.748ZM256.938 127.265C255.802 127.265 254.885 126.935 254.188 126.275C253.492 125.615 253.143 124.735 253.143 123.635C253.143 122.572 253.492 121.71 254.188 121.05C254.885 120.39 255.802 120.06 256.938 120.06C258.075 120.06 258.992 120.39 259.688 121.05C260.385 121.71 260.733 122.572 260.733 123.635C260.733 124.735 260.385 125.615 259.688 126.275C258.992 126.935 258.075 127.265 256.938 127.265ZM274.193 159L264.788 131.995H271.223L275.513 146.02C275.88 147.34 276.246 148.678 276.613 150.035C277.016 151.392 277.401 152.767 277.768 154.16H277.988C278.391 152.767 278.776 151.392 279.143 150.035C279.546 148.678 279.931 147.34 280.298 146.02L284.588 131.995H290.693L281.508 159H274.193ZM306.602 159.66C304.109 159.66 301.854 159.11 299.837 158.01C297.82 156.873 296.225 155.26 295.052 153.17C293.879 151.043 293.292 148.495 293.292 145.525C293.292 142.592 293.879 140.062 295.052 137.935C296.262 135.808 297.82 134.177 299.727 133.04C301.634 131.903 303.632 131.335 305.722 131.335C308.179 131.335 310.232 131.885 311.882 132.985C313.532 134.048 314.779 135.552 315.622 137.495C316.465 139.402 316.887 141.62 316.887 144.15C316.887 145.47 316.795 146.497 316.612 147.23H299.452C299.745 149.613 300.607 151.465 302.037 152.785C303.467 154.105 305.264 154.765 307.427 154.765C308.6 154.765 309.682 154.6 310.672 154.27C311.699 153.903 312.707 153.408 313.697 152.785L315.842 156.745C314.559 157.588 313.129 158.285 311.552 158.835C309.975 159.385 308.325 159.66 306.602 159.66ZM299.397 142.94H311.387C311.387 140.85 310.929 139.218 310.012 138.045C309.095 136.835 307.72 136.23 305.887 136.23C304.31 136.23 302.899 136.817 301.652 137.99C300.442 139.127 299.69 140.777 299.397 142.94ZM340.484 159.66C338.137 159.66 336.212 158.927 334.709 157.46C333.242 155.993 332.509 154.087 332.509 151.74C332.509 148.843 333.774 146.607 336.304 145.03C338.834 143.417 342.867 142.317 348.404 141.73C348.367 140.3 347.982 139.072 347.249 138.045C346.552 136.982 345.287 136.45 343.454 136.45C342.134 136.45 340.832 136.707 339.549 137.22C338.302 137.733 337.074 138.357 335.864 139.09L333.554 134.855C335.057 133.902 336.744 133.077 338.614 132.38C340.52 131.683 342.537 131.335 344.664 131.335C348.037 131.335 350.549 132.343 352.199 134.36C353.885 136.34 354.729 139.218 354.729 142.995V159H349.504L349.064 156.03H348.844C347.634 157.057 346.332 157.918 344.939 158.615C343.582 159.312 342.097 159.66 340.484 159.66ZM342.519 154.71C343.619 154.71 344.609 154.453 345.489 153.94C346.405 153.39 347.377 152.657 348.404 151.74V145.69C344.737 146.167 342.189 146.882 340.759 147.835C339.329 148.752 338.614 149.888 338.614 151.245C338.614 152.455 338.98 153.335 339.714 153.885C340.447 154.435 341.382 154.71 342.519 154.71ZM371.703 170.935C369.577 170.935 367.652 170.678 365.928 170.165C364.242 169.652 362.903 168.863 361.913 167.8C360.96 166.773 360.483 165.472 360.483 163.895C360.483 161.658 361.767 159.733 364.333 158.12V157.9C363.637 157.46 363.05 156.873 362.573 156.14C362.133 155.407 361.913 154.49 361.913 153.39C361.913 152.327 362.207 151.373 362.793 150.53C363.417 149.65 364.113 148.935 364.883 148.385V148.165C363.967 147.468 363.142 146.497 362.408 145.25C361.712 144.003 361.363 142.592 361.363 141.015C361.363 138.925 361.858 137.165 362.848 135.735C363.838 134.305 365.14 133.223 366.753 132.49C368.403 131.72 370.163 131.335 372.033 131.335C372.767 131.335 373.463 131.408 374.123 131.555C374.82 131.665 375.443 131.812 375.993 131.995H385.673V136.67H380.723C381.163 137.183 381.53 137.843 381.823 138.65C382.117 139.42 382.263 140.282 382.263 141.235C382.263 143.215 381.805 144.902 380.888 146.295C379.972 147.652 378.743 148.678 377.203 149.375C375.663 150.072 373.94 150.42 372.033 150.42C371.447 150.42 370.842 150.365 370.218 150.255C369.595 150.145 368.972 149.962 368.348 149.705C367.945 150.072 367.615 150.438 367.358 150.805C367.138 151.172 367.028 151.667 367.028 152.29C367.028 153.06 367.34 153.665 367.963 154.105C368.623 154.545 369.778 154.765 371.428 154.765H376.213C379.477 154.765 381.933 155.297 383.583 156.36C385.27 157.387 386.113 159.073 386.113 161.42C386.113 163.18 385.527 164.775 384.353 166.205C383.18 167.672 381.512 168.827 379.348 169.67C377.185 170.513 374.637 170.935 371.703 170.935ZM372.033 146.46C373.317 146.46 374.417 145.983 375.333 145.03C376.25 144.077 376.708 142.738 376.708 141.015C376.708 139.328 376.25 138.027 375.333 137.11C374.453 136.157 373.353 135.68 372.033 135.68C370.713 135.68 369.595 136.138 368.678 137.055C367.762 137.972 367.303 139.292 367.303 141.015C367.303 142.738 367.762 144.077 368.678 145.03C369.595 145.983 370.713 146.46 372.033 146.46ZM372.693 166.81C374.857 166.81 376.617 166.37 377.973 165.49C379.33 164.61 380.008 163.602 380.008 162.465C380.008 161.402 379.587 160.687 378.743 160.32C377.937 159.953 376.763 159.77 375.223 159.77H371.538C370.072 159.77 368.843 159.642 367.853 159.385C366.46 160.448 365.763 161.64 365.763 162.96C365.763 164.17 366.387 165.105 367.633 165.765C368.88 166.462 370.567 166.81 372.693 166.81ZM390.872 159V131.995H397.197V159H390.872ZM394.062 127.265C392.926 127.265 392.009 126.935 391.312 126.275C390.616 125.615 390.267 124.735 390.267 123.635C390.267 122.572 390.616 121.71 391.312 121.05C392.009 120.39 392.926 120.06 394.062 120.06C395.199 120.06 396.116 120.39 396.812 121.05C397.509 121.71 397.857 122.572 397.857 123.635C397.857 124.735 397.509 125.615 396.812 126.275C396.116 126.935 395.199 127.265 394.062 127.265ZM405.267 159V131.995H410.492L410.932 135.625H411.152C412.362 134.452 413.682 133.443 415.112 132.6C416.542 131.757 418.174 131.335 420.007 131.335C422.904 131.335 425.012 132.27 426.332 134.14C427.652 136.01 428.312 138.65 428.312 142.06V159H421.987V142.885C421.987 140.648 421.657 139.072 420.997 138.155C420.337 137.238 419.255 136.78 417.752 136.78C416.579 136.78 415.534 137.073 414.617 137.66C413.737 138.21 412.729 139.035 411.592 140.135V159H405.267ZM445.448 170.935C443.322 170.935 441.397 170.678 439.673 170.165C437.987 169.652 436.648 168.863 435.658 167.8C434.705 166.773 434.228 165.472 434.228 163.895C434.228 161.658 435.512 159.733 438.078 158.12V157.9C437.382 157.46 436.795 156.873 436.318 156.14C435.878 155.407 435.658 154.49 435.658 153.39C435.658 152.327 435.952 151.373 436.538 150.53C437.162 149.65 437.858 148.935 438.628 148.385V148.165C437.712 147.468 436.887 146.497 436.153 145.25C435.457 144.003 435.108 142.592 435.108 141.015C435.108 138.925 435.603 137.165 436.593 135.735C437.583 134.305 438.885 133.223 440.498 132.49C442.148 131.72 443.908 131.335 445.778 131.335C446.512 131.335 447.208 131.408 447.868 131.555C448.565 131.665 449.188 131.812 449.738 131.995H459.418V136.67H454.468C454.908 137.183 455.275 137.843 455.568 138.65C455.862 139.42 456.008 140.282 456.008 141.235C456.008 143.215 455.55 144.902 454.633 146.295C453.717 147.652 452.488 148.678 450.948 149.375C449.408 150.072 447.685 150.42 445.778 150.42C445.192 150.42 444.587 150.365 443.963 150.255C443.34 150.145 442.717 149.962 442.093 149.705C441.69 150.072 441.36 150.438 441.103 150.805C440.883 151.172 440.773 151.667 440.773 152.29C440.773 153.06 441.085 153.665 441.708 154.105C442.368 154.545 443.523 154.765 445.173 154.765H449.958C453.222 154.765 455.678 155.297 457.328 156.36C459.015 157.387 459.858 159.073 459.858 161.42C459.858 163.18 459.272 164.775 458.098 166.205C456.925 167.672 455.257 168.827 453.093 169.67C450.93 170.513 448.382 170.935 445.448 170.935ZM445.778 146.46C447.062 146.46 448.162 145.983 449.078 145.03C449.995 144.077 450.453 142.738 450.453 141.015C450.453 139.328 449.995 138.027 449.078 137.11C448.198 136.157 447.098 135.68 445.778 135.68C444.458 135.68 443.34 136.138 442.423 137.055C441.507 137.972 441.048 139.292 441.048 141.015C441.048 142.738 441.507 144.077 442.423 145.03C443.34 145.983 444.458 146.46 445.778 146.46ZM446.438 166.81C448.602 166.81 450.362 166.37 451.718 165.49C453.075 164.61 453.753 163.602 453.753 162.465C453.753 161.402 453.332 160.687 452.488 160.32C451.682 159.953 450.508 159.77 448.968 159.77H445.283C443.817 159.77 442.588 159.642 441.598 159.385C440.205 160.448 439.508 161.64 439.508 162.96C439.508 164.17 440.132 165.105 441.378 165.765C442.625 166.462 444.312 166.81 446.438 166.81ZM468.193 159.66C467.056 159.66 466.084 159.257 465.278 158.45C464.471 157.643 464.068 156.617 464.068 155.37C464.068 154.123 464.471 153.097 465.278 152.29C466.084 151.483 467.056 151.08 468.193 151.08C469.366 151.08 470.338 151.483 471.108 152.29C471.878 153.097 472.263 154.123 472.263 155.37C472.263 156.617 471.878 157.643 471.108 158.45C470.338 159.257 469.366 159.66 468.193 159.66ZM112.96 228.66C110.43 228.66 108.083 228.183 105.92 227.23C103.757 226.24 101.887 224.938 100.31 223.325L103.06 220.135C104.343 221.492 105.847 222.592 107.57 223.435C109.33 224.242 111.145 224.645 113.015 224.645C115.398 224.645 117.25 224.113 118.57 223.05C119.89 221.95 120.55 220.52 120.55 218.76C120.55 217.513 120.275 216.523 119.725 215.79C119.212 215.057 118.497 214.433 117.58 213.92C116.7 213.407 115.692 212.893 114.555 212.38L109.385 210.125C108.248 209.648 107.112 209.025 105.975 208.255C104.875 207.485 103.94 206.495 103.17 205.285C102.437 204.075 102.07 202.59 102.07 200.83C102.07 198.997 102.547 197.365 103.5 195.935C104.49 194.468 105.847 193.332 107.57 192.525C109.293 191.682 111.237 191.26 113.4 191.26C115.563 191.26 117.562 191.682 119.395 192.525C121.228 193.332 122.787 194.395 124.07 195.715L121.595 198.685C120.495 197.622 119.267 196.797 117.91 196.21C116.59 195.587 115.087 195.275 113.4 195.275C111.383 195.275 109.752 195.752 108.505 196.705C107.295 197.658 106.69 198.942 106.69 200.555C106.69 201.692 106.983 202.645 107.57 203.415C108.193 204.148 108.963 204.753 109.88 205.23C110.797 205.707 111.732 206.147 112.685 206.55L117.8 208.75C119.193 209.337 120.44 210.052 121.54 210.895C122.677 211.702 123.575 212.71 124.235 213.92C124.895 215.093 125.225 216.578 125.225 218.375C125.225 220.282 124.73 222.023 123.74 223.6C122.75 225.14 121.338 226.368 119.505 227.285C117.672 228.202 115.49 228.66 112.96 228.66ZM142.285 228.66C140.122 228.66 138.087 228.11 136.18 227.01C134.31 225.91 132.788 224.315 131.615 222.225C130.478 220.135 129.91 217.623 129.91 214.69C129.91 211.683 130.478 209.135 131.615 207.045C132.788 204.955 134.31 203.36 136.18 202.26C138.087 201.16 140.122 200.61 142.285 200.61C144.485 200.61 146.52 201.16 148.39 202.26C150.26 203.36 151.763 204.955 152.9 207.045C154.073 209.135 154.66 211.683 154.66 214.69C154.66 217.623 154.073 220.135 152.9 222.225C151.763 224.315 150.26 225.91 148.39 227.01C146.52 228.11 144.485 228.66 142.285 228.66ZM142.285 224.92C144.595 224.92 146.447 223.985 147.84 222.115C149.27 220.208 149.985 217.733 149.985 214.69C149.985 211.61 149.27 209.117 147.84 207.21C146.447 205.303 144.595 204.35 142.285 204.35C140.012 204.35 138.16 205.303 136.73 207.21C135.3 209.117 134.585 211.61 134.585 214.69C134.585 217.733 135.3 220.208 136.73 222.115C138.16 223.985 140.012 224.92 142.285 224.92ZM169.509 228.66C166.686 228.66 164.614 227.78 163.294 226.02C161.974 224.223 161.314 221.62 161.314 218.21V201.27H165.879V217.605C165.879 220.098 166.264 221.913 167.034 223.05C167.841 224.187 169.124 224.755 170.884 224.755C172.278 224.755 173.506 224.407 174.569 223.71C175.669 222.977 176.843 221.822 178.089 220.245V201.27H182.599V228H178.859L178.474 223.82H178.309C177.063 225.287 175.743 226.46 174.349 227.34C172.956 228.22 171.343 228.66 169.509 228.66ZM191.616 228V201.27H195.356L195.741 206.11H195.906C196.823 204.423 197.941 203.085 199.261 202.095C200.581 201.105 201.993 200.61 203.496 200.61C204.56 200.61 205.513 200.793 206.356 201.16L205.476 205.12C205.036 204.973 204.633 204.863 204.266 204.79C203.9 204.717 203.441 204.68 202.891 204.68C201.755 204.68 200.563 205.138 199.316 206.055C198.106 206.972 197.043 208.567 196.126 210.84V228H191.616ZM220.707 228.66C218.36 228.66 216.233 228.11 214.327 227.01C212.42 225.91 210.917 224.315 209.817 222.225C208.717 220.135 208.167 217.623 208.167 214.69C208.167 211.683 208.753 209.135 209.927 207.045C211.137 204.955 212.713 203.36 214.657 202.26C216.637 201.16 218.763 200.61 221.037 200.61C222.797 200.61 224.3 200.922 225.547 201.545C226.83 202.168 227.93 202.902 228.847 203.745L226.537 206.715C225.767 206.018 224.942 205.45 224.062 205.01C223.218 204.57 222.265 204.35 221.202 204.35C219.588 204.35 218.14 204.79 216.857 205.67C215.61 206.513 214.62 207.723 213.887 209.3C213.19 210.84 212.842 212.637 212.842 214.69C212.842 217.733 213.593 220.208 215.097 222.115C216.637 223.985 218.635 224.92 221.092 224.92C222.338 224.92 223.493 224.663 224.557 224.15C225.62 223.6 226.555 222.958 227.362 222.225L229.342 225.25C228.132 226.313 226.793 227.157 225.327 227.78C223.86 228.367 222.32 228.66 220.707 228.66ZM244.883 228.66C242.5 228.66 240.336 228.11 238.393 227.01C236.45 225.873 234.91 224.26 233.773 222.17C232.636 220.08 232.068 217.587 232.068 214.69C232.068 211.757 232.636 209.245 233.773 207.155C234.946 205.065 236.45 203.452 238.283 202.315C240.116 201.178 242.041 200.61 244.058 200.61C247.468 200.61 250.09 201.747 251.923 204.02C253.793 206.293 254.728 209.337 254.728 213.15C254.728 213.627 254.71 214.103 254.673 214.58C254.673 215.02 254.636 215.405 254.563 215.735H236.523C236.706 218.558 237.586 220.813 239.163 222.5C240.776 224.187 242.866 225.03 245.433 225.03C246.716 225.03 247.89 224.847 248.953 224.48C250.053 224.077 251.098 223.563 252.088 222.94L253.683 225.91C252.546 226.643 251.245 227.285 249.778 227.835C248.348 228.385 246.716 228.66 244.883 228.66ZM236.468 212.49H250.768C250.768 209.777 250.181 207.723 249.008 206.33C247.871 204.9 246.258 204.185 244.168 204.185C242.298 204.185 240.611 204.918 239.108 206.385C237.641 207.815 236.761 209.85 236.468 212.49ZM282.794 228.66C280.264 228.66 277.917 228.183 275.754 227.23C273.591 226.24 271.721 224.938 270.144 223.325L272.894 220.135C274.177 221.492 275.681 222.592 277.404 223.435C279.164 224.242 280.979 224.645 282.849 224.645C285.232 224.645 287.084 224.113 288.404 223.05C289.724 221.95 290.384 220.52 290.384 218.76C290.384 217.513 290.109 216.523 289.559 215.79C289.046 215.057 288.331 214.433 287.414 213.92C286.534 213.407 285.526 212.893 284.389 212.38L279.219 210.125C278.082 209.648 276.946 209.025 275.809 208.255C274.709 207.485 273.774 206.495 273.004 205.285C272.271 204.075 271.904 202.59 271.904 200.83C271.904 198.997 272.381 197.365 273.334 195.935C274.324 194.468 275.681 193.332 277.404 192.525C279.127 191.682 281.071 191.26 283.234 191.26C285.397 191.26 287.396 191.682 289.229 192.525C291.062 193.332 292.621 194.395 293.904 195.715L291.429 198.685C290.329 197.622 289.101 196.797 287.744 196.21C286.424 195.587 284.921 195.275 283.234 195.275C281.217 195.275 279.586 195.752 278.339 196.705C277.129 197.658 276.524 198.942 276.524 200.555C276.524 201.692 276.817 202.645 277.404 203.415C278.027 204.148 278.797 204.753 279.714 205.23C280.631 205.707 281.566 206.147 282.519 206.55L287.634 208.75C289.027 209.337 290.274 210.052 291.374 210.895C292.511 211.702 293.409 212.71 294.069 213.92C294.729 215.093 295.059 216.578 295.059 218.375C295.059 220.282 294.564 222.023 293.574 223.6C292.584 225.14 291.172 226.368 289.339 227.285C287.506 228.202 285.324 228.66 282.794 228.66ZM307.884 228.66C305.647 228.66 303.777 228 302.274 226.68C300.807 225.323 300.074 223.453 300.074 221.07C300.074 218.137 301.376 215.9 303.979 214.36C306.619 212.783 310.781 211.683 316.464 211.06C316.464 209.923 316.299 208.842 315.969 207.815C315.676 206.788 315.126 205.963 314.319 205.34C313.549 204.68 312.431 204.35 310.964 204.35C309.424 204.35 307.976 204.643 306.619 205.23C305.262 205.817 304.052 206.477 302.989 207.21L301.229 204.075C302.476 203.268 303.997 202.498 305.794 201.765C307.627 200.995 309.607 200.61 311.734 200.61C314.997 200.61 317.362 201.618 318.829 203.635C320.296 205.615 321.029 208.273 321.029 211.61V228H317.289L316.904 224.81H316.739C315.492 225.837 314.117 226.735 312.614 227.505C311.147 228.275 309.571 228.66 307.884 228.66ZM309.204 225.03C310.487 225.03 311.697 224.718 312.834 224.095C313.971 223.472 315.181 222.592 316.464 221.455V214.03C312.027 214.58 308.911 215.405 307.114 216.505C305.354 217.605 304.474 219.017 304.474 220.74C304.474 222.243 304.932 223.343 305.849 224.04C306.766 224.7 307.884 225.03 309.204 225.03ZM329.439 228V201.27H333.179L333.564 205.12H333.729C335.012 203.837 336.369 202.773 337.799 201.93C339.229 201.05 340.86 200.61 342.694 200.61C345.517 200.61 347.57 201.508 348.854 203.305C350.174 205.065 350.834 207.65 350.834 211.06V228H346.324V211.665C346.324 209.172 345.92 207.357 345.114 206.22C344.307 205.083 343.024 204.515 341.264 204.515C339.907 204.515 338.679 204.863 337.579 205.56C336.515 206.257 335.305 207.283 333.949 208.64V228H329.439ZM366.502 228.66C364.595 228.66 362.78 228.312 361.057 227.615C359.334 226.882 357.83 226.002 356.547 224.975L358.802 221.95C359.975 222.867 361.185 223.637 362.432 224.26C363.679 224.847 365.09 225.14 366.667 225.14C368.427 225.14 369.747 224.737 370.627 223.93C371.507 223.087 371.947 222.097 371.947 220.96C371.947 220.043 371.635 219.273 371.012 218.65C370.425 218.027 369.655 217.513 368.702 217.11C367.785 216.67 366.832 216.267 365.842 215.9C364.595 215.423 363.367 214.892 362.157 214.305C360.947 213.682 359.957 212.893 359.187 211.94C358.417 210.95 358.032 209.703 358.032 208.2C358.032 206.037 358.839 204.24 360.452 202.81C362.102 201.343 364.375 200.61 367.272 200.61C368.922 200.61 370.462 200.903 371.892 201.49C373.322 202.077 374.55 202.792 375.577 203.635L373.377 206.495C372.46 205.798 371.507 205.23 370.517 204.79C369.527 204.35 368.445 204.13 367.272 204.13C365.585 204.13 364.339 204.515 363.532 205.285C362.762 206.055 362.377 206.953 362.377 207.98C362.377 208.823 362.652 209.52 363.202 210.07C363.752 210.583 364.467 211.042 365.347 211.445C366.227 211.812 367.162 212.197 368.152 212.6C369.435 213.077 370.7 213.627 371.947 214.25C373.194 214.837 374.22 215.643 375.027 216.67C375.87 217.66 376.292 218.998 376.292 220.685C376.292 222.115 375.907 223.435 375.137 224.645C374.404 225.855 373.304 226.827 371.837 227.56C370.407 228.293 368.629 228.66 366.502 228.66ZM394.01 228V191.92H404.295C407.008 191.92 409.373 192.25 411.39 192.91C413.406 193.57 414.983 194.688 416.12 196.265C417.256 197.805 417.825 199.895 417.825 202.535C417.825 206.312 416.596 209.117 414.14 210.95C411.683 212.783 408.475 213.7 404.515 213.7H398.575V228H394.01ZM398.575 209.96H403.965C407.118 209.96 409.446 209.373 410.95 208.2C412.49 206.99 413.26 205.102 413.26 202.535C413.26 199.932 412.453 198.135 410.84 197.145C409.263 196.118 406.898 195.605 403.745 195.605H398.575V209.96ZM424.722 228V201.27H428.462L428.847 206.11H429.012C429.929 204.423 431.047 203.085 432.367 202.095C433.687 201.105 435.099 200.61 436.602 200.61C437.665 200.61 438.619 200.793 439.462 201.16L438.582 205.12C438.142 204.973 437.739 204.863 437.372 204.79C437.005 204.717 436.547 204.68 435.997 204.68C434.86 204.68 433.669 205.138 432.422 206.055C431.212 206.972 430.149 208.567 429.232 210.84V228H424.722ZM453.647 228.66C451.484 228.66 449.449 228.11 447.542 227.01C445.672 225.91 444.151 224.315 442.977 222.225C441.841 220.135 441.272 217.623 441.272 214.69C441.272 211.683 441.841 209.135 442.977 207.045C444.151 204.955 445.672 203.36 447.542 202.26C449.449 201.16 451.484 200.61 453.647 200.61C455.847 200.61 457.882 201.16 459.752 202.26C461.622 203.36 463.126 204.955 464.262 207.045C465.436 209.135 466.022 211.683 466.022 214.69C466.022 217.623 465.436 220.135 464.262 222.225C463.126 224.315 461.622 225.91 459.752 227.01C457.882 228.11 455.847 228.66 453.647 228.66ZM453.647 224.92C455.957 224.92 457.809 223.985 459.202 222.115C460.632 220.208 461.347 217.733 461.347 214.69C461.347 211.61 460.632 209.117 459.202 207.21C457.809 205.303 455.957 204.35 453.647 204.35C451.374 204.35 449.522 205.303 448.092 207.21C446.662 209.117 445.947 211.61 445.947 214.69C445.947 217.733 446.662 220.208 448.092 222.115C449.522 223.985 451.374 224.92 453.647 224.92ZM484.843 228V204.955H481.213V201.545L484.843 201.27V197.035C484.843 194.322 485.466 192.177 486.713 190.6C487.996 188.987 489.976 188.18 492.653 188.18C493.496 188.18 494.303 188.272 495.073 188.455C495.843 188.602 496.521 188.803 497.108 189.06L496.118 192.525C495.128 192.085 494.119 191.865 493.093 191.865C490.599 191.865 489.353 193.588 489.353 197.035V201.27H495.018V204.955H489.353V228H484.843ZM509.99 228.66C507.827 228.66 505.792 228.11 503.885 227.01C502.015 225.91 500.493 224.315 499.32 222.225C498.183 220.135 497.615 217.623 497.615 214.69C497.615 211.683 498.183 209.135 499.32 207.045C500.493 204.955 502.015 203.36 503.885 202.26C505.792 201.16 507.827 200.61 509.99 200.61C512.19 200.61 514.225 201.16 516.095 202.26C517.965 203.36 519.468 204.955 520.605 207.045C521.778 209.135 522.365 211.683 522.365 214.69C522.365 217.623 521.778 220.135 520.605 222.225C519.468 224.315 517.965 225.91 516.095 227.01C514.225 228.11 512.19 228.66 509.99 228.66ZM509.99 224.92C512.3 224.92 514.152 223.985 515.545 222.115C516.975 220.208 517.69 217.733 517.69 214.69C517.69 211.61 516.975 209.117 515.545 207.21C514.152 205.303 512.3 204.35 509.99 204.35C507.717 204.35 505.865 205.303 504.435 207.21C503.005 209.117 502.29 211.61 502.29 214.69C502.29 217.733 503.005 220.208 504.435 222.115C505.865 223.985 507.717 224.92 509.99 224.92ZM529.405 228V201.27H533.145L533.53 205.12H533.695C534.978 203.837 536.335 202.773 537.765 201.93C539.195 201.05 540.826 200.61 542.66 200.61C545.483 200.61 547.536 201.508 548.82 203.305C550.14 205.065 550.8 207.65 550.8 211.06V228H546.29V211.665C546.29 209.172 545.886 207.357 545.08 206.22C544.273 205.083 542.99 204.515 541.23 204.515C539.873 204.515 538.645 204.863 537.545 205.56C536.481 206.257 535.271 207.283 533.915 208.64V228H529.405ZM567.898 228.66C565.038 228.66 563.039 227.835 561.903 226.185C560.803 224.535 560.253 222.39 560.253 219.75V204.955H556.293V201.545L560.473 201.27L561.023 193.79H564.818V201.27H572.023V204.955H564.818V219.805C564.818 221.455 565.111 222.738 565.698 223.655C566.321 224.535 567.403 224.975 568.943 224.975C569.419 224.975 569.933 224.902 570.483 224.755C571.033 224.572 571.528 224.407 571.968 224.26L572.848 227.67C572.114 227.927 571.308 228.147 570.428 228.33C569.584 228.55 568.741 228.66 567.898 228.66Z" fill="black"/>
</svg>
