<svg width="496" height="439" viewBox="0 0 496 439" fill="none" xmlns="http://www.w3.org/2000/svg">
<g clip-path="url(#clip0_1108_2874)">
<rect y="0.956787" width="496" height="438" rx="5" fill="#FAFAFA"/>
<rect width="418" height="600" transform="translate(32 32.9568)" fill="#FAFAFA"/>
<path d="M36.732 74.168C35.9667 74.168 35.2807 73.9813 34.674 73.608C34.0767 73.2253 33.6007 72.6793 33.246 71.97C32.9007 71.2607 32.728 70.4067 32.728 69.408C32.728 68.4187 32.9053 67.5693 33.26 66.86C33.6147 66.1507 34.1 65.6047 34.716 65.222C35.332 64.8393 36.0273 64.648 36.802 64.648C37.362 64.648 37.8567 64.7647 38.286 64.998C38.7153 65.222 39.0607 65.4833 39.322 65.782L38.692 66.538C38.4493 66.2767 38.174 66.0667 37.866 65.908C37.558 65.7493 37.208 65.67 36.816 65.67C36.2373 65.67 35.7287 65.824 35.29 66.132C34.8607 66.4307 34.5247 66.8553 34.282 67.406C34.0487 67.9567 33.932 68.6147 33.932 69.38C33.932 70.1453 34.0487 70.8127 34.282 71.382C34.5153 71.942 34.842 72.376 35.262 72.684C35.6913 72.992 36.1953 73.146 36.774 73.146C37.2127 73.146 37.6047 73.0527 37.95 72.866C38.2953 72.6793 38.6127 72.4273 38.902 72.11L39.546 72.838C39.182 73.258 38.7713 73.5847 38.314 73.818C37.8567 74.0513 37.3293 74.168 36.732 74.168ZM42.364 74.168C41.9347 74.168 41.622 74.0373 41.426 73.776C41.2394 73.5053 41.146 73.1227 41.146 72.628V64.032H42.294V72.712C42.294 72.8893 42.3267 73.02 42.392 73.104C42.4574 73.1787 42.532 73.216 42.616 73.216C42.6534 73.216 42.686 73.216 42.714 73.216C42.7514 73.2067 42.8027 73.1973 42.868 73.188L43.022 74.056C42.9474 74.0933 42.8587 74.1213 42.756 74.14C42.6534 74.1587 42.5227 74.168 42.364 74.168ZM47.3604 74.168C46.8097 74.168 46.2917 74.028 45.8064 73.748C45.3304 73.468 44.9431 73.062 44.6444 72.53C44.3551 71.998 44.2104 71.3587 44.2104 70.612C44.2104 69.8467 44.3551 69.198 44.6444 68.666C44.9431 68.134 45.3304 67.728 45.8064 67.448C46.2917 67.168 46.8097 67.028 47.3604 67.028C47.9204 67.028 48.4384 67.168 48.9144 67.448C49.3904 67.728 49.7731 68.134 50.0624 68.666C50.3611 69.198 50.5104 69.8467 50.5104 70.612C50.5104 71.3587 50.3611 71.998 50.0624 72.53C49.7731 73.062 49.3904 73.468 48.9144 73.748C48.4384 74.028 47.9204 74.168 47.3604 74.168ZM47.3604 73.216C47.9484 73.216 48.4197 72.978 48.7744 72.502C49.1384 72.0167 49.3204 71.3867 49.3204 70.612C49.3204 69.828 49.1384 69.1933 48.7744 68.708C48.4197 68.2227 47.9484 67.98 47.3604 67.98C46.7817 67.98 46.3104 68.2227 45.9464 68.708C45.5824 69.1933 45.4004 69.828 45.4004 70.612C45.4004 71.3867 45.5824 72.0167 45.9464 72.502C46.3104 72.978 46.7817 73.216 47.3604 73.216ZM54.0803 74.168C53.595 74.168 53.133 74.0793 52.6943 73.902C52.2556 73.7153 51.873 73.4913 51.5463 73.23L52.1203 72.46C52.419 72.6933 52.727 72.8893 53.0443 73.048C53.3616 73.1973 53.721 73.272 54.1223 73.272C54.5703 73.272 54.9063 73.1693 55.1303 72.964C55.3543 72.7493 55.4663 72.4973 55.4663 72.208C55.4663 71.9747 55.387 71.7787 55.2283 71.62C55.079 71.4613 54.883 71.3307 54.6403 71.228C54.407 71.116 54.1643 71.0133 53.9123 70.92C53.595 70.7987 53.2823 70.6633 52.9743 70.514C52.6663 70.3553 52.4143 70.1547 52.2183 69.912C52.0223 69.66 51.9243 69.3427 51.9243 68.96C51.9243 68.4093 52.1296 67.952 52.5403 67.588C52.9603 67.2147 53.539 67.028 54.2763 67.028C54.6963 67.028 55.0883 67.1027 55.4523 67.252C55.8163 67.4013 56.129 67.5833 56.3903 67.798L55.8303 68.526C55.597 68.3487 55.3543 68.204 55.1023 68.092C54.8503 67.98 54.575 67.924 54.2763 67.924C53.847 67.924 53.5296 68.022 53.3243 68.218C53.1283 68.414 53.0303 68.6427 53.0303 68.904C53.0303 69.1187 53.1003 69.296 53.2403 69.436C53.3803 69.5667 53.5623 69.6833 53.7863 69.786C54.0103 69.8793 54.2483 69.9773 54.5003 70.08C54.827 70.2013 55.149 70.3413 55.4663 70.5C55.7836 70.6493 56.045 70.8547 56.2503 71.116C56.465 71.368 56.5723 71.7087 56.5723 72.138C56.5723 72.502 56.4743 72.838 56.2783 73.146C56.0916 73.454 55.8116 73.7013 55.4383 73.888C55.0743 74.0747 54.6216 74.168 54.0803 74.168ZM60.9255 74.168C60.3189 74.168 59.7682 74.028 59.2735 73.748C58.7789 73.4587 58.3869 73.048 58.0975 72.516C57.8082 71.984 57.6635 71.3493 57.6635 70.612C57.6635 69.8653 57.8082 69.226 58.0975 68.694C58.3962 68.162 58.7789 67.7513 59.2455 67.462C59.7122 67.1727 60.2022 67.028 60.7155 67.028C61.5835 67.028 62.2509 67.3173 62.7175 67.896C63.1935 68.4747 63.4315 69.2493 63.4315 70.22C63.4315 70.3413 63.4269 70.4627 63.4175 70.584C63.4175 70.696 63.4082 70.794 63.3895 70.878H58.7975C58.8442 71.5967 59.0682 72.1707 59.4695 72.6C59.8802 73.0293 60.4122 73.244 61.0655 73.244C61.3922 73.244 61.6909 73.1973 61.9615 73.104C62.2415 73.0013 62.5075 72.8707 62.7595 72.712L63.1655 73.468C62.8762 73.6547 62.5449 73.818 62.1715 73.958C61.8075 74.098 61.3922 74.168 60.9255 74.168ZM58.7835 70.052H62.4235C62.4235 69.3613 62.2742 68.8387 61.9755 68.484C61.6862 68.12 61.2755 67.938 60.7435 67.938C60.2675 67.938 59.8382 68.1247 59.4555 68.498C59.0822 68.862 58.8582 69.38 58.7835 70.052ZM67.4368 74.168C66.5875 74.168 65.9062 73.86 65.3928 73.244C64.8795 72.6187 64.6228 71.7413 64.6228 70.612C64.6228 69.8747 64.7582 69.24 65.0288 68.708C65.3088 68.1667 65.6728 67.7513 66.1208 67.462C66.5782 67.1727 67.0635 67.028 67.5768 67.028C67.9688 67.028 68.3095 67.098 68.5988 67.238C68.8882 67.378 69.1822 67.5693 69.4808 67.812L69.4248 66.65V64.032H70.5868V74H69.6348L69.5368 73.202H69.4948C69.2335 73.4633 68.9255 73.692 68.5708 73.888C68.2162 74.0747 67.8382 74.168 67.4368 74.168ZM67.6888 73.202C68.2862 73.202 68.8648 72.8893 69.4248 72.264V68.708C69.1355 68.4467 68.8555 68.2647 68.5848 68.162C68.3235 68.05 68.0528 67.994 67.7728 67.994C67.4088 67.994 67.0775 68.106 66.7788 68.33C66.4895 68.5447 66.2562 68.848 66.0788 69.24C65.9015 69.6227 65.8128 70.0753 65.8128 70.598C65.8128 71.41 65.9762 72.0493 66.3028 72.516C66.6295 72.9733 67.0915 73.202 67.6888 73.202Z" fill="black"/>
<path d="M33.26 180V170.816H38.552V171.796H34.422V174.68H37.908V175.674H34.422V179.006H38.692V180H33.26ZM39.1413 180L41.3673 176.444L39.3093 173.196H40.5553L41.4653 174.694C41.568 174.871 41.6753 175.058 41.7873 175.254C41.8993 175.45 42.016 175.641 42.1373 175.828H42.1933C42.296 175.641 42.3986 175.45 42.5013 175.254C42.604 175.058 42.7066 174.871 42.8093 174.694L43.6353 173.196H44.8393L42.7813 176.57L44.9933 180H43.7473L42.7533 178.418C42.632 178.213 42.5106 178.007 42.3893 177.802C42.268 177.597 42.142 177.396 42.0113 177.2H41.9553C41.834 177.396 41.7173 177.597 41.6053 177.802C41.4933 177.998 41.3813 178.203 41.2693 178.418L40.3453 180H39.1413ZM46.3414 182.87V173.196H47.2934L47.3914 173.98H47.4334C47.7414 173.719 48.0774 173.495 48.4414 173.308C48.8147 173.121 49.202 173.028 49.6034 173.028C50.4807 173.028 51.148 173.345 51.6054 173.98C52.0627 174.605 52.2914 175.445 52.2914 176.5C52.2914 177.265 52.1514 177.923 51.8714 178.474C51.6007 179.025 51.2414 179.445 50.7934 179.734C50.3547 180.023 49.874 180.168 49.3514 180.168C49.034 180.168 48.7167 180.098 48.3994 179.958C48.0914 179.818 47.7787 179.627 47.4614 179.384L47.4894 180.574V182.87H46.3414ZM49.1554 179.202C49.7154 179.202 50.1774 178.964 50.5414 178.488C50.9147 178.003 51.1014 177.34 51.1014 176.5C51.1014 175.753 50.9614 175.151 50.6814 174.694C50.4107 174.227 49.9534 173.994 49.3094 173.994C49.02 173.994 48.726 174.073 48.4274 174.232C48.138 174.391 47.8254 174.619 47.4894 174.918V178.488C47.7974 178.749 48.096 178.936 48.3854 179.048C48.6747 179.151 48.9314 179.202 49.1554 179.202ZM55.4836 180.168C54.9142 180.168 54.4382 180 54.0556 179.664C53.6822 179.319 53.4956 178.843 53.4956 178.236C53.4956 177.489 53.8269 176.92 54.4896 176.528C55.1616 176.127 56.2209 175.847 57.6676 175.688C57.6676 175.399 57.6256 175.123 57.5416 174.862C57.4669 174.601 57.3269 174.391 57.1216 174.232C56.9256 174.064 56.6409 173.98 56.2676 173.98C55.8756 173.98 55.5069 174.055 55.1616 174.204C54.8162 174.353 54.5082 174.521 54.2376 174.708L53.7896 173.91C54.1069 173.705 54.4942 173.509 54.9516 173.322C55.4182 173.126 55.9222 173.028 56.4636 173.028C57.2942 173.028 57.8962 173.285 58.2696 173.798C58.6429 174.302 58.8296 174.979 58.8296 175.828V180H57.8776L57.7796 179.188H57.7376C57.4202 179.449 57.0702 179.678 56.6876 179.874C56.3142 180.07 55.9129 180.168 55.4836 180.168ZM55.8196 179.244C56.1462 179.244 56.4542 179.165 56.7436 179.006C57.0329 178.847 57.3409 178.623 57.6676 178.334V176.444C56.5382 176.584 55.7449 176.794 55.2876 177.074C54.8396 177.354 54.6156 177.713 54.6156 178.152C54.6156 178.535 54.7322 178.815 54.9656 178.992C55.1989 179.16 55.4836 179.244 55.8196 179.244ZM60.9703 180V173.196H61.9223L62.0203 174.176H62.0623C62.3889 173.849 62.7343 173.579 63.0983 173.364C63.4623 173.14 63.8776 173.028 64.3443 173.028C65.0629 173.028 65.5856 173.257 65.9123 173.714C66.2483 174.162 66.4163 174.82 66.4163 175.688V180H65.2683V175.842C65.2683 175.207 65.1656 174.745 64.9603 174.456C64.7549 174.167 64.4283 174.022 63.9803 174.022C63.6349 174.022 63.3223 174.111 63.0423 174.288C62.7716 174.465 62.4636 174.727 62.1183 175.072V180H60.9703ZM70.9505 180.168C70.1012 180.168 69.4198 179.86 68.9065 179.244C68.3932 178.619 68.1365 177.741 68.1365 176.612C68.1365 175.875 68.2718 175.24 68.5425 174.708C68.8225 174.167 69.1865 173.751 69.6345 173.462C70.0918 173.173 70.5772 173.028 71.0905 173.028C71.4825 173.028 71.8232 173.098 72.1125 173.238C72.4018 173.378 72.6958 173.569 72.9945 173.812L72.9385 172.65V170.032H74.1005V180H73.1485L73.0505 179.202H73.0085C72.7472 179.463 72.4392 179.692 72.0845 179.888C71.7298 180.075 71.3518 180.168 70.9505 180.168ZM71.2025 179.202C71.7998 179.202 72.3785 178.889 72.9385 178.264V174.708C72.6492 174.447 72.3692 174.265 72.0985 174.162C71.8372 174.05 71.5665 173.994 71.2865 173.994C70.9225 173.994 70.5912 174.106 70.2925 174.33C70.0032 174.545 69.7698 174.848 69.5925 175.24C69.4152 175.623 69.3265 176.075 69.3265 176.598C69.3265 177.41 69.4898 178.049 69.8165 178.516C70.1432 178.973 70.6052 179.202 71.2025 179.202ZM79.1501 180.168C78.5435 180.168 77.9928 180.028 77.4981 179.748C77.0035 179.459 76.6115 179.048 76.3221 178.516C76.0328 177.984 75.8881 177.349 75.8881 176.612C75.8881 175.865 76.0328 175.226 76.3221 174.694C76.6208 174.162 77.0035 173.751 77.4701 173.462C77.9368 173.173 78.4268 173.028 78.9401 173.028C79.8081 173.028 80.4755 173.317 80.9421 173.896C81.4181 174.475 81.6561 175.249 81.6561 176.22C81.6561 176.341 81.6515 176.463 81.6421 176.584C81.6421 176.696 81.6328 176.794 81.6141 176.878H77.0221C77.0688 177.597 77.2928 178.171 77.6941 178.6C78.1048 179.029 78.6368 179.244 79.2901 179.244C79.6168 179.244 79.9155 179.197 80.1861 179.104C80.4661 179.001 80.7321 178.871 80.9841 178.712L81.3901 179.468C81.1008 179.655 80.7695 179.818 80.3961 179.958C80.0321 180.098 79.6168 180.168 79.1501 180.168ZM77.0081 176.052H80.6481C80.6481 175.361 80.4988 174.839 80.2001 174.484C79.9108 174.12 79.5001 173.938 78.9681 173.938C78.4921 173.938 78.0628 174.125 77.6801 174.498C77.3068 174.862 77.0828 175.38 77.0081 176.052ZM85.6615 180.168C84.8121 180.168 84.1308 179.86 83.6175 179.244C83.1041 178.619 82.8475 177.741 82.8475 176.612C82.8475 175.875 82.9828 175.24 83.2535 174.708C83.5335 174.167 83.8975 173.751 84.3455 173.462C84.8028 173.173 85.2881 173.028 85.8015 173.028C86.1935 173.028 86.5341 173.098 86.8235 173.238C87.1128 173.378 87.4068 173.569 87.7055 173.812L87.6495 172.65V170.032H88.8115V180H87.8595L87.7615 179.202H87.7195C87.4581 179.463 87.1501 179.692 86.7955 179.888C86.4408 180.075 86.0628 180.168 85.6615 180.168ZM85.9135 179.202C86.5108 179.202 87.0895 178.889 87.6495 178.264V174.708C87.3601 174.447 87.0801 174.265 86.8095 174.162C86.5481 174.05 86.2775 173.994 85.9975 173.994C85.6335 173.994 85.3021 174.106 85.0035 174.33C84.7141 174.545 84.4808 174.848 84.3035 175.24C84.1261 175.623 84.0375 176.075 84.0375 176.598C84.0375 177.41 84.2008 178.049 84.5275 178.516C84.8541 178.973 85.3161 179.202 85.9135 179.202Z" fill="black"/>
<g filter="url(#filter0_i_1108_2874)">
<path d="M151 64C151 61.7909 152.791 60 155 60H301.63V96.99H155C152.791 96.99 151 95.1991 151 92.99V64Z" fill="white"/>
<path d="M167.162 82V72.844H170.046C170.727 72.844 171.334 72.9327 171.866 73.11C172.398 73.2873 172.818 73.5813 173.126 73.992C173.434 74.4027 173.588 74.9627 173.588 75.672C173.588 76.344 173.434 76.8993 173.126 77.338C172.818 77.7767 172.403 78.1033 171.88 78.318C171.357 78.5327 170.765 78.64 170.102 78.64H168.786V82H167.162ZM168.786 77.338H169.976C171.32 77.338 171.992 76.7827 171.992 75.672C171.992 75.0933 171.815 74.6967 171.46 74.482C171.115 74.258 170.601 74.146 169.92 74.146H168.786V77.338ZM176.738 82.168C176.169 82.168 175.763 81.9953 175.52 81.65C175.287 81.3047 175.17 80.8333 175.17 80.236V72.116H176.78V80.32C176.78 80.516 176.818 80.656 176.892 80.74C176.967 80.8147 177.046 80.852 177.13 80.852C177.168 80.852 177.2 80.852 177.228 80.852C177.266 80.8427 177.317 80.8333 177.382 80.824L177.592 82.028C177.499 82.0653 177.378 82.098 177.228 82.126C177.088 82.154 176.925 82.168 176.738 82.168ZM180.637 82.168C180.04 82.168 179.55 81.9813 179.167 81.608C178.794 81.2347 178.607 80.7493 178.607 80.152C178.607 79.4147 178.929 78.8453 179.573 78.444C180.217 78.0333 181.244 77.7533 182.653 77.604C182.644 77.24 182.546 76.9273 182.359 76.666C182.182 76.3953 181.86 76.26 181.393 76.26C181.057 76.26 180.726 76.3253 180.399 76.456C180.082 76.5867 179.769 76.7453 179.461 76.932L178.873 75.854C179.256 75.6113 179.685 75.4013 180.161 75.224C180.647 75.0467 181.16 74.958 181.701 74.958C182.56 74.958 183.199 75.2147 183.619 75.728C184.049 76.232 184.263 76.9647 184.263 77.926V82H182.933L182.821 81.244H182.765C182.457 81.5053 182.126 81.7247 181.771 81.902C181.426 82.0793 181.048 82.168 180.637 82.168ZM181.155 80.908C181.435 80.908 181.687 80.8427 181.911 80.712C182.145 80.572 182.392 80.3853 182.653 80.152V78.612C181.72 78.7333 181.071 78.9153 180.707 79.158C180.343 79.3913 180.161 79.6807 180.161 80.026C180.161 80.334 180.255 80.558 180.441 80.698C180.628 80.838 180.866 80.908 181.155 80.908ZM189.06 82.168C188.435 82.168 187.87 82.028 187.366 81.748C186.871 81.4587 186.475 81.048 186.176 80.516C185.887 79.9747 185.742 79.326 185.742 78.57C185.742 77.8047 185.901 77.156 186.218 76.624C186.535 76.0827 186.955 75.672 187.478 75.392C188.01 75.1027 188.579 74.958 189.186 74.958C189.625 74.958 190.007 75.0327 190.334 75.182C190.661 75.3313 190.95 75.5133 191.202 75.728L190.418 76.778C190.241 76.6193 190.059 76.498 189.872 76.414C189.685 76.3207 189.485 76.274 189.27 76.274C188.719 76.274 188.267 76.484 187.912 76.904C187.567 77.324 187.394 77.8793 187.394 78.57C187.394 79.2513 187.562 79.802 187.898 80.222C188.243 80.642 188.687 80.852 189.228 80.852C189.499 80.852 189.751 80.796 189.984 80.684C190.227 80.5627 190.446 80.4227 190.642 80.264L191.3 81.328C190.983 81.608 190.628 81.818 190.236 81.958C189.844 82.098 189.452 82.168 189.06 82.168ZM195.255 82.168C194.62 82.168 194.046 82.028 193.533 81.748C193.02 81.4587 192.614 81.048 192.315 80.516C192.016 79.9747 191.867 79.326 191.867 78.57C191.867 77.8233 192.016 77.1793 192.315 76.638C192.623 76.0967 193.02 75.6813 193.505 75.392C193.99 75.1027 194.499 74.958 195.031 74.958C195.656 74.958 196.179 75.098 196.599 75.378C197.019 75.6487 197.336 76.0313 197.551 76.526C197.766 77.0113 197.873 77.576 197.873 78.22C197.873 78.556 197.85 78.8173 197.803 79.004H193.435C193.51 79.6107 193.729 80.082 194.093 80.418C194.457 80.754 194.914 80.922 195.465 80.922C195.764 80.922 196.039 80.88 196.291 80.796C196.552 80.7027 196.809 80.5767 197.061 80.418L197.607 81.426C197.28 81.6407 196.916 81.818 196.515 81.958C196.114 82.098 195.694 82.168 195.255 82.168ZM193.421 77.912H196.473C196.473 77.38 196.356 76.9647 196.123 76.666C195.89 76.358 195.54 76.204 195.073 76.204C194.672 76.204 194.312 76.3533 193.995 76.652C193.687 76.9413 193.496 77.3613 193.421 77.912ZM199.411 82V72.116H201.021V74.664L200.965 75.994C201.254 75.7233 201.576 75.4853 201.931 75.28C202.285 75.0653 202.696 74.958 203.163 74.958C203.9 74.958 204.437 75.196 204.773 75.672C205.109 76.148 205.277 76.82 205.277 77.688V82H203.667V77.898C203.667 77.3287 203.583 76.9273 203.415 76.694C203.247 76.4607 202.971 76.344 202.589 76.344C202.29 76.344 202.024 76.4187 201.791 76.568C201.567 76.708 201.31 76.918 201.021 77.198V82H199.411ZM210.031 82.168C209.462 82.168 208.93 82.028 208.435 81.748C207.941 81.4587 207.539 81.048 207.231 80.516C206.923 79.9747 206.769 79.326 206.769 78.57C206.769 77.8047 206.923 77.156 207.231 76.624C207.539 76.0827 207.941 75.672 208.435 75.392C208.93 75.1027 209.462 74.958 210.031 74.958C210.61 74.958 211.147 75.1027 211.641 75.392C212.136 75.672 212.537 76.0827 212.845 76.624C213.153 77.156 213.307 77.8047 213.307 78.57C213.307 79.326 213.153 79.9747 212.845 80.516C212.537 81.048 212.136 81.4587 211.641 81.748C211.147 82.028 210.61 82.168 210.031 82.168ZM210.031 80.852C210.535 80.852 210.932 80.642 211.221 80.222C211.511 79.802 211.655 79.2513 211.655 78.57C211.655 77.8793 211.511 77.324 211.221 76.904C210.932 76.484 210.535 76.274 210.031 76.274C209.527 76.274 209.131 76.484 208.841 76.904C208.561 77.324 208.421 77.8793 208.421 78.57C208.421 79.2513 208.561 79.802 208.841 80.222C209.131 80.642 209.527 80.852 210.031 80.852ZM216.469 82.168C215.9 82.168 215.494 81.9953 215.251 81.65C215.018 81.3047 214.901 80.8333 214.901 80.236V72.116H216.511V80.32C216.511 80.516 216.548 80.656 216.623 80.74C216.698 80.8147 216.777 80.852 216.861 80.852C216.898 80.852 216.931 80.852 216.959 80.852C216.996 80.8427 217.048 80.8333 217.113 80.824L217.323 82.028C217.23 82.0653 217.108 82.098 216.959 82.126C216.819 82.154 216.656 82.168 216.469 82.168ZM221.11 82.168C220.251 82.168 219.565 81.8507 219.052 81.216C218.538 80.5813 218.282 79.6993 218.282 78.57C218.282 77.8233 218.417 77.1793 218.688 76.638C218.968 76.0967 219.332 75.6813 219.78 75.392C220.228 75.1027 220.699 74.958 221.194 74.958C221.586 74.958 221.917 75.028 222.188 75.168C222.468 75.2987 222.738 75.4807 223 75.714L222.944 74.608V72.116H224.554V82H223.224L223.112 81.258H223.056C222.804 81.51 222.51 81.7247 222.174 81.902C221.838 82.0793 221.483 82.168 221.11 82.168ZM221.502 80.838C222.015 80.838 222.496 80.5813 222.944 80.068V76.862C222.71 76.6473 222.477 76.498 222.244 76.414C222.01 76.33 221.777 76.288 221.544 76.288C221.105 76.288 220.727 76.4887 220.41 76.89C220.102 77.282 219.948 77.8373 219.948 78.556C219.948 79.2933 220.083 79.858 220.354 80.25C220.624 80.642 221.007 80.838 221.502 80.838ZM229.544 82.168C228.909 82.168 228.335 82.028 227.822 81.748C227.309 81.4587 226.903 81.048 226.604 80.516C226.305 79.9747 226.156 79.326 226.156 78.57C226.156 77.8233 226.305 77.1793 226.604 76.638C226.912 76.0967 227.309 75.6813 227.794 75.392C228.279 75.1027 228.788 74.958 229.32 74.958C229.945 74.958 230.468 75.098 230.888 75.378C231.308 75.6487 231.625 76.0313 231.84 76.526C232.055 77.0113 232.162 77.576 232.162 78.22C232.162 78.556 232.139 78.8173 232.092 79.004H227.724C227.799 79.6107 228.018 80.082 228.382 80.418C228.746 80.754 229.203 80.922 229.754 80.922C230.053 80.922 230.328 80.88 230.58 80.796C230.841 80.7027 231.098 80.5767 231.35 80.418L231.896 81.426C231.569 81.6407 231.205 81.818 230.804 81.958C230.403 82.098 229.983 82.168 229.544 82.168ZM227.71 77.912H230.762C230.762 77.38 230.645 76.9647 230.412 76.666C230.179 76.358 229.829 76.204 229.362 76.204C228.961 76.204 228.601 76.3533 228.284 76.652C227.976 76.9413 227.785 77.3613 227.71 77.912ZM233.7 82V75.126H235.03L235.142 76.344H235.198C235.44 75.896 235.734 75.5553 236.08 75.322C236.425 75.0793 236.78 74.958 237.144 74.958C237.47 74.958 237.732 75.0047 237.928 75.098L237.648 76.498C237.526 76.4607 237.414 76.4327 237.312 76.414C237.209 76.3953 237.083 76.386 236.934 76.386C236.663 76.386 236.378 76.4933 236.08 76.708C235.781 76.9133 235.524 77.2773 235.31 77.8V82H233.7Z" fill="#354052"/>
</g>
<g filter="url(#filter1_i_1108_2874)">
<path d="M300.63 60H326.99C329.199 60 330.99 61.7909 330.99 64V92.99C330.99 95.1991 329.199 96.99 326.99 96.99H300.63V60Z" fill="white"/>
<path d="M315.815 83.0881L312.318 77.8419H319.313L315.815 83.0881Z" fill="#354052"/>
</g>
<g filter="url(#filter2_i_1108_2874)">
<path d="M151 170C151 167.791 152.791 166 155 166H301.63V202.99H155C152.791 202.99 151 201.199 151 198.99V170Z" fill="white"/>
<path d="M167.162 189V179.844H170.046C170.727 179.844 171.334 179.933 171.866 180.11C172.398 180.287 172.818 180.581 173.126 180.992C173.434 181.403 173.588 181.963 173.588 182.672C173.588 183.344 173.434 183.899 173.126 184.338C172.818 184.777 172.403 185.103 171.88 185.318C171.357 185.533 170.765 185.64 170.102 185.64H168.786V189H167.162ZM168.786 184.338H169.976C171.32 184.338 171.992 183.783 171.992 182.672C171.992 182.093 171.815 181.697 171.46 181.482C171.115 181.258 170.601 181.146 169.92 181.146H168.786V184.338ZM176.738 189.168C176.169 189.168 175.763 188.995 175.52 188.65C175.287 188.305 175.17 187.833 175.17 187.236V179.116H176.78V187.32C176.78 187.516 176.818 187.656 176.892 187.74C176.967 187.815 177.046 187.852 177.13 187.852C177.168 187.852 177.2 187.852 177.228 187.852C177.266 187.843 177.317 187.833 177.382 187.824L177.592 189.028C177.499 189.065 177.378 189.098 177.228 189.126C177.088 189.154 176.925 189.168 176.738 189.168ZM180.637 189.168C180.04 189.168 179.55 188.981 179.167 188.608C178.794 188.235 178.607 187.749 178.607 187.152C178.607 186.415 178.929 185.845 179.573 185.444C180.217 185.033 181.244 184.753 182.653 184.604C182.644 184.24 182.546 183.927 182.359 183.666C182.182 183.395 181.86 183.26 181.393 183.26C181.057 183.26 180.726 183.325 180.399 183.456C180.082 183.587 179.769 183.745 179.461 183.932L178.873 182.854C179.256 182.611 179.685 182.401 180.161 182.224C180.647 182.047 181.16 181.958 181.701 181.958C182.56 181.958 183.199 182.215 183.619 182.728C184.049 183.232 184.263 183.965 184.263 184.926V189H182.933L182.821 188.244H182.765C182.457 188.505 182.126 188.725 181.771 188.902C181.426 189.079 181.048 189.168 180.637 189.168ZM181.155 187.908C181.435 187.908 181.687 187.843 181.911 187.712C182.145 187.572 182.392 187.385 182.653 187.152V185.612C181.72 185.733 181.071 185.915 180.707 186.158C180.343 186.391 180.161 186.681 180.161 187.026C180.161 187.334 180.255 187.558 180.441 187.698C180.628 187.838 180.866 187.908 181.155 187.908ZM189.06 189.168C188.435 189.168 187.87 189.028 187.366 188.748C186.871 188.459 186.475 188.048 186.176 187.516C185.887 186.975 185.742 186.326 185.742 185.57C185.742 184.805 185.901 184.156 186.218 183.624C186.535 183.083 186.955 182.672 187.478 182.392C188.01 182.103 188.579 181.958 189.186 181.958C189.625 181.958 190.007 182.033 190.334 182.182C190.661 182.331 190.95 182.513 191.202 182.728L190.418 183.778C190.241 183.619 190.059 183.498 189.872 183.414C189.685 183.321 189.485 183.274 189.27 183.274C188.719 183.274 188.267 183.484 187.912 183.904C187.567 184.324 187.394 184.879 187.394 185.57C187.394 186.251 187.562 186.802 187.898 187.222C188.243 187.642 188.687 187.852 189.228 187.852C189.499 187.852 189.751 187.796 189.984 187.684C190.227 187.563 190.446 187.423 190.642 187.264L191.3 188.328C190.983 188.608 190.628 188.818 190.236 188.958C189.844 189.098 189.452 189.168 189.06 189.168ZM195.255 189.168C194.62 189.168 194.046 189.028 193.533 188.748C193.02 188.459 192.614 188.048 192.315 187.516C192.016 186.975 191.867 186.326 191.867 185.57C191.867 184.823 192.016 184.179 192.315 183.638C192.623 183.097 193.02 182.681 193.505 182.392C193.99 182.103 194.499 181.958 195.031 181.958C195.656 181.958 196.179 182.098 196.599 182.378C197.019 182.649 197.336 183.031 197.551 183.526C197.766 184.011 197.873 184.576 197.873 185.22C197.873 185.556 197.85 185.817 197.803 186.004H193.435C193.51 186.611 193.729 187.082 194.093 187.418C194.457 187.754 194.914 187.922 195.465 187.922C195.764 187.922 196.039 187.88 196.291 187.796C196.552 187.703 196.809 187.577 197.061 187.418L197.607 188.426C197.28 188.641 196.916 188.818 196.515 188.958C196.114 189.098 195.694 189.168 195.255 189.168ZM193.421 184.912H196.473C196.473 184.38 196.356 183.965 196.123 183.666C195.89 183.358 195.54 183.204 195.073 183.204C194.672 183.204 194.312 183.353 193.995 183.652C193.687 183.941 193.496 184.361 193.421 184.912ZM199.411 189V179.116H201.021V181.664L200.965 182.994C201.254 182.723 201.576 182.485 201.931 182.28C202.285 182.065 202.696 181.958 203.163 181.958C203.9 181.958 204.437 182.196 204.773 182.672C205.109 183.148 205.277 183.82 205.277 184.688V189H203.667V184.898C203.667 184.329 203.583 183.927 203.415 183.694C203.247 183.461 202.971 183.344 202.589 183.344C202.29 183.344 202.024 183.419 201.791 183.568C201.567 183.708 201.31 183.918 201.021 184.198V189H199.411ZM210.031 189.168C209.462 189.168 208.93 189.028 208.435 188.748C207.941 188.459 207.539 188.048 207.231 187.516C206.923 186.975 206.769 186.326 206.769 185.57C206.769 184.805 206.923 184.156 207.231 183.624C207.539 183.083 207.941 182.672 208.435 182.392C208.93 182.103 209.462 181.958 210.031 181.958C210.61 181.958 211.147 182.103 211.641 182.392C212.136 182.672 212.537 183.083 212.845 183.624C213.153 184.156 213.307 184.805 213.307 185.57C213.307 186.326 213.153 186.975 212.845 187.516C212.537 188.048 212.136 188.459 211.641 188.748C211.147 189.028 210.61 189.168 210.031 189.168ZM210.031 187.852C210.535 187.852 210.932 187.642 211.221 187.222C211.511 186.802 211.655 186.251 211.655 185.57C211.655 184.879 211.511 184.324 211.221 183.904C210.932 183.484 210.535 183.274 210.031 183.274C209.527 183.274 209.131 183.484 208.841 183.904C208.561 184.324 208.421 184.879 208.421 185.57C208.421 186.251 208.561 186.802 208.841 187.222C209.131 187.642 209.527 187.852 210.031 187.852ZM216.469 189.168C215.9 189.168 215.494 188.995 215.251 188.65C215.018 188.305 214.901 187.833 214.901 187.236V179.116H216.511V187.32C216.511 187.516 216.548 187.656 216.623 187.74C216.698 187.815 216.777 187.852 216.861 187.852C216.898 187.852 216.931 187.852 216.959 187.852C216.996 187.843 217.048 187.833 217.113 187.824L217.323 189.028C217.23 189.065 217.108 189.098 216.959 189.126C216.819 189.154 216.656 189.168 216.469 189.168ZM221.11 189.168C220.251 189.168 219.565 188.851 219.052 188.216C218.538 187.581 218.282 186.699 218.282 185.57C218.282 184.823 218.417 184.179 218.688 183.638C218.968 183.097 219.332 182.681 219.78 182.392C220.228 182.103 220.699 181.958 221.194 181.958C221.586 181.958 221.917 182.028 222.188 182.168C222.468 182.299 222.738 182.481 223 182.714L222.944 181.608V179.116H224.554V189H223.224L223.112 188.258H223.056C222.804 188.51 222.51 188.725 222.174 188.902C221.838 189.079 221.483 189.168 221.11 189.168ZM221.502 187.838C222.015 187.838 222.496 187.581 222.944 187.068V183.862C222.71 183.647 222.477 183.498 222.244 183.414C222.01 183.33 221.777 183.288 221.544 183.288C221.105 183.288 220.727 183.489 220.41 183.89C220.102 184.282 219.948 184.837 219.948 185.556C219.948 186.293 220.083 186.858 220.354 187.25C220.624 187.642 221.007 187.838 221.502 187.838ZM229.544 189.168C228.909 189.168 228.335 189.028 227.822 188.748C227.309 188.459 226.903 188.048 226.604 187.516C226.305 186.975 226.156 186.326 226.156 185.57C226.156 184.823 226.305 184.179 226.604 183.638C226.912 183.097 227.309 182.681 227.794 182.392C228.279 182.103 228.788 181.958 229.32 181.958C229.945 181.958 230.468 182.098 230.888 182.378C231.308 182.649 231.625 183.031 231.84 183.526C232.055 184.011 232.162 184.576 232.162 185.22C232.162 185.556 232.139 185.817 232.092 186.004H227.724C227.799 186.611 228.018 187.082 228.382 187.418C228.746 187.754 229.203 187.922 229.754 187.922C230.053 187.922 230.328 187.88 230.58 187.796C230.841 187.703 231.098 187.577 231.35 187.418L231.896 188.426C231.569 188.641 231.205 188.818 230.804 188.958C230.403 189.098 229.983 189.168 229.544 189.168ZM227.71 184.912H230.762C230.762 184.38 230.645 183.965 230.412 183.666C230.179 183.358 229.829 183.204 229.362 183.204C228.961 183.204 228.601 183.353 228.284 183.652C227.976 183.941 227.785 184.361 227.71 184.912ZM233.7 189V182.126H235.03L235.142 183.344H235.198C235.44 182.896 235.734 182.555 236.08 182.322C236.425 182.079 236.78 181.958 237.144 181.958C237.47 181.958 237.732 182.005 237.928 182.098L237.648 183.498C237.526 183.461 237.414 183.433 237.312 183.414C237.209 183.395 237.083 183.386 236.934 183.386C236.663 183.386 236.378 183.493 236.08 183.708C235.781 183.913 235.524 184.277 235.31 184.8V189H233.7Z" fill="#354052"/>
</g>
<g filter="url(#filter3_i_1108_2874)">
<path d="M300.63 166H326.99C329.199 166 330.99 167.791 330.99 170V198.99C330.99 201.199 329.199 202.99 326.99 202.99H300.63V166Z" fill="white"/>
<path d="M315.815 183.842L319.312 189.088L312.318 189.088L315.815 183.842Z" fill="#354052"/>
</g>
<g clip-path="url(#clip1_1108_2874)">
<rect width="180" height="185" transform="translate(151 203)" fill="white"/>
<path d="M151 203L331 203V240L151 240V203Z" fill="#1991EB"/>
<path d="M166.162 226L166.162 216.844L169.046 216.844C169.727 216.844 170.334 216.933 170.866 217.11C171.398 217.287 171.818 217.581 172.126 217.992C172.434 218.403 172.588 218.963 172.588 219.672C172.588 220.344 172.434 220.899 172.126 221.338C171.818 221.777 171.403 222.103 170.88 222.318C170.357 222.533 169.765 222.64 169.102 222.64L167.786 222.64L167.786 226L166.162 226ZM167.786 221.338L168.976 221.338C170.32 221.338 170.992 220.783 170.992 219.672C170.992 219.093 170.815 218.697 170.46 218.482C170.115 218.258 169.601 218.146 168.92 218.146L167.786 218.146L167.786 221.338ZM175.738 226.168C175.169 226.168 174.763 225.995 174.52 225.65C174.287 225.305 174.17 224.833 174.17 224.236L174.17 216.116L175.78 216.116L175.78 224.32C175.78 224.516 175.818 224.656 175.892 224.74C175.967 224.815 176.046 224.852 176.13 224.852C176.168 224.852 176.2 224.852 176.228 224.852C176.266 224.843 176.317 224.833 176.382 224.824L176.592 226.028C176.499 226.065 176.378 226.098 176.228 226.126C176.088 226.154 175.925 226.168 175.738 226.168ZM179.637 226.168C179.04 226.168 178.55 225.981 178.167 225.608C177.794 225.235 177.607 224.749 177.607 224.152C177.607 223.415 177.929 222.845 178.573 222.444C179.217 222.033 180.244 221.753 181.653 221.604C181.644 221.24 181.546 220.927 181.359 220.666C181.182 220.395 180.86 220.26 180.393 220.26C180.057 220.26 179.726 220.325 179.399 220.456C179.082 220.587 178.769 220.745 178.461 220.932L177.873 219.854C178.256 219.611 178.685 219.401 179.161 219.224C179.647 219.047 180.16 218.958 180.701 218.958C181.56 218.958 182.199 219.215 182.619 219.728C183.049 220.232 183.263 220.965 183.263 221.926L183.263 226L181.933 226L181.821 225.244L181.765 225.244C181.457 225.505 181.126 225.725 180.771 225.902C180.426 226.079 180.048 226.168 179.637 226.168ZM180.155 224.908C180.435 224.908 180.687 224.843 180.911 224.712C181.145 224.572 181.392 224.385 181.653 224.152L181.653 222.612C180.72 222.733 180.071 222.915 179.707 223.158C179.343 223.391 179.161 223.681 179.161 224.026C179.161 224.334 179.255 224.558 179.441 224.698C179.628 224.838 179.866 224.908 180.155 224.908ZM188.06 226.168C187.435 226.168 186.87 226.028 186.366 225.748C185.871 225.459 185.475 225.048 185.176 224.516C184.887 223.975 184.742 223.326 184.742 222.57C184.742 221.805 184.901 221.156 185.218 220.624C185.535 220.083 185.955 219.672 186.478 219.392C187.01 219.103 187.579 218.958 188.186 218.958C188.625 218.958 189.007 219.033 189.334 219.182C189.661 219.331 189.95 219.513 190.202 219.728L189.418 220.778C189.241 220.619 189.059 220.498 188.872 220.414C188.685 220.321 188.485 220.274 188.27 220.274C187.719 220.274 187.267 220.484 186.912 220.904C186.567 221.324 186.394 221.879 186.394 222.57C186.394 223.251 186.562 223.802 186.898 224.222C187.243 224.642 187.687 224.852 188.228 224.852C188.499 224.852 188.751 224.796 188.984 224.684C189.227 224.563 189.446 224.423 189.642 224.264L190.3 225.328C189.983 225.608 189.628 225.818 189.236 225.958C188.844 226.098 188.452 226.168 188.06 226.168ZM194.255 226.168C193.62 226.168 193.046 226.028 192.533 225.748C192.02 225.459 191.614 225.048 191.315 224.516C191.016 223.975 190.867 223.326 190.867 222.57C190.867 221.823 191.016 221.179 191.315 220.638C191.623 220.097 192.02 219.681 192.505 219.392C192.99 219.103 193.499 218.958 194.031 218.958C194.656 218.958 195.179 219.098 195.599 219.378C196.019 219.649 196.336 220.031 196.551 220.526C196.766 221.011 196.873 221.576 196.873 222.22C196.873 222.556 196.85 222.817 196.803 223.004L192.435 223.004C192.51 223.611 192.729 224.082 193.093 224.418C193.457 224.754 193.914 224.922 194.465 224.922C194.764 224.922 195.039 224.88 195.291 224.796C195.552 224.703 195.809 224.577 196.061 224.418L196.607 225.426C196.28 225.641 195.916 225.818 195.515 225.958C195.114 226.098 194.694 226.168 194.255 226.168ZM192.421 221.912L195.473 221.912C195.473 221.38 195.356 220.965 195.123 220.666C194.89 220.358 194.54 220.204 194.073 220.204C193.672 220.204 193.312 220.353 192.995 220.652C192.687 220.941 192.496 221.361 192.421 221.912ZM198.411 226L198.411 216.116L200.021 216.116L200.021 218.664L199.965 219.994C200.254 219.723 200.576 219.485 200.931 219.28C201.285 219.065 201.696 218.958 202.163 218.958C202.9 218.958 203.437 219.196 203.773 219.672C204.109 220.148 204.277 220.82 204.277 221.688L204.277 226L202.667 226L202.667 221.898C202.667 221.329 202.583 220.927 202.415 220.694C202.247 220.461 201.971 220.344 201.589 220.344C201.29 220.344 201.024 220.419 200.791 220.568C200.567 220.708 200.31 220.918 200.021 221.198L200.021 226L198.411 226ZM209.031 226.168C208.462 226.168 207.93 226.028 207.435 225.748C206.941 225.459 206.539 225.048 206.231 224.516C205.923 223.975 205.769 223.326 205.769 222.57C205.769 221.805 205.923 221.156 206.231 220.624C206.539 220.083 206.941 219.672 207.435 219.392C207.93 219.103 208.462 218.958 209.031 218.958C209.61 218.958 210.147 219.103 210.641 219.392C211.136 219.672 211.537 220.083 211.845 220.624C212.153 221.156 212.307 221.805 212.307 222.57C212.307 223.326 212.153 223.975 211.845 224.516C211.537 225.048 211.136 225.459 210.641 225.748C210.147 226.028 209.61 226.168 209.031 226.168ZM209.031 224.852C209.535 224.852 209.932 224.642 210.221 224.222C210.511 223.802 210.655 223.251 210.655 222.57C210.655 221.879 210.511 221.324 210.221 220.904C209.932 220.484 209.535 220.274 209.031 220.274C208.527 220.274 208.131 220.484 207.841 220.904C207.561 221.324 207.421 221.879 207.421 222.57C207.421 223.251 207.561 223.802 207.841 224.222C208.131 224.642 208.527 224.852 209.031 224.852ZM215.469 226.168C214.9 226.168 214.494 225.995 214.251 225.65C214.018 225.305 213.901 224.833 213.901 224.236L213.901 216.116L215.511 216.116L215.511 224.32C215.511 224.516 215.548 224.656 215.623 224.74C215.698 224.815 215.777 224.852 215.861 224.852C215.898 224.852 215.931 224.852 215.959 224.852C215.996 224.843 216.048 224.833 216.113 224.824L216.323 226.028C216.23 226.065 216.108 226.098 215.959 226.126C215.819 226.154 215.656 226.168 215.469 226.168ZM220.11 226.168C219.251 226.168 218.565 225.851 218.052 225.216C217.538 224.581 217.282 223.699 217.282 222.57C217.282 221.823 217.417 221.179 217.688 220.638C217.968 220.097 218.332 219.681 218.78 219.392C219.228 219.103 219.699 218.958 220.194 218.958C220.586 218.958 220.917 219.028 221.188 219.168C221.468 219.299 221.738 219.481 222 219.714L221.944 218.608L221.944 216.116L223.554 216.116L223.554 226L222.224 226L222.112 225.258L222.056 225.258C221.804 225.51 221.51 225.725 221.174 225.902C220.838 226.079 220.483 226.168 220.11 226.168ZM220.502 224.838C221.015 224.838 221.496 224.581 221.944 224.068L221.944 220.862C221.71 220.647 221.477 220.498 221.244 220.414C221.01 220.33 220.777 220.288 220.544 220.288C220.105 220.288 219.727 220.489 219.41 220.89C219.102 221.282 218.948 221.837 218.948 222.556C218.948 223.293 219.083 223.858 219.354 224.25C219.624 224.642 220.007 224.838 220.502 224.838ZM228.544 226.168C227.909 226.168 227.335 226.028 226.822 225.748C226.309 225.459 225.903 225.048 225.604 224.516C225.305 223.975 225.156 223.326 225.156 222.57C225.156 221.823 225.305 221.179 225.604 220.638C225.912 220.097 226.309 219.681 226.794 219.392C227.279 219.103 227.788 218.958 228.32 218.958C228.945 218.958 229.468 219.098 229.888 219.378C230.308 219.649 230.625 220.031 230.84 220.526C231.055 221.011 231.162 221.576 231.162 222.22C231.162 222.556 231.139 222.817 231.092 223.004L226.724 223.004C226.799 223.611 227.018 224.082 227.382 224.418C227.746 224.754 228.203 224.922 228.754 224.922C229.053 224.922 229.328 224.88 229.58 224.796C229.841 224.703 230.098 224.577 230.35 224.418L230.896 225.426C230.569 225.641 230.205 225.818 229.804 225.958C229.403 226.098 228.983 226.168 228.544 226.168ZM226.71 221.912L229.762 221.912C229.762 221.38 229.645 220.965 229.412 220.666C229.179 220.358 228.829 220.204 228.362 220.204C227.961 220.204 227.601 220.353 227.284 220.652C226.976 220.941 226.785 221.361 226.71 221.912ZM232.7 226L232.7 219.126L234.03 219.126L234.142 220.344L234.198 220.344C234.44 219.896 234.734 219.555 235.08 219.322C235.425 219.079 235.78 218.958 236.144 218.958C236.47 218.958 236.732 219.005 236.928 219.098L236.648 220.498C236.526 220.461 236.414 220.433 236.312 220.414C236.209 220.395 236.083 220.386 235.934 220.386C235.663 220.386 235.378 220.493 235.08 220.708C234.781 220.913 234.524 221.277 234.31 221.8L234.31 226L232.7 226Z" fill="white"/>
<path d="M151 240L331 240V277H151V240Z" fill="white"/>
<path d="M166.162 263L166.162 253.844L169.046 253.844C169.727 253.844 170.334 253.933 170.866 254.11C171.398 254.287 171.818 254.581 172.126 254.992C172.434 255.403 172.588 255.963 172.588 256.672C172.588 257.344 172.434 257.899 172.126 258.338C171.818 258.777 171.403 259.103 170.88 259.318C170.357 259.533 169.765 259.64 169.102 259.64L167.786 259.64L167.786 263L166.162 263ZM167.786 258.338L168.976 258.338C170.32 258.338 170.992 257.783 170.992 256.672C170.992 256.093 170.815 255.697 170.46 255.482C170.115 255.258 169.601 255.146 168.92 255.146L167.786 255.146L167.786 258.338ZM175.738 263.168C175.169 263.168 174.763 262.995 174.52 262.65C174.287 262.305 174.17 261.833 174.17 261.236L174.17 253.116L175.78 253.116L175.78 261.32C175.78 261.516 175.818 261.656 175.892 261.74C175.967 261.815 176.046 261.852 176.13 261.852C176.168 261.852 176.2 261.852 176.228 261.852C176.266 261.843 176.317 261.833 176.382 261.824L176.592 263.028C176.499 263.065 176.378 263.098 176.228 263.126C176.088 263.154 175.925 263.168 175.738 263.168ZM179.637 263.168C179.04 263.168 178.55 262.981 178.167 262.608C177.794 262.235 177.607 261.749 177.607 261.152C177.607 260.415 177.929 259.845 178.573 259.444C179.217 259.033 180.244 258.753 181.653 258.604C181.644 258.24 181.546 257.927 181.359 257.666C181.182 257.395 180.86 257.26 180.393 257.26C180.057 257.26 179.726 257.325 179.399 257.456C179.082 257.587 178.769 257.745 178.461 257.932L177.873 256.854C178.256 256.611 178.685 256.401 179.161 256.224C179.647 256.047 180.16 255.958 180.701 255.958C181.56 255.958 182.199 256.215 182.619 256.728C183.049 257.232 183.263 257.965 183.263 258.926L183.263 263L181.933 263L181.821 262.244L181.765 262.244C181.457 262.505 181.126 262.725 180.771 262.902C180.426 263.079 180.048 263.168 179.637 263.168ZM180.155 261.908C180.435 261.908 180.687 261.843 180.911 261.712C181.145 261.572 181.392 261.385 181.653 261.152L181.653 259.612C180.72 259.733 180.071 259.915 179.707 260.158C179.343 260.391 179.161 260.681 179.161 261.026C179.161 261.334 179.255 261.558 179.441 261.698C179.628 261.838 179.866 261.908 180.155 261.908ZM188.06 263.168C187.435 263.168 186.87 263.028 186.366 262.748C185.871 262.459 185.475 262.048 185.176 261.516C184.887 260.975 184.742 260.326 184.742 259.57C184.742 258.805 184.901 258.156 185.218 257.624C185.535 257.083 185.955 256.672 186.478 256.392C187.01 256.103 187.579 255.958 188.186 255.958C188.625 255.958 189.007 256.033 189.334 256.182C189.661 256.331 189.95 256.513 190.202 256.728L189.418 257.778C189.241 257.619 189.059 257.498 188.872 257.414C188.685 257.321 188.485 257.274 188.27 257.274C187.719 257.274 187.267 257.484 186.912 257.904C186.567 258.324 186.394 258.879 186.394 259.57C186.394 260.251 186.562 260.802 186.898 261.222C187.243 261.642 187.687 261.852 188.228 261.852C188.499 261.852 188.751 261.796 188.984 261.684C189.227 261.563 189.446 261.423 189.642 261.264L190.3 262.328C189.983 262.608 189.628 262.818 189.236 262.958C188.844 263.098 188.452 263.168 188.06 263.168ZM194.255 263.168C193.62 263.168 193.046 263.028 192.533 262.748C192.02 262.459 191.614 262.048 191.315 261.516C191.016 260.975 190.867 260.326 190.867 259.57C190.867 258.823 191.016 258.179 191.315 257.638C191.623 257.097 192.02 256.681 192.505 256.392C192.99 256.103 193.499 255.958 194.031 255.958C194.656 255.958 195.179 256.098 195.599 256.378C196.019 256.649 196.336 257.031 196.551 257.526C196.766 258.011 196.873 258.576 196.873 259.22C196.873 259.556 196.85 259.817 196.803 260.004L192.435 260.004C192.51 260.611 192.729 261.082 193.093 261.418C193.457 261.754 193.914 261.922 194.465 261.922C194.764 261.922 195.039 261.88 195.291 261.796C195.552 261.703 195.809 261.577 196.061 261.418L196.607 262.426C196.28 262.641 195.916 262.818 195.515 262.958C195.114 263.098 194.694 263.168 194.255 263.168ZM192.421 258.912L195.473 258.912C195.473 258.38 195.356 257.965 195.123 257.666C194.89 257.358 194.54 257.204 194.073 257.204C193.672 257.204 193.312 257.353 192.995 257.652C192.687 257.941 192.496 258.361 192.421 258.912ZM198.411 263L198.411 253.116L200.021 253.116L200.021 255.664L199.965 256.994C200.254 256.723 200.576 256.485 200.931 256.28C201.285 256.065 201.696 255.958 202.163 255.958C202.9 255.958 203.437 256.196 203.773 256.672C204.109 257.148 204.277 257.82 204.277 258.688L204.277 263L202.667 263L202.667 258.898C202.667 258.329 202.583 257.927 202.415 257.694C202.247 257.461 201.971 257.344 201.589 257.344C201.29 257.344 201.024 257.419 200.791 257.568C200.567 257.708 200.31 257.918 200.021 258.198L200.021 263L198.411 263ZM209.031 263.168C208.462 263.168 207.93 263.028 207.435 262.748C206.941 262.459 206.539 262.048 206.231 261.516C205.923 260.975 205.769 260.326 205.769 259.57C205.769 258.805 205.923 258.156 206.231 257.624C206.539 257.083 206.941 256.672 207.435 256.392C207.93 256.103 208.462 255.958 209.031 255.958C209.61 255.958 210.147 256.103 210.641 256.392C211.136 256.672 211.537 257.083 211.845 257.624C212.153 258.156 212.307 258.805 212.307 259.57C212.307 260.326 212.153 260.975 211.845 261.516C211.537 262.048 211.136 262.459 210.641 262.748C210.147 263.028 209.61 263.168 209.031 263.168ZM209.031 261.852C209.535 261.852 209.932 261.642 210.221 261.222C210.511 260.802 210.655 260.251 210.655 259.57C210.655 258.879 210.511 258.324 210.221 257.904C209.932 257.484 209.535 257.274 209.031 257.274C208.527 257.274 208.131 257.484 207.841 257.904C207.561 258.324 207.421 258.879 207.421 259.57C207.421 260.251 207.561 260.802 207.841 261.222C208.131 261.642 208.527 261.852 209.031 261.852ZM215.469 263.168C214.9 263.168 214.494 262.995 214.251 262.65C214.018 262.305 213.901 261.833 213.901 261.236L213.901 253.116L215.511 253.116L215.511 261.32C215.511 261.516 215.548 261.656 215.623 261.74C215.698 261.815 215.777 261.852 215.861 261.852C215.898 261.852 215.931 261.852 215.959 261.852C215.996 261.843 216.048 261.833 216.113 261.824L216.323 263.028C216.23 263.065 216.108 263.098 215.959 263.126C215.819 263.154 215.656 263.168 215.469 263.168ZM220.11 263.168C219.251 263.168 218.565 262.851 218.052 262.216C217.538 261.581 217.282 260.699 217.282 259.57C217.282 258.823 217.417 258.179 217.688 257.638C217.968 257.097 218.332 256.681 218.78 256.392C219.228 256.103 219.699 255.958 220.194 255.958C220.586 255.958 220.917 256.028 221.188 256.168C221.468 256.299 221.738 256.481 222 256.714L221.944 255.608L221.944 253.116L223.554 253.116L223.554 263L222.224 263L222.112 262.258L222.056 262.258C221.804 262.51 221.51 262.725 221.174 262.902C220.838 263.079 220.483 263.168 220.11 263.168ZM220.502 261.838C221.015 261.838 221.496 261.581 221.944 261.068L221.944 257.862C221.71 257.647 221.477 257.498 221.244 257.414C221.01 257.33 220.777 257.288 220.544 257.288C220.105 257.288 219.727 257.489 219.41 257.89C219.102 258.282 218.948 258.837 218.948 259.556C218.948 260.293 219.083 260.858 219.354 261.25C219.624 261.642 220.007 261.838 220.502 261.838ZM228.544 263.168C227.909 263.168 227.335 263.028 226.822 262.748C226.309 262.459 225.903 262.048 225.604 261.516C225.305 260.975 225.156 260.326 225.156 259.57C225.156 258.823 225.305 258.179 225.604 257.638C225.912 257.097 226.309 256.681 226.794 256.392C227.279 256.103 227.788 255.958 228.32 255.958C228.945 255.958 229.468 256.098 229.888 256.378C230.308 256.649 230.625 257.031 230.84 257.526C231.055 258.011 231.162 258.576 231.162 259.22C231.162 259.556 231.139 259.817 231.092 260.004L226.724 260.004C226.799 260.611 227.018 261.082 227.382 261.418C227.746 261.754 228.203 261.922 228.754 261.922C229.053 261.922 229.328 261.88 229.58 261.796C229.841 261.703 230.098 261.577 230.35 261.418L230.896 262.426C230.569 262.641 230.205 262.818 229.804 262.958C229.403 263.098 228.983 263.168 228.544 263.168ZM226.71 258.912L229.762 258.912C229.762 258.38 229.645 257.965 229.412 257.666C229.179 257.358 228.829 257.204 228.362 257.204C227.961 257.204 227.601 257.353 227.284 257.652C226.976 257.941 226.785 258.361 226.71 258.912ZM232.7 263L232.7 256.126L234.03 256.126L234.142 257.344L234.198 257.344C234.44 256.896 234.734 256.555 235.08 256.322C235.425 256.079 235.78 255.958 236.144 255.958C236.47 255.958 236.732 256.005 236.928 256.098L236.648 257.498C236.526 257.461 236.414 257.433 236.312 257.414C236.209 257.395 236.083 257.386 235.934 257.386C235.663 257.386 235.378 257.493 235.08 257.708C234.781 257.913 234.524 258.277 234.31 258.8L234.31 263L232.7 263Z" fill="#354052"/>
<path d="M151 277H331V314H151V277Z" fill="white"/>
<path d="M166.162 300L166.162 290.844L169.046 290.844C169.727 290.844 170.334 290.933 170.866 291.11C171.398 291.287 171.818 291.581 172.126 291.992C172.434 292.403 172.588 292.963 172.588 293.672C172.588 294.344 172.434 294.899 172.126 295.338C171.818 295.777 171.403 296.103 170.88 296.318C170.357 296.533 169.765 296.64 169.102 296.64L167.786 296.64L167.786 300L166.162 300ZM167.786 295.338L168.976 295.338C170.32 295.338 170.992 294.783 170.992 293.672C170.992 293.093 170.815 292.697 170.46 292.482C170.115 292.258 169.601 292.146 168.92 292.146L167.786 292.146L167.786 295.338ZM175.738 300.168C175.169 300.168 174.763 299.995 174.52 299.65C174.287 299.305 174.17 298.833 174.17 298.236L174.17 290.116L175.78 290.116L175.78 298.32C175.78 298.516 175.818 298.656 175.892 298.74C175.967 298.815 176.046 298.852 176.13 298.852C176.168 298.852 176.2 298.852 176.228 298.852C176.266 298.843 176.317 298.833 176.382 298.824L176.592 300.028C176.499 300.065 176.378 300.098 176.228 300.126C176.088 300.154 175.925 300.168 175.738 300.168ZM179.637 300.168C179.04 300.168 178.55 299.981 178.167 299.608C177.794 299.235 177.607 298.749 177.607 298.152C177.607 297.415 177.929 296.845 178.573 296.444C179.217 296.033 180.244 295.753 181.653 295.604C181.644 295.24 181.546 294.927 181.359 294.666C181.182 294.395 180.86 294.26 180.393 294.26C180.057 294.26 179.726 294.325 179.399 294.456C179.082 294.587 178.769 294.745 178.461 294.932L177.873 293.854C178.256 293.611 178.685 293.401 179.161 293.224C179.647 293.047 180.16 292.958 180.701 292.958C181.56 292.958 182.199 293.215 182.619 293.728C183.049 294.232 183.263 294.965 183.263 295.926L183.263 300L181.933 300L181.821 299.244L181.765 299.244C181.457 299.505 181.126 299.725 180.771 299.902C180.426 300.079 180.048 300.168 179.637 300.168ZM180.155 298.908C180.435 298.908 180.687 298.843 180.911 298.712C181.145 298.572 181.392 298.385 181.653 298.152L181.653 296.612C180.72 296.733 180.071 296.915 179.707 297.158C179.343 297.391 179.161 297.681 179.161 298.026C179.161 298.334 179.255 298.558 179.441 298.698C179.628 298.838 179.866 298.908 180.155 298.908ZM188.06 300.168C187.435 300.168 186.87 300.028 186.366 299.748C185.871 299.459 185.475 299.048 185.176 298.516C184.887 297.975 184.742 297.326 184.742 296.57C184.742 295.805 184.901 295.156 185.218 294.624C185.535 294.083 185.955 293.672 186.478 293.392C187.01 293.103 187.579 292.958 188.186 292.958C188.625 292.958 189.007 293.033 189.334 293.182C189.661 293.331 189.95 293.513 190.202 293.728L189.418 294.778C189.241 294.619 189.059 294.498 188.872 294.414C188.685 294.321 188.485 294.274 188.27 294.274C187.719 294.274 187.267 294.484 186.912 294.904C186.567 295.324 186.394 295.879 186.394 296.57C186.394 297.251 186.562 297.802 186.898 298.222C187.243 298.642 187.687 298.852 188.228 298.852C188.499 298.852 188.751 298.796 188.984 298.684C189.227 298.563 189.446 298.423 189.642 298.264L190.3 299.328C189.983 299.608 189.628 299.818 189.236 299.958C188.844 300.098 188.452 300.168 188.06 300.168ZM194.255 300.168C193.62 300.168 193.046 300.028 192.533 299.748C192.02 299.459 191.614 299.048 191.315 298.516C191.016 297.975 190.867 297.326 190.867 296.57C190.867 295.823 191.016 295.179 191.315 294.638C191.623 294.097 192.02 293.681 192.505 293.392C192.99 293.103 193.499 292.958 194.031 292.958C194.656 292.958 195.179 293.098 195.599 293.378C196.019 293.649 196.336 294.031 196.551 294.526C196.766 295.011 196.873 295.576 196.873 296.22C196.873 296.556 196.85 296.817 196.803 297.004L192.435 297.004C192.51 297.611 192.729 298.082 193.093 298.418C193.457 298.754 193.914 298.922 194.465 298.922C194.764 298.922 195.039 298.88 195.291 298.796C195.552 298.703 195.809 298.577 196.061 298.418L196.607 299.426C196.28 299.641 195.916 299.818 195.515 299.958C195.114 300.098 194.694 300.168 194.255 300.168ZM192.421 295.912L195.473 295.912C195.473 295.38 195.356 294.965 195.123 294.666C194.89 294.358 194.54 294.204 194.073 294.204C193.672 294.204 193.312 294.353 192.995 294.652C192.687 294.941 192.496 295.361 192.421 295.912ZM198.411 300L198.411 290.116L200.021 290.116L200.021 292.664L199.965 293.994C200.254 293.723 200.576 293.485 200.931 293.28C201.285 293.065 201.696 292.958 202.163 292.958C202.9 292.958 203.437 293.196 203.773 293.672C204.109 294.148 204.277 294.82 204.277 295.688L204.277 300L202.667 300L202.667 295.898C202.667 295.329 202.583 294.927 202.415 294.694C202.247 294.461 201.971 294.344 201.589 294.344C201.29 294.344 201.024 294.419 200.791 294.568C200.567 294.708 200.31 294.918 200.021 295.198L200.021 300L198.411 300ZM209.031 300.168C208.462 300.168 207.93 300.028 207.435 299.748C206.941 299.459 206.539 299.048 206.231 298.516C205.923 297.975 205.769 297.326 205.769 296.57C205.769 295.805 205.923 295.156 206.231 294.624C206.539 294.083 206.941 293.672 207.435 293.392C207.93 293.103 208.462 292.958 209.031 292.958C209.61 292.958 210.147 293.103 210.641 293.392C211.136 293.672 211.537 294.083 211.845 294.624C212.153 295.156 212.307 295.805 212.307 296.57C212.307 297.326 212.153 297.975 211.845 298.516C211.537 299.048 211.136 299.459 210.641 299.748C210.147 300.028 209.61 300.168 209.031 300.168ZM209.031 298.852C209.535 298.852 209.932 298.642 210.221 298.222C210.511 297.802 210.655 297.251 210.655 296.57C210.655 295.879 210.511 295.324 210.221 294.904C209.932 294.484 209.535 294.274 209.031 294.274C208.527 294.274 208.131 294.484 207.841 294.904C207.561 295.324 207.421 295.879 207.421 296.57C207.421 297.251 207.561 297.802 207.841 298.222C208.131 298.642 208.527 298.852 209.031 298.852ZM215.469 300.168C214.9 300.168 214.494 299.995 214.251 299.65C214.018 299.305 213.901 298.833 213.901 298.236L213.901 290.116L215.511 290.116L215.511 298.32C215.511 298.516 215.548 298.656 215.623 298.74C215.698 298.815 215.777 298.852 215.861 298.852C215.898 298.852 215.931 298.852 215.959 298.852C215.996 298.843 216.048 298.833 216.113 298.824L216.323 300.028C216.23 300.065 216.108 300.098 215.959 300.126C215.819 300.154 215.656 300.168 215.469 300.168ZM220.11 300.168C219.251 300.168 218.565 299.851 218.052 299.216C217.538 298.581 217.282 297.699 217.282 296.57C217.282 295.823 217.417 295.179 217.688 294.638C217.968 294.097 218.332 293.681 218.78 293.392C219.228 293.103 219.699 292.958 220.194 292.958C220.586 292.958 220.917 293.028 221.188 293.168C221.468 293.299 221.738 293.481 222 293.714L221.944 292.608L221.944 290.116L223.554 290.116L223.554 300L222.224 300L222.112 299.258L222.056 299.258C221.804 299.51 221.51 299.725 221.174 299.902C220.838 300.079 220.483 300.168 220.11 300.168ZM220.502 298.838C221.015 298.838 221.496 298.581 221.944 298.068L221.944 294.862C221.71 294.647 221.477 294.498 221.244 294.414C221.01 294.33 220.777 294.288 220.544 294.288C220.105 294.288 219.727 294.489 219.41 294.89C219.102 295.282 218.948 295.837 218.948 296.556C218.948 297.293 219.083 297.858 219.354 298.25C219.624 298.642 220.007 298.838 220.502 298.838ZM228.544 300.168C227.909 300.168 227.335 300.028 226.822 299.748C226.309 299.459 225.903 299.048 225.604 298.516C225.305 297.975 225.156 297.326 225.156 296.57C225.156 295.823 225.305 295.179 225.604 294.638C225.912 294.097 226.309 293.681 226.794 293.392C227.279 293.103 227.788 292.958 228.32 292.958C228.945 292.958 229.468 293.098 229.888 293.378C230.308 293.649 230.625 294.031 230.84 294.526C231.055 295.011 231.162 295.576 231.162 296.22C231.162 296.556 231.139 296.817 231.092 297.004L226.724 297.004C226.799 297.611 227.018 298.082 227.382 298.418C227.746 298.754 228.203 298.922 228.754 298.922C229.053 298.922 229.328 298.88 229.58 298.796C229.841 298.703 230.098 298.577 230.35 298.418L230.896 299.426C230.569 299.641 230.205 299.818 229.804 299.958C229.403 300.098 228.983 300.168 228.544 300.168ZM226.71 295.912L229.762 295.912C229.762 295.38 229.645 294.965 229.412 294.666C229.179 294.358 228.829 294.204 228.362 294.204C227.961 294.204 227.601 294.353 227.284 294.652C226.976 294.941 226.785 295.361 226.71 295.912ZM232.7 300L232.7 293.126L234.03 293.126L234.142 294.344L234.198 294.344C234.44 293.896 234.734 293.555 235.08 293.322C235.425 293.079 235.78 292.958 236.144 292.958C236.47 292.958 236.732 293.005 236.928 293.098L236.648 294.498C236.526 294.461 236.414 294.433 236.312 294.414C236.209 294.395 236.083 294.386 235.934 294.386C235.663 294.386 235.378 294.493 235.08 294.708C234.781 294.913 234.524 295.277 234.31 295.8L234.31 300L232.7 300Z" fill="#354052"/>
<path d="M151 314H331V351H151V314Z" fill="white"/>
<path d="M166.162 337L166.162 327.844L169.046 327.844C169.727 327.844 170.334 327.933 170.866 328.11C171.398 328.287 171.818 328.581 172.126 328.992C172.434 329.403 172.588 329.963 172.588 330.672C172.588 331.344 172.434 331.899 172.126 332.338C171.818 332.777 171.403 333.103 170.88 333.318C170.357 333.533 169.765 333.64 169.102 333.64L167.786 333.64L167.786 337L166.162 337ZM167.786 332.338L168.976 332.338C170.32 332.338 170.992 331.783 170.992 330.672C170.992 330.093 170.815 329.697 170.46 329.482C170.115 329.258 169.601 329.146 168.92 329.146L167.786 329.146L167.786 332.338ZM175.738 337.168C175.169 337.168 174.763 336.995 174.52 336.65C174.287 336.305 174.17 335.833 174.17 335.236L174.17 327.116L175.78 327.116L175.78 335.32C175.78 335.516 175.818 335.656 175.892 335.74C175.967 335.815 176.046 335.852 176.13 335.852C176.168 335.852 176.2 335.852 176.228 335.852C176.266 335.843 176.317 335.833 176.382 335.824L176.592 337.028C176.499 337.065 176.378 337.098 176.228 337.126C176.088 337.154 175.925 337.168 175.738 337.168ZM179.637 337.168C179.04 337.168 178.55 336.981 178.167 336.608C177.794 336.235 177.607 335.749 177.607 335.152C177.607 334.415 177.929 333.845 178.573 333.444C179.217 333.033 180.244 332.753 181.653 332.604C181.644 332.24 181.546 331.927 181.359 331.666C181.182 331.395 180.86 331.26 180.393 331.26C180.057 331.26 179.726 331.325 179.399 331.456C179.082 331.587 178.769 331.745 178.461 331.932L177.873 330.854C178.256 330.611 178.685 330.401 179.161 330.224C179.647 330.047 180.16 329.958 180.701 329.958C181.56 329.958 182.199 330.215 182.619 330.728C183.049 331.232 183.263 331.965 183.263 332.926L183.263 337L181.933 337L181.821 336.244L181.765 336.244C181.457 336.505 181.126 336.725 180.771 336.902C180.426 337.079 180.048 337.168 179.637 337.168ZM180.155 335.908C180.435 335.908 180.687 335.843 180.911 335.712C181.145 335.572 181.392 335.385 181.653 335.152L181.653 333.612C180.72 333.733 180.071 333.915 179.707 334.158C179.343 334.391 179.161 334.681 179.161 335.026C179.161 335.334 179.255 335.558 179.441 335.698C179.628 335.838 179.866 335.908 180.155 335.908ZM188.06 337.168C187.435 337.168 186.87 337.028 186.366 336.748C185.871 336.459 185.475 336.048 185.176 335.516C184.887 334.975 184.742 334.326 184.742 333.57C184.742 332.805 184.901 332.156 185.218 331.624C185.535 331.083 185.955 330.672 186.478 330.392C187.01 330.103 187.579 329.958 188.186 329.958C188.625 329.958 189.007 330.033 189.334 330.182C189.661 330.331 189.95 330.513 190.202 330.728L189.418 331.778C189.241 331.619 189.059 331.498 188.872 331.414C188.685 331.321 188.485 331.274 188.27 331.274C187.719 331.274 187.267 331.484 186.912 331.904C186.567 332.324 186.394 332.879 186.394 333.57C186.394 334.251 186.562 334.802 186.898 335.222C187.243 335.642 187.687 335.852 188.228 335.852C188.499 335.852 188.751 335.796 188.984 335.684C189.227 335.563 189.446 335.423 189.642 335.264L190.3 336.328C189.983 336.608 189.628 336.818 189.236 336.958C188.844 337.098 188.452 337.168 188.06 337.168ZM194.255 337.168C193.62 337.168 193.046 337.028 192.533 336.748C192.02 336.459 191.614 336.048 191.315 335.516C191.016 334.975 190.867 334.326 190.867 333.57C190.867 332.823 191.016 332.179 191.315 331.638C191.623 331.097 192.02 330.681 192.505 330.392C192.99 330.103 193.499 329.958 194.031 329.958C194.656 329.958 195.179 330.098 195.599 330.378C196.019 330.649 196.336 331.031 196.551 331.526C196.766 332.011 196.873 332.576 196.873 333.22C196.873 333.556 196.85 333.817 196.803 334.004L192.435 334.004C192.51 334.611 192.729 335.082 193.093 335.418C193.457 335.754 193.914 335.922 194.465 335.922C194.764 335.922 195.039 335.88 195.291 335.796C195.552 335.703 195.809 335.577 196.061 335.418L196.607 336.426C196.28 336.641 195.916 336.818 195.515 336.958C195.114 337.098 194.694 337.168 194.255 337.168ZM192.421 332.912L195.473 332.912C195.473 332.38 195.356 331.965 195.123 331.666C194.89 331.358 194.54 331.204 194.073 331.204C193.672 331.204 193.312 331.353 192.995 331.652C192.687 331.941 192.496 332.361 192.421 332.912ZM198.411 337L198.411 327.116L200.021 327.116L200.021 329.664L199.965 330.994C200.254 330.723 200.576 330.485 200.931 330.28C201.285 330.065 201.696 329.958 202.163 329.958C202.9 329.958 203.437 330.196 203.773 330.672C204.109 331.148 204.277 331.82 204.277 332.688L204.277 337L202.667 337L202.667 332.898C202.667 332.329 202.583 331.927 202.415 331.694C202.247 331.461 201.971 331.344 201.589 331.344C201.29 331.344 201.024 331.419 200.791 331.568C200.567 331.708 200.31 331.918 200.021 332.198L200.021 337L198.411 337ZM209.031 337.168C208.462 337.168 207.93 337.028 207.435 336.748C206.941 336.459 206.539 336.048 206.231 335.516C205.923 334.975 205.769 334.326 205.769 333.57C205.769 332.805 205.923 332.156 206.231 331.624C206.539 331.083 206.941 330.672 207.435 330.392C207.93 330.103 208.462 329.958 209.031 329.958C209.61 329.958 210.147 330.103 210.641 330.392C211.136 330.672 211.537 331.083 211.845 331.624C212.153 332.156 212.307 332.805 212.307 333.57C212.307 334.326 212.153 334.975 211.845 335.516C211.537 336.048 211.136 336.459 210.641 336.748C210.147 337.028 209.61 337.168 209.031 337.168ZM209.031 335.852C209.535 335.852 209.932 335.642 210.221 335.222C210.511 334.802 210.655 334.251 210.655 333.57C210.655 332.879 210.511 332.324 210.221 331.904C209.932 331.484 209.535 331.274 209.031 331.274C208.527 331.274 208.131 331.484 207.841 331.904C207.561 332.324 207.421 332.879 207.421 333.57C207.421 334.251 207.561 334.802 207.841 335.222C208.131 335.642 208.527 335.852 209.031 335.852ZM215.469 337.168C214.9 337.168 214.494 336.995 214.251 336.65C214.018 336.305 213.901 335.833 213.901 335.236L213.901 327.116L215.511 327.116L215.511 335.32C215.511 335.516 215.548 335.656 215.623 335.74C215.698 335.815 215.777 335.852 215.861 335.852C215.898 335.852 215.931 335.852 215.959 335.852C215.996 335.843 216.048 335.833 216.113 335.824L216.323 337.028C216.23 337.065 216.108 337.098 215.959 337.126C215.819 337.154 215.656 337.168 215.469 337.168ZM220.11 337.168C219.251 337.168 218.565 336.851 218.052 336.216C217.538 335.581 217.282 334.699 217.282 333.57C217.282 332.823 217.417 332.179 217.688 331.638C217.968 331.097 218.332 330.681 218.78 330.392C219.228 330.103 219.699 329.958 220.194 329.958C220.586 329.958 220.917 330.028 221.188 330.168C221.468 330.299 221.738 330.481 222 330.714L221.944 329.608L221.944 327.116L223.554 327.116L223.554 337L222.224 337L222.112 336.258L222.056 336.258C221.804 336.51 221.51 336.725 221.174 336.902C220.838 337.079 220.483 337.168 220.11 337.168ZM220.502 335.838C221.015 335.838 221.496 335.581 221.944 335.068L221.944 331.862C221.71 331.647 221.477 331.498 221.244 331.414C221.01 331.33 220.777 331.288 220.544 331.288C220.105 331.288 219.727 331.489 219.41 331.89C219.102 332.282 218.948 332.837 218.948 333.556C218.948 334.293 219.083 334.858 219.354 335.25C219.624 335.642 220.007 335.838 220.502 335.838ZM228.544 337.168C227.909 337.168 227.335 337.028 226.822 336.748C226.309 336.459 225.903 336.048 225.604 335.516C225.305 334.975 225.156 334.326 225.156 333.57C225.156 332.823 225.305 332.179 225.604 331.638C225.912 331.097 226.309 330.681 226.794 330.392C227.279 330.103 227.788 329.958 228.32 329.958C228.945 329.958 229.468 330.098 229.888 330.378C230.308 330.649 230.625 331.031 230.84 331.526C231.055 332.011 231.162 332.576 231.162 333.22C231.162 333.556 231.139 333.817 231.092 334.004L226.724 334.004C226.799 334.611 227.018 335.082 227.382 335.418C227.746 335.754 228.203 335.922 228.754 335.922C229.053 335.922 229.328 335.88 229.58 335.796C229.841 335.703 230.098 335.577 230.35 335.418L230.896 336.426C230.569 336.641 230.205 336.818 229.804 336.958C229.403 337.098 228.983 337.168 228.544 337.168ZM226.71 332.912L229.762 332.912C229.762 332.38 229.645 331.965 229.412 331.666C229.179 331.358 228.829 331.204 228.362 331.204C227.961 331.204 227.601 331.353 227.284 331.652C226.976 331.941 226.785 332.361 226.71 332.912ZM232.7 337L232.7 330.126L234.03 330.126L234.142 331.344L234.198 331.344C234.44 330.896 234.734 330.555 235.08 330.322C235.425 330.079 235.78 329.958 236.144 329.958C236.47 329.958 236.732 330.005 236.928 330.098L236.648 331.498C236.526 331.461 236.414 331.433 236.312 331.414C236.209 331.395 236.083 331.386 235.934 331.386C235.663 331.386 235.378 331.493 235.08 331.708C234.781 331.913 234.524 332.277 234.31 332.8L234.31 337L232.7 337Z" fill="#354052"/>
<path d="M151 351H331V388H151V351Z" fill="white"/>
<path d="M166.162 374L166.162 364.844L169.046 364.844C169.727 364.844 170.334 364.933 170.866 365.11C171.398 365.287 171.818 365.581 172.126 365.992C172.434 366.403 172.588 366.963 172.588 367.672C172.588 368.344 172.434 368.899 172.126 369.338C171.818 369.777 171.403 370.103 170.88 370.318C170.357 370.533 169.765 370.64 169.102 370.64L167.786 370.64L167.786 374L166.162 374ZM167.786 369.338L168.976 369.338C170.32 369.338 170.992 368.783 170.992 367.672C170.992 367.093 170.815 366.697 170.46 366.482C170.115 366.258 169.601 366.146 168.92 366.146L167.786 366.146L167.786 369.338ZM175.738 374.168C175.169 374.168 174.763 373.995 174.52 373.65C174.287 373.305 174.17 372.833 174.17 372.236L174.17 364.116L175.78 364.116L175.78 372.32C175.78 372.516 175.818 372.656 175.892 372.74C175.967 372.815 176.046 372.852 176.13 372.852C176.168 372.852 176.2 372.852 176.228 372.852C176.266 372.843 176.317 372.833 176.382 372.824L176.592 374.028C176.499 374.065 176.378 374.098 176.228 374.126C176.088 374.154 175.925 374.168 175.738 374.168ZM179.637 374.168C179.04 374.168 178.55 373.981 178.167 373.608C177.794 373.235 177.607 372.749 177.607 372.152C177.607 371.415 177.929 370.845 178.573 370.444C179.217 370.033 180.244 369.753 181.653 369.604C181.644 369.24 181.546 368.927 181.359 368.666C181.182 368.395 180.86 368.26 180.393 368.26C180.057 368.26 179.726 368.325 179.399 368.456C179.082 368.587 178.769 368.745 178.461 368.932L177.873 367.854C178.256 367.611 178.685 367.401 179.161 367.224C179.647 367.047 180.16 366.958 180.701 366.958C181.56 366.958 182.199 367.215 182.619 367.728C183.049 368.232 183.263 368.965 183.263 369.926L183.263 374L181.933 374L181.821 373.244L181.765 373.244C181.457 373.505 181.126 373.725 180.771 373.902C180.426 374.079 180.048 374.168 179.637 374.168ZM180.155 372.908C180.435 372.908 180.687 372.843 180.911 372.712C181.145 372.572 181.392 372.385 181.653 372.152L181.653 370.612C180.72 370.733 180.071 370.915 179.707 371.158C179.343 371.391 179.161 371.681 179.161 372.026C179.161 372.334 179.255 372.558 179.441 372.698C179.628 372.838 179.866 372.908 180.155 372.908ZM188.06 374.168C187.435 374.168 186.87 374.028 186.366 373.748C185.871 373.459 185.475 373.048 185.176 372.516C184.887 371.975 184.742 371.326 184.742 370.57C184.742 369.805 184.901 369.156 185.218 368.624C185.535 368.083 185.955 367.672 186.478 367.392C187.01 367.103 187.579 366.958 188.186 366.958C188.625 366.958 189.007 367.033 189.334 367.182C189.661 367.331 189.95 367.513 190.202 367.728L189.418 368.778C189.241 368.619 189.059 368.498 188.872 368.414C188.685 368.321 188.485 368.274 188.27 368.274C187.719 368.274 187.267 368.484 186.912 368.904C186.567 369.324 186.394 369.879 186.394 370.57C186.394 371.251 186.562 371.802 186.898 372.222C187.243 372.642 187.687 372.852 188.228 372.852C188.499 372.852 188.751 372.796 188.984 372.684C189.227 372.563 189.446 372.423 189.642 372.264L190.3 373.328C189.983 373.608 189.628 373.818 189.236 373.958C188.844 374.098 188.452 374.168 188.06 374.168ZM194.255 374.168C193.62 374.168 193.046 374.028 192.533 373.748C192.02 373.459 191.614 373.048 191.315 372.516C191.016 371.975 190.867 371.326 190.867 370.57C190.867 369.823 191.016 369.179 191.315 368.638C191.623 368.097 192.02 367.681 192.505 367.392C192.99 367.103 193.499 366.958 194.031 366.958C194.656 366.958 195.179 367.098 195.599 367.378C196.019 367.649 196.336 368.031 196.551 368.526C196.766 369.011 196.873 369.576 196.873 370.22C196.873 370.556 196.85 370.817 196.803 371.004L192.435 371.004C192.51 371.611 192.729 372.082 193.093 372.418C193.457 372.754 193.914 372.922 194.465 372.922C194.764 372.922 195.039 372.88 195.291 372.796C195.552 372.703 195.809 372.577 196.061 372.418L196.607 373.426C196.28 373.641 195.916 373.818 195.515 373.958C195.114 374.098 194.694 374.168 194.255 374.168ZM192.421 369.912L195.473 369.912C195.473 369.38 195.356 368.965 195.123 368.666C194.89 368.358 194.54 368.204 194.073 368.204C193.672 368.204 193.312 368.353 192.995 368.652C192.687 368.941 192.496 369.361 192.421 369.912ZM198.411 374L198.411 364.116L200.021 364.116L200.021 366.664L199.965 367.994C200.254 367.723 200.576 367.485 200.931 367.28C201.285 367.065 201.696 366.958 202.163 366.958C202.9 366.958 203.437 367.196 203.773 367.672C204.109 368.148 204.277 368.82 204.277 369.688L204.277 374L202.667 374L202.667 369.898C202.667 369.329 202.583 368.927 202.415 368.694C202.247 368.461 201.971 368.344 201.589 368.344C201.29 368.344 201.024 368.419 200.791 368.568C200.567 368.708 200.31 368.918 200.021 369.198L200.021 374L198.411 374ZM209.031 374.168C208.462 374.168 207.93 374.028 207.435 373.748C206.941 373.459 206.539 373.048 206.231 372.516C205.923 371.975 205.769 371.326 205.769 370.57C205.769 369.805 205.923 369.156 206.231 368.624C206.539 368.083 206.941 367.672 207.435 367.392C207.93 367.103 208.462 366.958 209.031 366.958C209.61 366.958 210.147 367.103 210.641 367.392C211.136 367.672 211.537 368.083 211.845 368.624C212.153 369.156 212.307 369.805 212.307 370.57C212.307 371.326 212.153 371.975 211.845 372.516C211.537 373.048 211.136 373.459 210.641 373.748C210.147 374.028 209.61 374.168 209.031 374.168ZM209.031 372.852C209.535 372.852 209.932 372.642 210.221 372.222C210.511 371.802 210.655 371.251 210.655 370.57C210.655 369.879 210.511 369.324 210.221 368.904C209.932 368.484 209.535 368.274 209.031 368.274C208.527 368.274 208.131 368.484 207.841 368.904C207.561 369.324 207.421 369.879 207.421 370.57C207.421 371.251 207.561 371.802 207.841 372.222C208.131 372.642 208.527 372.852 209.031 372.852ZM215.469 374.168C214.9 374.168 214.494 373.995 214.251 373.65C214.018 373.305 213.901 372.833 213.901 372.236L213.901 364.116L215.511 364.116L215.511 372.32C215.511 372.516 215.548 372.656 215.623 372.74C215.698 372.815 215.777 372.852 215.861 372.852C215.898 372.852 215.931 372.852 215.959 372.852C215.996 372.843 216.048 372.833 216.113 372.824L216.323 374.028C216.23 374.065 216.108 374.098 215.959 374.126C215.819 374.154 215.656 374.168 215.469 374.168ZM220.11 374.168C219.251 374.168 218.565 373.851 218.052 373.216C217.538 372.581 217.282 371.699 217.282 370.57C217.282 369.823 217.417 369.179 217.688 368.638C217.968 368.097 218.332 367.681 218.78 367.392C219.228 367.103 219.699 366.958 220.194 366.958C220.586 366.958 220.917 367.028 221.188 367.168C221.468 367.299 221.738 367.481 222 367.714L221.944 366.608L221.944 364.116L223.554 364.116L223.554 374L222.224 374L222.112 373.258L222.056 373.258C221.804 373.51 221.51 373.725 221.174 373.902C220.838 374.079 220.483 374.168 220.11 374.168ZM220.502 372.838C221.015 372.838 221.496 372.581 221.944 372.068L221.944 368.862C221.71 368.647 221.477 368.498 221.244 368.414C221.01 368.33 220.777 368.288 220.544 368.288C220.105 368.288 219.727 368.489 219.41 368.89C219.102 369.282 218.948 369.837 218.948 370.556C218.948 371.293 219.083 371.858 219.354 372.25C219.624 372.642 220.007 372.838 220.502 372.838ZM228.544 374.168C227.909 374.168 227.335 374.028 226.822 373.748C226.309 373.459 225.903 373.048 225.604 372.516C225.305 371.975 225.156 371.326 225.156 370.57C225.156 369.823 225.305 369.179 225.604 368.638C225.912 368.097 226.309 367.681 226.794 367.392C227.279 367.103 227.788 366.958 228.32 366.958C228.945 366.958 229.468 367.098 229.888 367.378C230.308 367.649 230.625 368.031 230.84 368.526C231.055 369.011 231.162 369.576 231.162 370.22C231.162 370.556 231.139 370.817 231.092 371.004L226.724 371.004C226.799 371.611 227.018 372.082 227.382 372.418C227.746 372.754 228.203 372.922 228.754 372.922C229.053 372.922 229.328 372.88 229.58 372.796C229.841 372.703 230.098 372.577 230.35 372.418L230.896 373.426C230.569 373.641 230.205 373.818 229.804 373.958C229.403 374.098 228.983 374.168 228.544 374.168ZM226.71 369.912L229.762 369.912C229.762 369.38 229.645 368.965 229.412 368.666C229.179 368.358 228.829 368.204 228.362 368.204C227.961 368.204 227.601 368.353 227.284 368.652C226.976 368.941 226.785 369.361 226.71 369.912ZM232.7 374L232.7 367.126L234.03 367.126L234.142 368.344L234.198 368.344C234.44 367.896 234.734 367.555 235.08 367.322C235.425 367.079 235.78 366.958 236.144 366.958C236.47 366.958 236.732 367.005 236.928 367.098L236.648 368.498C236.526 368.461 236.414 368.433 236.312 368.414C236.209 368.395 236.083 368.386 235.934 368.386C235.663 368.386 235.378 368.493 235.08 368.708C234.781 368.913 234.524 369.277 234.31 369.8L234.31 374L232.7 374Z" fill="#354052"/>
</g>
</g>
<defs>
<filter id="filter0_i_1108_2874" x="151" y="60" width="150.63" height="36.99" filterUnits="userSpaceOnUse" color-interpolation-filters="sRGB">
<feFlood flood-opacity="0" result="BackgroundImageFix"/>
<feBlend mode="normal" in="SourceGraphic" in2="BackgroundImageFix" result="shape"/>
<feColorMatrix in="SourceAlpha" type="matrix" values="0 0 0 0 0 0 0 0 0 0 0 0 0 0 0 0 0 0 127 0" result="hardAlpha"/>
<feMorphology radius="1" operator="erode" in="SourceAlpha" result="effect1_innerShadow_1108_2874"/>
<feOffset/>
<feComposite in2="hardAlpha" operator="arithmetic" k2="-1" k3="1"/>
<feColorMatrix type="matrix" values="0 0 0 0 0 0 0 0 0 0 0 0 0 0 0 0 0 0 0.1 0"/>
<feBlend mode="normal" in2="shape" result="effect1_innerShadow_1108_2874"/>
</filter>
<filter id="filter1_i_1108_2874" x="300.63" y="60" width="30.36" height="36.99" filterUnits="userSpaceOnUse" color-interpolation-filters="sRGB">
<feFlood flood-opacity="0" result="BackgroundImageFix"/>
<feBlend mode="normal" in="SourceGraphic" in2="BackgroundImageFix" result="shape"/>
<feColorMatrix in="SourceAlpha" type="matrix" values="0 0 0 0 0 0 0 0 0 0 0 0 0 0 0 0 0 0 127 0" result="hardAlpha"/>
<feMorphology radius="1" operator="erode" in="SourceAlpha" result="effect1_innerShadow_1108_2874"/>
<feOffset/>
<feComposite in2="hardAlpha" operator="arithmetic" k2="-1" k3="1"/>
<feColorMatrix type="matrix" values="0 0 0 0 0 0 0 0 0 0 0 0 0 0 0 0 0 0 0.1 0"/>
<feBlend mode="normal" in2="shape" result="effect1_innerShadow_1108_2874"/>
</filter>
<filter id="filter2_i_1108_2874" x="151" y="166" width="150.63" height="36.99" filterUnits="userSpaceOnUse" color-interpolation-filters="sRGB">
<feFlood flood-opacity="0" result="BackgroundImageFix"/>
<feBlend mode="normal" in="SourceGraphic" in2="BackgroundImageFix" result="shape"/>
<feColorMatrix in="SourceAlpha" type="matrix" values="0 0 0 0 0 0 0 0 0 0 0 0 0 0 0 0 0 0 127 0" result="hardAlpha"/>
<feMorphology radius="1" operator="erode" in="SourceAlpha" result="effect1_innerShadow_1108_2874"/>
<feOffset/>
<feComposite in2="hardAlpha" operator="arithmetic" k2="-1" k3="1"/>
<feColorMatrix type="matrix" values="0 0 0 0 0 0 0 0 0 0 0 0 0 0 0 0 0 0 0.1 0"/>
<feBlend mode="normal" in2="shape" result="effect1_innerShadow_1108_2874"/>
</filter>
<filter id="filter3_i_1108_2874" x="300.63" y="166" width="30.36" height="36.99" filterUnits="userSpaceOnUse" color-interpolation-filters="sRGB">
<feFlood flood-opacity="0" result="BackgroundImageFix"/>
<feBlend mode="normal" in="SourceGraphic" in2="BackgroundImageFix" result="shape"/>
<feColorMatrix in="SourceAlpha" type="matrix" values="0 0 0 0 0 0 0 0 0 0 0 0 0 0 0 0 0 0 127 0" result="hardAlpha"/>
<feMorphology radius="1" operator="erode" in="SourceAlpha" result="effect1_innerShadow_1108_2874"/>
<feOffset/>
<feComposite in2="hardAlpha" operator="arithmetic" k2="-1" k3="1"/>
<feColorMatrix type="matrix" values="0 0 0 0 0 0 0 0 0 0 0 0 0 0 0 0 0 0 0.1 0"/>
<feBlend mode="normal" in2="shape" result="effect1_innerShadow_1108_2874"/>
</filter>
<clipPath id="clip0_1108_2874">
<rect y="0.956787" width="496" height="438" rx="5" fill="white"/>
</clipPath>
<clipPath id="clip1_1108_2874">
<rect width="180" height="185" fill="white" transform="translate(151 203)"/>
</clipPath>
</defs>
</svg>
