<svg width="649" height="292" viewBox="0 0 649 292" fill="none" xmlns="http://www.w3.org/2000/svg">
<rect width="649" height="292" rx="5" fill="#FAFAFA"/>
<rect width="580" height="228" transform="translate(32 32)" fill="#FAFAFA"/>
<path d="M33.26 225V215.816H35.878C36.5687 215.816 37.1707 215.9 37.684 216.068C38.1973 216.236 38.5987 216.521 38.888 216.922C39.1773 217.314 39.322 217.846 39.322 218.518C39.322 219.479 39.0093 220.193 38.384 220.66C37.7587 221.127 36.942 221.36 35.934 221.36H34.422V225H33.26ZM34.422 220.408H35.794C36.5967 220.408 37.1893 220.259 37.572 219.96C37.964 219.652 38.16 219.171 38.16 218.518C38.16 217.855 37.9547 217.398 37.544 217.146C37.1427 216.885 36.5407 216.754 35.738 216.754H34.422V220.408ZM41.0777 225V218.196H42.0297L42.1277 219.428H42.1697C42.403 218.999 42.6877 218.658 43.0237 218.406C43.3597 218.154 43.719 218.028 44.1017 218.028C44.3724 218.028 44.615 218.075 44.8297 218.168L44.6057 219.176C44.4937 219.139 44.391 219.111 44.2977 219.092C44.2044 219.073 44.0877 219.064 43.9477 219.064C43.6584 219.064 43.355 219.181 43.0377 219.414C42.7297 219.647 42.459 220.053 42.2257 220.632V225H41.0777ZM48.5525 225.168C47.9458 225.168 47.3952 225.028 46.9005 224.748C46.4058 224.459 46.0138 224.048 45.7245 223.516C45.4352 222.984 45.2905 222.349 45.2905 221.612C45.2905 220.865 45.4352 220.226 45.7245 219.694C46.0232 219.162 46.4058 218.751 46.8725 218.462C47.3392 218.173 47.8292 218.028 48.3425 218.028C49.2105 218.028 49.8778 218.317 50.3445 218.896C50.8205 219.475 51.0585 220.249 51.0585 221.22C51.0585 221.341 51.0538 221.463 51.0445 221.584C51.0445 221.696 51.0352 221.794 51.0165 221.878H46.4245C46.4712 222.597 46.6952 223.171 47.0965 223.6C47.5072 224.029 48.0392 224.244 48.6925 224.244C49.0192 224.244 49.3178 224.197 49.5885 224.104C49.8685 224.001 50.1345 223.871 50.3865 223.712L50.7925 224.468C50.5032 224.655 50.1718 224.818 49.7985 224.958C49.4345 225.098 49.0192 225.168 48.5525 225.168ZM46.4105 221.052H50.0505C50.0505 220.361 49.9012 219.839 49.6025 219.484C49.3132 219.12 48.9025 218.938 48.3705 218.938C47.8945 218.938 47.4652 219.125 47.0825 219.498C46.7092 219.862 46.4852 220.38 46.4105 221.052ZM54.5178 225.168C54.0325 225.168 53.5705 225.079 53.1318 224.902C52.6931 224.715 52.3105 224.491 51.9838 224.23L52.5578 223.46C52.8565 223.693 53.1645 223.889 53.4818 224.048C53.7991 224.197 54.1585 224.272 54.5598 224.272C55.0078 224.272 55.3438 224.169 55.5678 223.964C55.7918 223.749 55.9038 223.497 55.9038 223.208C55.9038 222.975 55.8245 222.779 55.6658 222.62C55.5165 222.461 55.3205 222.331 55.0778 222.228C54.8445 222.116 54.6018 222.013 54.3498 221.92C54.0325 221.799 53.7198 221.663 53.4118 221.514C53.1038 221.355 52.8518 221.155 52.6558 220.912C52.4598 220.66 52.3618 220.343 52.3618 219.96C52.3618 219.409 52.5671 218.952 52.9778 218.588C53.3978 218.215 53.9765 218.028 54.7138 218.028C55.1338 218.028 55.5258 218.103 55.8898 218.252C56.2538 218.401 56.5665 218.583 56.8278 218.798L56.2678 219.526C56.0345 219.349 55.7918 219.204 55.5398 219.092C55.2878 218.98 55.0125 218.924 54.7138 218.924C54.2845 218.924 53.9671 219.022 53.7618 219.218C53.5658 219.414 53.4678 219.643 53.4678 219.904C53.4678 220.119 53.5378 220.296 53.6778 220.436C53.8178 220.567 53.9998 220.683 54.2238 220.786C54.4478 220.879 54.6858 220.977 54.9378 221.08C55.2645 221.201 55.5865 221.341 55.9038 221.5C56.2211 221.649 56.4825 221.855 56.6878 222.116C56.9025 222.368 57.0098 222.709 57.0098 223.138C57.0098 223.502 56.9118 223.838 56.7158 224.146C56.5291 224.454 56.2491 224.701 55.8758 224.888C55.5118 225.075 55.0591 225.168 54.5178 225.168ZM60.383 225.168C59.8977 225.168 59.4357 225.079 58.997 224.902C58.5584 224.715 58.1757 224.491 57.849 224.23L58.423 223.46C58.7217 223.693 59.0297 223.889 59.347 224.048C59.6644 224.197 60.0237 224.272 60.425 224.272C60.873 224.272 61.209 224.169 61.433 223.964C61.657 223.749 61.769 223.497 61.769 223.208C61.769 222.975 61.6897 222.779 61.531 222.62C61.3817 222.461 61.1857 222.331 60.943 222.228C60.7097 222.116 60.467 222.013 60.215 221.92C59.8977 221.799 59.585 221.663 59.277 221.514C58.969 221.355 58.717 221.155 58.521 220.912C58.325 220.66 58.227 220.343 58.227 219.96C58.227 219.409 58.4324 218.952 58.843 218.588C59.263 218.215 59.8417 218.028 60.579 218.028C60.999 218.028 61.391 218.103 61.755 218.252C62.119 218.401 62.4317 218.583 62.693 218.798L62.133 219.526C61.8997 219.349 61.657 219.204 61.405 219.092C61.153 218.98 60.8777 218.924 60.579 218.924C60.1497 218.924 59.8324 219.022 59.627 219.218C59.431 219.414 59.333 219.643 59.333 219.904C59.333 220.119 59.403 220.296 59.543 220.436C59.683 220.567 59.865 220.683 60.089 220.786C60.313 220.879 60.551 220.977 60.803 221.08C61.1297 221.201 61.4517 221.341 61.769 221.5C62.0864 221.649 62.3477 221.855 62.553 222.116C62.7677 222.368 62.875 222.709 62.875 223.138C62.875 223.502 62.777 223.838 62.581 224.146C62.3944 224.454 62.1144 224.701 61.741 224.888C61.377 225.075 60.9244 225.168 60.383 225.168ZM67.2283 225.168C66.6216 225.168 66.0709 225.028 65.5763 224.748C65.0816 224.459 64.6896 224.048 64.4003 223.516C64.1109 222.984 63.9663 222.349 63.9663 221.612C63.9663 220.865 64.1109 220.226 64.4003 219.694C64.6989 219.162 65.0816 218.751 65.5483 218.462C66.0149 218.173 66.5049 218.028 67.0183 218.028C67.8863 218.028 68.5536 218.317 69.0203 218.896C69.4963 219.475 69.7343 220.249 69.7343 221.22C69.7343 221.341 69.7296 221.463 69.7203 221.584C69.7203 221.696 69.7109 221.794 69.6923 221.878H65.1003C65.1469 222.597 65.3709 223.171 65.7723 223.6C66.1829 224.029 66.7149 224.244 67.3683 224.244C67.6949 224.244 67.9936 224.197 68.2643 224.104C68.5443 224.001 68.8103 223.871 69.0623 223.712L69.4683 224.468C69.1789 224.655 68.8476 224.818 68.4743 224.958C68.1103 225.098 67.6949 225.168 67.2283 225.168ZM65.0863 221.052H68.7263C68.7263 220.361 68.5769 219.839 68.2783 219.484C67.9889 219.12 67.5783 218.938 67.0463 218.938C66.5703 218.938 66.1409 219.125 65.7583 219.498C65.3849 219.862 65.1609 220.38 65.0863 221.052ZM73.7396 225.168C72.8902 225.168 72.2089 224.86 71.6956 224.244C71.1822 223.619 70.9256 222.741 70.9256 221.612C70.9256 220.875 71.0609 220.24 71.3316 219.708C71.6116 219.167 71.9756 218.751 72.4236 218.462C72.8809 218.173 73.3662 218.028 73.8796 218.028C74.2716 218.028 74.6122 218.098 74.9016 218.238C75.1909 218.378 75.4849 218.569 75.7836 218.812L75.7276 217.65V215.032H76.8896V225H75.9376L75.8396 224.202H75.7976C75.5362 224.463 75.2282 224.692 74.8736 224.888C74.5189 225.075 74.1409 225.168 73.7396 225.168ZM73.9916 224.202C74.5889 224.202 75.1676 223.889 75.7276 223.264V219.708C75.4382 219.447 75.1582 219.265 74.8876 219.162C74.6262 219.05 74.3556 218.994 74.0756 218.994C73.7116 218.994 73.3802 219.106 73.0816 219.33C72.7922 219.545 72.5589 219.848 72.3816 220.24C72.2042 220.623 72.1156 221.075 72.1156 221.598C72.1156 222.41 72.2789 223.049 72.6056 223.516C72.9322 223.973 73.3942 224.202 73.9916 224.202Z" fill="black"/>
<path d="M33.26 162V152.816H34.422V156.666H38.692V152.816H39.868V162H38.692V157.674H34.422V162H33.26ZM44.9268 162.168C44.3761 162.168 43.8581 162.028 43.3728 161.748C42.8968 161.468 42.5095 161.062 42.2108 160.53C41.9215 159.998 41.7768 159.359 41.7768 158.612C41.7768 157.847 41.9215 157.198 42.2108 156.666C42.5095 156.134 42.8968 155.728 43.3728 155.448C43.8581 155.168 44.3761 155.028 44.9268 155.028C45.4868 155.028 46.0048 155.168 46.4808 155.448C46.9568 155.728 47.3395 156.134 47.6288 156.666C47.9275 157.198 48.0768 157.847 48.0768 158.612C48.0768 159.359 47.9275 159.998 47.6288 160.53C47.3395 161.062 46.9568 161.468 46.4808 161.748C46.0048 162.028 45.4868 162.168 44.9268 162.168ZM44.9268 161.216C45.5148 161.216 45.9861 160.978 46.3408 160.502C46.7048 160.017 46.8868 159.387 46.8868 158.612C46.8868 157.828 46.7048 157.193 46.3408 156.708C45.9861 156.223 45.5148 155.98 44.9268 155.98C44.3481 155.98 43.8768 156.223 43.5128 156.708C43.1488 157.193 42.9668 157.828 42.9668 158.612C42.9668 159.387 43.1488 160.017 43.5128 160.502C43.8768 160.978 44.3481 161.216 44.9268 161.216ZM51.284 162L48.834 155.196H50.024L51.312 159.06C51.4147 159.396 51.5173 159.732 51.62 160.068C51.732 160.404 51.8393 160.735 51.942 161.062H51.998C52.1007 160.735 52.2033 160.404 52.306 160.068C52.418 159.732 52.5207 159.396 52.614 159.06L53.902 155.196H55.036L52.628 162H51.284ZM59.0525 162.168C58.4458 162.168 57.8952 162.028 57.4005 161.748C56.9058 161.459 56.5138 161.048 56.2245 160.516C55.9352 159.984 55.7905 159.349 55.7905 158.612C55.7905 157.865 55.9352 157.226 56.2245 156.694C56.5232 156.162 56.9058 155.751 57.3725 155.462C57.8392 155.173 58.3292 155.028 58.8425 155.028C59.7105 155.028 60.3778 155.317 60.8445 155.896C61.3205 156.475 61.5585 157.249 61.5585 158.22C61.5585 158.341 61.5538 158.463 61.5445 158.584C61.5445 158.696 61.5352 158.794 61.5165 158.878H56.9245C56.9712 159.597 57.1952 160.171 57.5965 160.6C58.0072 161.029 58.5392 161.244 59.1925 161.244C59.5192 161.244 59.8178 161.197 60.0885 161.104C60.3685 161.001 60.6345 160.871 60.8865 160.712L61.2925 161.468C61.0032 161.655 60.6718 161.818 60.2985 161.958C59.9345 162.098 59.5192 162.168 59.0525 162.168ZM56.9105 158.052H60.5505C60.5505 157.361 60.4012 156.839 60.1025 156.484C59.8132 156.12 59.4025 155.938 58.8705 155.938C58.3945 155.938 57.9652 156.125 57.5825 156.498C57.2092 156.862 56.9852 157.38 56.9105 158.052ZM63.2398 162V155.196H64.1918L64.2898 156.428H64.3318C64.5651 155.999 64.8498 155.658 65.1858 155.406C65.5218 155.154 65.8811 155.028 66.2638 155.028C66.5345 155.028 66.7771 155.075 66.9918 155.168L66.7678 156.176C66.6558 156.139 66.5531 156.111 66.4598 156.092C66.3665 156.073 66.2498 156.064 66.1098 156.064C65.8205 156.064 65.5171 156.181 65.1998 156.414C64.8918 156.647 64.6211 157.053 64.3878 157.632V162H63.2398ZM70.7146 162.168C70.1079 162.168 69.5573 162.028 69.0626 161.748C68.5679 161.459 68.1759 161.048 67.8866 160.516C67.5973 159.984 67.4526 159.349 67.4526 158.612C67.4526 157.865 67.5973 157.226 67.8866 156.694C68.1853 156.162 68.5679 155.751 69.0346 155.462C69.5013 155.173 69.9913 155.028 70.5046 155.028C71.3726 155.028 72.0399 155.317 72.5066 155.896C72.9826 156.475 73.2206 157.249 73.2206 158.22C73.2206 158.341 73.2159 158.463 73.2066 158.584C73.2066 158.696 73.1973 158.794 73.1786 158.878H68.5866C68.6333 159.597 68.8573 160.171 69.2586 160.6C69.6693 161.029 70.2013 161.244 70.8546 161.244C71.1813 161.244 71.4799 161.197 71.7506 161.104C72.0306 161.001 72.2966 160.871 72.5486 160.712L72.9546 161.468C72.6653 161.655 72.3339 161.818 71.9606 161.958C71.5966 162.098 71.1813 162.168 70.7146 162.168ZM68.5726 158.052H72.2126C72.2126 157.361 72.0633 156.839 71.7646 156.484C71.4753 156.12 71.0646 155.938 70.5326 155.938C70.0566 155.938 69.6273 156.125 69.2446 156.498C68.8713 156.862 68.6473 157.38 68.5726 158.052ZM77.2259 162.168C76.3766 162.168 75.6952 161.86 75.1819 161.244C74.6686 160.619 74.4119 159.741 74.4119 158.612C74.4119 157.875 74.5472 157.24 74.8179 156.708C75.0979 156.167 75.4619 155.751 75.9099 155.462C76.3672 155.173 76.8526 155.028 77.3659 155.028C77.7579 155.028 78.0986 155.098 78.3879 155.238C78.6772 155.378 78.9712 155.569 79.2699 155.812L79.2139 154.65V152.032H80.3759V162H79.4239L79.3259 161.202H79.2839C79.0226 161.463 78.7146 161.692 78.3599 161.888C78.0052 162.075 77.6272 162.168 77.2259 162.168ZM77.4779 161.202C78.0752 161.202 78.6539 160.889 79.2139 160.264V156.708C78.9246 156.447 78.6446 156.265 78.3739 156.162C78.1126 156.05 77.8419 155.994 77.5619 155.994C77.1979 155.994 76.8666 156.106 76.5679 156.33C76.2786 156.545 76.0452 156.848 75.8679 157.24C75.6906 157.623 75.6019 158.075 75.6019 158.598C75.6019 159.41 75.7652 160.049 76.0919 160.516C76.4186 160.973 76.8806 161.202 77.4779 161.202Z" fill="black"/>
<path d="M33.26 98V88.816H35.556C36.9747 88.816 38.0527 89.2127 38.79 90.006C39.5273 90.79 39.896 91.91 39.896 93.366C39.896 94.8313 39.5273 95.97 38.79 96.782C38.062 97.594 37.0027 98 35.612 98H33.26ZM34.422 97.048H35.472C36.5453 97.048 37.348 96.726 37.88 96.082C38.4213 95.4287 38.692 94.5233 38.692 93.366C38.692 92.2087 38.4213 91.322 37.88 90.706C37.348 90.0807 36.5453 89.768 35.472 89.768H34.422V97.048ZM44.5193 98.168C43.9126 98.168 43.3619 98.028 42.8673 97.748C42.3726 97.4587 41.9806 97.048 41.6913 96.516C41.4019 95.984 41.2573 95.3493 41.2573 94.612C41.2573 93.8653 41.4019 93.226 41.6913 92.694C41.9899 92.162 42.3726 91.7513 42.8393 91.462C43.3059 91.1727 43.7959 91.028 44.3093 91.028C45.1773 91.028 45.8446 91.3173 46.3113 91.896C46.7873 92.4747 47.0253 93.2493 47.0253 94.22C47.0253 94.3413 47.0206 94.4627 47.0113 94.584C47.0113 94.696 47.0019 94.794 46.9833 94.878H42.3913C42.4379 95.5967 42.6619 96.1707 43.0633 96.6C43.4739 97.0293 44.0059 97.244 44.6593 97.244C44.9859 97.244 45.2846 97.1973 45.5553 97.104C45.8353 97.0013 46.1013 96.8707 46.3533 96.712L46.7593 97.468C46.4699 97.6547 46.1386 97.818 45.7653 97.958C45.4013 98.098 44.9859 98.168 44.5193 98.168ZM42.3773 94.052H46.0173C46.0173 93.3613 45.8679 92.8387 45.5693 92.484C45.2799 92.12 44.8693 91.938 44.3373 91.938C43.8613 91.938 43.4319 92.1247 43.0493 92.498C42.6759 92.862 42.4519 93.38 42.3773 94.052ZM48.9026 98V92.134H47.9786V91.266L48.9026 91.196V90.118C48.9026 89.4273 49.0613 88.8813 49.3786 88.48C49.7053 88.0693 50.2093 87.864 50.8906 87.864C51.1053 87.864 51.3106 87.8873 51.5066 87.934C51.7026 87.9713 51.8753 88.0227 52.0246 88.088L51.7726 88.97C51.5206 88.858 51.2639 88.802 51.0026 88.802C50.3679 88.802 50.0506 89.2407 50.0506 90.118V91.196H51.4926V92.134H50.0506V98H48.9026ZM54.089 98.168C53.5197 98.168 53.0437 98 52.661 97.664C52.2877 97.3187 52.101 96.8427 52.101 96.236C52.101 95.4893 52.4324 94.92 53.095 94.528C53.767 94.1267 54.8264 93.8467 56.273 93.688C56.273 93.3987 56.231 93.1233 56.147 92.862C56.0724 92.6007 55.9324 92.3907 55.727 92.232C55.531 92.064 55.2464 91.98 54.873 91.98C54.481 91.98 54.1124 92.0547 53.767 92.204C53.4217 92.3533 53.1137 92.5213 52.843 92.708L52.395 91.91C52.7124 91.7047 53.0997 91.5087 53.557 91.322C54.0237 91.126 54.5277 91.028 55.069 91.028C55.8997 91.028 56.5017 91.2847 56.875 91.798C57.2484 92.302 57.435 92.9787 57.435 93.828V98H56.483L56.385 97.188H56.343C56.0257 97.4493 55.6757 97.678 55.293 97.874C54.9197 98.07 54.5184 98.168 54.089 98.168ZM54.425 97.244C54.7517 97.244 55.0597 97.1647 55.349 97.006C55.6384 96.8473 55.9464 96.6233 56.273 96.334V94.444C55.1437 94.584 54.3504 94.794 53.893 95.074C53.445 95.354 53.221 95.7133 53.221 96.152C53.221 96.5347 53.3377 96.8147 53.571 96.992C53.8044 97.16 54.089 97.244 54.425 97.244ZM61.5637 98.168C60.8451 98.168 60.3177 97.944 59.9817 97.496C59.6457 97.0387 59.4777 96.376 59.4777 95.508V91.196H60.6397V95.354C60.6397 95.9887 60.7377 96.4507 60.9337 96.74C61.1391 97.0293 61.4657 97.174 61.9137 97.174C62.2684 97.174 62.5811 97.0853 62.8517 96.908C63.1317 96.7213 63.4304 96.4273 63.7477 96.026V91.196H64.8957V98H63.9437L63.8457 96.936H63.8037C63.4864 97.3093 63.1504 97.608 62.7957 97.832C62.4411 98.056 62.0304 98.168 61.5637 98.168ZM68.409 98.168C67.9796 98.168 67.667 98.0373 67.471 97.776C67.2843 97.5053 67.191 97.1227 67.191 96.628V88.032H68.339V96.712C68.339 96.8893 68.3716 97.02 68.437 97.104C68.5023 97.1787 68.577 97.216 68.661 97.216C68.6983 97.216 68.731 97.216 68.759 97.216C68.7963 97.2067 68.8476 97.1973 68.913 97.188L69.067 98.056C68.9923 98.0933 68.9036 98.1213 68.801 98.14C68.6983 98.1587 68.5676 98.168 68.409 98.168ZM72.9013 98.168C72.1733 98.168 71.6647 97.958 71.3753 97.538C71.0953 97.118 70.9553 96.572 70.9553 95.9V92.134H69.9473V91.266L71.0113 91.196L71.1513 89.292H72.1173V91.196H73.9513V92.134H72.1173V95.914C72.1173 96.334 72.192 96.6607 72.3413 96.894C72.5 97.118 72.7753 97.23 73.1673 97.23C73.2887 97.23 73.4193 97.2113 73.5593 97.174C73.6993 97.1273 73.8253 97.0853 73.9373 97.048L74.1613 97.916C73.9747 97.9813 73.7693 98.0373 73.5453 98.084C73.3307 98.14 73.116 98.168 72.9013 98.168Z" fill="black"/>
<path d="M119.26 46V36.816H121.878C122.569 36.816 123.171 36.9 123.684 37.068C124.197 37.236 124.599 37.5207 124.888 37.922C125.177 38.314 125.322 38.846 125.322 39.518C125.322 40.4793 125.009 41.1933 124.384 41.66C123.759 42.1267 122.942 42.36 121.934 42.36H120.422V46H119.26ZM120.422 41.408H121.794C122.597 41.408 123.189 41.2587 123.572 40.96C123.964 40.652 124.16 40.1713 124.16 39.518C124.16 38.8553 123.955 38.398 123.544 38.146C123.143 37.8847 122.541 37.754 121.738 37.754H120.422V41.408ZM127.078 46V39.196H128.03L128.128 40.428H128.17C128.403 39.9987 128.688 39.658 129.024 39.406C129.36 39.154 129.719 39.028 130.102 39.028C130.372 39.028 130.615 39.0747 130.83 39.168L130.606 40.176C130.494 40.1387 130.391 40.1107 130.298 40.092C130.204 40.0733 130.088 40.064 129.948 40.064C129.658 40.064 129.355 40.1807 129.038 40.414C128.73 40.6473 128.459 41.0533 128.226 41.632V46H127.078ZM131.931 46V39.196H133.079V46H131.931ZM132.519 37.796C132.295 37.796 132.109 37.7307 131.959 37.6C131.819 37.46 131.749 37.2733 131.749 37.04C131.749 36.816 131.819 36.634 131.959 36.494C132.109 36.354 132.295 36.284 132.519 36.284C132.743 36.284 132.925 36.354 133.065 36.494C133.215 36.634 133.289 36.816 133.289 37.04C133.289 37.2733 133.215 37.46 133.065 37.6C132.925 37.7307 132.743 37.796 132.519 37.796ZM135.377 46V39.196H136.329L136.427 40.176H136.469C136.767 39.8493 137.094 39.5787 137.449 39.364C137.803 39.14 138.181 39.028 138.583 39.028C139.105 39.028 139.511 39.1447 139.801 39.378C140.099 39.602 140.319 39.9193 140.459 40.33C140.813 39.9473 141.173 39.6347 141.537 39.392C141.901 39.1493 142.288 39.028 142.699 39.028C143.399 39.028 143.917 39.2567 144.253 39.714C144.598 40.162 144.771 40.82 144.771 41.688V46H143.623V41.842C143.623 41.2073 143.52 40.7453 143.315 40.456C143.109 40.1667 142.792 40.022 142.363 40.022C141.859 40.022 141.289 40.372 140.655 41.072V46H139.507V41.842C139.507 41.2073 139.404 40.7453 139.199 40.456C138.993 40.1667 138.671 40.022 138.233 40.022C137.729 40.022 137.159 40.372 136.525 41.072V46H135.377ZM148.552 46.168C147.983 46.168 147.507 46 147.124 45.664C146.751 45.3187 146.564 44.8427 146.564 44.236C146.564 43.4893 146.895 42.92 147.558 42.528C148.23 42.1267 149.289 41.8467 150.736 41.688C150.736 41.3987 150.694 41.1233 150.61 40.862C150.535 40.6007 150.395 40.3907 150.19 40.232C149.994 40.064 149.709 39.98 149.336 39.98C148.944 39.98 148.575 40.0547 148.23 40.204C147.885 40.3533 147.577 40.5213 147.306 40.708L146.858 39.91C147.175 39.7047 147.563 39.5087 148.02 39.322C148.487 39.126 148.991 39.028 149.532 39.028C150.363 39.028 150.965 39.2847 151.338 39.798C151.711 40.302 151.898 40.9787 151.898 41.828V46H150.946L150.848 45.188H150.806C150.489 45.4493 150.139 45.678 149.756 45.874C149.383 46.07 148.981 46.168 148.552 46.168ZM148.888 45.244C149.215 45.244 149.523 45.1647 149.812 45.006C150.101 44.8473 150.409 44.6233 150.736 44.334V42.444C149.607 42.584 148.813 42.794 148.356 43.074C147.908 43.354 147.684 43.7133 147.684 44.152C147.684 44.5347 147.801 44.8147 148.034 44.992C148.267 45.16 148.552 45.244 148.888 45.244ZM154.039 46V39.196H154.991L155.089 40.428H155.131C155.364 39.9987 155.649 39.658 155.985 39.406C156.321 39.154 156.68 39.028 157.063 39.028C157.333 39.028 157.576 39.0747 157.791 39.168L157.567 40.176C157.455 40.1387 157.352 40.1107 157.259 40.092C157.165 40.0733 157.049 40.064 156.909 40.064C156.619 40.064 156.316 40.1807 155.999 40.414C155.691 40.6473 155.42 41.0533 155.187 41.632V46H154.039ZM159.36 48.926C159.21 48.926 159.066 48.912 158.926 48.884C158.795 48.856 158.674 48.8233 158.562 48.786L158.786 47.876C158.86 47.8947 158.944 47.9133 159.038 47.932C159.131 47.96 159.22 47.974 159.304 47.974C159.686 47.974 160.004 47.834 160.256 47.554C160.508 47.2833 160.704 46.938 160.844 46.518L160.998 46.014L158.268 39.196H159.458L160.844 42.962C160.946 43.2513 161.054 43.564 161.166 43.9C161.287 44.236 161.399 44.5627 161.502 44.88H161.558C161.66 44.572 161.758 44.25 161.852 43.914C161.945 43.578 162.038 43.2607 162.132 42.962L163.35 39.196H164.47L161.908 46.56C161.749 47.008 161.558 47.4093 161.334 47.764C161.119 48.1187 160.848 48.3987 160.522 48.604C160.204 48.8187 159.817 48.926 159.36 48.926Z" fill="black"/>
<path d="M359.808 46.168C359.164 46.168 358.567 46.0467 358.016 45.804C357.465 45.552 356.989 45.2207 356.588 44.81L357.288 43.998C357.615 44.3433 357.997 44.6233 358.436 44.838C358.884 45.0433 359.346 45.146 359.822 45.146C360.429 45.146 360.9 45.0107 361.236 44.74C361.572 44.46 361.74 44.096 361.74 43.648C361.74 43.3307 361.67 43.0787 361.53 42.892C361.399 42.7053 361.217 42.5467 360.984 42.416C360.76 42.2853 360.503 42.1547 360.214 42.024L358.898 41.45C358.609 41.3287 358.319 41.17 358.03 40.974C357.75 40.778 357.512 40.526 357.316 40.218C357.129 39.91 357.036 39.532 357.036 39.084C357.036 38.6173 357.157 38.202 357.4 37.838C357.652 37.4647 357.997 37.1753 358.436 36.97C358.875 36.7553 359.369 36.648 359.92 36.648C360.471 36.648 360.979 36.7553 361.446 36.97C361.913 37.1753 362.309 37.446 362.636 37.782L362.006 38.538C361.726 38.2673 361.413 38.0573 361.068 37.908C360.732 37.7493 360.349 37.67 359.92 37.67C359.407 37.67 358.991 37.7913 358.674 38.034C358.366 38.2767 358.212 38.6033 358.212 39.014C358.212 39.3033 358.287 39.546 358.436 39.742C358.595 39.9287 358.791 40.0827 359.024 40.204C359.257 40.3253 359.495 40.4373 359.738 40.54L361.04 41.1C361.395 41.2493 361.712 41.4313 361.992 41.646C362.281 41.8513 362.51 42.108 362.678 42.416C362.846 42.7147 362.93 43.0927 362.93 43.55C362.93 44.0353 362.804 44.4787 362.552 44.88C362.3 45.272 361.941 45.5847 361.474 45.818C361.007 46.0513 360.452 46.168 359.808 46.168ZM367.385 46.168C366.778 46.168 366.227 46.028 365.733 45.748C365.238 45.4587 364.846 45.048 364.557 44.516C364.267 43.984 364.123 43.3493 364.123 42.612C364.123 41.8653 364.267 41.226 364.557 40.694C364.855 40.162 365.238 39.7513 365.705 39.462C366.171 39.1727 366.661 39.028 367.175 39.028C368.043 39.028 368.71 39.3173 369.177 39.896C369.653 40.4747 369.891 41.2493 369.891 42.22C369.891 42.3413 369.886 42.4627 369.877 42.584C369.877 42.696 369.867 42.794 369.849 42.878H365.257C365.303 43.5967 365.527 44.1707 365.929 44.6C366.339 45.0293 366.871 45.244 367.525 45.244C367.851 45.244 368.15 45.1973 368.421 45.104C368.701 45.0013 368.967 44.8707 369.219 44.712L369.625 45.468C369.335 45.6547 369.004 45.818 368.631 45.958C368.267 46.098 367.851 46.168 367.385 46.168ZM365.243 42.052H368.883C368.883 41.3613 368.733 40.8387 368.435 40.484C368.145 40.12 367.735 39.938 367.203 39.938C366.727 39.938 366.297 40.1247 365.915 40.498C365.541 40.862 365.317 41.38 365.243 42.052ZM374.26 46.168C373.662 46.168 373.121 46.028 372.636 45.748C372.15 45.468 371.768 45.062 371.488 44.53C371.208 43.998 371.068 43.3587 371.068 42.612C371.068 41.8467 371.217 41.198 371.516 40.666C371.824 40.134 372.225 39.728 372.72 39.448C373.224 39.168 373.765 39.028 374.344 39.028C374.792 39.028 375.174 39.1073 375.492 39.266C375.818 39.4247 376.098 39.6113 376.332 39.826L375.744 40.582C375.548 40.4047 375.338 40.26 375.114 40.148C374.899 40.036 374.656 39.98 374.386 39.98C373.975 39.98 373.606 40.092 373.28 40.316C372.962 40.5307 372.71 40.8387 372.524 41.24C372.346 41.632 372.258 42.0893 372.258 42.612C372.258 43.3867 372.449 44.0167 372.832 44.502C373.224 44.978 373.732 45.216 374.358 45.216C374.675 45.216 374.969 45.1507 375.24 45.02C375.51 44.88 375.748 44.7167 375.954 44.53L376.458 45.3C376.15 45.5707 375.809 45.7853 375.436 45.944C375.062 46.0933 374.67 46.168 374.26 46.168ZM380.302 46.168C379.751 46.168 379.233 46.028 378.748 45.748C378.272 45.468 377.884 45.062 377.586 44.53C377.296 43.998 377.152 43.3587 377.152 42.612C377.152 41.8467 377.296 41.198 377.586 40.666C377.884 40.134 378.272 39.728 378.748 39.448C379.233 39.168 379.751 39.028 380.302 39.028C380.862 39.028 381.38 39.168 381.856 39.448C382.332 39.728 382.714 40.134 383.004 40.666C383.302 41.198 383.452 41.8467 383.452 42.612C383.452 43.3587 383.302 43.998 383.004 44.53C382.714 45.062 382.332 45.468 381.856 45.748C381.38 46.028 380.862 46.168 380.302 46.168ZM380.302 45.216C380.89 45.216 381.361 44.978 381.716 44.502C382.08 44.0167 382.262 43.3867 382.262 42.612C382.262 41.828 382.08 41.1933 381.716 40.708C381.361 40.2227 380.89 39.98 380.302 39.98C379.723 39.98 379.252 40.2227 378.888 40.708C378.524 41.1933 378.342 41.828 378.342 42.612C378.342 43.3867 378.524 44.0167 378.888 44.502C379.252 44.978 379.723 45.216 380.302 45.216ZM385.244 46V39.196H386.196L386.294 40.176H386.336C386.662 39.8493 387.008 39.5787 387.372 39.364C387.736 39.14 388.151 39.028 388.618 39.028C389.336 39.028 389.859 39.2567 390.186 39.714C390.522 40.162 390.69 40.82 390.69 41.688V46H389.542V41.842C389.542 41.2073 389.439 40.7453 389.234 40.456C389.028 40.1667 388.702 40.022 388.254 40.022C387.908 40.022 387.596 40.1107 387.316 40.288C387.045 40.4653 386.737 40.7267 386.392 41.072V46H385.244ZM395.224 46.168C394.375 46.168 393.693 45.86 393.18 45.244C392.667 44.6187 392.41 43.7413 392.41 42.612C392.41 41.8747 392.545 41.24 392.816 40.708C393.096 40.1667 393.46 39.7513 393.908 39.462C394.365 39.1727 394.851 39.028 395.364 39.028C395.756 39.028 396.097 39.098 396.386 39.238C396.675 39.378 396.969 39.5693 397.268 39.812L397.212 38.65V36.032H398.374V46H397.422L397.324 45.202H397.282C397.021 45.4633 396.713 45.692 396.358 45.888C396.003 46.0747 395.625 46.168 395.224 46.168ZM395.476 45.202C396.073 45.202 396.652 44.8893 397.212 44.264V40.708C396.923 40.4467 396.643 40.2647 396.372 40.162C396.111 40.05 395.84 39.994 395.56 39.994C395.196 39.994 394.865 40.106 394.566 40.33C394.277 40.5447 394.043 40.848 393.866 41.24C393.689 41.6227 393.6 42.0753 393.6 42.598C393.6 43.41 393.763 44.0493 394.09 44.516C394.417 44.9733 394.879 45.202 395.476 45.202ZM402.234 46.168C401.664 46.168 401.188 46 400.806 45.664C400.432 45.3187 400.246 44.8427 400.246 44.236C400.246 43.4893 400.577 42.92 401.24 42.528C401.912 42.1267 402.971 41.8467 404.418 41.688C404.418 41.3987 404.376 41.1233 404.292 40.862C404.217 40.6007 404.077 40.3907 403.872 40.232C403.676 40.064 403.391 39.98 403.018 39.98C402.626 39.98 402.257 40.0547 401.912 40.204C401.566 40.3533 401.258 40.5213 400.988 40.708L400.54 39.91C400.857 39.7047 401.244 39.5087 401.702 39.322C402.168 39.126 402.672 39.028 403.214 39.028C404.044 39.028 404.646 39.2847 405.02 39.798C405.393 40.302 405.58 40.9787 405.58 41.828V46H404.628L404.53 45.188H404.488C404.17 45.4493 403.82 45.678 403.438 45.874C403.064 46.07 402.663 46.168 402.234 46.168ZM402.57 45.244C402.896 45.244 403.204 45.1647 403.494 45.006C403.783 44.8473 404.091 44.6233 404.418 44.334V42.444C403.288 42.584 402.495 42.794 402.038 43.074C401.59 43.354 401.366 43.7133 401.366 44.152C401.366 44.5347 401.482 44.8147 401.716 44.992C401.949 45.16 402.234 45.244 402.57 45.244ZM407.72 46V39.196H408.672L408.77 40.428H408.812C409.046 39.9987 409.33 39.658 409.666 39.406C410.002 39.154 410.362 39.028 410.744 39.028C411.015 39.028 411.258 39.0747 411.472 39.168L411.248 40.176C411.136 40.1387 411.034 40.1107 410.94 40.092C410.847 40.0733 410.73 40.064 410.59 40.064C410.301 40.064 409.998 40.1807 409.68 40.414C409.372 40.6473 409.102 41.0533 408.868 41.632V46H407.72ZM413.041 48.926C412.892 48.926 412.747 48.912 412.607 48.884C412.477 48.856 412.355 48.8233 412.243 48.786L412.467 47.876C412.542 47.8947 412.626 47.9133 412.719 47.932C412.813 47.96 412.901 47.974 412.985 47.974C413.368 47.974 413.685 47.834 413.937 47.554C414.189 47.2833 414.385 46.938 414.525 46.518L414.679 46.014L411.949 39.196H413.139L414.525 42.962C414.628 43.2513 414.735 43.564 414.847 43.9C414.969 44.236 415.081 44.5627 415.183 44.88H415.239C415.342 44.572 415.44 44.25 415.533 43.914C415.627 43.578 415.72 43.2607 415.813 42.962L417.031 39.196H418.151L415.589 46.56C415.431 47.008 415.239 47.4093 415.015 47.764C414.801 48.1187 414.53 48.3987 414.203 48.604C413.886 48.8187 413.499 48.926 413.041 48.926Z" fill="black"/>
<path d="M356.5 146.043C356.5 144.11 358.067 142.543 360 142.543H522C523.933 142.543 525.5 144.11 525.5 146.043V172.043C525.5 173.976 523.933 175.543 522 175.543H360C358.067 175.543 356.5 173.976 356.5 172.043V146.043Z" fill="#1991EB"/>
<path d="M356.5 146.043C356.5 144.11 358.067 142.543 360 142.543H522C523.933 142.543 525.5 144.11 525.5 146.043V172.043C525.5 173.976 523.933 175.543 522 175.543H360C358.067 175.543 356.5 173.976 356.5 172.043V146.043Z" stroke="#1991EB"/>
<path d="M412.836 164.211C412.22 164.211 411.623 164.094 411.044 163.861C410.475 163.628 409.971 163.296 409.532 162.867L410.484 161.761C410.811 162.069 411.184 162.321 411.604 162.517C412.024 162.704 412.444 162.797 412.864 162.797C413.387 162.797 413.783 162.69 414.054 162.475C414.325 162.26 414.46 161.976 414.46 161.621C414.46 161.238 414.325 160.963 414.054 160.795C413.793 160.627 413.457 160.454 413.046 160.277L411.786 159.731C411.487 159.6 411.193 159.432 410.904 159.227C410.624 159.022 410.391 158.76 410.204 158.443C410.027 158.126 409.938 157.743 409.938 157.295C409.938 156.81 410.069 156.376 410.33 155.993C410.601 155.601 410.965 155.293 411.422 155.069C411.889 154.836 412.421 154.719 413.018 154.719C413.55 154.719 414.063 154.826 414.558 155.041C415.053 155.246 415.477 155.526 415.832 155.881L415.006 156.917C414.717 156.674 414.409 156.483 414.082 156.343C413.765 156.203 413.41 156.133 413.018 156.133C412.589 156.133 412.239 156.231 411.968 156.427C411.707 156.614 411.576 156.875 411.576 157.211C411.576 157.444 411.641 157.64 411.772 157.799C411.912 157.948 412.094 158.079 412.318 158.191C412.542 158.294 412.78 158.396 413.032 158.499L414.278 159.017C414.819 159.25 415.263 159.558 415.608 159.941C415.953 160.314 416.126 160.832 416.126 161.495C416.126 161.99 415.995 162.442 415.734 162.853C415.473 163.264 415.095 163.595 414.6 163.847C414.115 164.09 413.527 164.211 412.836 164.211ZM420.591 164.211C419.956 164.211 419.382 164.071 418.869 163.791C418.356 163.502 417.95 163.091 417.651 162.559C417.352 162.018 417.203 161.369 417.203 160.613C417.203 159.866 417.352 159.222 417.651 158.681C417.959 158.14 418.356 157.724 418.841 157.435C419.326 157.146 419.835 157.001 420.367 157.001C420.992 157.001 421.515 157.141 421.935 157.421C422.355 157.692 422.672 158.074 422.887 158.569C423.102 159.054 423.209 159.619 423.209 160.263C423.209 160.599 423.186 160.86 423.139 161.047H418.771C418.846 161.654 419.065 162.125 419.429 162.461C419.793 162.797 420.25 162.965 420.801 162.965C421.1 162.965 421.375 162.923 421.627 162.839C421.888 162.746 422.145 162.62 422.397 162.461L422.943 163.469C422.616 163.684 422.252 163.861 421.851 164.001C421.45 164.141 421.03 164.211 420.591 164.211ZM418.757 159.955H421.809C421.809 159.423 421.692 159.008 421.459 158.709C421.226 158.401 420.876 158.247 420.409 158.247C420.008 158.247 419.648 158.396 419.331 158.695C419.023 158.984 418.832 159.404 418.757 159.955ZM427.617 164.211C426.991 164.211 426.427 164.071 425.923 163.791C425.428 163.502 425.031 163.091 424.733 162.559C424.443 162.018 424.299 161.369 424.299 160.613C424.299 159.848 424.457 159.199 424.775 158.667C425.092 158.126 425.512 157.715 426.035 157.435C426.567 157.146 427.136 157.001 427.743 157.001C428.181 157.001 428.564 157.076 428.891 157.225C429.217 157.374 429.507 157.556 429.759 157.771L428.975 158.821C428.797 158.662 428.615 158.541 428.429 158.457C428.242 158.364 428.041 158.317 427.827 158.317C427.276 158.317 426.823 158.527 426.469 158.947C426.123 159.367 425.951 159.922 425.951 160.613C425.951 161.294 426.119 161.845 426.455 162.265C426.8 162.685 427.243 162.895 427.785 162.895C428.055 162.895 428.307 162.839 428.541 162.727C428.783 162.606 429.003 162.466 429.199 162.307L429.857 163.371C429.539 163.651 429.185 163.861 428.793 164.001C428.401 164.141 428.009 164.211 427.617 164.211ZM433.686 164.211C433.116 164.211 432.584 164.071 432.09 163.791C431.595 163.502 431.194 163.091 430.886 162.559C430.578 162.018 430.424 161.369 430.424 160.613C430.424 159.848 430.578 159.199 430.886 158.667C431.194 158.126 431.595 157.715 432.09 157.435C432.584 157.146 433.116 157.001 433.686 157.001C434.264 157.001 434.801 157.146 435.296 157.435C435.79 157.715 436.192 158.126 436.5 158.667C436.808 159.199 436.962 159.848 436.962 160.613C436.962 161.369 436.808 162.018 436.5 162.559C436.192 163.091 435.79 163.502 435.296 163.791C434.801 164.071 434.264 164.211 433.686 164.211ZM433.686 162.895C434.19 162.895 434.586 162.685 434.876 162.265C435.165 161.845 435.31 161.294 435.31 160.613C435.31 159.922 435.165 159.367 434.876 158.947C434.586 158.527 434.19 158.317 433.686 158.317C433.182 158.317 432.785 158.527 432.496 158.947C432.216 159.367 432.076 159.922 432.076 160.613C432.076 161.294 432.216 161.845 432.496 162.265C432.785 162.685 433.182 162.895 433.686 162.895ZM438.555 164.043V157.169H439.885L439.997 158.093H440.053C440.361 157.794 440.697 157.538 441.061 157.323C441.425 157.108 441.841 157.001 442.307 157.001C443.045 157.001 443.581 157.239 443.917 157.715C444.253 158.191 444.421 158.863 444.421 159.731V164.043H442.811V159.941C442.811 159.372 442.727 158.97 442.559 158.737C442.391 158.504 442.116 158.387 441.733 158.387C441.435 158.387 441.169 158.462 440.935 158.611C440.711 158.751 440.455 158.961 440.165 159.241V164.043H438.555ZM448.797 164.211C447.939 164.211 447.253 163.894 446.739 163.259C446.226 162.624 445.969 161.742 445.969 160.613C445.969 159.866 446.105 159.222 446.375 158.681C446.655 158.14 447.019 157.724 447.467 157.435C447.915 157.146 448.387 157.001 448.881 157.001C449.273 157.001 449.605 157.071 449.875 157.211C450.155 157.342 450.426 157.524 450.687 157.757L450.631 156.651V154.159H452.241V164.043H450.911L450.799 163.301H450.743C450.491 163.553 450.197 163.768 449.861 163.945C449.525 164.122 449.171 164.211 448.797 164.211ZM449.189 162.881C449.703 162.881 450.183 162.624 450.631 162.111V158.905C450.398 158.69 450.165 158.541 449.931 158.457C449.698 158.373 449.465 158.331 449.231 158.331C448.793 158.331 448.415 158.532 448.097 158.933C447.789 159.325 447.635 159.88 447.635 160.599C447.635 161.336 447.771 161.901 448.041 162.293C448.312 162.685 448.695 162.881 449.189 162.881ZM455.958 164.211C455.36 164.211 454.87 164.024 454.488 163.651C454.114 163.278 453.928 162.792 453.928 162.195C453.928 161.458 454.25 160.888 454.894 160.487C455.538 160.076 456.564 159.796 457.974 159.647C457.964 159.283 457.866 158.97 457.68 158.709C457.502 158.438 457.18 158.303 456.714 158.303C456.378 158.303 456.046 158.368 455.72 158.499C455.402 158.63 455.09 158.788 454.782 158.975L454.194 157.897C454.576 157.654 455.006 157.444 455.482 157.267C455.967 157.09 456.48 157.001 457.022 157.001C457.88 157.001 458.52 157.258 458.94 157.771C459.369 158.275 459.584 159.008 459.584 159.969V164.043H458.254L458.142 163.287H458.086C457.778 163.548 457.446 163.768 457.092 163.945C456.746 164.122 456.368 164.211 455.958 164.211ZM456.476 162.951C456.756 162.951 457.008 162.886 457.232 162.755C457.465 162.615 457.712 162.428 457.974 162.195V160.655C457.04 160.776 456.392 160.958 456.028 161.201C455.664 161.434 455.482 161.724 455.482 162.069C455.482 162.377 455.575 162.601 455.762 162.741C455.948 162.881 456.186 162.951 456.476 162.951ZM461.51 164.043V157.169H462.84L462.952 158.387H463.008C463.251 157.939 463.545 157.598 463.89 157.365C464.236 157.122 464.59 157.001 464.954 157.001C465.281 157.001 465.542 157.048 465.738 157.141L465.458 158.541C465.337 158.504 465.225 158.476 465.122 158.457C465.02 158.438 464.894 158.429 464.744 158.429C464.474 158.429 464.189 158.536 463.89 158.751C463.592 158.956 463.335 159.32 463.12 159.843V164.043H461.51ZM467.414 166.871C467.227 166.871 467.064 166.857 466.924 166.829C466.784 166.801 466.648 166.768 466.518 166.731L466.812 165.471C466.877 165.49 466.952 165.508 467.036 165.527C467.129 165.555 467.218 165.569 467.302 165.569C467.666 165.569 467.955 165.457 468.17 165.233C468.394 165.018 468.562 164.738 468.674 164.393L468.8 163.959L466.098 157.169H467.736L468.926 160.543C469.028 160.842 469.126 161.159 469.22 161.495C469.322 161.822 469.425 162.148 469.528 162.475H469.584C469.668 162.158 469.752 161.836 469.836 161.509C469.929 161.173 470.018 160.851 470.102 160.543L471.138 157.169H472.692L470.2 164.351C469.91 165.126 469.56 165.737 469.15 166.185C468.739 166.642 468.16 166.871 467.414 166.871Z" fill="white"/>
<path d="M356.5 82.043C356.5 80.11 358.067 78.543 360 78.543H522C523.933 78.543 525.5 80.11 525.5 82.043V108.043C525.5 109.976 523.933 111.543 522 111.543H360C358.067 111.543 356.5 109.976 356.5 108.043V82.043Z" fill="white"/>
<path d="M356.5 82.043C356.5 80.11 358.067 78.543 360 78.543H522C523.933 78.543 525.5 80.11 525.5 82.043V108.043C525.5 109.976 523.933 111.543 522 111.543H360C358.067 111.543 356.5 109.976 356.5 108.043V82.043Z" stroke="#1991EB"/>
<path d="M412.836 100.211C412.22 100.211 411.623 100.094 411.044 99.861C410.475 99.6276 409.971 99.2963 409.532 98.867L410.484 97.761C410.811 98.069 411.184 98.321 411.604 98.517C412.024 98.7036 412.444 98.797 412.864 98.797C413.387 98.797 413.783 98.6896 414.054 98.475C414.325 98.2603 414.46 97.9756 414.46 97.621C414.46 97.2383 414.325 96.963 414.054 96.795C413.793 96.627 413.457 96.4543 413.046 96.277L411.786 95.731C411.487 95.6003 411.193 95.4323 410.904 95.227C410.624 95.0216 410.391 94.7603 410.204 94.443C410.027 94.1256 409.938 93.743 409.938 93.295C409.938 92.8096 410.069 92.3756 410.33 91.993C410.601 91.601 410.965 91.293 411.422 91.069C411.889 90.8356 412.421 90.719 413.018 90.719C413.55 90.719 414.063 90.8263 414.558 91.041C415.053 91.2463 415.477 91.5263 415.832 91.881L415.006 92.917C414.717 92.6743 414.409 92.483 414.082 92.343C413.765 92.203 413.41 92.133 413.018 92.133C412.589 92.133 412.239 92.231 411.968 92.427C411.707 92.6136 411.576 92.875 411.576 93.211C411.576 93.4443 411.641 93.6403 411.772 93.799C411.912 93.9483 412.094 94.079 412.318 94.191C412.542 94.2936 412.78 94.3963 413.032 94.499L414.278 95.017C414.819 95.2503 415.263 95.5583 415.608 95.941C415.953 96.3143 416.126 96.8323 416.126 97.495C416.126 97.9896 415.995 98.4423 415.734 98.853C415.473 99.2636 415.095 99.595 414.6 99.847C414.115 100.09 413.527 100.211 412.836 100.211ZM420.591 100.211C419.956 100.211 419.382 100.071 418.869 99.791C418.356 99.5016 417.95 99.091 417.651 98.559C417.352 98.0176 417.203 97.369 417.203 96.613C417.203 95.8663 417.352 95.2223 417.651 94.681C417.959 94.1396 418.356 93.7243 418.841 93.435C419.326 93.1456 419.835 93.001 420.367 93.001C420.992 93.001 421.515 93.141 421.935 93.421C422.355 93.6916 422.672 94.0743 422.887 94.569C423.102 95.0543 423.209 95.619 423.209 96.263C423.209 96.599 423.186 96.8603 423.139 97.047H418.771C418.846 97.6536 419.065 98.125 419.429 98.461C419.793 98.797 420.25 98.965 420.801 98.965C421.1 98.965 421.375 98.923 421.627 98.839C421.888 98.7456 422.145 98.6196 422.397 98.461L422.943 99.469C422.616 99.6836 422.252 99.861 421.851 100.001C421.45 100.141 421.03 100.211 420.591 100.211ZM418.757 95.955H421.809C421.809 95.423 421.692 95.0076 421.459 94.709C421.226 94.401 420.876 94.247 420.409 94.247C420.008 94.247 419.648 94.3963 419.331 94.695C419.023 94.9843 418.832 95.4043 418.757 95.955ZM427.617 100.211C426.991 100.211 426.427 100.071 425.923 99.791C425.428 99.5016 425.031 99.091 424.733 98.559C424.443 98.0176 424.299 97.369 424.299 96.613C424.299 95.8476 424.457 95.199 424.775 94.667C425.092 94.1256 425.512 93.715 426.035 93.435C426.567 93.1456 427.136 93.001 427.743 93.001C428.181 93.001 428.564 93.0756 428.891 93.225C429.217 93.3743 429.507 93.5563 429.759 93.771L428.975 94.821C428.797 94.6623 428.615 94.541 428.429 94.457C428.242 94.3636 428.041 94.317 427.827 94.317C427.276 94.317 426.823 94.527 426.469 94.947C426.123 95.367 425.951 95.9223 425.951 96.613C425.951 97.2943 426.119 97.845 426.455 98.265C426.8 98.685 427.243 98.895 427.785 98.895C428.055 98.895 428.307 98.839 428.541 98.727C428.783 98.6056 429.003 98.4656 429.199 98.307L429.857 99.371C429.539 99.651 429.185 99.861 428.793 100.001C428.401 100.141 428.009 100.211 427.617 100.211ZM433.686 100.211C433.116 100.211 432.584 100.071 432.09 99.791C431.595 99.5016 431.194 99.091 430.886 98.559C430.578 98.0176 430.424 97.369 430.424 96.613C430.424 95.8476 430.578 95.199 430.886 94.667C431.194 94.1256 431.595 93.715 432.09 93.435C432.584 93.1456 433.116 93.001 433.686 93.001C434.264 93.001 434.801 93.1456 435.296 93.435C435.79 93.715 436.192 94.1256 436.5 94.667C436.808 95.199 436.962 95.8476 436.962 96.613C436.962 97.369 436.808 98.0176 436.5 98.559C436.192 99.091 435.79 99.5016 435.296 99.791C434.801 100.071 434.264 100.211 433.686 100.211ZM433.686 98.895C434.19 98.895 434.586 98.685 434.876 98.265C435.165 97.845 435.31 97.2943 435.31 96.613C435.31 95.9223 435.165 95.367 434.876 94.947C434.586 94.527 434.19 94.317 433.686 94.317C433.182 94.317 432.785 94.527 432.496 94.947C432.216 95.367 432.076 95.9223 432.076 96.613C432.076 97.2943 432.216 97.845 432.496 98.265C432.785 98.685 433.182 98.895 433.686 98.895ZM438.555 100.043V93.169H439.885L439.997 94.093H440.053C440.361 93.7943 440.697 93.5376 441.061 93.323C441.425 93.1083 441.841 93.001 442.307 93.001C443.045 93.001 443.581 93.239 443.917 93.715C444.253 94.191 444.421 94.863 444.421 95.731V100.043H442.811V95.941C442.811 95.3716 442.727 94.9703 442.559 94.737C442.391 94.5036 442.116 94.387 441.733 94.387C441.435 94.387 441.169 94.4616 440.935 94.611C440.711 94.751 440.455 94.961 440.165 95.241V100.043H438.555ZM448.797 100.211C447.939 100.211 447.253 99.8936 446.739 99.259C446.226 98.6243 445.969 97.7423 445.969 96.613C445.969 95.8663 446.105 95.2223 446.375 94.681C446.655 94.1396 447.019 93.7243 447.467 93.435C447.915 93.1456 448.387 93.001 448.881 93.001C449.273 93.001 449.605 93.071 449.875 93.211C450.155 93.3416 450.426 93.5236 450.687 93.757L450.631 92.651V90.159H452.241V100.043H450.911L450.799 99.301H450.743C450.491 99.553 450.197 99.7676 449.861 99.945C449.525 100.122 449.171 100.211 448.797 100.211ZM449.189 98.881C449.703 98.881 450.183 98.6243 450.631 98.111V94.905C450.398 94.6903 450.165 94.541 449.931 94.457C449.698 94.373 449.465 94.331 449.231 94.331C448.793 94.331 448.415 94.5316 448.097 94.933C447.789 95.325 447.635 95.8803 447.635 96.599C447.635 97.3363 447.771 97.901 448.041 98.293C448.312 98.685 448.695 98.881 449.189 98.881ZM455.958 100.211C455.36 100.211 454.87 100.024 454.488 99.651C454.114 99.2776 453.928 98.7923 453.928 98.195C453.928 97.4576 454.25 96.8883 454.894 96.487C455.538 96.0763 456.564 95.7963 457.974 95.647C457.964 95.283 457.866 94.9703 457.68 94.709C457.502 94.4383 457.18 94.303 456.714 94.303C456.378 94.303 456.046 94.3683 455.72 94.499C455.402 94.6296 455.09 94.7883 454.782 94.975L454.194 93.897C454.576 93.6543 455.006 93.4443 455.482 93.267C455.967 93.0896 456.48 93.001 457.022 93.001C457.88 93.001 458.52 93.2576 458.94 93.771C459.369 94.275 459.584 95.0076 459.584 95.969V100.043H458.254L458.142 99.287H458.086C457.778 99.5483 457.446 99.7676 457.092 99.945C456.746 100.122 456.368 100.211 455.958 100.211ZM456.476 98.951C456.756 98.951 457.008 98.8856 457.232 98.755C457.465 98.615 457.712 98.4283 457.974 98.195V96.655C457.04 96.7763 456.392 96.9583 456.028 97.201C455.664 97.4343 455.482 97.7236 455.482 98.069C455.482 98.377 455.575 98.601 455.762 98.741C455.948 98.881 456.186 98.951 456.476 98.951ZM461.51 100.043V93.169H462.84L462.952 94.387H463.008C463.251 93.939 463.545 93.5983 463.89 93.365C464.236 93.1223 464.59 93.001 464.954 93.001C465.281 93.001 465.542 93.0476 465.738 93.141L465.458 94.541C465.337 94.5036 465.225 94.4756 465.122 94.457C465.02 94.4383 464.894 94.429 464.744 94.429C464.474 94.429 464.189 94.5363 463.89 94.751C463.592 94.9563 463.335 95.3203 463.12 95.843V100.043H461.51ZM467.414 102.871C467.227 102.871 467.064 102.857 466.924 102.829C466.784 102.801 466.648 102.768 466.518 102.731L466.812 101.471C466.877 101.49 466.952 101.508 467.036 101.527C467.129 101.555 467.218 101.569 467.302 101.569C467.666 101.569 467.955 101.457 468.17 101.233C468.394 101.018 468.562 100.738 468.674 100.393L468.8 99.959L466.098 93.169H467.736L468.926 96.543C469.028 96.8416 469.126 97.159 469.22 97.495C469.322 97.8216 469.425 98.1483 469.528 98.475H469.584C469.668 98.1576 469.752 97.8356 469.836 97.509C469.929 97.173 470.018 96.851 470.102 96.543L471.138 93.169H472.692L470.2 100.351C469.91 101.126 469.56 101.737 469.15 102.185C468.739 102.642 468.16 102.871 467.414 102.871Z" fill="#1991EB"/>
<path d="M118 146.043C118 143.834 119.791 142.043 122 142.043H284C286.209 142.043 288 143.834 288 146.043V172.043C288 174.252 286.209 176.043 284 176.043H122C119.791 176.043 118 174.252 118 172.043V146.043Z" fill="#2DA1F8"/>
<path d="M179.662 164.043V154.887H182.546C183.227 154.887 183.834 154.976 184.366 155.153C184.898 155.33 185.318 155.624 185.626 156.035C185.934 156.446 186.088 157.006 186.088 157.715C186.088 158.387 185.934 158.942 185.626 159.381C185.318 159.82 184.903 160.146 184.38 160.361C183.857 160.576 183.265 160.683 182.602 160.683H181.286V164.043H179.662ZM181.286 159.381H182.476C183.82 159.381 184.492 158.826 184.492 157.715C184.492 157.136 184.315 156.74 183.96 156.525C183.615 156.301 183.101 156.189 182.42 156.189H181.286V159.381ZM187.67 164.043V157.169H189L189.112 158.387H189.168C189.411 157.939 189.705 157.598 190.05 157.365C190.396 157.122 190.75 157.001 191.114 157.001C191.441 157.001 191.702 157.048 191.898 157.141L191.618 158.541C191.497 158.504 191.385 158.476 191.282 158.457C191.18 158.438 191.054 158.429 190.904 158.429C190.634 158.429 190.349 158.536 190.05 158.751C189.752 158.956 189.495 159.32 189.28 159.843V164.043H187.67ZM192.893 164.043V157.169H194.503V164.043H192.893ZM193.705 155.965C193.416 155.965 193.182 155.881 193.005 155.713C192.828 155.545 192.739 155.321 192.739 155.041C192.739 154.77 192.828 154.551 193.005 154.383C193.182 154.215 193.416 154.131 193.705 154.131C193.994 154.131 194.228 154.215 194.405 154.383C194.582 154.551 194.671 154.77 194.671 155.041C194.671 155.321 194.582 155.545 194.405 155.713C194.228 155.881 193.994 155.965 193.705 155.965ZM196.557 164.043V157.169H197.887L197.999 158.107H198.055C198.344 157.799 198.657 157.538 198.993 157.323C199.338 157.108 199.726 157.001 200.155 157.001C200.659 157.001 201.06 157.113 201.359 157.337C201.667 157.552 201.9 157.85 202.059 158.233C202.386 157.878 202.726 157.584 203.081 157.351C203.445 157.118 203.842 157.001 204.271 157.001C204.999 157.001 205.536 157.239 205.881 157.715C206.226 158.191 206.399 158.863 206.399 159.731V164.043H204.775V159.941C204.775 159.372 204.686 158.97 204.509 158.737C204.341 158.504 204.08 158.387 203.725 158.387C203.296 158.387 202.815 158.672 202.283 159.241V164.043H200.673V159.941C200.673 159.372 200.584 158.97 200.407 158.737C200.239 158.504 199.973 158.387 199.609 158.387C199.18 158.387 198.699 158.672 198.167 159.241V164.043H196.557ZM210.022 164.211C209.425 164.211 208.935 164.024 208.552 163.651C208.179 163.278 207.992 162.792 207.992 162.195C207.992 161.458 208.314 160.888 208.958 160.487C209.602 160.076 210.629 159.796 212.038 159.647C212.029 159.283 211.931 158.97 211.744 158.709C211.567 158.438 211.245 158.303 210.778 158.303C210.442 158.303 210.111 158.368 209.784 158.499C209.467 158.63 209.154 158.788 208.846 158.975L208.258 157.897C208.641 157.654 209.07 157.444 209.546 157.267C210.031 157.09 210.545 157.001 211.086 157.001C211.945 157.001 212.584 157.258 213.004 157.771C213.433 158.275 213.648 159.008 213.648 159.969V164.043H212.318L212.206 163.287H212.15C211.842 163.548 211.511 163.768 211.156 163.945C210.811 164.122 210.433 164.211 210.022 164.211ZM210.54 162.951C210.82 162.951 211.072 162.886 211.296 162.755C211.529 162.615 211.777 162.428 212.038 162.195V160.655C211.105 160.776 210.456 160.958 210.092 161.201C209.728 161.434 209.546 161.724 209.546 162.069C209.546 162.377 209.639 162.601 209.826 162.741C210.013 162.881 210.251 162.951 210.54 162.951ZM215.575 164.043V157.169H216.905L217.017 158.387H217.073C217.315 157.939 217.609 157.598 217.955 157.365C218.3 157.122 218.655 157.001 219.019 157.001C219.345 157.001 219.607 157.048 219.803 157.141L219.523 158.541C219.401 158.504 219.289 158.476 219.187 158.457C219.084 158.438 218.958 158.429 218.809 158.429C218.538 158.429 218.253 158.536 217.955 158.751C217.656 158.956 217.399 159.32 217.185 159.843V164.043H215.575ZM221.478 166.871C221.291 166.871 221.128 166.857 220.988 166.829C220.848 166.801 220.713 166.768 220.582 166.731L220.876 165.471C220.941 165.49 221.016 165.508 221.1 165.527C221.193 165.555 221.282 165.569 221.366 165.569C221.73 165.569 222.019 165.457 222.234 165.233C222.458 165.018 222.626 164.738 222.738 164.393L222.864 163.959L220.162 157.169H221.8L222.99 160.543C223.093 160.842 223.191 161.159 223.284 161.495C223.387 161.822 223.489 162.148 223.592 162.475H223.648C223.732 162.158 223.816 161.836 223.9 161.509C223.993 161.173 224.082 160.851 224.166 160.543L225.202 157.169H226.756L224.264 164.351C223.975 165.126 223.625 165.737 223.214 166.185C222.803 166.642 222.225 166.871 221.478 166.871Z" fill="white"/>
<path d="M356.5 209.043C356.5 207.11 358.067 205.543 360 205.543H522C523.933 205.543 525.5 207.11 525.5 209.043V235.043C525.5 236.976 523.933 238.543 522 238.543H360C358.067 238.543 356.5 236.976 356.5 235.043V209.043Z" fill="#1886D9"/>
<path d="M356.5 209.043C356.5 207.11 358.067 205.543 360 205.543H522C523.933 205.543 525.5 207.11 525.5 209.043V235.043C525.5 236.976 523.933 238.543 522 238.543H360C358.067 238.543 356.5 236.976 356.5 235.043V209.043Z" stroke="#1991EB"/>
<path d="M412.836 227.211C412.22 227.211 411.623 227.094 411.044 226.861C410.475 226.628 409.971 226.296 409.532 225.867L410.484 224.761C410.811 225.069 411.184 225.321 411.604 225.517C412.024 225.704 412.444 225.797 412.864 225.797C413.387 225.797 413.783 225.69 414.054 225.475C414.325 225.26 414.46 224.976 414.46 224.621C414.46 224.238 414.325 223.963 414.054 223.795C413.793 223.627 413.457 223.454 413.046 223.277L411.786 222.731C411.487 222.6 411.193 222.432 410.904 222.227C410.624 222.022 410.391 221.76 410.204 221.443C410.027 221.126 409.938 220.743 409.938 220.295C409.938 219.81 410.069 219.376 410.33 218.993C410.601 218.601 410.965 218.293 411.422 218.069C411.889 217.836 412.421 217.719 413.018 217.719C413.55 217.719 414.063 217.826 414.558 218.041C415.053 218.246 415.477 218.526 415.832 218.881L415.006 219.917C414.717 219.674 414.409 219.483 414.082 219.343C413.765 219.203 413.41 219.133 413.018 219.133C412.589 219.133 412.239 219.231 411.968 219.427C411.707 219.614 411.576 219.875 411.576 220.211C411.576 220.444 411.641 220.64 411.772 220.799C411.912 220.948 412.094 221.079 412.318 221.191C412.542 221.294 412.78 221.396 413.032 221.499L414.278 222.017C414.819 222.25 415.263 222.558 415.608 222.941C415.953 223.314 416.126 223.832 416.126 224.495C416.126 224.99 415.995 225.442 415.734 225.853C415.473 226.264 415.095 226.595 414.6 226.847C414.115 227.09 413.527 227.211 412.836 227.211ZM420.591 227.211C419.956 227.211 419.382 227.071 418.869 226.791C418.356 226.502 417.95 226.091 417.651 225.559C417.352 225.018 417.203 224.369 417.203 223.613C417.203 222.866 417.352 222.222 417.651 221.681C417.959 221.14 418.356 220.724 418.841 220.435C419.326 220.146 419.835 220.001 420.367 220.001C420.992 220.001 421.515 220.141 421.935 220.421C422.355 220.692 422.672 221.074 422.887 221.569C423.102 222.054 423.209 222.619 423.209 223.263C423.209 223.599 423.186 223.86 423.139 224.047H418.771C418.846 224.654 419.065 225.125 419.429 225.461C419.793 225.797 420.25 225.965 420.801 225.965C421.1 225.965 421.375 225.923 421.627 225.839C421.888 225.746 422.145 225.62 422.397 225.461L422.943 226.469C422.616 226.684 422.252 226.861 421.851 227.001C421.45 227.141 421.03 227.211 420.591 227.211ZM418.757 222.955H421.809C421.809 222.423 421.692 222.008 421.459 221.709C421.226 221.401 420.876 221.247 420.409 221.247C420.008 221.247 419.648 221.396 419.331 221.695C419.023 221.984 418.832 222.404 418.757 222.955ZM427.617 227.211C426.991 227.211 426.427 227.071 425.923 226.791C425.428 226.502 425.031 226.091 424.733 225.559C424.443 225.018 424.299 224.369 424.299 223.613C424.299 222.848 424.457 222.199 424.775 221.667C425.092 221.126 425.512 220.715 426.035 220.435C426.567 220.146 427.136 220.001 427.743 220.001C428.181 220.001 428.564 220.076 428.891 220.225C429.217 220.374 429.507 220.556 429.759 220.771L428.975 221.821C428.797 221.662 428.615 221.541 428.429 221.457C428.242 221.364 428.041 221.317 427.827 221.317C427.276 221.317 426.823 221.527 426.469 221.947C426.123 222.367 425.951 222.922 425.951 223.613C425.951 224.294 426.119 224.845 426.455 225.265C426.8 225.685 427.243 225.895 427.785 225.895C428.055 225.895 428.307 225.839 428.541 225.727C428.783 225.606 429.003 225.466 429.199 225.307L429.857 226.371C429.539 226.651 429.185 226.861 428.793 227.001C428.401 227.141 428.009 227.211 427.617 227.211ZM433.686 227.211C433.116 227.211 432.584 227.071 432.09 226.791C431.595 226.502 431.194 226.091 430.886 225.559C430.578 225.018 430.424 224.369 430.424 223.613C430.424 222.848 430.578 222.199 430.886 221.667C431.194 221.126 431.595 220.715 432.09 220.435C432.584 220.146 433.116 220.001 433.686 220.001C434.264 220.001 434.801 220.146 435.296 220.435C435.79 220.715 436.192 221.126 436.5 221.667C436.808 222.199 436.962 222.848 436.962 223.613C436.962 224.369 436.808 225.018 436.5 225.559C436.192 226.091 435.79 226.502 435.296 226.791C434.801 227.071 434.264 227.211 433.686 227.211ZM433.686 225.895C434.19 225.895 434.586 225.685 434.876 225.265C435.165 224.845 435.31 224.294 435.31 223.613C435.31 222.922 435.165 222.367 434.876 221.947C434.586 221.527 434.19 221.317 433.686 221.317C433.182 221.317 432.785 221.527 432.496 221.947C432.216 222.367 432.076 222.922 432.076 223.613C432.076 224.294 432.216 224.845 432.496 225.265C432.785 225.685 433.182 225.895 433.686 225.895ZM438.555 227.043V220.169H439.885L439.997 221.093H440.053C440.361 220.794 440.697 220.538 441.061 220.323C441.425 220.108 441.841 220.001 442.307 220.001C443.045 220.001 443.581 220.239 443.917 220.715C444.253 221.191 444.421 221.863 444.421 222.731V227.043H442.811V222.941C442.811 222.372 442.727 221.97 442.559 221.737C442.391 221.504 442.116 221.387 441.733 221.387C441.435 221.387 441.169 221.462 440.935 221.611C440.711 221.751 440.455 221.961 440.165 222.241V227.043H438.555ZM448.797 227.211C447.939 227.211 447.253 226.894 446.739 226.259C446.226 225.624 445.969 224.742 445.969 223.613C445.969 222.866 446.105 222.222 446.375 221.681C446.655 221.14 447.019 220.724 447.467 220.435C447.915 220.146 448.387 220.001 448.881 220.001C449.273 220.001 449.605 220.071 449.875 220.211C450.155 220.342 450.426 220.524 450.687 220.757L450.631 219.651V217.159H452.241V227.043H450.911L450.799 226.301H450.743C450.491 226.553 450.197 226.768 449.861 226.945C449.525 227.122 449.171 227.211 448.797 227.211ZM449.189 225.881C449.703 225.881 450.183 225.624 450.631 225.111V221.905C450.398 221.69 450.165 221.541 449.931 221.457C449.698 221.373 449.465 221.331 449.231 221.331C448.793 221.331 448.415 221.532 448.097 221.933C447.789 222.325 447.635 222.88 447.635 223.599C447.635 224.336 447.771 224.901 448.041 225.293C448.312 225.685 448.695 225.881 449.189 225.881ZM455.958 227.211C455.36 227.211 454.87 227.024 454.488 226.651C454.114 226.278 453.928 225.792 453.928 225.195C453.928 224.458 454.25 223.888 454.894 223.487C455.538 223.076 456.564 222.796 457.974 222.647C457.964 222.283 457.866 221.97 457.68 221.709C457.502 221.438 457.18 221.303 456.714 221.303C456.378 221.303 456.046 221.368 455.72 221.499C455.402 221.63 455.09 221.788 454.782 221.975L454.194 220.897C454.576 220.654 455.006 220.444 455.482 220.267C455.967 220.09 456.48 220.001 457.022 220.001C457.88 220.001 458.52 220.258 458.94 220.771C459.369 221.275 459.584 222.008 459.584 222.969V227.043H458.254L458.142 226.287H458.086C457.778 226.548 457.446 226.768 457.092 226.945C456.746 227.122 456.368 227.211 455.958 227.211ZM456.476 225.951C456.756 225.951 457.008 225.886 457.232 225.755C457.465 225.615 457.712 225.428 457.974 225.195V223.655C457.04 223.776 456.392 223.958 456.028 224.201C455.664 224.434 455.482 224.724 455.482 225.069C455.482 225.377 455.575 225.601 455.762 225.741C455.948 225.881 456.186 225.951 456.476 225.951ZM461.51 227.043V220.169H462.84L462.952 221.387H463.008C463.251 220.939 463.545 220.598 463.89 220.365C464.236 220.122 464.59 220.001 464.954 220.001C465.281 220.001 465.542 220.048 465.738 220.141L465.458 221.541C465.337 221.504 465.225 221.476 465.122 221.457C465.02 221.438 464.894 221.429 464.744 221.429C464.474 221.429 464.189 221.536 463.89 221.751C463.592 221.956 463.335 222.32 463.12 222.843V227.043H461.51ZM467.414 229.871C467.227 229.871 467.064 229.857 466.924 229.829C466.784 229.801 466.648 229.768 466.518 229.731L466.812 228.471C466.877 228.49 466.952 228.508 467.036 228.527C467.129 228.555 467.218 228.569 467.302 228.569C467.666 228.569 467.955 228.457 468.17 228.233C468.394 228.018 468.562 227.738 468.674 227.393L468.8 226.959L466.098 220.169H467.736L468.926 223.543C469.028 223.842 469.126 224.159 469.22 224.495C469.322 224.822 469.425 225.148 469.528 225.475H469.584C469.668 225.158 469.752 224.836 469.836 224.509C469.929 224.173 470.018 223.851 470.102 223.543L471.138 220.169H472.692L470.2 227.351C469.91 228.126 469.56 228.737 469.15 229.185C468.739 229.642 468.16 229.871 467.414 229.871Z" fill="white"/>
<path d="M118.5 209.043C118.5 207.11 120.067 205.543 122 205.543H284C285.933 205.543 287.5 207.11 287.5 209.043V235.043C287.5 236.976 285.933 238.543 284 238.543H122C120.067 238.543 118.5 236.976 118.5 235.043V209.043Z" fill="#1886D9"/>
<path d="M118.5 209.043C118.5 207.11 120.067 205.543 122 205.543H284C285.933 205.543 287.5 207.11 287.5 209.043V235.043C287.5 236.976 285.933 238.543 284 238.543H122C120.067 238.543 118.5 236.976 118.5 235.043V209.043Z" stroke="#1991EB"/>
<path d="M179.662 227.043V217.887H182.546C183.227 217.887 183.834 217.976 184.366 218.153C184.898 218.33 185.318 218.624 185.626 219.035C185.934 219.446 186.088 220.006 186.088 220.715C186.088 221.387 185.934 221.942 185.626 222.381C185.318 222.82 184.903 223.146 184.38 223.361C183.857 223.576 183.265 223.683 182.602 223.683H181.286V227.043H179.662ZM181.286 222.381H182.476C183.82 222.381 184.492 221.826 184.492 220.715C184.492 220.136 184.315 219.74 183.96 219.525C183.615 219.301 183.101 219.189 182.42 219.189H181.286V222.381ZM187.67 227.043V220.169H189L189.112 221.387H189.168C189.411 220.939 189.705 220.598 190.05 220.365C190.396 220.122 190.75 220.001 191.114 220.001C191.441 220.001 191.702 220.048 191.898 220.141L191.618 221.541C191.497 221.504 191.385 221.476 191.282 221.457C191.18 221.438 191.054 221.429 190.904 221.429C190.634 221.429 190.349 221.536 190.05 221.751C189.752 221.956 189.495 222.32 189.28 222.843V227.043H187.67ZM192.893 227.043V220.169H194.503V227.043H192.893ZM193.705 218.965C193.416 218.965 193.182 218.881 193.005 218.713C192.828 218.545 192.739 218.321 192.739 218.041C192.739 217.77 192.828 217.551 193.005 217.383C193.182 217.215 193.416 217.131 193.705 217.131C193.994 217.131 194.228 217.215 194.405 217.383C194.582 217.551 194.671 217.77 194.671 218.041C194.671 218.321 194.582 218.545 194.405 218.713C194.228 218.881 193.994 218.965 193.705 218.965ZM196.557 227.043V220.169H197.887L197.999 221.107H198.055C198.344 220.799 198.657 220.538 198.993 220.323C199.338 220.108 199.726 220.001 200.155 220.001C200.659 220.001 201.06 220.113 201.359 220.337C201.667 220.552 201.9 220.85 202.059 221.233C202.386 220.878 202.726 220.584 203.081 220.351C203.445 220.118 203.842 220.001 204.271 220.001C204.999 220.001 205.536 220.239 205.881 220.715C206.226 221.191 206.399 221.863 206.399 222.731V227.043H204.775V222.941C204.775 222.372 204.686 221.97 204.509 221.737C204.341 221.504 204.08 221.387 203.725 221.387C203.296 221.387 202.815 221.672 202.283 222.241V227.043H200.673V222.941C200.673 222.372 200.584 221.97 200.407 221.737C200.239 221.504 199.973 221.387 199.609 221.387C199.18 221.387 198.699 221.672 198.167 222.241V227.043H196.557ZM210.022 227.211C209.425 227.211 208.935 227.024 208.552 226.651C208.179 226.278 207.992 225.792 207.992 225.195C207.992 224.458 208.314 223.888 208.958 223.487C209.602 223.076 210.629 222.796 212.038 222.647C212.029 222.283 211.931 221.97 211.744 221.709C211.567 221.438 211.245 221.303 210.778 221.303C210.442 221.303 210.111 221.368 209.784 221.499C209.467 221.63 209.154 221.788 208.846 221.975L208.258 220.897C208.641 220.654 209.07 220.444 209.546 220.267C210.031 220.09 210.545 220.001 211.086 220.001C211.945 220.001 212.584 220.258 213.004 220.771C213.433 221.275 213.648 222.008 213.648 222.969V227.043H212.318L212.206 226.287H212.15C211.842 226.548 211.511 226.768 211.156 226.945C210.811 227.122 210.433 227.211 210.022 227.211ZM210.54 225.951C210.82 225.951 211.072 225.886 211.296 225.755C211.529 225.615 211.777 225.428 212.038 225.195V223.655C211.105 223.776 210.456 223.958 210.092 224.201C209.728 224.434 209.546 224.724 209.546 225.069C209.546 225.377 209.639 225.601 209.826 225.741C210.013 225.881 210.251 225.951 210.54 225.951ZM215.575 227.043V220.169H216.905L217.017 221.387H217.073C217.315 220.939 217.609 220.598 217.955 220.365C218.3 220.122 218.655 220.001 219.019 220.001C219.345 220.001 219.607 220.048 219.803 220.141L219.523 221.541C219.401 221.504 219.289 221.476 219.187 221.457C219.084 221.438 218.958 221.429 218.809 221.429C218.538 221.429 218.253 221.536 217.955 221.751C217.656 221.956 217.399 222.32 217.185 222.843V227.043H215.575ZM221.478 229.871C221.291 229.871 221.128 229.857 220.988 229.829C220.848 229.801 220.713 229.768 220.582 229.731L220.876 228.471C220.941 228.49 221.016 228.508 221.1 228.527C221.193 228.555 221.282 228.569 221.366 228.569C221.73 228.569 222.019 228.457 222.234 228.233C222.458 228.018 222.626 227.738 222.738 227.393L222.864 226.959L220.162 220.169H221.8L222.99 223.543C223.093 223.842 223.191 224.159 223.284 224.495C223.387 224.822 223.489 225.148 223.592 225.475H223.648C223.732 225.158 223.816 224.836 223.9 224.509C223.993 224.173 224.082 223.851 224.166 223.543L225.202 220.169H226.756L224.264 227.351C223.975 228.126 223.625 228.737 223.214 229.185C222.803 229.642 222.225 229.871 221.478 229.871Z" fill="white"/>
<path d="M118 82.043C118 79.8338 119.791 78.043 122 78.043H284C286.209 78.043 288 79.8338 288 82.043V108.043C288 110.252 286.209 112.043 284 112.043H122C119.791 112.043 118 110.252 118 108.043V82.043Z" fill="#1991EB"/>
<path d="M179.662 100.043V90.887H182.546C183.227 90.887 183.834 90.9756 184.366 91.153C184.898 91.3303 185.318 91.6243 185.626 92.035C185.934 92.4456 186.088 93.0056 186.088 93.715C186.088 94.387 185.934 94.9423 185.626 95.381C185.318 95.8196 184.903 96.1463 184.38 96.361C183.857 96.5756 183.265 96.683 182.602 96.683H181.286V100.043H179.662ZM181.286 95.381H182.476C183.82 95.381 184.492 94.8256 184.492 93.715C184.492 93.1363 184.315 92.7396 183.96 92.525C183.615 92.301 183.101 92.189 182.42 92.189H181.286V95.381ZM187.67 100.043V93.169H189L189.112 94.387H189.168C189.411 93.939 189.705 93.5983 190.05 93.365C190.396 93.1223 190.75 93.001 191.114 93.001C191.441 93.001 191.702 93.0476 191.898 93.141L191.618 94.541C191.497 94.5036 191.385 94.4756 191.282 94.457C191.18 94.4383 191.054 94.429 190.904 94.429C190.634 94.429 190.349 94.5363 190.05 94.751C189.752 94.9563 189.495 95.3203 189.28 95.843V100.043H187.67ZM192.893 100.043V93.169H194.503V100.043H192.893ZM193.705 91.965C193.416 91.965 193.182 91.881 193.005 91.713C192.828 91.545 192.739 91.321 192.739 91.041C192.739 90.7703 192.828 90.551 193.005 90.383C193.182 90.215 193.416 90.131 193.705 90.131C193.994 90.131 194.228 90.215 194.405 90.383C194.582 90.551 194.671 90.7703 194.671 91.041C194.671 91.321 194.582 91.545 194.405 91.713C194.228 91.881 193.994 91.965 193.705 91.965ZM196.557 100.043V93.169H197.887L197.999 94.107H198.055C198.344 93.799 198.657 93.5376 198.993 93.323C199.338 93.1083 199.726 93.001 200.155 93.001C200.659 93.001 201.06 93.113 201.359 93.337C201.667 93.5516 201.9 93.8503 202.059 94.233C202.386 93.8783 202.726 93.5843 203.081 93.351C203.445 93.1176 203.842 93.001 204.271 93.001C204.999 93.001 205.536 93.239 205.881 93.715C206.226 94.191 206.399 94.863 206.399 95.731V100.043H204.775V95.941C204.775 95.3716 204.686 94.9703 204.509 94.737C204.341 94.5036 204.08 94.387 203.725 94.387C203.296 94.387 202.815 94.6716 202.283 95.241V100.043H200.673V95.941C200.673 95.3716 200.584 94.9703 200.407 94.737C200.239 94.5036 199.973 94.387 199.609 94.387C199.18 94.387 198.699 94.6716 198.167 95.241V100.043H196.557ZM210.022 100.211C209.425 100.211 208.935 100.024 208.552 99.651C208.179 99.2776 207.992 98.7923 207.992 98.195C207.992 97.4576 208.314 96.8883 208.958 96.487C209.602 96.0763 210.629 95.7963 212.038 95.647C212.029 95.283 211.931 94.9703 211.744 94.709C211.567 94.4383 211.245 94.303 210.778 94.303C210.442 94.303 210.111 94.3683 209.784 94.499C209.467 94.6296 209.154 94.7883 208.846 94.975L208.258 93.897C208.641 93.6543 209.07 93.4443 209.546 93.267C210.031 93.0896 210.545 93.001 211.086 93.001C211.945 93.001 212.584 93.2576 213.004 93.771C213.433 94.275 213.648 95.0076 213.648 95.969V100.043H212.318L212.206 99.287H212.15C211.842 99.5483 211.511 99.7676 211.156 99.945C210.811 100.122 210.433 100.211 210.022 100.211ZM210.54 98.951C210.82 98.951 211.072 98.8856 211.296 98.755C211.529 98.615 211.777 98.4283 212.038 98.195V96.655C211.105 96.7763 210.456 96.9583 210.092 97.201C209.728 97.4343 209.546 97.7236 209.546 98.069C209.546 98.377 209.639 98.601 209.826 98.741C210.013 98.881 210.251 98.951 210.54 98.951ZM215.575 100.043V93.169H216.905L217.017 94.387H217.073C217.315 93.939 217.609 93.5983 217.955 93.365C218.3 93.1223 218.655 93.001 219.019 93.001C219.345 93.001 219.607 93.0476 219.803 93.141L219.523 94.541C219.401 94.5036 219.289 94.4756 219.187 94.457C219.084 94.4383 218.958 94.429 218.809 94.429C218.538 94.429 218.253 94.5363 217.955 94.751C217.656 94.9563 217.399 95.3203 217.185 95.843V100.043H215.575ZM221.478 102.871C221.291 102.871 221.128 102.857 220.988 102.829C220.848 102.801 220.713 102.768 220.582 102.731L220.876 101.471C220.941 101.49 221.016 101.508 221.1 101.527C221.193 101.555 221.282 101.569 221.366 101.569C221.73 101.569 222.019 101.457 222.234 101.233C222.458 101.018 222.626 100.738 222.738 100.393L222.864 99.959L220.162 93.169H221.8L222.99 96.543C223.093 96.8416 223.191 97.159 223.284 97.495C223.387 97.8216 223.489 98.1483 223.592 98.475H223.648C223.732 98.1576 223.816 97.8356 223.9 97.509C223.993 97.173 224.082 96.851 224.166 96.543L225.202 93.169H226.756L224.264 100.351C223.975 101.126 223.625 101.737 223.214 102.185C222.803 102.642 222.225 102.871 221.478 102.871Z" fill="white"/>
</svg>
