<svg width="649" height="177" viewBox="0 0 649 177" fill="none" xmlns="http://www.w3.org/2000/svg">
<rect width="649" height="177" rx="5" fill="#FAFAFA"/>
<rect width="585" height="119" transform="translate(32 32)" fill="#FAFAFA"/>
<g filter="url(#filter0_d_1170_9550)">
<rect x="155" y="45.0432" width="339" height="93" rx="5" fill="#52A251"/>
<path d="M470.257 74.0432L474.757 69.5432L479.257 65.0432" stroke="white" stroke-width="3.5"/>
<path d="M470.257 65.0432L474.757 69.5432L479.257 74.0432" stroke="white" stroke-width="3.5"/>
<path d="M226.864 84.2112C226.267 84.2112 225.669 84.0992 225.072 83.8752C224.484 83.6512 223.957 83.3245 223.49 82.8952L224.666 81.4812C224.993 81.7612 225.357 81.9898 225.758 82.1672C226.159 82.3445 226.547 82.4332 226.92 82.4332C227.349 82.4332 227.667 82.3538 227.872 82.1952C228.087 82.0365 228.194 81.8218 228.194 81.5512C228.194 81.2618 228.073 81.0518 227.83 80.9212C227.597 80.7812 227.279 80.6272 226.878 80.4592L225.688 79.9552C225.38 79.8245 225.086 79.6518 224.806 79.4372C224.526 79.2132 224.297 78.9378 224.12 78.6112C223.943 78.2845 223.854 77.9018 223.854 77.4632C223.854 76.9592 223.989 76.5018 224.26 76.0912C224.54 75.6805 224.923 75.3538 225.408 75.1112C225.903 74.8685 226.467 74.7472 227.102 74.7472C227.625 74.7472 228.147 74.8498 228.67 75.0552C229.193 75.2605 229.65 75.5592 230.042 75.9512L228.992 77.2532C228.693 77.0198 228.395 76.8425 228.096 76.7212C227.797 76.5905 227.466 76.5252 227.102 76.5252C226.747 76.5252 226.463 76.5998 226.248 76.7492C226.043 76.8892 225.94 77.0898 225.94 77.3512C225.94 77.6312 226.071 77.8412 226.332 77.9812C226.603 78.1212 226.934 78.2705 227.326 78.4292L228.502 78.9052C229.053 79.1292 229.491 79.4372 229.818 79.8292C230.145 80.2212 230.308 80.7392 230.308 81.3832C230.308 81.8872 230.173 82.3538 229.902 82.7832C229.631 83.2125 229.239 83.5578 228.726 83.8192C228.213 84.0805 227.592 84.2112 226.864 84.2112ZM233.967 84.2112C233.108 84.2112 232.492 83.9638 232.119 83.4692C231.755 82.9745 231.573 82.3258 231.573 81.5232V78.7092H230.621V77.1832L231.685 77.0992L231.923 75.2512H233.631V77.0992H235.297V78.7092H233.631V81.4952C233.631 81.8872 233.71 82.1718 233.869 82.3492C234.037 82.5172 234.256 82.6012 234.527 82.6012C234.639 82.6012 234.751 82.5872 234.863 82.5592C234.984 82.5312 235.091 82.4985 235.185 82.4612L235.507 83.9592C235.329 84.0152 235.11 84.0712 234.849 84.1272C234.597 84.1832 234.303 84.2112 233.967 84.2112ZM238.129 84.2112C237.494 84.2112 236.99 84.0105 236.617 83.6092C236.243 83.1985 236.057 82.6992 236.057 82.1112C236.057 81.3832 236.365 80.8138 236.981 80.4032C237.597 79.9925 238.591 79.7172 239.963 79.5772C239.944 79.2692 239.851 79.0265 239.683 78.8492C239.524 78.6625 239.253 78.5692 238.871 78.5692C238.581 78.5692 238.287 78.6252 237.989 78.7372C237.69 78.8492 237.373 79.0032 237.037 79.1992L236.295 77.8412C236.733 77.5705 237.2 77.3512 237.695 77.1832C238.199 77.0152 238.721 76.9312 239.263 76.9312C240.149 76.9312 240.831 77.1878 241.307 77.7012C241.783 78.2145 242.021 79.0032 242.021 80.0672V84.0432H240.341L240.201 83.3292H240.145C239.855 83.5905 239.543 83.8052 239.207 83.9732C238.88 84.1318 238.521 84.2112 238.129 84.2112ZM238.829 82.6152C239.062 82.6152 239.263 82.5638 239.431 82.4612C239.608 82.3492 239.785 82.2045 239.963 82.0272V80.8092C239.235 80.9025 238.731 81.0518 238.451 81.2572C238.171 81.4532 238.031 81.6865 238.031 81.9572C238.031 82.1812 238.101 82.3492 238.241 82.4612C238.39 82.5638 238.586 82.6152 238.829 82.6152ZM246.189 84.2112C245.331 84.2112 244.715 83.9638 244.341 83.4692C243.977 82.9745 243.795 82.3258 243.795 81.5232V78.7092H242.843V77.1832L243.907 77.0992L244.145 75.2512H245.853V77.0992H247.519V78.7092H245.853V81.4952C245.853 81.8872 245.933 82.1718 246.091 82.3492C246.259 82.5172 246.479 82.6012 246.749 82.6012C246.861 82.6012 246.973 82.5872 247.085 82.5592C247.207 82.5312 247.314 82.4985 247.407 82.4612L247.729 83.9592C247.552 84.0152 247.333 84.0712 247.071 84.1272C246.819 84.1832 246.525 84.2112 246.189 84.2112ZM250.961 84.2112C250.205 84.2112 249.654 83.9638 249.309 83.4692C248.973 82.9652 248.805 82.2792 248.805 81.4112V77.0992H250.863V81.1452C250.863 81.6398 250.933 81.9852 251.073 82.1812C251.213 82.3678 251.432 82.4612 251.731 82.4612C251.992 82.4612 252.212 82.4005 252.389 82.2792C252.566 82.1578 252.758 81.9618 252.963 81.6912V77.0992H255.021V84.0432H253.341L253.187 83.0772H253.145C252.856 83.4225 252.538 83.6978 252.193 83.9032C251.848 84.1085 251.437 84.2112 250.961 84.2112ZM258.876 84.2112C258.419 84.2112 257.947 84.1225 257.462 83.9452C256.986 83.7678 256.571 83.5345 256.216 83.2452L257.14 81.9572C257.457 82.1905 257.761 82.3725 258.05 82.5032C258.349 82.6245 258.643 82.6852 258.932 82.6852C259.24 82.6852 259.464 82.6338 259.604 82.5312C259.744 82.4192 259.814 82.2745 259.814 82.0972C259.814 81.9385 259.744 81.8078 259.604 81.7052C259.473 81.6025 259.301 81.5092 259.086 81.4252C258.871 81.3318 258.643 81.2385 258.4 81.1452C258.12 81.0332 257.84 80.8932 257.56 80.7252C257.289 80.5572 257.061 80.3425 256.874 80.0812C256.687 79.8105 256.594 79.4838 256.594 79.1012C256.594 78.4572 256.837 77.9345 257.322 77.5332C257.817 77.1318 258.461 76.9312 259.254 76.9312C259.786 76.9312 260.253 77.0245 260.654 77.2112C261.065 77.3885 261.415 77.5892 261.704 77.8132L260.78 79.0452C260.537 78.8585 260.295 78.7138 260.052 78.6112C259.809 78.5085 259.567 78.4572 259.324 78.4572C258.792 78.4572 258.526 78.6392 258.526 79.0032C258.526 79.2272 258.657 79.3998 258.918 79.5212C259.189 79.6332 259.501 79.7545 259.856 79.8852C260.155 79.9878 260.444 80.1232 260.724 80.2912C261.013 80.4498 261.251 80.6645 261.438 80.9352C261.634 81.1965 261.732 81.5418 261.732 81.9712C261.732 82.5965 261.489 83.1285 261.004 83.5672C260.519 83.9965 259.809 84.2112 258.876 84.2112ZM268.866 84.2112C268.222 84.2112 267.638 84.0712 267.116 83.7912C266.602 83.5018 266.192 83.0865 265.884 82.5452C265.585 81.9945 265.436 81.3365 265.436 80.5712C265.436 79.7965 265.604 79.1385 265.94 78.5972C266.276 78.0558 266.719 77.6452 267.27 77.3652C267.82 77.0758 268.413 76.9312 269.048 76.9312C269.477 76.9312 269.855 77.0012 270.182 77.1412C270.518 77.2812 270.816 77.4585 271.078 77.6732L270.112 79.0032C269.785 78.7325 269.472 78.5972 269.174 78.5972C268.679 78.5972 268.282 78.7745 267.984 79.1292C267.694 79.4838 267.55 79.9645 267.55 80.5712C267.55 81.1685 267.694 81.6492 267.984 82.0132C268.282 82.3678 268.656 82.5452 269.104 82.5452C269.328 82.5452 269.547 82.4985 269.762 82.4052C269.976 82.3025 270.172 82.1812 270.35 82.0412L271.162 83.3852C270.816 83.6838 270.443 83.8985 270.042 84.0292C269.64 84.1505 269.248 84.2112 268.866 84.2112ZM272.377 84.0432V74.2292H274.435V76.6372L274.337 77.8832C274.598 77.6498 274.901 77.4352 275.247 77.2392C275.601 77.0338 276.012 76.9312 276.479 76.9312C277.235 76.9312 277.781 77.1832 278.117 77.6872C278.462 78.1818 278.635 78.8632 278.635 79.7312V84.0432H276.577V79.9972C276.577 79.4932 276.507 79.1478 276.367 78.9612C276.236 78.7745 276.021 78.6812 275.723 78.6812C275.461 78.6812 275.237 78.7418 275.051 78.8632C274.864 78.9752 274.659 79.1385 274.435 79.3532V84.0432H272.377ZM282.125 84.2112C281.49 84.2112 280.986 84.0105 280.613 83.6092C280.24 83.1985 280.053 82.6992 280.053 82.1112C280.053 81.3832 280.361 80.8138 280.977 80.4032C281.593 79.9925 282.587 79.7172 283.959 79.5772C283.94 79.2692 283.847 79.0265 283.679 78.8492C283.52 78.6625 283.25 78.5692 282.867 78.5692C282.578 78.5692 282.284 78.6252 281.985 78.7372C281.686 78.8492 281.369 79.0032 281.033 79.1992L280.291 77.8412C280.73 77.5705 281.196 77.3512 281.691 77.1832C282.195 77.0152 282.718 76.9312 283.259 76.9312C284.146 76.9312 284.827 77.1878 285.303 77.7012C285.779 78.2145 286.017 79.0032 286.017 80.0672V84.0432H284.337L284.197 83.3292H284.141C283.852 83.5905 283.539 83.8052 283.203 83.9732C282.876 84.1318 282.517 84.2112 282.125 84.2112ZM282.825 82.6152C283.058 82.6152 283.259 82.5638 283.427 82.4612C283.604 82.3492 283.782 82.2045 283.959 82.0272V80.8092C283.231 80.9025 282.727 81.0518 282.447 81.2572C282.167 81.4532 282.027 81.6865 282.027 81.9572C282.027 82.1812 282.097 82.3492 282.237 82.4612C282.386 82.5638 282.582 82.6152 282.825 82.6152ZM287.758 84.0432V77.0992H289.438L289.578 77.9812H289.634C289.932 77.7012 290.259 77.4585 290.614 77.2532C290.978 77.0385 291.393 76.9312 291.86 76.9312C292.616 76.9312 293.162 77.1832 293.498 77.6872C293.843 78.1818 294.016 78.8632 294.016 79.7312V84.0432H291.958V79.9972C291.958 79.4932 291.888 79.1478 291.748 78.9612C291.617 78.7745 291.402 78.6812 291.104 78.6812C290.842 78.6812 290.618 78.7418 290.432 78.8632C290.245 78.9752 290.04 79.1385 289.816 79.3532V84.0432H287.758ZM298.247 86.9972C297.706 86.9972 297.216 86.9365 296.777 86.8152C296.339 86.6938 295.989 86.5025 295.727 86.2412C295.466 85.9798 295.335 85.6438 295.335 85.2332C295.335 84.6732 295.667 84.2065 296.329 83.8332V83.7772C296.152 83.6558 295.998 83.5018 295.867 83.3152C295.746 83.1285 295.685 82.8905 295.685 82.6012C295.685 82.3492 295.76 82.1065 295.909 81.8732C296.059 81.6398 296.245 81.4485 296.469 81.2992V81.2432C296.227 81.0752 296.007 80.8325 295.811 80.5152C295.625 80.1978 295.531 79.8385 295.531 79.4372C295.531 78.8772 295.667 78.4152 295.937 78.0512C296.208 77.6778 296.563 77.3978 297.001 77.2112C297.44 77.0245 297.907 76.9312 298.401 76.9312C298.812 76.9312 299.171 76.9872 299.479 77.0992H302.013V78.5972H300.907C300.973 78.6998 301.024 78.8305 301.061 78.9892C301.108 79.1478 301.131 79.3205 301.131 79.5072C301.131 80.0392 301.01 80.4778 300.767 80.8232C300.525 81.1685 300.198 81.4252 299.787 81.5932C299.377 81.7612 298.915 81.8452 298.401 81.8452C298.131 81.8452 297.851 81.7985 297.561 81.7052C297.393 81.8452 297.309 82.0178 297.309 82.2232C297.309 82.4005 297.389 82.5312 297.547 82.6152C297.706 82.6992 297.977 82.7412 298.359 82.7412H299.479C300.338 82.7412 300.991 82.8812 301.439 83.1612C301.897 83.4318 302.125 83.8798 302.125 84.5052C302.125 84.9812 301.967 85.4058 301.649 85.7792C301.332 86.1618 300.884 86.4605 300.305 86.6752C299.727 86.8898 299.041 86.9972 298.247 86.9972ZM298.401 80.5992C298.672 80.5992 298.896 80.5012 299.073 80.3052C299.26 80.1092 299.353 79.8198 299.353 79.4372C299.353 79.0732 299.26 78.7978 299.073 78.6112C298.896 78.4152 298.672 78.3172 298.401 78.3172C298.131 78.3172 297.902 78.4105 297.715 78.5972C297.538 78.7838 297.449 79.0638 297.449 79.4372C297.449 79.8198 297.538 80.1092 297.715 80.3052C297.902 80.5012 298.131 80.5992 298.401 80.5992ZM298.569 85.7092C299.036 85.7092 299.419 85.6252 299.717 85.4572C300.016 85.2892 300.165 85.0885 300.165 84.8552C300.165 84.6405 300.072 84.4958 299.885 84.4212C299.708 84.3465 299.447 84.3092 299.101 84.3092H298.387C298.154 84.3092 297.958 84.2998 297.799 84.2812C297.65 84.2718 297.519 84.2532 297.407 84.2252C297.155 84.4492 297.029 84.6778 297.029 84.9112C297.029 85.1725 297.169 85.3685 297.449 85.4992C297.739 85.6392 298.112 85.7092 298.569 85.7092ZM306.11 84.2112C305.447 84.2112 304.85 84.0665 304.318 83.7772C303.786 83.4878 303.366 83.0725 303.058 82.5312C302.75 81.9898 302.596 81.3365 302.596 80.5712C302.596 79.8152 302.75 79.1665 303.058 78.6252C303.375 78.0838 303.786 77.6685 304.29 77.3792C304.794 77.0805 305.321 76.9312 305.872 76.9312C306.534 76.9312 307.08 77.0805 307.51 77.3792C307.948 77.6685 308.275 78.0652 308.49 78.5692C308.714 79.0638 308.826 79.6285 308.826 80.2632C308.826 80.4405 308.816 80.6178 308.798 80.7952C308.779 80.9632 308.76 81.0892 308.742 81.1732H304.584C304.677 81.6772 304.887 82.0505 305.214 82.2932C305.54 82.5265 305.932 82.6432 306.39 82.6432C306.884 82.6432 307.384 82.4892 307.888 82.1812L308.574 83.4272C308.219 83.6698 307.822 83.8612 307.384 84.0012C306.945 84.1412 306.52 84.2112 306.11 84.2112ZM304.57 79.8152H307.076C307.076 79.4325 306.982 79.1198 306.796 78.8772C306.618 78.6252 306.324 78.4992 305.914 78.4992C305.596 78.4992 305.312 78.6112 305.06 78.8352C304.808 79.0498 304.644 79.3765 304.57 79.8152ZM311.438 84.2112C311.083 84.2112 310.785 84.0898 310.542 83.8472C310.309 83.5952 310.192 83.2872 310.192 82.9232C310.192 82.5498 310.309 82.2418 310.542 81.9992C310.785 81.7472 311.083 81.6212 311.438 81.6212C311.793 81.6212 312.087 81.7472 312.32 81.9992C312.563 82.2418 312.684 82.5498 312.684 82.9232C312.684 83.2872 312.563 83.5952 312.32 83.8472C312.087 84.0898 311.793 84.2112 311.438 84.2112Z" fill="white"/>
<path d="M226.808 108.211C226.164 108.211 225.567 108.09 225.016 107.847C224.465 107.595 223.989 107.264 223.588 106.853L224.288 106.041C224.615 106.387 224.997 106.667 225.436 106.881C225.884 107.087 226.346 107.189 226.822 107.189C227.429 107.189 227.9 107.054 228.236 106.783C228.572 106.503 228.74 106.139 228.74 105.691C228.74 105.374 228.67 105.122 228.53 104.935C228.399 104.749 228.217 104.59 227.984 104.459C227.76 104.329 227.503 104.198 227.214 104.067L225.898 103.493C225.609 103.372 225.319 103.213 225.03 103.017C224.75 102.821 224.512 102.569 224.316 102.261C224.129 101.953 224.036 101.575 224.036 101.127C224.036 100.661 224.157 100.245 224.4 99.8812C224.652 99.5078 224.997 99.2185 225.436 99.0132C225.875 98.7985 226.369 98.6912 226.92 98.6912C227.471 98.6912 227.979 98.7985 228.446 99.0132C228.913 99.2185 229.309 99.4892 229.636 99.8252L229.006 100.581C228.726 100.311 228.413 100.101 228.068 99.9512C227.732 99.7925 227.349 99.7132 226.92 99.7132C226.407 99.7132 225.991 99.8345 225.674 100.077C225.366 100.32 225.212 100.647 225.212 101.057C225.212 101.347 225.287 101.589 225.436 101.785C225.595 101.972 225.791 102.126 226.024 102.247C226.257 102.369 226.495 102.481 226.738 102.583L228.04 103.143C228.395 103.293 228.712 103.475 228.992 103.689C229.281 103.895 229.51 104.151 229.678 104.459C229.846 104.758 229.93 105.136 229.93 105.593C229.93 106.079 229.804 106.522 229.552 106.923C229.3 107.315 228.941 107.628 228.474 107.861C228.007 108.095 227.452 108.211 226.808 108.211ZM233.427 108.211C232.699 108.211 232.19 108.001 231.901 107.581C231.621 107.161 231.481 106.615 231.481 105.943V102.177H230.473V101.309L231.537 101.239L231.677 99.3352H232.643V101.239H234.477V102.177H232.643V105.957C232.643 106.377 232.717 106.704 232.867 106.937C233.025 107.161 233.301 107.273 233.693 107.273C233.814 107.273 233.945 107.255 234.085 107.217C234.225 107.171 234.351 107.129 234.463 107.091L234.687 107.959C234.5 108.025 234.295 108.081 234.071 108.127C233.856 108.183 233.641 108.211 233.427 108.211ZM237.282 108.211C236.713 108.211 236.237 108.043 235.854 107.707C235.481 107.362 235.294 106.886 235.294 106.279C235.294 105.533 235.626 104.963 236.288 104.571C236.96 104.17 238.02 103.89 239.466 103.731C239.466 103.442 239.424 103.167 239.34 102.905C239.266 102.644 239.126 102.434 238.92 102.275C238.724 102.107 238.44 102.023 238.066 102.023C237.674 102.023 237.306 102.098 236.96 102.247C236.615 102.397 236.307 102.565 236.036 102.751L235.588 101.953C235.906 101.748 236.293 101.552 236.75 101.365C237.217 101.169 237.721 101.071 238.262 101.071C239.093 101.071 239.695 101.328 240.068 101.841C240.442 102.345 240.628 103.022 240.628 103.871V108.043H239.676L239.578 107.231H239.536C239.219 107.493 238.869 107.721 238.486 107.917C238.113 108.113 237.712 108.211 237.282 108.211ZM237.618 107.287C237.945 107.287 238.253 107.208 238.542 107.049C238.832 106.891 239.14 106.667 239.466 106.377V104.487C238.337 104.627 237.544 104.837 237.086 105.117C236.638 105.397 236.414 105.757 236.414 106.195C236.414 106.578 236.531 106.858 236.764 107.035C236.998 107.203 237.282 107.287 237.618 107.287ZM244.72 108.211C243.992 108.211 243.483 108.001 243.194 107.581C242.914 107.161 242.774 106.615 242.774 105.943V102.177H241.766V101.309L242.83 101.239L242.97 99.3352H243.936V101.239H245.77V102.177H243.936V105.957C243.936 106.377 244.01 106.704 244.16 106.937C244.318 107.161 244.594 107.273 244.986 107.273C245.107 107.273 245.238 107.255 245.378 107.217C245.518 107.171 245.644 107.129 245.756 107.091L245.98 107.959C245.793 108.025 245.588 108.081 245.364 108.127C245.149 108.183 244.934 108.211 244.72 108.211ZM249.296 108.211C248.577 108.211 248.05 107.987 247.714 107.539C247.378 107.082 247.21 106.419 247.21 105.551V101.239H248.372V105.397C248.372 106.032 248.47 106.494 248.666 106.783C248.871 107.073 249.198 107.217 249.646 107.217C250.001 107.217 250.313 107.129 250.584 106.951C250.864 106.765 251.163 106.471 251.48 106.069V101.239H252.628V108.043H251.676L251.578 106.979H251.536C251.219 107.353 250.883 107.651 250.528 107.875C250.173 108.099 249.763 108.211 249.296 108.211ZM256.701 108.211C256.216 108.211 255.754 108.123 255.315 107.945C254.877 107.759 254.494 107.535 254.167 107.273L254.741 106.503C255.04 106.737 255.348 106.933 255.665 107.091C255.983 107.241 256.342 107.315 256.743 107.315C257.191 107.315 257.527 107.213 257.751 107.007C257.975 106.793 258.087 106.541 258.087 106.251C258.087 106.018 258.008 105.822 257.849 105.663C257.7 105.505 257.504 105.374 257.261 105.271C257.028 105.159 256.785 105.057 256.533 104.963C256.216 104.842 255.903 104.707 255.595 104.557C255.287 104.399 255.035 104.198 254.839 103.955C254.643 103.703 254.545 103.386 254.545 103.003C254.545 102.453 254.751 101.995 255.161 101.631C255.581 101.258 256.16 101.071 256.897 101.071C257.317 101.071 257.709 101.146 258.073 101.295C258.437 101.445 258.75 101.627 259.011 101.841L258.451 102.569C258.218 102.392 257.975 102.247 257.723 102.135C257.471 102.023 257.196 101.967 256.897 101.967C256.468 101.967 256.151 102.065 255.945 102.261C255.749 102.457 255.651 102.686 255.651 102.947C255.651 103.162 255.721 103.339 255.861 103.479C256.001 103.61 256.183 103.727 256.407 103.829C256.631 103.923 256.869 104.021 257.121 104.123C257.448 104.245 257.77 104.385 258.087 104.543C258.405 104.693 258.666 104.898 258.871 105.159C259.086 105.411 259.193 105.752 259.193 106.181C259.193 106.545 259.095 106.881 258.899 107.189C258.713 107.497 258.433 107.745 258.059 107.931C257.695 108.118 257.243 108.211 256.701 108.211ZM266.279 108.211C265.682 108.211 265.141 108.071 264.655 107.791C264.17 107.511 263.787 107.105 263.507 106.573C263.227 106.041 263.087 105.402 263.087 104.655C263.087 103.89 263.237 103.241 263.535 102.709C263.843 102.177 264.245 101.771 264.739 101.491C265.243 101.211 265.785 101.071 266.363 101.071C266.811 101.071 267.194 101.151 267.511 101.309C267.838 101.468 268.118 101.655 268.351 101.869L267.763 102.625C267.567 102.448 267.357 102.303 267.133 102.191C266.919 102.079 266.676 102.023 266.405 102.023C265.995 102.023 265.626 102.135 265.299 102.359C264.982 102.574 264.73 102.882 264.543 103.283C264.366 103.675 264.277 104.133 264.277 104.655C264.277 105.43 264.469 106.06 264.851 106.545C265.243 107.021 265.752 107.259 266.377 107.259C266.695 107.259 266.989 107.194 267.259 107.063C267.53 106.923 267.768 106.76 267.973 106.573L268.477 107.343C268.169 107.614 267.829 107.829 267.455 107.987C267.082 108.137 266.69 108.211 266.279 108.211ZM269.976 108.043V98.0752H271.124V100.791L271.082 102.191C271.409 101.883 271.749 101.622 272.104 101.407C272.468 101.183 272.883 101.071 273.35 101.071C274.069 101.071 274.591 101.3 274.918 101.757C275.254 102.205 275.422 102.863 275.422 103.731V108.043H274.274V103.885C274.274 103.251 274.171 102.789 273.966 102.499C273.761 102.21 273.434 102.065 272.986 102.065C272.641 102.065 272.328 102.154 272.048 102.331C271.777 102.509 271.469 102.77 271.124 103.115V108.043H269.976ZM279.159 108.211C278.59 108.211 278.114 108.043 277.731 107.707C277.358 107.362 277.171 106.886 277.171 106.279C277.171 105.533 277.503 104.963 278.165 104.571C278.837 104.17 279.897 103.89 281.343 103.731C281.343 103.442 281.301 103.167 281.217 102.905C281.143 102.644 281.003 102.434 280.797 102.275C280.601 102.107 280.317 102.023 279.943 102.023C279.551 102.023 279.183 102.098 278.837 102.247C278.492 102.397 278.184 102.565 277.913 102.751L277.465 101.953C277.783 101.748 278.17 101.552 278.627 101.365C279.094 101.169 279.598 101.071 280.139 101.071C280.97 101.071 281.572 101.328 281.945 101.841C282.319 102.345 282.505 103.022 282.505 103.871V108.043H281.553L281.455 107.231H281.413C281.096 107.493 280.746 107.721 280.363 107.917C279.99 108.113 279.589 108.211 279.159 108.211ZM279.495 107.287C279.822 107.287 280.13 107.208 280.419 107.049C280.709 106.891 281.017 106.667 281.343 106.377V104.487C280.214 104.627 279.421 104.837 278.963 105.117C278.515 105.397 278.291 105.757 278.291 106.195C278.291 106.578 278.408 106.858 278.641 107.035C278.875 107.203 279.159 107.287 279.495 107.287ZM284.646 108.043V101.239H285.598L285.696 102.219H285.738C286.065 101.893 286.41 101.622 286.774 101.407C287.138 101.183 287.553 101.071 288.02 101.071C288.739 101.071 289.261 101.3 289.588 101.757C289.924 102.205 290.092 102.863 290.092 103.731V108.043H288.944V103.885C288.944 103.251 288.841 102.789 288.636 102.499C288.431 102.21 288.104 102.065 287.656 102.065C287.311 102.065 286.998 102.154 286.718 102.331C286.447 102.509 286.139 102.77 285.794 103.115V108.043H284.646ZM294.598 111.179C293.768 111.179 293.091 111.021 292.568 110.703C292.046 110.386 291.784 109.933 291.784 109.345C291.784 109.056 291.873 108.776 292.05 108.505C292.228 108.244 292.47 108.011 292.778 107.805V107.749C292.61 107.647 292.466 107.502 292.344 107.315C292.232 107.129 292.176 106.905 292.176 106.643C292.176 106.354 292.256 106.102 292.414 105.887C292.573 105.673 292.741 105.505 292.918 105.383V105.327C292.694 105.141 292.489 104.889 292.302 104.571C292.125 104.254 292.036 103.895 292.036 103.493C292.036 102.999 292.153 102.569 292.386 102.205C292.62 101.841 292.932 101.561 293.324 101.365C293.716 101.169 294.141 101.071 294.598 101.071C294.785 101.071 294.962 101.09 295.13 101.127C295.298 101.155 295.443 101.193 295.564 101.239H297.93V102.121H296.53C296.689 102.271 296.82 102.471 296.922 102.723C297.034 102.966 297.09 103.232 297.09 103.521C297.09 104.007 296.978 104.427 296.754 104.781C296.53 105.136 296.232 105.411 295.858 105.607C295.485 105.794 295.065 105.887 294.598 105.887C294.234 105.887 293.894 105.808 293.576 105.649C293.455 105.752 293.352 105.869 293.268 105.999C293.184 106.121 293.142 106.275 293.142 106.461C293.142 106.676 293.226 106.853 293.394 106.993C293.572 107.133 293.889 107.203 294.346 107.203H295.662C296.456 107.203 297.048 107.334 297.44 107.595C297.842 107.847 298.042 108.258 298.042 108.827C298.042 109.247 297.902 109.635 297.622 109.989C297.342 110.344 296.946 110.629 296.432 110.843C295.919 111.067 295.308 111.179 294.598 111.179ZM294.598 105.117C294.99 105.117 295.326 104.973 295.606 104.683C295.896 104.385 296.04 103.988 296.04 103.493C296.04 102.999 295.9 102.611 295.62 102.331C295.34 102.051 295 101.911 294.598 101.911C294.197 101.911 293.856 102.051 293.576 102.331C293.296 102.611 293.156 102.999 293.156 103.493C293.156 103.988 293.296 104.385 293.576 104.683C293.866 104.973 294.206 105.117 294.598 105.117ZM294.766 110.381C295.42 110.381 295.942 110.237 296.334 109.947C296.726 109.667 296.922 109.35 296.922 108.995C296.922 108.678 296.801 108.459 296.558 108.337C296.325 108.216 295.989 108.155 295.55 108.155H294.374C294.244 108.155 294.099 108.146 293.94 108.127C293.791 108.109 293.642 108.081 293.492 108.043C293.25 108.221 293.072 108.407 292.96 108.603C292.848 108.799 292.792 108.995 292.792 109.191C292.792 109.555 292.965 109.845 293.31 110.059C293.665 110.274 294.15 110.381 294.766 110.381ZM301.924 108.211C301.317 108.211 300.766 108.071 300.272 107.791C299.777 107.502 299.385 107.091 299.096 106.559C298.806 106.027 298.662 105.393 298.662 104.655C298.662 103.909 298.806 103.269 299.096 102.737C299.394 102.205 299.777 101.795 300.244 101.505C300.71 101.216 301.2 101.071 301.714 101.071C302.582 101.071 303.249 101.361 303.716 101.939C304.192 102.518 304.43 103.293 304.43 104.263C304.43 104.385 304.425 104.506 304.416 104.627C304.416 104.739 304.406 104.837 304.388 104.921H299.796C299.842 105.64 300.066 106.214 300.468 106.643C300.878 107.073 301.41 107.287 302.064 107.287C302.39 107.287 302.689 107.241 302.96 107.147C303.24 107.045 303.506 106.914 303.758 106.755L304.164 107.511C303.874 107.698 303.543 107.861 303.17 108.001C302.806 108.141 302.39 108.211 301.924 108.211ZM299.782 104.095H303.422C303.422 103.405 303.272 102.882 302.974 102.527C302.684 102.163 302.274 101.981 301.742 101.981C301.266 101.981 300.836 102.168 300.454 102.541C300.08 102.905 299.856 103.423 299.782 104.095ZM309.992 108.043L308.102 101.239H309.278L310.286 105.173C310.36 105.491 310.43 105.808 310.496 106.125C310.561 106.433 310.626 106.746 310.692 107.063H310.748C310.822 106.746 310.897 106.433 310.972 106.125C311.046 105.808 311.126 105.491 311.21 105.173L312.26 101.239H313.38L314.444 105.173C314.528 105.491 314.607 105.808 314.682 106.125C314.766 106.433 314.845 106.746 314.92 107.063H314.976C315.05 106.746 315.12 106.433 315.186 106.125C315.26 105.808 315.33 105.491 315.396 105.173L316.39 101.239H317.482L315.662 108.043H314.262L313.282 104.389C313.198 104.063 313.118 103.741 313.044 103.423C312.978 103.106 312.904 102.775 312.82 102.429H312.764C312.689 102.775 312.614 103.111 312.54 103.437C312.465 103.755 312.381 104.077 312.288 104.403L311.336 108.043H309.992ZM320.394 108.211C319.824 108.211 319.348 108.043 318.966 107.707C318.592 107.362 318.406 106.886 318.406 106.279C318.406 105.533 318.737 104.963 319.4 104.571C320.072 104.17 321.131 103.89 322.578 103.731C322.578 103.442 322.536 103.167 322.452 102.905C322.377 102.644 322.237 102.434 322.032 102.275C321.836 102.107 321.551 102.023 321.178 102.023C320.786 102.023 320.417 102.098 320.072 102.247C319.726 102.397 319.418 102.565 319.148 102.751L318.7 101.953C319.017 101.748 319.404 101.552 319.862 101.365C320.328 101.169 320.832 101.071 321.374 101.071C322.204 101.071 322.806 101.328 323.18 101.841C323.553 102.345 323.74 103.022 323.74 103.871V108.043H322.788L322.69 107.231H322.648C322.33 107.493 321.98 107.721 321.598 107.917C321.224 108.113 320.823 108.211 320.394 108.211ZM320.73 107.287C321.056 107.287 321.364 107.208 321.654 107.049C321.943 106.891 322.251 106.667 322.578 106.377V104.487C321.448 104.627 320.655 104.837 320.198 105.117C319.75 105.397 319.526 105.757 319.526 106.195C319.526 106.578 319.642 106.858 319.876 107.035C320.109 107.203 320.394 107.287 320.73 107.287ZM327.658 108.211C327.173 108.211 326.711 108.123 326.272 107.945C325.834 107.759 325.451 107.535 325.124 107.273L325.698 106.503C325.997 106.737 326.305 106.933 326.622 107.091C326.94 107.241 327.299 107.315 327.7 107.315C328.148 107.315 328.484 107.213 328.708 107.007C328.932 106.793 329.044 106.541 329.044 106.251C329.044 106.018 328.965 105.822 328.806 105.663C328.657 105.505 328.461 105.374 328.218 105.271C327.985 105.159 327.742 105.057 327.49 104.963C327.173 104.842 326.86 104.707 326.552 104.557C326.244 104.399 325.992 104.198 325.796 103.955C325.6 103.703 325.502 103.386 325.502 103.003C325.502 102.453 325.708 101.995 326.118 101.631C326.538 101.258 327.117 101.071 327.854 101.071C328.274 101.071 328.666 101.146 329.03 101.295C329.394 101.445 329.707 101.627 329.968 101.841L329.408 102.569C329.175 102.392 328.932 102.247 328.68 102.135C328.428 102.023 328.153 101.967 327.854 101.967C327.425 101.967 327.108 102.065 326.902 102.261C326.706 102.457 326.608 102.686 326.608 102.947C326.608 103.162 326.678 103.339 326.818 103.479C326.958 103.61 327.14 103.727 327.364 103.829C327.588 103.923 327.826 104.021 328.078 104.123C328.405 104.245 328.727 104.385 329.044 104.543C329.362 104.693 329.623 104.898 329.828 105.159C330.043 105.411 330.15 105.752 330.15 106.181C330.15 106.545 330.052 106.881 329.856 107.189C329.67 107.497 329.39 107.745 329.016 107.931C328.652 108.118 328.2 108.211 327.658 108.211ZM336.326 108.211C335.841 108.211 335.379 108.123 334.94 107.945C334.502 107.759 334.119 107.535 333.792 107.273L334.366 106.503C334.665 106.737 334.973 106.933 335.29 107.091C335.608 107.241 335.967 107.315 336.368 107.315C336.816 107.315 337.152 107.213 337.376 107.007C337.6 106.793 337.712 106.541 337.712 106.251C337.712 106.018 337.633 105.822 337.474 105.663C337.325 105.505 337.129 105.374 336.886 105.271C336.653 105.159 336.41 105.057 336.158 104.963C335.841 104.842 335.528 104.707 335.22 104.557C334.912 104.399 334.66 104.198 334.464 103.955C334.268 103.703 334.17 103.386 334.17 103.003C334.17 102.453 334.376 101.995 334.786 101.631C335.206 101.258 335.785 101.071 336.522 101.071C336.942 101.071 337.334 101.146 337.698 101.295C338.062 101.445 338.375 101.627 338.636 101.841L338.076 102.569C337.843 102.392 337.6 102.247 337.348 102.135C337.096 102.023 336.821 101.967 336.522 101.967C336.093 101.967 335.776 102.065 335.57 102.261C335.374 102.457 335.276 102.686 335.276 102.947C335.276 103.162 335.346 103.339 335.486 103.479C335.626 103.61 335.808 103.727 336.032 103.829C336.256 103.923 336.494 104.021 336.746 104.123C337.073 104.245 337.395 104.385 337.712 104.543C338.03 104.693 338.291 104.898 338.496 105.159C338.711 105.411 338.818 105.752 338.818 106.181C338.818 106.545 338.72 106.881 338.524 107.189C338.338 107.497 338.058 107.745 337.684 107.931C337.32 108.118 336.868 108.211 336.326 108.211ZM342.402 108.211C341.683 108.211 341.156 107.987 340.82 107.539C340.484 107.082 340.316 106.419 340.316 105.551V101.239H341.478V105.397C341.478 106.032 341.576 106.494 341.772 106.783C341.977 107.073 342.304 107.217 342.752 107.217C343.106 107.217 343.419 107.129 343.69 106.951C343.97 106.765 344.268 106.471 344.586 106.069V101.239H345.734V108.043H344.782L344.684 106.979H344.642C344.324 107.353 343.988 107.651 343.634 107.875C343.279 108.099 342.868 108.211 342.402 108.211ZM350.717 108.211C350.12 108.211 349.578 108.071 349.093 107.791C348.608 107.511 348.225 107.105 347.945 106.573C347.665 106.041 347.525 105.402 347.525 104.655C347.525 103.89 347.674 103.241 347.973 102.709C348.281 102.177 348.682 101.771 349.177 101.491C349.681 101.211 350.222 101.071 350.801 101.071C351.249 101.071 351.632 101.151 351.949 101.309C352.276 101.468 352.556 101.655 352.789 101.869L352.201 102.625C352.005 102.448 351.795 102.303 351.571 102.191C351.356 102.079 351.114 102.023 350.843 102.023C350.432 102.023 350.064 102.135 349.737 102.359C349.42 102.574 349.168 102.882 348.981 103.283C348.804 103.675 348.715 104.133 348.715 104.655C348.715 105.43 348.906 106.06 349.289 106.545C349.681 107.021 350.19 107.259 350.815 107.259C351.132 107.259 351.426 107.194 351.697 107.063C351.968 106.923 352.206 106.76 352.411 106.573L352.915 107.343C352.607 107.614 352.266 107.829 351.893 107.987C351.52 108.137 351.128 108.211 350.717 108.211ZM356.801 108.211C356.204 108.211 355.662 108.071 355.177 107.791C354.692 107.511 354.309 107.105 354.029 106.573C353.749 106.041 353.609 105.402 353.609 104.655C353.609 103.89 353.758 103.241 354.057 102.709C354.365 102.177 354.766 101.771 355.261 101.491C355.765 101.211 356.306 101.071 356.885 101.071C357.333 101.071 357.716 101.151 358.033 101.309C358.36 101.468 358.64 101.655 358.873 101.869L358.285 102.625C358.089 102.448 357.879 102.303 357.655 102.191C357.44 102.079 357.198 102.023 356.927 102.023C356.516 102.023 356.148 102.135 355.821 102.359C355.504 102.574 355.252 102.882 355.065 103.283C354.888 103.675 354.799 104.133 354.799 104.655C354.799 105.43 354.99 106.06 355.373 106.545C355.765 107.021 356.274 107.259 356.899 107.259C357.216 107.259 357.51 107.194 357.781 107.063C358.052 106.923 358.29 106.76 358.495 106.573L358.999 107.343C358.691 107.614 358.35 107.829 357.977 107.987C357.604 108.137 357.212 108.211 356.801 108.211ZM362.955 108.211C362.348 108.211 361.797 108.071 361.303 107.791C360.808 107.502 360.416 107.091 360.127 106.559C359.837 106.027 359.693 105.393 359.693 104.655C359.693 103.909 359.837 103.269 360.127 102.737C360.425 102.205 360.808 101.795 361.275 101.505C361.741 101.216 362.231 101.071 362.745 101.071C363.613 101.071 364.28 101.361 364.747 101.939C365.223 102.518 365.461 103.293 365.461 104.263C365.461 104.385 365.456 104.506 365.447 104.627C365.447 104.739 365.437 104.837 365.419 104.921H360.827C360.873 105.64 361.097 106.214 361.499 106.643C361.909 107.073 362.441 107.287 363.095 107.287C363.421 107.287 363.72 107.241 363.991 107.147C364.271 107.045 364.537 106.914 364.789 106.755L365.195 107.511C364.905 107.698 364.574 107.861 364.201 108.001C363.837 108.141 363.421 108.211 362.955 108.211ZM360.813 104.095H364.453C364.453 103.405 364.303 102.882 364.005 102.527C363.715 102.163 363.305 101.981 362.773 101.981C362.297 101.981 361.867 102.168 361.485 102.541C361.111 102.905 360.887 103.423 360.813 104.095ZM368.92 108.211C368.435 108.211 367.973 108.123 367.534 107.945C367.095 107.759 366.713 107.535 366.386 107.273L366.96 106.503C367.259 106.737 367.567 106.933 367.884 107.091C368.201 107.241 368.561 107.315 368.962 107.315C369.41 107.315 369.746 107.213 369.97 107.007C370.194 106.793 370.306 106.541 370.306 106.251C370.306 106.018 370.227 105.822 370.068 105.663C369.919 105.505 369.723 105.374 369.48 105.271C369.247 105.159 369.004 105.057 368.752 104.963C368.435 104.842 368.122 104.707 367.814 104.557C367.506 104.399 367.254 104.198 367.058 103.955C366.862 103.703 366.764 103.386 366.764 103.003C366.764 102.453 366.969 101.995 367.38 101.631C367.8 101.258 368.379 101.071 369.116 101.071C369.536 101.071 369.928 101.146 370.292 101.295C370.656 101.445 370.969 101.627 371.23 101.841L370.67 102.569C370.437 102.392 370.194 102.247 369.942 102.135C369.69 102.023 369.415 101.967 369.116 101.967C368.687 101.967 368.369 102.065 368.164 102.261C367.968 102.457 367.87 102.686 367.87 102.947C367.87 103.162 367.94 103.339 368.08 103.479C368.22 103.61 368.402 103.727 368.626 103.829C368.85 103.923 369.088 104.021 369.34 104.123C369.667 104.245 369.989 104.385 370.306 104.543C370.623 104.693 370.885 104.898 371.09 105.159C371.305 105.411 371.412 105.752 371.412 106.181C371.412 106.545 371.314 106.881 371.118 107.189C370.931 107.497 370.651 107.745 370.278 107.931C369.914 108.118 369.461 108.211 368.92 108.211ZM373.203 108.043V102.177H372.279V101.309L373.203 101.239V100.161C373.203 99.4705 373.362 98.9245 373.679 98.5232C374.006 98.1125 374.51 97.9072 375.191 97.9072C375.406 97.9072 375.611 97.9305 375.807 97.9772C376.003 98.0145 376.176 98.0658 376.325 98.1312L376.073 99.0132C375.821 98.9012 375.565 98.8452 375.303 98.8452C374.669 98.8452 374.351 99.2838 374.351 100.161V101.239H375.793V102.177H374.351V108.043H373.203ZM379.083 108.211C378.365 108.211 377.837 107.987 377.501 107.539C377.165 107.082 376.997 106.419 376.997 105.551V101.239H378.159V105.397C378.159 106.032 378.257 106.494 378.453 106.783C378.659 107.073 378.985 107.217 379.433 107.217C379.788 107.217 380.101 107.129 380.371 106.951C380.651 106.765 380.95 106.471 381.267 106.069V101.239H382.415V108.043H381.463L381.365 106.979H381.323C381.006 107.353 380.67 107.651 380.315 107.875C379.961 108.099 379.55 108.211 379.083 108.211ZM385.929 108.211C385.499 108.211 385.187 108.081 384.991 107.819C384.804 107.549 384.711 107.166 384.711 106.671V98.0752H385.859V106.755C385.859 106.933 385.891 107.063 385.957 107.147C386.022 107.222 386.097 107.259 386.181 107.259C386.218 107.259 386.251 107.259 386.279 107.259C386.316 107.25 386.367 107.241 386.433 107.231L386.587 108.099C386.512 108.137 386.423 108.165 386.321 108.183C386.218 108.202 386.087 108.211 385.929 108.211ZM388.881 108.211C388.648 108.211 388.447 108.132 388.279 107.973C388.12 107.805 388.041 107.595 388.041 107.343C388.041 107.073 388.12 106.858 388.279 106.699C388.447 106.531 388.648 106.447 388.881 106.447C389.105 106.447 389.296 106.531 389.455 106.699C389.623 106.858 389.707 107.073 389.707 107.343C389.707 107.595 389.623 107.805 389.455 107.973C389.296 108.132 389.105 108.211 388.881 108.211Z" fill="white"/>
<path d="M174 91.5432L183 99.5432L198.5 84.0432" stroke="white" stroke-width="4.5" stroke-linejoin="round"/>
</g>
<defs>
<filter id="filter0_d_1170_9550" x="155" y="45.0432" width="343" height="97" filterUnits="userSpaceOnUse" color-interpolation-filters="sRGB">
<feFlood flood-opacity="0" result="BackgroundImageFix"/>
<feColorMatrix in="SourceAlpha" type="matrix" values="0 0 0 0 0 0 0 0 0 0 0 0 0 0 0 0 0 0 127 0" result="hardAlpha"/>
<feOffset dx="2" dy="2"/>
<feGaussianBlur stdDeviation="1"/>
<feComposite in2="hardAlpha" operator="out"/>
<feColorMatrix type="matrix" values="0 0 0 0 0 0 0 0 0 0 0 0 0 0 0 0 0 0 0.25 0"/>
<feBlend mode="normal" in2="BackgroundImageFix" result="effect1_dropShadow_1170_9550"/>
<feBlend mode="normal" in="SourceGraphic" in2="effect1_dropShadow_1170_9550" result="shape"/>
</filter>
</defs>
</svg>
