<svg width="440" height="190" viewBox="0 0 440 190" fill="none" xmlns="http://www.w3.org/2000/svg">
<path d="M1.985 5.39H36.69L37.515 18.645H36.965C33.665 8.965 30.695 6.435 26.405 6.435H24.04V39.71C24.04 42.625 25.085 42.9 28.77 43.23V44H9.905V43.23C13.59 42.9 14.69 42.625 14.69 39.71V6.435H12.27C7.98 6.435 5.01 8.965 1.71 18.645H1.16L1.985 5.39ZM60.3714 41.03V23.54C60.3714 20.57 59.2164 18.92 56.1914 18.92C54.2664 18.92 52.5064 19.525 50.9114 20.405V41.03C50.9114 42.955 51.9014 43.175 54.2664 43.34V44H38.7564V43.34C41.1214 43.175 42.1114 42.955 42.1114 41.03V6.985L38.8664 4.235V4.015L50.6914 0.934997H50.9114V20.02C52.7814 17.435 56.6864 14.08 61.1964 14.08C66.4214 14.08 69.2264 17.38 69.2264 23.045V41.03C69.2264 42.955 70.1614 43.175 72.5814 43.34V44H57.0164V43.34C59.3814 43.175 60.3714 42.955 60.3714 41.03ZM99.9073 34.595C98.6973 40.535 93.9673 44.55 87.6423 44.55C79.8323 44.55 74.0023 38.83 74.0023 30.03C74.0023 21.01 80.4373 14.08 88.1373 14.08C95.7823 14.08 99.6873 19.25 99.6873 25.63V25.96H81.8123V26.125C81.8123 34.1 85.6073 38.61 91.3823 38.61C94.7373 38.61 97.7073 37.29 99.6323 34.485L99.9073 34.595ZM87.3673 14.96C84.0123 14.96 82.0873 19.525 81.8673 24.915H91.9873C91.9873 19.25 90.6123 14.96 87.3673 14.96ZM127.546 43.67C131.946 43.67 134.476 37.895 134.476 30.58C134.476 23.265 131.891 18.92 127.161 18.92C125.676 18.92 124.301 19.36 123.201 20.295V36.96C123.201 41.14 124.741 43.67 127.546 43.67ZM123.201 52.525C123.201 54.45 124.576 54.67 127.711 55V55.66H110.991V55C113.411 54.835 114.346 54.615 114.346 52.69V20.13L111.101 17.38V17.16L123.201 14.08H123.421L123.201 19.8C124.906 16.94 128.261 14.08 132.661 14.08C139.316 14.08 143.496 19.36 143.496 27.5C143.496 37.73 136.786 44.55 128.041 44.55C126.061 44.55 124.301 44.055 123.201 43.175V52.525ZM157.368 0.934997V41.03C157.368 42.955 158.303 43.175 160.723 43.34V44H145.158V43.34C147.578 43.175 148.513 42.955 148.513 41.03V6.985L145.268 4.235V4.015L157.148 0.934997H157.368ZM186.613 23.375V38.225C186.613 39.985 187.438 40.81 188.868 40.81C189.583 40.81 190.188 40.645 190.628 40.425L190.793 40.7C189.363 42.955 186.778 44.495 183.973 44.495C180.838 44.495 178.638 42.68 177.978 39.985C176.273 42.13 173.303 44.385 169.618 44.385C165.438 44.385 161.973 41.745 161.973 37.345C161.973 33.055 165.328 30.745 170.113 29.15L177.923 26.455V20.295C177.923 17.16 177.043 14.905 174.513 14.905C172.093 14.905 171.048 17.05 171.048 20.13C171.048 21.45 171.268 23.155 171.653 24.2L166.153 24.915C164.723 24.475 163.568 23.155 163.568 21.285C163.568 16.775 169.123 14.08 175.118 14.08C182.433 14.08 186.613 16.555 186.613 23.375ZM174.788 40.59C175.943 40.59 177.043 40.26 177.923 39.38V27.335L174.348 28.82C171.818 29.81 170.443 31.35 170.443 34.76C170.443 38.28 172.093 40.59 174.788 40.59ZM202.469 7.26V15.18H209.564V17.16H202.469V35.31C202.469 38.61 204.009 40.095 206.759 40.095C207.969 40.095 209.399 39.71 210.609 38.885L210.774 39.16C208.959 42.02 205.769 44.55 201.644 44.55C196.859 44.55 193.559 41.745 193.559 35.805V17.16H190.314V16.5C194.274 14.795 199.389 10.945 202.139 7.26H202.469ZM223.436 40.865C223.436 42.79 224.811 43.01 227.946 43.34V44H211.281V43.34C213.646 43.175 214.581 42.955 214.581 41.03V17.16H210.621V16.83L214.581 14.41V13.09C214.581 5.06 220.081 0.934997 226.901 0.934997C231.796 0.934997 234.546 2.75 234.546 5.775C234.546 7.205 233.666 8.69 232.621 9.185H227.946C228.111 8.305 228.221 7.37 228.221 6.215C228.221 3.905 227.891 1.65 226.131 1.65C224.316 1.65 223.436 3.52 223.436 6.875V15.18H230.036V17.16H223.436V40.865ZM245.526 14.08C254.106 14.08 260.211 20.02 260.211 28.71C260.211 38.005 253.721 44.55 245.361 44.55C236.836 44.55 230.676 38.61 230.676 29.92C230.676 20.625 237.221 14.08 245.526 14.08ZM245.636 43.78C249.321 43.78 250.861 38.885 250.861 31.075C250.861 21.67 249.156 14.85 245.251 14.85C241.621 14.85 240.081 19.745 240.081 27.555C240.081 36.96 241.786 43.78 245.636 43.78ZM274.247 23.65C275.897 17.875 278.152 14.08 281.892 14.08C283.047 14.08 283.927 14.41 284.422 14.795V22H283.212C279.802 22 276.612 22.22 274.247 24.255V40.865C274.247 42.79 275.622 43.01 278.757 43.34V44H262.092V43.34C264.457 43.175 265.392 42.955 265.392 41.03V20.13L262.147 17.38V17.16L274.247 14.08H274.467L274.247 23.65ZM332.861 41.03C332.861 42.955 333.851 43.175 336.216 43.34V44H320.871V43.34C323.236 43.175 324.061 42.955 324.061 41.03V23.54C324.061 20.57 322.961 18.92 320.156 18.92C318.396 18.92 316.746 19.525 315.371 20.405V41.03C315.371 42.955 316.141 43.175 318.506 43.34V44H303.326V43.34C305.691 43.175 306.516 42.955 306.516 41.03V23.54C306.516 20.57 305.471 18.92 302.666 18.92C300.851 18.92 299.256 19.525 297.826 20.405V41.03C297.826 42.955 298.651 43.175 301.016 43.34V44H285.671V43.34C288.036 43.175 288.971 42.955 288.971 41.03V20.13L285.726 17.38V17.16L297.826 14.08H298.046L297.826 20.02C299.586 17.435 303.216 14.08 307.671 14.08C311.741 14.08 314.436 16.28 315.316 20.02C317.076 17.435 320.761 14.08 325.216 14.08C330.221 14.08 332.861 17.38 332.861 23.045V41.03ZM13.48 107.865C13.48 109.79 14.855 110.01 17.99 110.34V111H1.325V110.34C3.69 110.175 4.625 109.955 4.625 108.03V84.16H0.665V83.83L4.625 81.41V80.09C4.625 72.06 10.125 67.935 16.945 67.935C21.84 67.935 24.59 69.75 24.59 72.775C24.59 74.205 23.71 75.69 22.665 76.185H17.99C18.155 75.305 18.265 74.37 18.265 73.215C18.265 70.905 17.935 68.65 16.175 68.65C14.36 68.65 13.48 70.52 13.48 73.875V82.18H20.08V84.16H13.48V107.865ZM35.5698 81.08C44.1498 81.08 50.2548 87.02 50.2548 95.71C50.2548 105.005 43.7648 111.55 35.4048 111.55C26.8798 111.55 20.7198 105.61 20.7198 96.92C20.7198 87.625 27.2648 81.08 35.5698 81.08ZM35.6798 110.78C39.3648 110.78 40.9048 105.885 40.9048 98.075C40.9048 88.67 39.1998 81.85 35.2948 81.85C31.6648 81.85 30.1248 86.745 30.1248 94.555C30.1248 103.96 31.8298 110.78 35.6798 110.78ZM64.2905 90.65C65.9405 84.875 68.1955 81.08 71.9355 81.08C73.0905 81.08 73.9705 81.41 74.4655 81.795V89H73.2555C69.8455 89 66.6555 89.22 64.2905 91.255V107.865C64.2905 109.79 65.6655 110.01 68.8005 110.34V111H52.1355V110.34C54.5005 110.175 55.4355 109.955 55.4355 108.03V87.13L52.1905 84.38V84.16L64.2905 81.08H64.5105L64.2905 90.65ZM110.344 90.375V105.225C110.344 106.985 111.169 107.81 112.599 107.81C113.314 107.81 113.919 107.645 114.359 107.425L114.524 107.7C113.094 109.955 110.509 111.495 107.704 111.495C104.569 111.495 102.369 109.68 101.709 106.985C100.004 109.13 97.0336 111.385 93.3486 111.385C89.1686 111.385 85.7036 108.745 85.7036 104.345C85.7036 100.055 89.0586 97.745 93.8436 96.15L101.654 93.455V87.295C101.654 84.16 100.774 81.905 98.2436 81.905C95.8236 81.905 94.7786 84.05 94.7786 87.13C94.7786 88.45 94.9986 90.155 95.3836 91.2L89.8836 91.915C88.4536 91.475 87.2986 90.155 87.2986 88.285C87.2986 83.775 92.8536 81.08 98.8486 81.08C106.164 81.08 110.344 83.555 110.344 90.375ZM98.5186 107.59C99.6736 107.59 100.774 107.26 101.654 106.38V94.335L98.0786 95.82C95.5486 96.81 94.1736 98.35 94.1736 101.76C94.1736 105.28 95.8236 107.59 98.5186 107.59ZM128.895 82.015C125.32 82.015 122.845 87.075 122.845 92.795C122.845 101.1 126.475 105.61 132.03 105.61C135.22 105.61 137.86 104.29 139.785 101.485L140.005 101.595C138.85 107.59 134.395 111.55 128.18 111.55C120.645 111.55 115.145 105.83 115.145 97.03C115.145 88.01 121.745 81.08 129.94 81.08C135.33 81.08 139.51 83.39 139.51 87.57C139.51 89.495 138.355 91.035 137.2 91.585H132.415C132.635 90.54 132.745 89.66 132.745 88.67C132.745 85.645 131.865 82.015 128.895 82.015ZM152.841 74.26V82.18H159.936V84.16H152.841V102.31C152.841 105.61 154.381 107.095 157.131 107.095C158.341 107.095 159.771 106.71 160.981 105.885L161.146 106.16C159.331 109.02 156.141 111.55 152.016 111.55C147.231 111.55 143.931 108.745 143.931 102.805V84.16H140.686V83.5C144.646 81.795 149.761 77.945 152.511 74.26H152.841ZM169.407 78.165C166.382 78.165 164.457 76.02 164.457 73.49C164.457 70.96 166.382 68.76 169.407 68.76C172.377 68.76 174.302 70.96 174.302 73.49C174.302 76.02 172.377 78.165 169.407 78.165ZM173.807 81.08V108.03C173.807 109.955 174.797 110.175 177.162 110.34V111H161.652V110.34C164.017 110.175 164.952 109.955 164.952 108.03V87.13L161.707 84.38V84.16L173.587 81.08H173.807ZM208.234 81.63V82.29C206.254 82.62 205.374 83.39 204.384 85.755L193.769 111.33H192.339L180.129 85.315C179.139 83.28 178.699 82.73 176.774 82.29V81.63H193.219V82.29C190.469 82.565 189.479 83.06 189.479 84.16C189.479 84.6 189.589 85.15 189.864 85.755L196.519 101.98L202.789 86.14C203.009 85.48 203.119 84.93 203.119 84.435C203.119 82.95 201.579 82.455 198.554 82.29V81.63H208.234ZM232.788 101.595C231.578 107.535 226.848 111.55 220.523 111.55C212.713 111.55 206.883 105.83 206.883 97.03C206.883 88.01 213.318 81.08 221.018 81.08C228.663 81.08 232.568 86.25 232.568 92.63V92.96H214.693V93.125C214.693 101.1 218.488 105.61 224.263 105.61C227.618 105.61 230.588 104.29 232.513 101.485L232.788 101.595ZM220.248 81.96C216.893 81.96 214.968 86.525 214.748 91.915H224.868C224.868 86.25 223.493 81.96 220.248 81.96ZM268.952 90.375V105.225C268.952 106.985 269.777 107.81 271.207 107.81C271.922 107.81 272.527 107.645 272.967 107.425L273.132 107.7C271.702 109.955 269.117 111.495 266.312 111.495C263.177 111.495 260.977 109.68 260.317 106.985C258.612 109.13 255.642 111.385 251.957 111.385C247.777 111.385 244.312 108.745 244.312 104.345C244.312 100.055 247.667 97.745 252.452 96.15L260.262 93.455V87.295C260.262 84.16 259.382 81.905 256.852 81.905C254.432 81.905 253.387 84.05 253.387 87.13C253.387 88.45 253.607 90.155 253.992 91.2L248.492 91.915C247.062 91.475 245.907 90.155 245.907 88.285C245.907 83.775 251.462 81.08 257.457 81.08C264.772 81.08 268.952 83.555 268.952 90.375ZM257.127 107.59C258.282 107.59 259.382 107.26 260.262 106.38V94.335L256.687 95.82C254.157 96.81 252.782 98.35 252.782 101.76C252.782 105.28 254.432 107.59 257.127 107.59ZM286.623 99.615C289.373 99.615 290.418 96.37 290.418 91.42C290.418 86.03 289.043 81.795 286.128 81.795C283.378 81.795 282.333 85.04 282.333 89.825C282.333 95.38 283.763 99.615 286.623 99.615ZM302.078 111.55C302.078 118.535 295.093 123.265 285.358 123.265C278.318 123.265 272.268 121.12 272.268 117.05C272.268 114.19 275.513 112.54 278.373 112.1C276.008 111.165 273.808 109.35 273.808 106.38C273.808 102.86 276.613 100.55 279.803 99.01C276.558 97.635 274.083 95.05 274.083 91.145C274.083 85.04 279.638 81.08 286.568 81.08C288.218 81.08 289.923 81.41 291.518 81.96L300.978 81.3V84.875H300.593L294.818 83.61C297.073 85.205 298.668 87.515 298.668 90.265C298.668 96.37 293.113 100.33 286.238 100.33C284.258 100.33 282.168 100 280.298 99.23C279.363 100.165 278.538 101.265 278.538 102.53C278.538 103.575 279.143 104.29 280.573 104.29H292.343C298.558 104.29 302.078 106.545 302.078 111.55ZM291.518 112.21H278.813C277.878 112.925 277.438 114.135 277.438 115.785C277.438 119.91 281.123 122.495 286.403 122.495C291.353 122.495 296.138 120.515 296.138 116.005C296.138 113.255 294.378 112.21 291.518 112.21ZM310.398 78.165C307.373 78.165 305.448 76.02 305.448 73.49C305.448 70.96 307.373 68.76 310.398 68.76C313.368 68.76 315.293 70.96 315.293 73.49C315.293 76.02 313.368 78.165 310.398 78.165ZM314.798 81.08V108.03C314.798 109.955 315.788 110.175 318.153 110.34V111H302.643V110.34C305.008 110.175 305.943 109.955 305.943 108.03V87.13L302.698 84.38V84.16L314.578 81.08H314.798ZM341.124 108.03V90.54C341.124 87.57 339.969 85.92 336.944 85.92C334.964 85.92 333.204 86.525 331.664 87.405V108.03C331.664 109.955 332.654 110.175 335.019 110.34V111H319.509V110.34C321.874 110.175 322.809 109.955 322.809 108.03V87.13L319.564 84.38V84.16L331.664 81.08H331.884L331.664 87.02C333.534 84.435 337.384 81.08 341.894 81.08C347.119 81.08 349.924 84.38 349.924 90.045V108.03C349.924 109.955 350.914 110.175 353.279 110.34V111H337.769V110.34C340.134 110.175 341.124 109.955 341.124 108.03ZM367.619 99.615C370.369 99.615 371.414 96.37 371.414 91.42C371.414 86.03 370.039 81.795 367.124 81.795C364.374 81.795 363.329 85.04 363.329 89.825C363.329 95.38 364.759 99.615 367.619 99.615ZM383.074 111.55C383.074 118.535 376.089 123.265 366.354 123.265C359.314 123.265 353.264 121.12 353.264 117.05C353.264 114.19 356.509 112.54 359.369 112.1C357.004 111.165 354.804 109.35 354.804 106.38C354.804 102.86 357.609 100.55 360.799 99.01C357.554 97.635 355.079 95.05 355.079 91.145C355.079 85.04 360.634 81.08 367.564 81.08C369.214 81.08 370.919 81.41 372.514 81.96L381.974 81.3V84.875H381.589L375.814 83.61C378.069 85.205 379.664 87.515 379.664 90.265C379.664 96.37 374.109 100.33 367.234 100.33C365.254 100.33 363.164 100 361.294 99.23C360.359 100.165 359.534 101.265 359.534 102.53C359.534 103.575 360.139 104.29 361.569 104.29H373.339C379.554 104.29 383.074 106.545 383.074 111.55ZM372.514 112.21H359.809C358.874 112.925 358.434 114.135 358.434 115.785C358.434 119.91 362.119 122.495 367.399 122.495C372.349 122.495 377.134 120.515 377.134 116.005C377.134 113.255 375.374 112.21 372.514 112.21ZM384.572 106.325C384.572 103.3 386.882 101.1 389.797 101.1C392.657 101.1 394.967 103.3 394.967 106.325C394.967 109.35 392.657 111.55 389.797 111.55C386.882 111.55 384.572 109.35 384.572 106.325ZM2.04 139.39H34.93L35.755 151.435H35.26C32.51 142.8 30.31 140.38 25.25 140.38H21.785V173.655C21.785 176.735 23.16 177.065 26.9 177.395V178H10.07V177.395C13.865 177.065 15.295 176.735 15.295 173.655V140.38H11.72C6.715 140.38 4.515 142.8 1.765 151.435H1.215L2.04 139.39ZM44.13 144.725C41.875 144.725 40.225 142.965 40.225 140.875C40.225 138.73 41.875 136.97 44.13 136.97C46.44 136.97 48.09 138.73 48.09 140.875C48.09 142.965 46.44 144.725 44.13 144.725ZM47.375 148.63V174.865C47.375 177.01 48.475 177.23 51.225 177.395V178H37.42V177.395C40.17 177.23 41.215 177.01 41.215 174.865V153.8L37.585 151.71V151.49L47.155 148.63H47.375ZM77.0939 169.64C75.8289 174.755 71.5939 178.55 65.7639 178.55C58.0089 178.55 53.0589 172.39 53.0589 164.36C53.0589 155.45 58.8889 148.63 66.1489 148.63C73.0239 148.63 76.7089 153.47 76.7089 159.685V160.125H58.5589V161.005C58.5589 169.255 62.5189 174.15 68.3489 174.15C72.0339 174.15 74.9489 172.5 76.8739 169.53L77.0939 169.64ZM65.4339 149.51C61.5839 149.51 59.1089 153.91 58.6139 159.19H71.0439C71.0439 153.8 69.4489 149.51 65.4339 149.51ZM122.667 174.865C122.667 177.01 123.767 177.23 126.517 177.395V178H112.767V177.395C115.517 177.23 116.562 177.01 116.562 174.865V158.09C116.562 154.075 115.132 152.315 111.997 152.315C109.797 152.315 107.432 153.25 105.727 154.625V174.865C105.727 177.01 106.717 177.23 109.467 177.395V178H95.8275V177.395C98.5775 177.23 99.5675 177.01 99.5675 174.865V158.09C99.5675 154.075 98.1925 152.315 95.0025 152.315C92.8025 152.315 90.4925 153.25 88.7325 154.625V174.865C88.7325 177.01 89.7775 177.23 92.5275 177.395V178H78.7775V177.395C81.5275 177.23 82.5725 177.01 82.5725 174.865V153.8L78.9425 151.71V151.49L88.7325 148.63H88.9525L88.7325 154.185C90.7675 151.655 94.2325 148.63 98.4125 148.63C102.317 148.63 104.902 150.555 105.672 154.24C107.707 151.71 111.227 148.63 115.352 148.63C120.302 148.63 122.667 151.71 122.667 157.485V174.865ZM142.667 177.725C147.837 177.725 151.137 171.84 151.137 164.36C151.137 157.485 148.552 152.205 142.777 152.205C140.632 152.205 138.597 153.085 137.222 154.515V170.41C137.222 175.195 139.422 177.725 142.667 177.725ZM137.222 186.47C137.222 188.615 138.542 188.725 142.172 189.055V189.66H127.267V189.055C130.017 188.89 131.062 188.67 131.062 186.525V153.8L127.432 151.71V151.49L137.222 148.63H137.442L137.222 154.02C139.202 151.16 142.447 148.63 146.737 148.63C153.392 148.63 157.352 153.91 157.352 161.885C157.352 171.18 151.357 178.55 142.832 178.55C140.852 178.55 138.597 177.945 137.222 176.735V186.47ZM174.227 148.63C182.202 148.63 187.592 154.735 187.592 162.875C187.592 172.335 181.597 178.55 173.952 178.55C166.032 178.55 160.587 172.445 160.587 164.25C160.587 154.845 166.637 148.63 174.227 148.63ZM174.227 177.78C178.682 177.78 181.102 172.555 181.102 164.58C181.102 156.66 178.847 149.4 173.952 149.4C169.552 149.4 167.132 154.57 167.132 162.6C167.132 170.52 169.387 177.78 174.227 177.78ZM200.628 178.55C196.998 178.55 193.313 177.45 191.168 175.855L190.838 167.88H191.333C192.543 173.545 196.283 177.725 200.903 177.725C204.038 177.725 206.623 175.745 206.623 172.17C206.623 164.58 191.553 167.22 191.553 157.21C191.553 151.875 196.118 148.63 201.508 148.63C204.753 148.63 207.338 149.51 209.593 150.94V157.87H209.153C208.548 153.69 205.523 149.4 201.233 149.4C198.153 149.4 196.118 151.435 196.118 154.35C196.118 162.16 211.408 159.19 211.408 169.475C211.408 174.975 206.843 178.55 200.628 178.55ZM230.526 173.545V143.845C230.526 140.82 229.866 140.38 225.906 139.995V139.39H254.286L254.561 149.29H254.066C251.756 141.81 249.281 140.38 244.606 140.38H237.016V157.54H243.836C247.411 157.54 248.346 155.285 248.731 151.93H249.336V164.195H248.731C248.346 160.785 247.411 158.53 243.836 158.53H237.016V173.27C237.016 176.515 238.281 176.955 243.726 177.395V178H225.906V177.395C229.866 177.01 230.526 176.57 230.526 173.545ZM263.11 144.725C260.855 144.725 259.205 142.965 259.205 140.875C259.205 138.73 260.855 136.97 263.11 136.97C265.42 136.97 267.07 138.73 267.07 140.875C267.07 142.965 265.42 144.725 263.11 144.725ZM266.355 148.63V174.865C266.355 177.01 267.455 177.23 270.205 177.395V178H256.4V177.395C259.15 177.23 260.195 177.01 260.195 174.865V153.8L256.565 151.71V151.49L266.135 148.63H266.355ZM293.158 174.865V158.09C293.158 154.075 291.673 152.315 288.318 152.315C285.953 152.315 283.478 153.25 281.608 154.625V174.865C281.608 177.01 282.708 177.23 285.458 177.395V178H271.653V177.395C274.403 177.23 275.448 177.01 275.448 174.865V153.8L271.818 151.71V151.49L281.608 148.63H281.828L281.608 154.185C283.753 151.655 287.383 148.63 291.728 148.63C296.843 148.63 299.318 151.71 299.318 157.485V174.865C299.318 177.01 300.363 177.23 303.113 177.395V178H289.363V177.395C292.113 177.23 293.158 177.01 293.158 174.865ZM328.837 169.64C327.572 174.755 323.337 178.55 317.507 178.55C309.752 178.55 304.802 172.39 304.802 164.36C304.802 155.45 310.632 148.63 317.892 148.63C324.767 148.63 328.452 153.47 328.452 159.685V160.125H310.302V161.005C310.302 169.255 314.262 174.15 320.092 174.15C323.777 174.15 326.692 172.5 328.617 169.53L328.837 169.64ZM317.177 149.51C313.327 149.51 310.852 153.91 310.357 159.19H322.787C322.787 153.8 321.192 149.51 317.177 149.51ZM351.594 174.81C351.594 176.955 352.969 177.065 356.599 177.395V178H341.639V177.395C344.389 177.23 345.434 177.01 345.434 174.865V151.49H341.419V151.16L345.434 149.235V146.705C345.434 139.115 349.779 134.935 355.994 134.935C360.064 134.935 362.319 136.695 362.319 139.115C362.319 140.435 361.604 141.59 360.669 142.14H357.094C357.259 141.425 357.369 140.71 357.369 139.775C357.369 137.575 356.819 135.595 354.949 135.595C352.804 135.595 351.594 137.795 351.594 141.865V149.73H358.579V151.49H351.594V174.81ZM373.28 148.63C381.255 148.63 386.645 154.735 386.645 162.875C386.645 172.335 380.65 178.55 373.005 178.55C365.085 178.55 359.64 172.445 359.64 164.25C359.64 154.845 365.69 148.63 373.28 148.63ZM373.28 177.78C377.735 177.78 380.155 172.555 380.155 164.58C380.155 156.66 377.9 149.4 373.005 149.4C368.605 149.4 366.185 154.57 366.185 162.6C366.185 170.52 368.44 177.78 373.28 177.78ZM410.302 174.865V158.09C410.302 154.075 408.817 152.315 405.462 152.315C403.097 152.315 400.622 153.25 398.752 154.625V174.865C398.752 177.01 399.852 177.23 402.602 177.395V178H388.797V177.395C391.547 177.23 392.592 177.01 392.592 174.865V153.8L388.962 151.71V151.49L398.752 148.63H398.972L398.752 154.185C400.897 151.655 404.527 148.63 408.872 148.63C413.987 148.63 416.462 151.71 416.462 157.485V174.865C416.462 177.01 417.507 177.23 420.257 177.395V178H406.507V177.395C409.257 177.23 410.302 177.01 410.302 174.865ZM430.361 142.58V149.73H438.006V151.49H430.361V169.585C430.361 173.325 431.956 174.975 434.871 174.975C436.411 174.975 437.896 174.59 439.216 173.6L439.381 173.82C437.951 176.075 435.256 178.55 431.571 178.55C427.391 178.55 424.256 176.185 424.256 170.3V151.49H420.681V151.105C424.091 149.4 427.996 146.1 430.086 142.58H430.361Z" fill="black"/>
</svg>
