<svg width="672" height="279" viewBox="0 0 672 279" fill="none" xmlns="http://www.w3.org/2000/svg">
<rect width="672" height="279" rx="5" fill="#FAFAFA"/>
<path d="M117.985 53.39H152.69L153.515 66.645H152.965C149.665 56.965 146.695 54.435 142.405 54.435H140.04V87.71C140.04 90.625 141.085 90.9 144.77 91.23V92H125.905V91.23C129.59 90.9 130.69 90.625 130.69 87.71V54.435H128.27C123.98 54.435 121.01 56.965 117.71 66.645H117.16L117.985 53.39ZM176.371 89.03V71.54C176.371 68.57 175.216 66.92 172.191 66.92C170.266 66.92 168.506 67.525 166.911 68.405V89.03C166.911 90.955 167.901 91.175 170.266 91.34V92H154.756V91.34C157.121 91.175 158.111 90.955 158.111 89.03V54.985L154.866 52.235V52.015L166.691 48.935H166.911V68.02C168.781 65.435 172.686 62.08 177.196 62.08C182.421 62.08 185.226 65.38 185.226 71.045V89.03C185.226 90.955 186.161 91.175 188.581 91.34V92H173.016V91.34C175.381 91.175 176.371 90.955 176.371 89.03ZM215.907 82.595C214.697 88.535 209.967 92.55 203.642 92.55C195.832 92.55 190.002 86.83 190.002 78.03C190.002 69.01 196.437 62.08 204.137 62.08C211.782 62.08 215.687 67.25 215.687 73.63V73.96H197.812V74.125C197.812 82.1 201.607 86.61 207.382 86.61C210.737 86.61 213.707 85.29 215.632 82.485L215.907 82.595ZM203.367 62.96C200.012 62.96 198.087 67.525 197.867 72.915H207.987C207.987 67.25 206.612 62.96 203.367 62.96ZM243.546 91.67C247.946 91.67 250.476 85.895 250.476 78.58C250.476 71.265 247.891 66.92 243.161 66.92C241.676 66.92 240.301 67.36 239.201 68.295V84.96C239.201 89.14 240.741 91.67 243.546 91.67ZM239.201 100.525C239.201 102.45 240.576 102.67 243.711 103V103.66H226.991V103C229.411 102.835 230.346 102.615 230.346 100.69V68.13L227.101 65.38V65.16L239.201 62.08H239.421L239.201 67.8C240.906 64.94 244.261 62.08 248.661 62.08C255.316 62.08 259.496 67.36 259.496 75.5C259.496 85.73 252.786 92.55 244.041 92.55C242.061 92.55 240.301 92.055 239.201 91.175V100.525ZM273.368 48.935V89.03C273.368 90.955 274.303 91.175 276.723 91.34V92H261.158V91.34C263.578 91.175 264.513 90.955 264.513 89.03V54.985L261.268 52.235V52.015L273.148 48.935H273.368ZM302.613 71.375V86.225C302.613 87.985 303.438 88.81 304.868 88.81C305.583 88.81 306.188 88.645 306.628 88.425L306.793 88.7C305.363 90.955 302.778 92.495 299.973 92.495C296.838 92.495 294.638 90.68 293.978 87.985C292.273 90.13 289.303 92.385 285.618 92.385C281.438 92.385 277.973 89.745 277.973 85.345C277.973 81.055 281.328 78.745 286.113 77.15L293.923 74.455V68.295C293.923 65.16 293.043 62.905 290.513 62.905C288.093 62.905 287.048 65.05 287.048 68.13C287.048 69.45 287.268 71.155 287.653 72.2L282.153 72.915C280.723 72.475 279.568 71.155 279.568 69.285C279.568 64.775 285.123 62.08 291.118 62.08C298.433 62.08 302.613 64.555 302.613 71.375ZM290.788 88.59C291.943 88.59 293.043 88.26 293.923 87.38V75.335L290.348 76.82C287.818 77.81 286.443 79.35 286.443 82.76C286.443 86.28 288.093 88.59 290.788 88.59ZM318.469 55.26V63.18H325.564V65.16H318.469V83.31C318.469 86.61 320.009 88.095 322.759 88.095C323.969 88.095 325.399 87.71 326.609 86.885L326.774 87.16C324.959 90.02 321.769 92.55 317.644 92.55C312.859 92.55 309.559 89.745 309.559 83.805V65.16H306.314V64.5C310.274 62.795 315.389 58.945 318.139 55.26H318.469ZM339.436 88.865C339.436 90.79 340.811 91.01 343.946 91.34V92H327.281V91.34C329.646 91.175 330.581 90.955 330.581 89.03V65.16H326.621V64.83L330.581 62.41V61.09C330.581 53.06 336.081 48.935 342.901 48.935C347.796 48.935 350.546 50.75 350.546 53.775C350.546 55.205 349.666 56.69 348.621 57.185H343.946C344.111 56.305 344.221 55.37 344.221 54.215C344.221 51.905 343.891 49.65 342.131 49.65C340.316 49.65 339.436 51.52 339.436 54.875V63.18H346.036V65.16H339.436V88.865ZM361.526 62.08C370.106 62.08 376.211 68.02 376.211 76.71C376.211 86.005 369.721 92.55 361.361 92.55C352.836 92.55 346.676 86.61 346.676 77.92C346.676 68.625 353.221 62.08 361.526 62.08ZM361.636 91.78C365.321 91.78 366.861 86.885 366.861 79.075C366.861 69.67 365.156 62.85 361.251 62.85C357.621 62.85 356.081 67.745 356.081 75.555C356.081 84.96 357.786 91.78 361.636 91.78ZM390.247 71.65C391.897 65.875 394.152 62.08 397.892 62.08C399.047 62.08 399.927 62.41 400.422 62.795V70H399.212C395.802 70 392.612 70.22 390.247 72.255V88.865C390.247 90.79 391.622 91.01 394.757 91.34V92H378.092V91.34C380.457 91.175 381.392 90.955 381.392 89.03V68.13L378.147 65.38V65.16L390.247 62.08H390.467L390.247 71.65ZM448.861 89.03C448.861 90.955 449.851 91.175 452.216 91.34V92H436.871V91.34C439.236 91.175 440.061 90.955 440.061 89.03V71.54C440.061 68.57 438.961 66.92 436.156 66.92C434.396 66.92 432.746 67.525 431.371 68.405V89.03C431.371 90.955 432.141 91.175 434.506 91.34V92H419.326V91.34C421.691 91.175 422.516 90.955 422.516 89.03V71.54C422.516 68.57 421.471 66.92 418.666 66.92C416.851 66.92 415.256 67.525 413.826 68.405V89.03C413.826 90.955 414.651 91.175 417.016 91.34V92H401.671V91.34C404.036 91.175 404.971 90.955 404.971 89.03V68.13L401.726 65.38V65.16L413.826 62.08H414.046L413.826 68.02C415.586 65.435 419.216 62.08 423.671 62.08C427.741 62.08 430.436 64.28 431.316 68.02C433.076 65.435 436.761 62.08 441.216 62.08C446.221 62.08 448.861 65.38 448.861 71.045V89.03ZM129.48 155.865C129.48 157.79 130.855 158.01 133.99 158.34V159H117.325V158.34C119.69 158.175 120.625 157.955 120.625 156.03V132.16H116.665V131.83L120.625 129.41V128.09C120.625 120.06 126.125 115.935 132.945 115.935C137.84 115.935 140.59 117.75 140.59 120.775C140.59 122.205 139.71 123.69 138.665 124.185H133.99C134.155 123.305 134.265 122.37 134.265 121.215C134.265 118.905 133.935 116.65 132.175 116.65C130.36 116.65 129.48 118.52 129.48 121.875V130.18H136.08V132.16H129.48V155.865ZM151.57 129.08C160.15 129.08 166.255 135.02 166.255 143.71C166.255 153.005 159.765 159.55 151.405 159.55C142.88 159.55 136.72 153.61 136.72 144.92C136.72 135.625 143.265 129.08 151.57 129.08ZM151.68 158.78C155.365 158.78 156.905 153.885 156.905 146.075C156.905 136.67 155.2 129.85 151.295 129.85C147.665 129.85 146.125 134.745 146.125 142.555C146.125 151.96 147.83 158.78 151.68 158.78ZM180.291 138.65C181.941 132.875 184.196 129.08 187.936 129.08C189.091 129.08 189.971 129.41 190.466 129.795V137H189.256C185.846 137 182.656 137.22 180.291 139.255V155.865C180.291 157.79 181.666 158.01 184.801 158.34V159H168.136V158.34C170.501 158.175 171.436 157.955 171.436 156.03V135.13L168.191 132.38V132.16L180.291 129.08H180.511L180.291 138.65ZM226.344 138.375V153.225C226.344 154.985 227.169 155.81 228.599 155.81C229.314 155.81 229.919 155.645 230.359 155.425L230.524 155.7C229.094 157.955 226.509 159.495 223.704 159.495C220.569 159.495 218.369 157.68 217.709 154.985C216.004 157.13 213.034 159.385 209.349 159.385C205.169 159.385 201.704 156.745 201.704 152.345C201.704 148.055 205.059 145.745 209.844 144.15L217.654 141.455V135.295C217.654 132.16 216.774 129.905 214.244 129.905C211.824 129.905 210.779 132.05 210.779 135.13C210.779 136.45 210.999 138.155 211.384 139.2L205.884 139.915C204.454 139.475 203.299 138.155 203.299 136.285C203.299 131.775 208.854 129.08 214.849 129.08C222.164 129.08 226.344 131.555 226.344 138.375ZM214.519 155.59C215.674 155.59 216.774 155.26 217.654 154.38V142.335L214.079 143.82C211.549 144.81 210.174 146.35 210.174 149.76C210.174 153.28 211.824 155.59 214.519 155.59ZM244.895 130.015C241.32 130.015 238.845 135.075 238.845 140.795C238.845 149.1 242.475 153.61 248.03 153.61C251.22 153.61 253.86 152.29 255.785 149.485L256.005 149.595C254.85 155.59 250.395 159.55 244.18 159.55C236.645 159.55 231.145 153.83 231.145 145.03C231.145 136.01 237.745 129.08 245.94 129.08C251.33 129.08 255.51 131.39 255.51 135.57C255.51 137.495 254.355 139.035 253.2 139.585H248.415C248.635 138.54 248.745 137.66 248.745 136.67C248.745 133.645 247.865 130.015 244.895 130.015ZM268.841 122.26V130.18H275.936V132.16H268.841V150.31C268.841 153.61 270.381 155.095 273.131 155.095C274.341 155.095 275.771 154.71 276.981 153.885L277.146 154.16C275.331 157.02 272.141 159.55 268.016 159.55C263.231 159.55 259.931 156.745 259.931 150.805V132.16H256.686V131.5C260.646 129.795 265.761 125.945 268.511 122.26H268.841ZM285.407 126.165C282.382 126.165 280.457 124.02 280.457 121.49C280.457 118.96 282.382 116.76 285.407 116.76C288.377 116.76 290.302 118.96 290.302 121.49C290.302 124.02 288.377 126.165 285.407 126.165ZM289.807 129.08V156.03C289.807 157.955 290.797 158.175 293.162 158.34V159H277.652V158.34C280.017 158.175 280.952 157.955 280.952 156.03V135.13L277.707 132.38V132.16L289.587 129.08H289.807ZM324.234 129.63V130.29C322.254 130.62 321.374 131.39 320.384 133.755L309.769 159.33H308.339L296.129 133.315C295.139 131.28 294.699 130.73 292.774 130.29V129.63H309.219V130.29C306.469 130.565 305.479 131.06 305.479 132.16C305.479 132.6 305.589 133.15 305.864 133.755L312.519 149.98L318.789 134.14C319.009 133.48 319.119 132.93 319.119 132.435C319.119 130.95 317.579 130.455 314.554 130.29V129.63H324.234ZM348.788 149.595C347.578 155.535 342.848 159.55 336.523 159.55C328.713 159.55 322.883 153.83 322.883 145.03C322.883 136.01 329.318 129.08 337.018 129.08C344.663 129.08 348.568 134.25 348.568 140.63V140.96H330.693V141.125C330.693 149.1 334.488 153.61 340.263 153.61C343.618 153.61 346.588 152.29 348.513 149.485L348.788 149.595ZM336.248 129.96C332.893 129.96 330.968 134.525 330.748 139.915H340.868C340.868 134.25 339.493 129.96 336.248 129.96ZM384.952 138.375V153.225C384.952 154.985 385.777 155.81 387.207 155.81C387.922 155.81 388.527 155.645 388.967 155.425L389.132 155.7C387.702 157.955 385.117 159.495 382.312 159.495C379.177 159.495 376.977 157.68 376.317 154.985C374.612 157.13 371.642 159.385 367.957 159.385C363.777 159.385 360.312 156.745 360.312 152.345C360.312 148.055 363.667 145.745 368.452 144.15L376.262 141.455V135.295C376.262 132.16 375.382 129.905 372.852 129.905C370.432 129.905 369.387 132.05 369.387 135.13C369.387 136.45 369.607 138.155 369.992 139.2L364.492 139.915C363.062 139.475 361.907 138.155 361.907 136.285C361.907 131.775 367.462 129.08 373.457 129.08C380.772 129.08 384.952 131.555 384.952 138.375ZM373.127 155.59C374.282 155.59 375.382 155.26 376.262 154.38V142.335L372.687 143.82C370.157 144.81 368.782 146.35 368.782 149.76C368.782 153.28 370.432 155.59 373.127 155.59ZM402.623 147.615C405.373 147.615 406.418 144.37 406.418 139.42C406.418 134.03 405.043 129.795 402.128 129.795C399.378 129.795 398.333 133.04 398.333 137.825C398.333 143.38 399.763 147.615 402.623 147.615ZM418.078 159.55C418.078 166.535 411.093 171.265 401.358 171.265C394.318 171.265 388.268 169.12 388.268 165.05C388.268 162.19 391.513 160.54 394.373 160.1C392.008 159.165 389.808 157.35 389.808 154.38C389.808 150.86 392.613 148.55 395.803 147.01C392.558 145.635 390.083 143.05 390.083 139.145C390.083 133.04 395.638 129.08 402.568 129.08C404.218 129.08 405.923 129.41 407.518 129.96L416.978 129.3V132.875H416.593L410.818 131.61C413.073 133.205 414.668 135.515 414.668 138.265C414.668 144.37 409.113 148.33 402.238 148.33C400.258 148.33 398.168 148 396.298 147.23C395.363 148.165 394.538 149.265 394.538 150.53C394.538 151.575 395.143 152.29 396.573 152.29H408.343C414.558 152.29 418.078 154.545 418.078 159.55ZM407.518 160.21H394.813C393.878 160.925 393.438 162.135 393.438 163.785C393.438 167.91 397.123 170.495 402.403 170.495C407.353 170.495 412.138 168.515 412.138 164.005C412.138 161.255 410.378 160.21 407.518 160.21ZM426.398 126.165C423.373 126.165 421.448 124.02 421.448 121.49C421.448 118.96 423.373 116.76 426.398 116.76C429.368 116.76 431.293 118.96 431.293 121.49C431.293 124.02 429.368 126.165 426.398 126.165ZM430.798 129.08V156.03C430.798 157.955 431.788 158.175 434.153 158.34V159H418.643V158.34C421.008 158.175 421.943 157.955 421.943 156.03V135.13L418.698 132.38V132.16L430.578 129.08H430.798ZM457.124 156.03V138.54C457.124 135.57 455.969 133.92 452.944 133.92C450.964 133.92 449.204 134.525 447.664 135.405V156.03C447.664 157.955 448.654 158.175 451.019 158.34V159H435.509V158.34C437.874 158.175 438.809 157.955 438.809 156.03V135.13L435.564 132.38V132.16L447.664 129.08H447.884L447.664 135.02C449.534 132.435 453.384 129.08 457.894 129.08C463.119 129.08 465.924 132.38 465.924 138.045V156.03C465.924 157.955 466.914 158.175 469.279 158.34V159H453.769V158.34C456.134 158.175 457.124 157.955 457.124 156.03ZM483.619 147.615C486.369 147.615 487.414 144.37 487.414 139.42C487.414 134.03 486.039 129.795 483.124 129.795C480.374 129.795 479.329 133.04 479.329 137.825C479.329 143.38 480.759 147.615 483.619 147.615ZM499.074 159.55C499.074 166.535 492.089 171.265 482.354 171.265C475.314 171.265 469.264 169.12 469.264 165.05C469.264 162.19 472.509 160.54 475.369 160.1C473.004 159.165 470.804 157.35 470.804 154.38C470.804 150.86 473.609 148.55 476.799 147.01C473.554 145.635 471.079 143.05 471.079 139.145C471.079 133.04 476.634 129.08 483.564 129.08C485.214 129.08 486.919 129.41 488.514 129.96L497.974 129.3V132.875H497.589L491.814 131.61C494.069 133.205 495.664 135.515 495.664 138.265C495.664 144.37 490.109 148.33 483.234 148.33C481.254 148.33 479.164 148 477.294 147.23C476.359 148.165 475.534 149.265 475.534 150.53C475.534 151.575 476.139 152.29 477.569 152.29H489.339C495.554 152.29 499.074 154.545 499.074 159.55ZM488.514 160.21H475.809C474.874 160.925 474.434 162.135 474.434 163.785C474.434 167.91 478.119 170.495 483.399 170.495C488.349 170.495 493.134 168.515 493.134 164.005C493.134 161.255 491.374 160.21 488.514 160.21ZM500.572 154.325C500.572 151.3 502.882 149.1 505.797 149.1C508.657 149.1 510.967 151.3 510.967 154.325C510.967 157.35 508.657 159.55 505.797 159.55C502.882 159.55 500.572 157.35 500.572 154.325ZM118.04 187.39H150.93L151.755 199.435H151.26C148.51 190.8 146.31 188.38 141.25 188.38H137.785V221.655C137.785 224.735 139.16 225.065 142.9 225.395V226H126.07V225.395C129.865 225.065 131.295 224.735 131.295 221.655V188.38H127.72C122.715 188.38 120.515 190.8 117.765 199.435H117.215L118.04 187.39ZM160.13 192.725C157.875 192.725 156.225 190.965 156.225 188.875C156.225 186.73 157.875 184.97 160.13 184.97C162.44 184.97 164.09 186.73 164.09 188.875C164.09 190.965 162.44 192.725 160.13 192.725ZM163.375 196.63V222.865C163.375 225.01 164.475 225.23 167.225 225.395V226H153.42V225.395C156.17 225.23 157.215 225.01 157.215 222.865V201.8L153.585 199.71V199.49L163.155 196.63H163.375ZM193.094 217.64C191.829 222.755 187.594 226.55 181.764 226.55C174.009 226.55 169.059 220.39 169.059 212.36C169.059 203.45 174.889 196.63 182.149 196.63C189.024 196.63 192.709 201.47 192.709 207.685V208.125H174.559V209.005C174.559 217.255 178.519 222.15 184.349 222.15C188.034 222.15 190.949 220.5 192.874 217.53L193.094 217.64ZM181.434 197.51C177.584 197.51 175.109 201.91 174.614 207.19H187.044C187.044 201.8 185.449 197.51 181.434 197.51ZM238.667 222.865C238.667 225.01 239.767 225.23 242.517 225.395V226H228.767V225.395C231.517 225.23 232.562 225.01 232.562 222.865V206.09C232.562 202.075 231.132 200.315 227.997 200.315C225.797 200.315 223.432 201.25 221.727 202.625V222.865C221.727 225.01 222.717 225.23 225.467 225.395V226H211.827V225.395C214.577 225.23 215.567 225.01 215.567 222.865V206.09C215.567 202.075 214.192 200.315 211.002 200.315C208.802 200.315 206.492 201.25 204.732 202.625V222.865C204.732 225.01 205.777 225.23 208.527 225.395V226H194.777V225.395C197.527 225.23 198.572 225.01 198.572 222.865V201.8L194.942 199.71V199.49L204.732 196.63H204.952L204.732 202.185C206.767 199.655 210.232 196.63 214.412 196.63C218.317 196.63 220.902 198.555 221.672 202.24C223.707 199.71 227.227 196.63 231.352 196.63C236.302 196.63 238.667 199.71 238.667 205.485V222.865ZM258.667 225.725C263.837 225.725 267.137 219.84 267.137 212.36C267.137 205.485 264.552 200.205 258.777 200.205C256.632 200.205 254.597 201.085 253.222 202.515V218.41C253.222 223.195 255.422 225.725 258.667 225.725ZM253.222 234.47C253.222 236.615 254.542 236.725 258.172 237.055V237.66H243.267V237.055C246.017 236.89 247.062 236.67 247.062 234.525V201.8L243.432 199.71V199.49L253.222 196.63H253.442L253.222 202.02C255.202 199.16 258.447 196.63 262.737 196.63C269.392 196.63 273.352 201.91 273.352 209.885C273.352 219.18 267.357 226.55 258.832 226.55C256.852 226.55 254.597 225.945 253.222 224.735V234.47ZM290.227 196.63C298.202 196.63 303.592 202.735 303.592 210.875C303.592 220.335 297.597 226.55 289.952 226.55C282.032 226.55 276.587 220.445 276.587 212.25C276.587 202.845 282.637 196.63 290.227 196.63ZM290.227 225.78C294.682 225.78 297.102 220.555 297.102 212.58C297.102 204.66 294.847 197.4 289.952 197.4C285.552 197.4 283.132 202.57 283.132 210.6C283.132 218.52 285.387 225.78 290.227 225.78ZM316.628 226.55C312.998 226.55 309.313 225.45 307.168 223.855L306.838 215.88H307.333C308.543 221.545 312.283 225.725 316.903 225.725C320.038 225.725 322.623 223.745 322.623 220.17C322.623 212.58 307.553 215.22 307.553 205.21C307.553 199.875 312.118 196.63 317.508 196.63C320.753 196.63 323.338 197.51 325.593 198.94V205.87H325.153C324.548 201.69 321.523 197.4 317.233 197.4C314.153 197.4 312.118 199.435 312.118 202.35C312.118 210.16 327.408 207.19 327.408 217.475C327.408 222.975 322.843 226.55 316.628 226.55ZM346.526 221.545V191.845C346.526 188.82 345.866 188.38 341.906 187.995V187.39H370.286L370.561 197.29H370.066C367.756 189.81 365.281 188.38 360.606 188.38H353.016V205.54H359.836C363.411 205.54 364.346 203.285 364.731 199.93H365.336V212.195H364.731C364.346 208.785 363.411 206.53 359.836 206.53H353.016V221.27C353.016 224.515 354.281 224.955 359.726 225.395V226H341.906V225.395C345.866 225.01 346.526 224.57 346.526 221.545ZM379.11 192.725C376.855 192.725 375.205 190.965 375.205 188.875C375.205 186.73 376.855 184.97 379.11 184.97C381.42 184.97 383.07 186.73 383.07 188.875C383.07 190.965 381.42 192.725 379.11 192.725ZM382.355 196.63V222.865C382.355 225.01 383.455 225.23 386.205 225.395V226H372.4V225.395C375.15 225.23 376.195 225.01 376.195 222.865V201.8L372.565 199.71V199.49L382.135 196.63H382.355ZM409.158 222.865V206.09C409.158 202.075 407.673 200.315 404.318 200.315C401.953 200.315 399.478 201.25 397.608 202.625V222.865C397.608 225.01 398.708 225.23 401.458 225.395V226H387.653V225.395C390.403 225.23 391.448 225.01 391.448 222.865V201.8L387.818 199.71V199.49L397.608 196.63H397.828L397.608 202.185C399.753 199.655 403.383 196.63 407.728 196.63C412.843 196.63 415.318 199.71 415.318 205.485V222.865C415.318 225.01 416.363 225.23 419.113 225.395V226H405.363V225.395C408.113 225.23 409.158 225.01 409.158 222.865ZM444.837 217.64C443.572 222.755 439.337 226.55 433.507 226.55C425.752 226.55 420.802 220.39 420.802 212.36C420.802 203.45 426.632 196.63 433.892 196.63C440.767 196.63 444.452 201.47 444.452 207.685V208.125H426.302V209.005C426.302 217.255 430.262 222.15 436.092 222.15C439.777 222.15 442.692 220.5 444.617 217.53L444.837 217.64ZM433.177 197.51C429.327 197.51 426.852 201.91 426.357 207.19H438.787C438.787 201.8 437.192 197.51 433.177 197.51ZM467.594 222.81C467.594 224.955 468.969 225.065 472.599 225.395V226H457.639V225.395C460.389 225.23 461.434 225.01 461.434 222.865V199.49H457.419V199.16L461.434 197.235V194.705C461.434 187.115 465.779 182.935 471.994 182.935C476.064 182.935 478.319 184.695 478.319 187.115C478.319 188.435 477.604 189.59 476.669 190.14H473.094C473.259 189.425 473.369 188.71 473.369 187.775C473.369 185.575 472.819 183.595 470.949 183.595C468.804 183.595 467.594 185.795 467.594 189.865V197.73H474.579V199.49H467.594V222.81ZM489.28 196.63C497.255 196.63 502.645 202.735 502.645 210.875C502.645 220.335 496.65 226.55 489.005 226.55C481.085 226.55 475.64 220.445 475.64 212.25C475.64 202.845 481.69 196.63 489.28 196.63ZM489.28 225.78C493.735 225.78 496.155 220.555 496.155 212.58C496.155 204.66 493.9 197.4 489.005 197.4C484.605 197.4 482.185 202.57 482.185 210.6C482.185 218.52 484.44 225.78 489.28 225.78ZM526.302 222.865V206.09C526.302 202.075 524.817 200.315 521.462 200.315C519.097 200.315 516.622 201.25 514.752 202.625V222.865C514.752 225.01 515.852 225.23 518.602 225.395V226H504.797V225.395C507.547 225.23 508.592 225.01 508.592 222.865V201.8L504.962 199.71V199.49L514.752 196.63H514.972L514.752 202.185C516.897 199.655 520.527 196.63 524.872 196.63C529.987 196.63 532.462 199.71 532.462 205.485V222.865C532.462 225.01 533.507 225.23 536.257 225.395V226H522.507V225.395C525.257 225.23 526.302 225.01 526.302 222.865ZM546.361 190.58V197.73H554.006V199.49H546.361V217.585C546.361 221.325 547.956 222.975 550.871 222.975C552.411 222.975 553.896 222.59 555.216 221.6L555.381 221.82C553.951 224.075 551.256 226.55 547.571 226.55C543.391 226.55 540.256 224.185 540.256 218.3V199.49H536.681V199.105C540.091 197.4 543.996 194.1 546.086 190.58H546.361Z" fill="black"/>
</svg>
